<svg xmlns="http://www.w3.org/2000/svg" viewBox="0 0 402.07 126.64"><defs><style>.cls-1,.cls-2,.cls-3,.cls-5{fill:#fff;}.cls-1,.cls-2,.cls-3{stroke:#000;stroke-miterlimit:10;}.cls-1{stroke-width:4.21px;}.cls-2{stroke-width:4.3px;}.cls-3{stroke-width:4.3px;}.cls-4{fill:#d43a52;}</style></defs><title>アセット 222</title><g id="レイヤー_2" data-name="レイヤー 2"><g id="レイヤー_1-2" data-name="レイヤー 1"><polygon class="cls-1" points="399.92 40.55 41.62 40.55 60.35 2.11 399.92 2.11 399.92 40.55"/><rect class="cls-2" x="53.07" y="40.54" width="346.85" height="69.43"/><circle class="cls-3" cx="54.61" cy="72.03" r="52.46"/><path d="M177.9,72.86c.23,0,.3.14.3,1.74,0,.57,0,1.12,0,1.42a.31.31,0,0,1-.34.27c-3.26-.17-5.92-.27-8.23-.34-.07.24-.41.51-.71.79a2.84,2.84,0,0,0-.75,1.49A25,25,0,0,1,167,81.29c5.17,1.84,8.26,4.86,8.26,5.2a8.26,8.26,0,0,1-2.28,3.2.41.41,0,0,1-.3-.17,19,19,0,0,0-7.28-5.61c-2.82,3.74-7.31,5.78-14.58,6-.07,0-.14,0-.24,0a.44.44,0,0,1-.44-.27,13.08,13.08,0,0,0-2.48-2.82.9.9,0,0,1-.24-.41c0-.07.07-.07.17-.07h.24c1,.07,1.93.1,2.82.1,5.51,0,9.28-1.25,11.66-3.7a23.36,23.36,0,0,0-3.23-.68l-.61,1.49a.36.36,0,0,1-.38.21h-.44c-.37,0-3.09,0-3.09-.55a.44.44,0,0,1,.07-.2A48.25,48.25,0,0,0,158,75.92c-2.55.07-5.54.14-9.72.34h-.11c-.27,0-.34-.14-.34-1.7s.11-1.7.28-1.7h.17c4.76.24,7.88.34,10.64.37a36.3,36.3,0,0,0,1.25-5.5c0-.24.11-.31.21-.31s4.18.89,4.18,1.57c0,.3-.41.61-.68.85s-.78,1-1.77,3.39h.95c4,0,7.76,0,14.76-.37Zm-2.49-8.6c-.1,1.46-.27,2.52-.27,3.06.07,1.09.17,1.56.41,3.37,0,.3-.41.33-2.07.33-.68,0-1.29,0-1.57,0s-.3-.17-.3-.34a32.41,32.41,0,0,0,.2-3.57c-3.09-.13-5.4-.13-8.8-.13-3.88,0-5,0-8.64.13,0,.85.07,1.7.24,3.78,0,.33-.44.37-2.35.37-1.53,0-1.7-.1-1.7-.31v-.1A27.42,27.42,0,0,0,151,67a18.23,18.23,0,0,0-.24-2.66v-.13c0-.17.07-.24.27-.24h.14c5.91.31,7.68.37,10.2.37a20.13,20.13,0,0,0-.41-5,.54.54,0,0,1,0-.2c0-.1.1-.14.3-.14,1.12,0,4.42.27,4.42.95,0,.41-.58,1-.75,1.7a17.53,17.53,0,0,0-.34,2.72c2.93,0,4.56,0,10.51-.37.24,0,.3.07.3.24ZM161.17,75.89c-.44,1.26-.85,2.55-1.26,3.77a33.6,33.6,0,0,1,4.05.71,12.14,12.14,0,0,0,1.26-4.48Z"/><path d="M211.29,88.53c-6.87-.27-10.44-.3-14.42-.3-3.67,0-7.62.07-14.18.34h-.06c-.31,0-.38-.1-.38-1.7,0-1.84.07-1.87.44-1.87,4.56.27,7.65.34,10.27.34h2.28c.07-3.06.07-6.67.07-10-2.31,0-4.59.14-8.88.38-.3,0-.37-.14-.37-1.74,0-1.8,0-1.9.37-1.9,4.53.37,6.67.37,8.84.37a110.67,110.67,0,0,0-.44-11.28.43.43,0,0,1,0-.17c0-.14.07-.17.3-.17,1.29.06,4.73.68,4.73,1.25,0,.28-.34.58-.58,1.06-.41.81-.51,1-.51,3.26l-.1,6c2.45,0,4.42-.07,9.18-.34a.28.28,0,0,1,.3.31,11.89,11.89,0,0,1,.07,1.49,13.18,13.18,0,0,1-.07,1.53.29.29,0,0,1-.27.27c-4.52-.24-6.8-.3-9.21-.34,0,3.3,0,6.84.1,10,3.37,0,6.39-.07,12.51-.34.21,0,.37.1.37.3a15.91,15.91,0,0,1,.07,1.67,10.33,10.33,0,0,1-.07,1.33c0,.13-.16.23-.27.23Z"/><path d="M224.21,89.62c0,.14,0,.31-1.8.31-2,0-2.11-.1-2.11-.38.41-4.69.51-11,.54-14.65-1.83,3-3.91,5-4.42,5a.43.43,0,0,1-.27-.1,8.23,8.23,0,0,0-2.55-1.22c-.14,0-.27-.11-.27-.17s0-.11.13-.17a22.59,22.59,0,0,0,7.38-7.72v-.88c-1.09,0-2.45.17-4.18.3-.24,0-.37-.07-.37-1.66,0-1.43.06-1.6.37-1.6,1.73.17,3.09.27,4.18.3a55,55,0,0,0-.37-7.41.51.51,0,0,1,0-.2s0-.1.28-.1c3.09.3,3.91.57,3.91,1a12.58,12.58,0,0,1-.55,1.67,33.35,33.35,0,0,0-.34,5c.82,0,1.7-.14,2.72-.24a.35.35,0,0,1,.38.27v.41A9.92,9.92,0,0,1,228,66.3a.44.44,0,0,1,.31-.17c.54,0,3,2.35,3.06,2.45a57,57,0,0,0-.58-8.37.3.3,0,0,1,0-.17c0-.06,0-.06.11-.06.57,0,4.35.47,4.35,1.19,0,.23-.21.54-.65,1a23.87,23.87,0,0,0-.13,3.8c0,2.15,0,4.87,0,7.31,0,6.6-1,12.07-7.89,16.32a.37.37,0,0,1-.2.07.51.51,0,0,1-.34-.14,8.78,8.78,0,0,0-1.9-1.46Zm4.18-9.86c-.44.31-.58.75-.89.75A8,8,0,0,1,225,77.72c0-.13.14-.17.34-.2a23.2,23.2,0,0,0,6-3.3v-1c0-.2,0-1.35,0-2.92l-1.16,1.4a.72.72,0,0,1-.27.13c-.1,0-.17-.07-.3-.24a18.65,18.65,0,0,0-2.82-3V69.7c0,.17-.31.27-.38.27l-2.75-.27v1.12a18.52,18.52,0,0,0,4.18,3c.2.1.34.24.34.34a.18.18,0,0,1-.14.17,9,9,0,0,0-2,1.46c-.14.14-.24.24-.34.24a8.74,8.74,0,0,1-2.07-2c0,2.92.13,8.77.34,13a11.39,11.39,0,0,0,7.07-9.21Zm18.9,5.51c-.3,2.86-1.7,4-6.49,4-2.18,0-4.8-.34-4.8-3.36v-.17c.14-2.59.17-19.79.17-22a20.3,20.3,0,0,0-.37-3.57.66.66,0,0,1,0-.2c0-.07,0-.11.23-.11.58,0,4.15.51,4.15,1.3a2.32,2.32,0,0,1-.61,1.08c-.37.48-.48,1.6-.48,6.94a17,17,0,0,0,3.27-3.84c.07-.1.1-.14.17-.14.3,0,2.68,2.18,2.68,2.93,0,.34-.34.4-.85.51a3,3,0,0,0-1.39.78,24.53,24.53,0,0,1-3.54,2.51.25.25,0,0,1-.23-.17L239,71.6c0,1.4,0,2.83,0,4.22a7.42,7.42,0,0,1,1.36-1.91c.34,0,5.3,2.49,5.3,3.3a1.78,1.78,0,0,1-.1.38c-.07.2-1.33,1.9-1.4,2a.48.48,0,0,1-.3.17.22.22,0,0,1-.17-.07,23.45,23.45,0,0,0-4.49-3.36l-.2-.1c0,2,0,4,0,5.54s0,2.72,0,3.23c0,1.22,1,1.29,1.93,1.29,2.52,0,3-.48,3-2.86,0-.3,0-.61,0-1,0-.1,0-.13.07-.13s.1,0,.24.17A14.46,14.46,0,0,0,247,84.86a.52.52,0,0,1,.27.38Z"/><path d="M273.68,69.29c0-.13,0-.13.13-.13s4.56.51,4.56,1.25c0,.31-.41.75-.65,1.47a20.1,20.1,0,0,0-.41,5.37c0,3,.14,8.39.41,11.59,0,.17-.07.34-1.94.34s-1.9-.1-1.9-.41c0-.75,0-1.73,0-2.79-3.6-.13-5-.13-6.63-.13-.54,0-6.66,0-11.18.13,0,1.13,0,2.11.07,2.89,0,.17,0,.34-1.91.34-1.53,0-1.87-.06-1.87-.34v-.06c.17-2.76.41-9.63.41-11.8a50.1,50.1,0,0,0-.34-7.72c0-.07,0-.13,0-.17s0-.1.13-.1,4.56.51,4.56,1.22c0,.34-.41.78-.68,1.47s-.37,2.48-.37,5.3v5.85c4.08.13,5.47.13,7,.13,0-2.17.14-6,.14-9.45a107.94,107.94,0,0,0-.55-12.78.68.68,0,0,1,0-.21c0-.13.06-.2.27-.2,1.12.07,4.72.61,4.72,1.26,0,.27-.34.64-.57,1.12-.38.75-.55,2.11-.55,10.44,0,3.57,0,7.61.07,9.82,1.63,0,3.3,0,7.41-.13,0-2.11,0-4.19,0-5.61a54.72,54.72,0,0,0-.34-7.82Z"/><path d="M295.13,82.75c0,.34-.1.58-1.7.58-.92,0-1.63,0-1.63-.47v-.07c0-.65,0-1.5.07-2.42-.38,0-1-.06-1.46-.06s-1.19,0-1.57.06c0,1.53,0,3,.07,4.36,0,.57-.07.61-1.7.61s-1.73-.21-1.73-.55v-.1c.3-4.66.37-9.75.37-12.54,0-3.5-.07-6.26-.2-9.05,0-.13,0-.2,0-.3s.07-.21.24-.21.17,0,.27,0c1.09.1,2.59.17,4.32.17s2-.07,4.22-.21c.37,0,.44.14.44.48-.24,2.69-.24,5.81-.24,8.74,0,2.55.07,8,.27,10.74Zm-4.76-17.33c-.95,0-1.53,0-1.53,0s-.07,2.11-.07,4.52c.41,0,1.09,0,1.6,0s1.23,0,1.6,0c0-2.17-.1-4.52-.1-4.52s-.34,0-1,0Zm1.6,7.31c-.37,0-1,0-1.56,0s-1.26,0-1.64,0c0,1.32,0,3,0,4.86.41,0,1.05,0,1.56,0s1.16,0,1.53,0C291.94,75.75,292,74,292,72.73Zm21.82.17c-3.77-.38-7.3-.41-9.45-.41s-3.91.07-8.36.34c-.34,0-.41-.1-.41-1.57s0-1.63.41-1.63c3.33.27,5.07.34,6.83.34V67.29c-1.53,0-3,.06-5.47.2-.3,0-.37,0-.37-1.46s.07-1.53.44-1.53c2.38.2,3.91.2,5.34.2v-.34a28.2,28.2,0,0,0-.48-5v-.17c0-.17,0-.21.24-.21.54,0,4.35.41,4.35,1.13,0,.27-.31.61-.51,1-.37.71-.34.64-.48,2.85a4.94,4.94,0,0,0,0,.68c1.29,0,2.58-.07,5.2-.24.17,0,.41,0,.41,1.57a6.7,6.7,0,0,1-.07,1.26c0,.13-.2.2-.3.2h0c-2.55-.14-3.74-.17-5.23-.2V70c2.1,0,4.86-.17,8-.41.24,0,.38.24.38,1.67,0,.54,0,1.09-.07,1.43,0,.13-.17.24-.27.24Zm-4.58,13c0,2-1.13,4.25-5.1,4.25q-.32,0-.51-.51c-.65-1.53-1.84-2.07-2.66-3-.1-.11-.17-.17-.17-.24s0-.07.14-.07a1.39,1.39,0,0,0,.17,0,19.72,19.72,0,0,0,2.75.28c1.3,0,2-.34,2-1.33.07-1.33.07-4,.07-5.54v-2h-1.46c-2.18,0-3.94.06-8.33.34a.33.33,0,0,1-.34-.31c0-.27,0-.78,0-1.33,0-1.63,0-1.63.37-1.63,4.22.34,6,.34,8.33.34h1.36a14.14,14.14,0,0,0-.27-2c0-.06,0-.1,0-.13s.11-.21.28-.21,4,.34,4,1a.86.86,0,0,1-.27.54c-.3.41-.41.41-.44.75,1.39-.07,3-.17,4.62-.3h0c.2,0,.34.27.34,1.69,0,.55,0,1.13-.07,1.47a.33.33,0,0,1-.27.23h0c-1.66-.17-3.26-.27-4.69-.3v2.92c0,1.84.17,3,.21,4.93Zm-7.52-1.49c-.07,0-.13-.07-.2-.14a19.19,19.19,0,0,0-4.25-3.64c-.1-.07-.14-.1-.14-.17,0-.37,1.5-1.36,1.84-1.56a.28.28,0,0,1,.17-.1.39.39,0,0,1,.17.06,17.17,17.17,0,0,1,4.45,2.89.29.29,0,0,1,.1.21,14.63,14.63,0,0,1-2,2.38C301.79,84.35,301.76,84.39,301.69,84.39Z"/><path d="M322.94,89.32c.51-4.59.75-12,.89-17.58-.31.37-3.81,4.72-4.56,4.72a.45.45,0,0,1-.27-.06,9.46,9.46,0,0,0-2.86-1.06c-.2,0-.34-.1-.34-.17s.07-.13.17-.2c5.85-4.15,10.51-12,10.92-14.28,0-.14.07-.2.17-.2.57,0,4,1.46,4,2.1,0,.24-.28.48-.79.68s-.68.14-.95.68A39.91,39.91,0,0,1,327,67.52c.24.07.41.17.54.21a.42.42,0,0,1,.34.41,1.06,1.06,0,0,1-.34.64,2.12,2.12,0,0,0-.51,1.63c-.13,4.22-.3,9.76-.3,14.28,0,1.77,0,3.37.1,4.69,0,.17-.1.34-1.94.34-1.6,0-1.94,0-1.94-.34Zm23.53-18.19c0,.13-.24.27-.34.27-5.1.37-5.85.44-8.84.88l-.71.11c2,10.13,7.61,12.91,8.29,12.91s1.6-1,1.84-3.8c0-.21.07-.28.17-.28s.13.07.2.17a12.07,12.07,0,0,0,2.72,2.76.52.52,0,0,1,.24.51c-.92,3-2.55,4.66-4.56,4.66a5.14,5.14,0,0,1-2.72-.92c-5.61-3.54-8.09-9.52-9.35-15.47l-4.86,1h-.1a.41.41,0,0,1-.41-.24,13.43,13.43,0,0,1-.37-2.69v-.13c0-.34.17-.41.37-.41,2.14-.13,3.61-.27,4.86-.44-.27-1.73-.47-3.47-.61-5.1s-.27-3-.47-3.91a1.76,1.76,0,0,1-.07-.37.18.18,0,0,1,.2-.21c.07,0,.14,0,.21,0,3.67.44,4.42.57,4.42,1.12a3.34,3.34,0,0,1-.51,1.19,2.62,2.62,0,0,0-.21,1.12,49.33,49.33,0,0,0,.27,5.68l.75-.1c3.27-.45,4.08-.62,8.74-1.6h.07a.36.36,0,0,1,.37.3,18.12,18.12,0,0,1,.41,2.89Zm-5.17-3.54a23,23,0,0,0-4.11-2.82c-.14-.07-.27-.1-.27-.24a5.66,5.66,0,0,1,1.76-2.21c.65,0,4.8,2.31,4.8,2.76s-1.36,2.68-1.8,2.68A.51.51,0,0,1,341.3,67.59Z"/><path d="M117.81,17.36c-2.56.49-4.81.93-7,1.39-.8.19-1,.23-1.33.33a1.07,1.07,0,0,1-.46.17.49.49,0,0,1-.4-.31,15.11,15.11,0,0,1-.77-2.27,28.59,28.59,0,0,0,3.33-.36c2.59-.38,7.21-1.07,12.62-1.78.32,0,.42.08.44.23a11.26,11.26,0,0,1,.23,1.85c0,.25-.12.31-.39.31a9.49,9.49,0,0,0-2.57.46c-3.57,1.22-5.35,3.68-5.35,6.2,0,2.7,1.93,4.18,5.58,4.41.34,0,.47.08.47.31a7.87,7.87,0,0,1-.23,1.81c-.07.31-.15.44-.4.44-3.7,0-7.75-2.12-7.75-6.49,0-3,1.49-5,4-6.66ZM122,19.63c.1-.08.19-.06.31,0a10,10,0,0,1,2,2.25.21.21,0,0,1-.07.33l-.88.65a.21.21,0,0,1-.35-.06,10.48,10.48,0,0,0-2.13-2.43Zm1.87-1.36c.12-.09.19-.07.31,0a8.65,8.65,0,0,1,2,2.16.25.25,0,0,1-.07.38l-.84.65a.21.21,0,0,1-.35-.06,9.84,9.84,0,0,0-2.1-2.42Z"/><path d="M134.8,14.65a5.54,5.54,0,0,0-.73-1.34,14.54,14.54,0,0,1,2.54-.23c.29,0,.46.17.46.38s0,.27,0,.4a4.17,4.17,0,0,0,.08.63c.15.54.21.73.34,1.09a32.67,32.67,0,0,0,4.28-1.12c.19-.08.29-.06.36.11.12.4.27,1,.35,1.41a.31.31,0,0,1-.25.37c-1.41.44-2.69.76-4.11,1.08.18.52.46,1.17.73,1.76a26.07,26.07,0,0,0,3.82-1.09c.21-.11.32-.07.38.12a8.69,8.69,0,0,1,.38,1.39c0,.19,0,.29-.17.38a26.71,26.71,0,0,1-3.55,1,15.67,15.67,0,0,0,2.75,3.63c.21.19.21.27.11.5a6.37,6.37,0,0,1-.86,1.3c-.13.15-.21.21-.34.21a.56.56,0,0,1-.29-.12,5.57,5.57,0,0,0-1.24-.68,10.27,10.27,0,0,0-4-.67c-2,0-3.13.61-3.13,1.6,0,1.36,1.79,1.81,5,1.81.78,0,1.55-.09,2.31-.13.21,0,.27.1.25.27a12.64,12.64,0,0,1-.42,1.91c-.06.21-.15.3-.44.32-.48,0-1,.06-1.51.06-4.83,0-7.39-1.36-7.39-4,0-2.24,1.93-3.65,5.2-3.65a9.91,9.91,0,0,1,3.62.52,23.14,23.14,0,0,1-1.75-2.47,50.45,50.45,0,0,1-5.75.63.34.34,0,0,1-.38-.3,12.06,12.06,0,0,1-.38-1.72,37,37,0,0,0,5.65-.52c-.21-.44-.52-1.16-.8-1.75a35.3,35.3,0,0,1-5.1.51c-.25,0-.38-.09-.42-.3s-.21-1-.33-1.68A37.05,37.05,0,0,0,135.3,16C135.14,15.53,135,15.18,134.8,14.65Z"/><path d="M151,24c.19.1.21.21.11.38a3.37,3.37,0,0,0-.55,1.59c0,1.32,1.37,2,5,2a27.29,27.29,0,0,0,5.69-.6c.29-.07.4,0,.44.18A18.53,18.53,0,0,1,162,29.6c0,.19-.1.28-.35.32a34,34,0,0,1-6.15.5c-4.85,0-7.23-1.51-7.23-4.24a5.54,5.54,0,0,1,1.12-3C149.92,23.45,150.45,23.72,151,24Zm4.75-8.23c1.53,0,3-.09,4.36-.19.21,0,.3.06.32.23a12.61,12.61,0,0,1,.19,1.78c0,.3-.11.42-.36.44a12.34,12.34,0,0,0-5.14,2.08.88.88,0,0,1-.53.19.94.94,0,0,1-.44-.12,4.89,4.89,0,0,0-1.47-.68c1.09-.71,2-1.3,2.75-1.74a11.49,11.49,0,0,1-1.53.07,25.18,25.18,0,0,1-3.86-.36c-.19,0-.28-.13-.28-.38,0-.5.05-1.11.09-1.87A26.3,26.3,0,0,0,155.74,15.79Zm5.71-2.33c.1-.09.19-.07.31,0a9.54,9.54,0,0,1,2,2.25.21.21,0,0,1-.07.33l-.88.65a.21.21,0,0,1-.35-.06,10.74,10.74,0,0,0-2.12-2.44Zm1.87-1.37c.12-.08.19-.06.31,0a8.86,8.86,0,0,1,2,2.17.24.24,0,0,1-.07.37l-.84.66a.21.21,0,0,1-.35-.07,10,10,0,0,0-2.1-2.41Z"/><path d="M174.91,13.56c.25.06.38.17.38.34s-.15.59-.15.88.06.92.11,1.41a30.23,30.23,0,0,0,.67,3.61l3-1.6a5.11,5.11,0,0,0,1.45-1.13,10.71,10.71,0,0,1,1.53,2,.83.83,0,0,1,.15.44c0,.21-.13.38-.42.42a10.61,10.61,0,0,0-2,.63A29.44,29.44,0,0,0,174.66,23c-1.83,1.2-2.48,2.18-2.48,3.17,0,1.24.92,1.76,3.34,1.76a37,37,0,0,0,6.4-.48c.23,0,.34,0,.38.25a17.12,17.12,0,0,1,.21,1.95c0,.24-.12.34-.38.36a45,45,0,0,1-6.25.32c-4,0-6.07-1.3-6.07-4,0-2.33,1.53-3.86,4-5.41a31.4,31.4,0,0,1-1.09-5.12,9.57,9.57,0,0,0-.55-2.44A12.1,12.1,0,0,1,174.91,13.56Z"/><path d="M196.94,17.09a26.25,26.25,0,0,1-2.63,9.05c-.9,1.57-2,2.41-3.56,2.41-1.85,0-3.72-2-3.72-5.39a7.73,7.73,0,0,1,2.37-5.46A9.17,9.17,0,0,1,196.23,15c5,0,8,3.11,8,7.29,0,3.9-2.2,6.36-6.46,7.64-.44.12-.63,0-.91-.38a4.4,4.4,0,0,0-1.46-1.32c3.54-.84,6.34-2.31,6.34-6.28A4.77,4.77,0,0,0,197,17.09Zm-6,2A6.07,6.07,0,0,0,189.28,23c0,1.93.77,3,1.42,3s1-.27,1.58-1.28a23.87,23.87,0,0,0,2.22-7.52A6.38,6.38,0,0,0,190.91,19.13Z"/><path d="M220.27,12.78c.27-.12.31-.1.4.11a16.84,16.84,0,0,0,6.8,7.75,7,7,0,0,0-1.22,1.57c-.19.32-.27.46-.4.46s-.23-.1-.44-.27a17.14,17.14,0,0,1-2-1.7c0,.61,0,1.34-.06,2.08a42.39,42.39,0,0,1-.53,5.88c-.27,1.66-1.07,2.58-3.13,2.58-.52,0-.92,0-1.42,0-.66,0-.63,0-.78-.74a4.46,4.46,0,0,0-.65-1.68,15.29,15.29,0,0,0,2.39.19c.88,0,1.24-.33,1.41-1.3a35.71,35.71,0,0,0,.4-5.21h-3.74a10.18,10.18,0,0,1-6.38,8.91,1.42,1.42,0,0,1-.51.16c-.17,0-.23-.14-.44-.5a3.92,3.92,0,0,0-1.07-1.26c3.82-1.39,5.67-3.61,6.07-7.31h-.25c-2,0-2.65.05-2.77.05s-.24,0-.24-.24V20.74a22.21,22.21,0,0,1-2,1.74c-.23.17-.36.28-.46.28s-.23-.15-.44-.46A4.64,4.64,0,0,0,207.61,21a16.5,16.5,0,0,0,6.07-6.93,6.12,6.12,0,0,0,.42-1.35,15.39,15.39,0,0,1,2.18.74c.23.1.29.21.29.35a.45.45,0,0,1-.16.32,1.77,1.77,0,0,0-.49.67,19.09,19.09,0,0,1-3.84,5.57c.3,0,1,0,2.65,0h5.64c1.83,0,2.52,0,2.73,0a22.29,22.29,0,0,1-4.51-6.66c-.08-.23,0-.25.19-.36Z"/><path d="M236.38,18.14a9.57,9.57,0,0,0,3.06,2.39,4.91,4.91,0,0,0-.67,1.07c-.15.34-.23.51-.38.51s-.23-.11-.46-.3a10.53,10.53,0,0,1-2.29-2.56c0,1.68.09,2.1.09,2.31s0,.23-.23.23h-1.41c-.21,0-.23,0-.23-.23s.06-.59.08-2.1a11.23,11.23,0,0,1-2.75,2.75c-.23.17-.36.25-.48.25s-.23-.12-.36-.39a3.87,3.87,0,0,0-.75-1.16,11.35,11.35,0,0,0,3.63-2.77h-.42c-1.77,0-2.37,0-2.5,0s-.21,0-.21-.23V16.77c0-.21,0-.23.21-.23s.73.05,2.5.05h1V15a16.8,16.8,0,0,0-.15-2.54,17.69,17.69,0,0,1,2,.15c.23,0,.34.1.34.21a2.21,2.21,0,0,1-.15.5,8.87,8.87,0,0,0-.08,1.68v1.6h.88c1.79,0,2.37-.05,2.5-.05s.23,0,.23.23V18c0,.21,0,.23-.23.23s-.71,0-2.5,0Zm-3.66,7.58c-1.78,0-2.37,0-2.49,0s-.23,0-.23-.23V24.21c0-.21,0-.23.23-.23s.71,0,2.49,0h1a9.09,9.09,0,0,0,0-1.81c.84.06,1.41.11,1.87.17.23,0,.35.13.35.25a1,1,0,0,1-.1.34A2.74,2.74,0,0,0,235.6,24h1c1.82,0,2.39,0,2.52,0s.25,0,.25.23v1.32c0,.21,0,.23-.25.23s-.7,0-2.52,0H236a6.57,6.57,0,0,0,3.13,2.69,4.66,4.66,0,0,0-1,1.07c-.21.31-.31.46-.46.46s-.25-.11-.48-.27A7.9,7.9,0,0,1,235,27.08a7.55,7.55,0,0,1-3.3,3.74.93.93,0,0,1-.44.19c-.14,0-.27-.13-.48-.46a4.36,4.36,0,0,0-1-1.09,5.84,5.84,0,0,0,3.7-3.74Zm-1.09-12.47c.21-.11.28-.09.42.08a11.67,11.67,0,0,1,1.16,1.95c.1.23.06.3-.21.42l-1,.47c-.25.12-.31.14-.4-.07a10.67,10.67,0,0,0-1.07-2c-.15-.21-.17-.28.13-.42ZM237,14a3.48,3.48,0,0,0,.29-.92,9.56,9.56,0,0,1,1.55.56c.17.07.24.17.24.26s0,.16-.19.29a1.44,1.44,0,0,0-.3.4,14.76,14.76,0,0,1-.71,1.3c-.17.27-.25.38-.38.38a.92.92,0,0,1-.4-.17,5.94,5.94,0,0,0-1-.42A10.79,10.79,0,0,0,237,14Zm6.21,14.55c.21.15.23.23.23.34s-.1.19-.25.25a2.37,2.37,0,0,0-.55.38,13.77,13.77,0,0,1-2.81,1.89,1.66,1.66,0,0,1-.54.21c-.19,0-.3-.15-.51-.51a4.52,4.52,0,0,0-.86-1.05,10.64,10.64,0,0,0,3.15-1.68,4.12,4.12,0,0,0,.71-.73A13.72,13.72,0,0,1,243.2,28.51Zm-.86-13.4c-1.87,0-2.5.05-2.62.05s-.23,0-.23-.23V13.39c0-.21,0-.23.23-.23s.75,0,2.62,0h3.91c1.89,0,2.52,0,2.64,0s.21,0,.21.23v1.54c0,.21,0,.23-.21.23s-.75-.05-2.64-.05H245.2a16.11,16.11,0,0,1-.65,1.58h1c1.68,0,2.27,0,2.42,0s.23,0,.23.21,0,.86,0,2.45V24.9c0,1.6,0,2.31,0,2.41s0,.26-.23.26-.74-.05-2.42-.05h-2.79c-1.7,0-2.27.05-2.39.05s-.26,0-.26-.26,0-.81,0-2.41V19.4c0-1.68,0-2.39,0-2.54s0-.21.26-.21.65,0,2.1,0a11.46,11.46,0,0,0,.6-1.58Zm-.23,4.65h4V18.43h-4Zm4,3V21.33h-4v1.39Zm0,1.57h-4v1.49h4Zm-.57,3.49a.39.39,0,0,1,.28-.15.43.43,0,0,1,.21.1,10.86,10.86,0,0,0,3.46,2.08,5.14,5.14,0,0,0-.86,1.18c-.19.36-.29.48-.46.48a1.11,1.11,0,0,1-.48-.19A12,12,0,0,1,244.67,29a.27.27,0,0,1-.1-.21c0-.06,0-.14.16-.25Z"/><path d="M262.17,17.36c-2.57.49-4.81.93-7.06,1.39-.8.19-1,.23-1.32.33a1.17,1.17,0,0,1-.46.17.48.48,0,0,1-.4-.31,13.94,13.94,0,0,1-.78-2.27,29,29,0,0,0,3.34-.36c2.58-.38,7.2-1.07,12.62-1.78.31,0,.42.08.44.23a12.46,12.46,0,0,1,.23,1.85c0,.25-.13.31-.4.31a9.35,9.35,0,0,0-2.56.46c-3.57,1.22-5.36,3.68-5.36,6.2,0,2.7,1.94,4.18,5.59,4.41.34,0,.46.08.46.31a7.36,7.36,0,0,1-.23,1.81c-.06.31-.15.44-.4.44-3.69,0-7.75-2.12-7.75-6.49,0-3,1.49-5,4-6.66Zm4.15,2.27c.11-.08.19-.06.32,0a9.93,9.93,0,0,1,2,2.25.2.2,0,0,1-.06.33l-.88.65c-.15.11-.25.09-.36-.06a10.44,10.44,0,0,0-2.12-2.43Zm1.87-1.36c.13-.09.19-.07.32,0a8.61,8.61,0,0,1,2,2.16.25.25,0,0,1-.06.38l-.84.65a.22.22,0,0,1-.36-.06,9.84,9.84,0,0,0-2.1-2.42Z"/><path d="M287.15,19.42a5.76,5.76,0,0,0,0-1.43,9.37,9.37,0,0,1,2.44.9.4.4,0,0,1,.15.57,3.3,3.3,0,0,0-.34.82c-.17.88-.38,1.81-.59,2.71a25.35,25.35,0,0,1,3.28,2c.21.13.19.24.12.44a18,18,0,0,1-.9,1.81c-.06.11-.13.15-.19.15a.38.38,0,0,1-.25-.15,16.21,16.21,0,0,0-2.75-2,13,13,0,0,1-4.24,5.52c-.19.15-.3.23-.42.23a.55.55,0,0,1-.32-.15A4.32,4.32,0,0,0,281.3,30a11.59,11.59,0,0,0,4.7-5.69,14.1,14.1,0,0,0-4.16-1.28,14.51,14.51,0,0,1-2.56,4.2,3.46,3.46,0,0,1-2.69,1.16c-1.21,0-2.49-.84-2.49-2.88,0-2.6,2.68-4.64,6.19-4.64.69-1.74,1.22-3.21,1.74-5l-2.9.34a4.13,4.13,0,0,0-.94.23,1.17,1.17,0,0,1-.38.08.32.32,0,0,1-.33-.23,12.64,12.64,0,0,1-.61-2.29,7.61,7.61,0,0,0,1.84.13A23.18,23.18,0,0,0,282,13.9a2.55,2.55,0,0,0,1-.36.53.53,0,0,1,.56,0A7.07,7.07,0,0,1,285,14.69a.51.51,0,0,1,.19.36c0,.13-.08.23-.21.36a2.91,2.91,0,0,0-.57,1.09c-.54,1.43-1.13,3.07-1.76,4.58a17.35,17.35,0,0,1,4.07,1.05A20.36,20.36,0,0,0,287.15,19.42Zm-11.08,5.86c0,.67.23,1,.73,1a1.69,1.69,0,0,0,1.22-.8,13.62,13.62,0,0,0,1.53-2.56C277.41,23,276.07,24.08,276.07,25.28Z"/><path d="M301.94,21.16a6.33,6.33,0,0,1,3.34-.94,4.88,4.88,0,0,1,5.21,5c0,3.5-2.84,5.75-7.33,5.75-2.65,0-4.24-1.13-4.24-3.09a2.79,2.79,0,0,1,3-2.56,3.81,3.81,0,0,1,3.94,3.07A3.17,3.17,0,0,0,308,25.24a3.06,3.06,0,0,0-3.3-3.17,8.57,8.57,0,0,0-5.38,2.22c-.6.55-1.19,1.15-1.82,1.79-.15.14-.25.23-.36.23a.54.54,0,0,1-.31-.19,9.36,9.36,0,0,1-1.24-1.37c-.13-.17-.07-.31.1-.48a50.43,50.43,0,0,0,5-4.64c1.3-1.34,2.29-2.39,3.25-3.59-1.26.23-2.75.52-4.05.8a5.46,5.46,0,0,0-.88.25,1.7,1.7,0,0,1-.42.1.47.47,0,0,1-.46-.35,10.53,10.53,0,0,1-.74-2.27,10.59,10.59,0,0,0,2,0c1.29-.12,3.13-.4,4.77-.71a5.48,5.48,0,0,0,1.16-.32,1.11,1.11,0,0,1,.39-.17.81.81,0,0,1,.49.17,7.93,7.93,0,0,1,1.4,1.35.71.71,0,0,1,.24.5.55.55,0,0,1-.36.5,3.4,3.4,0,0,0-.93.68c-1.53,1.49-2.93,3-4.53,4.49Zm0,6c-.61,0-1,.35-1,.79,0,.66.57,1.1,1.83,1.1a4.21,4.21,0,0,0,1-.09C303.47,27.8,302.84,27.15,302,27.15Z"/><path d="M328,22.55H315.25V21.33H328Z"/><path class="cls-4" d="M338.61,16.19v4H339c1.08,0,1.33-.05,1.45-.05s.25,0,.25.23v.24a16.93,16.93,0,0,0,2.73-6.05,11.77,11.77,0,0,0,.36-2.23c.69.13,1.32.25,2,.42.28.09.4.17.4.3a.44.44,0,0,1-.14.31,3.07,3.07,0,0,0-.42,1.05c-.15.55-.3,1.09-.47,1.64h3.13c2,0,2.63,0,2.75,0s.21,0,.21.23v1.51c0,.21,0,.23-.21.23s-.46,0-1.32,0a17.81,17.81,0,0,1-2.41,8,15.74,15.74,0,0,0,4.45,3.4,5.42,5.42,0,0,0-1.05,1.56c-.15.33-.23.48-.38.48a1.15,1.15,0,0,1-.5-.23,18.08,18.08,0,0,1-3.83-3.47,15.64,15.64,0,0,1-5,3.57,1.5,1.5,0,0,1-.46.19c-.15,0-.26-.15-.44-.48a5.58,5.58,0,0,0-1-1.28,13.54,13.54,0,0,0,5.64-3.82,17.69,17.69,0,0,1-1.86-4.81c-.21.36-.45.67-.68,1s-.31.39-.42.39-.16-.1-.31-.31a8.81,8.81,0,0,0-.72-.9v.65c0,.21,0,.23-.25.23s-.37,0-1.45,0h-.37v4.43c1-.32,2.05-.68,3.19-1.12,0,.51-.07.93-.07,1.41,0,.65,0,.65-.6.88-2.52.93-5,1.64-7.25,2.23a3.32,3.32,0,0,0-.8.31.63.63,0,0,1-.37.17c-.15,0-.23-.1-.32-.27a20.23,20.23,0,0,1-.63-2.06,8.34,8.34,0,0,0,1.28-.17v-6.4a10.85,10.85,0,0,0-.12-2c.77,0,1.51.07,2.1.13.19,0,.27.11.27.21a.69.69,0,0,1-.13.36,4.35,4.35,0,0,0-.08,1.28v6l1.41-.36V16.19H335c-1.77,0-2.38,0-2.5,0s-.21,0-.21-.23V14.42c0-.21,0-.23.21-.23s.73,0,2.5,0h3.94c1.79,0,2.4,0,2.52,0s.23,0,.23.23V16c0,.21,0,.23-.23.23s-.73,0-2.52,0Zm5.79,1.74c-.06.19-.15.38-.23.57A17.72,17.72,0,0,0,345.91,24a15.73,15.73,0,0,0,1.54-6.11Z"/><path class="cls-4" d="M355.2,18.16c.17-.21.25-.21.44-.11a17.44,17.44,0,0,1,2.94,2.13c.08.06.12.12.12.16s0,.13-.12.26l-.93,1.26c-.19.25-.25.29-.42.12a14.76,14.76,0,0,0-2.94-2.27c-.08-.06-.14-.1-.14-.16a.63.63,0,0,1,.14-.24Zm.1,10.46a33.74,33.74,0,0,0,2.06-5,9.26,9.26,0,0,0,1.22,1.07c.31.23.44.31.44.5a2.21,2.21,0,0,1-.13.51,36.25,36.25,0,0,1-1.93,4.7,3.11,3.11,0,0,0-.31.8c0,.16-.13.27-.28.27a.72.72,0,0,1-.37-.13,10.45,10.45,0,0,1-1.71-1.15A8.42,8.42,0,0,0,355.3,28.62Zm.78-15.73c.17-.23.23-.23.42-.13a19.79,19.79,0,0,1,3,2.23c.17.15.15.17,0,.42l-.9,1.24c-.21.23-.26.25-.42.1a16.1,16.1,0,0,0-2.92-2.35c-.19-.13-.15-.15,0-.38Zm12.7,2.27c.21-.17.23-.17.4,0a26.84,26.84,0,0,1,4.09,5.22c.11.19.13.24-.12.42l-1.24.89c-.13.08-.21.14-.27.14s-.11-.06-.17-.16c-.27-.53-.57-1-.86-1.52-3.32.38-6.3.72-9.76,1a2.11,2.11,0,0,0-.91.17.73.73,0,0,1-.35.12c-.13,0-.19-.12-.26-.31a20.33,20.33,0,0,1-.4-2.12,20.21,20.21,0,0,0,2.21,0h.13a42.75,42.75,0,0,0,2.16-5.21,6.41,6.41,0,0,0,.31-1.45,16.26,16.26,0,0,1,2.31.46c.21.07.4.19.4.34a.56.56,0,0,1-.23.4,3,3,0,0,0-.57,1c-.71,1.62-1.32,3-2,4.37,2-.14,3.92-.31,5.75-.5a19.32,19.32,0,0,0-1.74-2c-.15-.16-.15-.19.1-.38ZM361,31.51c-.21,0-.23,0-.23-.23s0-.69,0-3.82V25.57c0-1.91,0-2.52,0-2.64s0-.24.23-.24.82,0,2.73,0h4.89c1.91,0,2.56,0,2.69,0s.23,0,.23.24,0,.73,0,2.31v2.14c0,3.08,0,3.67,0,3.8s0,.23-.23.23h-1.79c-.23,0-.25,0-.25-.23v-.8H363v.9c0,.21,0,.23-.24.23Zm2-3.06h6.25V24.67H363Z"/><path d="M92.05,79.2l-8.8,17.08C79.72,93,73.71,89,68.73,88.81l8.79-17.08C81.82,71.05,88.52,75.9,92.05,79.2Z"/><path d="M17.17,79.2,26,96.28C29.49,93,35.5,89,40.49,88.81l-8.8-17.08C27.39,71.05,20.7,75.9,17.17,79.2Z"/><path d="M73.54,91.88h0l-1.12-.45-.19-.07-.45-.15-.34-.11L71.06,91l-.68-.16-.25,0a4.71,4.71,0,0,0-.52-.09l-.23,0a5.47,5.47,0,0,0-.69,0h-.2c2.56,1.82,4.3,3.9,4.72,5.8a3,3,0,0,1-.66,2.76c-2.26,2.63-8.6,2.88-14.83.88,4.44-2.46,7.41-5.66,8.1-8.8,0,0,0,0,0-.07a10,10,0,0,1-2.51.48l-.39.37c-1.22,2.41-4.27,5-8.24,6.79l-.08,0-.09,0c-4-1.83-7-4.38-8.24-6.79-.12-.13-.26-.24-.38-.37a10,10,0,0,1-2.52-.48.15.15,0,0,1,0,.07c.69,3.14,3.66,6.34,8.1,8.8-6.23,2-12.57,1.75-14.83-.88A3,3,0,0,1,36,96.41c.41-1.9,2.15-4,4.71-5.8h-.19a5.62,5.62,0,0,0-.7,0l-.23,0a4.71,4.71,0,0,0-.52.09l-.25,0-.67.16-.39.12-.33.1-.46.15-.18.07c-.38.14-.75.29-1.13.45a9.73,9.73,0,0,0-2.07,4,5.46,5.46,0,0,0,1.19,4.9c1.76,2,5,3.06,8.92,3.06a29.11,29.11,0,0,0,10.9-2.31,29,29,0,0,0,10.9,2.31c3.89,0,7.16-1,8.91-3.06a5.46,5.46,0,0,0,1.2-4.9A9.76,9.76,0,0,0,73.54,91.88Z"/><path d="M39,81.92a15,15,0,0,0,10.1-1.62l5.07,2.41,5.76-2.54a15.09,15.09,0,0,0,10.34,1.75L73,76.59a17.86,17.86,0,0,1-5.29-4.7l-.26.14c-.49-7.5-6-13.41-12.82-13.41S42.27,64.53,41.78,72l-.26-.14a17.86,17.86,0,0,1-5.29,4.7Z"/><path d="M69.23,83.88a17.05,17.05,0,0,1-9.39-1.71l-5.73,2.52-5-2.38A17.08,17.08,0,0,1,40,83.88l2.69,5.21a7.9,7.9,0,0,0,3.75.94h.21a10.39,10.39,0,0,0,15.95,0h.22a7.93,7.93,0,0,0,3.75-.94Z"/><path d="M54.61,87.55c-8.22,0-14.07-4.68-16.46-13.18l0-.1-.38-1.62-.05-.26-.09-.31L33.85,56.29a14.23,14.23,0,0,0-5.08-8.54l-4.35-3.27,4.63-2.78a10,10,0,0,1,5.18-1.47,11.15,11.15,0,0,1,9.33,5.65,8.57,8.57,0,0,1,6.19,4.48L53,56l-6.2-.21a1.92,1.92,0,0,0-.5,1.4,52.73,52.73,0,0,0,1.51,10.43c1.34,4.5,3.64,6.78,6.84,6.78s5.49-2.28,6.84-6.78A53.6,53.6,0,0,0,63,57.2a1.64,1.64,0,0,0-.57-1.4l-6,.2,3-5.6a8.61,8.61,0,0,1,6.21-4.52A11.17,11.17,0,0,1,75,40.23a10,10,0,0,1,5.18,1.47l4.64,2.78-4.36,3.27a14.28,14.28,0,0,0-5.08,8.52l-.28,1.19-4,16.86C68.68,82.85,62.83,87.55,54.61,87.55ZM42.91,73.08c1.79,6.33,5.73,9.54,11.7,9.54s9.9-3.23,11.71-9.59L70.55,55.2a19.78,19.78,0,0,1,5.28-10,4.8,4.8,0,0,0-.85-.08c-2.26,0-4.36,1.57-5.63,4.21l-.75,1.57-1.73-.18a2.76,2.76,0,0,0-2.09.74,6.5,6.5,0,0,1,3.1,5.7A58.22,58.22,0,0,1,66.17,69c-2,6.64-6.09,10.3-11.56,10.3S45,75.68,43,69a58.32,58.32,0,0,1-1.7-11.84,6.5,6.5,0,0,1,3.07-5.71,2.7,2.7,0,0,0-2.06-.73l-1.74.18-.75-1.57c-1.27-2.64-3.37-4.21-5.63-4.21a4.89,4.89,0,0,0-.85.08,19.76,19.76,0,0,1,5.29,10l.24,1.11Z"/><path class="cls-5" d="M54.61,85.08c-9,0-12.63-6.18-14.09-11.38l-.37-1.54s-.06-.32-.07-.34L40,71.51,36.51,56.88l-.25-1.13a16.69,16.69,0,0,0-6-10l-1.42-1.07,1.49-.89a7.49,7.49,0,0,1,3.91-1.13c3.23,0,6.18,2.14,7.85,5.62l.49,0a6,6,0,0,1,5,3.3l1,1.82-1.8-.06h-.07c-1.61,0-3,1.73-3,3.87a56.13,56.13,0,0,0,1.6,11.13c1.17,3.9,3.71,8.55,9.21,8.55s8-4.65,9.2-8.55a56.13,56.13,0,0,0,1.6-11.13c0-2.14-1.36-3.87-3-3.87l-1.76.06,1-1.81a6,6,0,0,1,5-3.3,4,4,0,0,1,.49,0c1.67-3.48,4.63-5.62,7.85-5.62a7.46,7.46,0,0,1,3.91,1.13l1.5.89L79,45.78a16.68,16.68,0,0,0-6,10l-.28,1.12-4,16.78C67.23,78.9,63.6,85.08,54.61,85.08Z"/></g></g></svg>