<svg xmlns="http://www.w3.org/2000/svg" viewBox="0 0 402.41 126.86"><defs><style>.cls-1,.cls-2,.cls-4{fill:#fff;stroke:#000;stroke-miterlimit:10;}.cls-1{stroke-width:4.21px;}.cls-2{stroke-width:4.3px;}.cls-3{fill:#d43a52;}.cls-4{stroke-width:4.3px;}.cls-5{fill:#040000;}</style></defs><title>アセット 384</title><g id="レイヤー_2" data-name="レイヤー 2"><g id="レイヤー_5" data-name="レイヤー 5"><polygon class="cls-1" points="400.26 40.55 41.95 40.55 60.69 2.11 400.26 2.11 400.26 40.55"/><rect class="cls-2" x="53.4" y="40.54" width="346.85" height="69.43"/><path d="M137.61,74.29a.42.42,0,0,1-.41.27.75.75,0,0,1-.24,0c-1.8-.65-4.89-1.36-5.34-1.5-.2-.07-.37-.1-.37-.34a11,11,0,0,1,.68-2.24c0-.1.1-.24.44-.24a32,32,0,0,1,5.58,1,.38.38,0,0,1,.3.44A19.74,19.74,0,0,1,137.61,74.29Zm-5.37,12a.29.29,0,0,1,.13-.24,44.7,44.7,0,0,0,6.67-8c.06-.11.13-.17.17-.17s.13.06.17.17a13.76,13.76,0,0,0,1.63,2,.19.19,0,0,1,.13.2.93.93,0,0,1-.06.24c-1.47,2.68-3.17,4.93-3.88,6.12-.61,1-.65,1.66-1.22,1.66S132.24,86.87,132.24,86.29Zm7.34-19.24a.64.64,0,0,1-.37-.14A54.3,54.3,0,0,0,134.55,64c-.14-.1-.27-.17-.27-.34s1.19-2.14,1.53-2.14c.51,0,5.47,2.21,5.47,2.92a.55.55,0,0,1-.07.24,13.66,13.66,0,0,1-1.36,2.21A.35.35,0,0,1,139.58,67.05Zm23,16.69c.21,0,.31.17.31.37s0,1,0,1.74a10.52,10.52,0,0,1,0,1.22c0,.17-.2.24-.37.24C158,87,155.32,87,152.74,87c-7.65,0-9.9.14-12.89.34-.2,0-.44-.07-.44-.31s0-1,0-1.49c0-1.29,0-1.77.34-1.77h.13c4.15.27,6.77.37,9.11.37,0-1.83.1-5.71.1-9s-.06-6.36-.1-7.72c-1.56,0-3.53.1-6.39.3h-.07c-.17,0-.37-.06-.37-.3a13.33,13.33,0,0,1,0-1.4c0-1.73.07-1.73.48-1.73,4.08.31,6.19.34,8.09.34a92.94,92.94,0,0,0,9.56-.34c.4,0,.4.34.4,2,0,1.26-.06,1.39-.4,1.39-3.54-.23-5.17-.3-6.91-.34v0c0,.2-.2.41-.47.58s-.24.27-.24.61c0,1.7-.07,4.11-.07,6.59,0,3.2.07,7.11.1,8.94,2.59,0,5.17-.06,9.9-.37Z"/><path d="M191.46,79c0,.31-.13.34-.41.34s-1.15.07-1.83.07c-1.46,0-1.6-.07-1.6-.41v-.07l.1-1.7c-1.22,0-3.26-.06-5.81-.06-3,0-5.54,0-6.87.06-1.19,9.25-6.8,13-7.41,13a.56.56,0,0,1-.34-.13,15.22,15.22,0,0,0-3.36-1.46c-.21-.07-.28-.14-.28-.21s.07-.13.28-.24c6.49-3.09,7.92-9.65,7.92-14.92a35.78,35.78,0,0,0-.51-5.78.71.71,0,0,1,0-.27c0-.14.07-.17.24-.17h.24c3.57.24,5.51.27,7.31.27,7.17,0,8.22,0,11.86-.24.27,0,.41.07.41.38v.1c-.14,1.43-.2,3.43-.2,5.51a43.68,43.68,0,0,0,.3,5.74Zm2.93-17.85c.27,0,.34.07.34,2.11,0,1.29-.07,1.6-.38,1.6-6.87-.38-9.31-.38-13.19-.38-5.68,0-8.57.14-12.65.38-.4,0-.44-.24-.44-1.87,0-1.84,0-1.84.27-1.84h.17c6.09.31,8.13.34,11,.34,5.64,0,8.53,0,14.82-.34Zm-6.57,9.18s-1.08-.1-3.7-.1c-.68,0-1.43,0-2.28,0l-6.66.07s0,1.94,0,3.84c1.43,0,3.91.07,6.6.07s4.76,0,6-.07Z"/><path d="M211.35,82.75c0,.34-.1.58-1.7.58-.91,0-1.63,0-1.63-.47v-.07c0-.65,0-1.5.07-2.42-.37,0-1-.06-1.46-.06s-1.19,0-1.57.06c0,1.53,0,3,.07,4.36,0,.57-.07.61-1.7.61s-1.73-.21-1.73-.55v-.1c.3-4.66.37-9.75.37-12.54,0-3.5-.07-6.26-.2-9.05,0-.13,0-.2,0-.3s.07-.21.24-.21.17,0,.27,0c1.09.1,2.59.17,4.32.17s2-.07,4.22-.21c.37,0,.44.14.44.48-.24,2.69-.24,5.81-.24,8.74,0,2.55.07,8,.27,10.74Zm-4.76-17.33c-1,0-1.53,0-1.53,0S205,67.56,205,70c.4,0,1.08,0,1.59,0s1.23,0,1.6,0c0-2.17-.1-4.52-.1-4.52s-.34,0-1,0Zm1.6,7.31c-.37,0-1,0-1.56,0s-1.26,0-1.63,0c0,1.32,0,3,0,4.86.41,0,1.05,0,1.56,0s1.16,0,1.53,0C208.16,75.75,208.19,74,208.19,72.73ZM230,72.9c-3.78-.38-7.31-.41-9.45-.41s-3.91.07-8.37.34c-.34,0-.4-.1-.4-1.57s0-1.63.4-1.63c3.33.27,5.07.34,6.84.34V67.29c-1.53,0-3,.06-5.48.2-.3,0-.37,0-.37-1.46s.07-1.53.44-1.53c2.38.2,3.91.2,5.34.2v-.34a27.27,27.27,0,0,0-.48-5v-.17c0-.17,0-.2.24-.2.54,0,4.35.4,4.35,1.12,0,.27-.3.61-.51,1-.37.71-.34.64-.47,2.85a3.71,3.71,0,0,0,0,.68c1.29,0,2.59-.07,5.2-.24.17,0,.41,0,.41,1.57a6.7,6.7,0,0,1-.07,1.26c0,.13-.2.2-.3.2h0c-2.55-.14-3.74-.17-5.23-.2V70c2.11,0,4.86-.17,8-.41.24,0,.37.24.37,1.67a13.6,13.6,0,0,1-.07,1.43c0,.13-.17.24-.27.24Zm-4.59,13c0,2-1.12,4.25-5.1,4.25q-.32,0-.51-.51c-.65-1.53-1.84-2.07-2.65-3-.11-.11-.17-.17-.17-.24s0-.07.13-.07.1,0,.17,0a19.84,19.84,0,0,0,2.76.28c1.29,0,2-.34,2-1.33.06-1.33.06-4,.06-5.54v-2H220.7c-2.17,0-3.94.06-8.33.34a.33.33,0,0,1-.34-.31c0-.27,0-.78,0-1.33,0-1.63,0-1.63.37-1.63,4.22.34,5.95.34,8.33.34h1.36a12.86,12.86,0,0,0-.27-2,.86.86,0,0,0,0-.13c0-.14.1-.21.27-.21s4,.34,4,1a.88.88,0,0,1-.28.54c-.3.41-.4.41-.44.75,1.4-.07,3-.17,4.63-.3h0c.2,0,.34.27.34,1.69a14.3,14.3,0,0,1-.07,1.47.32.32,0,0,1-.27.23h0c-1.67-.17-3.27-.27-4.7-.3v2.92c0,1.84.17,3,.21,4.93Zm-7.52-1.49c-.06,0-.13-.07-.2-.14a19.19,19.19,0,0,0-4.25-3.64c-.1-.07-.13-.1-.13-.17,0-.37,1.49-1.36,1.83-1.56a.31.31,0,0,1,.17-.1.39.39,0,0,1,.17.06A17.17,17.17,0,0,1,220,81.73a.31.31,0,0,1,.11.21,14.78,14.78,0,0,1-2,2.38C218,84.35,218,84.39,217.91,84.39Z"/><path d="M239.17,89.32c.51-4.59.74-12,.88-17.58-.31.37-3.81,4.72-4.56,4.72a.45.45,0,0,1-.27-.06,9.4,9.4,0,0,0-2.85-1.06c-.21,0-.34-.1-.34-.17s.06-.13.17-.2c5.84-4.15,10.5-12,10.91-14.28,0-.14.07-.2.17-.2.58,0,4,1.46,4,2.1,0,.24-.27.48-.79.68s-.67.14-.95.68a39.91,39.91,0,0,1-2.31,3.57c.24.07.41.17.55.21a.42.42,0,0,1,.33.41,1.1,1.1,0,0,1-.33.64,2,2,0,0,0-.51,1.63c-.14,4.22-.31,9.76-.31,14.28,0,1.77,0,3.37.1,4.69,0,.17-.1.34-1.94.34-1.59,0-1.93,0-1.93-.34Zm23.52-18.19c0,.13-.24.27-.34.27-5.1.37-5.85.44-8.84.88l-.71.11c2,10.13,7.61,12.91,8.29,12.91s1.6-1,1.84-3.8c0-.21.07-.28.17-.28s.14.07.2.17A12.07,12.07,0,0,0,266,84.15a.51.51,0,0,1,.24.51c-.92,3-2.55,4.66-4.55,4.66A5.11,5.11,0,0,1,259,88.4c-5.61-3.54-8.1-9.52-9.35-15.47l-4.86,1h-.11a.39.39,0,0,1-.4-.24,12.73,12.73,0,0,1-.38-2.68v-.14c0-.34.17-.41.38-.41,2.14-.13,3.6-.27,4.86-.44-.28-1.73-.48-3.47-.62-5.1s-.27-3-.47-3.91a2.81,2.81,0,0,1-.07-.37.19.19,0,0,1,.21-.21c.06,0,.13,0,.2,0,3.67.44,4.42.57,4.42,1.12a3.34,3.34,0,0,1-.51,1.19,2.62,2.62,0,0,0-.21,1.12,47.58,47.58,0,0,0,.28,5.68l.74-.1c3.27-.45,4.08-.62,8.74-1.6h.07a.36.36,0,0,1,.37.3,18.12,18.12,0,0,1,.41,2.89Zm-5.17-3.54a23,23,0,0,0-4.11-2.82c-.14-.07-.27-.1-.27-.24a5.68,5.68,0,0,1,1.77-2.21c.64,0,4.79,2.31,4.79,2.76s-1.36,2.68-1.8,2.68A.53.53,0,0,1,257.52,67.59Z"/><path d="M282.82,91a.52.52,0,0,1-.41.21.29.29,0,0,1-.2-.07c-4.25-2.28-9.08-8-9.08-16.8,0-11.56,8.87-16.52,9.28-16.52a2.78,2.78,0,0,1,1.4,1.94.52.52,0,0,1-.31.47c-3.64,2.11-6.9,7.69-6.9,14.15,0,6.8,3.26,12.27,6.9,14.41a.51.51,0,0,1,.24.48A3.15,3.15,0,0,1,282.82,91Z"/><path d="M306.08,65.08c2.61,0,5.47-.11,10-.34.37,0,.47.2.47,1.53,0,.61,0,1.22-.07,1.63,0,.17-.2.24-.4.24-5.89-.31-9.29-.34-12.65-.34-8.7,0-12,.13-16.22.34h-.1c-.41,0-.41-.28-.41-1.64,0-1.59,0-1.76.34-1.76h.17c4.39.23,7.35.3,9.79.34a20.28,20.28,0,0,0-3.19-3.91c-.1-.11-.17-.17-.17-.24a9.08,9.08,0,0,1,2.65-1.4c.34,0,4,3.47,4,4,0,.31-1.36,1.12-2,1.5h4.32a38.42,38.42,0,0,0,2.86-5.44c.1-.28.13-.41.27-.41s3.91,1.36,3.91,2c0,.24-.34.41-.79.68a3.29,3.29,0,0,0-1,.92Zm-8.6,17.27c-.65,0-1.67,0-2.32,0s-1.25,0-2,0c0,2.82.1,5.13.14,7,0,.28-.1.38-1.46.38-.58,0-1.23,0-1.67-.07-.24,0-.34-.07-.34-.27v-.1c.14-3.06.44-7.72.44-11.09,0-2.11,0-5.81-.24-8a1.07,1.07,0,0,1,0-.27c0-.14.07-.17.27-.17h.21a44.66,44.66,0,0,0,4.65.17c1.67,0,2.89,0,5-.17.31,0,.41.07.41.27v.14c0,.44-.2,2.34-.2,8.6,0,2.78.2,5.3.2,7.24s-.82,3.7-4.66,3.81a.47.47,0,0,1-.44-.45,10.28,10.28,0,0,0-1.94-2.68.35.35,0,0,1-.13-.21s.06-.06.2-.06h.1a16.37,16.37,0,0,0,2.18.23c1.05,0,1.6-.3,1.6-1.12Zm0-3.57c0-.17,0-.72,0-1.36-.64,0-1.63,0-2.28,0s-1.36,0-2,0v2.41c.71,0,1.56,0,2,0s1.64,0,2.32,0Zm-.11-6.36s-1.12,0-2.24,0-1.9,0-1.9,0,0,1.19,0,2.52c.65,0,1.46,0,1.94,0s1.6,0,2.28,0C297.41,73.61,297.37,72.42,297.37,72.42Zm5.48-1.36c0-.1,0-.1.1-.1h.14a23.62,23.62,0,0,1,3.6.64c.3.11.41.21.41.41a2.43,2.43,0,0,1-.45.95c-.2.34-.37.92-.37,3.4a68.34,68.34,0,0,0,.34,7.31c0,.14-.14.24-.31.24-.4,0-.95,0-1.49,0-1.67,0-1.8-.1-1.8-.34.2-2.89.27-3.4.27-6a28.26,28.26,0,0,0-.44-6.36Zm9.86,15.54c0,1.66-2,3.09-5.34,3.09-.24,0-.44-.14-.55-.48a11.26,11.26,0,0,0-2.14-2.72c-.07-.06-.1-.1-.1-.13s.1-.14.24-.14.14,0,.24,0a19.83,19.83,0,0,0,2.27.23c1,0,1.87-.23,1.91-1.08,0-2.11.07-3.64.07-4.87,0-1.63,0-2.68,0-3.87a37.85,37.85,0,0,0-.51-7.31.43.43,0,0,1,0-.17c0-.1.07-.1.27-.1a29.83,29.83,0,0,1,4,.71c.31.1.44.27.44.44a2.11,2.11,0,0,1-.47,1c-.27.41-.51,1-.51,4.45,0,2.21,0,6.63.24,10.85Z"/><path d="M347.18,73.47c-5-.24-7.34-.3-10-.34,0,.92,0,2.21,0,3.68,3.5,0,6.22-.07,12.61-.38.34,0,.41.1.41,1.77s-.1,1.7-.41,1.7c-6.15-.27-9.21-.34-12.57-.38.06,3.51.2,7.42.33,10,0,.21-.13.38-2,.38-1.73,0-2,0-2-.44.2-3.34.34-6.87.44-10-3.57,0-6,.11-12.41.38-.44,0-.48-.17-.48-1.74,0-1.73,0-1.73.48-1.73,6.36.31,9.35.38,12.48.38,0-1.47,0-2.73,0-3.68-2.79,0-4.56.1-9.83.34h-.1c-.24,0-.3,0-.3-1.63s0-1.66.4-1.66c5.17.27,7.42.34,9.83.34a78.14,78.14,0,0,0-.54-10.78c0-.07,0-.14,0-.21s.07-.1.14-.1c.24,0,4.76.27,4.76,1.12,0,.34-.41.82-.68,1.6s-.48,4.12-.51,8.37c2.75,0,4.79-.07,10-.34.24,0,.27.1.31.3s0,.82,0,1.4,0,1.12,0,1.39c0,.1-.07.2-.24.2ZM330,69.53c-.1,0-.2-.07-.3-.24A27.79,27.79,0,0,0,325,64.7c-.14-.1-.24-.17-.24-.27,0-.34,1.73-1.67,1.94-1.67.44,0,5.88,3.54,5.88,4.32A7.35,7.35,0,0,1,330,69.53Zm15.71-3.94c-.58.27-3.43,2.68-5.1,3.84a.38.38,0,0,1-.27.1.18.18,0,0,1-.17-.1,4.94,4.94,0,0,0-1.8-1.09c-.11-.07-.14-.14-.14-.17a.19.19,0,0,1,.1-.14,28.81,28.81,0,0,0,5.1-5.64c.07-.14.14-.2.24-.2.44,0,3.26,2,3.26,2.72C346.94,65.31,346.2,65.31,345.72,65.59Z"/><path d="M354.84,91.19a.52.52,0,0,1-.41-.21,3.15,3.15,0,0,1-.92-1.73.58.58,0,0,1,.24-.48c3.63-2.14,6.9-7.61,6.9-14.41,0-6.46-3.27-12-6.9-14.15a.52.52,0,0,1-.31-.47,2.78,2.78,0,0,1,1.4-1.94c.4,0,9.28,5,9.28,16.52,0,8.81-4.83,14.52-9.08,16.8A.29.29,0,0,1,354.84,91.19Z"/><path d="M118.15,17.36c-2.57.49-4.81.93-7.06,1.39-.8.19-1,.23-1.32.33a1.17,1.17,0,0,1-.46.17.48.48,0,0,1-.4-.31,13.94,13.94,0,0,1-.78-2.27,29,29,0,0,0,3.34-.36c2.58-.38,7.2-1.07,12.62-1.78.31,0,.42.08.44.23a12.46,12.46,0,0,1,.23,1.85c0,.25-.13.31-.4.31a9.35,9.35,0,0,0-2.56.46c-3.57,1.22-5.36,3.68-5.36,6.2,0,2.7,1.94,4.18,5.59,4.41.34,0,.46.08.46.31a7.36,7.36,0,0,1-.23,1.81c-.06.31-.15.44-.4.44-3.69,0-7.75-2.12-7.75-6.49,0-3,1.49-5,4-6.66Zm4.15,2.27c.11-.08.19-.06.32,0a9.93,9.93,0,0,1,2,2.25.2.2,0,0,1-.06.33l-.88.65c-.15.11-.25.09-.36-.06a10.44,10.44,0,0,0-2.12-2.43Zm1.87-1.36c.13-.09.19-.07.32,0a8.61,8.61,0,0,1,2,2.16.25.25,0,0,1-.06.38l-.84.65a.22.22,0,0,1-.36-.06,9.84,9.84,0,0,0-2.1-2.42Z"/><path d="M135.13,14.65a4.93,4.93,0,0,0-.73-1.34,14.54,14.54,0,0,1,2.54-.23c.29,0,.46.17.46.38s0,.27,0,.4a4.17,4.17,0,0,0,.08.63c.15.54.21.73.34,1.09a32.26,32.26,0,0,0,4.28-1.12c.19-.08.3-.06.36.11.13.4.27,1,.36,1.41a.32.32,0,0,1-.25.37c-1.41.44-2.69.76-4.12,1.08.19.52.46,1.17.74,1.76A26.07,26.07,0,0,0,143,18.1c.21-.11.31-.07.37.12a7.75,7.75,0,0,1,.38,1.39c0,.19,0,.29-.17.38A26.56,26.56,0,0,1,140,21a15.67,15.67,0,0,0,2.75,3.63c.21.19.21.27.1.5a6,6,0,0,1-.86,1.3c-.12.15-.21.21-.33.21a.58.58,0,0,1-.3-.12,5.15,5.15,0,0,0-1.24-.68,10.24,10.24,0,0,0-3.95-.67c-2,0-3.12.61-3.12,1.6,0,1.36,1.78,1.81,5,1.81.78,0,1.56-.09,2.31-.13.21,0,.28.1.26.27a15.66,15.66,0,0,1-.42,1.91c-.07.21-.15.3-.45.32-.48,0-1,.06-1.51.06-4.83,0-7.39-1.36-7.39-4,0-2.24,1.93-3.65,5.21-3.65a9.89,9.89,0,0,1,3.61.52,23.21,23.21,0,0,1-1.74-2.47,50.69,50.69,0,0,1-5.75.63c-.24,0-.32-.09-.38-.3a9.83,9.83,0,0,1-.38-1.72,37,37,0,0,0,5.65-.52c-.21-.44-.53-1.16-.8-1.75a35.44,35.44,0,0,1-5.1.51c-.25,0-.38-.09-.42-.3s-.21-1-.34-1.68a37.1,37.1,0,0,0,5.23-.33C135.47,15.53,135.34,15.18,135.13,14.65Z"/><path d="M151.33,24c.19.1.21.21.1.38a3.46,3.46,0,0,0-.54,1.59c0,1.32,1.36,2,5,2a27.22,27.22,0,0,0,5.69-.6c.3-.07.4,0,.44.18a16.39,16.39,0,0,1,.34,2.06c0,.19-.11.28-.36.32a33,33,0,0,1-6.15.5c-4.85,0-7.22-1.51-7.22-4.24a5.51,5.51,0,0,1,1.11-3C150.26,23.45,150.78,23.72,151.33,24Zm4.74-8.23c1.53,0,3-.09,4.37-.19.21,0,.29.06.31.23a11.28,11.28,0,0,1,.19,1.78c0,.3-.1.42-.35.44a12.33,12.33,0,0,0-5.15,2.08.86.86,0,0,1-.52.19.88.88,0,0,1-.44-.12,4.65,4.65,0,0,0-1.47-.67c1.09-.72,2-1.31,2.75-1.75a11.64,11.64,0,0,1-1.54.07,25.29,25.29,0,0,1-3.86-.36c-.19,0-.27-.13-.27-.38,0-.5,0-1.11.08-1.87A26.36,26.36,0,0,0,156.07,15.79Zm5.71-2.33c.11-.09.19-.07.32,0a9.3,9.3,0,0,1,2,2.25.2.2,0,0,1-.06.33l-.88.65c-.15.11-.25.09-.36-.06a10.5,10.5,0,0,0-2.12-2.44Zm1.87-1.37c.13-.08.19-.06.32,0a8.82,8.82,0,0,1,2,2.17.23.23,0,0,1-.06.37l-.84.66a.22.22,0,0,1-.36-.07,10,10,0,0,0-2.1-2.41Z"/><path d="M175.25,13.56c.25.06.37.17.37.34s-.14.59-.14.88.06.92.1,1.41a30.23,30.23,0,0,0,.67,3.61l3-1.6a5,5,0,0,0,1.45-1.13,10.82,10.82,0,0,1,1.54,2,.91.91,0,0,1,.14.44c0,.21-.12.38-.42.42a10.53,10.53,0,0,0-2,.63A29.17,29.17,0,0,0,175,23c-1.82,1.2-2.47,2.18-2.47,3.17,0,1.24.92,1.76,3.33,1.76a37.17,37.17,0,0,0,6.41-.48c.23,0,.33,0,.38.25.1.57.16,1.33.21,1.95,0,.24-.13.34-.38.36a45.09,45.09,0,0,1-6.26.32c-4,0-6.07-1.3-6.07-4,0-2.33,1.54-3.86,4-5.41A32.49,32.49,0,0,1,173,15.75a9.64,9.64,0,0,0-.54-2.44A12.16,12.16,0,0,1,175.25,13.56Z"/><path d="M197.27,17.09a26.26,26.26,0,0,1-2.62,9.05c-.9,1.57-2,2.41-3.57,2.41-1.85,0-3.72-2-3.72-5.39a7.7,7.7,0,0,1,2.38-5.46A9.16,9.16,0,0,1,196.56,15c5,0,8,3.11,8,7.29,0,3.9-2.21,6.36-6.47,7.64-.44.12-.63,0-.9-.38a4.36,4.36,0,0,0-1.47-1.32c3.55-.84,6.34-2.31,6.34-6.28a4.77,4.77,0,0,0-4.7-4.87Zm-6,2A6,6,0,0,0,189.61,23c0,1.93.78,3,1.43,3s1-.27,1.57-1.28a23.86,23.86,0,0,0,2.23-7.52A6.35,6.35,0,0,0,191.25,19.13Z"/><path d="M220.6,12.78c.28-.12.32-.1.4.11a16.86,16.86,0,0,0,6.81,7.75,7,7,0,0,0-1.22,1.57c-.19.32-.27.46-.4.46s-.23-.1-.44-.27a17.25,17.25,0,0,1-2-1.7c0,.61,0,1.34-.06,2.08a42.3,42.3,0,0,1-.52,5.88c-.28,1.66-1.07,2.58-3.13,2.58-.53,0-.93,0-1.43,0-.65,0-.63,0-.78-.74a4.15,4.15,0,0,0-.65-1.68,15.32,15.32,0,0,0,2.4.19c.88,0,1.23-.33,1.4-1.3a34.34,34.34,0,0,0,.4-5.21h-3.74a10.15,10.15,0,0,1-6.38,8.91,1.45,1.45,0,0,1-.5.16c-.17,0-.23-.14-.44-.5a4.18,4.18,0,0,0-1.07-1.26c3.82-1.39,5.67-3.61,6.06-7.31h-.25c-2,0-2.64.05-2.77.05s-.23,0-.23-.23V20.74a21.06,21.06,0,0,1-2,1.74c-.23.17-.35.28-.46.28s-.23-.15-.44-.46A4.64,4.64,0,0,0,207.94,21,16.36,16.36,0,0,0,214,14.09a5.63,5.63,0,0,0,.42-1.35,15.12,15.12,0,0,1,2.19.74c.23.1.29.21.29.35a.43.43,0,0,1-.17.32,1.75,1.75,0,0,0-.48.67,19.09,19.09,0,0,1-3.84,5.57c.29,0,1,0,2.64,0h5.65c1.83,0,2.52,0,2.73,0a22.11,22.11,0,0,1-4.51-6.66c-.09-.23-.05-.25.18-.36Z"/><path d="M236.71,18.14a9.5,9.5,0,0,0,3.07,2.39,4.91,4.91,0,0,0-.67,1.07c-.15.34-.23.51-.38.51s-.23-.11-.46-.3A10.32,10.32,0,0,1,236,19.25c0,1.68.08,2.1.08,2.31s0,.23-.23.23h-1.41c-.21,0-.23,0-.23-.23s.07-.59.09-2.1a11.4,11.4,0,0,1-2.75,2.75c-.23.17-.36.25-.49.25s-.23-.12-.35-.39a3.88,3.88,0,0,0-.76-1.16,11.24,11.24,0,0,0,3.63-2.77h-.42c-1.76,0-2.37,0-2.5,0s-.21,0-.21-.23V16.77c0-.21,0-.23.21-.23s.74.05,2.5.05h1V15a18.19,18.19,0,0,0-.14-2.54,17.87,17.87,0,0,1,2,.15c.23,0,.34.1.34.21a2.21,2.21,0,0,1-.15.5A8.49,8.49,0,0,0,236.1,15v1.6H237c1.78,0,2.37-.05,2.49-.05s.24,0,.24.23V18c0,.21,0,.23-.24.23s-.71,0-2.49,0Zm-3.65,7.58c-1.79,0-2.37,0-2.5,0s-.23,0-.23-.23V24.21c0-.21,0-.23.23-.23s.71,0,2.5,0h1a8.38,8.38,0,0,0,0-1.81c.84.07,1.41.11,1.87.17.23,0,.36.13.36.25a1,1,0,0,1-.1.34,2.54,2.54,0,0,0-.19,1.05h1c1.83,0,2.4,0,2.52,0s.25,0,.25.23v1.32c0,.21,0,.23-.25.23s-.69,0-2.52,0h-.52a6.48,6.48,0,0,0,3.13,2.69,4.44,4.44,0,0,0-1,1.07c-.21.31-.32.46-.46.46s-.26-.11-.49-.27a7.87,7.87,0,0,1-2.28-2.59,7.64,7.64,0,0,1-3.3,3.74,1,1,0,0,1-.44.19c-.15,0-.28-.13-.49-.46a4.32,4.32,0,0,0-1-1.09,5.83,5.83,0,0,0,3.69-3.74ZM232,13.25c.21-.11.27-.09.42.08a11,11,0,0,1,1.15,1.95c.11.23.07.3-.21.42l-1,.47c-.26.12-.32.14-.4-.07a12,12,0,0,0-1.07-2c-.15-.21-.17-.28.12-.42Zm5.35.71a3.52,3.52,0,0,0,.3-.92,10.31,10.31,0,0,1,1.55.56c.17.07.23.17.23.26s0,.16-.19.29a1.42,1.42,0,0,0-.29.4,12.77,12.77,0,0,1-.72,1.3c-.16.27-.25.38-.37.38a.88.88,0,0,1-.4-.17,6.29,6.29,0,0,0-1-.42A10.69,10.69,0,0,0,237.32,14Zm6.22,14.55c.21.15.23.23.23.34s-.11.19-.25.25a2.37,2.37,0,0,0-.55.38,14.05,14.05,0,0,1-2.81,1.89,1.69,1.69,0,0,1-.55.21c-.19,0-.29-.15-.5-.51a4.79,4.79,0,0,0-.86-1.05,10.57,10.57,0,0,0,3.14-1.68,3.84,3.84,0,0,0,.72-.73A13.72,13.72,0,0,1,243.54,28.51Zm-.86-13.4c-1.87,0-2.5.05-2.63.05s-.23,0-.23-.23V13.39c0-.21,0-.23.23-.23s.76,0,2.63,0h3.9c1.89,0,2.52,0,2.65,0s.21,0,.21.23v1.54c0,.21,0,.23-.21.23s-.76-.05-2.65-.05h-1.05a16.11,16.11,0,0,1-.65,1.58h1c1.68,0,2.26,0,2.41,0s.23,0,.23.21,0,.86,0,2.45V24.9c0,1.6,0,2.31,0,2.41s0,.26-.23.26-.73-.05-2.41-.05h-2.8c-1.7,0-2.26.05-2.39.05s-.25,0-.25-.26,0-.81,0-2.41V19.4c0-1.68,0-2.39,0-2.54s0-.21.25-.21.65,0,2.1,0a12.94,12.94,0,0,0,.61-1.58Zm-.24,4.65h4V18.43h-4Zm4,3V21.33h-4v1.39Zm0,1.57h-4v1.49h4Zm-.57,3.49a.37.37,0,0,1,.27-.15.37.37,0,0,1,.21.1,10.91,10.91,0,0,0,3.47,2.08A4.86,4.86,0,0,0,249,31c-.19.36-.3.48-.47.48a1.16,1.16,0,0,1-.48-.19A12.12,12.12,0,0,1,245,29a.26.26,0,0,1-.11-.21c0-.06,0-.14.17-.25Z"/><path d="M262.5,17.36c-2.56.49-4.81.93-7.05,1.39-.8.19-1,.23-1.33.33a1.07,1.07,0,0,1-.46.17.49.49,0,0,1-.4-.31,15.11,15.11,0,0,1-.77-2.27,28.59,28.59,0,0,0,3.33-.36c2.59-.38,7.21-1.07,12.62-1.78.32,0,.42.08.44.23a11.26,11.26,0,0,1,.23,1.85c0,.25-.12.31-.39.31a9.49,9.49,0,0,0-2.57.46c-3.57,1.22-5.35,3.68-5.35,6.2,0,2.7,1.93,4.18,5.58,4.41.34,0,.47.08.47.31a7.87,7.87,0,0,1-.23,1.81c-.07.31-.15.44-.4.44-3.7,0-7.75-2.12-7.75-6.49,0-3,1.49-5,4-6.66Zm4.16,2.27c.1-.08.19-.06.31,0a10,10,0,0,1,2,2.25.21.21,0,0,1-.07.33l-.88.65a.21.21,0,0,1-.35-.06,10.68,10.68,0,0,0-2.12-2.43Zm1.87-1.36c.12-.09.19-.07.31,0a8.65,8.65,0,0,1,2,2.16.25.25,0,0,1-.07.38l-.84.65a.21.21,0,0,1-.35-.06,9.84,9.84,0,0,0-2.1-2.42Z"/><path d="M287.49,19.42a6.92,6.92,0,0,0,0-1.43,9.41,9.41,0,0,1,2.43.9.4.4,0,0,1,.15.57,3.7,3.7,0,0,0-.33.82c-.17.88-.38,1.81-.59,2.71a25.17,25.17,0,0,1,3.27,2c.21.13.19.24.13.44a18,18,0,0,1-.9,1.81c-.07.11-.13.15-.19.15a.4.4,0,0,1-.26-.15,16.21,16.21,0,0,0-2.75-2,12.91,12.91,0,0,1-4.24,5.52c-.19.15-.29.23-.42.23a.56.56,0,0,1-.31-.15,4.36,4.36,0,0,0-1.83-.86,11.56,11.56,0,0,0,4.71-5.69,14.19,14.19,0,0,0-4.16-1.28,14.74,14.74,0,0,1-2.56,4.2,3.46,3.46,0,0,1-2.69,1.16c-1.22,0-2.5-.84-2.5-2.88,0-2.6,2.69-4.64,6.19-4.64.7-1.74,1.22-3.21,1.75-5l-2.9.34a4.21,4.21,0,0,0-1,.23,1.11,1.11,0,0,1-.37.08.34.34,0,0,1-.34-.23A12.64,12.64,0,0,1,277.2,14a7.69,7.69,0,0,0,1.85.13,22.93,22.93,0,0,0,3.25-.27,2.44,2.44,0,0,0,1-.36.5.5,0,0,1,.28-.08.49.49,0,0,1,.29.08,7.75,7.75,0,0,1,1.43,1.15.56.56,0,0,1,.19.36c0,.13-.09.23-.21.36a2.78,2.78,0,0,0-.57,1.09c-.55,1.43-1.13,3.07-1.76,4.58a17.35,17.35,0,0,1,4.07,1.05A20.36,20.36,0,0,0,287.49,19.42ZM276.4,25.28c0,.67.23,1,.74,1a1.69,1.69,0,0,0,1.22-.8,14.17,14.17,0,0,0,1.53-2.56C277.75,23,276.4,24.08,276.4,25.28Z"/><path d="M302.28,21.16a6.3,6.3,0,0,1,3.33-.94,4.87,4.87,0,0,1,5.21,5c0,3.5-2.83,5.75-7.33,5.75-2.64,0-4.24-1.13-4.24-3.09a2.79,2.79,0,0,1,3-2.56,3.82,3.82,0,0,1,4,3.07,3.16,3.16,0,0,0,2.14-3.19A3.06,3.06,0,0,0,305,22.07a8.53,8.53,0,0,0-5.38,2.22c-.61.55-1.2,1.15-1.83,1.79-.14.14-.25.23-.35.23s-.19-.07-.32-.19a10,10,0,0,1-1.24-1.37c-.12-.17-.06-.31.11-.48a51.57,51.57,0,0,0,5-4.64c1.31-1.34,2.29-2.39,3.26-3.59-1.26.23-2.75.52-4.05.8a5.56,5.56,0,0,0-.89.25,1.51,1.51,0,0,1-.42.1.47.47,0,0,1-.46-.35,10.11,10.11,0,0,1-.73-2.27,10.59,10.59,0,0,0,1.95,0c1.28-.12,3.13-.4,4.77-.71a5.53,5.53,0,0,0,1.15-.32,1.15,1.15,0,0,1,.4-.17.76.76,0,0,1,.48.17,8.4,8.4,0,0,1,1.41,1.35.69.69,0,0,1,.23.5.55.55,0,0,1-.36.5,3.53,3.53,0,0,0-.92.68c-1.53,1.49-2.94,3-4.54,4.49Zm0,6c-.61,0-1,.35-1,.79,0,.66.57,1.1,1.83,1.1a4.12,4.12,0,0,0,1-.09C303.81,27.8,303.18,27.15,302.3,27.15Z"/><path d="M328.36,22.55H315.59V21.33h12.77Z"/><path class="cls-3" d="M338.94,16.19v4h.38c1.07,0,1.32-.05,1.45-.05s.25,0,.25.23v.24a16.93,16.93,0,0,0,2.73-6.05,12.66,12.66,0,0,0,.36-2.23c.69.13,1.32.25,1.95.42.27.09.4.17.4.3a.41.41,0,0,1-.15.31,3.29,3.29,0,0,0-.42,1.05c-.15.55-.29,1.09-.46,1.64h3.13c1.95,0,2.62,0,2.75,0s.21,0,.21.23v1.51c0,.21,0,.23-.21.23s-.46,0-1.32,0a17.81,17.81,0,0,1-2.42,8,16,16,0,0,0,4.45,3.4,5.42,5.42,0,0,0-1,1.56c-.14.33-.23.48-.38.48a1.2,1.2,0,0,1-.5-.23,18.26,18.26,0,0,1-3.82-3.47,15.7,15.7,0,0,1-5,3.57,1.41,1.41,0,0,1-.46.19c-.15,0-.25-.15-.44-.48a5.1,5.1,0,0,0-1-1.28A13.58,13.58,0,0,0,345,25.89a17.71,17.71,0,0,1-1.87-4.81c-.21.36-.44.67-.67,1s-.32.39-.42.39-.17-.1-.32-.31a8.87,8.87,0,0,0-.71-.9v.65c0,.21,0,.23-.25.23s-.38,0-1.45,0h-.38v4.43c1-.32,2.06-.68,3.19-1.12,0,.51-.06.93-.06,1.41,0,.65,0,.65-.61.88-2.52.93-5,1.64-7.24,2.23a3.15,3.15,0,0,0-.8.31.66.66,0,0,1-.38.17c-.15,0-.23-.1-.31-.27a18,18,0,0,1-.63-2.06,8.34,8.34,0,0,0,1.28-.17v-6.4a9.74,9.74,0,0,0-.13-2c.78,0,1.51.06,2.1.12.19,0,.27.11.27.21a.77.77,0,0,1-.12.36,3.8,3.8,0,0,0-.09,1.28v6l1.41-.36V16.19h-1.49c-1.76,0-2.37,0-2.5,0s-.21,0-.21-.23V14.42c0-.21,0-.23.21-.23s.74,0,2.5,0h3.95c1.78,0,2.39,0,2.52,0s.23,0,.23.23V16c0,.21,0,.23-.23.23s-.74,0-2.52,0Zm5.8,1.74c-.07.19-.15.38-.23.57A17.21,17.21,0,0,0,346.25,24a15.93,15.93,0,0,0,1.53-6.11Z"/><path class="cls-3" d="M355.53,18.16c.17-.21.25-.21.44-.11a16.67,16.67,0,0,1,2.94,2.13c.09.06.13.12.13.16s0,.13-.13.26L358,21.86c-.19.25-.25.29-.42.12a14.76,14.76,0,0,0-2.94-2.27c-.08-.06-.15-.1-.15-.16s.07-.13.15-.24Zm.11,10.46a34.9,34.9,0,0,0,2.05-5,10.77,10.77,0,0,0,1.22,1.07c.32.23.44.31.44.5a2.68,2.68,0,0,1-.12.51,37.71,37.71,0,0,1-1.93,4.7,3.2,3.2,0,0,0-.32.8c0,.16-.13.27-.27.27a.75.75,0,0,1-.38-.13,10.85,10.85,0,0,1-1.7-1.15A9.62,9.62,0,0,0,355.64,28.62Zm.77-15.73c.17-.23.23-.23.42-.13a19.29,19.29,0,0,1,3,2.23c.17.15.15.17,0,.42l-.9,1.24c-.21.23-.25.25-.42.1a15.44,15.44,0,0,0-2.92-2.35c-.19-.12-.15-.15,0-.38Zm12.71,2.27c.21-.17.23-.17.4,0a27.63,27.63,0,0,1,4.09,5.22c.11.19.13.24-.13.42l-1.23.89c-.13.08-.21.14-.28.14s-.1-.06-.17-.16c-.27-.53-.56-1-.86-1.52-3.31.38-6.3.72-9.76,1a2,2,0,0,0-.9.17.76.76,0,0,1-.36.12c-.13,0-.19-.12-.25-.31a18,18,0,0,1-.4-2.12,20,20,0,0,0,2.2,0h.13a41.22,41.22,0,0,0,2.16-5.21,6.46,6.46,0,0,0,.32-1.45,16.84,16.84,0,0,1,2.31.46c.21.07.4.19.4.34a.57.57,0,0,1-.24.4,3.24,3.24,0,0,0-.56,1c-.72,1.62-1.32,3-2.06,4.37,2-.14,3.93-.31,5.75-.5a18.19,18.19,0,0,0-1.74-2c-.15-.16-.15-.19.11-.38Zm-7.83,16.35c-.21,0-.24,0-.24-.23s.05-.69.05-3.82V25.57c0-1.91-.05-2.52-.05-2.64s0-.24.24-.24.81,0,2.72,0h4.9c1.91,0,2.56,0,2.68,0s.24,0,.24.24-.05.73-.05,2.31v2.14c0,3.08.05,3.67.05,3.8s0,.23-.24.23h-1.78c-.23,0-.25,0-.25-.23v-.8H363.3v.9c0,.21,0,.23-.23.23Zm2-3.06h6.26V24.67H363.3Z"/><circle class="cls-4" cx="54.83" cy="72.04" r="52.68"/><path class="cls-5" d="M53.31,69.08,53.26,69c-.09-.26-.18-.52-.26-.77l0-.11-.24-.74v0c-.08-.25-.15-.5-.22-.75l0-.1c-.14-.51-.26-1-.37-1.52v-.08q-.09-.39-.15-.78v0c0-.26-.09-.52-.12-.79v0l-.09-.82v-.06c-.05-.56-.08-1.13-.1-1.74v-.08c0-.6,0-1.23,0-1.9v-.08c0-.34,0-.69.05-1h0a33.42,33.42,0,0,1-5.54,8.3,47.59,47.59,0,0,0,7.34,3.72Z"/><path class="cls-5" d="M56.66,68.2c-.08.25-.17.51-.26.77l0,.11-.16.45a48,48,0,0,0,7.34-3.72A33.42,33.42,0,0,1,58,57.51h0c0,.35,0,.7,0,1v.08c0,.67,0,1.3,0,1.9v.08c0,.61,0,1.18-.1,1.74v.06l-.09.82v0c0,.27-.07.53-.12.79v0c0,.26-.09.52-.15.78l0,.08c-.1.51-.22,1-.36,1.52l0,.1c-.07.25-.15.5-.22.75v0l-.24.74Z"/><path class="cls-5" d="M48.47,51.85a3,3,0,0,1-.88-2.2c-3.39,1.58-6.49,3.41-10.11,8.94h0C42.13,57,45.06,55.49,48.47,51.85Z"/><path class="cls-5" d="M58.71,51.53c1.45-.12,2-1,2-1.85A1.53,1.53,0,0,0,59,48.26l0-1.35a3,3,0,0,1,2.58,1.17A47.08,47.08,0,0,0,74.09,50.6c-1.26-4.21-5.9-6-9.86-6.19-4.37-.25-8.06,1.1-8.6,3.14a3.39,3.39,0,0,0,.59,3A2.77,2.77,0,0,0,58.71,51.53Z"/><path class="cls-5" d="M62.06,49.65a2.92,2.92,0,0,1-.87,2.2c3.41,3.64,6.34,5.13,11,6.75h0C68.56,53.06,65.46,51.23,62.06,49.65Z"/><path class="cls-5" d="M58.83,52.88a4.4,4.4,0,0,1-1.21-.05c1.5,5.75,3.91,8.77,6.92,12.35h0c-.58-5.07-1.2-8.7-4.38-12.63A4.18,4.18,0,0,1,58.83,52.88Z"/><path class="cls-5" d="M50.83,52.88a4.18,4.18,0,0,1-1.35-.34c-3.19,3.93-3.8,7.56-4.38,12.63h0c3-3.57,5.41-6.59,6.91-12.3A6.84,6.84,0,0,1,50.83,52.88Z"/><path class="cls-5" d="M54.83,69.82c2.06-5.4,2.63-8.73,1.45-17.45a4,4,0,0,1-1.1-.9,5.62,5.62,0,0,1-.35-.5,5.62,5.62,0,0,1-.35.5,4.45,4.45,0,0,1-1.11,1C52.21,61.11,52.77,64.44,54.83,69.82Z"/><path class="cls-5" d="M63.47,55.52a27.29,27.29,0,0,1,2.18,8.93c.65-.43,1.28-.87,1.88-1.33a24.09,24.09,0,0,0,3.86-3.55A26.84,26.84,0,0,1,63.47,55.52Z"/><path class="cls-5" d="M66.35,50.68a23.06,23.06,0,0,1,6.54,6.86,8.86,8.86,0,0,0,1.45-5.75A49.22,49.22,0,0,1,66.35,50.68Z"/><path class="cls-5" d="M46.19,55.52a27,27,0,0,1-7.92,4,24.09,24.09,0,0,0,3.86,3.55c.6.46,1.23.9,1.87,1.33A27.55,27.55,0,0,1,46.19,55.52Z"/><path class="cls-5" d="M43.31,50.68a49.37,49.37,0,0,1-8,1.11,8.8,8.8,0,0,0,1.45,5.75A23.06,23.06,0,0,1,43.31,50.68Z"/><path class="cls-5" d="M48.15,48.08a2.92,2.92,0,0,1,2.46-1.17h.11l0,1.35a1.55,1.55,0,0,0-1.75,1.42c0,.83.56,1.73,2,1.85a2.77,2.77,0,0,0,2.49-.94,3.39,3.39,0,0,0,.59-3c-.54-2-4.24-3.39-8.6-3.14-4,.23-8.6,2-9.86,6.19A47.08,47.08,0,0,0,48.15,48.08Z"/><path class="cls-5" d="M53,74.83l-.09.1c-.17.21-.35.41-.53.61l-.07.08-.52.58,0,0c-.18.2-.36.39-.55.57l-.07.08c-.37.37-.74.73-1.13,1.08L50,78l-.6.52h0l-.62.5,0,0-.66.48-.05,0c-.46.32-.94.64-1.45,1l-.07,0c-.52.31-1.07.62-1.66.94l-.06,0-.94.48h0a33,33,0,0,1,10,.66,48.71,48.71,0,0,0-.45-8.23Z"/><path class="cls-5" d="M50.59,72.37l.8-.16.12,0,.47-.08a47.85,47.85,0,0,0-6.9-4.5,33,33,0,0,1-4.41,9h0l.88-.57.06,0c.57-.35,1.11-.67,1.64-1l.07,0q.8-.44,1.56-.78l0,0,.76-.33h0l.74-.3h0c.25-.1.49-.18.74-.26l.09,0c.49-.16,1-.31,1.49-.44l.1,0,.77-.18h0l.76-.16Z"/><path class="cls-5" d="M40.53,87.63a3,3,0,0,1-1.47,1.86c3.06,2.15,6.2,3.92,12.8,4.3v0C48.14,90.57,45.38,88.77,40.53,87.63Z"/><path class="cls-5" d="M35.13,78.93a1.87,1.87,0,0,0-2.61-.81,1.52,1.52,0,0,0-.35,2.21L31,81a3,3,0,0,1-.28-2.81,47.22,47.22,0,0,0-4.1-12.16c-3,3.2-2.21,8.09-.43,11.63,2,3.91,5,6.44,7,5.88a3.37,3.37,0,0,0,2.35-2A2.78,2.78,0,0,0,35.13,78.93Z"/><path class="cls-5" d="M31.82,77a2.93,2.93,0,0,1,2.35-.34c1.45-4.77,1.27-8.06.36-12.88h0C31.53,69.63,31.49,73.24,31.82,77Z"/><path class="cls-5" d="M36.24,78.15a4.57,4.57,0,0,1,.56,1.07C41,75.05,42.44,71.45,44,67.05h0c-4.1,3-6.94,5.38-8.75,10.11A4,4,0,0,1,36.24,78.15Z"/><path class="cls-5" d="M40.24,85.07a4.06,4.06,0,0,1,.38,1.35c5,.79,8.45-.49,13.13-2.53v0c-4.6-.81-8.41-1.39-14.11.17A6.09,6.09,0,0,1,40.24,85.07Z"/><path class="cls-5" d="M52.91,73.14c-5.71.92-8.88,2.09-15.84,7.48a4,4,0,0,1-.23,1.4,5.45,5.45,0,0,1-.25.55,3.05,3.05,0,0,1,.6.06,4.2,4.2,0,0,1,1.4.46C46.68,79.77,49.27,77.62,52.91,73.14Z"/><path class="cls-5" d="M36.21,72.81a27.47,27.47,0,0,1,6.64-6.36c-.69-.34-1.39-.66-2.09-1a25,25,0,0,0-5-1.57A27.54,27.54,0,0,1,36.21,72.81Z"/><path class="cls-5" d="M30.57,72.74a23.18,23.18,0,0,1,2.67-9.1,8.87,8.87,0,0,0-5.7,1.62A48.28,48.28,0,0,1,30.57,72.74Z"/><path class="cls-5" d="M44.84,87.77a27.24,27.24,0,0,1,7.48,4.84,24.84,24.84,0,0,0,1.14-5.12c.09-.75.16-1.52.22-2.29A27.14,27.14,0,0,1,44.84,87.77Z"/><path class="cls-5" d="M42.09,92.69a48.84,48.84,0,0,1,5,6.36,8.77,8.77,0,0,0,4.25-4.12A23.3,23.3,0,0,1,42.09,92.69Z"/><path class="cls-5" d="M37.42,89.8a2.93,2.93,0,0,1-2.24-1.55l-.06-.1,1.19-.64a1.53,1.53,0,0,0,2.1.8c.75-.38,1.22-1.34.6-2.66A2.77,2.77,0,0,0,37,84,3.37,3.37,0,0,0,34,85c-1.5,1.49-.82,5.37,1.58,9,2.18,3.31,6,6.45,10.29,5.44A47.1,47.1,0,0,0,37.42,89.8Z"/><path class="cls-5" d="M58.15,72.19l.12,0,.8.16.11,0,.76.16h0l.76.18.11,0c.5.13,1,.28,1.49.44l.08,0,.75.26h0l.74.3h0l.76.33,0,0c.51.23,1,.49,1.55.78l.07,0c.54.29,1.08.61,1.65,1l.06,0,.88.57h0a33.57,33.57,0,0,1-4.41-9,49,49,0,0,0-6.9,4.5Z"/><path class="cls-5" d="M57.23,75.54l-.53-.61-.08-.1-.3-.37a47.67,47.67,0,0,0-.45,8.23,33,33,0,0,1,10-.66h0l-.93-.48-.06,0c-.59-.32-1.14-.63-1.66-.94l-.07,0c-.51-.31-1-.63-1.45-1l0,0-.67-.48,0,0-.63-.5h0l-.6-.52-.06,0c-.39-.35-.76-.71-1.13-1.08l-.08-.08q-.27-.27-.54-.57l0,0c-.17-.19-.35-.38-.52-.58Z"/><path class="cls-5" d="M75.49,76.62a2.91,2.91,0,0,1,2.34.34c.33-3.72.29-7.33-2.68-13.23h0C74.22,68.56,74,71.85,75.49,76.62Z"/><path class="cls-5" d="M70.64,85.65c-.61,1.32-.14,2.28.61,2.66a1.53,1.53,0,0,0,2.1-.8l1.19.64a3,3,0,0,1-2.3,1.65,47.1,47.1,0,0,0-8.48,9.63c4.28,1,8.11-2.13,10.29-5.44,2.4-3.66,3.08-7.53,1.58-9a3.39,3.39,0,0,0-2.93-1A2.8,2.8,0,0,0,70.64,85.65Z"/><path class="cls-5" d="M70.6,89.49a2.93,2.93,0,0,1-1.47-1.86c-4.86,1.14-7.61,2.94-11.34,6.14v0C64.4,93.41,67.54,91.64,70.6,89.49Z"/><path class="cls-5" d="M69.42,85.07a5.51,5.51,0,0,1,.64-1c-5.72-1.57-9.54-1-14.15-.18v0c4.68,2,8.13,3.32,13.13,2.53A4.06,4.06,0,0,1,69.42,85.07Z"/><path class="cls-5" d="M73.42,78.15a4,4,0,0,1,1-1c-1.82-4.73-4.65-7.07-8.75-10.11h0c1.59,4.39,3,8,7.2,12.14A6.08,6.08,0,0,1,73.42,78.15Z"/><path class="cls-5" d="M56.75,73.14c3.64,4.49,6.25,6.64,14.39,10a3.8,3.8,0,0,1,1.33-.49,3.05,3.05,0,0,1,.6-.06,3.87,3.87,0,0,1-.25-.55,4.27,4.27,0,0,1-.3-1.45C65.6,75.23,62.44,74.05,56.75,73.14Z"/><path class="cls-5" d="M64.81,87.77A27.15,27.15,0,0,1,56,85.2c.06.77.13,1.54.22,2.29a24.21,24.21,0,0,0,1.14,5.12A27.19,27.19,0,0,1,64.81,87.77Z"/><path class="cls-5" d="M67.56,92.69a23.21,23.21,0,0,1-9.21,2.24,8.79,8.79,0,0,0,4.26,4.12A49.57,49.57,0,0,1,67.56,92.69Z"/><path class="cls-5" d="M73.45,72.81a27.26,27.26,0,0,1,.45-8.89,25,25,0,0,0-5,1.57c-.7.3-1.4.62-2.09,1A27.47,27.47,0,0,1,73.45,72.81Z"/><path class="cls-5" d="M79.09,72.74a48.28,48.28,0,0,1,3-7.48,8.87,8.87,0,0,0-5.7-1.62A23.35,23.35,0,0,1,79.09,72.74Z"/><path class="cls-5" d="M78.92,78.23A3,3,0,0,1,78.7,81l-.06.09-1.15-.71a1.53,1.53,0,0,0-.36-2.21c-.69-.46-1.77-.39-2.6.81a2.78,2.78,0,0,0-.44,2.62,3.37,3.37,0,0,0,2.34,2c2,.56,5.06-2,7-5.88C85.23,74.16,86,69.27,83,66.07A47.22,47.22,0,0,0,78.92,78.23Z"/><path class="cls-5" d="M54.83,32.18A39.86,39.86,0,1,0,94.68,72,39.86,39.86,0,0,0,54.83,32.18Zm0,73.12A33.22,33.22,0,0,1,29.62,93.73C28.24,91.12,31,85.82,31,85.8h0s-6.1-.29-7.58-2.86A33.27,33.27,0,0,1,48.55,39.36c3,0,6.27,5.13,6.28,5.14h0s3.31-5.14,6.28-5.14A33.27,33.27,0,0,1,86.26,82.94c-1.48,2.57-7.57,2.86-7.58,2.86h0s2.73,5.32,1.35,7.93A33.2,33.2,0,0,1,54.83,105.3Z"/></g></g></svg>