<svg xmlns="http://www.w3.org/2000/svg" viewBox="0 0 402.07 126.64"><defs><style>.cls-1,.cls-2,.cls-3{fill:#fff;stroke:#000;stroke-miterlimit:10;}.cls-1{stroke-width:4.21px;}.cls-2{stroke-width:4.3px;}.cls-3{stroke-width:4.3px;}.cls-4{fill:#d43a52;}</style></defs><title>アセット 224</title><g id="レイヤー_2" data-name="レイヤー 2"><g id="レイヤー_1-2" data-name="レイヤー 1"><polygon class="cls-1" points="399.92 40.55 41.62 40.55 60.35 2.11 399.92 2.11 399.92 40.55"/><rect class="cls-2" x="53.07" y="40.54" width="346.85" height="69.43"/><circle class="cls-3" cx="54.61" cy="72.03" r="52.46"/><path d="M137.27,74.29a.4.4,0,0,1-.4.27.75.75,0,0,1-.24,0c-1.8-.65-4.9-1.36-5.34-1.5-.2-.07-.37-.1-.37-.34a11,11,0,0,1,.68-2.24c0-.1.1-.24.44-.24a32,32,0,0,1,5.57,1,.39.39,0,0,1,.31.44A19.8,19.8,0,0,1,137.27,74.29Zm-5.37,12a.31.31,0,0,1,.14-.24,44.65,44.65,0,0,0,6.66-8c.07-.11.14-.17.17-.17s.14.06.17.17a14.44,14.44,0,0,0,1.63,2,.19.19,0,0,1,.14.2,1,1,0,0,1-.07.24c-1.46,2.68-3.16,4.93-3.87,6.12-.62,1-.65,1.66-1.23,1.66S131.9,86.87,131.9,86.29Zm7.35-19.24a.66.66,0,0,1-.38-.14A52.75,52.75,0,0,0,134.21,64c-.13-.1-.27-.17-.27-.34s1.19-2.14,1.53-2.14c.51,0,5.48,2.21,5.48,2.92a.73.73,0,0,1-.07.24,14.4,14.4,0,0,1-1.36,2.21A.35.35,0,0,1,139.25,67.05Zm23,16.69a.33.33,0,0,1,.31.37c0,.31,0,1,0,1.74,0,.47,0,1,0,1.22s-.21.24-.38.24C157.64,87,155,87,152.4,87c-7.65,0-9.89.14-12.88.34-.21,0-.44-.07-.44-.31s0-1,0-1.49c0-1.29,0-1.77.34-1.77h.14c4.14.27,6.76.37,9.11.37,0-1.83.1-5.71.1-9s-.07-6.35-.1-7.71c-1.57,0-3.54.1-6.39.3h-.07c-.17,0-.38-.06-.38-.3s0-.85,0-1.4c0-1.73.07-1.73.48-1.73,4.08.31,6.18.34,8.09.34a92.74,92.74,0,0,0,9.55-.34c.41,0,.41.34.41,2,0,1.26-.07,1.39-.41,1.39-3.53-.23-5.17-.3-6.9-.34v0c0,.2-.2.41-.48.58s-.23.27-.23.61c0,1.7-.07,4.11-.07,6.59,0,3.2.07,7.11.1,8.94,2.58,0,5.17-.06,9.89-.37Z"/><path d="M191.13,79c0,.31-.14.34-.41.34s-1.16.07-1.84.07c-1.46,0-1.59-.07-1.59-.41v-.07l.1-1.7c-1.23,0-3.27-.07-5.82-.07-3,0-5.54,0-6.86.07-1.19,9.25-6.8,13-7.41,13a.52.52,0,0,1-.34-.13,15.13,15.13,0,0,0-3.37-1.46c-.2-.07-.27-.14-.27-.21s.07-.13.27-.24c6.49-3.09,7.92-9.65,7.92-14.92a34.67,34.67,0,0,0-.51-5.78.93.93,0,0,1,0-.27c0-.14.07-.17.24-.17h.23c3.57.24,5.51.27,7.31.27,7.18,0,8.23,0,11.87-.24.27,0,.41.07.41.38v.1c-.14,1.43-.21,3.43-.21,5.5a43.67,43.67,0,0,0,.31,5.75Zm2.92-17.85c.27,0,.34.07.34,2.11,0,1.29-.07,1.6-.37,1.6-6.87-.38-9.32-.38-13.19-.38-5.68,0-8.57.14-12.65.38-.41,0-.44-.24-.44-1.87,0-1.84,0-1.84.27-1.84h.17c6.08.31,8.12.34,11,.34,5.64,0,8.53,0,14.82-.34Zm-6.56,9.18s-1.09-.1-3.71-.1c-.68,0-1.42,0-2.27,0l-6.67.07s0,1.94,0,3.84c1.42,0,3.91.07,6.59.07s4.76,0,6-.07Z"/><path d="M211,82.75c0,.34-.1.58-1.7.58-.92,0-1.63,0-1.63-.47v-.07c0-.65,0-1.5.06-2.42-.37,0-.95-.06-1.46-.06s-1.19,0-1.56.06c0,1.53,0,3,.07,4.36,0,.57-.07.61-1.7.61s-1.74-.21-1.74-.55v-.1c.31-4.66.38-9.76.38-12.54,0-3.51-.07-6.26-.21-9.05,0-.13,0-.2,0-.3s.07-.21.24-.21.17,0,.27,0c1.09.1,2.58.17,4.32.17s2-.07,4.21-.21c.38,0,.44.14.44.48-.23,2.69-.23,5.81-.23,8.74,0,2.55.06,8,.27,10.74Zm-4.76-17.33c-.95,0-1.53,0-1.53,0s-.07,2.11-.07,4.52c.41,0,1.09,0,1.6,0s1.22,0,1.6,0c0-2.17-.11-4.52-.11-4.52s-.34,0-1,0Zm1.6,7.3c-.38,0-1,0-1.57,0s-1.25,0-1.63,0c0,1.33,0,3,0,4.87.4,0,1.05,0,1.56,0s1.15,0,1.53,0C207.82,75.75,207.86,74,207.86,72.72Zm21.82.17c-3.77-.37-7.31-.4-9.45-.4s-3.91.07-8.36.34c-.34,0-.41-.11-.41-1.57s0-1.63.41-1.63c3.33.27,5.06.34,6.83.34V67.29c-1.53,0-3,.06-5.47.2-.31,0-.38,0-.38-1.46s.07-1.53.45-1.53c2.38.2,3.91.2,5.33.2v-.34a27.37,27.37,0,0,0-.47-5v-.17c0-.17,0-.21.24-.21.54,0,4.35.41,4.35,1.13,0,.27-.31.61-.51,1-.38.71-.34.64-.48,2.85a4.94,4.94,0,0,0,0,.68c1.29,0,2.58-.07,5.2-.24.17,0,.41,0,.41,1.57a6.7,6.7,0,0,1-.07,1.26c0,.13-.2.2-.31.2h0c-2.55-.14-3.74-.17-5.24-.2V70c2.11,0,4.86-.17,8-.41.24,0,.38.24.38,1.67,0,.54,0,1.09-.07,1.43,0,.13-.17.23-.27.23Zm-4.59,13c0,2-1.12,4.25-5.1,4.25q-.3,0-.51-.51c-.64-1.53-1.83-2.07-2.65-3-.1-.11-.17-.17-.17-.24s0-.07.14-.07a1.39,1.39,0,0,0,.17,0,19.72,19.72,0,0,0,2.75.28c1.29,0,2-.34,2-1.33.07-1.33.07-4,.07-5.54v-2h-1.46c-2.18,0-4,.06-8.33.34a.33.33,0,0,1-.34-.31c0-.27,0-.78,0-1.33,0-1.63,0-1.63.38-1.63,4.21.34,6,.34,8.33.34h1.36a14.14,14.14,0,0,0-.27-2c0-.07,0-.1,0-.13s.1-.21.27-.21,4,.34,4,1a.91.91,0,0,1-.27.54c-.31.41-.41.41-.44.75,1.39-.07,2.95-.17,4.62-.3h0c.2,0,.34.27.34,1.69,0,.55,0,1.13-.07,1.47a.33.33,0,0,1-.27.23h0c-1.67-.17-3.26-.27-4.69-.3v2.92c0,1.84.17,3,.2,4.93Zm-7.51-1.49c-.07,0-.14-.07-.2-.14a19.42,19.42,0,0,0-4.25-3.64c-.11-.07-.14-.1-.14-.17,0-.37,1.5-1.36,1.84-1.56a.26.26,0,0,1,.17-.1.44.44,0,0,1,.17.06,17.34,17.34,0,0,1,4.45,2.89.29.29,0,0,1,.1.21,14.63,14.63,0,0,1-2,2.38C217.68,84.35,217.65,84.39,217.58,84.39Z"/><path d="M238.83,89.31c.51-4.58.75-12,.88-17.57-.3.37-3.8,4.72-4.55,4.72a.45.45,0,0,1-.27-.06A9.56,9.56,0,0,0,232,75.34c-.2,0-.34-.1-.34-.17s.07-.13.17-.2c5.85-4.15,10.51-12,10.91-14.28,0-.14.07-.2.18-.2.57,0,4,1.46,4,2.1,0,.24-.27.48-.78.68s-.68.14-.95.68a39.91,39.91,0,0,1-2.31,3.57c.24.07.41.17.54.21a.42.42,0,0,1,.34.41,1.12,1.12,0,0,1-.34.64,2.12,2.12,0,0,0-.51,1.63c-.14,4.22-.31,9.76-.31,14.28,0,1.77,0,3.37.11,4.69,0,.17-.11.34-1.94.34-1.6,0-1.94,0-1.94-.34Zm23.53-18.18c0,.13-.24.27-.34.27-5.1.37-5.85.44-8.84.88l-.72.11c2,10.13,7.62,12.91,8.3,12.91s1.6-1,1.83-3.8c0-.21.07-.28.17-.28s.14.07.21.17a11.86,11.86,0,0,0,2.72,2.76.52.52,0,0,1,.24.51c-.92,3-2.55,4.65-4.56,4.65a5.09,5.09,0,0,1-2.72-.91c-5.61-3.54-8.09-9.52-9.35-15.47l-4.86,1h-.1a.4.4,0,0,1-.41-.24,13.43,13.43,0,0,1-.37-2.69v-.13c0-.34.17-.41.37-.41,2.14-.13,3.6-.27,4.86-.44-.27-1.73-.47-3.47-.61-5.1s-.27-3-.48-3.91a2.49,2.49,0,0,1-.06-.37c0-.14.06-.21.2-.21s.14,0,.2,0c3.68.44,4.42.57,4.42,1.12A3.17,3.17,0,0,1,252,62.8a2.61,2.61,0,0,0-.2,1.12A49.33,49.33,0,0,0,252,69.6l.75-.1c3.26-.45,4.08-.62,8.74-1.6h.07a.36.36,0,0,1,.37.3,19.34,19.34,0,0,1,.41,2.89Zm-5.17-3.54a23.35,23.35,0,0,0-4.11-2.82c-.14-.07-.28-.1-.28-.24a5.68,5.68,0,0,1,1.77-2.21c.65,0,4.8,2.31,4.8,2.76s-1.37,2.68-1.81,2.68A.51.51,0,0,1,257.19,67.59Z"/><path d="M282.49,91a.54.54,0,0,1-.41.2.35.35,0,0,1-.21-.06c-4.25-2.28-9.07-8-9.07-16.8,0-11.56,8.87-16.52,9.28-16.52a2.8,2.8,0,0,1,1.39,1.94.52.52,0,0,1-.31.47c-3.63,2.11-6.9,7.69-6.9,14.15,0,6.8,3.27,12.27,6.9,14.41a.51.51,0,0,1,.24.48A3.18,3.18,0,0,1,282.49,91Z"/><path d="M305.74,65.08c2.62,0,5.48-.11,10-.34.38,0,.48.2.48,1.53,0,.61,0,1.22-.07,1.63,0,.17-.2.24-.41.24-5.88-.31-9.28-.34-12.65-.34-8.7,0-12,.13-16.21.34h-.1c-.41,0-.41-.28-.41-1.64,0-1.59,0-1.76.34-1.76h.17c4.38.23,7.34.3,9.79.34a19.87,19.87,0,0,0-3.2-3.91c-.1-.11-.17-.17-.17-.24a9,9,0,0,1,2.66-1.4c.34,0,4,3.47,4,4,0,.31-1.36,1.12-2,1.5h4.31a37.39,37.39,0,0,0,2.86-5.44c.1-.28.14-.41.27-.41s3.91,1.36,3.91,2c0,.24-.34.41-.78.68a3.32,3.32,0,0,0-1,.92Zm-8.6,17.27c-.64,0-1.66,0-2.31,0s-1.26,0-2,0c0,2.82.1,5.13.13,7,0,.28-.1.38-1.46.38-.58,0-1.22,0-1.66-.07-.24,0-.34-.07-.34-.27v-.11c.13-3,.44-7.71.44-11.08,0-2.11,0-5.81-.24-8a1.07,1.07,0,0,1,0-.27c0-.14.06-.17.27-.17h.2a44.94,44.94,0,0,0,4.66.17c1.67,0,2.89,0,5-.17.3,0,.4.07.4.27v.14c0,.44-.2,2.34-.2,8.6,0,2.78.2,5.3.2,7.24s-.81,3.7-4.65,3.81a.48.48,0,0,1-.45-.45,10.22,10.22,0,0,0-1.93-2.68c-.07-.07-.14-.14-.14-.21s.07-.06.21-.06h.1a16.09,16.09,0,0,0,2.17.23c1.06,0,1.6-.3,1.6-1.12Zm0-3.57c0-.17,0-.72,0-1.36-.65,0-1.63,0-2.28,0s-1.36,0-2,0v2.41c.72,0,1.57,0,2,0s1.63,0,2.31,0Zm-.1-6.36s-1.12,0-2.25,0-1.9,0-1.9,0,0,1.19,0,2.51c.64,0,1.46,0,1.93,0s1.6,0,2.28,0C297.07,73.61,297,72.42,297,72.42Zm5.47-1.36c0-.1,0-.1.1-.1h.14a23.41,23.41,0,0,1,3.6.64c.31.11.41.21.41.41a2.38,2.38,0,0,1-.44.95c-.2.34-.37.92-.37,3.4a68.34,68.34,0,0,0,.34,7.31c0,.14-.14.24-.31.24-.41,0-1,0-1.5,0-1.66,0-1.8-.1-1.8-.34.21-2.89.27-3.4.27-6a28.26,28.26,0,0,0-.44-6.36Zm9.86,15.54c0,1.66-2,3.09-5.34,3.09a.57.57,0,0,1-.54-.48,11.79,11.79,0,0,0-2.14-2.72c-.07-.06-.1-.1-.1-.13s.1-.14.23-.14.14,0,.24,0a20,20,0,0,0,2.28.23c1,0,1.87-.23,1.9-1.08,0-2.11.07-3.64.07-4.87,0-1.63,0-2.68,0-3.87a38.66,38.66,0,0,0-.51-7.31.33.33,0,0,1,0-.17c0-.1.07-.1.28-.1a30.1,30.1,0,0,1,4,.71c.3.1.44.27.44.44a2.14,2.14,0,0,1-.48,1c-.27.41-.51,1-.51,4.45,0,2.21,0,6.63.24,10.85Z"/><path d="M346.85,73.47c-5-.24-7.35-.3-10-.34,0,.92,0,2.21,0,3.68,3.5,0,6.22-.07,12.61-.38.34,0,.41.1.41,1.77s-.11,1.7-.41,1.7c-6.15-.27-9.21-.34-12.58-.38.07,3.51.2,7.42.34,10,0,.21-.14.38-2,.38-1.73,0-2,0-2-.44.2-3.34.34-6.87.44-10-3.57,0-6,.11-12.41.38-.44,0-.47-.17-.47-1.74,0-1.73,0-1.73.47-1.73,6.36.31,9.35.38,12.48.38,0-1.47,0-2.73,0-3.68-2.78,0-4.55.1-9.82.34h-.1c-.24,0-.31,0-.31-1.63s0-1.66.41-1.66c5.17.27,7.41.34,9.82.34a76.6,76.6,0,0,0-.54-10.78c0-.07,0-.14,0-.21s.06-.1.13-.1c.24,0,4.76.27,4.76,1.12,0,.34-.41.82-.68,1.6s-.47,4.12-.51,8.37c2.76,0,4.8-.07,10-.34.23,0,.27.1.3.3a13,13,0,0,1,0,1.4,13.22,13.22,0,0,1,0,1.39c0,.1-.07.2-.24.2Zm-17.17-3.94c-.1,0-.2-.07-.31-.24a27.06,27.06,0,0,0-4.69-4.59c-.13-.1-.24-.17-.24-.27,0-.34,1.74-1.67,1.94-1.67.44,0,5.88,3.54,5.88,4.32A7.4,7.4,0,0,1,329.68,69.53Zm15.71-3.94c-.58.27-3.44,2.68-5.1,3.84a.39.39,0,0,1-.28.1.2.2,0,0,1-.17-.1,4.86,4.86,0,0,0-1.8-1.09c-.1-.07-.13-.14-.13-.17A.19.19,0,0,1,338,68a29.16,29.16,0,0,0,5.1-5.64c.07-.14.13-.2.24-.2.44,0,3.26,2,3.26,2.72C346.61,65.31,345.86,65.31,345.39,65.59Z"/><path d="M354.5,91.18a.51.51,0,0,1-.41-.2,3.24,3.24,0,0,1-.92-1.73.61.61,0,0,1,.24-.48c3.64-2.14,6.9-7.61,6.9-14.41,0-6.46-3.26-12-6.9-14.15a.51.51,0,0,1-.3-.47,2.77,2.77,0,0,1,1.39-1.94c.41,0,9.28,5,9.28,16.52,0,8.81-4.83,14.52-9.08,16.8A.29.29,0,0,1,354.5,91.18Z"/><path d="M117.81,17.36c-2.56.49-4.81.93-7,1.39-.8.19-1,.23-1.33.33a1.07,1.07,0,0,1-.46.17.49.49,0,0,1-.4-.31,15.11,15.11,0,0,1-.77-2.27,28.59,28.59,0,0,0,3.33-.36c2.59-.38,7.21-1.07,12.62-1.78.32,0,.42.08.44.23a11.26,11.26,0,0,1,.23,1.85c0,.25-.12.31-.39.31a9.49,9.49,0,0,0-2.57.46c-3.57,1.22-5.35,3.68-5.35,6.2,0,2.7,1.93,4.18,5.58,4.41.34,0,.47.08.47.31a7.87,7.87,0,0,1-.23,1.81c-.07.31-.15.44-.4.44-3.7,0-7.75-2.12-7.75-6.49,0-3,1.49-5,4-6.66ZM122,19.63c.1-.08.19-.06.31,0a10,10,0,0,1,2,2.25.21.21,0,0,1-.07.33l-.88.65a.21.21,0,0,1-.35-.06,10.48,10.48,0,0,0-2.13-2.43Zm1.87-1.36c.12-.09.19-.07.31,0a8.65,8.65,0,0,1,2,2.16.25.25,0,0,1-.07.38l-.84.65a.21.21,0,0,1-.35-.07,10,10,0,0,0-2.1-2.41Z"/><path d="M134.8,14.65a5.54,5.54,0,0,0-.73-1.34,14.54,14.54,0,0,1,2.54-.23c.29,0,.46.17.46.38s0,.27,0,.39a4.13,4.13,0,0,0,.08.64c.15.54.21.73.34,1.09a32.67,32.67,0,0,0,4.28-1.12c.19-.08.29-.06.36.11.12.4.27,1,.35,1.41a.31.31,0,0,1-.25.37c-1.41.44-2.69.76-4.11,1.08.18.52.46,1.17.73,1.76a26.07,26.07,0,0,0,3.82-1.09c.21-.11.32-.07.38.12a8.41,8.41,0,0,1,.38,1.39c0,.19,0,.29-.17.38a26.71,26.71,0,0,1-3.55,1,15.67,15.67,0,0,0,2.75,3.63c.21.19.21.27.11.5a6.37,6.37,0,0,1-.86,1.3c-.13.15-.21.21-.34.21a.56.56,0,0,1-.29-.12,5.57,5.57,0,0,0-1.24-.68,10.27,10.27,0,0,0-4-.67c-2,0-3.13.61-3.13,1.6,0,1.36,1.79,1.81,5,1.81.78,0,1.55-.09,2.31-.13.21,0,.27.1.25.27a12.64,12.64,0,0,1-.42,1.91c-.06.21-.15.3-.44.32-.48,0-1,.06-1.51.06-4.83,0-7.39-1.36-7.39-4,0-2.24,1.93-3.65,5.2-3.65a9.91,9.91,0,0,1,3.62.52,23.14,23.14,0,0,1-1.75-2.47,52.84,52.84,0,0,1-5.75.63.34.34,0,0,1-.38-.3,12.06,12.06,0,0,1-.38-1.72,37,37,0,0,0,5.65-.52c-.21-.44-.52-1.16-.8-1.75a35.3,35.3,0,0,1-5.1.51c-.25,0-.38-.09-.42-.3s-.21-1-.33-1.68A37.05,37.05,0,0,0,135.3,16C135.14,15.53,135,15.18,134.8,14.65Z"/><path d="M151,24c.19.1.21.21.11.38a3.37,3.37,0,0,0-.55,1.59c0,1.32,1.37,2,5,2a27.29,27.29,0,0,0,5.69-.6c.29-.07.4,0,.44.18A18.53,18.53,0,0,1,162,29.6c0,.19-.1.28-.35.32a34,34,0,0,1-6.15.5c-4.85,0-7.23-1.51-7.23-4.24a5.54,5.54,0,0,1,1.12-3C149.92,23.45,150.45,23.72,151,24Zm4.75-8.23c1.53,0,3-.09,4.36-.19.21,0,.3.06.32.23a12.61,12.61,0,0,1,.19,1.78c0,.3-.11.42-.36.44a12.34,12.34,0,0,0-5.14,2.08.88.88,0,0,1-.53.19.94.94,0,0,1-.44-.12,4.89,4.89,0,0,0-1.47-.68c1.09-.71,2-1.3,2.75-1.74a11.49,11.49,0,0,1-1.53.07,25.18,25.18,0,0,1-3.86-.36c-.19,0-.28-.13-.28-.38,0-.5.05-1.11.09-1.87A26.3,26.3,0,0,0,155.74,15.79Zm5.71-2.33c.1-.09.19-.07.31,0a9.54,9.54,0,0,1,2,2.25.21.21,0,0,1-.07.33l-.88.65a.21.21,0,0,1-.35-.06,10.74,10.74,0,0,0-2.12-2.44Zm1.87-1.37c.12-.08.19-.06.31,0a8.86,8.86,0,0,1,2,2.17.24.24,0,0,1-.07.37l-.84.66a.21.21,0,0,1-.35-.07,10,10,0,0,0-2.1-2.41Z"/><path d="M174.91,13.56c.25.06.38.17.38.34s-.15.59-.15.88.06.92.11,1.41a30.23,30.23,0,0,0,.67,3.61l3-1.6a5.11,5.11,0,0,0,1.45-1.13,10.71,10.71,0,0,1,1.53,2,.83.83,0,0,1,.15.44c0,.21-.13.38-.42.42a10.61,10.61,0,0,0-2,.63A29.44,29.44,0,0,0,174.66,23c-1.83,1.19-2.48,2.18-2.48,3.17,0,1.24.92,1.76,3.34,1.76a37,37,0,0,0,6.4-.48c.23,0,.34,0,.38.25a17.12,17.12,0,0,1,.21,1.95c0,.24-.12.34-.38.36a45,45,0,0,1-6.25.32c-4,0-6.07-1.3-6.07-4,0-2.33,1.53-3.86,4-5.41a31.4,31.4,0,0,1-1.09-5.12,9.57,9.57,0,0,0-.55-2.44A12.1,12.1,0,0,1,174.91,13.56Z"/><path d="M196.94,17.09a26.25,26.25,0,0,1-2.63,9.05c-.9,1.57-2,2.41-3.56,2.41-1.85,0-3.72-2-3.72-5.39a7.73,7.73,0,0,1,2.37-5.46A9.17,9.17,0,0,1,196.23,15c5,0,8,3.11,8,7.29,0,3.9-2.2,6.36-6.46,7.64-.44.12-.63,0-.91-.38a4.4,4.4,0,0,0-1.46-1.32c3.54-.84,6.34-2.31,6.34-6.28A4.77,4.77,0,0,0,197,17.09Zm-6,2A6.07,6.07,0,0,0,189.28,23c0,1.93.77,3,1.42,3s1-.27,1.58-1.28a23.87,23.87,0,0,0,2.22-7.52A6.38,6.38,0,0,0,190.91,19.13Z"/><path d="M220.27,12.78c.27-.12.31-.1.4.11a16.84,16.84,0,0,0,6.8,7.75,7,7,0,0,0-1.22,1.57c-.19.32-.27.46-.4.46s-.23-.1-.44-.27a17.14,17.14,0,0,1-2-1.7c0,.61,0,1.34-.06,2.08a42.39,42.39,0,0,1-.53,5.88c-.27,1.66-1.07,2.58-3.13,2.58-.52,0-.92,0-1.42,0-.66,0-.63,0-.78-.74a4.46,4.46,0,0,0-.65-1.68,15.29,15.29,0,0,0,2.39.19c.88,0,1.24-.33,1.41-1.3a35.71,35.71,0,0,0,.4-5.21h-3.74a10.18,10.18,0,0,1-6.38,8.91,1.42,1.42,0,0,1-.51.16c-.17,0-.23-.14-.44-.5a3.92,3.92,0,0,0-1.07-1.26c3.82-1.39,5.67-3.61,6.07-7.31h-.25c-2,0-2.65.05-2.77.05s-.24,0-.24-.24V20.74a22.21,22.21,0,0,1-2,1.74c-.23.17-.36.28-.46.28s-.23-.15-.44-.46A4.64,4.64,0,0,0,207.61,21a16.5,16.5,0,0,0,6.07-6.93,6.12,6.12,0,0,0,.42-1.35,15.39,15.39,0,0,1,2.18.74c.23.1.29.21.29.35a.45.45,0,0,1-.16.32,1.77,1.77,0,0,0-.49.67,19.09,19.09,0,0,1-3.84,5.57c.3,0,1,0,2.65,0h5.64c1.83,0,2.52,0,2.73,0a22.29,22.29,0,0,1-4.51-6.66c-.08-.23,0-.25.19-.36Z"/><path d="M236.38,18.14a9.57,9.57,0,0,0,3.06,2.39,4.91,4.91,0,0,0-.67,1.07c-.15.34-.23.51-.38.51s-.23-.11-.46-.3a10.53,10.53,0,0,1-2.29-2.56c0,1.68.09,2.1.09,2.31s0,.23-.23.23h-1.41c-.21,0-.23,0-.23-.23s.06-.59.08-2.1a11.23,11.23,0,0,1-2.75,2.75c-.23.17-.36.25-.48.25s-.23-.12-.36-.4a3.94,3.94,0,0,0-.75-1.15,11.35,11.35,0,0,0,3.63-2.77h-.42c-1.77,0-2.37,0-2.5,0s-.21,0-.21-.23V16.77c0-.21,0-.23.21-.23s.73.05,2.5.05h1V15a16.8,16.8,0,0,0-.15-2.54,17.69,17.69,0,0,1,2,.15c.23,0,.34.1.34.21a2.21,2.21,0,0,1-.15.5,8.87,8.87,0,0,0-.08,1.68v1.6h.88c1.79,0,2.37-.05,2.5-.05s.23,0,.23.23V18c0,.21,0,.23-.23.23s-.71,0-2.5,0Zm-3.66,7.58c-1.78,0-2.37,0-2.49,0s-.23,0-.23-.23V24.21c0-.21,0-.23.23-.23s.71,0,2.49,0h1a9.09,9.09,0,0,0,0-1.81c.84.06,1.41.11,1.87.17.23,0,.35.13.35.25a1,1,0,0,1-.1.34A2.74,2.74,0,0,0,235.6,24h1c1.82,0,2.39,0,2.52,0s.25,0,.25.23v1.32c0,.21,0,.23-.25.23s-.7,0-2.52,0H236a6.57,6.57,0,0,0,3.13,2.69,4.66,4.66,0,0,0-1,1.07c-.21.31-.31.46-.46.46s-.25-.11-.48-.27A7.9,7.9,0,0,1,235,27.08a7.55,7.55,0,0,1-3.3,3.74.93.93,0,0,1-.44.19c-.14,0-.27-.13-.48-.46a4.36,4.36,0,0,0-1-1.09,5.84,5.84,0,0,0,3.7-3.74Zm-1.09-12.47c.21-.11.28-.09.42.08a11.67,11.67,0,0,1,1.16,1.95c.1.23.06.3-.21.42l-1,.47c-.25.12-.31.14-.4-.07a10.67,10.67,0,0,0-1.07-2c-.15-.21-.17-.28.13-.42ZM237,14a3.48,3.48,0,0,0,.29-.92,9.56,9.56,0,0,1,1.55.56c.17.07.24.17.24.25s0,.17-.19.3a1.44,1.44,0,0,0-.3.4,14.76,14.76,0,0,1-.71,1.3c-.17.27-.25.38-.38.38a.92.92,0,0,1-.4-.17,5.94,5.94,0,0,0-1-.42A10.79,10.79,0,0,0,237,14Zm6.21,14.55c.21.15.23.23.23.34s-.1.19-.25.25a2.37,2.37,0,0,0-.55.38,13.77,13.77,0,0,1-2.81,1.89,1.66,1.66,0,0,1-.54.21c-.19,0-.3-.15-.51-.51a4.52,4.52,0,0,0-.86-1.05,10.64,10.64,0,0,0,3.15-1.68,4.12,4.12,0,0,0,.71-.73A13.72,13.72,0,0,1,243.2,28.51Zm-.86-13.4c-1.87,0-2.5.05-2.62.05s-.23,0-.23-.23V13.39c0-.21,0-.23.23-.23s.75,0,2.62,0h3.91c1.89,0,2.52,0,2.64,0s.21,0,.21.23v1.54c0,.21,0,.23-.21.23s-.75-.05-2.64-.05H245.2a16.11,16.11,0,0,1-.65,1.58h1c1.68,0,2.27,0,2.42,0s.23,0,.23.21,0,.86,0,2.45V24.9c0,1.6,0,2.31,0,2.41s0,.26-.23.26-.74-.05-2.42-.05h-2.79c-1.7,0-2.27.05-2.39.05s-.26,0-.26-.26,0-.81,0-2.41V19.4c0-1.68,0-2.39,0-2.54s0-.21.26-.21.65,0,2.1,0a11.46,11.46,0,0,0,.6-1.58Zm-.23,4.65h4V18.43h-4Zm4,3V21.33h-4v1.39Zm0,1.57h-4v1.49h4Zm-.57,3.49a.39.39,0,0,1,.28-.15.43.43,0,0,1,.21.1,10.86,10.86,0,0,0,3.46,2.08,5.14,5.14,0,0,0-.86,1.18c-.19.36-.29.48-.46.48a1.11,1.11,0,0,1-.48-.19A12,12,0,0,1,244.67,29a.27.27,0,0,1-.1-.21c0-.06,0-.14.16-.25Z"/><path d="M262.17,17.36c-2.57.49-4.81.93-7.06,1.39-.8.19-1,.23-1.32.33a1.17,1.17,0,0,1-.46.17.48.48,0,0,1-.4-.31,13.94,13.94,0,0,1-.78-2.27,29,29,0,0,0,3.34-.36c2.58-.38,7.2-1.07,12.62-1.78.31,0,.42.08.44.23a12.46,12.46,0,0,1,.23,1.85c0,.25-.13.31-.4.31a9.35,9.35,0,0,0-2.56.46c-3.57,1.22-5.36,3.68-5.36,6.2,0,2.7,1.94,4.18,5.59,4.41.34,0,.46.08.46.31a7.36,7.36,0,0,1-.23,1.81c-.06.31-.15.44-.4.44-3.69,0-7.75-2.12-7.75-6.49,0-3,1.49-5,4-6.66Zm4.15,2.27c.11-.08.19-.06.32,0a9.93,9.93,0,0,1,2,2.25.2.2,0,0,1-.06.33l-.88.65c-.15.11-.25.09-.36-.06a10.44,10.44,0,0,0-2.12-2.43Zm1.87-1.36c.13-.09.19-.07.32,0a8.61,8.61,0,0,1,2,2.16.25.25,0,0,1-.06.38l-.84.65a.22.22,0,0,1-.36-.07,10,10,0,0,0-2.1-2.41Z"/><path d="M287.15,19.42a5.76,5.76,0,0,0,0-1.43,9.37,9.37,0,0,1,2.44.9.4.4,0,0,1,.15.57,3.3,3.3,0,0,0-.34.82c-.17.88-.38,1.81-.59,2.71a25.35,25.35,0,0,1,3.28,2c.21.13.19.24.12.44a18,18,0,0,1-.9,1.81c-.06.11-.13.15-.19.15a.38.38,0,0,1-.25-.15,16.21,16.21,0,0,0-2.75-2,13,13,0,0,1-4.24,5.52c-.19.15-.3.23-.42.23a.55.55,0,0,1-.32-.15A4.32,4.32,0,0,0,281.3,30a11.59,11.59,0,0,0,4.7-5.69,14.1,14.1,0,0,0-4.16-1.28,14.51,14.51,0,0,1-2.56,4.2,3.46,3.46,0,0,1-2.69,1.16c-1.21,0-2.49-.84-2.49-2.88,0-2.6,2.68-4.64,6.19-4.64.69-1.74,1.22-3.21,1.74-5l-2.9.34a4.13,4.13,0,0,0-.94.23,1.17,1.17,0,0,1-.38.08.32.32,0,0,1-.33-.23,12.64,12.64,0,0,1-.61-2.29,7.61,7.61,0,0,0,1.84.13A23.18,23.18,0,0,0,282,13.9a2.55,2.55,0,0,0,1-.36.53.53,0,0,1,.56,0A6.74,6.74,0,0,1,285,14.69a.51.51,0,0,1,.19.36c0,.13-.08.23-.21.36a2.91,2.91,0,0,0-.57,1.09c-.54,1.43-1.13,3.07-1.76,4.58a17.35,17.35,0,0,1,4.07,1.05A20.36,20.36,0,0,0,287.15,19.42Zm-11.08,5.86c0,.67.23,1,.73,1a1.69,1.69,0,0,0,1.22-.8,13.62,13.62,0,0,0,1.53-2.56C277.41,23,276.07,24.08,276.07,25.28Z"/><path d="M301.94,21.16a6.33,6.33,0,0,1,3.34-.94,4.88,4.88,0,0,1,5.21,5c0,3.5-2.84,5.75-7.33,5.75-2.65,0-4.24-1.13-4.24-3.09a2.79,2.79,0,0,1,3-2.56,3.81,3.81,0,0,1,3.94,3.07A3.17,3.17,0,0,0,308,25.24a3.07,3.07,0,0,0-3.3-3.18,8.59,8.59,0,0,0-5.38,2.23c-.6.55-1.19,1.15-1.82,1.79-.15.14-.25.23-.36.23a.54.54,0,0,1-.31-.19,9.36,9.36,0,0,1-1.24-1.37c-.13-.17-.07-.31.1-.48a50.43,50.43,0,0,0,5-4.64c1.3-1.34,2.29-2.39,3.25-3.59-1.26.23-2.75.52-4.05.8a5.46,5.46,0,0,0-.88.25,1.7,1.7,0,0,1-.42.1.47.47,0,0,1-.46-.35,10.53,10.53,0,0,1-.74-2.27,10.59,10.59,0,0,0,2,0c1.29-.12,3.13-.4,4.77-.71a5.48,5.48,0,0,0,1.16-.32,1.11,1.11,0,0,1,.39-.17.81.81,0,0,1,.49.17,7.93,7.93,0,0,1,1.4,1.35.71.71,0,0,1,.24.5.55.55,0,0,1-.36.5,3.4,3.4,0,0,0-.93.68c-1.53,1.49-2.93,3-4.53,4.49Zm0,6c-.61,0-1,.35-1,.79,0,.66.57,1.1,1.83,1.1a4.21,4.21,0,0,0,1-.09C303.47,27.8,302.84,27.15,302,27.15Z"/><path d="M328,22.55H315.25V21.33H328Z"/><path class="cls-4" d="M338.61,16.19v4H339c1.08,0,1.33-.05,1.45-.05s.25,0,.25.23v.24a16.93,16.93,0,0,0,2.73-6.05,11.77,11.77,0,0,0,.36-2.23c.69.13,1.32.25,2,.42.28.09.4.17.4.3a.44.44,0,0,1-.14.31,3.07,3.07,0,0,0-.42,1.05c-.15.55-.3,1.09-.47,1.64h3.13c2,0,2.63,0,2.75,0s.21,0,.21.23v1.51c0,.21,0,.23-.21.23s-.46,0-1.32,0a17.81,17.81,0,0,1-2.41,8,15.74,15.74,0,0,0,4.45,3.4,5.42,5.42,0,0,0-1.05,1.56c-.15.33-.23.48-.38.48a1.15,1.15,0,0,1-.5-.23,18.08,18.08,0,0,1-3.83-3.47,15.64,15.64,0,0,1-5,3.57,1.5,1.5,0,0,1-.46.19c-.15,0-.26-.15-.44-.48a5.58,5.58,0,0,0-1-1.28,13.54,13.54,0,0,0,5.64-3.82,17.69,17.69,0,0,1-1.86-4.81c-.21.35-.45.67-.68,1s-.31.39-.42.39-.16-.1-.31-.31a8.81,8.81,0,0,0-.72-.9v.65c0,.21,0,.23-.25.23s-.37,0-1.45,0h-.37v4.43c1-.32,2.05-.68,3.19-1.12,0,.51-.07.93-.07,1.41,0,.65,0,.65-.6.88-2.52.93-5,1.64-7.25,2.23a3.32,3.32,0,0,0-.8.31.63.63,0,0,1-.37.17c-.15,0-.23-.1-.32-.27a20.23,20.23,0,0,1-.63-2.06,8.34,8.34,0,0,0,1.28-.17v-6.4a10.85,10.85,0,0,0-.12-2c.77,0,1.51.07,2.1.13.19,0,.27.11.27.21a.69.69,0,0,1-.13.36,4.35,4.35,0,0,0-.08,1.28v6l1.41-.36V16.19H335c-1.77,0-2.38,0-2.5,0s-.21,0-.21-.23V14.42c0-.21,0-.23.21-.23s.73,0,2.5,0h3.94c1.79,0,2.4,0,2.52,0s.23,0,.23.23V16c0,.21,0,.23-.23.23s-.73,0-2.52,0Zm5.79,1.74c-.06.19-.15.38-.23.57A17.72,17.72,0,0,0,345.91,24a15.73,15.73,0,0,0,1.54-6.11Z"/><path class="cls-4" d="M355.2,18.16c.17-.21.25-.21.44-.11a17.44,17.44,0,0,1,2.94,2.13c.08.06.12.12.12.16s0,.13-.12.26l-.93,1.25c-.19.26-.25.3-.42.13a14.76,14.76,0,0,0-2.94-2.27c-.08-.06-.14-.1-.14-.16a.63.63,0,0,1,.14-.24Zm.1,10.46a33.74,33.74,0,0,0,2.06-5,9.26,9.26,0,0,0,1.22,1.07c.31.23.44.31.44.5a2.21,2.21,0,0,1-.13.51,36.25,36.25,0,0,1-1.93,4.7,3.11,3.11,0,0,0-.31.8c0,.16-.13.27-.28.27a.72.72,0,0,1-.37-.13,10.45,10.45,0,0,1-1.71-1.15A8.42,8.42,0,0,0,355.3,28.62Zm.78-15.73c.17-.23.23-.23.42-.13a19.79,19.79,0,0,1,3,2.23c.17.15.15.17,0,.42l-.9,1.24c-.21.23-.26.25-.42.1a16.1,16.1,0,0,0-2.92-2.35c-.19-.13-.15-.15,0-.38Zm12.7,2.27c.21-.17.23-.17.4,0a26.84,26.84,0,0,1,4.09,5.22c.11.19.13.24-.12.42l-1.24.89c-.13.08-.21.14-.27.14s-.11-.06-.17-.17c-.27-.52-.57-1-.86-1.51-3.32.38-6.3.72-9.76,1a2.11,2.11,0,0,0-.91.17.73.73,0,0,1-.35.12c-.13,0-.19-.12-.26-.31a20.33,20.33,0,0,1-.4-2.12,20.21,20.21,0,0,0,2.21,0h.13a42.75,42.75,0,0,0,2.16-5.21,6.41,6.41,0,0,0,.31-1.45,16.26,16.26,0,0,1,2.31.46c.21.07.4.19.4.34a.56.56,0,0,1-.23.4,3,3,0,0,0-.57,1c-.71,1.62-1.32,3-2,4.37,2-.15,3.92-.31,5.75-.5a19.32,19.32,0,0,0-1.74-2c-.15-.16-.15-.19.1-.38ZM361,31.51c-.21,0-.23,0-.23-.23s0-.69,0-3.82V25.57c0-1.91,0-2.52,0-2.64s0-.24.23-.24.82,0,2.73,0h4.89c1.91,0,2.56,0,2.69,0s.23,0,.23.24,0,.73,0,2.31v2.14c0,3.08,0,3.67,0,3.8s0,.23-.23.23h-1.79c-.23,0-.25,0-.25-.23v-.8H363v.9c0,.21,0,.23-.24.23Zm2-3.06h6.25V24.67H363Z"/><path d="M80.46,46.2a36.43,36.43,0,0,0-25.8-10.67H54.6A36.5,36.5,0,0,0,18.16,72v.07a36.5,36.5,0,0,0,36.5,36.44h.06A36.5,36.5,0,0,0,91.17,72V72h0A36.36,36.36,0,0,0,80.46,46.2Zm-25.82-4h0A29.84,29.84,0,0,1,84.5,72V72a29.84,29.84,0,0,1-29.79,29.84h-.05a29.84,29.84,0,0,1-29.83-29.8v0A29.81,29.81,0,0,1,54.61,42.2h0Z"/><path d="M63.6,72.27a15.48,15.48,0,0,1,5.54,1.91l0,0A18.15,18.15,0,0,1,68.06,71a13.33,13.33,0,0,1-.4-4.16L58.4,72.25A18.4,18.4,0,0,1,63.6,72.27Z"/><path d="M74.47,83.45a34.49,34.49,0,0,0-3,6.77A21.23,21.23,0,0,0,70.76,93a19.8,19.8,0,0,0,7.43-7,20.05,20.05,0,0,0,2.33-10.24A31.42,31.42,0,0,0,74.47,83.45Z"/><path d="M72.14,69.41a12.39,12.39,0,0,0-2.24-1.78,6.18,6.18,0,0,0-.65-.31,11.28,11.28,0,0,0,.37,3.33,17.54,17.54,0,0,0,1.48,3.81,23,23,0,0,0,1.45,2.38l.13.14A13.82,13.82,0,0,1,74.27,79l.1.11a.83.83,0,0,1,.2.41.91.91,0,0,1,.09.17,2.53,2.53,0,0,1,.12.23c.66-1,1.35-1.86,2-2.69a.37.37,0,0,1,0-.11c-.17-.56-.46-1.4-.74-2.42-.22-.45-.47-.91-.76-1.38A21,21,0,0,0,72.14,69.41Z"/><path d="M63.36,73.85a17.83,17.83,0,0,0-5.7.13,17.9,17.9,0,0,0,2.89,5.4,14.11,14.11,0,0,0,4,3.44A13.7,13.7,0,0,0,68,84.23a21.48,21.48,0,0,1,2.7.37h.53a4.12,4.12,0,0,0,.86-.11c.3-.61.63-1.22,1-1.83.25-.43.51-.85.77-1.26l-.23,0a3.62,3.62,0,0,0-.38-1c-.07-.15-.17-.31-.26-.48a21.75,21.75,0,0,1-1.66-2.11,13.75,13.75,0,0,0-3-2.32A14,14,0,0,0,63.36,73.85Z"/><path d="M68,91.47h0a24.56,24.56,0,0,0-3.45,1.16,15.12,15.12,0,0,0-5.88,4.21,6.64,6.64,0,0,0,3-.31A33.37,33.37,0,0,0,69,93.93c0-.28.06-.57.11-.86.09-.6.22-1.22.38-1.86a8.43,8.43,0,0,1-.9.18Z"/><path d="M77.53,74.17a9.92,9.92,0,0,1,.61,1.63,21.45,21.45,0,0,1,2.29-2.08A33.36,33.36,0,0,0,79,66.36c-.68-1.92-.59-2.38-1.51-3a14,14,0,0,0-.84,5.19,22.74,22.74,0,0,0,.88,5.58Z"/><path d="M63.51,91.31a21.18,21.18,0,0,1-2.81-.57,12.94,12.94,0,0,1-3-1.2,5.53,5.53,0,0,1-1.28-1v5.1a3.41,3.41,0,0,0,.88,2.27,15.7,15.7,0,0,1,4.62-3.82C62.44,91.82,63,91.55,63.51,91.31Z"/><path d="M63.79,84.24l0,0a15.59,15.59,0,0,1-4.44-3.83,19.36,19.36,0,0,1-2.93-5.25l0,11.68a13.32,13.32,0,0,1,4.1-2A17.84,17.84,0,0,1,63.79,84.24Z"/><path d="M70.7,66.24a16,16,0,0,1,3.79,3.34c.23.27.45.55.68.83a16.51,16.51,0,0,1,.8-7.57,3.39,3.39,0,0,0-2.08.43l-4.27,2.48A6.45,6.45,0,0,1,70.7,66.24Z"/><path d="M71.13,86.2a.9.9,0,0,1-.46,0l-.16,0c-.41,0-.85,0-1.32-.11s-.92-.16-1.42-.27c-.3,0-.6,0-.92-.06a19.14,19.14,0,0,0-5.92.63,11.64,11.64,0,0,0-3.06,1.36,4.45,4.45,0,0,0,.6.4,14,14,0,0,0,4.28,1.42,19.56,19.56,0,0,0,4.92.31h0c1-.25,1.8-.42,2.37-.55.34-1,.75-2.07,1.22-3.14Z"/><path d="M48.92,59V59a17.83,17.83,0,0,1-2.18,2.56A13,13,0,0,1,43.34,64l9.28,5.34A19.11,19.11,0,0,1,50,64.78,15.62,15.62,0,0,1,48.92,59Z"/><path d="M44.58,48.4a31.53,31.53,0,0,0,9.71,1.37A34.43,34.43,0,0,0,61.66,49a21.55,21.55,0,0,0,2.75-.79,19.9,19.9,0,0,0-9.8-2.93A20,20,0,0,0,44.58,48.4Z"/><path d="M50.61,52a.81.81,0,0,1,.25-.37l.1-.17.15-.21c-1.17-.1-2.29-.24-3.35-.43a.36.36,0,0,1-.07.1c-.4.43-1,1.1-1.73,1.85-.28.41-.55.86-.82,1.35a22,22,0,0,0-1.85,4.69,11.76,11.76,0,0,0-.41,2.83,5.31,5.31,0,0,0,0,.72,12.08,12.08,0,0,0,2.7-2,17.37,17.37,0,0,0,2.56-3.2,21.39,21.39,0,0,0,1.33-2.43l.06-.18a12.91,12.91,0,0,1,1-2.42S50.6,52.06,50.61,52Z"/><path d="M58.71,58.69A13.9,13.9,0,0,0,58.19,55a24.65,24.65,0,0,1-1-2.52c-.09-.16-.18-.32-.27-.46a4.84,4.84,0,0,0-.52-.68c-.68,0-1.37.06-2.08.06-.5,0-1,0-1.48,0l.15.18a3.4,3.4,0,0,0-.64.8c-.09.14-.18.3-.27.47-.2.58-.53,1.46-1,2.5A13.52,13.52,0,0,0,50.52,59a13.88,13.88,0,0,0,1,5.17,17.8,17.8,0,0,0,3,4.88,18,18,0,0,0,3.23-5.21A14.07,14.07,0,0,0,58.71,58.69Z"/><path d="M64.1,50.89l.39.52h0a26.17,26.17,0,0,0,2.73,2.4,15.12,15.12,0,0,0,6.59,3A6.75,6.75,0,0,0,72,54.34a33.5,33.5,0,0,0-6-5.07,8.34,8.34,0,0,1-.8.33c-.56.22-1.16.42-1.79.6Q63.8,50.51,64.1,50.89Z"/><path d="M44.71,51.77h0a10,10,0,0,1,1.1-1.33,21.93,21.93,0,0,1-2.93-1,33.17,33.17,0,0,0-5.67,4.92c-1.33,1.55-1.76,1.7-1.82,2.8a14,14,0,0,0,4.92-1.88A22.57,22.57,0,0,0,44.71,51.77Z"/><path d="M72.17,60.31a3.4,3.4,0,0,0,1.53-1.89,15.61,15.61,0,0,1-5.62-2.09c-.53-.32-1-.65-1.51-1a23.07,23.07,0,0,1,.92,2.73A13.4,13.4,0,0,1,68,61.28a5.77,5.77,0,0,1-.2,1.59Z"/><path d="M62.49,61.18a18.42,18.42,0,0,1-2.18-2.55v.06a15.48,15.48,0,0,1-1.1,5.76,19.42,19.42,0,0,1-3.08,5.16l10.11-5.86A12.94,12.94,0,0,1,62.49,61.18Z"/><path d="M42.64,55.7a16.7,16.7,0,0,1-7,3.08,3.35,3.35,0,0,0,1.41,1.59l4.28,2.46a6.48,6.48,0,0,1-.1-1.18,15.77,15.77,0,0,1,1-4.95C42.38,56.36,42.51,56,42.64,55.7Z"/><path d="M63.26,52.45h0c-.7-.72-1.26-1.35-1.66-1.79a32.33,32.33,0,0,1-3.33.51l.08.13a.79.79,0,0,1,.26.38s0,.1,0,.15a11.22,11.22,0,0,1,.57,1.2c.17.42.33.88.48,1.37.12.27.26.54.41.82A19,19,0,0,0,63.6,60a12.33,12.33,0,0,0,2.71,2,5.31,5.31,0,0,0,0-.72,14.26,14.26,0,0,0-.91-4.42A19.59,19.59,0,0,0,63.26,52.45Z"/><path d="M53,86.48l0-10.71a18.76,18.76,0,0,1-2.61,4.5,15.68,15.68,0,0,1-4.43,3.85l0,0a17.94,17.94,0,0,1,3.31.61A13.11,13.11,0,0,1,53,86.48Z"/><path d="M30.87,78.09a22.31,22.31,0,0,0-2.07-2,19.8,19.8,0,0,0,2.37,10,19.92,19.92,0,0,0,7.71,7.14,31.5,31.5,0,0,0-3.67-9.1A34.92,34.92,0,0,0,30.87,78.09Z"/><path d="M43.55,89.83a21.58,21.58,0,0,0,5-.74,11.51,11.51,0,0,0,2.65-1,4.18,4.18,0,0,0,.6-.41,11.79,11.79,0,0,0-3.07-1.34,17,17,0,0,0-4-.62,22.7,22.7,0,0,0-2.78.06l-.18,0a13.88,13.88,0,0,1-2.59.34.35.35,0,0,1-.14,0,.77.77,0,0,1-.45,0h-.2l-.25,0c.5,1.06.93,2.1,1.3,3.11l.13,0c.57.13,1.44.3,2.46.57C42.47,89.83,43,89.85,43.55,89.83Z"/><path d="M37.32,84.59l.08-.22a4.05,4.05,0,0,0,1,.15,4.68,4.68,0,0,0,.53,0,26,26,0,0,1,2.67-.37,13.74,13.74,0,0,0,7.46-4.88,17.58,17.58,0,0,0,2.74-5,17.82,17.82,0,0,0-6.12-.19,13.82,13.82,0,0,0-5,1.73,13.62,13.62,0,0,0-3,2.3,23.07,23.07,0,0,1-1.67,2.15l-.26.46a5.72,5.72,0,0,0-.33.8c.37.57.74,1.16,1.09,1.77C36.85,83.72,37.09,84.16,37.32,84.59Z"/><path d="M31,75.91a8.32,8.32,0,0,1,.3-.88c.07-.19.16-.39.25-.59h0a25.59,25.59,0,0,0,.71-3.57,15.15,15.15,0,0,0-.7-7.2,6.79,6.79,0,0,0-1.26,2.77,33.73,33.73,0,0,0-1.41,7.68c.22.17.45.34.68.53C30,75,30.51,75.45,31,75.91Z"/><path d="M47,93.42a22.35,22.35,0,0,0-5.27-2h0A9.85,9.85,0,0,1,40,91.1a22.44,22.44,0,0,1,.65,3,33.28,33.28,0,0,0,7.09,2.45c2,.38,2.35.68,3.33.18A13.78,13.78,0,0,0,47,93.42Z"/><path d="M33.89,70.67a21.92,21.92,0,0,1,1.9-2.15,13.41,13.41,0,0,1,2.55-2,5.8,5.8,0,0,1,1.48-.61L35.4,63.34A3.4,3.4,0,0,0,33,63a15.92,15.92,0,0,1,1,5.91C34,69.49,34,70.09,33.89,70.67Z"/><path d="M45.46,72.49a19.37,19.37,0,0,1,6,.09L41.34,66.75A12.86,12.86,0,0,1,41,71.28a18.54,18.54,0,0,1-1.12,3.17l.05,0A15.68,15.68,0,0,1,45.46,72.49Z"/><path d="M52,89.43A15.52,15.52,0,0,1,47.22,91c-.35.07-.7.13-1.06.17a16.59,16.59,0,0,1,6.15,4.49,3.38,3.38,0,0,0,.67-2V88.74A6,6,0,0,1,52,89.43Z"/><path d="M37,76.34a19.09,19.09,0,0,0,2.41-5.44,12.42,12.42,0,0,0,.36-3.33,3.8,3.8,0,0,0-.65.31,14.43,14.43,0,0,0-3.37,3A19.16,19.16,0,0,0,33.05,75h0c-.26,1-.53,1.77-.7,2.34A32.49,32.49,0,0,1,34.44,80s.05-.08.07-.13a.75.75,0,0,1,.2-.41l.11-.12a11.92,11.92,0,0,1,.75-1.09c.28-.35.6-.72,1-1.09C36.69,76.86,36.86,76.61,37,76.34Z"/></g></g></svg>