<svg xmlns="http://www.w3.org/2000/svg" viewBox="0 0 401.61 126.64"><defs><style>.cls-1,.cls-2,.cls-4{fill:#fff;stroke:#000;stroke-miterlimit:10;}.cls-1{stroke-width:4.21px;}.cls-2{stroke-width:4.3px;}.cls-3{fill:#d43a52;}.cls-4{stroke-width:4.3px;}.cls-5{fill:#060001;}</style></defs><title>アセット 231</title><g id="レイヤー_2" data-name="レイヤー 2"><g id="レイヤー_1-2" data-name="レイヤー 1"><polygon class="cls-1" points="399.46 40.55 41.15 40.55 59.89 2.11 399.46 2.11 399.46 40.55"/><rect class="cls-2" x="52.6" y="40.54" width="346.85" height="69.43"/><path d="M198.36,88.87c0,.34,0,.55-2.08.55-1.53,0-1.56-.21-1.56-.51v-.07c0-.51,0-1,0-1.6-1.22,0-4.72-.1-5.67-.1s-4.66.07-6,.1L183.2,89c0,.54-.14.58-1.91.58s-1.83-.14-1.83-.48v-.17a73.65,73.65,0,0,0,.3-7.44c0-2.21,0-4-.13-5.78a1.11,1.11,0,0,1,0-.34c0-.1,0-.14.21-.14s.2,0,.34,0c1.22.06,4.48.13,6.93.13,0-1.66,0-3.16,0-5.13-3.12,0-6.73.07-12.47.37-.41,0-.51-.17-.51-1.6,0-1.93,0-2,.51-2,5.78.3,9.38.41,12.47.41v-1.7a42.7,42.7,0,0,0-.4-5.44v-.21c0-.17,0-.2.23-.2.82.07,4.46.41,4.46,1.22a1.9,1.9,0,0,1-.38.92,4.59,4.59,0,0,0-.57,2.62v2.79c3.23,0,7.1-.07,13-.41.38,0,.44.07.44,1.83,0,.62,0,1.19,0,1.53,0,.17-.2.24-.41.24-5.74-.3-9.72-.34-13-.37v5.13c2.17,0,5.37-.1,7.41-.2.37,0,.47.13.47.41v.1c-.13,1.87-.17,3.63-.17,4.89,0,4.46.07,6.53.21,8.09Zm-3.54-7.58c0-1,0-3,0-3s-2.86,0-4.66,0H189l-5.88,0s0,1.77,0,3.09v2.83c1.25,0,5.06.06,5.91.06s4.63-.06,5.78-.06Z"/><path d="M232.19,70c0,.34.07.72.13,1.09v0c0,.07-.1.21-.2.21a10.23,10.23,0,0,1-1.12.07c-1.33,0-1.63,0-1.63-.34.06-.48.13-.75.17-1.09-1.06,0-1.94,0-2.59,0h-2c0,.38.07.79.14,1.16v0a.25.25,0,0,1-.21.21,10.23,10.23,0,0,1-1.12.07c-1.32,0-1.63,0-1.63-.34a9.43,9.43,0,0,0,.17-1c-1,0-2.18.1-3.6.2v.65a12.7,12.7,0,0,1,0,1.36.32.32,0,0,1-.34.23l-3-.13c0,.85,0,3.53.07,5.47,1.46-.54,2.72-1.05,3.33-1.33l.2-.06c.11,0,.11.1.11.3s0,.75,0,1.16a5,5,0,0,0,.1,1v.1c0,.27-.23.48-8.83,4-.41.17-.75.61-1.09.61a.53.53,0,0,1-.41-.24c-1.9-2.41-2.11-2.72-2.11-2.92s.17-.17.38-.17a28.69,28.69,0,0,0,5.23-1.4c0-2.31.1-5.54.1-6.56-1.19,0-2.31.11-3.6.17-.31,0-.37-.13-.37-1.36,0-.61,0-1.25,0-1.53s.14-.3.27-.3h.07c1.33.13,2.41.24,3.6.27a65.73,65.73,0,0,0-.4-8.81v-.13c0-.14,0-.14.1-.14s4.28.31,4.28,1.13c0,.37-.44.84-.64,1.32s-.24.54-.38,6.6c.89,0,1.63-.11,2.79-.21,0-1.36,0-1.8.3-1.8h.14c1.53.1,2.75.17,3.77.2A10.49,10.49,0,0,0,222,66a.11.11,0,0,1,0-.1c0-.1.07-.14.21-.14,3.16.27,3.43.58,3.43.82s-.27.54-.47.85a.86.86,0,0,0-.17.41h4.62a8.65,8.65,0,0,0-.31-1.84.13.13,0,0,1,0-.1c0-.1.07-.14.2-.14,1.36.14,3.4.34,3.4.82a2,2,0,0,1-.44.85,1.19,1.19,0,0,0-.13.34c1.53,0,3.29-.14,5.27-.27a.34.34,0,0,1,.37.3c0,.27,0,.78,0,1.29,0,1.09-.07,1.16-.4,1.16Zm-6.39,17.1a2.11,2.11,0,0,0-.85.27A26.93,26.93,0,0,1,215.56,90a.62.62,0,0,1-.57-.28,10.28,10.28,0,0,0-2.25-2.21c-.13-.1-.24-.2-.24-.27s.11-.1.38-.1c6.32,0,10.37-2,11.11-2.55.11-.1.17-.17.24-.17s2.25,1.77,2.25,2.24C226.48,86.87,226.2,87,225.8,87.07Zm9.14-21.76c-3.13-.2-4.93-.27-6.36-.3,0,.51.11.95.17,1.53,0,.2-.13.34-1.39.34s-1.67-.07-1.67-.38c.07-.57.14-1,.17-1.49-1.19,0-2.58.1-5.57.3h-.07c-.31,0-.34-.23-.34-1.32,0-1.5.1-1.5.41-1.5,3.16.27,4.45.34,5.61.34a12.4,12.4,0,0,0-.27-3v-.1c0-.11,0-.17.2-.17,3.37.3,3.54.74,3.54,1a1.62,1.62,0,0,1-.48.88c-.24.24-.27,1-.31,1.43,1.43,0,3.13-.07,6.36-.34.21,0,.34,0,.34,1.63a9.45,9.45,0,0,1,0,1,.35.35,0,0,1-.27.2ZM234,84.08c0,.27-.17.27-.34.31-2.78,0-2.85,0-2.85-.28v-.64c-.65,0-1.91,0-3.81,0-1.56,0-2.65,0-3.4,0,0,.27,0,.58,0,.88v.07c0,.14-.1.17-.34.17s-.85,0-1.32,0c-1.06,0-1.63-.06-1.63-.2v-.07a56.76,56.76,0,0,0,.4-5.68,51.47,51.47,0,0,0-.2-6.79v-.07c0-.1,0-.1.14-.1h.13c2.69.1,3.27.13,6.16.13,1.46,0,2.31,0,3.12,0a31.41,31.41,0,0,0,3.47-.21h.1c.14,0,.21.07.21.17v.1a38.89,38.89,0,0,0-.14,3.91c0,4.29.1,6,.27,8.16ZM231,76.91c-.64,0-1.9,0-3.91,0-1.73,0-2.82,0-3.53,0v1.32c.71,0,1.87,0,3.5,0,2,0,3.33,0,3.94,0Zm0,4.55c0-.44,0-.88,0-1.36-.64,0-1.9,0-3.91,0-1.73,0-2.82,0-3.53,0,0,.48,0,.92,0,1.36ZM227,73.75c-2.72,0-3.4.06-3.4.06s0,.48,0,1.19c.72,0,1.87,0,3.47,0,2,0,3.26,0,3.91,0,0-.68,0-1.19,0-1.19S229.67,73.75,227,73.75Zm12.34,13.08c0,.07-.07.14-.21.24a13,13,0,0,0-2.58,2.38c-.1.14-.17.17-.27.17a.75.75,0,0,1-.24,0c-4.11-.92-7.55-3-7.55-3.27s1.46-1.56,1.67-1.66a.42.42,0,0,1,.24-.1.7.7,0,0,1,.17.06,21.1,21.1,0,0,0,8.49,2C239.19,86.7,239.33,86.73,239.33,86.83Z"/><path d="M253.13,82.76c0,.33-.1.57-1.7.57-.91,0-1.63,0-1.63-.47v-.07c0-.65,0-1.5.07-2.41-.37,0-1-.07-1.46-.07s-1.19,0-1.57.07c0,1.52,0,3,.07,4.35,0,.57-.07.61-1.7.61s-1.73-.21-1.73-.55v-.1c.3-4.65.37-9.75.37-12.54,0-3.5-.07-6.26-.2-9.05,0-.13,0-.2,0-.3s.07-.21.24-.21.17,0,.27,0c1.09.1,2.59.17,4.32.17s2-.07,4.22-.21c.37,0,.44.14.44.48-.24,2.69-.24,5.81-.24,8.74,0,2.55.07,8.06.27,10.74Zm-4.76-17.34c-1,0-1.53,0-1.53,0s-.06,2.11-.06,4.52c.4,0,1.08,0,1.59,0s1.23,0,1.6,0c0-2.17-.1-4.52-.1-4.52s-.34,0-1,0Zm1.6,7.31c-.37,0-1,0-1.56,0s-1.26,0-1.63,0c0,1.32,0,3,0,4.86.41,0,1.05,0,1.56,0s1.16,0,1.53,0C249.94,75.75,250,74,250,72.73Zm21.83.17c-3.78-.38-7.31-.41-9.45-.41s-3.91.07-8.37.34c-.34,0-.41-.1-.41-1.57s0-1.63.41-1.63c3.33.27,5.07.34,6.84.34V67.29c-1.53,0-3,.06-5.48.2-.3,0-.37,0-.37-1.46s.07-1.53.44-1.53c2.38.2,3.91.2,5.34.2v-.34a27.27,27.27,0,0,0-.48-5v-.17c0-.17,0-.2.24-.2.54,0,4.35.4,4.35,1.12,0,.27-.3.61-.51,1-.37.71-.34.64-.47,2.85a3.71,3.71,0,0,0,0,.68c1.29,0,2.59-.07,5.2-.24.17,0,.41,0,.41,1.57a6.7,6.7,0,0,1-.07,1.26c0,.13-.2.2-.3.2h0c-2.55-.14-3.74-.17-5.23-.2V70c2.11,0,4.86-.17,8-.41.23,0,.37.24.37,1.67a13.6,13.6,0,0,1-.07,1.43c0,.13-.17.24-.27.24Zm-4.59,13c0,2-1.12,4.25-5.1,4.25q-.32,0-.51-.51c-.65-1.53-1.84-2.07-2.65-3-.11-.11-.17-.17-.17-.24s0-.07.13-.07.1,0,.17,0a19.7,19.7,0,0,0,2.76.28c1.29,0,2-.34,2-1.33.06-1.33.06-4,.06-5.54v-2h-1.46c-2.17,0-3.94.07-8.33.34a.33.33,0,0,1-.34-.31c0-.27,0-.78,0-1.33,0-1.63,0-1.63.37-1.63,4.22.34,6,.34,8.33.34h1.36a12.86,12.86,0,0,0-.27-2,.86.86,0,0,0,0-.13c0-.14.1-.21.27-.21s4,.34,4,1a.84.84,0,0,1-.28.54c-.3.41-.4.41-.44.75,1.4-.07,3-.17,4.63-.3h0c.2,0,.34.27.34,1.69,0,.55,0,1.13-.07,1.47a.33.33,0,0,1-.27.24h0c-1.67-.17-3.27-.28-4.7-.31v2.92c0,1.84.17,3,.21,4.93Zm-7.52-1.49c-.06,0-.13-.07-.2-.14a19.47,19.47,0,0,0-4.25-3.64c-.1-.06-.14-.1-.14-.17,0-.37,1.5-1.36,1.84-1.56a.31.31,0,0,1,.17-.1.39.39,0,0,1,.17.06,17.17,17.17,0,0,1,4.45,2.89.31.31,0,0,1,.11.21,14.78,14.78,0,0,1-2,2.38C259.8,84.35,259.76,84.39,259.69,84.39Z"/><path d="M281,89.32c.51-4.59.74-12,.88-17.58-.31.37-3.81,4.72-4.56,4.72a.45.45,0,0,1-.27-.06,9.4,9.4,0,0,0-2.85-1.06c-.21,0-.34-.1-.34-.17s.06-.13.17-.2c5.84-4.15,10.5-12,10.91-14.28,0-.14.07-.2.17-.2.58,0,4,1.46,4,2.1,0,.24-.28.48-.79.68s-.68.14-.95.68A39.91,39.91,0,0,1,285,67.52c.24.07.41.17.54.21a.42.42,0,0,1,.34.41,1.06,1.06,0,0,1-.34.64,2.07,2.07,0,0,0-.5,1.63c-.14,4.22-.31,9.76-.31,14.28,0,1.77,0,3.37.1,4.69,0,.17-.1.34-1.94.34-1.59,0-1.93,0-1.93-.34Zm23.52-18.19c0,.13-.24.27-.34.27-5.1.37-5.85.44-8.84.88l-.71.11c2,10.13,7.61,12.91,8.29,12.91s1.6-1,1.84-3.8c0-.21.07-.28.17-.28s.13.07.2.17a12.07,12.07,0,0,0,2.72,2.76.51.51,0,0,1,.24.51c-.92,3-2.55,4.66-4.55,4.66a5.11,5.11,0,0,1-2.72-.92c-5.61-3.54-8.1-9.52-9.35-15.47l-4.87,1h-.1a.37.37,0,0,1-.4-.24,12.73,12.73,0,0,1-.38-2.68v-.14c0-.34.17-.41.38-.41,2.14-.13,3.6-.27,4.86-.44-.28-1.73-.48-3.47-.62-5.1s-.27-3-.47-3.91a1.76,1.76,0,0,1-.07-.37.18.18,0,0,1,.2-.21c.07,0,.14,0,.21,0,3.67.44,4.42.57,4.42,1.12a3.34,3.34,0,0,1-.51,1.19,2.62,2.62,0,0,0-.21,1.12,47.58,47.58,0,0,0,.28,5.68l.74-.1c3.27-.45,4.08-.62,8.74-1.6h.07a.36.36,0,0,1,.37.3,18.12,18.12,0,0,1,.41,2.89Zm-5.17-3.54a23,23,0,0,0-4.11-2.82c-.14-.07-.27-.1-.27-.24a5.68,5.68,0,0,1,1.77-2.21c.64,0,4.79,2.31,4.79,2.76s-1.36,2.68-1.8,2.68A.53.53,0,0,1,299.3,67.59Z"/><path d="M117.34,17.36c-2.56.49-4.8.93-7,1.39-.8.19-1,.23-1.32.33a1.17,1.17,0,0,1-.46.17.48.48,0,0,1-.4-.31,13.94,13.94,0,0,1-.78-2.27,29,29,0,0,0,3.34-.36c2.58-.38,7.2-1.07,12.62-1.78.31,0,.42.08.44.23a12.46,12.46,0,0,1,.23,1.85c0,.25-.13.31-.4.31a9.35,9.35,0,0,0-2.56.46c-3.57,1.22-5.36,3.68-5.36,6.2,0,2.71,1.94,4.18,5.59,4.41.34,0,.46.08.46.31a7.36,7.36,0,0,1-.23,1.81c-.06.31-.15.44-.4.44-3.69,0-7.75-2.12-7.75-6.49,0-3,1.49-5,4-6.66Zm4.16,2.27c.11-.08.19-.06.32,0a9.93,9.93,0,0,1,2,2.25.2.2,0,0,1-.06.33l-.88.66a.22.22,0,0,1-.36-.07,10.44,10.44,0,0,0-2.12-2.43Zm1.87-1.36c.13-.09.19-.07.32,0a8.61,8.61,0,0,1,2,2.16.25.25,0,0,1-.06.38l-.84.65a.22.22,0,0,1-.36-.06,9.84,9.84,0,0,0-2.1-2.42Z"/><path d="M134.33,14.65a4.93,4.93,0,0,0-.73-1.34,14.54,14.54,0,0,1,2.54-.23c.29,0,.46.17.46.38s0,.27,0,.4a3.88,3.88,0,0,0,.08.63c.15.54.21.73.34,1.09a32.26,32.26,0,0,0,4.28-1.12c.19-.08.3-.06.36.11.13.4.27,1,.36,1.41a.32.32,0,0,1-.25.37c-1.41.45-2.69.76-4.12,1.08.19.52.46,1.17.73,1.76a25.89,25.89,0,0,0,3.83-1.09c.21-.11.31-.07.37.12a7.75,7.75,0,0,1,.38,1.39c0,.19,0,.29-.17.38a27,27,0,0,1-3.54,1A15.67,15.67,0,0,0,142,24.65c.21.19.21.27.1.5a6,6,0,0,1-.86,1.3c-.13.15-.21.21-.34.21a.59.59,0,0,1-.29-.12,5.18,5.18,0,0,0-1.24-.67,10,10,0,0,0-4-.68c-2,0-3.12.61-3.12,1.6,0,1.36,1.78,1.81,5,1.81.78,0,1.56-.09,2.31-.13.21,0,.28.1.25.27a12.64,12.64,0,0,1-.42,1.91c-.06.21-.14.3-.44.32-.48,0-1,.06-1.51.06-4.83,0-7.39-1.36-7.39-4,0-2.24,1.93-3.65,5.21-3.65a9.65,9.65,0,0,1,3.61.53,24.54,24.54,0,0,1-1.74-2.48,50.59,50.59,0,0,1-5.76.63c-.23,0-.31-.09-.37-.3a9.83,9.83,0,0,1-.38-1.72,37,37,0,0,0,5.65-.52c-.21-.44-.53-1.16-.8-1.75a35.44,35.44,0,0,1-5.1.51c-.26,0-.38-.09-.42-.3s-.21-1-.34-1.68a35.66,35.66,0,0,0,5.23-.33C134.67,15.54,134.54,15.18,134.33,14.65Z"/><path d="M150.53,24c.19.1.21.21.1.38a3.46,3.46,0,0,0-.54,1.59c0,1.32,1.36,2,5,2a27.22,27.22,0,0,0,5.69-.6c.3-.07.4,0,.44.19a15.92,15.92,0,0,1,.34,2.05c0,.19-.11.28-.36.32a33,33,0,0,1-6.15.5c-4.85,0-7.22-1.51-7.22-4.24a5.51,5.51,0,0,1,1.11-3C149.46,23.45,150,23.72,150.53,24Zm4.74-8.23c1.53,0,3-.09,4.37-.19.21,0,.29.06.31.23a11.28,11.28,0,0,1,.19,1.78c0,.3-.1.42-.35.44a12.33,12.33,0,0,0-5.15,2.08.83.83,0,0,1-1,.07,4.65,4.65,0,0,0-1.47-.67c1.09-.72,2-1.31,2.75-1.75a11.71,11.71,0,0,1-1.54.07,25.29,25.29,0,0,1-3.86-.36c-.19,0-.27-.13-.27-.38,0-.5,0-1.11.08-1.87A26.36,26.36,0,0,0,155.27,15.79ZM161,13.46c.11-.09.19-.07.32,0a9.52,9.52,0,0,1,2,2.25.2.2,0,0,1-.06.33l-.88.65c-.15.11-.25.09-.36-.06a10.5,10.5,0,0,0-2.12-2.44Zm1.87-1.37c.13-.08.19-.06.32,0a8.82,8.82,0,0,1,2,2.17.24.24,0,0,1-.06.37l-.84.66a.22.22,0,0,1-.36-.07,10,10,0,0,0-2.1-2.41Z"/><path d="M174.45,13.56c.25.07.37.17.37.34s-.14.59-.14.88.06.92.1,1.41a30.23,30.23,0,0,0,.67,3.61l3-1.6a5,5,0,0,0,1.45-1.13,11.29,11.29,0,0,1,1.54,2,.91.91,0,0,1,.14.44c0,.21-.12.38-.42.42a10.53,10.53,0,0,0-2,.63A29.94,29.94,0,0,0,174.19,23c-1.82,1.2-2.47,2.18-2.47,3.17,0,1.24.92,1.76,3.33,1.76a37.17,37.17,0,0,0,6.41-.48c.23,0,.33,0,.38.25.1.57.16,1.33.21,1.95,0,.24-.13.34-.38.36a45.09,45.09,0,0,1-6.26.32c-4,0-6.07-1.3-6.07-4,0-2.33,1.54-3.87,4-5.42a32.49,32.49,0,0,1-1.09-5.12,9.16,9.16,0,0,0-.55-2.44A12.19,12.19,0,0,1,174.45,13.56Z"/><path d="M196.47,17.09a26.26,26.26,0,0,1-2.62,9.05c-.9,1.57-2,2.41-3.57,2.41-1.85,0-3.72-2-3.72-5.39a7.7,7.7,0,0,1,2.38-5.46A9.16,9.16,0,0,1,195.76,15c5,0,8,3.11,8,7.29,0,3.9-2.21,6.36-6.47,7.64-.44.12-.63,0-.9-.38a4.36,4.36,0,0,0-1.47-1.32c3.55-.84,6.34-2.31,6.34-6.28a4.77,4.77,0,0,0-4.7-4.87Zm-6,2A6,6,0,0,0,188.81,23c0,1.93.78,3,1.43,3s1-.27,1.57-1.28A23.86,23.86,0,0,0,194,17.21,6.35,6.35,0,0,0,190.45,19.13Z"/><path d="M219.8,12.79c.28-.13.32-.11.4.1A16.86,16.86,0,0,0,227,20.64a7,7,0,0,0-1.22,1.57c-.19.32-.27.46-.4.46s-.23-.1-.44-.27a16.45,16.45,0,0,1-2-1.7c0,.61,0,1.35-.06,2.08a42.17,42.17,0,0,1-.52,5.88c-.28,1.66-1.07,2.58-3.13,2.58-.53,0-.93,0-1.43,0-.65,0-.63,0-.78-.74a4.15,4.15,0,0,0-.65-1.68,15.32,15.32,0,0,0,2.4.19c.88,0,1.23-.33,1.4-1.3a34.34,34.34,0,0,0,.4-5.21h-3.74a10.15,10.15,0,0,1-6.38,8.91,1.52,1.52,0,0,1-.5.17c-.17,0-.23-.15-.44-.51a4.18,4.18,0,0,0-1.07-1.26c3.82-1.39,5.66-3.61,6.06-7.31h-.25c-2,0-2.64.05-2.77.05s-.23,0-.23-.23V20.74a22.67,22.67,0,0,1-2,1.75c-.23.16-.35.27-.46.27s-.23-.15-.44-.46A4.64,4.64,0,0,0,207.14,21a16.43,16.43,0,0,0,6.07-6.93,5.63,5.63,0,0,0,.42-1.35,15.12,15.12,0,0,1,2.19.74c.23.1.29.21.29.36a.41.41,0,0,1-.17.31,1.75,1.75,0,0,0-.48.67,19.09,19.09,0,0,1-3.84,5.57c.29,0,1,0,2.64,0h5.65c1.83,0,2.52,0,2.73,0a22.33,22.33,0,0,1-4.52-6.66c-.08-.23,0-.25.19-.36Z"/><path d="M235.91,18.14A9.5,9.5,0,0,0,239,20.53a4.56,4.56,0,0,0-.67,1.07c-.15.34-.24.51-.38.51s-.23-.11-.46-.3a10.32,10.32,0,0,1-2.29-2.56c0,1.68.08,2.1.08,2.31s0,.23-.23.23h-1.41c-.21,0-.23,0-.23-.23s.07-.59.09-2.1a11.4,11.4,0,0,1-2.75,2.75c-.23.17-.36.25-.49.25s-.23-.12-.35-.39a3.88,3.88,0,0,0-.76-1.16,11.24,11.24,0,0,0,3.63-2.77h-.42c-1.76,0-2.37,0-2.5,0s-.21,0-.21-.23V16.77c0-.21,0-.23.21-.23s.74.05,2.5.05h1V15a16.8,16.8,0,0,0-.15-2.54,18.06,18.06,0,0,1,2,.15c.23,0,.33.1.33.21a2.05,2.05,0,0,1-.14.5A7.72,7.72,0,0,0,235.3,15v1.6h.89c1.78,0,2.37-.05,2.49-.05s.23,0,.23.23V18c0,.21,0,.23-.23.23s-.71,0-2.49,0Zm-3.65,7.58c-1.79,0-2.37,0-2.5,0s-.23,0-.23-.23V24.21c0-.21,0-.23.23-.23s.71,0,2.5,0h1a7.8,7.8,0,0,0,0-1.81c.84.07,1.41.11,1.87.17.23,0,.36.13.36.25a.8.8,0,0,1-.11.34,3,3,0,0,0-.18,1.05h1c1.83,0,2.39,0,2.52,0s.25,0,.25.23v1.32c0,.21,0,.23-.25.23s-.69,0-2.52,0h-.52a6.5,6.5,0,0,0,3.12,2.69,4.58,4.58,0,0,0-1,1.07c-.21.31-.32.46-.46.46s-.26-.11-.49-.27a7.9,7.9,0,0,1-2.29-2.59,7.57,7.57,0,0,1-3.29,3.74,1,1,0,0,1-.44.19c-.15,0-.28-.13-.49-.46a4.32,4.32,0,0,0-1-1.09A5.83,5.83,0,0,0,233,25.72Zm-1.09-12.47c.21-.11.27-.09.42.08a11,11,0,0,1,1.15,1.95c.11.23.06.3-.21.42l-1,.47c-.26.12-.32.14-.4-.07a12,12,0,0,0-1.07-2c-.15-.21-.17-.27.12-.42Zm5.35.71a3.52,3.52,0,0,0,.3-.92,11.54,11.54,0,0,1,1.55.56c.17.07.23.17.23.26s0,.16-.19.29a1.42,1.42,0,0,0-.29.4,12.77,12.77,0,0,1-.72,1.3c-.16.27-.25.38-.37.38a.88.88,0,0,1-.4-.17,6.29,6.29,0,0,0-1-.42A10.69,10.69,0,0,0,236.52,14Zm6.22,14.55c.21.15.23.23.23.34s-.11.19-.25.25a2.37,2.37,0,0,0-.55.38,14.05,14.05,0,0,1-2.81,1.89,1.69,1.69,0,0,1-.55.21c-.19,0-.29-.15-.5-.51a4.79,4.79,0,0,0-.86-1.05,10.57,10.57,0,0,0,3.14-1.68,3.84,3.84,0,0,0,.72-.73A13.72,13.72,0,0,1,242.74,28.51Zm-.86-13.39c-1.87,0-2.5,0-2.63,0s-.23,0-.23-.23V13.39c0-.21,0-.23.23-.23s.76.05,2.63.05h3.9c1.89,0,2.52-.05,2.65-.05s.21,0,.21.23v1.54c0,.21,0,.23-.21.23s-.76,0-2.65,0h-1.05a17,17,0,0,1-.65,1.57h1c1.68,0,2.26,0,2.41,0s.23,0,.23.21,0,.86,0,2.45V24.9c0,1.6,0,2.31,0,2.41s0,.26-.23.26-.73-.05-2.41-.05h-2.8c-1.7,0-2.26.05-2.39.05s-.25,0-.25-.26,0-.81,0-2.41V19.4c0-1.68,0-2.39,0-2.54s0-.21.25-.21.65,0,2.1,0a13.44,13.44,0,0,0,.61-1.57Zm-.24,4.64h4V18.43h-4Zm4,3V21.33h-4v1.39Zm0,1.57h-4v1.49h4Zm-.57,3.49a.37.37,0,0,1,.27-.15.4.4,0,0,1,.21.1,10.91,10.91,0,0,0,3.47,2.08A4.86,4.86,0,0,0,248.2,31c-.19.36-.3.48-.47.48a1.16,1.16,0,0,1-.48-.19,12.12,12.12,0,0,1-3-2.29.26.26,0,0,1-.11-.21c0-.06,0-.14.17-.25Z"/><path d="M261.7,17.36c-2.56.49-4.81.93-7,1.39-.8.19-1,.23-1.33.33a1.07,1.07,0,0,1-.46.17.49.49,0,0,1-.4-.31,16.18,16.18,0,0,1-.78-2.27,28.51,28.51,0,0,0,3.34-.36c2.59-.38,7.2-1.07,12.62-1.78.32,0,.42.08.44.23a11.26,11.26,0,0,1,.23,1.85c0,.25-.12.31-.4.31a9.49,9.49,0,0,0-2.56.46c-3.57,1.22-5.35,3.68-5.35,6.2,0,2.71,1.93,4.18,5.58,4.41.34,0,.47.08.47.31a7.87,7.87,0,0,1-.23,1.81c-.07.31-.15.44-.4.44-3.7,0-7.75-2.12-7.75-6.49,0-3,1.49-5,4-6.66Zm4.16,2.27c.1-.08.19-.06.31,0a10,10,0,0,1,2,2.25.21.21,0,0,1-.07.33l-.88.66a.22.22,0,0,1-.36-.07,10.21,10.21,0,0,0-2.12-2.43Zm1.87-1.36c.12-.09.18-.07.31,0a8.65,8.65,0,0,1,2,2.16.25.25,0,0,1-.07.38l-.84.65a.21.21,0,0,1-.35-.06,9.84,9.84,0,0,0-2.1-2.42Z"/><path d="M286.69,19.42a6.92,6.92,0,0,0,0-1.43,9.41,9.41,0,0,1,2.43.9.4.4,0,0,1,.15.57,3.73,3.73,0,0,0-.34.82c-.16.88-.37,1.81-.58,2.71a24.09,24.09,0,0,1,3.27,2c.21.12.19.23.13.44a18.87,18.87,0,0,1-.9,1.8c-.07.11-.13.15-.19.15a.4.4,0,0,1-.26-.15,16.21,16.21,0,0,0-2.75-2,12.91,12.91,0,0,1-4.24,5.52c-.19.15-.29.23-.42.23a.53.53,0,0,1-.31-.15,4.36,4.36,0,0,0-1.83-.86,11.48,11.48,0,0,0,4.7-5.69,14.33,14.33,0,0,0-4.15-1.28,14.74,14.74,0,0,1-2.56,4.2,3.46,3.46,0,0,1-2.69,1.16c-1.22,0-2.5-.84-2.5-2.88,0-2.6,2.69-4.64,6.19-4.64.7-1.74,1.22-3.21,1.75-5l-2.9.34a4.09,4.09,0,0,0-.95.23,1.11,1.11,0,0,1-.37.08.34.34,0,0,1-.34-.23,12.72,12.72,0,0,1-.61-2.28,8.23,8.23,0,0,0,1.85.12,22.93,22.93,0,0,0,3.25-.27,2.44,2.44,0,0,0,1-.36.49.49,0,0,1,.27-.08.52.52,0,0,1,.3.08,7.4,7.4,0,0,1,1.43,1.16.52.52,0,0,1,.19.35c0,.13-.09.23-.21.36a2.78,2.78,0,0,0-.57,1.09c-.55,1.43-1.14,3.07-1.76,4.58a17.35,17.35,0,0,1,4.07,1.05A20.1,20.1,0,0,0,286.69,19.42ZM275.6,25.28c0,.67.23,1,.74,1a1.7,1.7,0,0,0,1.22-.79,14.68,14.68,0,0,0,1.53-2.57C277,23,275.6,24.08,275.6,25.28Z"/><path d="M301.47,21.16a6.36,6.36,0,0,1,3.34-.94,4.87,4.87,0,0,1,5.21,5c0,3.5-2.83,5.75-7.33,5.75-2.64,0-4.24-1.13-4.24-3.09a2.79,2.79,0,0,1,3-2.56,3.82,3.82,0,0,1,3.95,3.07,3.16,3.16,0,0,0,2.14-3.19,3.06,3.06,0,0,0-3.3-3.17,8.52,8.52,0,0,0-5.37,2.22c-.61.55-1.2,1.16-1.83,1.79-.14.14-.25.23-.35.23s-.19-.07-.32-.19a10,10,0,0,1-1.24-1.37c-.12-.16-.06-.31.11-.48a51.57,51.57,0,0,0,5-4.64c1.3-1.34,2.29-2.39,3.26-3.59-1.26.23-2.75.52-4.05.8a5.56,5.56,0,0,0-.89.25,1.51,1.51,0,0,1-.42.1.47.47,0,0,1-.46-.35,10.11,10.11,0,0,1-.73-2.27,10.59,10.59,0,0,0,1.95,0c1.28-.12,3.13-.4,4.77-.71a5.53,5.53,0,0,0,1.15-.32,1.12,1.12,0,0,1,.4-.16.75.75,0,0,1,.48.16A8.4,8.4,0,0,1,307,14.93a.71.71,0,0,1,.23.5.55.55,0,0,1-.36.5,3.53,3.53,0,0,0-.92.68c-1.53,1.49-2.94,3-4.54,4.49Zm0,6c-.61,0-1,.35-1,.79,0,.66.56,1.1,1.82,1.1a4.16,4.16,0,0,0,1-.09C303,27.8,302.38,27.15,301.5,27.15Z"/><path d="M327.55,22.55H314.79V21.33h12.76Z"/><path class="cls-3" d="M338.14,16.19v4h.38c1.07,0,1.32-.05,1.45-.05s.25,0,.25.24v.23A16.93,16.93,0,0,0,343,14.55a13.69,13.69,0,0,0,.36-2.23c.69.13,1.32.26,1.95.42.27.09.4.17.4.3a.41.41,0,0,1-.15.31,3.29,3.29,0,0,0-.42,1.05c-.15.55-.29,1.09-.46,1.64h3.13c1.95,0,2.62,0,2.75,0s.21,0,.21.23v1.51c0,.21,0,.23-.21.23s-.46,0-1.33,0a17.81,17.81,0,0,1-2.41,8,16,16,0,0,0,4.45,3.4,5.42,5.42,0,0,0-1.05,1.56c-.15.33-.23.48-.38.48a1.2,1.2,0,0,1-.5-.23,18.26,18.26,0,0,1-3.82-3.47,15.7,15.7,0,0,1-5,3.57,1.41,1.41,0,0,1-.46.19c-.15,0-.25-.15-.44-.48a5.1,5.1,0,0,0-1-1.28,13.58,13.58,0,0,0,5.65-3.82,17.71,17.71,0,0,1-1.87-4.81c-.21.36-.44.67-.67,1s-.32.4-.42.4-.17-.11-.32-.32a8.87,8.87,0,0,0-.71-.9v.65c0,.21,0,.23-.25.23s-.38,0-1.45,0h-.38v4.43c1-.32,2.06-.67,3.19-1.12,0,.51-.06.93-.06,1.41,0,.65,0,.65-.61.88-2.52.93-5,1.64-7.24,2.23a3.15,3.15,0,0,0-.8.31.66.66,0,0,1-.38.17c-.15,0-.23-.1-.31-.27a18,18,0,0,1-.63-2.06,8.34,8.34,0,0,0,1.28-.17v-6.4a9.74,9.74,0,0,0-.13-2c.78,0,1.51.06,2.1.12.19,0,.27.11.27.21a.77.77,0,0,1-.12.36,3.84,3.84,0,0,0-.09,1.28v6l1.41-.35V16.19h-1.49c-1.76,0-2.37,0-2.5,0s-.21,0-.21-.23V14.42c0-.21,0-.23.21-.23s.74,0,2.5,0h4c1.78,0,2.39,0,2.52,0s.23,0,.23.23V16c0,.21,0,.23-.23.23s-.74,0-2.52,0Zm5.8,1.74q-.1.29-.24.57A17.45,17.45,0,0,0,345.45,24,15.93,15.93,0,0,0,347,17.93Z"/><path class="cls-3" d="M354.73,18.16c.17-.21.25-.21.44-.11a16.67,16.67,0,0,1,2.94,2.13c.09.06.13.12.13.16s0,.13-.13.26l-.92,1.26c-.19.25-.25.29-.42.12a14.76,14.76,0,0,0-2.94-2.27c-.09-.06-.15-.1-.15-.16s.06-.13.15-.24Zm.11,10.46a34.9,34.9,0,0,0,2.05-5,10.77,10.77,0,0,0,1.22,1.07c.32.23.44.31.44.5a2.68,2.68,0,0,1-.12.51,37.71,37.71,0,0,1-1.93,4.7,3.36,3.36,0,0,0-.32.8c0,.16-.13.27-.27.27a.75.75,0,0,1-.38-.13,10.85,10.85,0,0,1-1.7-1.15A9.62,9.62,0,0,0,354.84,28.62Zm.77-15.73c.17-.23.23-.23.42-.13A19.29,19.29,0,0,1,359,15c.17.15.15.17,0,.42l-.9,1.24c-.21.23-.25.25-.42.1a15.44,15.44,0,0,0-2.92-2.35c-.19-.12-.15-.14,0-.38Zm12.71,2.27c.21-.17.23-.17.4,0a27.7,27.7,0,0,1,4.09,5.23c.1.18.13.23-.13.42l-1.24.88a.68.68,0,0,1-.27.14c-.06,0-.1-.06-.17-.16-.27-.53-.56-1-.86-1.52-3.31.38-6.3.72-9.76,1a2.17,2.17,0,0,0-.9.17.79.79,0,0,1-.36.12c-.13,0-.19-.12-.25-.31a16.16,16.16,0,0,1-.4-2.12,20,20,0,0,0,2.2,0h.13A41.22,41.22,0,0,0,363,13.75a6.46,6.46,0,0,0,.32-1.45,16.84,16.84,0,0,1,2.31.46c.21.07.4.19.4.34a.57.57,0,0,1-.24.4,3.24,3.24,0,0,0-.56,1c-.72,1.62-1.33,3-2.06,4.37,2-.14,3.93-.31,5.75-.5a18.19,18.19,0,0,0-1.74-2c-.15-.16-.15-.19.11-.37Zm-7.84,16.35c-.21,0-.23,0-.23-.23s.05-.69.05-3.82V25.57c0-1.91-.05-2.52-.05-2.64s0-.23.23-.23.82,0,2.73,0h4.9c1.91,0,2.56,0,2.68,0s.23,0,.23.23,0,.73,0,2.31v2.14c0,3.08,0,3.67,0,3.8s0,.23-.23.23H369c-.23,0-.25,0-.25-.23v-.8H362.5v.9c0,.21,0,.23-.23.23Zm2-3.06h6.26V24.67H362.5Z"/><circle class="cls-4" cx="54.61" cy="72.03" r="52.46"/><rect class="cls-5" x="59.27" y="53.34" width="7.37" height="1.24"/><rect class="cls-5" x="42.57" y="53.34" width="7.37" height="1.24"/><path class="cls-5" d="M37.48,56.52c.6,3,5,4.7,8.77,4.7a7.25,7.25,0,0,0,4.69-1.72,5.65,5.65,0,0,1,7.33,0A7.27,7.27,0,0,0,63,61.22c3.79,0,8.18-1.73,8.77-4.7a2,2,0,0,0-2-2.56,2,2,0,0,0,2-2.56c-.59-3-5-4.7-8.77-4.7a7.27,7.27,0,0,0-4.69,1.72,5.65,5.65,0,0,1-7.33,0,7.25,7.25,0,0,0-4.69-1.72c-3.79,0-8.17,1.73-8.77,4.7a2.05,2.05,0,0,0,2,2.56A2.05,2.05,0,0,0,37.48,56.52ZM63,48.85A5.11,5.11,0,1,1,57.85,54,5.1,5.1,0,0,1,63,48.85Zm-16.71,0A5.11,5.11,0,1,1,41.15,54,5.11,5.11,0,0,1,46.25,48.85Z"/><path class="cls-5" d="M54.61,90.74a67.56,67.56,0,0,1-17.83-2.45c-.78,1.5-.77,2.43,0,3.14l1.17.31c.12,4.32,3,7.9,5.42,10.53h7.87c0-3.57.49-6.79,1.74-8.86l1.63,0,1.62,0c1.26,2.07,1.69,5.29,1.75,8.86h7.87c2.42-2.63,5.29-6.21,5.41-10.53l1.17-.31c.77-.71.79-1.64,0-3.14A67.53,67.53,0,0,1,54.61,90.74Z"/><path class="cls-5" d="M46.7,45.11A8.9,8.9,0,0,1,52,47.2a4.08,4.08,0,0,0,5.26,0,8.84,8.84,0,0,1,5.27-2.09,1.25,1.25,0,0,0,.75-.58c.5-.93-.49-2.43-2.21-3.35a5.2,5.2,0,0,0-2.69-.68,1.4,1.4,0,0,0,.52-.41c.64-.84.25-2.22-.89-3.09s-2.56-.88-3.21,0a1.59,1.59,0,0,0-.17.31,2.48,2.48,0,0,0-.18-.31c-.64-.84-2.08-.82-3.21,0s-1.53,2.25-.89,3.09a1.48,1.48,0,0,0,.52.41,5.19,5.19,0,0,0-2.68.68c-1.73.92-2.72,2.42-2.22,3.35A1.28,1.28,0,0,0,46.7,45.11Z"/><path class="cls-5" d="M54.61,60.16a4.26,4.26,0,0,0-2.69,1,9.27,9.27,0,0,1-5.85,2.06c-.45,0-.9,0-1.36-.06a15.14,15.14,0,0,0,19.79,0c-.46,0-.91.06-1.36.06a9.29,9.29,0,0,1-5.85-2.06A4.26,4.26,0,0,0,54.61,60.16Z"/><path class="cls-5" d="M78.27,79.9C83.23,76.06,81,68,81,68a61.62,61.62,0,0,1-12.83-4.86,20,20,0,0,1-27.15,0A61.74,61.74,0,0,1,28.21,68s-2.23,8,2.73,11.89c-.74.29-1.23.77-1.23,1.31,0,.9,1.32,1.62,2.95,1.62s2.94-.71,2.94-1.49-.4-1.21-.4-2.38a3.85,3.85,0,0,1,3.63-4,3.85,3.85,0,0,1,3.64,4c0,2.69-2.45,5.75-6.41,8a90.69,90.69,0,0,0,18.55,2,90.66,90.66,0,0,0,18.54-2c-4-2.22-6.4-5.28-6.4-8A3.64,3.64,0,1,1,74,79c0,1.17-.39,1.61-.39,2.38s1.39,1.49,2.93,1.49,3-.72,3-1.62C79.5,80.67,79,80.19,78.27,79.9ZM47.39,75.32A2.49,2.49,0,1,1,50,72.83,2.54,2.54,0,0,1,47.39,75.32Zm7.22,3.45a1.91,1.91,0,1,1,2-1.91A2,2,0,0,1,54.61,78.77Zm7.21-3.45a2.49,2.49,0,1,1,2.6-2.49A2.55,2.55,0,0,1,61.82,75.32Z"/><path class="cls-5" d="M50.93,103.46H41.19a1.92,1.92,0,0,0,0,3.84h9.74a1.92,1.92,0,0,0,0-3.84Z"/><path class="cls-5" d="M68,103.46H58.28a1.92,1.92,0,0,0,0,3.84H68a1.92,1.92,0,0,0,0-3.84Z"/></g></g></svg>