<svg xmlns="http://www.w3.org/2000/svg" viewBox="0 0 402.07 126.64"><defs><style>.cls-1,.cls-2,.cls-3{fill:#fff;stroke:#000;stroke-miterlimit:10;}.cls-1{stroke-width:4.21px;}.cls-2{stroke-width:4.3px;}.cls-3{stroke-width:4.3px;}.cls-4{fill:#d43a52;}.cls-5{fill:#040000;}</style></defs><title>アセット 226</title><g id="レイヤー_2" data-name="レイヤー 2"><g id="レイヤー_1-2" data-name="レイヤー 1"><polygon class="cls-1" points="399.92 40.55 41.62 40.55 60.35 2.11 399.92 2.11 399.92 40.55"/><rect class="cls-2" x="53.07" y="40.54" width="346.85" height="69.43"/><circle class="cls-3" cx="54.61" cy="72.03" r="52.46"/><path d="M209,79c0,.48-.48.55-1.57.55-1.43,0-1.8-.1-1.8-.44v-.07c0-.55,0-1.26,0-2-.47,0-1.32,0-2,0s-1.63,0-2.1.07c0,1.46,0,2.78.07,3.67,0,.58-.11.58-1.77.58-1.4,0-1.77,0-1.77-.45v-.17c.24-3.12.31-8.87.31-11.11V67.79c0-2,0-3.8-.17-5.91,0-.1,0-.2,0-.27s.07-.17.31-.17h.2c1.36.1,3.23.17,5,.17s2.62-.07,4.83-.17h.1c.24,0,.34.1.34.34v.1c-.13,1.67-.17,3.26-.17,4.83,0,6.59.07,9.72.21,12.1Zm15.77-18.15c-.24,2.69-.27,7.51-.27,10.85,0,1.66,0,9.24.27,13.7,0,.2,0,.44,0,.67,0,1.81-.72,4-5.82,4-.2,0-.41-.17-.51-.51-.2-.78-1.53-2.1-2.31-3.09a.42.42,0,0,1-.1-.24s0-.1.17-.1a1.39,1.39,0,0,0,.17,0,18.29,18.29,0,0,0,3.09.41c1.16,0,1.77-.37,1.77-1.39,0-2.28,0-4.83,0-6.9-1,0-2.75-.07-3.5-.07s-2.48,0-3.36.07c-1.26,4.79-4.36,9.45-11.6,11.83a.67.67,0,0,1-.27.07.42.42,0,0,1-.3-.14,12.93,12.93,0,0,0-3.13-2.28c-.24-.13-.34-.24-.34-.3s.17-.11.34-.14C209.51,85.92,212,78.4,212,71.4c0-8-.06-8.74-.34-10.54a1.2,1.2,0,0,1,0-.31c0-.13.07-.17.31-.17h.23c2.08.11,4.15.17,6,.21s3.84-.07,6.15-.21h.11c.23,0,.3.11.3.34ZM205.7,64.19s-.92-.07-2.08-.07l-2.1.07s0,1.6,0,3.47l2.14,0,2.11,0C205.7,66,205.7,64.19,205.7,64.19Zm-4.22,10.17,2.14,0,2.08,0c0-1.64,0-2.93,0-4-.51,0-1.39-.07-2.11-.07s-1.66,0-2.14.07Zm19.82-3.57c-.91,0-2.41-.07-3.16-.07l-2.89,0v.89a35.59,35.59,0,0,1-.27,3.74c1,0,2.21,0,2.79,0s2.51,0,3.53-.07Zm0-7.48s-1.94,0-3.13,0-2.85,0-2.85,0c0,.71.06,1.56.06,2.51,0,.65,0,1.36,0,2.08,1,0,2.24,0,2.82,0s2.21,0,3.13-.07Z"/><path d="M259.35,74.56a.82.82,0,0,1-.3-.07c-1.87-.64-5-1.39-5.48-1.53-.24-.07-.37-.07-.37-.3a8.3,8.3,0,0,1,.68-2.35c0-.1.07-.24.44-.24a31.45,31.45,0,0,1,5.75,1c.2.07.3.17.3.37a17,17,0,0,1-.64,2.86A.39.39,0,0,1,259.35,74.56Zm1.4,3.84c.06,0,.13.07.2.17a13.38,13.38,0,0,0,1.63,2,.27.27,0,0,1,.14.24,1,1,0,0,1-.07.24c-1.46,2.68-3.16,5-3.91,6.15-.61,1-.65,1.7-1.19,1.7s-3.77-1.43-3.77-2.11a.39.39,0,0,1,.13-.23,45.55,45.55,0,0,0,6.7-8.06C260.64,78.44,260.71,78.4,260.75,78.4Zm.3-11.69a54.29,54.29,0,0,0-4.79-3c-.17-.1-.27-.17-.27-.34s1.15-2.24,1.63-2.24,5.57,2.31,5.57,3a.55.55,0,0,1-.07.24c-.4,1-1.39,2.48-1.69,2.48A.64.64,0,0,1,261.05,66.71Zm8.53-5.78c0-.1,0-.17,0-.24s.07-.2.27-.2c.61,0,4.56.88,4.56,1.66,0,.24-.31.51-.65.85a2.94,2.94,0,0,0-.68,1.12c-.61,1.53-1.7,4.18-2.82,6.56,2.55-.2,5.2-.47,7.34-.71-1.15-1.22-2.17-2.07-2.48-2.35a.4.4,0,0,1-.1-.23.49.49,0,0,1,.17-.31A5.71,5.71,0,0,1,277,65.82a.58.58,0,0,1,.31.11c4.35,2.89,6.79,6,6.79,6.35a.66.66,0,0,1-.23.41,19.58,19.58,0,0,1-2.45,1.8.69.69,0,0,1-.24.07c-.13,0-.24-.1-.37-.31-.41-.68-.85-1.36-1.29-2-4.36.68-14.22,2.11-14.76,2.24s-.78.41-1.09.41c-.61,0-2-3.19-2-3.5s.1-.17.27-.17c1.23,0,3-.07,4.87-.24,1.32-3.6,2.71-8.23,2.71-10Zm6.94,27.74c0-.41,0-.85,0-1.26-.88,0-2.89-.13-3.91-.13s-3.09.1-3.94.13l.07,1.33v.13c0,.48-.21.55-1.87.55-1.4,0-1.8-.07-1.8-.58v-.17c.27-2.35.34-5.41.34-6.49v-.79c0-1.66-.11-3-.21-4.42,0-.13,0-.2,0-.27s0-.17.24-.17.17,0,.3,0c1.57.1,4.49.2,6.8.2s4.66-.14,7.07-.24h.11c.27,0,.37.14.37.34V77c-.2,2.35-.24,4.29-.24,5.41s.07,3.64.27,6.05c0,.1,0,.2,0,.31,0,.4-.24.54-2.11.54-1.26,0-1.53-.14-1.53-.54Zm-7.89-4c.89,0,3,.07,3.95.07s3.23-.07,4.08-.07c0-1.26,0-2.28,0-2.69,0-.92-.1-2.62-.1-2.62s-2.52-.1-4-.1-3.85.1-3.85.1-.1,1.5-.1,2.72Z"/><path d="M117.81,17.36c-2.56.48-4.81.93-7,1.39-.8.19-1,.23-1.33.33a1.07,1.07,0,0,1-.46.17.51.51,0,0,1-.4-.31,15.11,15.11,0,0,1-.77-2.27,28.59,28.59,0,0,0,3.33-.36c2.59-.38,7.21-1.07,12.62-1.78.32,0,.42.08.44.23a11.26,11.26,0,0,1,.23,1.85c0,.25-.12.31-.39.31a9.49,9.49,0,0,0-2.57.46c-3.57,1.22-5.35,3.68-5.35,6.2,0,2.7,1.93,4.17,5.58,4.41.34,0,.47.08.47.31a7.87,7.87,0,0,1-.23,1.81c-.07.31-.15.44-.4.44-3.7,0-7.75-2.12-7.75-6.49,0-3,1.49-5,4-6.66ZM122,19.63c.1-.09.19-.06.31,0a9.54,9.54,0,0,1,2,2.25.21.21,0,0,1-.07.33l-.88.65a.21.21,0,0,1-.35-.06,10.48,10.48,0,0,0-2.13-2.43Zm1.87-1.37c.12-.08.19-.06.31,0a8.65,8.65,0,0,1,2,2.16.25.25,0,0,1-.07.38l-.84.65a.21.21,0,0,1-.35-.07,10,10,0,0,0-2.1-2.41Z"/><path d="M134.8,14.65a5.54,5.54,0,0,0-.73-1.34,14.54,14.54,0,0,1,2.54-.23c.29,0,.46.17.46.38s0,.27,0,.39a4.13,4.13,0,0,0,.08.64c.15.54.21.73.34,1.09a32.67,32.67,0,0,0,4.28-1.12c.19-.08.29-.06.36.11.12.4.27,1,.35,1.41a.31.31,0,0,1-.25.37c-1.41.44-2.69.76-4.11,1.07.18.53.46,1.18.73,1.77a26.07,26.07,0,0,0,3.82-1.09c.21-.11.32-.07.38.12a8.41,8.41,0,0,1,.38,1.39c0,.19,0,.29-.17.38a26.7,26.7,0,0,1-3.55,1,15.53,15.53,0,0,0,2.75,3.64c.21.19.21.27.11.5a6.37,6.37,0,0,1-.86,1.3c-.13.15-.21.21-.34.21a.56.56,0,0,1-.29-.12,5.57,5.57,0,0,0-1.24-.68,10.27,10.27,0,0,0-4-.67c-2,0-3.13.61-3.13,1.6,0,1.36,1.79,1.8,5,1.8.78,0,1.55-.08,2.31-.12.21,0,.27.1.25.27a12.91,12.91,0,0,1-.42,1.91c-.06.21-.15.3-.44.32-.48,0-1,.06-1.51.06-4.83,0-7.39-1.36-7.39-4,0-2.24,1.93-3.65,5.2-3.65a9.91,9.91,0,0,1,3.62.52,23.14,23.14,0,0,1-1.75-2.47,52.84,52.84,0,0,1-5.75.63.34.34,0,0,1-.38-.3,12.06,12.06,0,0,1-.38-1.72,37,37,0,0,0,5.65-.52c-.21-.45-.52-1.16-.8-1.75a35.3,35.3,0,0,1-5.1.51c-.25,0-.38-.09-.42-.3s-.21-1-.33-1.68A37.05,37.05,0,0,0,135.3,16C135.14,15.53,135,15.18,134.8,14.65Z"/><path d="M151,24c.19.1.21.21.11.38a3.37,3.37,0,0,0-.55,1.59c0,1.32,1.37,2,5,2a27.29,27.29,0,0,0,5.69-.6c.29-.07.4,0,.44.18A18.53,18.53,0,0,1,162,29.6c0,.19-.1.27-.35.32a34,34,0,0,1-6.15.5c-4.85,0-7.23-1.51-7.23-4.24a5.54,5.54,0,0,1,1.12-3C149.92,23.45,150.45,23.72,151,24Zm4.75-8.23c1.53,0,3-.09,4.36-.19.21,0,.3.06.32.23a12.61,12.61,0,0,1,.19,1.78c0,.3-.11.42-.36.44a12.34,12.34,0,0,0-5.14,2.08.88.88,0,0,1-.53.19.94.94,0,0,1-.44-.12,4.89,4.89,0,0,0-1.47-.68c1.09-.71,2-1.3,2.75-1.74a13.39,13.39,0,0,1-1.53.06,25.05,25.05,0,0,1-3.86-.35c-.19,0-.28-.13-.28-.38,0-.5.05-1.11.09-1.87A26.3,26.3,0,0,0,155.74,15.79Zm5.71-2.33c.1-.09.19-.07.31,0a9.54,9.54,0,0,1,2,2.25.21.21,0,0,1-.07.33l-.88.65a.21.21,0,0,1-.35-.06,10.74,10.74,0,0,0-2.12-2.44Zm1.87-1.37c.12-.08.19-.06.31,0a8.86,8.86,0,0,1,2,2.17.24.24,0,0,1-.07.37l-.84.66a.21.21,0,0,1-.35-.07,10,10,0,0,0-2.1-2.41Z"/><path d="M174.91,13.56c.25.06.38.17.38.34s-.15.59-.15.88.06.92.11,1.41a30.23,30.23,0,0,0,.67,3.61l3-1.6a5.29,5.29,0,0,0,1.45-1.13,10.71,10.71,0,0,1,1.53,2,.8.8,0,0,1,.15.44c0,.21-.13.38-.42.42a10.61,10.61,0,0,0-2,.63A29.44,29.44,0,0,0,174.66,23c-1.83,1.19-2.48,2.18-2.48,3.17,0,1.24.92,1.76,3.34,1.76a37,37,0,0,0,6.4-.48c.23,0,.34,0,.38.25a16.87,16.87,0,0,1,.21,1.95c0,.23-.12.34-.38.36a45,45,0,0,1-6.25.32c-4,0-6.07-1.31-6.07-4,0-2.33,1.53-3.86,4-5.41a31.4,31.4,0,0,1-1.09-5.12,9.57,9.57,0,0,0-.55-2.44A12.1,12.1,0,0,1,174.91,13.56Z"/><path d="M196.94,17.09a26.25,26.25,0,0,1-2.63,9.05c-.9,1.57-2,2.41-3.56,2.41-1.85,0-3.72-2-3.72-5.39a7.73,7.73,0,0,1,2.37-5.46A9.17,9.17,0,0,1,196.23,15c5,0,8,3.11,8,7.29,0,3.9-2.2,6.36-6.46,7.64-.44.12-.63,0-.91-.38a4.4,4.4,0,0,0-1.46-1.32c3.54-.84,6.34-2.31,6.34-6.28A4.77,4.77,0,0,0,197,17.09Zm-6,2A6.11,6.11,0,0,0,189.28,23c0,1.93.77,3,1.42,3s1-.27,1.58-1.28a23.87,23.87,0,0,0,2.22-7.52A6.43,6.43,0,0,0,190.91,19.12Z"/><path d="M220.27,12.78c.27-.12.31-.1.4.11a16.84,16.84,0,0,0,6.8,7.75,7,7,0,0,0-1.22,1.57c-.19.32-.27.46-.4.46s-.23-.1-.44-.27a17.14,17.14,0,0,1-2-1.7c0,.61,0,1.34-.06,2.08a42.39,42.39,0,0,1-.53,5.88c-.27,1.66-1.07,2.58-3.13,2.58-.52,0-.92,0-1.42,0-.66,0-.63,0-.78-.74a4.46,4.46,0,0,0-.65-1.68,15.29,15.29,0,0,0,2.39.19c.88,0,1.24-.33,1.41-1.3a35.71,35.71,0,0,0,.4-5.21h-3.74a10.18,10.18,0,0,1-6.38,8.91,1.42,1.42,0,0,1-.51.16c-.17,0-.23-.14-.44-.5a3.92,3.92,0,0,0-1.07-1.26c3.82-1.39,5.67-3.61,6.07-7.31h-.25c-2,0-2.65,0-2.77,0s-.24,0-.24-.23V20.74a22.21,22.21,0,0,1-2,1.74c-.23.17-.36.28-.46.28s-.23-.15-.44-.46A4.84,4.84,0,0,0,207.61,21a16.42,16.42,0,0,0,6.07-6.92,6.12,6.12,0,0,0,.42-1.35,15.39,15.39,0,0,1,2.18.74c.23.1.29.21.29.35a.45.45,0,0,1-.16.32,1.77,1.77,0,0,0-.49.67,18.9,18.9,0,0,1-3.84,5.56c.3,0,1,.05,2.65.05h5.64c1.83,0,2.52,0,2.73-.05a22.13,22.13,0,0,1-4.51-6.65c-.08-.23,0-.25.19-.36Z"/><path d="M236.38,18.14a9.57,9.57,0,0,0,3.06,2.39,4.68,4.68,0,0,0-.67,1.07c-.15.34-.23.51-.38.51s-.23-.11-.46-.3a10.71,10.71,0,0,1-2.29-2.56c0,1.68.09,2.1.09,2.31s0,.23-.23.23h-1.41c-.21,0-.23,0-.23-.23s.06-.59.08-2.1a11.4,11.4,0,0,1-2.75,2.75c-.23.17-.36.25-.48.25s-.23-.12-.36-.4a3.94,3.94,0,0,0-.75-1.15,11.35,11.35,0,0,0,3.63-2.77h-.42c-1.77,0-2.37,0-2.5,0s-.21,0-.21-.23V16.77c0-.21,0-.23.21-.23s.73,0,2.5,0h1V15a16.8,16.8,0,0,0-.15-2.54c.76,0,1.26.06,2,.14.23,0,.34.11.34.22a2.21,2.21,0,0,1-.15.5,8.87,8.87,0,0,0-.08,1.68v1.59h.88c1.79,0,2.37,0,2.5,0s.23,0,.23.23V18c0,.21,0,.23-.23.23s-.71,0-2.5,0Zm-3.66,7.58c-1.78,0-2.37,0-2.49,0s-.23,0-.23-.23V24.21c0-.21,0-.23.23-.23s.71,0,2.49,0h1a9.09,9.09,0,0,0,0-1.81c.84.06,1.41.11,1.87.17.23,0,.35.12.35.25a1,1,0,0,1-.1.34A2.74,2.74,0,0,0,235.6,24h1c1.82,0,2.39,0,2.52,0s.25,0,.25.23v1.32c0,.21,0,.23-.25.23s-.7,0-2.52,0H236a6.57,6.57,0,0,0,3.13,2.69,4.66,4.66,0,0,0-1,1.07c-.21.31-.31.46-.46.46s-.25-.11-.48-.27A7.9,7.9,0,0,1,235,27.08a7.55,7.55,0,0,1-3.3,3.74.93.93,0,0,1-.44.19c-.14,0-.27-.13-.48-.46a4.36,4.36,0,0,0-1-1.09,5.84,5.84,0,0,0,3.7-3.74Zm-1.09-12.47c.21-.11.28-.09.42.08a11.67,11.67,0,0,1,1.16,1.95c.1.23.06.3-.21.42l-1,.47c-.25.12-.31.14-.4-.07a10.67,10.67,0,0,0-1.07-2c-.15-.21-.17-.28.13-.42ZM237,14a3.48,3.48,0,0,0,.29-.92,9.56,9.56,0,0,1,1.55.56c.17.07.24.17.24.25s0,.17-.19.3a1.44,1.44,0,0,0-.3.4,14.76,14.76,0,0,1-.71,1.3c-.17.27-.25.38-.38.38a.92.92,0,0,1-.4-.17,5.94,5.94,0,0,0-1-.42A10.79,10.79,0,0,0,237,14Zm6.21,14.55c.21.15.23.23.23.34s-.1.19-.25.25a2.37,2.37,0,0,0-.55.38,14.19,14.19,0,0,1-2.81,1.89,1.66,1.66,0,0,1-.54.21c-.19,0-.3-.15-.51-.51a4.52,4.52,0,0,0-.86-1.05,10.88,10.88,0,0,0,3.15-1.68,4.12,4.12,0,0,0,.71-.73A13.72,13.72,0,0,1,243.2,28.51Zm-.86-13.4c-1.87,0-2.5.05-2.62.05s-.23,0-.23-.23V13.39c0-.21,0-.23.23-.23s.75,0,2.62,0h3.91c1.89,0,2.52,0,2.64,0s.21,0,.21.23v1.54c0,.21,0,.23-.21.23s-.75-.05-2.64-.05H245.2a16.11,16.11,0,0,1-.65,1.58h1c1.68,0,2.27,0,2.42,0s.23,0,.23.21,0,.86,0,2.45V24.9c0,1.6,0,2.31,0,2.41s0,.26-.23.26-.74-.05-2.42-.05h-2.79c-1.7,0-2.27.05-2.39.05s-.26,0-.26-.26,0-.81,0-2.41V19.4c0-1.68,0-2.4,0-2.54s0-.21.26-.21.65,0,2.1,0a11.46,11.46,0,0,0,.6-1.58Zm-.23,4.64h4V18.43h-4Zm4,3V21.33h-4v1.39Zm0,1.57h-4v1.49h4Zm-.57,3.49a.39.39,0,0,1,.28-.15.43.43,0,0,1,.21.1,10.86,10.86,0,0,0,3.46,2.08,4.93,4.93,0,0,0-.86,1.18c-.19.35-.29.48-.46.48a1.11,1.11,0,0,1-.48-.19A12,12,0,0,1,244.67,29a.27.27,0,0,1-.1-.21c0-.06,0-.14.16-.25Z"/><path d="M262.17,17.36c-2.57.48-4.81.93-7.06,1.39-.8.19-1,.23-1.32.33a1.17,1.17,0,0,1-.46.17.49.49,0,0,1-.4-.31,13.94,13.94,0,0,1-.78-2.27,29,29,0,0,0,3.34-.36c2.58-.38,7.2-1.07,12.62-1.78.31,0,.42.08.44.23a12.46,12.46,0,0,1,.23,1.85c0,.25-.13.31-.4.31a9.35,9.35,0,0,0-2.56.46c-3.57,1.22-5.36,3.68-5.36,6.2,0,2.7,1.94,4.17,5.59,4.41.34,0,.46.08.46.31a7.36,7.36,0,0,1-.23,1.81c-.06.31-.15.44-.4.44-3.69,0-7.75-2.12-7.75-6.49,0-3,1.49-5,4-6.66Zm4.15,2.27c.11-.09.19-.06.32,0a9.52,9.52,0,0,1,2,2.25.2.2,0,0,1-.06.33l-.88.65c-.15.11-.25.09-.36-.06a10.44,10.44,0,0,0-2.12-2.43Zm1.87-1.37c.13-.08.19-.06.32,0a8.61,8.61,0,0,1,2,2.16.25.25,0,0,1-.06.38l-.84.65a.22.22,0,0,1-.36-.07,10,10,0,0,0-2.1-2.41Z"/><path d="M287.15,19.42a5.76,5.76,0,0,0,0-1.43,9,9,0,0,1,2.44.9.4.4,0,0,1,.15.57,3.15,3.15,0,0,0-.34.82c-.17.88-.38,1.8-.59,2.71a25.35,25.35,0,0,1,3.28,2c.21.13.19.24.12.44a18,18,0,0,1-.9,1.81c-.06.11-.13.15-.19.15a.42.42,0,0,1-.25-.15,16.21,16.21,0,0,0-2.75-2,13,13,0,0,1-4.24,5.52c-.19.15-.3.23-.42.23a.55.55,0,0,1-.32-.15A4.32,4.32,0,0,0,281.3,30a11.59,11.59,0,0,0,4.7-5.69,14.1,14.1,0,0,0-4.16-1.28,14.51,14.51,0,0,1-2.56,4.2,3.46,3.46,0,0,1-2.69,1.16c-1.21,0-2.49-.84-2.49-2.88,0-2.61,2.68-4.64,6.19-4.64.69-1.74,1.22-3.21,1.74-5l-2.9.34a4.13,4.13,0,0,0-.94.23,1.17,1.17,0,0,1-.38.08.32.32,0,0,1-.33-.23,12.64,12.64,0,0,1-.61-2.29,7.61,7.61,0,0,0,1.84.13A23.18,23.18,0,0,0,282,13.9a2.55,2.55,0,0,0,1-.36.53.53,0,0,1,.56,0A6.74,6.74,0,0,1,285,14.69a.51.51,0,0,1,.19.36c0,.13-.08.23-.21.36a2.91,2.91,0,0,0-.57,1.09c-.54,1.43-1.13,3.07-1.76,4.58a17.35,17.35,0,0,1,4.07,1.05A20.36,20.36,0,0,0,287.15,19.42Zm-11.08,5.86c0,.67.23,1,.73,1a1.69,1.69,0,0,0,1.22-.8,13.62,13.62,0,0,0,1.53-2.56C277.41,23,276.07,24.08,276.07,25.28Z"/><path d="M301.94,21.16a6.33,6.33,0,0,1,3.34-.94,4.88,4.88,0,0,1,5.21,5c0,3.5-2.84,5.75-7.33,5.75-2.65,0-4.24-1.14-4.24-3.09a2.79,2.79,0,0,1,3-2.56,3.81,3.81,0,0,1,3.94,3.07A3.18,3.18,0,0,0,308,25.24a3.07,3.07,0,0,0-3.3-3.18,8.59,8.59,0,0,0-5.38,2.23c-.6.55-1.19,1.15-1.82,1.79-.15.14-.25.23-.36.23a.54.54,0,0,1-.31-.19,9.36,9.36,0,0,1-1.24-1.37c-.13-.17-.07-.31.1-.48a50.43,50.43,0,0,0,5-4.64c1.3-1.34,2.29-2.39,3.25-3.59-1.26.23-2.75.52-4.05.8a5.46,5.46,0,0,0-.88.25,1.7,1.7,0,0,1-.42.1.47.47,0,0,1-.46-.35,10.53,10.53,0,0,1-.74-2.27,10.59,10.59,0,0,0,2,0c1.29-.12,3.13-.4,4.77-.71a5.48,5.48,0,0,0,1.16-.32,1.11,1.11,0,0,1,.39-.17.81.81,0,0,1,.49.17,7.93,7.93,0,0,1,1.4,1.35.71.71,0,0,1,.24.5.55.55,0,0,1-.36.5,3.4,3.4,0,0,0-.93.68c-1.53,1.49-2.93,3-4.53,4.49Zm0,6c-.61,0-1,.35-1,.79,0,.65.57,1.1,1.83,1.1a4.85,4.85,0,0,0,1-.09C303.47,27.8,302.84,27.15,302,27.15Z"/><path d="M328,22.55H315.25V21.33H328Z"/><path class="cls-4" d="M338.61,16.19v4H339c1.08,0,1.33,0,1.45,0s.25,0,.25.23v.23a16.82,16.82,0,0,0,2.73-6,11.77,11.77,0,0,0,.36-2.23c.69.13,1.32.25,2,.42.28.09.4.17.4.3a.44.44,0,0,1-.14.31,3.07,3.07,0,0,0-.42,1.05c-.15.55-.3,1.09-.47,1.64h3.13c2,0,2.63,0,2.75,0s.21,0,.21.23v1.51c0,.21,0,.23-.21.23s-.46,0-1.32,0a17.81,17.81,0,0,1-2.41,8,15.74,15.74,0,0,0,4.45,3.4,5.51,5.51,0,0,0-1.05,1.55c-.15.34-.23.49-.38.49a1.15,1.15,0,0,1-.5-.23,18.35,18.35,0,0,1-3.83-3.47,15.8,15.8,0,0,1-5,3.57,1.5,1.5,0,0,1-.46.19c-.15,0-.26-.15-.44-.48a5.58,5.58,0,0,0-1-1.28,13.54,13.54,0,0,0,5.64-3.82,17.69,17.69,0,0,1-1.86-4.81c-.21.35-.45.67-.68,1s-.31.4-.42.4-.16-.1-.31-.31a8.81,8.81,0,0,0-.72-.9v.65c0,.21,0,.23-.25.23s-.37,0-1.45,0h-.37v4.43c1-.32,2.05-.68,3.19-1.12,0,.51-.07.93-.07,1.41,0,.65,0,.65-.6.88-2.52.93-5,1.64-7.25,2.23a3.32,3.32,0,0,0-.8.31.63.63,0,0,1-.37.17c-.15,0-.23-.1-.32-.27a20.23,20.23,0,0,1-.63-2.06,8.34,8.34,0,0,0,1.28-.17v-6.4a10.85,10.85,0,0,0-.12-2c.77,0,1.51.07,2.1.13.19,0,.27.1.27.21a.69.69,0,0,1-.13.36,4.35,4.35,0,0,0-.08,1.28v6l1.41-.36V16.19H335c-1.77,0-2.38,0-2.5,0s-.21,0-.21-.23V14.42c0-.21,0-.23.21-.23s.73,0,2.5,0h3.94c1.79,0,2.4,0,2.52,0s.23,0,.23.23V16c0,.21,0,.23-.23.23s-.73,0-2.52,0Zm5.79,1.74c-.06.19-.15.38-.23.57A17.72,17.72,0,0,0,345.91,24a15.73,15.73,0,0,0,1.54-6.11Z"/><path class="cls-4" d="M355.2,18.16c.17-.21.25-.21.44-.11a17.36,17.36,0,0,1,2.94,2.12c.08.07.12.13.12.17s0,.13-.12.25l-.93,1.26c-.19.26-.25.3-.42.13a14.76,14.76,0,0,0-2.94-2.27c-.08-.06-.14-.1-.14-.17a.7.7,0,0,1,.14-.23Zm.1,10.46a33.74,33.74,0,0,0,2.06-5,9.26,9.26,0,0,0,1.22,1.07c.31.23.44.31.44.5a2.21,2.21,0,0,1-.13.51,36.25,36.25,0,0,1-1.93,4.7,3.11,3.11,0,0,0-.31.8c0,.16-.13.27-.28.27a.72.72,0,0,1-.37-.13,10.45,10.45,0,0,1-1.71-1.15A8.42,8.42,0,0,0,355.3,28.62Zm.78-15.73c.17-.23.23-.23.42-.13a19.79,19.79,0,0,1,3,2.23c.17.15.15.17,0,.42l-.9,1.24c-.21.23-.26.25-.42.1a16.1,16.1,0,0,0-2.92-2.35c-.19-.13-.15-.15,0-.38Zm12.7,2.27c.21-.17.23-.17.4,0a26.84,26.84,0,0,1,4.09,5.22c.11.19.13.23-.12.42l-1.24.89c-.13.08-.21.14-.27.14s-.11-.06-.17-.17c-.27-.52-.57-1-.86-1.51-3.32.38-6.3.72-9.76,1a2.11,2.11,0,0,0-.91.17.73.73,0,0,1-.35.12c-.13,0-.19-.12-.26-.31a20.33,20.33,0,0,1-.4-2.12,20.21,20.21,0,0,0,2.21,0h.13a42.75,42.75,0,0,0,2.16-5.21,6.41,6.41,0,0,0,.31-1.45,16.26,16.26,0,0,1,2.31.46c.21.07.4.19.4.34a.56.56,0,0,1-.23.4,3,3,0,0,0-.57,1c-.71,1.62-1.32,3-2,4.37,2-.15,3.92-.31,5.75-.5a19.32,19.32,0,0,0-1.74-2c-.15-.16-.15-.19.1-.38ZM361,31.51c-.21,0-.23,0-.23-.23s0-.69,0-3.82V25.57c0-1.91,0-2.52,0-2.65s0-.23.23-.23.82,0,2.73,0h4.89c1.91,0,2.56,0,2.69,0s.23,0,.23.23,0,.74,0,2.32v2.14c0,3.08,0,3.67,0,3.8s0,.23-.23.23h-1.79c-.23,0-.25,0-.25-.23v-.8H363v.9c0,.21,0,.23-.24.23Zm2-3.06h6.25V24.67H363Z"/><path class="cls-5" d="M79,55.39c-2.13.58-4.14,1.11-6,6.83A67.65,67.65,0,0,1,60.92,53.7l1.59-6.18c-3.71-1.11-5.41-3.77-6.73-7.45a3.14,3.14,0,0,0-.25-5.92l.11-1.46c.94-.12,1.26-.44,1.26-.8S56.58,31,54.61,31s-2.3.39-2.3.87.32.68,1.26.8l.11,1.46a3.14,3.14,0,0,0-.25,5.92c-1.32,3.68-3,6.34-6.73,7.45l1.59,6.18a67.65,67.65,0,0,1-12.08,8.52c-1.87-5.72-3.87-6.25-6-6.83a.64.64,0,0,0-.71,1c1.11,1.75,3,5.89,4.86,14.18S41.1,99.58,41.1,99.58h0c.55,1.94,4.43,3.53,9.61,4.08v20.21H58.5V103.66c5.18-.55,9.06-2.14,9.61-4.08h0S73,78.81,74.86,70.52s3.75-12.43,4.86-14.18A.64.64,0,0,0,79,55.39ZM54.61,95H52.18L50.4,70.18h8.41L57,95Zm-8-24.86L48.39,95H44c-1.29-5.61-4-17.6-5.76-24.86ZM60.82,95,62.6,70.18H71C69.26,77.44,66.49,89.43,65.2,95Z"/></g></g></svg>