<svg xmlns="http://www.w3.org/2000/svg" viewBox="0 0 402.07 126.64"><defs><style>.cls-1,.cls-2,.cls-3{fill:#fff;}.cls-1,.cls-2,.cls-3,.cls-5{stroke:#000;stroke-miterlimit:10;}.cls-1{stroke-width:4.21px;}.cls-2{stroke-width:4.3px;}.cls-3{stroke-width:4.3px;}.cls-4{fill:#d43a52;}.cls-5{fill:none;stroke-width:2.13px;}</style></defs><title>アセット 228</title><g id="レイヤー_2" data-name="レイヤー 2"><g id="レイヤー_1-2" data-name="レイヤー 1"><polygon class="cls-1" points="399.92 40.55 41.62 40.55 60.35 2.11 399.92 2.11 399.92 40.55"/><rect class="cls-2" x="53.07" y="40.54" width="346.85" height="69.43"/><circle class="cls-3" cx="54.61" cy="72.03" r="52.46"/><path d="M225.11,61.81c.17,0,.21,0,.21.14s0,.17,0,.27c-.27,1.6-.2,6.8-1.46,9.59-1,2.41-2.48,3.16-5.61,3.16-.2,0-.51,0-.54-.44a7.15,7.15,0,0,0-1.36-2.72.49.49,0,0,1-.11-.24c0-.07.07-.1.14-.1a1.39,1.39,0,0,1,.17,0,10.57,10.57,0,0,0,2.35.34,1.87,1.87,0,0,0,1.93-1.26c.65-1.22,1-4.31,1-5.81h-3.37c.1.07.14.13.14.2s-.17.34-.45.48-.44.34-.61,1a13.59,13.59,0,0,1-8.19,9.38.31.31,0,0,1-.27-.14,7.86,7.86,0,0,0-1.8-1.09c0,2.62.13,5.75.27,7.59,0,.68-.17.78-1.57.78-1.7,0-1.76-.21-1.76-.48v-.07c0-.64,0-1.49.06-2.41-.4,0-1,0-1.59,0l-1.77,0c0,1.56,0,3.06.07,4.39v.17c0,.34-.14.4-1.7.4-1.36,0-1.74,0-1.74-.54v-.1c.31-4.66.38-9.76.38-12.55,0-3.5-.07-6.25-.21-9,0-.14,0-.21,0-.31s.07-.2.24-.2.17,0,.27,0c1.09.11,2.79.21,4.52.21s2.14-.07,4.35-.21h.1c.24,0,.31.11.31.31v.13c-.2,2.72-.2,5.85-.2,8.74v2.11c6.08-2.07,7.24-6.56,7.44-8.7l-4.73.27h-.06c-.1,0-.24-.1-.27-.31,0-.44,0-1.22,0-1.87,0-1,0-1,.37-1H210a69.78,69.78,0,0,0,7.14.34H218a57,57,0,0,0,7-.41ZM204.2,65.07s-.68,0-1.59,0-1.77,0-1.77,0-.07,2.11-.07,4.53l1.84,0,1.7,0C204.27,67.42,204.2,65.07,204.2,65.07Zm.11,7.31c-.41,0-1.13-.06-1.7-.06s-1.4,0-1.84.06c0,1.33,0,3,0,4.83.48,0,1.3,0,1.81,0s1.22,0,1.63,0C204.27,75.38,204.31,73.64,204.31,72.38Zm19.81,16.73c0,.31-.13.41-2,.41-1.26,0-1.46-.14-1.46-.41V89l.07-2.07c-.79,0-2.52-.07-3.3-.07s-3,0-3.91.07l.07,2.17v.11c0,.3,0,.4-1.81.4-.4,0-.78,0-1.12,0s-.58-.1-.58-.44v-.1c.28-2.21.28-6.16.28-7.21V80.58c0-1.33,0-2.42-.14-3.64,0-.1,0-.17,0-.24s.06-.13.27-.13h.24c1.49.1,4.82.13,6.66.13s3.94-.07,6.26-.17h.1a.3.3,0,0,1,.34.31v.1c-.14,1.67-.17,3.13-.17,4.18s0,5.24.23,7.75Zm-3.36-7.41c0-.88,0-2.35,0-2.35s-1.4,0-2.55,0h-.79l-3.84,0s0,1.26,0,2.42v2.41c.92,0,3.13.07,3.87.07s2.62,0,3.37-.07Z"/><path d="M263.77,89.55c0,.14-.13.24-.31.27-.37,0-.95,0-1.52,0-2.11,0-2.28,0-2.28-.34v-.1c.47-4.83.68-10.1.71-12.89a26.25,26.25,0,0,1-5.88,5.61c-.1.07-.17.14-.27.14a.34.34,0,0,1-.27-.17,12.62,12.62,0,0,0-2.69-1.67c-.17-.07-.27-.13-.27-.2s.07-.1.2-.14A26.24,26.24,0,0,0,260.37,73c0-.41,0-.88,0-1.32-1.53,0-3.81.13-5.48.27h-.06c-.21,0-.34,0-.34-1.53,0-1.33,0-1.56.4-1.56,1.64.16,3.91.27,5.44.33,0-1,0-2-.06-2.75l-.07-1a24.54,24.54,0,0,1-3.44.68c-.13,0-.23-.07-.34-.24a12.71,12.71,0,0,0-1.66-2.17c-.1-.1-.14-.17-.14-.24s.14-.07.31-.07a26.3,26.3,0,0,0,9.76-2.24c.17-.1.23-.17.3-.17.24,0,2.35,1.9,2.35,2.62,0,.2-.21.34-.61.34a2.56,2.56,0,0,1-.69-.07,7.11,7.11,0,0,0-1.35.3,4.44,4.44,0,0,1-.48.17c0,.14-.17.28-.44.48s-.38.61-.48,4.35c1.5,0,3.33-.17,4.69-.3.1,0,.34,0,.34.23s0,.92,0,1.57a7.76,7.76,0,0,1,0,1.08c0,.14-.13.24-.34.24-1.36-.13-3.26-.24-4.76-.3v1.87a20.57,20.57,0,0,0,5.58,3.06c.24.06.34.17.34.27s-.07.13-.17.2a10.18,10.18,0,0,0-2,1.63c-.14.14-.21.31-.34.31s-1.3-.61-3.44-2.62c0,2.86.24,9.45.58,13.12Zm14.55-2,.1-2.86c-.78,0-2.07-.07-2.89-.07s-2,0-2.85.07c0,1.46.1,2.82.17,3.84,0,.31-.14.38-.44.38a11,11,0,0,1-1.5.06c-1.16,0-1.8-.1-1.8-.37v0c.27-2.59.37-9.25.37-13.16V74c0-3.67,0-5.37-.23-8.5,0-.13.06-.27.23-.27h.07c2.72.17,4.73.24,6,.24,1.4,0,2.72-.07,6-.24h.07c.24,0,.31.14.31.24v.07c-.14,3-.21,5.27-.21,8.46,0,3,.17,10.47.41,13.5a.47.47,0,0,1-.44.44c-.41,0-1,.07-1.53.07-1.43,0-1.84,0-1.84-.38Zm.21-13.36c0-2.38-.07-6-.07-6s-1.74-.07-2.93-.07-2.89.07-2.89.07,0,3.46,0,5.84c0,6.06,0,7.28,0,7.79.89,0,2.15.07,2.89.07.89,0,2.21-.07,3-.1C278.53,78.47,278.53,75.14,278.53,74.19Z"/><path d="M117.81,17.36c-2.56.48-4.81.92-7,1.39-.8.19-1,.23-1.33.33a1.07,1.07,0,0,1-.46.17.51.51,0,0,1-.4-.31,15.11,15.11,0,0,1-.77-2.27,28.59,28.59,0,0,0,3.33-.36c2.59-.38,7.21-1.07,12.62-1.78.32,0,.42.08.44.23a11.26,11.26,0,0,1,.23,1.85c0,.25-.12.31-.39.31a9.49,9.49,0,0,0-2.57.46c-3.57,1.22-5.35,3.68-5.35,6.2,0,2.7,1.93,4.17,5.58,4.4.34,0,.47.09.47.32a7.87,7.87,0,0,1-.23,1.81c-.07.31-.15.44-.4.44-3.7,0-7.75-2.12-7.75-6.49,0-3,1.49-5,4-6.66ZM122,19.63c.1-.09.19-.06.31,0a9.54,9.54,0,0,1,2,2.25.21.21,0,0,1-.07.33l-.88.65a.21.21,0,0,1-.35-.06,10.74,10.74,0,0,0-2.13-2.44Zm1.87-1.37c.12-.08.19-.06.31,0a8.65,8.65,0,0,1,2,2.16.25.25,0,0,1-.07.38l-.84.65a.21.21,0,0,1-.35-.07,10,10,0,0,0-2.1-2.41Z"/><path d="M134.8,14.65a5.54,5.54,0,0,0-.73-1.34,14.54,14.54,0,0,1,2.54-.23c.29,0,.46.17.46.38s0,.27,0,.39a3.88,3.88,0,0,0,.08.63c.15.55.21.74.34,1.1a32.67,32.67,0,0,0,4.28-1.12c.19-.08.29-.06.36.11.12.4.27,1,.35,1.41a.31.31,0,0,1-.25.37c-1.41.44-2.69.76-4.11,1.07.18.53.46,1.18.73,1.77a26.07,26.07,0,0,0,3.82-1.09c.21-.11.32-.07.38.12a8.15,8.15,0,0,1,.38,1.39c0,.19,0,.29-.17.37a25.29,25.29,0,0,1-3.55,1,15.53,15.53,0,0,0,2.75,3.64c.21.19.21.27.11.5a6.37,6.37,0,0,1-.86,1.3c-.13.15-.21.21-.34.21a.56.56,0,0,1-.29-.12,5.19,5.19,0,0,0-1.24-.68,10.27,10.27,0,0,0-4-.67c-2,0-3.13.61-3.13,1.6,0,1.36,1.79,1.8,5,1.8.78,0,1.55-.08,2.31-.12.21,0,.27.1.25.27a12.91,12.91,0,0,1-.42,1.91c-.06.21-.15.3-.44.32-.48,0-1,.06-1.51.06-4.83,0-7.39-1.37-7.39-4,0-2.24,1.93-3.65,5.2-3.65a9.91,9.91,0,0,1,3.62.52,23.14,23.14,0,0,1-1.75-2.47,52.84,52.84,0,0,1-5.75.63.34.34,0,0,1-.38-.3,12.06,12.06,0,0,1-.38-1.72,37,37,0,0,0,5.65-.52c-.21-.45-.52-1.16-.8-1.75a35.3,35.3,0,0,1-5.1.51c-.25,0-.38-.09-.42-.3s-.21-1-.33-1.68A37.05,37.05,0,0,0,135.3,16C135.14,15.53,135,15.18,134.8,14.65Z"/><path d="M151,24c.19.1.21.21.11.38a3.37,3.37,0,0,0-.55,1.59c0,1.32,1.37,2,5,2a27.29,27.29,0,0,0,5.69-.6c.29-.07.4,0,.44.18A18.53,18.53,0,0,1,162,29.6c0,.19-.1.27-.35.32a34,34,0,0,1-6.15.5c-4.85,0-7.23-1.51-7.23-4.24a5.54,5.54,0,0,1,1.12-3C149.92,23.45,150.45,23.72,151,24Zm4.75-8.23c1.53,0,3-.09,4.36-.19.21,0,.3.06.32.23a12.61,12.61,0,0,1,.19,1.78c0,.3-.11.42-.36.44a12.34,12.34,0,0,0-5.14,2.08.88.88,0,0,1-.53.19.94.94,0,0,1-.44-.12,4.89,4.89,0,0,0-1.47-.68c1.09-.71,2-1.3,2.75-1.74a13.39,13.39,0,0,1-1.53.06,25.05,25.05,0,0,1-3.86-.35c-.19,0-.28-.13-.28-.38,0-.5.05-1.11.09-1.87A26.3,26.3,0,0,0,155.74,15.79Zm5.71-2.33c.1-.09.19-.07.31,0a9.68,9.68,0,0,1,2,2.24.22.22,0,0,1-.07.34l-.88.65a.21.21,0,0,1-.35-.06,10.53,10.53,0,0,0-2.12-2.44Zm1.87-1.37c.12-.08.19-.06.31,0a8.86,8.86,0,0,1,2,2.17.24.24,0,0,1-.07.37l-.84.65a.21.21,0,0,1-.35-.06,10,10,0,0,0-2.1-2.41Z"/><path d="M174.91,13.56c.25.06.38.17.38.34s-.15.58-.15.88.06.92.11,1.41a31,31,0,0,0,.67,3.61l3-1.6a5.29,5.29,0,0,0,1.45-1.13,10.38,10.38,0,0,1,1.53,2,.8.8,0,0,1,.15.44c0,.21-.13.38-.42.42a10.61,10.61,0,0,0-2,.63A29.44,29.44,0,0,0,174.66,23c-1.83,1.19-2.48,2.18-2.48,3.17,0,1.24.92,1.76,3.34,1.76a37,37,0,0,0,6.4-.48c.23,0,.34,0,.38.25a16.87,16.87,0,0,1,.21,1.95c0,.23-.12.34-.38.36a45,45,0,0,1-6.25.32c-4,0-6.07-1.31-6.07-4,0-2.33,1.53-3.86,4-5.41a31.3,31.3,0,0,1-1.09-5.13,9.58,9.58,0,0,0-.55-2.43A12.1,12.1,0,0,1,174.91,13.56Z"/><path d="M196.94,17.09a26.25,26.25,0,0,1-2.63,9.05c-.9,1.57-2,2.41-3.56,2.41-1.85,0-3.72-2-3.72-5.39a7.73,7.73,0,0,1,2.37-5.46A9.17,9.17,0,0,1,196.23,15c5,0,8,3.11,8,7.29,0,3.9-2.2,6.36-6.46,7.64-.44.12-.63,0-.91-.38a4.4,4.4,0,0,0-1.46-1.32c3.54-.84,6.34-2.31,6.34-6.28A4.77,4.77,0,0,0,197,17.09Zm-6,2A6.09,6.09,0,0,0,189.28,23c0,1.93.77,3,1.42,3s1-.27,1.58-1.28a23.87,23.87,0,0,0,2.22-7.52A6.43,6.43,0,0,0,190.91,19.12Z"/><path d="M220.27,12.78c.27-.12.31-.1.4.11a16.84,16.84,0,0,0,6.8,7.75,7,7,0,0,0-1.22,1.57c-.19.32-.27.46-.4.46s-.23-.1-.44-.27a17.14,17.14,0,0,1-2-1.7c0,.61,0,1.34-.06,2.08a42.39,42.39,0,0,1-.53,5.88c-.27,1.66-1.07,2.58-3.13,2.58-.52,0-.92,0-1.42,0-.66-.05-.63-.05-.78-.74a4.46,4.46,0,0,0-.65-1.68,15.29,15.29,0,0,0,2.39.19c.88,0,1.24-.33,1.41-1.3a35.71,35.71,0,0,0,.4-5.21h-3.74a10.18,10.18,0,0,1-6.38,8.91,1.42,1.42,0,0,1-.51.16c-.17,0-.23-.14-.44-.5a3.92,3.92,0,0,0-1.07-1.26c3.82-1.39,5.67-3.61,6.07-7.31h-.25c-2,0-2.65,0-2.77,0s-.24,0-.24-.23V20.74a22.21,22.21,0,0,1-2,1.74c-.23.17-.36.28-.46.28s-.23-.15-.44-.46A4.69,4.69,0,0,0,207.61,21a16.42,16.42,0,0,0,6.07-6.92,6.12,6.12,0,0,0,.42-1.35,15.39,15.39,0,0,1,2.18.74c.23.1.29.21.29.35a.45.45,0,0,1-.16.32,1.77,1.77,0,0,0-.49.67,18.9,18.9,0,0,1-3.84,5.56c.3,0,1,.05,2.65.05h5.64c1.83,0,2.52,0,2.73-.05a22.13,22.13,0,0,1-4.51-6.65c-.08-.23,0-.25.19-.36Z"/><path d="M236.38,18.14a9.57,9.57,0,0,0,3.06,2.39,4.68,4.68,0,0,0-.67,1.07c-.15.34-.23.51-.38.51s-.23-.11-.46-.3a10.71,10.71,0,0,1-2.29-2.56c0,1.68.09,2.1.09,2.31s0,.23-.23.23h-1.41c-.21,0-.23,0-.23-.23s.06-.59.08-2.1a11.4,11.4,0,0,1-2.75,2.75c-.23.17-.36.25-.48.25s-.23-.12-.36-.4a3.94,3.94,0,0,0-.75-1.15,11.35,11.35,0,0,0,3.63-2.77h-.42c-1.77,0-2.37,0-2.5,0s-.21,0-.21-.23V16.77c0-.21,0-.23.21-.23s.73,0,2.5,0h1V15a16.8,16.8,0,0,0-.15-2.54c.76,0,1.26.06,2,.14.23,0,.34.11.34.22a2.21,2.21,0,0,1-.15.5,8.87,8.87,0,0,0-.08,1.68v1.59h.88c1.79,0,2.37,0,2.5,0s.23,0,.23.23V18c0,.21,0,.23-.23.23s-.71,0-2.5,0Zm-3.66,7.58c-1.78,0-2.37,0-2.49,0s-.23,0-.23-.23V24.21c0-.21,0-.23.23-.23s.71,0,2.49,0h1a9.09,9.09,0,0,0,0-1.81c.84.06,1.41.11,1.87.17.23,0,.35.12.35.25a1,1,0,0,1-.1.34A2.74,2.74,0,0,0,235.6,24h1c1.82,0,2.39,0,2.52,0s.25,0,.25.23v1.32c0,.21,0,.23-.25.23s-.7,0-2.52,0H236a6.5,6.5,0,0,0,3.13,2.68,4.89,4.89,0,0,0-1,1.08c-.21.31-.31.46-.46.46s-.25-.11-.48-.28A7.77,7.77,0,0,1,235,27.08a7.55,7.55,0,0,1-3.3,3.74.93.93,0,0,1-.44.19c-.14,0-.27-.13-.48-.46a4.58,4.58,0,0,0-1-1.1,5.81,5.81,0,0,0,3.7-3.73Zm-1.09-12.47c.21-.11.28-.09.42.08a11.67,11.67,0,0,1,1.16,1.95c.1.23.06.3-.21.42l-1,.46c-.25.13-.31.15-.4-.06a10.67,10.67,0,0,0-1.07-2c-.15-.21-.17-.28.13-.42ZM237,14a3.48,3.48,0,0,0,.29-.92,9.56,9.56,0,0,1,1.55.56c.17.07.24.17.24.25s0,.17-.19.3a1.44,1.44,0,0,0-.3.4,14.76,14.76,0,0,1-.71,1.3c-.17.27-.25.38-.38.38a1.07,1.07,0,0,1-.4-.17,5.94,5.94,0,0,0-1-.42A10.79,10.79,0,0,0,237,14Zm6.21,14.55c.21.15.23.23.23.34s-.1.18-.25.25a2.37,2.37,0,0,0-.55.38,14.19,14.19,0,0,1-2.81,1.89,1.58,1.58,0,0,1-.54.2c-.19,0-.3-.14-.51-.5a4.52,4.52,0,0,0-.86-1.05,10.88,10.88,0,0,0,3.15-1.68,4.12,4.12,0,0,0,.71-.73A12.23,12.23,0,0,1,243.2,28.51Zm-.86-13.4c-1.87,0-2.5.05-2.62.05s-.23,0-.23-.23V13.39c0-.21,0-.23.23-.23s.75,0,2.62,0h3.91c1.89,0,2.52,0,2.64,0s.21,0,.21.23v1.54c0,.21,0,.23-.21.23s-.75-.05-2.64-.05H245.2a16.11,16.11,0,0,1-.65,1.58h1c1.68,0,2.27,0,2.42,0s.23,0,.23.21,0,.86,0,2.45V24.9c0,1.59,0,2.31,0,2.41s0,.26-.23.26-.74-.05-2.42-.05h-2.79c-1.7,0-2.27.05-2.39.05s-.26,0-.26-.26,0-.82,0-2.41V19.4c0-1.68,0-2.4,0-2.54s0-.21.26-.21.65,0,2.1,0a12,12,0,0,0,.6-1.58Zm-.23,4.64h4V18.43h-4Zm4,3V21.33h-4v1.39Zm0,1.57h-4v1.49h4Zm-.57,3.48a.41.41,0,0,1,.28-.14.43.43,0,0,1,.21.1,10.86,10.86,0,0,0,3.46,2.08,4.93,4.93,0,0,0-.86,1.18c-.19.35-.29.48-.46.48a1.11,1.11,0,0,1-.48-.19A12,12,0,0,1,244.67,29a.27.27,0,0,1-.1-.21c0-.06,0-.14.16-.25Z"/><path d="M262.17,17.36c-2.57.48-4.81.92-7.06,1.39-.8.19-1,.23-1.32.33a1.17,1.17,0,0,1-.46.17.49.49,0,0,1-.4-.31,13.94,13.94,0,0,1-.78-2.27,29,29,0,0,0,3.34-.36c2.58-.38,7.2-1.07,12.62-1.78.31,0,.42.08.44.23a12.46,12.46,0,0,1,.23,1.85c0,.25-.13.31-.4.31a9.35,9.35,0,0,0-2.56.46c-3.57,1.22-5.36,3.68-5.36,6.2,0,2.7,1.94,4.17,5.59,4.4.34,0,.46.09.46.32a7.36,7.36,0,0,1-.23,1.81c-.06.31-.15.44-.4.44-3.69,0-7.75-2.12-7.75-6.49,0-3,1.49-5,4-6.66Zm4.15,2.27c.11-.09.19-.06.32,0a9.52,9.52,0,0,1,2,2.25.2.2,0,0,1-.06.33l-.88.65c-.15.11-.25.09-.36-.06a10.71,10.71,0,0,0-2.12-2.44Zm1.87-1.37c.13-.08.19-.06.32,0a8.61,8.61,0,0,1,2,2.16.25.25,0,0,1-.06.38l-.84.65a.22.22,0,0,1-.36-.07,10,10,0,0,0-2.1-2.41Z"/><path d="M287.15,19.42a5.76,5.76,0,0,0,0-1.43,9,9,0,0,1,2.44.9.4.4,0,0,1,.15.57,3.15,3.15,0,0,0-.34.82c-.17.88-.38,1.8-.59,2.71a25.35,25.35,0,0,1,3.28,2c.21.13.19.23.12.44a18,18,0,0,1-.9,1.81c-.06.11-.13.15-.19.15a.42.42,0,0,1-.25-.15,16.21,16.21,0,0,0-2.75-2,13,13,0,0,1-4.24,5.52c-.19.15-.3.23-.42.23a.55.55,0,0,1-.32-.15A4.32,4.32,0,0,0,281.3,30a11.63,11.63,0,0,0,4.7-5.69,14.1,14.1,0,0,0-4.16-1.28,14.51,14.51,0,0,1-2.56,4.2,3.45,3.45,0,0,1-2.69,1.15c-1.21,0-2.49-.83-2.49-2.87,0-2.61,2.68-4.64,6.19-4.64.69-1.74,1.22-3.21,1.74-5l-2.9.34a4.13,4.13,0,0,0-.94.23,1.17,1.17,0,0,1-.38.08.32.32,0,0,1-.33-.23,12.64,12.64,0,0,1-.61-2.29,7.61,7.61,0,0,0,1.84.13A23.18,23.18,0,0,0,282,13.9a2.55,2.55,0,0,0,1-.36.53.53,0,0,1,.56,0A6.74,6.74,0,0,1,285,14.69a.51.51,0,0,1,.19.36c0,.13-.08.23-.21.36a2.91,2.91,0,0,0-.57,1.09c-.54,1.43-1.13,3.07-1.76,4.58a16.87,16.87,0,0,1,4.07,1.05A20.36,20.36,0,0,0,287.15,19.42Zm-11.08,5.86c0,.67.23,1,.73,1a1.69,1.69,0,0,0,1.22-.8,13.62,13.62,0,0,0,1.53-2.56C277.41,23,276.07,24.08,276.07,25.28Z"/><path d="M301.94,21.16a6.33,6.33,0,0,1,3.34-.94,4.88,4.88,0,0,1,5.21,5c0,3.5-2.84,5.75-7.33,5.75-2.65,0-4.24-1.14-4.24-3.09a2.79,2.79,0,0,1,3-2.56,3.81,3.81,0,0,1,3.94,3.07,3.18,3.18,0,0,0,2.15-3.2,3.07,3.07,0,0,0-3.3-3.17,8.59,8.59,0,0,0-5.38,2.23c-.6.55-1.19,1.15-1.82,1.78-.15.15-.25.24-.36.24a.54.54,0,0,1-.31-.19,9.36,9.36,0,0,1-1.24-1.37c-.13-.17-.07-.31.1-.48a50.43,50.43,0,0,0,5-4.64c1.3-1.35,2.29-2.4,3.25-3.59-1.26.23-2.75.52-4.05.8a5.46,5.46,0,0,0-.88.25,1.7,1.7,0,0,1-.42.1.47.47,0,0,1-.46-.35,10.53,10.53,0,0,1-.74-2.27,10.59,10.59,0,0,0,2,0c1.29-.13,3.13-.4,4.77-.71a5.48,5.48,0,0,0,1.16-.32,1.11,1.11,0,0,1,.39-.17.81.81,0,0,1,.49.17,7.59,7.59,0,0,1,1.4,1.35.71.71,0,0,1,.24.5.55.55,0,0,1-.36.5,3.4,3.4,0,0,0-.93.68c-1.53,1.49-2.93,3-4.53,4.49Zm0,6c-.61,0-1,.35-1,.79,0,.65.57,1.09,1.83,1.09a4.88,4.88,0,0,0,1-.08C303.47,27.8,302.84,27.15,302,27.15Z"/><path d="M328,22.55H315.25V21.33H328Z"/><path class="cls-4" d="M338.61,16.19v4H339c1.08,0,1.33,0,1.45,0s.25,0,.25.23v.23a16.82,16.82,0,0,0,2.73-6,11.77,11.77,0,0,0,.36-2.23c.69.13,1.32.25,2,.42.28.09.4.17.4.3a.44.44,0,0,1-.14.31,3.07,3.07,0,0,0-.42,1.05c-.15.55-.3,1.09-.47,1.64h3.13c2,0,2.63,0,2.75,0s.21,0,.21.23v1.51c0,.21,0,.23-.21.23s-.46,0-1.32,0a17.81,17.81,0,0,1-2.41,8,15.74,15.74,0,0,0,4.45,3.4,5.51,5.51,0,0,0-1.05,1.55c-.15.34-.23.49-.38.49a1.15,1.15,0,0,1-.5-.23,18.35,18.35,0,0,1-3.83-3.47,15.8,15.8,0,0,1-5,3.57,1.5,1.5,0,0,1-.46.19c-.15,0-.26-.15-.44-.48a5.58,5.58,0,0,0-1-1.28,13.54,13.54,0,0,0,5.64-3.82,17.69,17.69,0,0,1-1.86-4.81c-.21.35-.45.67-.68,1s-.31.4-.42.4-.16-.1-.31-.31a8.81,8.81,0,0,0-.72-.9v.65c0,.21,0,.23-.25.23s-.37,0-1.45,0h-.37v4.43c1-.32,2.05-.68,3.19-1.12,0,.51-.07.93-.07,1.41,0,.65,0,.65-.6.88-2.52.93-5,1.64-7.25,2.23a3.32,3.32,0,0,0-.8.31.63.63,0,0,1-.37.17c-.15,0-.23-.1-.32-.27a20.23,20.23,0,0,1-.63-2.06,8.34,8.34,0,0,0,1.28-.17v-6.4a10.85,10.85,0,0,0-.12-2c.77,0,1.51.07,2.1.13.19,0,.27.1.27.21a.69.69,0,0,1-.13.36,4.35,4.35,0,0,0-.08,1.28v6l1.41-.36V16.19H335c-1.77,0-2.38,0-2.5,0s-.21,0-.21-.23V14.42c0-.21,0-.23.21-.23s.73,0,2.5,0h3.94c1.79,0,2.4,0,2.52,0s.23,0,.23.23V16c0,.21,0,.23-.23.23s-.73,0-2.52,0Zm5.79,1.74a5.48,5.48,0,0,1-.23.56A17.7,17.7,0,0,0,345.91,24a15.73,15.73,0,0,0,1.54-6.11Z"/><path class="cls-4" d="M355.2,18.16c.17-.21.25-.21.44-.11a17.36,17.36,0,0,1,2.94,2.12c.08.07.12.13.12.17a.53.53,0,0,1-.12.25l-.93,1.26c-.19.26-.25.3-.42.13a14.76,14.76,0,0,0-2.94-2.27c-.08-.06-.14-.1-.14-.17a.7.7,0,0,1,.14-.23Zm.1,10.45a33.15,33.15,0,0,0,2.06-5,9.26,9.26,0,0,0,1.22,1.07c.31.23.44.31.44.5a2,2,0,0,1-.13.5A35.83,35.83,0,0,1,357,30.36a3.21,3.21,0,0,0-.31.79c0,.17-.13.28-.28.28a.72.72,0,0,1-.37-.13,10.45,10.45,0,0,1-1.71-1.15A8.16,8.16,0,0,0,355.3,28.61Zm.78-15.72c.17-.23.23-.23.42-.13a19.79,19.79,0,0,1,3,2.23c.17.15.15.17,0,.42l-.9,1.24c-.21.23-.26.25-.42.1a16.1,16.1,0,0,0-2.92-2.35c-.19-.13-.15-.15,0-.38Zm12.7,2.27c.21-.17.23-.17.4,0a26.84,26.84,0,0,1,4.09,5.22c.11.19.13.23-.12.42l-1.24.88c-.13.09-.21.15-.27.15s-.11-.06-.17-.17c-.27-.52-.57-1-.86-1.51-3.32.38-6.3.72-9.76,1a2.11,2.11,0,0,0-.91.17.73.73,0,0,1-.35.12c-.13,0-.19-.12-.26-.31a20.33,20.33,0,0,1-.4-2.12,20.21,20.21,0,0,0,2.21,0h.13a42.75,42.75,0,0,0,2.16-5.21,6.41,6.41,0,0,0,.31-1.45,16.26,16.26,0,0,1,2.31.46c.21.07.4.19.4.34a.56.56,0,0,1-.23.4,3,3,0,0,0-.57,1c-.71,1.62-1.32,3-2,4.37,2-.15,3.92-.31,5.75-.5a19.32,19.32,0,0,0-1.74-2c-.15-.17-.15-.19.1-.38ZM361,31.51c-.21,0-.23,0-.23-.23s0-.69,0-3.82V25.57c0-1.91,0-2.52,0-2.65s0-.23.23-.23.82,0,2.73,0h4.89c1.91,0,2.56,0,2.69,0s.23,0,.23.23,0,.74,0,2.31v2.15c0,3.08,0,3.67,0,3.8s0,.23-.23.23h-1.79c-.23,0-.25,0-.25-.23v-.8H363v.9c0,.21,0,.23-.24.23Zm2-3.06h6.25V24.67H363Z"/><path d="M58.15,107.09c1.1-11.79,5.76-12.79,10.15-2.63h9.24c-4-4.13-10.55-15.24-12.75-21.68L54.61,84.45,44.42,82.78c-2.2,6.44-8.72,17.55-12.75,21.68h9.24C45.3,94.3,50,95.3,51.06,107.09Z"/><path d="M48.31,70.09l6.3,1,6.29-1c-.43-2.51-.71-5.61-.87-7.82H49.19C49,64.48,48.74,67.58,48.31,70.09Z"/><path d="M51.55,52.44h6.12l-.22-6.61H51.77Z"/><path d="M48.14,54.57H61.08v5.57H48.14Z"/><polygon points="41.55 71.51 54.61 73.17 67.67 71.51 66.27 80.54 54.61 82.2 42.94 80.54 41.55 71.51"/><line class="cls-5" x1="54.61" y1="43.8" x2="54.61" y2="32.47"/></g></g></svg>