<svg xmlns="http://www.w3.org/2000/svg" viewBox="0 0 402.01 126.64"><defs><style>.cls-1,.cls-2,.cls-4{fill:#fff;stroke:#000;stroke-miterlimit:10;}.cls-1{stroke-width:4.21px;}.cls-2{stroke-width:4.3px;}.cls-3{fill:#817cc0;}.cls-4{stroke-width:4.3px;}.cls-5{fill:#040000;}</style></defs><title>アセット 383</title><g id="レイヤー_2" data-name="レイヤー 2"><g id="レイヤー_5" data-name="レイヤー 5"><polygon class="cls-1" points="399.86 40.55 41.56 40.55 60.29 2.11 399.86 2.11 399.86 40.55"/><rect class="cls-2" x="53.01" y="40.54" width="346.85" height="69.43"/><path d="M137.22,74.29a.42.42,0,0,1-.41.27.75.75,0,0,1-.24,0c-1.8-.65-4.9-1.36-5.34-1.5-.2-.07-.37-.1-.37-.34a11,11,0,0,1,.68-2.24c0-.1.1-.24.44-.24a32.2,32.2,0,0,1,5.58,1,.39.39,0,0,1,.3.44A21.34,21.34,0,0,1,137.22,74.29Zm-5.38,12a.31.31,0,0,1,.14-.24,44.23,44.23,0,0,0,6.66-8c.07-.11.14-.17.17-.17s.14.06.17.17a14.44,14.44,0,0,0,1.63,2,.19.19,0,0,1,.14.2.69.69,0,0,1-.07.24c-1.46,2.68-3.16,4.93-3.87,6.12-.61,1-.65,1.66-1.23,1.66S131.84,86.87,131.84,86.29Zm7.35-19.24a.66.66,0,0,1-.38-.14A54.59,54.59,0,0,0,134.16,64c-.14-.1-.28-.17-.28-.34s1.19-2.14,1.53-2.14c.51,0,5.48,2.21,5.48,2.92a.73.73,0,0,1-.07.24,13.66,13.66,0,0,1-1.36,2.21A.35.35,0,0,1,139.19,67.05Zm23,16.69c.21,0,.31.17.31.37s0,1,0,1.74c0,.47,0,1,0,1.22s-.21.24-.38.24c-4.55-.31-7.2-.34-9.79-.34-7.65,0-9.89.14-12.88.34-.2,0-.44-.07-.44-.31s0-1,0-1.49c0-1.29,0-1.77.34-1.77h.14c4.15.27,6.76.37,9.11.37,0-1.83.1-5.71.1-9s-.07-6.35-.1-7.71c-1.56,0-3.54.1-6.39.3h-.07c-.17,0-.37-.06-.37-.3a13.33,13.33,0,0,1,0-1.4c0-1.73.07-1.73.48-1.73,4.08.31,6.19.34,8.09.34a92.63,92.63,0,0,0,9.55-.34c.41,0,.41.34.41,2,0,1.26-.07,1.39-.41,1.39-3.53-.23-5.16-.3-6.9-.34v0c0,.2-.2.41-.47.58s-.24.27-.24.61c0,1.7-.07,4.11-.07,6.59,0,3.2.07,7.11.1,8.94,2.59,0,5.17-.06,9.89-.37Z"/><path d="M191.07,79c0,.31-.14.34-.41.34s-1.15.07-1.83.07c-1.47,0-1.6-.07-1.6-.41v-.07l.1-1.7c-1.22,0-3.26-.07-5.81-.07-3,0-5.54,0-6.87.07-1.19,9.25-6.8,13-7.41,13a.54.54,0,0,1-.34-.13,15.13,15.13,0,0,0-3.37-1.46c-.2-.07-.27-.14-.27-.21s.07-.13.27-.24c6.5-3.09,7.92-9.65,7.92-14.92a34.67,34.67,0,0,0-.51-5.78.93.93,0,0,1,0-.27c0-.14.07-.17.24-.17h.24c3.57.24,5.5.27,7.3.27,7.18,0,8.23,0,11.87-.24.27,0,.41.07.41.38v.1c-.14,1.43-.21,3.43-.21,5.5a43.67,43.67,0,0,0,.31,5.75ZM194,61.13c.28,0,.34.07.34,2.11,0,1.29-.06,1.6-.37,1.6-6.87-.38-9.32-.38-13.19-.38-5.68,0-8.57.14-12.65.38-.41,0-.44-.24-.44-1.87,0-1.84,0-1.84.27-1.84h.17c6.09.31,8.13.34,11,.34,5.65,0,8.54,0,14.83-.34Zm-6.56,9.18s-1.09-.1-3.7-.1c-.68,0-1.43,0-2.28,0l-6.66.07s0,1.94,0,3.84c1.43,0,3.91.07,6.59.07s4.76,0,6-.07Z"/><path d="M211,82.75c0,.34-.1.58-1.7.58-.92,0-1.63,0-1.63-.47v-.07c0-.65,0-1.5.07-2.42-.38,0-.95-.06-1.46-.06s-1.19,0-1.57.06c0,1.53,0,3,.07,4.36,0,.57-.07.61-1.7.61s-1.73-.21-1.73-.55v-.1c.3-4.66.37-9.76.37-12.54,0-3.51-.07-6.26-.2-9.05,0-.13,0-.2,0-.3s.07-.21.24-.21.17,0,.27,0c1.09.1,2.59.17,4.32.17s2-.07,4.21-.21c.38,0,.45.14.45.48-.24,2.69-.24,5.81-.24,8.74,0,2.55.07,8,.27,10.74ZM206.2,65.42c-.95,0-1.53,0-1.53,0s-.07,2.11-.07,4.52c.41,0,1.09,0,1.6,0s1.23,0,1.6,0c0-2.17-.1-4.52-.1-4.52s-.34,0-1,0Zm1.6,7.31c-.37,0-1,0-1.56,0s-1.26,0-1.64,0c0,1.32,0,3,0,4.86.41,0,1.05,0,1.56,0s1.16,0,1.53,0C207.77,75.75,207.8,74,207.8,72.73Zm21.82.16c-3.77-.37-7.3-.4-9.45-.4s-3.91.07-8.36.34c-.34,0-.41-.1-.41-1.57s0-1.63.41-1.63c3.33.27,5.07.34,6.83.34V67.29c-1.53,0-3,.06-5.47.2-.31,0-.37,0-.37-1.46s.06-1.53.44-1.53c2.38.2,3.91.2,5.34.2v-.34a28.2,28.2,0,0,0-.48-5v-.17c0-.17,0-.21.24-.21.54,0,4.35.41,4.35,1.13,0,.27-.31.61-.51,1-.37.71-.34.64-.48,2.85a4.94,4.94,0,0,0,0,.68c1.29,0,2.58-.07,5.2-.24.17,0,.41,0,.41,1.57a6.7,6.7,0,0,1-.07,1.26c0,.13-.2.2-.3.2h0c-2.55-.14-3.74-.17-5.23-.2V70c2.1,0,4.86-.17,8-.41.24,0,.38.24.38,1.67,0,.54,0,1.09-.07,1.43,0,.13-.17.23-.27.23Zm-4.58,13c0,2-1.13,4.25-5.1,4.25q-.31,0-.51-.51c-.65-1.53-1.84-2.07-2.66-3-.1-.11-.17-.17-.17-.24s0-.07.14-.07a1.39,1.39,0,0,0,.17,0,19.72,19.72,0,0,0,2.75.28c1.3,0,2-.34,2-1.33.07-1.33.07-4,.07-5.54v-2h-1.46c-2.18,0-3.94.06-8.33.34a.33.33,0,0,1-.34-.31c0-.27,0-.78,0-1.33,0-1.63,0-1.63.37-1.63,4.22.34,6,.34,8.33.34h1.36a14.14,14.14,0,0,0-.27-2c0-.07,0-.1,0-.13s.11-.21.28-.21,4,.34,4,1a.86.86,0,0,1-.27.54c-.3.41-.41.41-.44.75,1.39-.07,3-.17,4.62-.3h0c.2,0,.34.27.34,1.69,0,.55,0,1.13-.07,1.47a.33.33,0,0,1-.27.23h0c-1.66-.17-3.26-.27-4.69-.3v2.92c0,1.84.17,3,.21,4.93Zm-7.52-1.49c-.07,0-.13-.07-.2-.14a19.19,19.19,0,0,0-4.25-3.64c-.1-.07-.14-.1-.14-.17,0-.37,1.5-1.36,1.84-1.56a.28.28,0,0,1,.17-.1.39.39,0,0,1,.17.06,17.17,17.17,0,0,1,4.45,2.89.29.29,0,0,1,.1.21,14.63,14.63,0,0,1-2,2.38C217.62,84.35,217.59,84.39,217.52,84.39Z"/><path d="M238.77,89.31c.51-4.58.75-12,.89-17.57-.31.37-3.81,4.72-4.56,4.72a.45.45,0,0,1-.27-.06A9.46,9.46,0,0,0,232,75.34c-.2,0-.34-.1-.34-.17s.07-.13.17-.2c5.85-4.15,10.51-12,10.92-14.28,0-.14.07-.2.17-.2.57,0,4,1.46,4,2.1,0,.24-.27.48-.78.68s-.68.14-1,.68a39.91,39.91,0,0,1-2.31,3.57c.24.07.41.17.54.21a.42.42,0,0,1,.34.41,1.06,1.06,0,0,1-.34.64,2.12,2.12,0,0,0-.51,1.63c-.13,4.22-.3,9.76-.3,14.28,0,1.77,0,3.37.1,4.69,0,.17-.1.34-1.94.34-1.6,0-1.94,0-1.94-.34ZM262.3,71.13c0,.13-.24.27-.34.27-5.1.37-5.85.44-8.84.88l-.71.11c2,10.13,7.61,12.91,8.29,12.91s1.6-1,1.84-3.8c0-.21.06-.28.17-.28s.13.07.2.17a12.07,12.07,0,0,0,2.72,2.76.52.52,0,0,1,.24.51c-.92,3-2.55,4.65-4.56,4.65a5.12,5.12,0,0,1-2.72-.91c-5.61-3.54-8.09-9.52-9.35-15.47l-4.86,1h-.1a.4.4,0,0,1-.41-.24A13.43,13.43,0,0,1,243.5,71v-.13c0-.34.17-.41.37-.41,2.14-.13,3.61-.27,4.86-.44-.27-1.73-.47-3.47-.61-5.1s-.27-3-.47-3.91a1.76,1.76,0,0,1-.07-.37.18.18,0,0,1,.2-.21c.07,0,.14,0,.21,0,3.67.44,4.42.57,4.42,1.12a3.34,3.34,0,0,1-.51,1.19,2.62,2.62,0,0,0-.21,1.12A49.33,49.33,0,0,0,252,69.6l.75-.1c3.27-.45,4.08-.62,8.74-1.6h.07a.36.36,0,0,1,.37.3,18.12,18.12,0,0,1,.41,2.89Zm-5.17-3.54A23,23,0,0,0,253,64.77c-.14-.07-.27-.1-.27-.24a5.66,5.66,0,0,1,1.76-2.21c.65,0,4.8,2.31,4.8,2.76s-1.36,2.68-1.8,2.68A.51.51,0,0,1,257.13,67.59Z"/><path d="M282.43,91a.51.51,0,0,1-.41.2.29.29,0,0,1-.2-.06c-4.25-2.28-9.08-8-9.08-16.8,0-11.56,8.87-16.52,9.28-16.52a2.77,2.77,0,0,1,1.39,1.94.51.51,0,0,1-.3.47c-3.64,2.11-6.9,7.69-6.9,14.15,0,6.8,3.26,12.27,6.9,14.41a.51.51,0,0,1,.24.48A3.24,3.24,0,0,1,282.43,91Z"/><path d="M318.74,86c.13,0,.24,0,.24.13a.45.45,0,0,1-.11.24c-.4.55-2.1,1.6-2.71,2.72-.11.24-.34.24-.52.24a16.16,16.16,0,0,1-9.58-3.74,13.89,13.89,0,0,1-7.55,4.25.65.65,0,0,1-.41-.17c-1-1-2.78-1.29-3.4-1.6-.23-.13-.34-.2-.34-.27s.14-.14.31-.14a13.74,13.74,0,0,0,9.38-4.18,13.73,13.73,0,0,1-1.83-3c-4,5.31-6.56,6.36-6.63,6.36a.54.54,0,0,1-.31-.1,3.67,3.67,0,0,0-1.32-.48c0,1,.06,2,.13,3.1,0,.13-.13.24-.3.27-.34,0-1,.07-1.6.07-1.43,0-1.91,0-1.91-.41.45-4.62.68-9.45.79-14.08-1.6,1.84-3.64,3.78-4.05,3.78a.43.43,0,0,1-.27-.1,10.91,10.91,0,0,0-2.93-1.3c-.17,0-.27-.1-.27-.17s.07-.1.21-.2c5-2.65,9.45-9.28,9.92-10.84.07-.14.11-.21.21-.21s3.5,1.12,3.5,1.87c0,.24-.27.44-.82.61s-.64.11-.95.58-.88,1.33-1.73,2.45c.27.07.47.17.61.2s.34.24.34.45a1,1,0,0,1-.31.61c-.47.51-.47.81-.47,1.6,0,3.77-.14,7-.14,10.06a25.18,25.18,0,0,0,8.43-10l-4.08.58c-.44.1-.78.41-1,.41-.44,0-1.42-2-1.66-3.13a.22.22,0,0,1,0-.13c0-.14.07-.17.21-.17s.13,0,.2,0h.48c1.19,0,3-.1,5-.24l1.09-1.26c-1.77-1.25-4.42-2.61-5.1-3-.14-.07-.2-.14-.2-.21a.29.29,0,0,1,.1-.2c1.08-1.43,1.32-1.77,1.53-1.77s.1,0,.17.07l1.22.61a19.44,19.44,0,0,0,2.45-6.15c0-.17.07-.24.24-.24s3.8.88,3.8,1.67c0,.23-.44.44-.88.78a2.39,2.39,0,0,0-.68.92c-.58,1-1.77,2.92-2.65,4.28l1.73,1.09c1.74-2.21,3.33-4.56,3.64-5.68.07-.17,0-.31.24-.31s3.77,1.43,3.77,2.15c0,.27-.41.4-.88.64a2,2,0,0,0-.92.75c-.85,1.05-3.09,3.57-4.93,5.58l5.68-.58c-.75-.85-1.43-1.46-1.7-1.8-.1-.11-.17-.17-.17-.24A5.59,5.59,0,0,1,310.89,68a20.48,20.48,0,0,1,5.23,5.33.44.44,0,0,1,.07.21c0,.3-1.73,1.36-2.38,1.7a.22.22,0,0,1-.14,0c-.13,0-.23,0-.27-.14a13.53,13.53,0,0,0-.92-1.73l-6.35.82.13.1c.1.1.17.17.17.24s-.13.24-.41.3-.51.14-.64.51l-.34.78h.41c1.36,0,2.89-.1,2.89-.1.57,0,.68-.3,1-.3s2.38,1.09,2.38,1.59c0,.17-.21.34-.55.62s-.4.37-.74,1a29,29,0,0,1-2.45,4.28c2.21,1.57,5.51,2.76,10.4,2.76Zm-22.95-23.8c-.47.17-.64.1-1,.58-3,4.18-6.09,7.27-6.7,7.27a.39.39,0,0,1-.27-.13A10.63,10.63,0,0,0,285,68.71c-.17-.07-.28-.1-.28-.2s.07-.1.21-.17A22.85,22.85,0,0,0,293,59.91c.07-.14.1-.24.17-.24l.1,0c.55.14,3.37,1.23,3.37,1.91C296.61,61.85,296.34,62.05,295.79,62.22ZM304,78.33a9.17,9.17,0,0,0,1.77,3,17.67,17.67,0,0,0,1.63-3Z"/><path d="M346.79,73.47c-5-.24-7.34-.3-10-.34,0,.92,0,2.21,0,3.68,3.5,0,6.22-.07,12.61-.38.34,0,.41.1.41,1.77s-.1,1.7-.41,1.7c-6.15-.27-9.21-.34-12.58-.38.07,3.51.21,7.42.34,10,0,.21-.13.38-2,.38-1.73,0-2,0-2-.44.21-3.34.34-6.87.44-10-3.56,0-6,.11-12.4.38-.45,0-.48-.17-.48-1.74,0-1.73,0-1.73.48-1.73,6.35.31,9.35.38,12.47.38,0-1.47,0-2.73,0-3.68-2.79,0-4.56.1-9.83.34h-.1c-.24,0-.31,0-.31-1.63s0-1.66.41-1.66c5.17.27,7.41.34,9.83.34a76.53,76.53,0,0,0-.55-10.78c0-.07,0-.14,0-.21s.07-.1.14-.1c.23,0,4.75.27,4.75,1.12,0,.34-.4.82-.68,1.6s-.47,4.12-.51,8.37c2.76,0,4.8-.07,10-.34.24,0,.27.1.31.3s0,.82,0,1.4,0,1.12,0,1.39c0,.1-.07.2-.24.2Zm-17.17-3.94c-.1,0-.2-.07-.3-.24a27.42,27.42,0,0,0-4.7-4.59c-.13-.1-.23-.17-.23-.27,0-.34,1.73-1.67,1.93-1.67.45,0,5.89,3.54,5.89,4.32A7.43,7.43,0,0,1,329.62,69.53Zm15.71-3.94c-.58.27-3.44,2.68-5.1,3.84a.38.38,0,0,1-.27.1.18.18,0,0,1-.17-.1A5,5,0,0,0,338,68.34c-.1-.07-.13-.14-.13-.17A.19.19,0,0,1,338,68a28.81,28.81,0,0,0,5.1-5.64c.07-.14.14-.2.24-.2.44,0,3.26,2,3.26,2.72C346.55,65.31,345.8,65.31,345.33,65.59Z"/><path d="M354.44,91.18A.54.54,0,0,1,354,91a3.18,3.18,0,0,1-.91-1.73.6.6,0,0,1,.23-.48c3.64-2.14,6.91-7.61,6.91-14.41,0-6.46-3.27-12-6.91-14.15a.51.51,0,0,1-.3-.47,2.8,2.8,0,0,1,1.39-1.94c.41,0,9.28,5,9.28,16.52,0,8.81-4.82,14.52-9.07,16.8A.35.35,0,0,1,354.44,91.18Z"/><path d="M117.75,17.36c-2.56.49-4.81.93-7,1.39-.8.19-1,.23-1.32.33a1.16,1.16,0,0,1-.47.17.5.5,0,0,1-.4-.31,15.11,15.11,0,0,1-.77-2.27,29,29,0,0,0,3.34-.36c2.58-.38,7.2-1.07,12.61-1.78.32,0,.42.08.45.23a12.46,12.46,0,0,1,.23,1.85c0,.25-.13.31-.4.31a9.35,9.35,0,0,0-2.56.46c-3.57,1.22-5.36,3.68-5.36,6.2,0,2.7,1.93,4.18,5.59,4.41.33,0,.46.08.46.31a7.36,7.36,0,0,1-.23,1.81c-.06.31-.15.44-.4.44-3.7,0-7.75-2.12-7.75-6.49,0-3,1.49-5,4-6.66Zm4.16,2.27c.11-.08.19-.06.32,0a9.93,9.93,0,0,1,2,2.25.21.21,0,0,1-.06.33l-.89.65a.21.21,0,0,1-.35-.06,10.44,10.44,0,0,0-2.12-2.43Zm1.87-1.36c.12-.09.19-.07.31,0a8.47,8.47,0,0,1,2,2.16.25.25,0,0,1-.06.38l-.84.65a.22.22,0,0,1-.36-.07,10,10,0,0,0-2.1-2.41Z"/><path d="M134.74,14.65a5.54,5.54,0,0,0-.73-1.34,14.54,14.54,0,0,1,2.54-.23c.29,0,.46.17.46.38s0,.27,0,.39a4.13,4.13,0,0,0,.08.64c.15.54.21.73.34,1.09a32.26,32.26,0,0,0,4.28-1.12c.19-.08.3-.06.36.11.12.4.27,1,.36,1.41a.32.32,0,0,1-.26.37c-1.4.44-2.68.76-4.11,1.08.19.52.46,1.17.73,1.76a25.7,25.7,0,0,0,3.82-1.09c.21-.11.32-.07.38.12a7.53,7.53,0,0,1,.38,1.39c0,.19,0,.29-.17.38a26.71,26.71,0,0,1-3.55,1,16.25,16.25,0,0,0,2.75,3.63c.21.19.21.27.11.5a6.37,6.37,0,0,1-.86,1.3c-.13.15-.21.21-.34.21a.56.56,0,0,1-.29-.12,5.57,5.57,0,0,0-1.24-.68,10.27,10.27,0,0,0-4-.67c-2,0-3.13.61-3.13,1.6,0,1.36,1.79,1.81,5,1.81.78,0,1.55-.09,2.31-.13.21,0,.27.1.25.27a12.64,12.64,0,0,1-.42,1.91c-.06.21-.14.3-.44.32-.48,0-1,.06-1.51.06-4.83,0-7.39-1.36-7.39-4,0-2.24,1.93-3.65,5.21-3.65a9.89,9.89,0,0,1,3.61.52,21.85,21.85,0,0,1-1.74-2.47,53.25,53.25,0,0,1-5.76.63c-.23,0-.31-.09-.38-.3a10.9,10.9,0,0,1-.37-1.72,36.79,36.79,0,0,0,5.64-.52c-.21-.44-.52-1.16-.79-1.75a35.57,35.57,0,0,1-5.11.51c-.25,0-.37-.09-.42-.3s-.21-1-.33-1.68a37.1,37.1,0,0,0,5.23-.33C135.08,15.53,135,15.18,134.74,14.65Z"/><path d="M150.93,24c.19.1.21.21.11.38a3.37,3.37,0,0,0-.55,1.59c0,1.32,1.37,2,5,2a27.22,27.22,0,0,0,5.69-.6c.29-.07.4,0,.44.18a18.44,18.44,0,0,1,.34,2.06c0,.19-.11.28-.36.32a33.89,33.89,0,0,1-6.15.5c-4.85,0-7.22-1.51-7.22-4.24a5.51,5.51,0,0,1,1.11-3C149.86,23.45,150.39,23.72,150.93,24Zm4.75-8.23c1.53,0,3-.09,4.37-.19.21,0,.29.06.31.23a11.28,11.28,0,0,1,.19,1.78c0,.3-.1.42-.36.44a12.34,12.34,0,0,0-5.14,2.08.88.88,0,0,1-.53.19.94.94,0,0,1-.44-.12,4.89,4.89,0,0,0-1.47-.68c1.1-.71,2-1.3,2.75-1.74a11.49,11.49,0,0,1-1.53.07,25.29,25.29,0,0,1-3.86-.36c-.19,0-.27-.13-.27-.38,0-.5,0-1.11.08-1.87A26.36,26.36,0,0,0,155.68,15.79Zm5.71-2.33c.11-.09.19-.07.32,0a9.52,9.52,0,0,1,2,2.25.21.21,0,0,1-.06.33l-.88.65a.22.22,0,0,1-.36-.06,10.5,10.5,0,0,0-2.12-2.44Zm1.87-1.37c.13-.08.19-.06.31,0a8.67,8.67,0,0,1,2,2.17.24.24,0,0,1-.06.37l-.84.66a.22.22,0,0,1-.36-.07,10,10,0,0,0-2.1-2.41Z"/><path d="M174.85,13.56c.25.06.38.17.38.34s-.15.59-.15.88.07.92.11,1.41a30.23,30.23,0,0,0,.67,3.61l3-1.6a5,5,0,0,0,1.45-1.13,10.71,10.71,0,0,1,1.53,2,.83.83,0,0,1,.15.44c0,.21-.13.38-.42.42a10.53,10.53,0,0,0-2,.63A29.17,29.17,0,0,0,174.6,23c-1.83,1.19-2.48,2.18-2.48,3.17,0,1.24.93,1.76,3.34,1.76a37.17,37.17,0,0,0,6.41-.48c.23,0,.33,0,.37.25a17.12,17.12,0,0,1,.21,1.95c0,.24-.12.34-.37.36a45.18,45.18,0,0,1-6.26.32c-4,0-6.07-1.3-6.07-4,0-2.33,1.53-3.86,4-5.41a32.49,32.49,0,0,1-1.09-5.12,9.57,9.57,0,0,0-.55-2.44A12,12,0,0,1,174.85,13.56Z"/><path d="M196.88,17.09a26.26,26.26,0,0,1-2.62,9.05c-.91,1.57-2,2.41-3.57,2.41-1.85,0-3.72-2-3.72-5.39a7.73,7.73,0,0,1,2.37-5.46A9.18,9.18,0,0,1,196.17,15c5,0,8,3.11,8,7.29,0,3.9-2.21,6.36-6.47,7.64-.44.12-.63,0-.9-.38a4.36,4.36,0,0,0-1.47-1.32c3.55-.84,6.34-2.31,6.34-6.28a4.77,4.77,0,0,0-4.7-4.87Zm-6,2A6,6,0,0,0,189.22,23c0,1.93.77,3,1.43,3s1-.27,1.57-1.28a24.12,24.12,0,0,0,2.23-7.52A6.35,6.35,0,0,0,190.86,19.13Z"/><path d="M220.21,12.78c.28-.12.32-.1.4.11a16.9,16.9,0,0,0,6.8,7.75,7,7,0,0,0-1.21,1.57c-.19.32-.28.46-.4.46s-.23-.1-.44-.27a16.45,16.45,0,0,1-2-1.7c0,.61,0,1.34-.06,2.08a40.91,40.91,0,0,1-.53,5.88c-.27,1.66-1.07,2.58-3.12,2.58-.53,0-.93,0-1.43,0-.65,0-.63,0-.78-.74a4.46,4.46,0,0,0-.65-1.68,15.29,15.29,0,0,0,2.39.19c.89,0,1.24-.33,1.41-1.3a34.34,34.34,0,0,0,.4-5.21h-3.74a10.18,10.18,0,0,1-6.38,8.91,1.45,1.45,0,0,1-.5.16c-.17,0-.24-.14-.45-.5a3.92,3.92,0,0,0-1.07-1.26c3.82-1.39,5.67-3.61,6.07-7.31h-.25c-2,0-2.65.05-2.77.05s-.23,0-.23-.24V20.74a22.33,22.33,0,0,1-2,1.74c-.23.17-.36.28-.46.28s-.23-.15-.44-.46A4.64,4.64,0,0,0,207.55,21a16.43,16.43,0,0,0,6.07-6.93,6.12,6.12,0,0,0,.42-1.35,14.57,14.57,0,0,1,2.18.74c.23.1.3.21.3.35a.46.46,0,0,1-.17.32,1.65,1.65,0,0,0-.48.67A18.92,18.92,0,0,1,212,20.39c.3,0,1,0,2.65,0h5.65c1.82,0,2.52,0,2.73,0a22.14,22.14,0,0,1-4.52-6.66c-.08-.23,0-.25.19-.36Z"/><path d="M236.32,18.14a9.5,9.5,0,0,0,3.07,2.39,4.58,4.58,0,0,0-.68,1.07c-.14.34-.23.51-.37.51s-.24-.11-.47-.3a10.48,10.48,0,0,1-2.28-2.56c0,1.68.08,2.1.08,2.31s0,.23-.23.23H234c-.21,0-.23,0-.23-.23s.06-.59.08-2.1a11.06,11.06,0,0,1-2.75,2.75c-.23.17-.35.25-.48.25s-.23-.12-.36-.4a3.94,3.94,0,0,0-.75-1.15,11.24,11.24,0,0,0,3.63-2.77h-.42c-1.76,0-2.37,0-2.5,0s-.21,0-.21-.23V16.77c0-.21,0-.23.21-.23s.74.05,2.5.05h1V15a16.8,16.8,0,0,0-.15-2.54,18.06,18.06,0,0,1,2,.15c.23,0,.33.1.33.21a2.19,2.19,0,0,1-.14.5,7.72,7.72,0,0,0-.09,1.68v1.6h.88c1.79,0,2.38-.05,2.5-.05s.23,0,.23.23V18c0,.21,0,.23-.23.23s-.71,0-2.5,0Zm-3.65,7.58c-1.79,0-2.38,0-2.5,0s-.23,0-.23-.23V24.21c0-.21,0-.23.23-.23s.71,0,2.5,0h1a8.4,8.4,0,0,0,0-1.81c.84.06,1.41.11,1.87.17.23,0,.36.13.36.25a1,1,0,0,1-.11.34,3,3,0,0,0-.19,1.05h1c1.83,0,2.39,0,2.52,0s.25,0,.25.23v1.32c0,.21,0,.23-.25.23s-.69,0-2.52,0H236a6.57,6.57,0,0,0,3.13,2.69,4.58,4.58,0,0,0-1,1.07c-.21.31-.32.46-.47.46s-.25-.11-.48-.27a7.9,7.9,0,0,1-2.29-2.59,7.57,7.57,0,0,1-3.29,3.74,1,1,0,0,1-.44.19c-.15,0-.28-.13-.49-.46a4.36,4.36,0,0,0-1-1.09,5.84,5.84,0,0,0,3.7-3.74Zm-1.09-12.47c.21-.11.27-.09.42.08a12.36,12.36,0,0,1,1.15,1.95c.1.23.06.3-.21.42l-1,.47c-.25.12-.31.14-.4-.07a10.67,10.67,0,0,0-1.07-2c-.14-.21-.16-.28.13-.42Zm5.35.71a3.15,3.15,0,0,0,.29-.92,10.06,10.06,0,0,1,1.56.56c.16.07.23.17.23.25s0,.17-.19.3a1.44,1.44,0,0,0-.3.4,12.53,12.53,0,0,1-.71,1.3c-.17.27-.25.38-.38.38a.92.92,0,0,1-.4-.17,5.89,5.89,0,0,0-1-.42A11.59,11.59,0,0,0,236.93,14Zm6.21,14.55c.21.15.23.23.23.34s-.1.19-.25.25a2.34,2.34,0,0,0-.54.38,14.14,14.14,0,0,1-2.82,1.89,1.66,1.66,0,0,1-.54.21c-.19,0-.3-.15-.51-.51a4.28,4.28,0,0,0-.86-1.05A10.51,10.51,0,0,0,241,28.34a4.16,4.16,0,0,0,.72-.73A14.65,14.65,0,0,1,243.14,28.51Zm-.86-13.4c-1.87,0-2.5.05-2.62.05s-.23,0-.23-.23V13.39c0-.21,0-.23.23-.23s.75,0,2.62,0h3.91c1.89,0,2.52,0,2.64,0s.21,0,.21.23v1.54c0,.21,0,.23-.21.23s-.75-.05-2.64-.05h-1.05a16.11,16.11,0,0,1-.65,1.58h1c1.68,0,2.27,0,2.42,0s.23,0,.23.21,0,.86,0,2.45V24.9c0,1.6,0,2.31,0,2.41s0,.26-.23.26-.74-.05-2.42-.05h-2.79c-1.7,0-2.27.05-2.39.05s-.25,0-.25-.26,0-.81,0-2.41V19.4c0-1.68,0-2.39,0-2.54s0-.21.25-.21.65,0,2.1,0a12.94,12.94,0,0,0,.61-1.58Zm-.23,4.65h4V18.43h-4Zm4,3V21.33h-4v1.39Zm0,1.57h-4v1.49h4Zm-.56,3.49a.37.37,0,0,1,.27-.15.4.4,0,0,1,.21.1,11,11,0,0,0,3.46,2.08A5.14,5.14,0,0,0,248.6,31c-.19.36-.29.48-.46.48a1.16,1.16,0,0,1-.48-.19,12.36,12.36,0,0,1-3-2.29.27.27,0,0,1-.1-.21c0-.06,0-.14.17-.25Z"/><path d="M262.11,17.36c-2.56.49-4.81.93-7.06,1.39-.79.19-1,.23-1.32.33a1.12,1.12,0,0,1-.46.17.48.48,0,0,1-.4-.31,16.18,16.18,0,0,1-.78-2.27,29,29,0,0,0,3.34-.36c2.58-.38,7.2-1.07,12.62-1.78.31,0,.42.08.44.23a11.26,11.26,0,0,1,.23,1.85c0,.25-.12.31-.4.31a9.42,9.42,0,0,0-2.56.46c-3.57,1.22-5.35,3.68-5.35,6.2,0,2.7,1.93,4.18,5.58,4.41.34,0,.46.08.46.31a7.36,7.36,0,0,1-.23,1.81c-.06.31-.14.44-.4.44-3.69,0-7.74-2.12-7.74-6.49,0-3,1.49-5,4-6.66Zm4.16,2.27c.1-.08.18-.06.31,0a9.7,9.7,0,0,1,2,2.25.2.2,0,0,1-.06.33l-.88.65c-.15.11-.25.09-.36-.06a10.44,10.44,0,0,0-2.12-2.43Zm1.86-1.36c.13-.09.19-.07.32,0a8.42,8.42,0,0,1,2,2.16.24.24,0,0,1-.06.38l-.84.65a.22.22,0,0,1-.36-.07,9.77,9.77,0,0,0-2.1-2.41Z"/><path d="M287.1,19.42a6.92,6.92,0,0,0,0-1.43,9.41,9.41,0,0,1,2.43.9.4.4,0,0,1,.15.57,3.73,3.73,0,0,0-.34.82c-.17.88-.38,1.81-.59,2.71A25.35,25.35,0,0,1,292,25c.21.13.19.24.13.44a16.08,16.08,0,0,1-.91,1.81c-.06.11-.12.15-.19.15a.4.4,0,0,1-.25-.15,16.21,16.21,0,0,0-2.75-2,12.91,12.91,0,0,1-4.24,5.52c-.19.15-.29.23-.42.23a.53.53,0,0,1-.31-.15,4.42,4.42,0,0,0-1.83-.86,11.59,11.59,0,0,0,4.7-5.69,14,14,0,0,0-4.15-1.28,14.71,14.71,0,0,1-2.57,4.2,3.42,3.42,0,0,1-2.68,1.16c-1.22,0-2.5-.84-2.5-2.88,0-2.6,2.69-4.64,6.19-4.64.69-1.74,1.22-3.21,1.74-5l-2.89.34a4.09,4.09,0,0,0-.95.23,1.12,1.12,0,0,1-.38.08.33.33,0,0,1-.33-.23,12.64,12.64,0,0,1-.61-2.29,7.69,7.69,0,0,0,1.85.13,23.17,23.17,0,0,0,3.25-.27,2.44,2.44,0,0,0,1-.36.47.47,0,0,1,.27-.08.52.52,0,0,1,.3.08,6.68,6.68,0,0,1,1.42,1.15.51.51,0,0,1,.19.36c0,.13-.08.23-.21.36a2.76,2.76,0,0,0-.56,1.09c-.55,1.43-1.14,3.07-1.77,4.58a17.42,17.42,0,0,1,4.08,1.05A22.13,22.13,0,0,0,287.1,19.42ZM276,25.28c0,.67.23,1,.74,1a1.69,1.69,0,0,0,1.21-.8,13.58,13.58,0,0,0,1.54-2.56C277.35,23,276,24.08,276,25.28Z"/><path d="M301.88,21.16a6.36,6.36,0,0,1,3.34-.94,4.87,4.87,0,0,1,5.21,5c0,3.5-2.84,5.75-7.33,5.75-2.64,0-4.24-1.13-4.24-3.09a2.79,2.79,0,0,1,3-2.56,3.83,3.83,0,0,1,3.95,3.07,3.16,3.16,0,0,0,2.14-3.19,3.07,3.07,0,0,0-3.3-3.18,8.54,8.54,0,0,0-5.37,2.23c-.61.55-1.2,1.15-1.83,1.79-.15.14-.25.23-.36.23a.54.54,0,0,1-.31-.19,10,10,0,0,1-1.24-1.37c-.13-.17-.06-.31.1-.48a50.43,50.43,0,0,0,5-4.64c1.3-1.34,2.29-2.39,3.26-3.59-1.26.23-2.76.52-4.06.8a5.77,5.77,0,0,0-.88.25,1.51,1.51,0,0,1-.42.1.47.47,0,0,1-.46-.35,10.53,10.53,0,0,1-.74-2.27,10.7,10.7,0,0,0,2,0c1.28-.12,3.13-.4,4.76-.71a5.48,5.48,0,0,0,1.16-.32,1.08,1.08,0,0,1,.4-.17.78.78,0,0,1,.48.17,8.4,8.4,0,0,1,1.41,1.35.73.73,0,0,1,.23.5.55.55,0,0,1-.36.5,3.38,3.38,0,0,0-.92.68c-1.54,1.49-2.94,3-4.54,4.49Zm0,6c-.61,0-1,.35-1,.79,0,.66.56,1.1,1.82,1.1a4.21,4.21,0,0,0,1-.09C303.42,27.8,302.79,27.15,301.9,27.15Z"/><path d="M328,22.55H315.2V21.33H328Z"/><path class="cls-3" d="M338.7,19.17c.27-.11.33-.07.44.14a18.71,18.71,0,0,1,1.4,3.78c.07.23,0,.3-.25.38l-1.05.32c-.25.08-.31.06-.36-.17l-.23-.9-1.3.12v5.78c0,1.93,0,2.64,0,2.75s0,.23-.23.23h-1.59c-.21,0-.23,0-.23-.23s0-.82,0-2.75V23l-1.91.13a2,2,0,0,0-.78.16.61.61,0,0,1-.31.11c-.15,0-.19-.15-.24-.36-.12-.54-.2-1.09-.29-1.76a17.83,17.83,0,0,0,1.79,0c.39-.5.79-1.05,1.17-1.59A33.61,33.61,0,0,0,332,16.71c-.09-.08-.13-.12-.13-.19a.75.75,0,0,1,.15-.27l.73-1.05c.09-.13.15-.19.21-.19s.11,0,.19.13l.55.56a19.11,19.11,0,0,0,1.13-2.16,6.42,6.42,0,0,0,.49-1.3,17.57,17.57,0,0,1,1.78.75c.21.11.27.21.27.34a.37.37,0,0,1-.19.27,1.28,1.28,0,0,0-.39.51,32.65,32.65,0,0,1-1.85,2.9c.33.37.67.73,1,1.11.49-.78.95-1.56,1.41-2.33a11.37,11.37,0,0,0,.63-1.45,19,19,0,0,1,1.76.9c.19.11.26.19.26.32s-.07.23-.23.31a2.73,2.73,0,0,0-.7.84c-1.07,1.7-2.2,3.3-3.17,4.56.76,0,1.51-.11,2.27-.17-.15-.4-.32-.82-.5-1.22-.09-.21-.09-.25.21-.38Zm-6,6.25a5.64,5.64,0,0,0,0-1.17c.53.06,1.26.21,1.62.29s.36.15.36.25a.61.61,0,0,1-.11.3,2.85,2.85,0,0,0-.13.69,23.25,23.25,0,0,1-.73,3.91c-.11.33-.17.46-.29.46a.83.83,0,0,1-.38-.17,7.64,7.64,0,0,0-1.2-.55A16.77,16.77,0,0,0,332.69,25.42Zm6.55-1.15c.25-.06.27,0,.36.19a19,19,0,0,1,.78,3.5c0,.24,0,.3-.28.38l-1,.28c-.33.08-.35.06-.37-.15a22.4,22.4,0,0,0-.68-3.63c-.06-.24,0-.28.26-.34Zm7,2v2.77h2c2,0,2.66,0,2.77,0s.25,0,.25.21v1.49c0,.21,0,.23-.25.23s-.78,0-2.77,0h-5.75c-2,0-2.69,0-2.82,0s-.23,0-.23-.23V29.25c0-.19,0-.21.23-.21s.8,0,2.82,0h1.72V26.31h-.65c-1.79,0-2.4,0-2.52,0s-.23,0-.23-.23V24.71c0-.21,0-.23.23-.23s.73,0,2.52,0h.65v-.46a10.59,10.59,0,0,0-.13-2.18c.78,0,1.37.08,2.08.16.21,0,.34.13.34.23a1,1,0,0,1-.11.38,3.62,3.62,0,0,0-.13,1.3v.57h1.22c1.79,0,2.4,0,2.52,0s.25,0,.25.23v1.41c0,.21,0,.23-.25.23s-.73,0-2.52,0Zm1.81-13a.93.93,0,0,0,.48-.1.55.55,0,0,1,.28-.09c.14,0,.42.15.88.57s.69.69.69.84-.06.21-.25.36a2.87,2.87,0,0,0-.59.9,12.24,12.24,0,0,1-2.46,3.44,15,15,0,0,0,4.18,1.41,5.45,5.45,0,0,0-.73,1.55c-.11.38-.15.51-.34.51a2.63,2.63,0,0,1-.48-.11,15.11,15.11,0,0,1-4.26-2,16.68,16.68,0,0,1-3.61,1.82,1.9,1.9,0,0,1-.53.15c-.17,0-.25-.13-.4-.44a4.88,4.88,0,0,0-.9-1.32,16,16,0,0,0,3.84-1.58,12.23,12.23,0,0,1-2.58-4.13c-.72,0-1,0-1.09,0s-.23,0-.23-.21V13.54c0-.21,0-.23.23-.23s.73,0,2.62,0Zm-4.72,1.76a8.68,8.68,0,0,0,2.1,3,8.27,8.27,0,0,0,2.16-3Z"/><path class="cls-3" d="M355,18.14c.17-.21.23-.21.42-.11a16.39,16.39,0,0,1,3,2.15c.08.08.12.12.1.21a21.08,21.08,0,0,0,5.35-1.14,10.71,10.71,0,0,1-2.68-2.88l-1.51.05c-.24,0-.26,0-.26-.23V14.82c0-.19,0-.21.26-.21s.84,0,2.87,0h2.06v-.27a10.4,10.4,0,0,0-.15-2c.78,0,1.49.07,2.23.15.21,0,.33.13.33.21a1,1,0,0,1-.14.44,3,3,0,0,0-.09,1.16v.33h2.9c2.06,0,2.77,0,2.9,0s.23,0,.23.21v1.37c0,.21,0,.23-.23.23l-2.23-.05a11.46,11.46,0,0,1-2.62,2.84,24.15,24.15,0,0,0,5.65,1.13,4.26,4.26,0,0,0-.61,1.43c-.15.59-.19.59-.78.5s-.88-.14-1.32-.23V28.7c0,1.66,0,2.46,0,2.58s0,.23-.25.23h-1.66c-.21,0-.23,0-.23-.23s0-.92,0-2.58V27.59h-6.09a7.11,7.11,0,0,1-2.16,3.63c-.25.21-.38.31-.51.31s-.25-.1-.48-.33a5.9,5.9,0,0,0-1.3-1,6,6,0,0,0,2.56-3.65A17.15,17.15,0,0,0,361,22c-.4.09-.8.15-1.2.21-.59.09-.61.11-.8-.5a5.61,5.61,0,0,0-.52-1.2l-1,1.43c-.06.1-.1.15-.17.15s-.1-.05-.19-.13a16,16,0,0,0-2.94-2.29c-.1-.06-.16-.1-.16-.15s.06-.14.14-.25Zm.19,10.24a44.47,44.47,0,0,0,2-4.87,12.47,12.47,0,0,0,1.17,1c.32.26.44.36.44.55a1.69,1.69,0,0,1-.12.48c-.63,1.64-1.28,3.26-2,4.64a3,3,0,0,0-.32.84.28.28,0,0,1-.27.28.71.71,0,0,1-.38-.15A13,13,0,0,1,354.13,30,8,8,0,0,0,355.2,28.38Zm.67-15.51c.17-.21.24-.21.42-.11a17.66,17.66,0,0,1,2.9,2.19.23.23,0,0,1,.13.19c0,.06,0,.12-.13.25l-.94,1.32c-.17.21-.21.19-.38.06a17,17,0,0,0-3-2.37c-.11-.06-.15-.1-.15-.15s0-.12.15-.25Zm12.77,13V24.23h-5.58c-.05.56-.09,1.09-.15,1.61Zm-5.54-3.36h5.54v-1a17.8,17.8,0,0,1-2.86-1.09,16.61,16.61,0,0,1-2.68,1.05Zm.42-6.11a7.88,7.88,0,0,0,2.29,1.94A7.5,7.5,0,0,0,368,16.37Z"/><circle class="cls-4" cx="54.61" cy="72.03" r="52.46"/><path class="cls-5" d="M91.54,89.28l-.7-.42c-.78-.47-1.55-1-2.3-1.48l-.31-.21c-.82-.58-1.62-1.19-2.4-1.81l-.64-.53q-1-.8-1.86-1.62l-.48-.43c-.71-.67-1.39-1.36-2.06-2.08-.2-.21-.39-.42-.58-.64-.52-.56-1-1.14-1.5-1.72-.18-.22-.37-.43-.54-.65-.6-.75-1.18-1.51-1.74-2.29l-.51-.75c-.41-.6-.81-1.21-1.2-1.82-.18-.29-.36-.57-.53-.86-.49-.81-1-1.63-1.41-2.47-.15-.27-.28-.55-.43-.82-.32-.64-.64-1.28-.95-1.94-.16-.34-.32-.67-.47-1-.38-.86-.75-1.73-1.1-2.61v0h0a66.37,66.37,0,0,1-4.13-17.75H43.52a65.06,65.06,0,0,1-5.24,20.4c-.15.34-.31.67-.46,1-.31.66-.64,1.32-1,2l-.41.78C36,70.33,35.52,71.16,35,72c-.17.28-.34.56-.52.84-.39.62-.8,1.23-1.22,1.84l-.5.73c-.56.78-1.14,1.55-1.74,2.3l-.53.64c-.49.59-1,1.17-1.51,1.74l-.57.63c-.67.71-1.36,1.41-2.07,2.08l-.47.42c-.61.56-1.23,1.1-1.87,1.63l-.63.52c-.78.63-1.58,1.24-2.41,1.82l-.31.21c-.75.51-1.52,1-2.3,1.48l-.7.42c-.89.52-1.8,1-2.73,1.49H94.27C93.34,90.31,92.43,89.8,91.54,89.28ZM46.29,48.44H62.92a67.66,67.66,0,0,0,4.66,17.49l-.94,1.19-6-7.64-6,7.64-6-7.64-6,7.64-.95-1.2A67.7,67.7,0,0,0,46.29,48.44Z"/></g></g></svg>