<svg xmlns="http://www.w3.org/2000/svg" viewBox="0 0 402.35 126.86"><defs><style>.cls-1,.cls-2,.cls-4{fill:#fff;stroke:#000;stroke-miterlimit:10;}.cls-1{stroke-width:4.21px;}.cls-2{stroke-width:4.3px;}.cls-3{fill:#30c0a9;}.cls-4{stroke-width:4.3px;}.cls-5{fill:#040000;}</style></defs><title>アセット 376</title><g id="レイヤー_2" data-name="レイヤー 2"><g id="レイヤー_5" data-name="レイヤー 5"><polygon class="cls-1" points="400.2 40.55 41.89 40.55 60.63 2.11 400.2 2.11 400.2 40.55"/><rect class="cls-2" x="53.34" y="40.54" width="346.85" height="69.43"/><path d="M137.55,74.29a.42.42,0,0,1-.41.27.78.78,0,0,1-.24,0c-1.8-.65-4.89-1.36-5.33-1.5-.21-.07-.38-.1-.38-.34a11,11,0,0,1,.68-2.24c0-.1.1-.24.44-.24a32,32,0,0,1,5.58,1,.39.39,0,0,1,.31.44A21.41,21.41,0,0,1,137.55,74.29Zm-5.37,12a.29.29,0,0,1,.13-.24,44.7,44.7,0,0,0,6.67-8c.07-.11.13-.17.17-.17s.13.06.17.17a13.76,13.76,0,0,0,1.63,2,.2.2,0,0,1,.14.2,1,1,0,0,1-.07.24c-1.46,2.68-3.16,4.93-3.88,6.12-.61,1-.64,1.66-1.22,1.66S132.18,86.87,132.18,86.29Zm7.34-19.24a.64.64,0,0,1-.37-.14A52.75,52.75,0,0,0,134.49,64c-.14-.1-.27-.17-.27-.34s1.19-2.14,1.53-2.14c.51,0,5.47,2.21,5.47,2.92a.55.55,0,0,1-.07.24,13.66,13.66,0,0,1-1.36,2.21A.34.34,0,0,1,139.52,67.05Zm23,16.69c.2,0,.3.17.3.37s0,1,0,1.74a10.52,10.52,0,0,1,0,1.22c0,.17-.2.24-.37.24-4.56-.31-7.21-.34-9.79-.34-7.65,0-9.89.14-12.89.34-.2,0-.44-.07-.44-.31s0-1,0-1.49c0-1.29,0-1.77.34-1.77h.13c4.15.27,6.77.37,9.11.37,0-1.83.11-5.71.11-9s-.07-6.36-.11-7.72c-1.56,0-3.53.1-6.39.3h-.06c-.17,0-.38-.06-.38-.3s0-.85,0-1.4c0-1.73.07-1.73.47-1.73,4.08.31,6.19.34,8.09.34a92.94,92.94,0,0,0,9.56-.34c.41,0,.41.34.41,2,0,1.26-.07,1.39-.41,1.39-3.54-.23-5.17-.3-6.9-.34v0c0,.2-.21.41-.48.58s-.24.27-.24.61c0,1.7-.07,4.11-.07,6.59,0,3.2.07,7.11.11,8.94,2.58,0,5.16-.06,9.89-.37Z"/><path d="M191.4,79c0,.31-.13.34-.4.34s-1.16.07-1.84.07c-1.46,0-1.6-.07-1.6-.41v-.07l.1-1.7c-1.22,0-3.26-.06-5.81-.06-3,0-5.54,0-6.87.06-1.19,9.25-6.8,13-7.41,13a.56.56,0,0,1-.34-.13,15,15,0,0,0-3.36-1.46c-.21-.07-.28-.14-.28-.21s.07-.13.28-.24c6.49-3.09,7.92-9.65,7.92-14.92a34.67,34.67,0,0,0-.51-5.78.71.71,0,0,1,0-.27c0-.14.07-.17.24-.17h.24c3.57.24,5.51.27,7.31.27,7.17,0,8.23,0,11.86-.24.28,0,.41.07.41.38v.1c-.13,1.43-.2,3.43-.2,5.51a45.47,45.47,0,0,0,.3,5.74Zm2.93-17.85c.27,0,.34.07.34,2.11,0,1.29-.07,1.6-.38,1.6-6.86-.38-9.31-.38-13.19-.38-5.67,0-8.56.14-12.64.38-.41,0-.45-.24-.45-1.87,0-1.84,0-1.84.28-1.84h.17c6.08.31,8.12.34,11,.34,5.64,0,8.53,0,14.82-.34Zm-6.56,9.18s-1.09-.1-3.71-.1c-.68,0-1.43,0-2.28,0l-6.66.07s0,1.94,0,3.84c1.43,0,3.91.07,6.6.07s4.76,0,6-.07Z"/><path d="M211.3,82.75c0,.34-.11.58-1.7.58-.92,0-1.64,0-1.64-.47v-.07c0-.65,0-1.5.07-2.42-.37,0-.95-.06-1.46-.06s-1.19,0-1.56.06c0,1.53,0,3,.06,4.36,0,.57-.06.61-1.7.61s-1.73-.21-1.73-.55v-.1c.31-4.66.37-9.75.37-12.54,0-3.5-.06-6.26-.2-9.05,0-.13,0-.2,0-.3s.06-.21.23-.21.17,0,.28,0c1.08.1,2.58.17,4.31.17s2-.07,4.22-.21c.37,0,.44.14.44.48-.24,2.69-.24,5.81-.24,8.74,0,2.55.07,8,.28,10.74Zm-4.76-17.33c-1,0-1.53,0-1.53,0s-.07,2.11-.07,4.52c.41,0,1.09,0,1.6,0s1.22,0,1.59,0c0-2.17-.1-4.52-.1-4.52s-.34,0-1,0Zm1.59,7.31c-.37,0-1,0-1.56,0s-1.26,0-1.63,0c0,1.32,0,3,0,4.86.41,0,1.06,0,1.57,0s1.15,0,1.53,0C208.1,75.75,208.13,74,208.13,72.73ZM230,72.9c-3.77-.38-7.31-.41-9.45-.41s-3.91.07-8.37.34c-.33,0-.4-.1-.4-1.57s0-1.63.4-1.63c3.34.27,5.07.34,6.84.34V67.29c-1.53,0-3,.06-5.48.2-.3,0-.37,0-.37-1.46s.07-1.53.44-1.53c2.38.2,3.91.2,5.34.2v-.34a27.27,27.27,0,0,0-.48-5v-.17c0-.17,0-.2.24-.2.55,0,4.35.4,4.35,1.12,0,.27-.3.61-.51,1-.37.71-.34.64-.47,2.85a3.71,3.71,0,0,0,0,.68c1.3,0,2.59-.07,5.21-.24.17,0,.4,0,.4,1.57a7.8,7.8,0,0,1-.06,1.26c0,.13-.21.2-.31.2h0c-2.55-.14-3.74-.17-5.24-.2V70c2.11,0,4.86-.17,8-.41.24,0,.37.24.37,1.67,0,.54,0,1.09-.06,1.43,0,.13-.17.24-.28.24Zm-4.59,13c0,2-1.12,4.25-5.1,4.25q-.3,0-.51-.51c-.65-1.53-1.84-2.07-2.65-3-.1-.11-.17-.17-.17-.24s0-.07.13-.07.11,0,.17,0a19.84,19.84,0,0,0,2.76.28c1.29,0,2-.34,2-1.33.07-1.33.07-4,.07-5.54v-2h-1.47c-2.17,0-3.94.06-8.33.34a.32.32,0,0,1-.33-.31c0-.27,0-.78,0-1.33,0-1.63,0-1.63.37-1.63,4.22.34,5.95.34,8.33.34H222a11.79,11.79,0,0,0-.27-2,.86.86,0,0,0,0-.13c0-.14.1-.21.27-.21s4,.34,4,1a.91.91,0,0,1-.27.54c-.31.41-.41.41-.45.75,1.4-.07,3-.17,4.63-.3h0c.21,0,.34.27.34,1.69a14.3,14.3,0,0,1-.07,1.47.32.32,0,0,1-.27.23h0c-1.67-.17-3.27-.27-4.69-.3v2.92c0,1.84.17,3,.2,4.93Zm-7.51-1.49c-.07,0-.14-.07-.21-.14a19.19,19.19,0,0,0-4.25-3.64c-.1-.07-.13-.1-.13-.17,0-.37,1.49-1.36,1.83-1.56a.31.31,0,0,1,.17-.1.39.39,0,0,1,.17.06,17.37,17.37,0,0,1,4.46,2.89.34.34,0,0,1,.1.21,14.63,14.63,0,0,1-2,2.38C218,84.35,217.92,84.39,217.86,84.39Z"/><path d="M239.11,89.32c.51-4.59.75-12,.88-17.58-.3.37-3.81,4.72-4.55,4.72a.48.48,0,0,1-.28-.06,9.4,9.4,0,0,0-2.85-1.06c-.21,0-.34-.1-.34-.17s.07-.13.17-.2c5.85-4.15,10.5-12,10.91-14.28,0-.14.07-.2.17-.2.58,0,4,1.46,4,2.1,0,.24-.27.48-.78.68s-.68.14-.95.68a40.69,40.69,0,0,1-2.32,3.57c.24.07.41.17.55.21a.42.42,0,0,1,.34.41,1.12,1.12,0,0,1-.34.64,2,2,0,0,0-.51,1.63c-.14,4.22-.31,9.76-.31,14.28,0,1.77,0,3.37.1,4.69,0,.17-.1.34-1.93.34-1.6,0-1.94,0-1.94-.34Zm23.52-18.19c0,.13-.23.27-.34.27-5.1.37-5.84.44-8.84.88l-.71.11c2,10.13,7.62,12.91,8.3,12.91s1.59-1,1.83-3.8c0-.21.07-.28.17-.28s.14.07.21.17A11.67,11.67,0,0,0,266,84.15a.52.52,0,0,1,.23.51c-.91,3-2.55,4.66-4.55,4.66a5.11,5.11,0,0,1-2.72-.92c-5.61-3.54-8.09-9.52-9.35-15.47l-4.86,1h-.1a.4.4,0,0,1-.41-.24,13.42,13.42,0,0,1-.38-2.68v-.14c0-.34.17-.41.38-.41,2.14-.13,3.6-.27,4.86-.44-.27-1.73-.48-3.47-.61-5.1s-.28-3-.48-3.91a2.81,2.81,0,0,1-.07-.37.19.19,0,0,1,.21-.21c.06,0,.13,0,.2,0,3.67.44,4.42.57,4.42,1.12a3.34,3.34,0,0,1-.51,1.19,2.61,2.61,0,0,0-.2,1.12,49.33,49.33,0,0,0,.27,5.68l.75-.1c3.26-.45,4.08-.62,8.73-1.6h.07a.37.37,0,0,1,.38.3,19.37,19.37,0,0,1,.4,2.89Zm-5.16-3.54a23.27,23.27,0,0,0-4.12-2.82c-.13-.07-.27-.1-.27-.24a5.68,5.68,0,0,1,1.77-2.21c.64,0,4.79,2.31,4.79,2.76s-1.36,2.68-1.8,2.68A.49.49,0,0,1,257.47,67.59Z"/><path d="M282.76,91a.52.52,0,0,1-.41.21.29.29,0,0,1-.2-.07c-4.25-2.28-9.08-8-9.08-16.8,0-11.56,8.88-16.52,9.28-16.52a2.78,2.78,0,0,1,1.4,1.94.52.52,0,0,1-.31.47c-3.64,2.11-6.9,7.69-6.9,14.15,0,6.8,3.26,12.27,6.9,14.41a.51.51,0,0,1,.24.48A3.15,3.15,0,0,1,282.76,91Z"/><path d="M306,65.08c2.62,0,5.47-.11,10-.34.37,0,.47.2.47,1.53,0,.61,0,1.22-.06,1.63,0,.17-.21.24-.41.24-5.88-.31-9.28-.34-12.65-.34-8.7,0-12,.13-16.22.34h-.1c-.41,0-.41-.28-.41-1.64,0-1.59,0-1.76.34-1.76h.17c4.39.23,7.35.3,9.8.34a20.24,20.24,0,0,0-3.2-3.91c-.1-.11-.17-.17-.17-.24a9.08,9.08,0,0,1,2.65-1.4c.34,0,4,3.47,4,4,0,.31-1.36,1.12-2,1.5h4.32a38.42,38.42,0,0,0,2.86-5.44c.1-.28.13-.41.27-.41s3.91,1.36,3.91,2c0,.24-.34.41-.78.68a3.2,3.2,0,0,0-1,.92Zm-8.6,17.27c-.65,0-1.67,0-2.31,0s-1.26,0-2,0c0,2.82.11,5.13.14,7,0,.28-.1.38-1.46.38-.58,0-1.23,0-1.67-.07-.24,0-.34-.07-.34-.27v-.1c.14-3.06.44-7.72.44-11.09,0-2.11,0-5.81-.23-8a.82.82,0,0,1,0-.27c0-.14.07-.17.27-.17h.21a44.94,44.94,0,0,0,4.66.17c1.66,0,2.89,0,5-.17.31,0,.41.07.41.27v.14c0,.44-.2,2.34-.2,8.6,0,2.78.2,5.3.2,7.24s-.81,3.7-4.66,3.81a.48.48,0,0,1-.44-.45,10.28,10.28,0,0,0-1.94-2.68c-.06-.07-.13-.14-.13-.21s.07-.06.2-.06h.1a16.37,16.37,0,0,0,2.18.23c1.05,0,1.6-.3,1.6-1.12Zm0-3.57c0-.17,0-.72,0-1.36-.64,0-1.63,0-2.27,0s-1.36,0-2,0v2.41c.71,0,1.56,0,2,0s1.63,0,2.31,0Zm-.1-6.36s-1.13,0-2.25,0-1.9,0-1.9,0,0,1.19,0,2.52c.65,0,1.47,0,1.94,0s1.6,0,2.28,0C297.35,73.61,297.32,72.42,297.32,72.42Zm5.47-1.36c0-.1,0-.1.1-.1H303a23.62,23.62,0,0,1,3.6.64c.31.11.41.21.41.41a2.53,2.53,0,0,1-.44.95c-.21.34-.38.92-.38,3.4a68.34,68.34,0,0,0,.34,7.31c0,.14-.13.24-.3.24-.41,0-1,0-1.5,0-1.66,0-1.8-.1-1.8-.34.2-2.89.27-3.4.27-6a28.26,28.26,0,0,0-.44-6.36Zm9.86,15.54c0,1.66-2,3.09-5.34,3.09-.24,0-.44-.14-.54-.48a11.6,11.6,0,0,0-2.15-2.72c-.06-.06-.1-.1-.1-.13s.1-.14.24-.14.14,0,.24,0a19.79,19.79,0,0,0,2.28.23c1,0,1.87-.23,1.9-1.08,0-2.11.07-3.64.07-4.87,0-1.63,0-2.68,0-3.87a37.85,37.85,0,0,0-.51-7.31.43.43,0,0,1,0-.17c0-.1.07-.1.27-.1a29.83,29.83,0,0,1,4,.71c.31.1.45.27.45.44a2.14,2.14,0,0,1-.48,1c-.27.41-.51,1-.51,4.45,0,2.21,0,6.63.24,10.85Z"/><path d="M347.12,73.47c-5-.24-7.34-.3-10-.34,0,.92,0,2.21,0,3.68,3.5,0,6.22-.07,12.62-.38.34,0,.4.1.4,1.77s-.1,1.7-.4,1.7c-6.16-.27-9.22-.34-12.58-.38.07,3.51.2,7.42.34,10,0,.21-.14.38-2,.38-1.74,0-2,0-2-.44.2-3.34.34-6.87.44-10-3.57,0-6,.11-12.41.38-.44,0-.48-.17-.48-1.74,0-1.73,0-1.73.48-1.73,6.36.31,9.35.38,12.48.38,0-1.47,0-2.73,0-3.68-2.79,0-4.55.1-9.82.34h-.11c-.23,0-.3,0-.3-1.63s0-1.66.41-1.66c5.16.27,7.41.34,9.82.34a78.14,78.14,0,0,0-.54-10.78c0-.07,0-.14,0-.21s.07-.1.14-.1c.24,0,4.76.27,4.76,1.12,0,.34-.41.82-.68,1.6s-.48,4.12-.51,8.37c2.75,0,4.79-.07,10-.34.24,0,.28.1.31.3s0,.82,0,1.4,0,1.12,0,1.39c0,.1-.07.2-.24.2ZM330,69.53c-.11,0-.21-.07-.31-.24A27.79,27.79,0,0,0,325,64.7c-.14-.1-.24-.17-.24-.27,0-.34,1.73-1.67,1.94-1.67.44,0,5.88,3.54,5.88,4.32A7.4,7.4,0,0,1,330,69.53Zm15.7-3.94c-.58.27-3.43,2.68-5.1,3.84a.38.38,0,0,1-.27.1.18.18,0,0,1-.17-.1,4.94,4.94,0,0,0-1.8-1.09c-.1-.07-.14-.14-.14-.17a.22.22,0,0,1,.11-.14,28.67,28.67,0,0,0,5.09-5.64c.07-.14.14-.2.24-.2.44,0,3.27,2,3.27,2.72C346.89,65.31,346.14,65.31,345.66,65.59Z"/><path d="M354.78,91.19a.52.52,0,0,1-.41-.21,3.15,3.15,0,0,1-.92-1.73.58.58,0,0,1,.24-.48c3.64-2.14,6.9-7.61,6.9-14.41,0-6.46-3.26-12-6.9-14.15a.52.52,0,0,1-.31-.47,2.78,2.78,0,0,1,1.4-1.94c.4,0,9.28,5,9.28,16.52,0,8.81-4.83,14.52-9.08,16.8A.29.29,0,0,1,354.78,91.19Z"/><path d="M118.09,17.36c-2.56.49-4.81.93-7.06,1.39-.8.19-1,.23-1.32.33a1.12,1.12,0,0,1-.46.17.48.48,0,0,1-.4-.31,15,15,0,0,1-.78-2.27,29,29,0,0,0,3.34-.36c2.58-.38,7.2-1.07,12.62-1.78.31,0,.42.08.44.23a11.26,11.26,0,0,1,.23,1.85c0,.25-.12.31-.4.31a9.42,9.42,0,0,0-2.56.46c-3.57,1.22-5.35,3.68-5.35,6.2,0,2.7,1.93,4.18,5.58,4.41.34,0,.46.08.46.31a7.36,7.36,0,0,1-.23,1.81c-.06.31-.14.44-.4.44-3.69,0-7.74-2.12-7.74-6.49,0-3,1.49-5,4-6.66Zm4.15,2.27c.11-.08.19-.06.32,0a9.7,9.7,0,0,1,2,2.25.2.2,0,0,1-.06.33l-.88.65c-.15.11-.25.09-.36-.06a10.44,10.44,0,0,0-2.12-2.43Zm1.87-1.36c.13-.09.19-.07.32,0a8.42,8.42,0,0,1,2,2.16.24.24,0,0,1-.06.38l-.84.65a.22.22,0,0,1-.36-.06,9.63,9.63,0,0,0-2.1-2.42Z"/><path d="M135.08,14.65a5.27,5.27,0,0,0-.74-1.34,14.54,14.54,0,0,1,2.54-.23c.3,0,.46.17.46.38s0,.27,0,.4a3.28,3.28,0,0,0,.09.63c.14.54.21.73.33,1.09A32.82,32.82,0,0,0,142,14.46c.18-.08.29-.06.35.11a13.23,13.23,0,0,1,.36,1.41.32.32,0,0,1-.25.37c-1.41.44-2.69.76-4.12,1.08.19.52.46,1.17.74,1.76a26.07,26.07,0,0,0,3.82-1.09c.21-.11.31-.07.38.12a7.72,7.72,0,0,1,.37,1.39c.05.19.05.29-.16.38A27.15,27.15,0,0,1,140,21a15.67,15.67,0,0,0,2.75,3.63c.21.19.21.27.1.5a6,6,0,0,1-.86,1.3c-.12.15-.21.21-.33.21a.58.58,0,0,1-.3-.12,5.15,5.15,0,0,0-1.24-.68,10.22,10.22,0,0,0-3.94-.67c-2,0-3.13.61-3.13,1.6,0,1.36,1.78,1.81,5,1.81.77,0,1.55-.09,2.3-.13.21,0,.28.1.26.27a14,14,0,0,1-.42,1.91c-.07.21-.15.3-.44.32-.49,0-1,.06-1.52.06-4.82,0-7.39-1.36-7.39-4,0-2.24,1.94-3.65,5.21-3.65a9.89,9.89,0,0,1,3.61.52,24.75,24.75,0,0,1-1.74-2.47,50.45,50.45,0,0,1-5.75.63.34.34,0,0,1-.38-.3,9.83,9.83,0,0,1-.38-1.72,37,37,0,0,0,5.65-.52c-.21-.44-.53-1.16-.8-1.75a35.3,35.3,0,0,1-5.1.51c-.25,0-.38-.09-.42-.3s-.21-1-.34-1.68a37.1,37.1,0,0,0,5.23-.33C135.41,15.53,135.29,15.18,135.08,14.65Z"/><path d="M151.27,24c.19.1.21.21.1.38a3.46,3.46,0,0,0-.54,1.59c0,1.32,1.36,2,5,2a27.22,27.22,0,0,0,5.69-.6c.3-.07.4,0,.44.18a16.39,16.39,0,0,1,.34,2.06c0,.19-.1.28-.36.32a33,33,0,0,1-6.15.5c-4.85,0-7.22-1.51-7.22-4.24a5.51,5.51,0,0,1,1.11-3C150.2,23.45,150.72,23.72,151.27,24ZM156,15.79c1.54,0,3-.09,4.37-.19.21,0,.29.06.32.23a12.78,12.78,0,0,1,.18,1.78c0,.3-.1.42-.35.44a12.33,12.33,0,0,0-5.15,2.08.84.84,0,0,1-.52.19.91.91,0,0,1-.44-.12,4.65,4.65,0,0,0-1.47-.67c1.09-.72,2-1.31,2.75-1.75a11.49,11.49,0,0,1-1.53.07,25.41,25.41,0,0,1-3.87-.36c-.19,0-.27-.13-.27-.38,0-.5,0-1.11.08-1.87A26.42,26.42,0,0,0,156,15.79Zm5.71-2.33c.11-.09.19-.07.32,0a9.3,9.3,0,0,1,2,2.25.2.2,0,0,1-.06.33l-.88.65c-.15.11-.25.09-.36-.06a10.5,10.5,0,0,0-2.12-2.44Zm1.87-1.37c.13-.08.19-.06.32,0a8.63,8.63,0,0,1,2,2.17.23.23,0,0,1-.06.37l-.84.66a.22.22,0,0,1-.36-.07,9.77,9.77,0,0,0-2.1-2.41Z"/><path d="M175.19,13.56c.25.06.38.17.38.34s-.15.59-.15.88.06.92.1,1.41a28.21,28.21,0,0,0,.68,3.61l3-1.6a4.92,4.92,0,0,0,1.44-1.13,10.82,10.82,0,0,1,1.54,2,.91.91,0,0,1,.14.44c0,.21-.12.38-.42.42a10.53,10.53,0,0,0-2,.63A28.69,28.69,0,0,0,174.94,23c-1.83,1.2-2.48,2.18-2.48,3.17,0,1.24.92,1.76,3.34,1.76a37.13,37.13,0,0,0,6.4-.48c.23,0,.34,0,.38.25.1.57.17,1.33.21,1.95,0,.24-.13.34-.38.36a45.09,45.09,0,0,1-6.26.32c-4,0-6.07-1.3-6.07-4,0-2.33,1.54-3.86,4-5.41A32.49,32.49,0,0,1,173,15.75a9.22,9.22,0,0,0-.54-2.44A12.16,12.16,0,0,1,175.19,13.56Z"/><path d="M197.22,17.09a26.47,26.47,0,0,1-2.63,9.05c-.9,1.57-2,2.41-3.57,2.41-1.85,0-3.71-2-3.71-5.39a7.73,7.73,0,0,1,2.37-5.46A9.16,9.16,0,0,1,196.5,15c5,0,8,3.11,8,7.29,0,3.9-2.2,6.36-6.47,7.64-.44.12-.63,0-.9-.38a4.36,4.36,0,0,0-1.47-1.32C199.21,27.4,202,25.93,202,22a4.77,4.77,0,0,0-4.7-4.87Zm-6,2A6,6,0,0,0,189.55,23c0,1.93.78,3,1.43,3s1-.27,1.57-1.28a23.86,23.86,0,0,0,2.23-7.52A6.35,6.35,0,0,0,191.19,19.13Z"/><path d="M220.55,12.78c.27-.12.31-.1.4.11a16.78,16.78,0,0,0,6.8,7.75,7,7,0,0,0-1.22,1.57c-.19.32-.27.46-.4.46s-.23-.1-.44-.27a16.35,16.35,0,0,1-2-1.7c0,.61,0,1.34-.07,2.08a42.3,42.3,0,0,1-.52,5.88c-.28,1.66-1.07,2.58-3.13,2.58-.52,0-.92,0-1.43,0s-.63,0-.77-.74a4.3,4.3,0,0,0-.66-1.68,15.32,15.32,0,0,0,2.4.19c.88,0,1.24-.33,1.4-1.3a34.34,34.34,0,0,0,.4-5.21h-3.73a10.17,10.17,0,0,1-6.39,8.91,1.39,1.39,0,0,1-.5.16c-.17,0-.23-.14-.44-.5a3.92,3.92,0,0,0-1.07-1.26c3.82-1.39,5.67-3.61,6.07-7.31H215c-2,0-2.64.05-2.77.05s-.23,0-.23-.23V20.74a21.06,21.06,0,0,1-2,1.74c-.23.17-.35.28-.46.28s-.23-.15-.44-.46A4.62,4.62,0,0,0,207.89,21,16.41,16.41,0,0,0,214,14.09a5.63,5.63,0,0,0,.42-1.35,15.12,15.12,0,0,1,2.19.74c.23.1.29.21.29.35a.43.43,0,0,1-.17.32,1.75,1.75,0,0,0-.48.67,19.09,19.09,0,0,1-3.84,5.57c.29,0,1,0,2.64,0h5.65c1.83,0,2.52,0,2.73,0a22.29,22.29,0,0,1-4.51-6.66c-.09-.23,0-.25.19-.36Z"/><path d="M236.65,18.14a9.5,9.5,0,0,0,3.07,2.39,4.91,4.91,0,0,0-.67,1.07c-.15.34-.23.51-.38.51s-.23-.11-.46-.3a10.32,10.32,0,0,1-2.29-2.56c0,1.68.08,2.1.08,2.31s0,.23-.23.23h-1.4c-.21,0-.24,0-.24-.23s.07-.59.09-2.1a11.4,11.4,0,0,1-2.75,2.75c-.23.17-.36.25-.48.25s-.24-.12-.36-.39a3.88,3.88,0,0,0-.76-1.16,11.24,11.24,0,0,0,3.63-2.77h-.42c-1.76,0-2.37,0-2.49,0s-.21,0-.21-.23V16.77c0-.21,0-.23.21-.23s.73.05,2.49.05h1V15a18.19,18.19,0,0,0-.14-2.54,17.87,17.87,0,0,1,2,.15c.23,0,.34.1.34.21a2.21,2.21,0,0,1-.15.5,8.87,8.87,0,0,0-.08,1.68v1.6h.88c1.78,0,2.37-.05,2.5-.05s.23,0,.23.23V18c0,.21,0,.23-.23.23s-.72,0-2.5,0ZM233,25.72c-1.78,0-2.37,0-2.5,0s-.23,0-.23-.23V24.21c0-.21,0-.23.23-.23s.72,0,2.5,0h1a9.09,9.09,0,0,0,0-1.81c.84.07,1.4.11,1.86.17.24,0,.36.13.36.25a1,1,0,0,1-.1.34,2.54,2.54,0,0,0-.19,1.05h1c1.83,0,2.4,0,2.52,0s.26,0,.26.23v1.32c0,.21,0,.23-.26.23s-.69,0-2.52,0h-.52a6.48,6.48,0,0,0,3.13,2.69,4.44,4.44,0,0,0-1,1.07c-.21.31-.31.46-.46.46s-.25-.11-.48-.27a7.79,7.79,0,0,1-2.29-2.59,7.59,7.59,0,0,1-3.3,3.74,1,1,0,0,1-.44.19c-.15,0-.27-.13-.48-.46a4.55,4.55,0,0,0-1-1.09,5.83,5.83,0,0,0,3.69-3.74Zm-1.09-12.47c.21-.11.27-.09.42.08a11,11,0,0,1,1.15,1.95c.11.23.07.3-.21.42l-1,.47c-.25.12-.32.14-.4-.07a11.28,11.28,0,0,0-1.07-2c-.15-.21-.17-.28.12-.42Zm5.35.71a3.19,3.19,0,0,0,.3-.92,10.31,10.31,0,0,1,1.55.56c.17.07.23.17.23.26s0,.16-.19.29a1.42,1.42,0,0,0-.29.4,14.76,14.76,0,0,1-.71,1.3c-.17.27-.26.38-.38.38a.88.88,0,0,1-.4-.17,6.29,6.29,0,0,0-1-.42A10.69,10.69,0,0,0,237.26,14Zm6.22,14.55c.21.15.23.23.23.34s-.11.19-.25.25a2.37,2.37,0,0,0-.55.38,13.77,13.77,0,0,1-2.81,1.89,1.62,1.62,0,0,1-.55.21c-.19,0-.29-.15-.5-.51a4.52,4.52,0,0,0-.86-1.05,10.64,10.64,0,0,0,3.15-1.68,4.12,4.12,0,0,0,.71-.73A13.72,13.72,0,0,1,243.48,28.51Zm-.86-13.4c-1.87,0-2.5.05-2.63.05s-.23,0-.23-.23V13.39c0-.21,0-.23.23-.23s.76,0,2.63,0h3.9c1.89,0,2.52,0,2.65,0s.21,0,.21.23v1.54c0,.21,0,.23-.21.23s-.76-.05-2.65-.05h-1.05a16.11,16.11,0,0,1-.65,1.58h1c1.68,0,2.27,0,2.41,0s.23,0,.23.21,0,.86,0,2.45V24.9c0,1.6,0,2.31,0,2.41s0,.26-.23.26-.73-.05-2.41-.05H243c-1.7,0-2.27.05-2.4.05s-.25,0-.25-.26,0-.81,0-2.41V19.4c0-1.68,0-2.39,0-2.54s0-.21.25-.21.65,0,2.1,0a12.94,12.94,0,0,0,.61-1.58Zm-.23,4.65h4V18.43h-4Zm4,3V21.33h-4v1.39Zm0,1.57h-4v1.49h4Zm-.57,3.49a.39.39,0,0,1,.27-.15.37.37,0,0,1,.21.1,11,11,0,0,0,3.47,2.08,4.86,4.86,0,0,0-.86,1.18c-.19.36-.3.48-.46.48a1.14,1.14,0,0,1-.49-.19A12.12,12.12,0,0,1,245,29a.26.26,0,0,1-.11-.21c0-.06,0-.14.17-.25Z"/><path d="M262.44,17.36c-2.56.49-4.81.93-7.05,1.39-.8.19-1,.23-1.33.33a1.07,1.07,0,0,1-.46.17.5.5,0,0,1-.4-.31,15.11,15.11,0,0,1-.77-2.27,29,29,0,0,0,3.34-.36c2.58-.38,7.2-1.07,12.61-1.78.32,0,.42.08.45.23a12.46,12.46,0,0,1,.23,1.85c0,.25-.13.31-.4.31a9.35,9.35,0,0,0-2.56.46c-3.57,1.22-5.36,3.68-5.36,6.2,0,2.7,1.93,4.18,5.59,4.41.33,0,.46.08.46.31a7.87,7.87,0,0,1-.23,1.81c-.07.31-.15.44-.4.44-3.7,0-7.75-2.12-7.75-6.49,0-3,1.49-5,4-6.66Zm4.16,2.27c.1-.08.19-.06.31,0a9.72,9.72,0,0,1,2,2.25.21.21,0,0,1-.06.33l-.89.65a.21.21,0,0,1-.35-.06,10.44,10.44,0,0,0-2.12-2.43Zm1.87-1.36c.12-.09.19-.07.31,0a8.47,8.47,0,0,1,2,2.16.25.25,0,0,1-.07.38l-.84.65a.21.21,0,0,1-.35-.06,9.84,9.84,0,0,0-2.1-2.42Z"/><path d="M287.43,19.42a6.92,6.92,0,0,0,0-1.43,9.66,9.66,0,0,1,2.44.9.39.39,0,0,1,.14.57,3.7,3.7,0,0,0-.33.82c-.17.88-.38,1.81-.59,2.71a24.5,24.5,0,0,1,3.27,2c.21.13.19.24.13.44a18,18,0,0,1-.9,1.81c-.07.11-.13.15-.19.15a.36.36,0,0,1-.25-.15,17,17,0,0,0-2.75-2,12.93,12.93,0,0,1-4.25,5.52c-.18.15-.29.23-.42.23a.56.56,0,0,1-.31-.15,4.36,4.36,0,0,0-1.83-.86,11.56,11.56,0,0,0,4.71-5.69,14.19,14.19,0,0,0-4.16-1.28,14.51,14.51,0,0,1-2.56,4.2,3.46,3.46,0,0,1-2.69,1.16c-1.22,0-2.5-.84-2.5-2.88,0-2.6,2.69-4.64,6.2-4.64.69-1.74,1.21-3.21,1.74-5l-2.9.34a4,4,0,0,0-.94.23,1.23,1.23,0,0,1-.38.08.35.35,0,0,1-.34-.23,12.64,12.64,0,0,1-.61-2.29,7.69,7.69,0,0,0,1.85.13,23.18,23.18,0,0,0,3.26-.27,2.44,2.44,0,0,0,1-.36.5.5,0,0,1,.28-.08.49.49,0,0,1,.29.08,7.43,7.43,0,0,1,1.43,1.15.56.56,0,0,1,.19.36c0,.13-.09.23-.21.36a2.78,2.78,0,0,0-.57,1.09c-.55,1.43-1.13,3.07-1.76,4.58A17.35,17.35,0,0,1,287,22.13,20.36,20.36,0,0,0,287.43,19.42Zm-11.08,5.86c0,.67.23,1,.73,1a1.69,1.69,0,0,0,1.22-.8,13.62,13.62,0,0,0,1.53-2.56C277.69,23,276.35,24.08,276.35,25.28Z"/><path d="M302.22,21.16a6.31,6.31,0,0,1,3.34-.94,4.87,4.87,0,0,1,5.2,5c0,3.5-2.83,5.75-7.33,5.75-2.64,0-4.24-1.13-4.24-3.09a2.79,2.79,0,0,1,3-2.56,3.82,3.82,0,0,1,4,3.07,3.16,3.16,0,0,0,2.14-3.19A3.06,3.06,0,0,0,305,22.07a8.53,8.53,0,0,0-5.38,2.22c-.61.55-1.2,1.15-1.82,1.79-.15.14-.26.23-.36.23s-.19-.07-.32-.19a10,10,0,0,1-1.24-1.37c-.12-.17-.06-.31.11-.48a49.32,49.32,0,0,0,5-4.64c1.31-1.34,2.29-2.39,3.26-3.59-1.26.23-2.75.52-4.05.8a5.19,5.19,0,0,0-.88.25,1.7,1.7,0,0,1-.42.1.49.49,0,0,1-.47-.35,10.11,10.11,0,0,1-.73-2.27,10.59,10.59,0,0,0,1.95,0c1.28-.12,3.13-.4,4.77-.71a5.53,5.53,0,0,0,1.15-.32,1.23,1.23,0,0,1,.4-.17.76.76,0,0,1,.48.17,8.4,8.4,0,0,1,1.41,1.35.69.69,0,0,1,.23.5.54.54,0,0,1-.35.5,3.4,3.4,0,0,0-.93.68c-1.53,1.49-2.94,3-4.53,4.49Zm0,6c-.61,0-1,.35-1,.79,0,.66.57,1.1,1.83,1.1a4.12,4.12,0,0,0,1-.09C303.75,27.8,303.12,27.15,302.24,27.15Z"/><path d="M328.3,22.55H315.53V21.33H328.3Z"/><path class="cls-3" d="M336,25.72a4.27,4.27,0,0,0,.67-1.24,11.55,11.55,0,0,1,1.78.82.38.38,0,0,1,.25.33c0,.17-.1.26-.25.36a2.78,2.78,0,0,0-.5.55A14,14,0,0,1,334.45,30c-.25.19-.37.27-.5.27s-.21-.12-.42-.44a6.21,6.21,0,0,0-1.18-1.17A10.91,10.91,0,0,0,336,25.72Zm-.61-2.08c-1.87,0-2.52,0-2.65,0s-.23,0-.23-.23V21.83c0-.23,0-.25.23-.25s.78,0,2.65,0H348.1c1.87,0,2.52,0,2.65,0s.25,0,.25.25v1.62c0,.21,0,.23-.25.23s-.78,0-2.65,0h-5.19v2.81c0,1,.07,1.87.07,2.65a2.06,2.06,0,0,1-.67,1.85c-.47.35-1.12.54-3.09.54-.63,0-.69,0-.78-.44a5.13,5.13,0,0,0-.67-1.89,17.18,17.18,0,0,0,2.29.13c.46,0,.63-.13.63-.67v-5Zm12.22-9.18c1.95,0,2.64,0,2.77,0s.23,0,.23.21,0,.53,0,1.14v.94c0,1.89,0,2.23,0,2.35s0,.23-.23.23h-1.75c-.21,0-.23,0-.23-.23V16.42H335.12v2.66c0,.21,0,.23-.25.23h-1.74c-.21,0-.23,0-.23-.23s0-.46,0-2.37v-.78c0-.77,0-1.17,0-1.3s0-.21.23-.21.84,0,2.77,0h4.6V14.3a8.2,8.2,0,0,0-.19-2,20,20,0,0,1,2.37.15c.19,0,.34.1.34.25a.74.74,0,0,1-.17.38,3.21,3.21,0,0,0-.12,1.24v.16Zm-8.32,5.44c-1.93,0-2.6,0-2.71,0s-.23,0-.23-.23V18.24c0-.21,0-.23.23-.23s.78,0,2.71,0h5c1.93,0,2.6,0,2.73,0s.21,0,.21.23v1.47c0,.21,0,.23-.21.23s-.8,0-2.73,0Zm7,4.66c.21-.12.25-.12.39.07a12.52,12.52,0,0,0,4.46,3.78,6.44,6.44,0,0,0-1.1,1.4c-.19.34-.27.49-.42.49a1.07,1.07,0,0,1-.48-.26,15.68,15.68,0,0,1-4.26-4.38c-.08-.22,0-.26.19-.4Z"/><path class="cls-3" d="M359,27.38c-.88.14-1.76.25-2.6.35a3.45,3.45,0,0,0-.8.19.58.58,0,0,1-.34.11c-.12,0-.23-.09-.29-.3a9.66,9.66,0,0,1-.44-1.8c.82,0,1.47-.07,2.25-.15s1.4-.15,2.2-.25a12,12,0,0,0-.13-1.37c.34,0,.63.05.91.09a12.3,12.3,0,0,0,1.09-1.2h-3.21a21.14,21.14,0,0,1-2,1.09,1.31,1.31,0,0,1-.48.17c-.17,0-.23-.12-.44-.48a3.28,3.28,0,0,0-.76-1,20.17,20.17,0,0,0,4.81-2.9h-1.47c-1.87,0-2.52,0-2.64,0s-.21,0-.21-.23V18.45c0-.21,0-.23.21-.23s.77.05,2.64.05h.95V16.5h-.55c-1.43,0-1.89,0-2,0s-.23,0-.23-.23V15c0-.21,0-.23.23-.23s.61,0,2,0h.55a13.51,13.51,0,0,0-.15-2.31,14.68,14.68,0,0,1,2,.15c.21,0,.34.1.34.21a.91.91,0,0,1-.13.44,4.19,4.19,0,0,0-.1,1.51c1.22,0,1.64,0,1.76,0s.23,0,.23.23v1.32a17.55,17.55,0,0,0,.95-1.51,7.6,7.6,0,0,0,.59-1.43,12.64,12.64,0,0,1,1.68.88c.21.13.29.24.29.38a.41.41,0,0,1-.21.34,2,2,0,0,0-.65.73,20,20,0,0,1-1.74,2.57c.81,0,1.17-.05,1.28-.05s.25,0,.25.23v1.31c0,.21,0,.23-.25.23s-.76,0-2.52,0h-.28a16.57,16.57,0,0,1-1.7,1.52h1.93a.56.56,0,0,0,.36-.07.58.58,0,0,1,.23-.08c.15,0,.28.08.65.52s.53.61.53.78-.06.27-.25.36a1.42,1.42,0,0,0-.68.52,18.49,18.49,0,0,1-1.59,1.6.28.28,0,0,0,0,.12c1.15-.21,2.37-.42,3.5-.69a10.06,10.06,0,0,0-.14,1.18c-.05.67-.05.67-.72.8-.88.2-1.78.39-2.71.56v.15c0,.86.05,1.55.05,2.12a1.86,1.86,0,0,1-.68,1.62c-.54.4-1.05.5-2.52.5-.65,0-.69,0-.79-.48a4.72,4.72,0,0,0-.57-1.49,15,15,0,0,0,1.72.1c.59,0,.84-.17.84-.67Zm3-10.84c-.12,0-.54,0-1.76,0v1.77h.4A16.73,16.73,0,0,0,362,16.54ZM373.51,18c0,.21,0,.24-.23.24s-.46,0-1.32-.05A16.75,16.75,0,0,1,369.9,26a15.06,15.06,0,0,0,4,3.34,5.54,5.54,0,0,0-1,1.51c-.17.34-.23.49-.38.49a1.21,1.21,0,0,1-.44-.23,21.25,21.25,0,0,1-3.44-3.36A14.51,14.51,0,0,1,364,31.39a1.54,1.54,0,0,1-.53.19c-.14,0-.23-.11-.37-.4a4,4,0,0,0-1-1.28A12.81,12.81,0,0,0,367.48,26a18.11,18.11,0,0,1-1.59-4.22c-.19.27-.36.57-.55.82s-.29.36-.4.36-.23-.13-.44-.38a3.82,3.82,0,0,0-1.05-.95,17.26,17.26,0,0,0,3.36-7.47,10.38,10.38,0,0,0,.21-1.76c.59.1,1.45.29,1.91.39.25.09.36.17.36.32s-.11.27-.21.46a2.7,2.7,0,0,0-.29.95c-.13.6-.3,1.24-.51,1.91h2.52c1.76,0,2.35-.05,2.48-.05s.23,0,.23.24Zm-5.86.19c-.15.36-.29.72-.46,1.07a17.67,17.67,0,0,0,1.45,4.79,16.37,16.37,0,0,0,1.3-5.86Z"/><circle class="cls-4" cx="54.83" cy="72.04" r="52.68"/><path class="cls-5" d="M53.31,69.08,53.26,69c-.09-.26-.18-.52-.26-.77l0-.11-.24-.74v0c-.08-.25-.15-.5-.22-.75l0-.1c-.14-.51-.26-1-.37-1.52v-.08q-.09-.39-.15-.78v0c0-.26-.09-.52-.12-.79v0l-.09-.82v-.06c-.05-.56-.08-1.13-.1-1.74v-.08c0-.6,0-1.23,0-1.9v-.08c0-.34,0-.69.05-1h0a33.42,33.42,0,0,1-5.54,8.3,47.59,47.59,0,0,0,7.34,3.72Z"/><path class="cls-5" d="M56.66,68.2c-.08.25-.17.51-.26.77l0,.11-.16.45a48,48,0,0,0,7.34-3.72A33.42,33.42,0,0,1,58,57.51h0c0,.35,0,.7,0,1v.08c0,.67,0,1.3,0,1.9v.08c0,.61,0,1.18-.1,1.74v.06l-.09.82v0c0,.27-.07.53-.12.79v0c0,.26-.09.52-.15.78l0,.08c-.1.51-.22,1-.36,1.52l0,.1c-.07.25-.15.5-.22.75v0l-.24.74Z"/><path class="cls-5" d="M48.47,51.85a3,3,0,0,1-.88-2.2c-3.39,1.58-6.49,3.41-10.11,8.94h0C42.13,57,45.06,55.49,48.47,51.85Z"/><path class="cls-5" d="M58.71,51.53c1.45-.12,2-1,2-1.85A1.53,1.53,0,0,0,59,48.26l0-1.35a3,3,0,0,1,2.58,1.17A47.08,47.08,0,0,0,74.09,50.6c-1.26-4.21-5.9-6-9.86-6.19-4.37-.25-8.06,1.1-8.6,3.14a3.39,3.39,0,0,0,.59,3A2.77,2.77,0,0,0,58.71,51.53Z"/><path class="cls-5" d="M62.06,49.65a2.92,2.92,0,0,1-.87,2.2c3.41,3.64,6.34,5.13,11,6.75h0C68.56,53.06,65.46,51.23,62.06,49.65Z"/><path class="cls-5" d="M58.83,52.88a4.4,4.4,0,0,1-1.21-.05c1.5,5.75,3.91,8.77,6.92,12.35h0c-.58-5.07-1.2-8.7-4.38-12.63A4.18,4.18,0,0,1,58.83,52.88Z"/><path class="cls-5" d="M50.83,52.88a4.18,4.18,0,0,1-1.35-.34c-3.19,3.93-3.8,7.56-4.38,12.63h0c3-3.57,5.41-6.59,6.91-12.3A6.84,6.84,0,0,1,50.83,52.88Z"/><path class="cls-5" d="M54.83,69.82c2.06-5.4,2.63-8.73,1.45-17.45a4,4,0,0,1-1.1-.9,5.62,5.62,0,0,1-.35-.5,5.62,5.62,0,0,1-.35.5,4.45,4.45,0,0,1-1.11,1C52.21,61.11,52.77,64.44,54.83,69.82Z"/><path class="cls-5" d="M63.47,55.52a27.29,27.29,0,0,1,2.18,8.93c.65-.43,1.28-.87,1.88-1.33a24.09,24.09,0,0,0,3.86-3.55A26.84,26.84,0,0,1,63.47,55.52Z"/><path class="cls-5" d="M66.35,50.68a23.06,23.06,0,0,1,6.54,6.86,8.86,8.86,0,0,0,1.45-5.75A49.22,49.22,0,0,1,66.35,50.68Z"/><path class="cls-5" d="M46.19,55.52a27,27,0,0,1-7.92,4,24.09,24.09,0,0,0,3.86,3.55c.6.46,1.23.9,1.87,1.33A27.55,27.55,0,0,1,46.19,55.52Z"/><path class="cls-5" d="M43.31,50.68a49.37,49.37,0,0,1-8,1.11,8.8,8.8,0,0,0,1.45,5.75A23.06,23.06,0,0,1,43.31,50.68Z"/><path class="cls-5" d="M48.15,48.08a2.92,2.92,0,0,1,2.46-1.17h.11l0,1.35a1.55,1.55,0,0,0-1.75,1.42c0,.83.56,1.73,2,1.85a2.77,2.77,0,0,0,2.49-.94,3.39,3.39,0,0,0,.59-3c-.54-2-4.24-3.39-8.6-3.14-4,.23-8.6,2-9.86,6.19A47.08,47.08,0,0,0,48.15,48.08Z"/><path class="cls-5" d="M53,74.83l-.09.1c-.17.21-.35.41-.53.61l-.07.08-.52.58,0,0c-.18.2-.36.39-.55.57l-.07.08c-.37.37-.74.73-1.13,1.08L50,78l-.6.52h0l-.62.5,0,0-.66.48-.05,0c-.46.32-.94.64-1.45,1l-.07,0c-.52.31-1.07.62-1.66.94l-.06,0-.94.48h0a33,33,0,0,1,10,.66,48.71,48.71,0,0,0-.45-8.23Z"/><path class="cls-5" d="M50.59,72.37l.8-.16.12,0,.47-.08a47.85,47.85,0,0,0-6.9-4.5,33,33,0,0,1-4.41,9h0l.88-.57.06,0c.57-.35,1.11-.67,1.64-1l.07,0q.8-.44,1.56-.78l0,0,.76-.33h0l.74-.3h0c.25-.1.49-.18.74-.26l.09,0c.49-.16,1-.31,1.49-.44l.1,0,.77-.18h0l.76-.16Z"/><path class="cls-5" d="M40.53,87.63a3,3,0,0,1-1.47,1.86c3.06,2.15,6.2,3.92,12.8,4.3v0C48.14,90.57,45.38,88.77,40.53,87.63Z"/><path class="cls-5" d="M35.13,78.93a1.87,1.87,0,0,0-2.61-.81,1.52,1.52,0,0,0-.35,2.21L31,81a3,3,0,0,1-.28-2.81,47.22,47.22,0,0,0-4.1-12.16c-3,3.2-2.21,8.09-.43,11.63,2,3.91,5,6.44,7,5.88a3.37,3.37,0,0,0,2.35-2A2.78,2.78,0,0,0,35.13,78.93Z"/><path class="cls-5" d="M31.82,77a2.93,2.93,0,0,1,2.35-.34c1.45-4.77,1.27-8.06.36-12.88h0C31.53,69.63,31.49,73.24,31.82,77Z"/><path class="cls-5" d="M36.24,78.15a4.57,4.57,0,0,1,.56,1.07C41,75.05,42.44,71.45,44,67.05h0c-4.1,3-6.94,5.38-8.75,10.11A4,4,0,0,1,36.24,78.15Z"/><path class="cls-5" d="M40.24,85.07a4.06,4.06,0,0,1,.38,1.35c5,.79,8.45-.49,13.13-2.53v0c-4.6-.81-8.41-1.39-14.11.17A6.09,6.09,0,0,1,40.24,85.07Z"/><path class="cls-5" d="M52.91,73.14c-5.71.92-8.88,2.09-15.84,7.48a4,4,0,0,1-.23,1.4,5.45,5.45,0,0,1-.25.55,3.05,3.05,0,0,1,.6.06,4.2,4.2,0,0,1,1.4.46C46.68,79.77,49.27,77.62,52.91,73.14Z"/><path class="cls-5" d="M36.21,72.81a27.47,27.47,0,0,1,6.64-6.36c-.69-.34-1.39-.66-2.09-1a25,25,0,0,0-5-1.57A27.54,27.54,0,0,1,36.21,72.81Z"/><path class="cls-5" d="M30.57,72.74a23.18,23.18,0,0,1,2.67-9.1,8.87,8.87,0,0,0-5.7,1.62A48.28,48.28,0,0,1,30.57,72.74Z"/><path class="cls-5" d="M44.84,87.77a27.24,27.24,0,0,1,7.48,4.84,24.84,24.84,0,0,0,1.14-5.12c.09-.75.16-1.52.22-2.29A27.14,27.14,0,0,1,44.84,87.77Z"/><path class="cls-5" d="M42.09,92.69a48.84,48.84,0,0,1,5,6.36,8.77,8.77,0,0,0,4.25-4.12A23.3,23.3,0,0,1,42.09,92.69Z"/><path class="cls-5" d="M37.42,89.8a2.93,2.93,0,0,1-2.24-1.55l-.06-.1,1.19-.64a1.53,1.53,0,0,0,2.1.8c.75-.38,1.22-1.34.6-2.66A2.77,2.77,0,0,0,37,84,3.37,3.37,0,0,0,34,85c-1.5,1.49-.82,5.37,1.58,9,2.18,3.31,6,6.45,10.29,5.44A47.1,47.1,0,0,0,37.42,89.8Z"/><path class="cls-5" d="M58.15,72.19l.12,0,.8.16.11,0,.76.16h0l.76.18.11,0c.5.13,1,.28,1.49.44l.08,0,.75.26h0l.74.3h0l.76.33,0,0c.51.23,1,.49,1.55.78l.07,0c.54.29,1.08.61,1.65,1l.06,0,.88.57h0a33.57,33.57,0,0,1-4.41-9,49,49,0,0,0-6.9,4.5Z"/><path class="cls-5" d="M57.23,75.54l-.53-.61-.08-.1-.3-.37a47.67,47.67,0,0,0-.45,8.23,33,33,0,0,1,10-.66h0l-.93-.48-.06,0c-.59-.32-1.14-.63-1.66-.94l-.07,0c-.51-.31-1-.63-1.45-1l0,0-.67-.48,0,0-.63-.5h0l-.6-.52-.06,0c-.39-.35-.76-.71-1.13-1.08l-.08-.08q-.27-.27-.54-.57l0,0c-.17-.19-.35-.38-.52-.58Z"/><path class="cls-5" d="M75.49,76.62a2.91,2.91,0,0,1,2.34.34c.33-3.72.29-7.33-2.68-13.23h0C74.22,68.56,74,71.85,75.49,76.62Z"/><path class="cls-5" d="M70.64,85.65c-.61,1.32-.14,2.28.61,2.66a1.53,1.53,0,0,0,2.1-.8l1.19.64a3,3,0,0,1-2.3,1.65,47.1,47.1,0,0,0-8.48,9.63c4.28,1,8.11-2.13,10.29-5.44,2.4-3.66,3.08-7.53,1.58-9a3.39,3.39,0,0,0-2.93-1A2.8,2.8,0,0,0,70.64,85.65Z"/><path class="cls-5" d="M70.6,89.49a2.93,2.93,0,0,1-1.47-1.86c-4.86,1.14-7.61,2.94-11.34,6.14v0C64.4,93.41,67.54,91.64,70.6,89.49Z"/><path class="cls-5" d="M69.42,85.07a5.51,5.51,0,0,1,.64-1c-5.72-1.57-9.54-1-14.15-.18v0c4.68,2,8.13,3.32,13.13,2.53A4.06,4.06,0,0,1,69.42,85.07Z"/><path class="cls-5" d="M73.42,78.15a4,4,0,0,1,1-1c-1.82-4.73-4.65-7.07-8.75-10.11h0c1.59,4.39,3,8,7.2,12.14A6.08,6.08,0,0,1,73.42,78.15Z"/><path class="cls-5" d="M56.75,73.14c3.64,4.49,6.25,6.64,14.39,10a3.8,3.8,0,0,1,1.33-.49,3.05,3.05,0,0,1,.6-.06,3.87,3.87,0,0,1-.25-.55,4.27,4.27,0,0,1-.3-1.45C65.6,75.23,62.44,74.05,56.75,73.14Z"/><path class="cls-5" d="M64.81,87.77A27.15,27.15,0,0,1,56,85.2c.06.77.13,1.54.22,2.29a24.21,24.21,0,0,0,1.14,5.12A27.19,27.19,0,0,1,64.81,87.77Z"/><path class="cls-5" d="M67.56,92.69a23.21,23.21,0,0,1-9.21,2.24,8.79,8.79,0,0,0,4.26,4.12A49.57,49.57,0,0,1,67.56,92.69Z"/><path class="cls-5" d="M73.45,72.81a27.26,27.26,0,0,1,.45-8.89,25,25,0,0,0-5,1.57c-.7.3-1.4.62-2.09,1A27.47,27.47,0,0,1,73.45,72.81Z"/><path class="cls-5" d="M79.09,72.74a48.28,48.28,0,0,1,3-7.48,8.87,8.87,0,0,0-5.7-1.62A23.35,23.35,0,0,1,79.09,72.74Z"/><path class="cls-5" d="M78.92,78.23A3,3,0,0,1,78.7,81l-.06.09-1.15-.71a1.53,1.53,0,0,0-.36-2.21c-.69-.46-1.77-.39-2.6.81a2.78,2.78,0,0,0-.44,2.62,3.37,3.37,0,0,0,2.34,2c2,.56,5.06-2,7-5.88C85.23,74.16,86,69.27,83,66.07A47.22,47.22,0,0,0,78.92,78.23Z"/><path class="cls-5" d="M54.83,32.18A39.86,39.86,0,1,0,94.68,72,39.86,39.86,0,0,0,54.83,32.18Zm0,73.12A33.22,33.22,0,0,1,29.62,93.73C28.24,91.12,31,85.82,31,85.8h0s-6.1-.29-7.58-2.86A33.27,33.27,0,0,1,48.55,39.36c3,0,6.27,5.13,6.28,5.14h0s3.31-5.14,6.28-5.14A33.27,33.27,0,0,1,86.26,82.94c-1.48,2.57-7.57,2.86-7.58,2.86h0s2.73,5.32,1.35,7.93A33.2,33.2,0,0,1,54.83,105.3Z"/></g></g></svg>