<svg xmlns="http://www.w3.org/2000/svg" viewBox="0 0 402.13 126.64"><defs><style>.cls-1,.cls-2,.cls-4{fill:#fff;stroke:#000;stroke-miterlimit:10;}.cls-1{stroke-width:4.21px;}.cls-2{stroke-width:4.3px;}.cls-3{fill:#30c0a9;}.cls-4{stroke-width:4.3px;}.cls-5{fill:#040000;}</style></defs><title>アセット 377</title><g id="レイヤー_2" data-name="レイヤー 2"><g id="レイヤー_5" data-name="レイヤー 5"><polygon class="cls-1" points="399.98 40.55 41.67 40.55 60.41 2.11 399.98 2.11 399.98 40.55"/><rect class="cls-2" x="53.12" y="40.54" width="346.85" height="69.43"/><path d="M137.33,74.29a.42.42,0,0,1-.41.27.75.75,0,0,1-.24,0c-1.8-.65-4.89-1.36-5.34-1.5-.2-.07-.37-.1-.37-.34a11,11,0,0,1,.68-2.24c0-.1.1-.24.44-.24a32,32,0,0,1,5.58,1,.38.38,0,0,1,.3.44A19.74,19.74,0,0,1,137.33,74.29Zm-5.37,12a.29.29,0,0,1,.13-.24,44.23,44.23,0,0,0,6.66-8c.07-.11.14-.17.17-.17s.14.06.17.17a13.83,13.83,0,0,0,1.64,2,.19.19,0,0,1,.13.2.69.69,0,0,1-.07.24c-1.46,2.68-3.16,4.93-3.87,6.12-.61,1-.65,1.66-1.22,1.66S132,86.87,132,86.29Zm7.34-19.24a.69.69,0,0,1-.38-.14A54.59,54.59,0,0,0,134.27,64c-.14-.1-.27-.17-.27-.34s1.19-2.14,1.53-2.14c.51,0,5.47,2.21,5.47,2.92a.73.73,0,0,1-.07.24,13.66,13.66,0,0,1-1.36,2.21A.35.35,0,0,1,139.3,67.05Zm23,16.69c.21,0,.31.17.31.37s0,1,0,1.74c0,.47,0,1,0,1.22s-.2.24-.37.24C157.69,87,155,87,152.46,87c-7.65,0-9.9.14-12.89.34-.2,0-.44-.07-.44-.31s0-1,0-1.49c0-1.29,0-1.77.34-1.77h.14c4.15.27,6.77.37,9.11.37,0-1.83.1-5.71.1-9s-.06-6.35-.1-7.71c-1.56,0-3.53.1-6.39.3h-.07c-.17,0-.37-.06-.37-.3a13.33,13.33,0,0,1,0-1.4c0-1.73.07-1.73.48-1.73,4.08.31,6.19.34,8.09.34a92.63,92.63,0,0,0,9.55-.34c.41,0,.41.34.41,2,0,1.26-.07,1.39-.41,1.39-3.53-.23-5.16-.3-6.9-.34v0c0,.2-.2.41-.47.58s-.24.27-.24.61c0,1.7-.07,4.11-.07,6.59,0,3.2.07,7.11.1,8.94,2.59,0,5.17-.06,9.9-.37Z"/><path d="M191.18,79c0,.31-.14.34-.41.34s-1.15.07-1.83.07c-1.46,0-1.6-.07-1.6-.41v-.07l.1-1.7c-1.22,0-3.26-.07-5.81-.07-3,0-5.54,0-6.87.07-1.19,9.25-6.8,13-7.41,13a.56.56,0,0,1-.34-.13,15.13,15.13,0,0,0-3.37-1.46c-.2-.07-.27-.14-.27-.21s.07-.13.27-.24c6.5-3.09,7.92-9.65,7.92-14.92a34.67,34.67,0,0,0-.51-5.78.93.93,0,0,1,0-.27c0-.14.07-.17.24-.17h.24c3.57.24,5.5.27,7.31.27,7.17,0,8.22,0,11.86-.24.27,0,.41.07.41.38v.1c-.14,1.43-.21,3.43-.21,5.5a43.67,43.67,0,0,0,.31,5.75Zm2.92-17.85c.28,0,.34.07.34,2.11,0,1.29-.06,1.6-.37,1.6-6.87-.38-9.31-.38-13.19-.38-5.68,0-8.57.14-12.65.38-.4,0-.44-.24-.44-1.87,0-1.84,0-1.84.27-1.84h.17c6.09.31,8.13.34,11,.34,5.65,0,8.54,0,14.83-.34Zm-6.56,9.18s-1.08-.1-3.7-.1c-.68,0-1.43,0-2.28,0l-6.66.07s0,1.94,0,3.84c1.43,0,3.91.07,6.6.07s4.76,0,6-.07Z"/><path d="M211.07,82.75c0,.34-.1.58-1.7.58-.91,0-1.63,0-1.63-.47v-.07c0-.65,0-1.5.07-2.42-.38,0-.95-.06-1.46-.06s-1.19,0-1.57.06c0,1.53,0,3,.07,4.36,0,.57-.07.61-1.7.61s-1.73-.21-1.73-.55v-.1c.3-4.66.37-9.76.37-12.54,0-3.51-.07-6.26-.2-9.05,0-.13,0-.2,0-.3s.07-.21.24-.21.17,0,.27,0c1.09.1,2.59.17,4.32.17s2-.07,4.22-.21c.37,0,.44.14.44.48-.24,2.69-.24,5.81-.24,8.74,0,2.55.07,8,.27,10.74Zm-4.76-17.33c-.95,0-1.53,0-1.53,0s-.07,2.11-.07,4.52c.41,0,1.09,0,1.6,0s1.23,0,1.6,0c0-2.17-.1-4.52-.1-4.52s-.34,0-1,0Zm1.6,7.31c-.37,0-1,0-1.56,0s-1.26,0-1.64,0c0,1.32,0,3,0,4.86.41,0,1.05,0,1.56,0s1.16,0,1.53,0C207.88,75.75,207.91,74,207.91,72.73Zm21.83.16c-3.78-.37-7.31-.4-9.45-.4s-3.91.07-8.37.34c-.34,0-.41-.1-.41-1.57s0-1.63.41-1.63c3.33.27,5.07.34,6.84.34V67.29c-1.53,0-3,.06-5.48.2-.3,0-.37,0-.37-1.46s.07-1.53.44-1.53c2.38.2,3.91.2,5.34.2v-.34a27.27,27.27,0,0,0-.48-5v-.17c0-.17,0-.21.24-.21.54,0,4.35.41,4.35,1.13,0,.27-.3.61-.51,1-.37.71-.34.64-.47,2.85a3.71,3.71,0,0,0,0,.68c1.29,0,2.59-.07,5.2-.24.17,0,.41,0,.41,1.57a6.7,6.7,0,0,1-.07,1.26c0,.13-.2.2-.3.2h0c-2.55-.14-3.74-.17-5.23-.2V70c2.11,0,4.86-.17,8-.41.23,0,.37.24.37,1.67a13.6,13.6,0,0,1-.07,1.43c0,.13-.17.23-.27.23Zm-4.59,13c0,2-1.12,4.25-5.1,4.25q-.31,0-.51-.51c-.65-1.53-1.84-2.07-2.65-3-.11-.11-.17-.17-.17-.24s0-.07.13-.07.1,0,.17,0a19.7,19.7,0,0,0,2.76.28c1.29,0,2-.34,2-1.33.06-1.33.06-4,.06-5.54v-2h-1.46c-2.17,0-3.94.06-8.33.34a.33.33,0,0,1-.34-.31c0-.27,0-.78,0-1.33,0-1.63,0-1.63.37-1.63,4.22.34,5.95.34,8.33.34h1.36a12.86,12.86,0,0,0-.27-2c0-.07,0-.1,0-.13s.1-.21.27-.21,4,.34,4,1a.86.86,0,0,1-.27.54c-.3.41-.41.41-.44.75,1.4-.07,3-.17,4.62-.3h0c.2,0,.34.27.34,1.69,0,.55,0,1.13-.07,1.47a.32.32,0,0,1-.27.23h0c-1.66-.17-3.26-.27-4.69-.3v2.92c0,1.84.17,3,.21,4.93Zm-7.52-1.49c-.06,0-.13-.07-.2-.14a19.19,19.19,0,0,0-4.25-3.64c-.1-.07-.14-.1-.14-.17,0-.37,1.5-1.36,1.84-1.56a.31.31,0,0,1,.17-.1.39.39,0,0,1,.17.06,17.17,17.17,0,0,1,4.45,2.89.31.31,0,0,1,.11.21,14.78,14.78,0,0,1-2,2.38C217.74,84.35,217.7,84.39,217.63,84.39Z"/><path d="M238.88,89.31c.51-4.58.75-12,.89-17.57-.31.37-3.81,4.72-4.56,4.72a.45.45,0,0,1-.27-.06,9.4,9.4,0,0,0-2.85-1.06c-.21,0-.34-.1-.34-.17s.06-.13.17-.2c5.84-4.15,10.5-12,10.91-14.28,0-.14.07-.2.17-.2.58,0,4,1.46,4,2.1,0,.24-.28.48-.79.68s-.68.14-.95.68a39.91,39.91,0,0,1-2.31,3.57c.24.07.41.17.54.21a.42.42,0,0,1,.34.41,1.06,1.06,0,0,1-.34.64,2.12,2.12,0,0,0-.51,1.63c-.13,4.22-.3,9.76-.3,14.28,0,1.77,0,3.37.1,4.69,0,.17-.1.34-1.94.34-1.6,0-1.94,0-1.94-.34Zm23.53-18.18c0,.13-.24.27-.34.27-5.1.37-5.85.44-8.84.88l-.71.11c2,10.13,7.61,12.91,8.29,12.91s1.6-1,1.84-3.8c0-.21.07-.28.17-.28s.13.07.2.17a12.07,12.07,0,0,0,2.72,2.76.52.52,0,0,1,.24.51c-.92,3-2.55,4.65-4.56,4.65a5.09,5.09,0,0,1-2.71-.91c-5.61-3.54-8.1-9.52-9.35-15.47l-4.87,1h-.1a.41.41,0,0,1-.41-.24,13.43,13.43,0,0,1-.37-2.69v-.13c0-.34.17-.41.37-.41,2.15-.13,3.61-.27,4.87-.44-.28-1.73-.48-3.47-.62-5.1s-.27-3-.47-3.91a1.76,1.76,0,0,1-.07-.37.18.18,0,0,1,.2-.21c.07,0,.14,0,.21,0,3.67.44,4.42.57,4.42,1.12A3.34,3.34,0,0,1,252,62.8a2.62,2.62,0,0,0-.21,1.12,47.58,47.58,0,0,0,.28,5.68l.74-.1c3.27-.45,4.08-.62,8.74-1.6h.07a.36.36,0,0,1,.37.3,18.12,18.12,0,0,1,.41,2.89Zm-5.17-3.54a23,23,0,0,0-4.11-2.82c-.14-.07-.27-.1-.27-.24a5.75,5.75,0,0,1,1.76-2.21c.65,0,4.8,2.31,4.8,2.76s-1.36,2.68-1.8,2.68A.51.51,0,0,1,257.24,67.59Z"/><path d="M282.54,91a.51.51,0,0,1-.41.2.29.29,0,0,1-.2-.06c-4.25-2.28-9.08-8-9.08-16.8,0-11.56,8.87-16.52,9.28-16.52a2.77,2.77,0,0,1,1.39,1.94.51.51,0,0,1-.3.47c-3.64,2.11-6.9,7.69-6.9,14.15,0,6.8,3.26,12.27,6.9,14.41a.51.51,0,0,1,.24.48A3.24,3.24,0,0,1,282.54,91Z"/><path d="M318.85,86c.14,0,.24,0,.24.13a.51.51,0,0,1-.1.24c-.41.55-2.11,1.6-2.72,2.72a.48.48,0,0,1-.51.24,16.17,16.17,0,0,1-9.59-3.74,13.89,13.89,0,0,1-7.55,4.25.67.67,0,0,1-.41-.17c-1-1-2.78-1.29-3.39-1.6-.24-.13-.35-.2-.35-.27s.14-.14.31-.14a13.74,13.74,0,0,0,9.38-4.18,13.73,13.73,0,0,1-1.83-3c-4,5.31-6.56,6.36-6.63,6.36a.57.57,0,0,1-.31-.1,3.67,3.67,0,0,0-1.32-.48c0,1,.06,2,.13,3.1,0,.13-.13.24-.3.27-.34,0-.95.07-1.6.07-1.43,0-1.9,0-1.9-.41.44-4.62.68-9.45.78-14.08-1.6,1.84-3.64,3.78-4.05,3.78a.43.43,0,0,1-.27-.1,10.84,10.84,0,0,0-2.92-1.3c-.17,0-.28-.1-.28-.17s.07-.1.21-.2c5-2.65,9.45-9.28,9.92-10.84.07-.14.11-.21.21-.21s3.5,1.12,3.5,1.87c0,.24-.27.44-.82.61s-.64.11-.95.58-.88,1.33-1.73,2.45c.27.07.47.17.61.2s.34.24.34.45a1,1,0,0,1-.31.61c-.47.51-.47.81-.47,1.6,0,3.77-.14,7-.14,10.06a25.18,25.18,0,0,0,8.43-10l-4.08.58c-.44.1-.78.41-1,.41-.44,0-1.42-2-1.66-3.13a.22.22,0,0,1,0-.13c0-.14.07-.17.21-.17s.13,0,.2,0h.48c1.19,0,3-.1,5-.24l1.09-1.26c-1.77-1.25-4.42-2.61-5.1-3-.14-.07-.2-.14-.2-.21a.29.29,0,0,1,.1-.2c1.09-1.43,1.32-1.77,1.53-1.77s.1,0,.17.07l1.22.61a19.44,19.44,0,0,0,2.45-6.15c0-.17.07-.24.24-.24s3.81.88,3.81,1.67c0,.23-.45.44-.89.78a2.39,2.39,0,0,0-.68.92c-.58,1-1.77,2.92-2.65,4.28l1.73,1.09c1.74-2.21,3.34-4.56,3.64-5.68.07-.17,0-.31.24-.31S312,64,312,64.74c0,.27-.4.4-.88.64a2,2,0,0,0-.92.75c-.85,1.05-3.09,3.57-4.93,5.58l5.68-.58c-.75-.85-1.43-1.46-1.7-1.8-.1-.11-.17-.17-.17-.24A5.59,5.59,0,0,1,311,68a20.48,20.48,0,0,1,5.23,5.33.44.44,0,0,1,.07.21c0,.3-1.73,1.36-2.38,1.7a.21.21,0,0,1-.13,0c-.14,0-.24,0-.28-.14a12.38,12.38,0,0,0-.92-1.73l-6.35.82.13.1c.11.1.17.17.17.24s-.13.24-.4.3-.51.14-.65.51l-.34.78h.41c1.36,0,2.89-.1,2.89-.1.58,0,.68-.3.95-.3s2.38,1.09,2.38,1.59c0,.17-.2.34-.54.62s-.41.37-.75,1A28.11,28.11,0,0,1,308,83.26c2.21,1.57,5.51,2.76,10.4,2.76Zm-23-23.8c-.47.17-.64.1-1,.58-3,4.18-6.09,7.27-6.7,7.27a.41.41,0,0,1-.27-.13,10.63,10.63,0,0,0-2.89-1.23c-.17-.07-.27-.1-.27-.2s.06-.1.2-.17a22.85,22.85,0,0,0,8.09-8.43c.07-.14.1-.24.17-.24s.07,0,.1,0c.55.14,3.37,1.23,3.37,1.91C296.72,61.85,296.45,62.05,295.9,62.22Zm8.23,16.11a9.35,9.35,0,0,0,1.77,3,17.67,17.67,0,0,0,1.63-3Z"/><path d="M346.9,73.47c-5-.24-7.34-.3-10-.34,0,.92,0,2.21,0,3.68,3.5,0,6.22-.07,12.61-.38.34,0,.41.1.41,1.77s-.1,1.7-.41,1.7c-6.15-.27-9.21-.34-12.58-.38.07,3.51.21,7.42.34,10,0,.21-.13.38-2,.38-1.73,0-2,0-2-.44.21-3.34.34-6.87.45-10-3.57,0-6,.11-12.41.38-.44,0-.48-.17-.48-1.74,0-1.73,0-1.73.48-1.73,6.35.31,9.35.38,12.47.38,0-1.47,0-2.73,0-3.68-2.79,0-4.56.1-9.83.34h-.1c-.24,0-.3,0-.3-1.63s0-1.66.4-1.66c5.17.27,7.41.34,9.83.34a76.53,76.53,0,0,0-.55-10.78c0-.07,0-.14,0-.21s.07-.1.14-.1c.23,0,4.76.27,4.76,1.12,0,.34-.41.82-.68,1.6s-.48,4.12-.51,8.37c2.75,0,4.79-.07,10-.34.24,0,.27.1.31.3s0,.82,0,1.4,0,1.12,0,1.39c0,.1-.07.2-.24.2Zm-17.17-3.94c-.1,0-.2-.07-.3-.24a27.79,27.79,0,0,0-4.69-4.59c-.14-.1-.24-.17-.24-.27,0-.34,1.73-1.67,1.94-1.67.44,0,5.88,3.54,5.88,4.32A7.43,7.43,0,0,1,329.73,69.53Zm15.71-3.94c-.58.27-3.43,2.68-5.1,3.84a.38.38,0,0,1-.27.1.18.18,0,0,1-.17-.1,5,5,0,0,0-1.8-1.09c-.11-.07-.14-.14-.14-.17a.19.19,0,0,1,.1-.14,28.81,28.81,0,0,0,5.1-5.64c.07-.14.14-.2.24-.2.44,0,3.26,2,3.26,2.72C346.66,65.31,345.91,65.31,345.44,65.59Z"/><path d="M354.55,91.18a.51.51,0,0,1-.4-.2,3.15,3.15,0,0,1-.92-1.73.58.58,0,0,1,.24-.48c3.63-2.14,6.9-7.61,6.9-14.41,0-6.46-3.27-12-6.9-14.15a.52.52,0,0,1-.31-.47,2.8,2.8,0,0,1,1.39-1.94c.41,0,9.28,5,9.28,16.52,0,8.81-4.82,14.52-9.07,16.8A.33.33,0,0,1,354.55,91.18Z"/><path d="M117.86,17.36c-2.56.49-4.8.93-7,1.39-.8.19-1,.23-1.32.33a1.17,1.17,0,0,1-.46.17.48.48,0,0,1-.4-.31,13.94,13.94,0,0,1-.78-2.27,29,29,0,0,0,3.34-.36c2.58-.38,7.2-1.07,12.62-1.78.31,0,.42.08.44.23a12.46,12.46,0,0,1,.23,1.85c0,.25-.13.31-.4.31a9.35,9.35,0,0,0-2.56.46c-3.57,1.22-5.36,3.68-5.36,6.2,0,2.7,1.94,4.18,5.59,4.41.33,0,.46.08.46.31a7.36,7.36,0,0,1-.23,1.81c-.06.31-.15.44-.4.44-3.69,0-7.75-2.12-7.75-6.49,0-3,1.49-5,4-6.66ZM122,19.63c.11-.08.19-.06.32,0a9.93,9.93,0,0,1,2,2.25.21.21,0,0,1-.06.33l-.88.65a.22.22,0,0,1-.36-.06,10.44,10.44,0,0,0-2.12-2.43Zm1.87-1.36c.13-.09.19-.07.32,0a8.61,8.61,0,0,1,2,2.16.25.25,0,0,1-.06.38l-.84.65a.22.22,0,0,1-.36-.07,10,10,0,0,0-2.1-2.41Z"/><path d="M134.85,14.65a5.22,5.22,0,0,0-.73-1.34,14.54,14.54,0,0,1,2.54-.23c.29,0,.46.17.46.38s0,.27,0,.39a4.13,4.13,0,0,0,.08.64c.15.54.21.73.34,1.09a32.26,32.26,0,0,0,4.28-1.12c.19-.08.3-.06.36.11.13.4.27,1,.36,1.41a.32.32,0,0,1-.25.37c-1.41.44-2.69.76-4.12,1.08.19.52.46,1.17.73,1.76a25.89,25.89,0,0,0,3.83-1.09c.21-.11.31-.07.37.12a7.53,7.53,0,0,1,.38,1.39c0,.19,0,.29-.17.38a27,27,0,0,1-3.54,1,15.67,15.67,0,0,0,2.75,3.63c.21.19.21.27.1.5a6,6,0,0,1-.86,1.3c-.13.15-.21.21-.34.21a.59.59,0,0,1-.29-.12,5.57,5.57,0,0,0-1.24-.68,10.27,10.27,0,0,0-3.95-.67c-2,0-3.12.61-3.12,1.6,0,1.36,1.78,1.81,5,1.81.78,0,1.56-.09,2.31-.13.21,0,.28.1.25.27a12.64,12.64,0,0,1-.42,1.91c-.06.21-.14.3-.44.32-.48,0-1,.06-1.51.06-4.83,0-7.39-1.36-7.39-4,0-2.24,1.93-3.65,5.21-3.65a9.89,9.89,0,0,1,3.61.52,23.21,23.21,0,0,1-1.74-2.47,53,53,0,0,1-5.76.63c-.23,0-.31-.09-.37-.3a9.83,9.83,0,0,1-.38-1.72,37,37,0,0,0,5.65-.52c-.21-.44-.53-1.16-.8-1.75a35.44,35.44,0,0,1-5.1.51c-.26,0-.38-.09-.42-.3s-.21-1-.34-1.68a37.1,37.1,0,0,0,5.23-.33C135.19,15.53,135.06,15.18,134.85,14.65Z"/><path d="M151.05,24c.19.1.21.21.1.38a3.46,3.46,0,0,0-.54,1.59c0,1.32,1.36,2,5,2a27.22,27.22,0,0,0,5.69-.6c.3-.07.4,0,.44.18a16.39,16.39,0,0,1,.34,2.06c0,.19-.11.28-.36.32a33.89,33.89,0,0,1-6.15.5c-4.85,0-7.22-1.51-7.22-4.24a5.51,5.51,0,0,1,1.11-3C150,23.45,150.5,23.72,151.05,24Zm4.74-8.23c1.53,0,3-.09,4.37-.19.21,0,.29.06.31.23a11.28,11.28,0,0,1,.19,1.78c0,.3-.1.42-.35.44a12.33,12.33,0,0,0-5.15,2.08.83.83,0,0,1-1,.07,5,5,0,0,0-1.47-.68c1.09-.71,2-1.3,2.75-1.74a11.71,11.71,0,0,1-1.54.07,25.29,25.29,0,0,1-3.86-.36c-.19,0-.27-.13-.27-.38,0-.5,0-1.11.08-1.87A26.36,26.36,0,0,0,155.79,15.79Zm5.71-2.33c.11-.09.19-.07.32,0a9.52,9.52,0,0,1,2,2.25.2.2,0,0,1-.06.33l-.88.65c-.15.11-.25.09-.36-.06a10.5,10.5,0,0,0-2.12-2.44Zm1.87-1.37c.13-.08.19-.06.32,0a8.82,8.82,0,0,1,2,2.17.24.24,0,0,1-.06.37l-.84.66a.22.22,0,0,1-.36-.07,10,10,0,0,0-2.1-2.41Z"/><path d="M175,13.56c.26.06.38.17.38.34s-.14.59-.14.88.06.92.1,1.41A30.23,30.23,0,0,0,176,19.8l3-1.6a5,5,0,0,0,1.45-1.13,11.29,11.29,0,0,1,1.54,2,.91.91,0,0,1,.14.44c0,.21-.12.38-.42.42a10.53,10.53,0,0,0-2,.63A29.17,29.17,0,0,0,174.71,23c-1.82,1.19-2.47,2.18-2.47,3.17,0,1.24.92,1.76,3.33,1.76a37.17,37.17,0,0,0,6.41-.48c.23,0,.33,0,.38.25.1.57.16,1.33.21,1.95,0,.24-.13.34-.38.36a45.09,45.09,0,0,1-6.26.32c-4,0-6.07-1.3-6.07-4,0-2.33,1.54-3.86,4-5.41a32.49,32.49,0,0,1-1.09-5.12,9.16,9.16,0,0,0-.55-2.44A12,12,0,0,1,175,13.56Z"/><path d="M197,17.09a26.26,26.26,0,0,1-2.62,9.05c-.9,1.57-2,2.41-3.57,2.41-1.85,0-3.72-2-3.72-5.39a7.7,7.7,0,0,1,2.38-5.46A9.14,9.14,0,0,1,196.28,15c5,0,8,3.11,8,7.29,0,3.9-2.21,6.36-6.47,7.64-.44.12-.63,0-.9-.38a4.36,4.36,0,0,0-1.47-1.32c3.55-.84,6.34-2.31,6.34-6.28a4.77,4.77,0,0,0-4.7-4.87Zm-6,2A6,6,0,0,0,189.33,23c0,1.93.78,3,1.43,3s1-.27,1.57-1.28a23.86,23.86,0,0,0,2.23-7.52A6.35,6.35,0,0,0,191,19.13Z"/><path d="M220.32,12.78c.28-.12.32-.1.4.11a16.86,16.86,0,0,0,6.81,7.75,6.74,6.74,0,0,0-1.22,1.57c-.19.32-.27.46-.4.46s-.23-.1-.44-.27a16.45,16.45,0,0,1-2-1.7c0,.61,0,1.34-.06,2.08a42.44,42.44,0,0,1-.52,5.88c-.28,1.66-1.08,2.58-3.13,2.58-.53,0-.93,0-1.43,0-.65,0-.63,0-.78-.74a4.15,4.15,0,0,0-.65-1.68,15.29,15.29,0,0,0,2.39.19c.89,0,1.24-.33,1.41-1.3a34.34,34.34,0,0,0,.4-5.21h-3.74A10.16,10.16,0,0,1,211,31.37a1.45,1.45,0,0,1-.5.16c-.17,0-.23-.14-.44-.5A4.07,4.07,0,0,0,209,29.77c3.83-1.39,5.67-3.61,6.07-7.31h-.25c-2,0-2.64.05-2.77.05s-.23,0-.23-.24V20.74a21.06,21.06,0,0,1-2,1.74c-.23.17-.36.28-.46.28s-.23-.15-.44-.46A4.64,4.64,0,0,0,207.66,21a16.43,16.43,0,0,0,6.07-6.93,5.63,5.63,0,0,0,.42-1.35,14.57,14.57,0,0,1,2.18.74c.24.1.3.21.3.35a.43.43,0,0,1-.17.32,1.65,1.65,0,0,0-.48.67,19.09,19.09,0,0,1-3.84,5.57c.29,0,1,0,2.64,0h5.65c1.83,0,2.52,0,2.73,0a22.33,22.33,0,0,1-4.52-6.66c-.08-.23,0-.25.19-.36Z"/><path d="M236.43,18.14a9.5,9.5,0,0,0,3.07,2.39,4.56,4.56,0,0,0-.67,1.07c-.15.34-.24.51-.38.51s-.23-.11-.46-.3a10.32,10.32,0,0,1-2.29-2.56c0,1.68.08,2.1.08,2.31s0,.23-.23.23h-1.41c-.21,0-.23,0-.23-.23s.07-.59.09-2.1a11.4,11.4,0,0,1-2.75,2.75c-.24.17-.36.25-.49.25s-.23-.12-.35-.4a4,4,0,0,0-.76-1.15,11.24,11.24,0,0,0,3.63-2.77h-.42c-1.76,0-2.37,0-2.5,0s-.21,0-.21-.23V16.77c0-.21,0-.23.21-.23s.74.05,2.5.05h1V15a16.8,16.8,0,0,0-.15-2.54,18.06,18.06,0,0,1,2,.15c.23,0,.33.1.33.21a2.19,2.19,0,0,1-.14.5,7.72,7.72,0,0,0-.09,1.68v1.6h.89c1.78,0,2.37-.05,2.49-.05s.23,0,.23.23V18c0,.21,0,.23-.23.23s-.71,0-2.49,0Zm-3.65,7.58c-1.79,0-2.37,0-2.5,0s-.23,0-.23-.23V24.21c0-.21,0-.23.23-.23s.71,0,2.5,0h1a7.8,7.8,0,0,0,0-1.81c.84.06,1.41.11,1.87.17.23,0,.36.13.36.25a.8.8,0,0,1-.11.34,2.84,2.84,0,0,0-.18,1.05h1c1.83,0,2.39,0,2.52,0s.25,0,.25.23v1.32c0,.21,0,.23-.25.23s-.69,0-2.52,0h-.52a6.5,6.5,0,0,0,3.12,2.69,4.58,4.58,0,0,0-1,1.07c-.21.31-.32.46-.46.46s-.26-.11-.49-.27A7.9,7.9,0,0,1,235,27.08a7.57,7.57,0,0,1-3.29,3.74,1,1,0,0,1-.44.19c-.15,0-.28-.13-.49-.46a4.32,4.32,0,0,0-1-1.09,5.83,5.83,0,0,0,3.69-3.74Zm-1.09-12.47c.21-.11.27-.09.42.08a11,11,0,0,1,1.15,1.95c.11.23.06.3-.21.42l-1,.47c-.25.12-.31.14-.39-.07a11.3,11.3,0,0,0-1.08-2c-.14-.21-.16-.28.13-.42ZM237,14a3.15,3.15,0,0,0,.29-.92,10.06,10.06,0,0,1,1.56.56c.17.07.23.17.23.25s0,.17-.19.3a1.42,1.42,0,0,0-.29.4,12.77,12.77,0,0,1-.72,1.3c-.17.27-.25.38-.38.38a.85.85,0,0,1-.39-.17,6.29,6.29,0,0,0-1-.42A10.69,10.69,0,0,0,237,14Zm6.22,14.55c.21.15.23.23.23.34s-.11.19-.26.25a2.57,2.57,0,0,0-.54.38,13.85,13.85,0,0,1-2.82,1.89,1.58,1.58,0,0,1-.54.21c-.19,0-.29-.15-.5-.51A4.54,4.54,0,0,0,238,30a10.51,10.51,0,0,0,3.15-1.68,3.84,3.84,0,0,0,.72-.73A16.22,16.22,0,0,1,243.26,28.51Zm-.87-13.4c-1.86,0-2.49.05-2.62.05s-.23,0-.23-.23V13.39c0-.21,0-.23.23-.23s.76,0,2.62,0h3.91c1.89,0,2.52,0,2.65,0s.21,0,.21.23v1.54c0,.21,0,.23-.21.23s-.76-.05-2.65-.05h-1.05a16.11,16.11,0,0,1-.65,1.58h1c1.68,0,2.26,0,2.41,0s.23,0,.23.21,0,.86,0,2.45V24.9c0,1.6,0,2.31,0,2.41s0,.26-.23.26-.73-.05-2.41-.05h-2.8c-1.7,0-2.26.05-2.39.05s-.25,0-.25-.26,0-.81,0-2.41V19.4c0-1.68,0-2.39,0-2.54s0-.21.25-.21.65,0,2.1,0a12.94,12.94,0,0,0,.61-1.58Zm-.23,4.65h4V18.43h-4Zm4,3V21.33h-4v1.39Zm0,1.57h-4v1.49h4Zm-.57,3.49a.37.37,0,0,1,.27-.15.4.4,0,0,1,.21.1,10.91,10.91,0,0,0,3.47,2.08,5.16,5.16,0,0,0-.87,1.18c-.18.36-.29.48-.46.48a1.16,1.16,0,0,1-.48-.19,12.12,12.12,0,0,1-3-2.29.26.26,0,0,1-.11-.21c0-.06,0-.14.17-.25Z"/><path d="M262.22,17.36c-2.56.49-4.81.93-7.06,1.39-.79.19-1,.23-1.32.33a1.07,1.07,0,0,1-.46.17.49.49,0,0,1-.4-.31,16.18,16.18,0,0,1-.78-2.27,28.51,28.51,0,0,0,3.34-.36c2.58-.38,7.2-1.07,12.62-1.78.32,0,.42.08.44.23a11.26,11.26,0,0,1,.23,1.85c0,.25-.12.31-.4.31a9.49,9.49,0,0,0-2.56.46c-3.57,1.22-5.35,3.68-5.35,6.2,0,2.7,1.93,4.18,5.58,4.41.34,0,.47.08.47.31a7.37,7.37,0,0,1-.24,1.81c-.06.31-.14.44-.39.44-3.7,0-7.75-2.12-7.75-6.49,0-3,1.49-5,4-6.66Zm4.16,2.27c.1-.08.19-.06.31,0a10,10,0,0,1,2,2.25.21.21,0,0,1-.07.33l-.88.65c-.15.11-.25.09-.36-.06a10.44,10.44,0,0,0-2.12-2.43Zm1.87-1.36c.12-.09.18-.07.31,0a8.42,8.42,0,0,1,2,2.16.24.24,0,0,1-.06.38l-.84.65a.22.22,0,0,1-.36-.07A9.72,9.72,0,0,0,267.2,19Z"/><path d="M287.21,19.42a6.92,6.92,0,0,0,0-1.43,9.41,9.41,0,0,1,2.43.9.4.4,0,0,1,.15.57,3.73,3.73,0,0,0-.34.82c-.16.88-.37,1.81-.58,2.71a25.87,25.87,0,0,1,3.27,2c.21.13.19.24.13.44a16.08,16.08,0,0,1-.91,1.81c-.06.11-.12.15-.18.15a.4.4,0,0,1-.26-.15,16.21,16.21,0,0,0-2.75-2,12.91,12.91,0,0,1-4.24,5.52c-.19.15-.29.23-.42.23a.53.53,0,0,1-.31-.15,4.36,4.36,0,0,0-1.83-.86,11.48,11.48,0,0,0,4.7-5.69,14,14,0,0,0-4.15-1.28,14.71,14.71,0,0,1-2.57,4.2,3.42,3.42,0,0,1-2.68,1.16c-1.22,0-2.5-.84-2.5-2.88,0-2.6,2.69-4.64,6.19-4.64.7-1.74,1.22-3.21,1.75-5l-2.9.34a4.09,4.09,0,0,0-.95.23,1.11,1.11,0,0,1-.37.08.34.34,0,0,1-.34-.23,12.64,12.64,0,0,1-.61-2.29,7.69,7.69,0,0,0,1.85.13A22.93,22.93,0,0,0,282,13.9a2.44,2.44,0,0,0,1-.36.49.49,0,0,1,.27-.08.52.52,0,0,1,.3.08,7,7,0,0,1,1.43,1.15.56.56,0,0,1,.19.36c0,.13-.09.23-.21.36a2.78,2.78,0,0,0-.57,1.09c-.55,1.43-1.14,3.07-1.77,4.58a17.3,17.3,0,0,1,4.08,1.05A22.13,22.13,0,0,0,287.21,19.42Zm-11.09,5.86c0,.67.23,1,.74,1a1.69,1.69,0,0,0,1.22-.8,14.17,14.17,0,0,0,1.53-2.56C277.47,23,276.12,24.08,276.12,25.28Z"/><path d="M302,21.16a6.36,6.36,0,0,1,3.34-.94,4.87,4.87,0,0,1,5.21,5c0,3.5-2.83,5.75-7.33,5.75-2.64,0-4.24-1.13-4.24-3.09a2.79,2.79,0,0,1,3-2.56,3.82,3.82,0,0,1,3.95,3.07A3.16,3.16,0,0,0,308,25.24a3.07,3.07,0,0,0-3.3-3.18,8.54,8.54,0,0,0-5.37,2.23c-.61.55-1.2,1.15-1.83,1.79-.15.14-.25.23-.36.23s-.18-.07-.31-.19a10,10,0,0,1-1.24-1.37c-.12-.17-.06-.31.11-.48a51.57,51.57,0,0,0,5-4.64C302,18.29,303,17.24,304,16c-1.26.23-2.75.52-4.06.8a5.77,5.77,0,0,0-.88.25,1.51,1.51,0,0,1-.42.1.47.47,0,0,1-.46-.35,10.11,10.11,0,0,1-.73-2.27,10.59,10.59,0,0,0,2,0c1.28-.12,3.13-.4,4.77-.71a5.53,5.53,0,0,0,1.15-.32,1.08,1.08,0,0,1,.4-.17.78.78,0,0,1,.48.17,8.4,8.4,0,0,1,1.41,1.35.69.69,0,0,1,.23.5.55.55,0,0,1-.36.5,3.53,3.53,0,0,0-.92.68c-1.53,1.49-2.94,3-4.54,4.49Zm0,6c-.61,0-1,.35-1,.79,0,.66.56,1.1,1.82,1.1a4.16,4.16,0,0,0,1-.09C303.53,27.8,302.9,27.15,302,27.15Z"/><path d="M328.07,22.55H315.31V21.33h12.76Z"/><path class="cls-3" d="M335.76,25.72a3.83,3.83,0,0,0,.67-1.24,12.12,12.12,0,0,1,1.79.82.38.38,0,0,1,.25.33c0,.17-.1.26-.25.36a2.5,2.5,0,0,0-.5.55A14,14,0,0,1,334.23,30c-.25.19-.38.27-.5.27s-.21-.12-.42-.44a6.21,6.21,0,0,0-1.18-1.17A10.86,10.86,0,0,0,335.76,25.72Zm-.61-2.08c-1.86,0-2.52,0-2.64,0s-.23,0-.23-.23V21.83c0-.23,0-.25.23-.25s.78,0,2.64,0h12.73c1.87,0,2.52,0,2.64,0s.26,0,.26.25v1.62c0,.21,0,.23-.26.23s-.77,0-2.64,0h-5.19v2.81c0,1,.06,1.87.06,2.65a2,2,0,0,1-.67,1.85c-.46.35-1.11.54-3.08.54-.63,0-.7,0-.78-.44a5.32,5.32,0,0,0-.67-1.89,17.07,17.07,0,0,0,2.29.13c.46,0,.63-.13.63-.67v-5Zm12.22-9.18c2,0,2.65,0,2.78,0s.23,0,.23.21-.05.53-.05,1.14v.94c0,1.89.05,2.23.05,2.35s0,.23-.23.23H348.4c-.21,0-.23,0-.23-.23V16.42H334.9v2.66c0,.21,0,.23-.25.23h-1.74c-.21,0-.23,0-.23-.23s0-.46,0-2.37v-.78c0-.77,0-1.17,0-1.3s0-.21.23-.21.84,0,2.77,0h4.6V14.3a8.72,8.72,0,0,0-.19-2,20.09,20.09,0,0,1,2.37.15c.19,0,.34.1.34.25a.74.74,0,0,1-.17.38,2.92,2.92,0,0,0-.13,1.24v.16Zm-8.31,5.44c-1.93,0-2.6,0-2.71,0s-.23,0-.23-.23V18.24c0-.21,0-.23.23-.23s.78,0,2.71,0H344c1.94,0,2.61,0,2.73,0s.21,0,.21.23v1.47c0,.21,0,.23-.21.23s-.79,0-2.73,0Zm7,4.66c.21-.12.25-.12.4.07a12.57,12.57,0,0,0,4.45,3.78,6.73,6.73,0,0,0-1.09,1.4c-.19.34-.27.49-.42.49A1.07,1.07,0,0,1,349,30a15.54,15.54,0,0,1-4.26-4.38c-.09-.22-.05-.26.18-.4Z"/><path class="cls-3" d="M358.78,27.38c-.88.14-1.77.25-2.61.35a3.33,3.33,0,0,0-.79.19A.6.6,0,0,1,355,28c-.13,0-.23-.09-.29-.3a9.66,9.66,0,0,1-.44-1.8c.81,0,1.47-.07,2.24-.15s1.41-.15,2.21-.25c0-.48-.07-.93-.13-1.37.34,0,.63.05.9.09a12.41,12.41,0,0,0,1.1-1.2h-3.22a21,21,0,0,1-2,1.09,1.37,1.37,0,0,1-.48.17c-.17,0-.23-.13-.44-.48a3.45,3.45,0,0,0-.76-1,20.37,20.37,0,0,0,4.81-2.9H357.1c-1.87,0-2.52,0-2.65,0s-.21,0-.21-.23V18.45c0-.21,0-.23.21-.23s.78.05,2.65.05H358V16.5h-.54c-1.43,0-1.89,0-2,0s-.23,0-.23-.23V15c0-.21,0-.23.23-.23s.61,0,2,0H358a13.71,13.71,0,0,0-.14-2.31,15,15,0,0,1,2,.15c.21,0,.34.1.34.21a1,1,0,0,1-.13.44,4,4,0,0,0-.1,1.51c1.21,0,1.63,0,1.76,0s.23,0,.23.23v1.32a15.32,15.32,0,0,0,.94-1.51,7.23,7.23,0,0,0,.59-1.43,11.52,11.52,0,0,1,1.68.88c.21.13.3.24.3.38a.43.43,0,0,1-.21.34,1.88,1.88,0,0,0-.65.73,20,20,0,0,1-1.75,2.57c.82,0,1.18-.05,1.28-.05s.26,0,.26.23v1.31c0,.21,0,.23-.26.23s-.75,0-2.52,0h-.27a16.57,16.57,0,0,1-1.7,1.52h1.93a.57.57,0,0,0,.36-.07.53.53,0,0,1,.23-.08c.15,0,.27.08.65.52s.53.61.53.78-.07.27-.26.36a1.41,1.41,0,0,0-.67.52,20,20,0,0,1-1.59,1.6.31.31,0,0,0,0,.12c1.16-.21,2.38-.42,3.51-.69a10,10,0,0,0-.15,1.18c0,.67,0,.67-.71.8-.88.2-1.78.39-2.71.56v.15c0,.86,0,1.55,0,2.12A1.85,1.85,0,0,1,360.1,31c-.54.4-1.05.5-2.52.5-.65,0-.69,0-.8-.48a4.51,4.51,0,0,0-.56-1.49,14.91,14.91,0,0,0,1.72.1c.59,0,.84-.17.84-.67Zm3-10.84c-.13,0-.55,0-1.76,0v1.77h.39a15.63,15.63,0,0,0,1.43-1.73ZM373.29,18c0,.21,0,.24-.23.24s-.47,0-1.33-.05A16.63,16.63,0,0,1,369.68,26a15.17,15.17,0,0,0,4,3.34,5.77,5.77,0,0,0-1,1.51c-.17.34-.23.49-.38.49a1.21,1.21,0,0,1-.44-.23,21.25,21.25,0,0,1-3.44-3.36,14.51,14.51,0,0,1-4.62,3.61,1.61,1.61,0,0,1-.53.19c-.15,0-.23-.11-.38-.4a4,4,0,0,0-1-1.28A12.81,12.81,0,0,0,367.26,26a18.13,18.13,0,0,1-1.6-4.22c-.18.27-.35.57-.54.82s-.29.36-.4.36-.23-.13-.44-.38a4,4,0,0,0-1-.95,17.49,17.49,0,0,0,3.36-7.47,11.51,11.51,0,0,0,.21-1.76c.59.1,1.45.29,1.91.39.25.09.36.17.36.32s-.11.27-.21.46a2.87,2.87,0,0,0-.3.95,18.73,18.73,0,0,1-.5,1.91h2.52c1.76,0,2.35-.05,2.48-.05s.23,0,.23.24Zm-5.86.19c-.15.36-.3.72-.46,1.07a17.33,17.33,0,0,0,1.45,4.79,16.37,16.37,0,0,0,1.3-5.86Z"/><circle class="cls-4" cx="54.61" cy="72.03" r="52.46"/><path class="cls-5" d="M91.54,89.28l-.7-.42c-.78-.47-1.55-1-2.3-1.48l-.31-.21c-.82-.58-1.62-1.19-2.4-1.81l-.64-.53q-1-.8-1.86-1.62l-.48-.43c-.71-.67-1.39-1.36-2.06-2.08-.2-.21-.39-.42-.58-.64-.52-.56-1-1.14-1.5-1.72-.18-.22-.37-.43-.54-.65-.6-.75-1.18-1.51-1.74-2.29l-.51-.75c-.41-.6-.81-1.21-1.2-1.82-.18-.29-.36-.57-.53-.86-.49-.81-1-1.63-1.41-2.47-.15-.27-.28-.55-.43-.82-.32-.64-.64-1.28-.95-1.94-.16-.34-.32-.67-.47-1-.38-.86-.75-1.73-1.1-2.61v0h0a66.37,66.37,0,0,1-4.13-17.75H43.52a65.06,65.06,0,0,1-5.24,20.4c-.15.34-.31.67-.46,1-.31.66-.64,1.32-1,2l-.41.78C36,70.33,35.52,71.16,35,72c-.17.28-.34.56-.52.84-.39.62-.8,1.23-1.22,1.84l-.5.73c-.56.78-1.14,1.55-1.74,2.3l-.53.64c-.49.59-1,1.17-1.51,1.74l-.57.63c-.67.71-1.36,1.41-2.07,2.08l-.47.42c-.61.56-1.23,1.1-1.87,1.63l-.63.52c-.78.63-1.58,1.24-2.41,1.82l-.31.21c-.75.51-1.52,1-2.3,1.48l-.7.42c-.89.52-1.8,1-2.73,1.49H94.27C93.34,90.31,92.43,89.8,91.54,89.28ZM46.29,48.44H62.92a67.66,67.66,0,0,0,4.66,17.49l-.94,1.19-6-7.64-6,7.64-6-7.64-6,7.64-.95-1.2A67.7,67.7,0,0,0,46.29,48.44Z"/></g></g></svg>