<?xml version="1.0" encoding="utf-8"?>
<!-- Generator: Adobe Illustrator 23.0.1, SVG Export Plug-In . SVG Version: 6.00 Build 0)  -->
<svg version="1.1" id="レイヤー_1" xmlns="http://www.w3.org/2000/svg" xmlns:xlink="http://www.w3.org/1999/xlink" x="0px"
	 y="0px" viewBox="0 0 402.1 126.6" style="enable-background:new 0 0 402.1 126.6;" xml:space="preserve">
<style type="text/css">
	.st0{fill:#FFFFFF;stroke:#000000;stroke-width:4.21;stroke-miterlimit:10;}
	.st1{fill:#FFFFFF;stroke:#000000;stroke-width:4.3;stroke-miterlimit:10;}
	.st2{enable-background:new    ;}
	.st3{fill:#30C0A9;}
</style>
<title>アセット 176</title>
<g>
	<g id="レイヤー_2-2">
		<polygon class="st0" points="399.9,40.5 41.6,40.5 60.3,2.1 399.9,2.1 		"/>
		<rect x="53.1" y="40.5" class="st1" width="346.9" height="69.4"/>
		<circle class="st1" cx="54.6" cy="72" r="52.5"/>
		<g class="st2">
			<path d="M152.5,87.6c-0.1,0-0.1,0-0.2,0c-0.5-0.3-2-0.5-2.5-0.6c-0.2,0-0.3-0.1-0.3-0.2c0,0,0-0.1,0.1-0.1c1.9-2,3.7-5.1,4.2-7.5
				c0.1-0.2,0-0.4,0.2-0.4c0.3,0,2.9,0.5,2.9,1c0,0.2-0.2,0.4-0.5,0.7c-0.2,0.3-0.4,0.5-0.6,1c-0.6,1.6-1.7,4.4-3.1,6.1
				C152.8,87.5,152.6,87.6,152.5,87.6z M177.4,83.8c-0.8,0-2.2,0-3.7-0.1c0,1.1,0,1.8,0.1,2.1c0.1,0.9,0.8,0.9,3.4,0.9
				c3.5,0,3.9,0,3.9-3.4c0-0.1,0-0.1,0.1-0.1c0,0,0.1,0.1,0.2,0.2c1,1.1,2.5,1.8,2.7,1.9c0.2,0.1,0.2,0.2,0.2,0.2
				c-0.3,3.6-2.6,3.9-7.7,3.9c-3.2,0-5.5-0.3-5.5-2.6v-0.2c0-0.4,0.1-1.5,0.1-2.9c-1.3,0-2.5,0-3.4,0c0,0.4,0,0.8,0,1.2
				c0,0.2-0.1,0.3-0.3,0.3c-0.3,0-0.8,0-1.2,0c-0.4,0-0.9,0-1.1,0c-0.2,0-0.4-0.1-0.4-0.2v0c0-0.1,0-0.2,0-0.3
				c-0.5,0.2-1.5,0.5-2.1,0.8c0,0-0.1,0-0.1,0c-0.6,0-2.7-6.6-2.7-7c0-0.3,1.6-0.6,2-0.6c0.1,0,0.1,0,0.1,0.1
				c0.2,0.9,1.3,3.8,2.7,5.8c0.1-1.7,0.2-3,0.2-4.8c0-1.1,0-1.9-0.1-3.1c0,0.2-2.1,1.2-2.3,1.2c-0.1,0-0.2-0.1-0.2-0.2
				c-0.1-0.4-0.2-0.9-0.4-1.4l-1.9,0.4c0,0.1-0.1,0.2-0.3,0.4c0,0-0.2,0.2-0.2,0.6c0,4.5,0.1,6.8,0.4,12.4v0.1
				c0,0.1-0.1,0.2-0.2,0.2c-0.4,0-1.1,0.1-1.7,0.1c-1.4,0-1.5-0.1-1.5-0.4c0.4-5.7,0.4-8,0.4-12.8c-1.8,0.4-3.3,0.7-3.5,0.7
				c-0.4,0.1-0.6,0.4-0.8,0.4c-0.3,0-0.9-1.4-1.2-2.9c0-0.1,0-0.1,0-0.2c0,0,0-0.1,0.3-0.1h0.4c0.8,0,1.8-0.1,2.9-0.1
				c0.3-0.5,0.8-1.3,1.3-2.1c-1.5-0.9-3.3-1.5-4-1.8c-0.1-0.1-0.2-0.2-0.2-0.3c0,0,0-0.1,0-0.2c0.2-0.4,0.7-1.4,1-1.8
				c0.1-0.1,0.1-0.1,0.2-0.1c0,0,0.1,0,0.1,0l0.6,0.2c0.9-2.3,1.8-6.2,2-8.2c0-0.3,0-0.4,0.2-0.4c0.5,0.1,3.4,0.9,3.4,1.7
				c0,0.2-0.2,0.5-0.5,0.8c-0.3,0.3-0.4,0.7-0.5,1c-0.5,1.2-1.7,4.6-2.3,6.2c0.5,0.2,0.9,0.5,1.3,0.7c1.1-2.1,2.2-4.6,3.1-6.9
				c0.1-0.2,0-0.3,0.1-0.3c0.5,0,3.3,1.3,3.3,1.9c0,0.2-0.3,0.4-0.7,0.6c-0.3,0.2-0.4,0.5-0.6,0.8c-1.5,2.7-3.5,5.9-4.8,7.9l3.2-0.4
				l-1.1-2.2c0-0.1-0.1-0.2-0.1-0.2c0,0,0-0.3,1.6-0.7c0.1,0,0.1,0,0.1,0c0.1,0,0.2,0.1,0.3,0.2c0.5,0.7,2.3,3.3,2.9,5
				c0-0.5-0.1-1.1-0.1-1.8c0-0.1,0.1-0.2,0.2-0.2h0.1c1.8,0.1,4,0.2,6.2,0.2v-2c-1,0-1.9,0-2.5,0v0.7c0,0.2-0.1,0.3-0.3,0.3
				c-0.3,0-0.7,0-1.2,0c-0.4,0-0.8,0-1.1,0c-0.3,0-0.4-0.1-0.4-0.2c0.2-2.3,0.3-3.3,0.3-5.4c0-1.5-0.1-2.9-0.2-5.2
				c0-0.1,0.1-0.2,0.2-0.2h0.1c2.2,0.1,4.3,0.2,6.7,0.2c2.7,0,4-0.1,6.4-0.2h0.1c0.2,0,0.3,0.2,0.3,0.3c-0.1,2.2-0.2,3.5-0.2,5.2
				c0,1.5,0.1,2.8,0.3,5.1c0,0.2-0.1,0.3-0.3,0.3c-0.4,0-1,0-1.4,0c-0.4,0-0.7,0-0.9,0c-0.2,0-0.4-0.1-0.4-0.3v-0.4
				c-0.6,0-1.6,0-2.7,0c0,0.7,0,1.4,0,2c2.2,0,4.2-0.1,6.3-0.2h0.1c0.2,0,0.3,0.2,0.3,0.3c-0.1,1.4-0.2,3.5-0.2,5.2
				c0,1.6,0.1,3.2,0.3,5.1c0,0.2-0.1,0.3-0.3,0.4c-0.3,0-0.8,0-1.3,0c-1.3,0-1.5-0.1-1.5-0.4V83.8z M171.2,75.9
				c-1.8,0-3.5,0.1-3.5,0.1s0,0.8-0.1,1.7c0.9,0,2.2,0,3.6,0V75.9z M171.1,79.7c-1.4,0-2.7,0-3.5,0.1c0,0.5,0,1.2,0.1,1.9
				c0.9,0,2.2,0,3.5,0V79.7z M168.5,63.9c0,0,0,0.9,0,1.8c0.7,0,1.6,0,2.7,0c0-0.6,0-1.3,0-1.9C169.6,63.9,168.5,63.9,168.5,63.9z
				 M171.2,67.8c-1.1,0-2,0-2.7,0l0.1,2c0.7,0,1.6,0,2.6,0V67.8z M173.8,77.7c1.5,0,3,0,3.8,0c0-1,0-1.7,0-1.7s-1.8,0-3.7-0.1V77.7z
				 M173.8,81.7c1.5,0,3,0,3.8,0c0-0.7,0-1.4,0-1.9c-0.8,0-2.3,0-3.8-0.1V81.7z M173.9,67.8c0,0.6,0,1.3,0,2c1.2,0,2.1,0,2.8,0
				c0-0.8,0-1.4,0-2C176,67.8,175,67.8,173.9,67.8z M174.3,64.1c-0.5,0.3-0.3,0.9-0.4,1.5c0,0.1,0,0.1,0,0.2c1.2,0,2.1,0,2.7,0
				c0-1,0-1.8,0-1.8s-0.8,0-2.1,0L174.3,64.1z"/>
			<path d="M214.4,69.1c-3.1-0.2-5.5-0.3-7.6-0.3c0.8,0.3,1.6,0.6,1.6,1c0,0.3-0.4,0.6-0.8,0.8c-0.5,0.3-0.8,1.2-1.1,1.9
				c-0.4,1.2-1.5,3.6-3.4,6.3c2.9,3.2,7.5,6.2,15,6.9c0.2,0,0.4,0.1,0.4,0.2c0,0.1-0.1,0.2-0.3,0.4c-0.7,0.5-2.6,1.8-3.4,2.8
				c-0.1,0.2-0.3,0.2-0.4,0.2c-0.1,0-7.4-1.5-13.3-8c-3,3.3-7.2,6.5-13.3,8.2c-0.1,0-0.2,0-0.3,0c-0.2,0-0.4,0-0.5-0.2
				c-0.6-1.1-2.3-2.1-3.1-2.6c-0.2-0.2-0.3-0.3-0.3-0.3c0-0.1,0.2-0.1,0.4-0.1c7.2-0.8,12-4,15.1-7.5c-1.5-2.1-2.3-4-2.8-5.3
				c-0.9,1.3-1.7,2.6-1.7,2.7c-0.1,0.3-0.1,0.6-0.3,0.6c-0.5,0-2.9-1.5-3.2-1.8c-0.1-0.1-0.1-0.1-0.1-0.2c0-0.1,0-0.2,0.1-0.2
				c2.5-1.6,4.5-4.7,4.9-5.8c-2.1,0-4.7,0.1-8.2,0.3h-0.1c-0.2,0-0.3,0-0.3-1.7c0-1.8,0-1.8,0.4-1.8c5.7,0.3,8.6,0.4,11.6,0.4
				c0-1.8,0-5.1-0.3-6.3c0-0.1,0-0.1,0-0.2c0-0.1,0.1-0.1,0.2-0.1c0.6,0,2.8,0.3,4.1,0.7c0.3,0.1,0.4,0.2,0.4,0.4
				c0,0.4-0.5,1-0.7,1.6c-0.2,0.7-0.3,2.6-0.3,3.9c2.8,0,6.3-0.1,11.7-0.4c0.4,0,0.4,0.1,0.4,1.8c0,0.6,0,1.1,0,1.5
				C214.8,69,214.7,69.1,214.4,69.1L214.4,69.1z M201.1,68.7c-1,0-2,0-3.1,0c0.6,0.2,1,0.4,1,0.7c0,0.1,0,0.2-0.1,0.3
				c-0.2,0.3-0.2,0.6-0.2,0.8v0.2c0.4,1.4,1.1,3.3,2.4,5.3c1.2-1.8,2.6-4.6,2.8-7.4H201.1z"/>
			<path d="M231.1,82.8c0,0.3-0.1,0.6-1.7,0.6c-0.9,0-1.6,0-1.6-0.5v-0.1c0-0.6,0-1.5,0.1-2.4c-0.4,0-1-0.1-1.5-0.1
				c-0.6,0-1.2,0-1.6,0.1c0,1.5,0,3,0.1,4.4c0,0.6-0.1,0.6-1.7,0.6c-1.7,0-1.7-0.2-1.7-0.5v-0.1c0.3-4.7,0.4-9.8,0.4-12.5
				c0-3.5-0.1-6.3-0.2-9c0-0.1,0-0.2,0-0.3c0-0.1,0.1-0.2,0.2-0.2c0.1,0,0.2,0,0.3,0c1.1,0.1,2.6,0.2,4.3,0.2c1.7,0,2-0.1,4.2-0.2
				c0.4,0,0.4,0.1,0.4,0.5c-0.2,2.7-0.2,5.8-0.2,8.7c0,2.5,0.1,8.1,0.3,10.7V82.8z M226.3,65.4c-1,0-1.5,0-1.5,0s-0.1,2.1-0.1,4.5
				c0.4,0,1.1,0,1.6,0c0.5,0,1.2,0,1.6,0c0-2.2-0.1-4.5-0.1-4.5s-0.3,0-1,0H226.3z M227.9,72.7c-0.4,0-1,0-1.6,0c-0.6,0-1.3,0-1.6,0
				c0,1.3,0,3,0,4.9c0.4,0,1.1,0,1.6,0s1.2,0,1.5,0C227.9,75.7,227.9,74,227.9,72.7z M249.8,72.9c-3.8-0.4-7.3-0.4-9.5-0.4
				c-2.2,0-3.9,0.1-8.4,0.3c-0.3,0-0.4-0.1-0.4-1.6c0-1.6,0-1.6,0.4-1.6c3.3,0.3,5.1,0.3,6.8,0.3v-2.7c-1.5,0-3,0.1-5.5,0.2
				c-0.3,0-0.4,0-0.4-1.5c0-1.4,0.1-1.5,0.4-1.5c2.4,0.2,3.9,0.2,5.3,0.2v-0.3c-0.1-2.2-0.1-3.4-0.5-5v-0.2c0-0.2,0-0.2,0.2-0.2
				c0.5,0,4.4,0.4,4.4,1.1c0,0.3-0.3,0.6-0.5,1c-0.4,0.7-0.3,0.6-0.5,2.9c0,0.2,0,0.4,0,0.7c1.3,0,2.6-0.1,5.2-0.2
				c0.2,0,0.4,0,0.4,1.6c0,0.5,0,1-0.1,1.3c0,0.1-0.2,0.2-0.3,0.2h0c-2.5-0.1-3.7-0.2-5.2-0.2V70c2.1,0,4.9-0.2,8-0.4
				c0.2,0,0.4,0.2,0.4,1.7c0,0.5,0,1.1-0.1,1.4C250.1,72.8,249.9,72.9,249.8,72.9L249.8,72.9z M245.2,85.9c0,2-1.1,4.2-5.1,4.2
				c-0.2,0-0.4-0.2-0.5-0.5c-0.6-1.5-1.8-2.1-2.7-3c-0.1-0.1-0.2-0.2-0.2-0.2c0,0,0-0.1,0.1-0.1c0,0,0.1,0,0.2,0
				c1.1,0.2,2,0.3,2.8,0.3c1.3,0,2-0.3,2-1.3c0.1-1.3,0.1-4,0.1-5.5v-2h-1.5c-2.2,0-3.9,0.1-8.3,0.3c-0.1,0-0.3-0.1-0.3-0.3
				c0-0.3,0-0.8,0-1.3c0-1.6,0-1.6,0.4-1.6c4.2,0.3,6,0.3,8.3,0.3h1.4c-0.1-0.8-0.1-1.5-0.3-2c0-0.1,0-0.1,0-0.1
				c0-0.1,0.1-0.2,0.3-0.2c0.1,0,4,0.3,4,1c0,0.1-0.1,0.3-0.3,0.5c-0.3,0.4-0.4,0.4-0.4,0.7c1.4-0.1,3-0.2,4.6-0.3h0
				c0.2,0,0.3,0.3,0.3,1.7c0,0.5,0,1.1-0.1,1.5c0,0.1-0.2,0.2-0.3,0.2h0c-1.7-0.2-3.3-0.3-4.7-0.3v2.9c0,1.8,0.2,3,0.2,4.9V85.9z
				 M237.7,84.4c-0.1,0-0.1-0.1-0.2-0.1c-1.5-1.8-3.6-3.2-4.2-3.6c-0.1-0.1-0.1-0.1-0.1-0.2c0-0.4,1.5-1.4,1.8-1.6
				c0.1-0.1,0.1-0.1,0.2-0.1c0.1,0,0.1,0,0.2,0.1c0.7,0.3,3.2,1.6,4.5,2.9c0.1,0.1,0.1,0.1,0.1,0.2c0,0.2-1.5,1.9-2,2.4
				C237.8,84.4,237.7,84.4,237.7,84.4z"/>
			<path d="M258.9,89.3c0.5-4.6,0.7-12,0.9-17.6c-0.3,0.4-3.8,4.7-4.6,4.7c-0.1,0-0.2,0-0.3-0.1c-0.7-0.5-2-0.9-2.9-1.1
				c-0.2,0-0.3-0.1-0.3-0.2c0-0.1,0.1-0.1,0.2-0.2c5.8-4.1,10.5-12,10.9-14.3c0-0.1,0.1-0.2,0.2-0.2c0.6,0,4,1.5,4,2.1
				c0,0.2-0.3,0.5-0.8,0.7c-0.5,0.2-0.7,0.1-1,0.7c-0.3,0.6-1.2,2-2.3,3.6c0.2,0.1,0.4,0.2,0.5,0.2c0.2,0.1,0.3,0.2,0.3,0.4
				c0,0.2-0.1,0.4-0.3,0.6c-0.5,0.5-0.5,0.8-0.5,1.6c-0.1,4.2-0.3,9.8-0.3,14.3c0,1.8,0,3.4,0.1,4.7c0,0.2-0.1,0.3-1.9,0.3
				C259.3,89.7,258.9,89.7,258.9,89.3L258.9,89.3z M282.4,71.1c0,0.1-0.2,0.3-0.3,0.3c-5.1,0.4-5.8,0.4-8.8,0.9l-0.7,0.1
				c2,10.1,7.6,12.9,8.3,12.9c0.8,0,1.6-1,1.8-3.8c0-0.2,0.1-0.3,0.2-0.3c0.1,0,0.1,0.1,0.2,0.2c0.5,0.6,1.6,2.1,2.7,2.8
				c0.1,0.1,0.2,0.2,0.2,0.5c-0.9,3-2.5,4.7-4.6,4.7c-0.8,0-1.8-0.3-2.7-0.9c-5.6-3.5-8.1-9.5-9.3-15.5l-4.9,1h-0.1
				c-0.1,0-0.3,0-0.4-0.2c-0.2-0.5-0.4-2-0.4-2.7v-0.1c0-0.3,0.2-0.4,0.4-0.4c2.1-0.1,3.6-0.3,4.9-0.4c-0.3-1.7-0.5-3.5-0.6-5.1
				c-0.2-1.6-0.3-3-0.5-3.9c0-0.2-0.1-0.3-0.1-0.4c0-0.1,0.1-0.2,0.2-0.2c0.1,0,0.1,0,0.2,0c3.7,0.4,4.4,0.6,4.4,1.1
				c0,0.3-0.3,0.8-0.5,1.2c-0.2,0.4-0.2,0.7-0.2,1.1c0,1.2,0,3.3,0.3,5.7l0.7-0.1c3.3-0.4,4.1-0.6,8.7-1.6h0.1
				c0.2,0,0.3,0.1,0.4,0.3C282.2,68.7,282.4,70.5,282.4,71.1L282.4,71.1z M277.3,67.6c-1.7-1.6-3.9-2.7-4.1-2.8
				c-0.1-0.1-0.3-0.1-0.3-0.2c0-0.3,1.4-2.2,1.8-2.2c0.6,0,4.8,2.3,4.8,2.8c0,0.3-1.4,2.7-1.8,2.7C277.5,67.8,277.4,67.7,277.3,67.6
				z"/>
			<path d="M304.2,79.3c0,0.2-0.1,0.3-0.4,0.5c-5.2,2.3-12,4.8-12.8,5.2c-0.6,0.3-0.9,0.8-1.2,0.8c-0.6,0-2.6-2.8-2.6-3.1
				c0-0.1,0.2-0.2,0.4-0.2c1.4-0.3,3.6-1,5.9-1.8c-0.4-14.2-0.7-16.8-1.1-18.5c0-0.1,0-0.1,0-0.2c0-0.1,0.1-0.1,0.3-0.1
				c0.4,0,4.6,0.3,4.6,1.1c0,0.2-0.3,0.6-0.5,1c-0.3,0.6-0.4,0.6-0.4,2c0,1.2,0.3,10.4,0.5,13.5c3.2-1.2,6.1-2.3,7.1-2.7
				c0.1,0,0.2-0.1,0.3-0.1c0.1,0,0.1,0,0.1,0.1c0,0,0,0.1,0,0.2c-0.1,0.3-0.1,0.8-0.1,1.4c0,0.3,0,0.6,0,0.9V79.3z M297.6,88.8
				c-0.2,0-0.3-0.1-0.4-0.2c-0.7-1.2-2.2-1.6-3.1-2.1c-0.2-0.1-0.2-0.2-0.2-0.3c0-0.1,0.1-0.1,0.2-0.2c15.1-2.8,15.5-11.8,15.5-20.9
				c0-1.1-0.1-2.3-0.3-3.2c0-0.1,0-0.2,0-0.2s0-0.1,0.2-0.1c0.5,0,4.8,0.5,4.8,1.3c0,0.3-0.3,0.6-0.6,1c-0.2,0.4-0.5,1-0.5,1.8
				c-0.1,1.1-0.3,4.5-0.4,5.7c-0.3,2.3-0.9,4.9-2.1,7.4c0.7,1,3.7,5,8.3,7c0.1,0.1,0.2,0.1,0.2,0.2c0,0.1-0.1,0.1-0.3,0.2
				c-0.8,0.4-2.8,1.2-3.3,1.7c-0.1,0.1-0.2,0.2-0.3,0.2c-0.4,0-3.5-2.4-6.3-6.5C304.8,87.3,297.7,88.8,297.6,88.8z M300.1,65.7
				c0.1-0.1,0.2-0.2,0.3-0.2c0.6,0,6.7,4.1,6.7,4.7c0,0.1-0.1,0.2-0.2,0.4c-0.1,0.1-1.6,2-2,2c-0.1,0-0.2-0.1-0.4-0.2
				c-1.6-1.6-5-4.1-5.6-4.6c-0.2-0.1-0.3-0.2-0.3-0.3c0-0.1,0.1-0.2,0.2-0.3L300.1,65.7z"/>
			<path d="M341.5,65.1c2.6,0,5.5-0.1,10-0.3c0.4,0,0.5,0.2,0.5,1.5c0,0.6,0,1.2-0.1,1.6c0,0.2-0.2,0.2-0.4,0.2
				c-5.9-0.3-9.3-0.3-12.6-0.3c-8.7,0-12,0.1-16.2,0.3h-0.1c-0.4,0-0.4-0.3-0.4-1.6c0-1.6,0-1.8,0.3-1.8h0.2
				c4.4,0.2,7.3,0.3,9.8,0.3c-0.8-1.6-2.9-3.6-3.2-3.9c-0.1-0.1-0.2-0.2-0.2-0.2c0-0.3,2.4-1.4,2.7-1.4c0.3,0,4,3.5,4,4
				c0,0.3-1.4,1.1-2,1.5h4.3c1.3-2,2.3-4.2,2.9-5.4c0.1-0.3,0.1-0.4,0.3-0.4c0.3,0,3.9,1.4,3.9,2c0,0.2-0.3,0.4-0.8,0.7
				c-0.5,0.3-0.6,0.5-1,0.9L341.5,65.1z M332.9,82.3c-0.6,0-1.7,0-2.3,0c-0.5,0-1.3,0-2,0c0,2.8,0.1,5.1,0.1,7
				c0,0.3-0.1,0.4-1.5,0.4c-0.6,0-1.2,0-1.7-0.1c-0.2,0-0.3-0.1-0.3-0.3v-0.1c0.1-3.1,0.4-7.7,0.4-11.1c0-2.1,0-5.8-0.2-8
				c0-0.1,0-0.2,0-0.3c0-0.1,0.1-0.2,0.3-0.2h0.2c1.9,0.2,3,0.2,4.7,0.2c1.7,0,2.9,0,5-0.2c0.3,0,0.4,0.1,0.4,0.3v0.1
				c0,0.4-0.2,2.3-0.2,8.6c0,2.8,0.2,5.3,0.2,7.2c0,2.1-0.8,3.7-4.7,3.8c-0.2,0-0.4-0.1-0.4-0.4c-0.2-0.7-1.3-1.9-1.9-2.7
				c-0.1-0.1-0.1-0.1-0.1-0.2c0,0,0.1-0.1,0.2-0.1h0.1c0.9,0.1,1.6,0.2,2.2,0.2c1.1,0,1.6-0.3,1.6-1.1V82.3z M332.9,78.8
				c0-0.2,0-0.7,0-1.4c-0.6,0-1.6,0-2.3,0c-0.6,0-1.4,0-2,0v2.4c0.7,0,1.6,0,2,0c0.6,0,1.6,0,2.3,0V78.8z M332.8,72.4
				c0,0-1.1,0-2.2,0c-1.1,0-1.9,0-1.9,0s0,1.2,0,2.5c0.6,0,1.5,0,1.9,0c0.6,0,1.6,0,2.3,0C332.8,73.6,332.8,72.4,332.8,72.4z
				 M338.2,71.1c0-0.1,0-0.1,0.1-0.1h0.1c0.7,0,2.4,0.3,3.6,0.6c0.3,0.1,0.4,0.2,0.4,0.4c0,0.2-0.2,0.5-0.4,1
				c-0.2,0.3-0.4,0.9-0.4,3.4c0,2,0,3.4,0.3,7.3c0,0.1-0.1,0.2-0.3,0.2c-0.4,0-1,0-1.5,0c-1.7,0-1.8-0.1-1.8-0.3
				c0.2-2.9,0.3-3.4,0.3-6c0-3,0-4-0.4-6.4V71.1z M348.1,86.6c0,1.7-2,3.1-5.3,3.1c-0.2,0-0.4-0.1-0.5-0.5c-0.2-0.7-1.3-1.8-2.1-2.7
				c-0.1-0.1-0.1-0.1-0.1-0.1c0-0.1,0.1-0.1,0.2-0.1c0.1,0,0.1,0,0.2,0c0.5,0.1,1.5,0.2,2.3,0.2c1,0,1.9-0.2,1.9-1.1
				c0-2.1,0.1-3.6,0.1-4.9c0-1.6,0-2.7,0-3.9c0-2.4,0-4.8-0.5-7.3c0-0.1,0-0.1,0-0.2c0-0.1,0.1-0.1,0.3-0.1c0.7,0.1,2.9,0.4,4,0.7
				c0.3,0.1,0.4,0.3,0.4,0.4c0,0.3-0.2,0.6-0.5,1c-0.3,0.4-0.5,1-0.5,4.5C347.9,77.9,347.9,82.3,348.1,86.6L348.1,86.6z"/>
		</g>
		<g class="st2">
			<path d="M117.1,17.4c-2.6,0.5-4.8,0.9-7.1,1.4c-0.8,0.2-1,0.2-1.3,0.3c-0.1,0.1-0.3,0.2-0.5,0.2c-0.1,0-0.3-0.1-0.4-0.3
				c-0.3-0.6-0.5-1.3-0.8-2.3c1.1,0,1.7-0.1,3.3-0.4c2.6-0.4,7.2-1.1,12.6-1.8c0.3,0,0.4,0.1,0.4,0.2c0.1,0.5,0.2,1.3,0.2,1.8
				c0,0.3-0.1,0.3-0.4,0.3c-1,0.1-1.7,0.2-2.6,0.5c-3.6,1.2-5.4,3.7-5.4,6.2c0,2.7,1.9,4.2,5.6,4.4c0.3,0,0.5,0.1,0.5,0.3
				c0,0.5-0.1,1.3-0.2,1.8c-0.1,0.3-0.1,0.4-0.4,0.4c-3.7,0-7.7-2.1-7.7-6.5C113.1,21.1,114.6,19.1,117.1,17.4L117.1,17.4z
				 M121.3,19.6c0.1-0.1,0.2-0.1,0.3,0c0.7,0.5,1.4,1.3,2,2.2c0.1,0.1,0.1,0.2-0.1,0.3l-0.9,0.7c-0.1,0.1-0.3,0.1-0.4-0.1
				c-0.6-1-1.3-1.8-2.1-2.4L121.3,19.6z M123.1,18.3c0.1-0.1,0.2-0.1,0.3,0c0.8,0.6,1.5,1.4,2,2.2c0.1,0.1,0.1,0.3-0.1,0.4l-0.8,0.7
				c-0.2,0.1-0.3,0.1-0.4-0.1c-0.6-0.9-1.2-1.7-2.1-2.4L123.1,18.3z"/>
		</g>
		<g class="st2">
			<path d="M133.2,14.7c-0.2-0.5-0.4-0.9-0.7-1.3c0.8-0.1,1.7-0.2,2.5-0.2c0.3,0,0.5,0.2,0.5,0.4c0,0.1,0,0.3,0,0.4
				c0,0.2,0,0.4,0.1,0.6c0.1,0.5,0.2,0.7,0.3,1.1c1.6-0.3,2.8-0.6,4.3-1.1c0.2-0.1,0.3-0.1,0.4,0.1c0.1,0.4,0.3,1,0.4,1.4
				c0,0.2-0.1,0.3-0.3,0.4c-1.4,0.4-2.7,0.8-4.1,1.1c0.2,0.5,0.5,1.2,0.7,1.8c1.7-0.4,2.8-0.7,3.8-1.1c0.2-0.1,0.3-0.1,0.4,0.1
				c0.2,0.5,0.3,0.9,0.4,1.4c0,0.2,0,0.3-0.2,0.4c-1,0.4-2.4,0.8-3.5,1c0.9,1.5,1.7,2.7,2.8,3.6c0.2,0.2,0.2,0.3,0.1,0.5
				c-0.2,0.5-0.5,0.9-0.9,1.3c-0.1,0.1-0.2,0.2-0.3,0.2c-0.1,0-0.2,0-0.3-0.1c-0.3-0.3-0.8-0.5-1.2-0.7c-1.1-0.5-2.5-0.7-3.9-0.7
				c-2,0-3.1,0.6-3.1,1.6c0,1.4,1.8,1.8,5,1.8c0.8,0,1.6-0.1,2.3-0.1c0.2,0,0.3,0.1,0.3,0.3c-0.1,0.5-0.2,1.3-0.4,1.9
				c-0.1,0.2-0.1,0.3-0.4,0.3c-0.5,0-1,0.1-1.5,0.1c-4.8,0-7.4-1.4-7.4-3.9c0-2.2,1.9-3.7,5.2-3.7c1.5,0,2.8,0.2,3.6,0.5
				c-0.5-0.6-1.2-1.6-1.7-2.5c-2.2,0.3-4.2,0.6-5.8,0.6c-0.2,0-0.3-0.1-0.4-0.3c-0.1-0.4-0.3-1.1-0.4-1.7c2.1,0,3.8-0.2,5.6-0.5
				c-0.2-0.4-0.5-1.2-0.8-1.7c-1.9,0.3-3.5,0.5-5.1,0.5c-0.3,0-0.4-0.1-0.4-0.3c-0.1-0.2-0.2-1-0.3-1.7c2.1,0,3.7-0.1,5.2-0.3
				C133.6,15.5,133.5,15.2,133.2,14.7z"/>
		</g>
		<g class="st2">
			<path d="M149.8,24c0.2,0.1,0.2,0.2,0.1,0.4c-0.3,0.5-0.5,1.2-0.5,1.6c0,1.3,1.4,2,5,2c2,0,4-0.2,5.7-0.6c0.3-0.1,0.4,0,0.4,0.2
				c0.1,0.4,0.3,1.5,0.3,2.1c0,0.2-0.1,0.3-0.4,0.3c-2,0.4-3.9,0.5-6.2,0.5c-4.9,0-7.2-1.5-7.2-4.2c0-0.9,0.3-1.8,1.1-3
				C148.7,23.5,149.2,23.7,149.8,24z M154.5,15.8c1.5,0,3-0.1,4.4-0.2c0.2,0,0.3,0.1,0.3,0.2c0.1,0.5,0.2,1.1,0.2,1.8
				c0,0.3-0.1,0.4-0.4,0.4c-2,0.3-3.4,1-5.1,2.1c-0.2,0.1-0.4,0.2-0.5,0.2c-0.1,0-0.3,0-0.4-0.1c-0.4-0.3-0.9-0.5-1.5-0.7
				c1.1-0.7,2-1.3,2.8-1.7c-0.5,0.1-1.1,0.1-1.5,0.1c-0.9,0-2.7-0.1-3.9-0.4c-0.2,0-0.3-0.1-0.3-0.4c0-0.5,0-1.1,0.1-1.9
				C150.2,15.6,152.2,15.8,154.5,15.8z M160.2,13.5c0.1-0.1,0.2-0.1,0.3,0c0.7,0.5,1.4,1.3,2,2.2c0.1,0.1,0.1,0.2-0.1,0.3l-0.9,0.7
				c-0.1,0.1-0.3,0.1-0.4-0.1c-0.6-1-1.3-1.8-2.1-2.4L160.2,13.5z M162.1,12.1c0.1-0.1,0.2-0.1,0.3,0c0.8,0.6,1.5,1.4,2,2.2
				c0.1,0.1,0.1,0.3-0.1,0.4l-0.8,0.7c-0.2,0.1-0.3,0.1-0.4-0.1c-0.6-0.9-1.2-1.7-2.1-2.4L162.1,12.1z"/>
		</g>
		<g class="st2">
			<path d="M173.1,13.6c0.3,0.1,0.4,0.2,0.4,0.3c0,0.3-0.1,0.6-0.1,0.9c0,0.4,0.1,0.9,0.1,1.4c0.2,1.5,0.4,2.5,0.7,3.6
				c1-0.6,1.8-1,3-1.6c0.6-0.4,1.1-0.7,1.4-1.1c0.7,0.7,1.2,1.4,1.5,2c0.1,0.1,0.1,0.3,0.1,0.4c0,0.2-0.1,0.4-0.4,0.4
				c-0.6,0.1-1.3,0.4-2,0.6c-1.8,0.7-3.5,1.5-4.9,2.5c-1.8,1.2-2.5,2.2-2.5,3.2c0,1.2,0.9,1.8,3.3,1.8c2.6,0,4.8-0.2,6.4-0.5
				c0.2,0,0.3,0,0.4,0.3c0.1,0.6,0.2,1.3,0.2,2c0,0.2-0.1,0.3-0.4,0.4c-1.9,0.3-3.6,0.3-6.3,0.3c-4,0-6.1-1.3-6.1-4
				c0-2.3,1.5-3.9,4-5.4c-0.5-1.6-0.9-3.5-1.1-5.1c-0.1-1.1-0.3-1.8-0.5-2.4C171.4,13.3,172.3,13.4,173.1,13.6z"/>
		</g>
		<g class="st2">
			<path d="M196.7,17.1c-0.5,3.6-1.4,6.8-2.6,9c-0.9,1.6-2,2.4-3.6,2.4c-1.8,0-3.7-2-3.7-5.4c0-2,0.9-3.9,2.4-5.5
				c1.8-1.8,4-2.7,6.8-2.7c5,0,8,3.1,8,7.3c0,3.9-2.2,6.4-6.5,7.6c-0.4,0.1-0.6,0-0.9-0.4c-0.2-0.4-0.7-0.8-1.5-1.3
				c3.5-0.8,6.3-2.3,6.3-6.3C201.5,19.5,199.6,17.1,196.7,17.1L196.7,17.1z M190.7,19.1c-1,1.1-1.6,2.5-1.6,3.9c0,1.9,0.8,3,1.4,3
				c0.5,0,1-0.3,1.6-1.3c0.9-1.7,1.9-4.7,2.2-7.5C192.8,17.5,191.7,18.1,190.7,19.1z"/>
		</g>
		<g class="st2">
			<path d="M220.3,12.8c0.3-0.1,0.3-0.1,0.4,0.1c1.4,3.2,3.9,6.1,6.8,7.7c-0.4,0.3-0.9,1-1.2,1.6c-0.2,0.3-0.3,0.5-0.4,0.5
				c-0.1,0-0.2-0.1-0.4-0.3c-0.7-0.5-1.4-1.1-2-1.7c0,0.6,0,1.3-0.1,2.1c-0.1,2.2-0.2,3.9-0.5,5.9c-0.3,1.7-1.1,2.6-3.1,2.6
				c-0.5,0-0.9,0-1.4,0c-0.7,0-0.6,0-0.8-0.7c-0.1-0.7-0.4-1.3-0.7-1.7c1,0.1,1.7,0.2,2.4,0.2c0.9,0,1.2-0.3,1.4-1.3
				c0.2-1.2,0.4-2.8,0.4-5.2h-3.7c-0.4,4.2-2.5,7.2-6.4,8.9c-0.2,0.1-0.4,0.2-0.5,0.2c-0.2,0-0.2-0.1-0.4-0.5
				c-0.3-0.5-0.7-1-1.1-1.3c3.8-1.4,5.7-3.6,6.1-7.3h-0.3c-2,0-2.6,0-2.8,0c-0.2,0-0.2,0-0.2-0.2v-1.5c-0.7,0.6-1.3,1.2-2,1.7
				c-0.2,0.2-0.4,0.3-0.5,0.3c-0.1,0-0.2-0.1-0.4-0.5c-0.3-0.5-0.8-1-1.2-1.3c2.8-1.8,4.9-4.3,6.1-6.9c0.2-0.4,0.3-0.8,0.4-1.3
				c0.8,0.2,1.6,0.5,2.2,0.7c0.2,0.1,0.3,0.2,0.3,0.4c0,0.1-0.1,0.2-0.2,0.3c-0.2,0.2-0.3,0.4-0.5,0.7c-1.1,2.3-2.3,4.1-3.8,5.6
				c0.3,0,1,0,2.6,0h5.6c1.8,0,2.5,0,2.7,0c-2-2-3.5-4.3-4.5-6.7c-0.1-0.2,0-0.3,0.2-0.4L220.3,12.8z"/>
		</g>
		<g class="st2">
			<path d="M236.4,18.1c0.8,1,1.9,1.8,3.1,2.4c-0.2,0.3-0.5,0.7-0.7,1.1c-0.1,0.3-0.2,0.5-0.4,0.5c-0.1,0-0.2-0.1-0.5-0.3
				c-0.9-0.8-1.7-1.5-2.3-2.6c0,1.7,0.1,2.1,0.1,2.3s0,0.2-0.2,0.2h-1.4c-0.2,0-0.2,0-0.2-0.2c0-0.2,0.1-0.6,0.1-2.1
				c-0.8,1.1-1.7,1.9-2.8,2.8c-0.2,0.2-0.4,0.3-0.5,0.3c-0.1,0-0.2-0.1-0.4-0.4c-0.2-0.5-0.5-0.9-0.8-1.2c1.5-0.8,2.7-1.7,3.6-2.8
				h-0.4c-1.8,0-2.4,0-2.5,0c-0.2,0-0.2,0-0.2-0.2v-1.2c0-0.2,0-0.2,0.2-0.2c0.1,0,0.7,0,2.5,0h1V15c0-1,0-1.5-0.1-2.5
				c0.8,0,1.3,0.1,2,0.1c0.2,0,0.3,0.1,0.3,0.2c0,0.2-0.1,0.3-0.1,0.5c-0.1,0.3-0.1,0.7-0.1,1.7v1.6h0.9c1.8,0,2.4,0,2.5,0
				c0.2,0,0.2,0,0.2,0.2V18c0,0.2,0,0.2-0.2,0.2c-0.1,0-0.7,0-2.5,0H236.4z M232.7,25.7c-1.8,0-2.4,0-2.5,0c-0.2,0-0.2,0-0.2-0.2
				v-1.3c0-0.2,0-0.2,0.2-0.2c0.1,0,0.7,0,2.5,0h1c0-0.7,0.1-1.2,0-1.8c0.8,0.1,1.4,0.1,1.9,0.2c0.2,0,0.4,0.1,0.4,0.3
				c0,0.1-0.1,0.2-0.1,0.3c-0.1,0.1-0.1,0.4-0.2,1.1h1c1.8,0,2.4,0,2.5,0c0.2,0,0.3,0,0.3,0.2v1.3c0,0.2,0,0.2-0.3,0.2
				c-0.1,0-0.7,0-2.5,0H236c0.8,1.3,1.8,2.1,3.1,2.7c-0.5,0.4-0.8,0.8-1,1.1c-0.2,0.3-0.3,0.5-0.5,0.5c-0.1,0-0.3-0.1-0.5-0.3
				c-1-0.8-1.7-1.6-2.3-2.6c-0.7,1.6-1.8,2.8-3.3,3.7c-0.2,0.1-0.3,0.2-0.4,0.2c-0.1,0-0.3-0.1-0.5-0.5c-0.3-0.4-0.6-0.8-1-1.1
				c2-0.8,3.2-2,3.7-3.7H232.7z M231.6,13.2c0.2-0.1,0.3-0.1,0.4,0.1c0.4,0.5,0.8,1.3,1.2,2c0.1,0.2,0.1,0.3-0.2,0.4l-1,0.5
				c-0.3,0.1-0.3,0.1-0.4-0.1c-0.3-0.7-0.7-1.4-1.1-2c-0.1-0.2-0.2-0.3,0.1-0.4L231.6,13.2z M237,14c0.1-0.3,0.3-0.6,0.3-0.9
				c0.5,0.1,1.2,0.4,1.6,0.6c0.2,0.1,0.2,0.2,0.2,0.3s0,0.2-0.2,0.3c-0.1,0.1-0.2,0.3-0.3,0.4c-0.2,0.4-0.4,0.8-0.7,1.3
				c-0.2,0.3-0.3,0.4-0.4,0.4c-0.1,0-0.2-0.1-0.4-0.2c-0.4-0.2-0.8-0.3-1-0.4C236.5,15.1,236.8,14.5,237,14z M243.2,28.5
				c0.2,0.1,0.2,0.2,0.2,0.3c0,0.1-0.1,0.2-0.3,0.3c-0.2,0.1-0.3,0.2-0.5,0.4c-0.9,0.8-1.6,1.2-2.8,1.9c-0.3,0.1-0.4,0.2-0.5,0.2
				c-0.2,0-0.3-0.1-0.5-0.5c-0.3-0.4-0.6-0.8-0.9-1.1c1.6-0.6,2.3-1,3.1-1.7c0.3-0.2,0.5-0.4,0.7-0.7
				C242.3,27.9,242.8,28.2,243.2,28.5z M242.3,15.1c-1.9,0-2.5,0-2.6,0c-0.2,0-0.2,0-0.2-0.2v-1.5c0-0.2,0-0.2,0.2-0.2
				c0.1,0,0.8,0,2.6,0h3.9c1.9,0,2.5,0,2.6,0c0.2,0,0.2,0,0.2,0.2v1.5c0,0.2,0,0.2-0.2,0.2c-0.1,0-0.8,0-2.6,0h-1
				c-0.2,0.6-0.4,1.1-0.7,1.6h1c1.7,0,2.3,0,2.4,0c0.2,0,0.2,0,0.2,0.2c0,0.1,0,0.9,0,2.5v5.6c0,1.6,0,2.3,0,2.4
				c0,0.2,0,0.3-0.2,0.3c-0.1,0-0.7,0-2.4,0h-2.8c-1.7,0-2.3,0-2.4,0c-0.2,0-0.3,0-0.3-0.3c0-0.1,0-0.8,0-2.4v-5.5
				c0-1.7,0-2.4,0-2.5c0-0.2,0-0.2,0.3-0.2c0.1,0,0.7,0,2.1,0c0.3-0.5,0.4-1,0.6-1.6H242.3z M242.1,19.8h4v-1.3h-4V19.8z
				 M246.1,22.7v-1.4h-4v1.4H246.1z M246.1,24.3h-4v1.5h4V24.3z M245.6,27.8c0.1-0.1,0.2-0.1,0.3-0.1c0.1,0,0.1,0,0.2,0.1
				c1.1,1,2.2,1.6,3.5,2.1c-0.3,0.3-0.6,0.7-0.9,1.2c-0.2,0.4-0.3,0.5-0.5,0.5c-0.1,0-0.3-0.1-0.5-0.2c-1.3-0.7-2.1-1.4-3-2.3
				c-0.1-0.1-0.1-0.1-0.1-0.2s0-0.1,0.2-0.3L245.6,27.8z"/>
		</g>
		<g class="st2">
			<path d="M261.4,17.4c-2.6,0.5-4.8,0.9-7.1,1.4c-0.8,0.2-1,0.2-1.3,0.3c-0.1,0.1-0.3,0.2-0.5,0.2c-0.1,0-0.3-0.1-0.4-0.3
				c-0.3-0.6-0.5-1.3-0.8-2.3c1.1,0,1.7-0.1,3.3-0.4c2.6-0.4,7.2-1.1,12.6-1.8c0.3,0,0.4,0.1,0.4,0.2c0.1,0.5,0.2,1.3,0.2,1.8
				c0,0.3-0.1,0.3-0.4,0.3c-1,0.1-1.7,0.2-2.6,0.5c-3.6,1.2-5.4,3.7-5.4,6.2c0,2.7,1.9,4.2,5.6,4.4c0.3,0,0.5,0.1,0.5,0.3
				c0,0.5-0.1,1.3-0.2,1.8c-0.1,0.3-0.1,0.4-0.4,0.4c-3.7,0-7.7-2.1-7.7-6.5C257.4,21.1,258.9,19.1,261.4,17.4L261.4,17.4z
				 M265.6,19.6c0.1-0.1,0.2-0.1,0.3,0c0.7,0.5,1.4,1.3,2,2.2c0.1,0.1,0.1,0.2-0.1,0.3l-0.9,0.7c-0.1,0.1-0.3,0.1-0.4-0.1
				c-0.6-1-1.3-1.8-2.1-2.4L265.6,19.6z M267.5,18.3c0.1-0.1,0.2-0.1,0.3,0c0.8,0.6,1.5,1.4,2,2.2c0.1,0.1,0.1,0.3-0.1,0.4l-0.8,0.7
				c-0.2,0.1-0.3,0.1-0.4-0.1c-0.6-0.9-1.2-1.7-2.1-2.4L267.5,18.3z"/>
		</g>
		<g class="st2">
			<path d="M287.3,19.4c0-0.5,0-0.9,0-1.4c1.1,0.3,1.9,0.6,2.4,0.9c0.2,0.1,0.3,0.4,0.1,0.6c-0.1,0.3-0.3,0.5-0.3,0.8
				c-0.2,0.9-0.4,1.8-0.6,2.7c1.2,0.6,2.5,1.4,3.3,2c0.2,0.1,0.2,0.2,0.1,0.4c-0.2,0.5-0.7,1.4-0.9,1.8c-0.1,0.1-0.1,0.1-0.2,0.1
				c-0.1,0-0.2-0.1-0.3-0.1c-0.9-0.8-1.8-1.4-2.8-2c-1.1,2.4-2.2,3.9-4.2,5.5c-0.2,0.1-0.3,0.2-0.4,0.2c-0.1,0-0.2,0-0.3-0.1
				c-0.6-0.5-1.1-0.7-1.8-0.9c2.6-1.8,3.9-3.6,4.7-5.7c-1.2-0.6-2.6-1-4.2-1.3c-1.1,2.3-1.7,3.4-2.6,4.2c-0.8,0.8-1.6,1.2-2.7,1.2
				c-1.2,0-2.5-0.8-2.5-2.9c0-2.6,2.7-4.6,6.2-4.6c0.7-1.7,1.2-3.2,1.7-5c-1.2,0.1-2.2,0.3-2.9,0.3c-0.3,0-0.6,0.1-0.9,0.2
				c-0.1,0-0.3,0.1-0.4,0.1c-0.2,0-0.3-0.1-0.3-0.2c-0.2-0.4-0.4-1.2-0.6-2.3c0.6,0.1,1.2,0.1,1.8,0.1c1,0,2.1-0.1,3.3-0.3
				c0.5-0.1,0.8-0.2,1-0.4c0.1-0.1,0.2-0.1,0.3-0.1c0.1,0,0.2,0,0.3,0.1c0.5,0.3,1,0.7,1.4,1.2c0.1,0.1,0.2,0.2,0.2,0.4
				s-0.1,0.2-0.2,0.4c-0.3,0.3-0.4,0.7-0.6,1.1c-0.5,1.4-1.1,3.1-1.8,4.6c1.3,0.2,2.6,0.5,4.1,1C287,21.2,287.2,20.4,287.3,19.4z
				 M276.2,25.3c0,0.7,0.2,1,0.7,1c0.4,0,0.8-0.3,1.2-0.8c0.5-0.6,1-1.4,1.5-2.6C277.5,23,276.2,24.1,276.2,25.3z"/>
		</g>
		<g class="st2">
			<path d="M300.5,21.2c1.2-0.7,2.2-0.9,3.3-0.9c3.1,0,5.2,2,5.2,5c0,3.5-2.8,5.8-7.3,5.8c-2.6,0-4.2-1.1-4.2-3.1
				c0-1.4,1.3-2.6,3-2.6c2,0,3.4,1,3.9,3.1c1.5-0.7,2.1-1.6,2.1-3.2c0-1.9-1.3-3.2-3.3-3.2c-1.7,0-3.7,0.8-5.4,2.2
				c-0.6,0.5-1.2,1.2-1.8,1.8c-0.1,0.1-0.3,0.2-0.4,0.2c-0.1,0-0.2-0.1-0.3-0.2c-0.4-0.4-0.9-0.9-1.2-1.4c-0.1-0.2-0.1-0.3,0.1-0.5
				c1.6-1.3,3.1-2.7,5-4.6c1.3-1.3,2.3-2.4,3.3-3.6c-1.3,0.2-2.8,0.5-4.1,0.8c-0.3,0.1-0.5,0.1-0.9,0.3c-0.1,0-0.3,0.1-0.4,0.1
				c-0.2,0-0.4-0.1-0.5-0.4c-0.3-0.5-0.4-1.1-0.7-2.3c0.6,0.1,1.3,0.1,2,0c1.3-0.1,3.1-0.4,4.8-0.7c0.5-0.1,0.9-0.2,1.2-0.3
				c0.1-0.1,0.3-0.2,0.4-0.2c0.2,0,0.3,0.1,0.5,0.2c0.6,0.5,1,0.9,1.4,1.3c0.2,0.2,0.2,0.3,0.2,0.5c0,0.2-0.1,0.4-0.4,0.5
				c-0.4,0.2-0.5,0.3-0.9,0.7C303.4,18.1,302,19.6,300.5,21.2L300.5,21.2z M300.5,27.1c-0.6,0-1,0.4-1,0.8c0,0.7,0.6,1.1,1.8,1.1
				c0.4,0,0.7,0,1-0.1C302,27.8,301.4,27.1,300.5,27.1z"/>
		</g>
		<g class="st2">
			<path d="M325.9,22.5h-12.8v-1.2h12.8V22.5z"/>
		</g>
		<g class="st2">
			<path class="st3" d="M335.7,25.7c0.4-0.5,0.6-0.9,0.7-1.2c0.6,0.2,1.3,0.5,1.8,0.8c0.2,0.1,0.3,0.2,0.3,0.3
				c0,0.2-0.1,0.3-0.3,0.4c-0.1,0.1-0.3,0.3-0.5,0.5c-0.8,1.2-2,2.4-3.5,3.4c-0.3,0.2-0.4,0.3-0.5,0.3s-0.2-0.1-0.4-0.4
				c-0.3-0.4-0.8-0.9-1.2-1.2C333.7,27.8,334.9,26.8,335.7,25.7z M335.1,23.6c-1.9,0-2.5,0-2.6,0c-0.2,0-0.2,0-0.2-0.2v-1.6
				c0-0.2,0-0.3,0.2-0.3c0.1,0,0.8,0,2.6,0h12.7c1.9,0,2.5,0,2.6,0c0.2,0,0.3,0,0.3,0.3v1.6c0,0.2,0,0.2-0.3,0.2c-0.1,0-0.8,0-2.6,0
				h-5.2v2.8c0,1,0.1,1.9,0.1,2.6c0,0.9-0.1,1.4-0.7,1.8c-0.5,0.4-1.1,0.5-3.1,0.5c-0.6,0-0.7,0-0.8-0.4c-0.1-0.7-0.4-1.4-0.7-1.9
				c0.8,0.1,1.3,0.1,2.3,0.1c0.5,0,0.6-0.1,0.6-0.7v-5H335.1z M347.3,14.5c2,0,2.6,0,2.8,0c0.2,0,0.2,0,0.2,0.2c0,0.1,0,0.5,0,1.1
				v0.9c0,1.9,0,2.2,0,2.4c0,0.2,0,0.2-0.2,0.2h-1.7c-0.2,0-0.2,0-0.2-0.2v-2.6h-13.3v2.7c0,0.2,0,0.2-0.3,0.2h-1.7
				c-0.2,0-0.2,0-0.2-0.2c0-0.1,0-0.5,0-2.4v-0.8c0-0.8,0-1.2,0-1.3c0-0.2,0-0.2,0.2-0.2c0.1,0,0.8,0,2.8,0h4.6v-0.2
				c0-0.9-0.1-1.5-0.2-2c0.8,0,1.7,0.1,2.4,0.1c0.2,0,0.3,0.1,0.3,0.3c0,0.2-0.1,0.3-0.2,0.4c-0.1,0.2-0.1,0.4-0.1,1.2v0.2H347.3z
				 M339,19.9c-1.9,0-2.6,0-2.7,0c-0.2,0-0.2,0-0.2-0.2v-1.5c0-0.2,0-0.2,0.2-0.2c0.1,0,0.8,0,2.7,0h5c1.9,0,2.6,0,2.7,0
				c0.2,0,0.2,0,0.2,0.2v1.5c0,0.2,0,0.2-0.2,0.2c-0.1,0-0.8,0-2.7,0H339z M346,24.6c0.2-0.1,0.3-0.1,0.4,0.1
				c1.2,1.7,2.6,2.8,4.5,3.8c-0.4,0.3-0.8,0.9-1.1,1.4c-0.2,0.3-0.3,0.5-0.4,0.5c-0.1,0-0.3-0.1-0.5-0.3c-1.8-1.3-3.1-2.7-4.3-4.4
				c-0.1-0.2,0-0.3,0.2-0.4L346,24.6z"/>
			<path class="st3" d="M358.7,27.4c-0.9,0.1-1.8,0.3-2.6,0.4c-0.4,0.1-0.7,0.1-0.8,0.2c-0.1,0.1-0.2,0.1-0.3,0.1s-0.2-0.1-0.3-0.3
				c-0.2-0.6-0.3-1.2-0.4-1.8c0.8,0,1.5-0.1,2.2-0.1c0.7-0.1,1.4-0.1,2.2-0.3c0-0.5-0.1-0.9-0.1-1.4c0.3,0,0.6,0,0.9,0.1
				c0.4-0.4,0.8-0.8,1.1-1.2h-3.2c-0.6,0.4-1.3,0.8-2,1.1c-0.2,0.1-0.4,0.2-0.5,0.2c-0.2,0-0.2-0.1-0.4-0.5c-0.2-0.4-0.5-0.7-0.8-1
				c1.8-0.8,3.4-1.8,4.8-2.9H357c-1.9,0-2.5,0-2.6,0c-0.2,0-0.2,0-0.2-0.2v-1.3c0-0.2,0-0.2,0.2-0.2c0.1,0,0.8,0,2.6,0h0.9v-1.8
				h-0.5c-1.4,0-1.9,0-2,0c-0.2,0-0.2,0-0.2-0.2V15c0-0.2,0-0.2,0.2-0.2c0.1,0,0.6,0,2,0h0.5c0-1.1,0-1.7-0.1-2.3
				c0.8,0,1.4,0.1,2,0.1c0.2,0,0.3,0.1,0.3,0.2c0,0.2-0.1,0.3-0.1,0.4c-0.1,0.2-0.1,0.6-0.1,1.5c1.2,0,1.6,0,1.8,0
				c0.2,0,0.2,0,0.2,0.2v1.3c0.3-0.5,0.7-1,0.9-1.5c0.2-0.4,0.5-0.9,0.6-1.4c0.5,0.3,1.2,0.6,1.7,0.9c0.2,0.1,0.3,0.2,0.3,0.4
				c0,0.1-0.1,0.2-0.2,0.3c-0.3,0.2-0.4,0.4-0.7,0.7c-0.5,0.9-1.1,1.8-1.7,2.6c0.8,0,1.2,0,1.3,0c0.2,0,0.3,0,0.3,0.2v1.3
				c0,0.2,0,0.2-0.3,0.2c-0.1,0-0.8,0-2.5,0h-0.3c-0.5,0.5-1.1,1-1.7,1.5h1.9c0.2,0,0.3,0,0.4-0.1c0.1,0,0.1-0.1,0.2-0.1
				c0.1,0,0.3,0.1,0.7,0.5c0.4,0.5,0.5,0.6,0.5,0.8c0,0.2-0.1,0.3-0.3,0.4c-0.2,0.1-0.3,0.1-0.7,0.5c-0.6,0.6-1,1.1-1.6,1.6
				c0,0,0,0.1,0,0.1c1.2-0.2,2.4-0.4,3.5-0.7c-0.1,0.3-0.1,0.8-0.1,1.2c0,0.7,0,0.7-0.7,0.8c-0.9,0.2-1.8,0.4-2.7,0.6v0.1
				c0,0.9,0,1.6,0,2.1c0,0.7-0.1,1.2-0.7,1.6c-0.5,0.4-1,0.5-2.5,0.5c-0.7,0-0.7,0-0.8-0.5c-0.1-0.7-0.4-1.2-0.6-1.5
				c0.6,0.1,1,0.1,1.7,0.1c0.6,0,0.8-0.2,0.8-0.7V27.4z M361.7,16.5c-0.1,0-0.5,0-1.8,0v1.8h0.4C360.8,17.7,361.3,17.2,361.7,16.5
				L361.7,16.5z M373.2,18c0,0.2,0,0.2-0.2,0.2c-0.1,0-0.5,0-1.3,0c-0.1,3.2-0.9,5.9-2.1,7.8c1,1.2,2.3,2.3,4,3.3
				c-0.4,0.4-0.7,0.9-1,1.5c-0.2,0.3-0.2,0.5-0.4,0.5c-0.1,0-0.2-0.1-0.4-0.2c-1.5-1.2-2.6-2.3-3.4-3.4c-1.3,1.5-2.7,2.6-4.6,3.6
				c-0.3,0.1-0.4,0.2-0.5,0.2c-0.1,0-0.2-0.1-0.4-0.4c-0.3-0.6-0.7-0.9-1-1.3c2.4-1,4.1-2.3,5.4-3.9c-0.7-1.3-1.2-2.8-1.6-4.2
				c-0.2,0.3-0.4,0.6-0.5,0.8c-0.2,0.2-0.3,0.4-0.4,0.4c-0.1,0-0.2-0.1-0.4-0.4c-0.3-0.4-0.7-0.7-1-0.9c1.8-2.1,2.8-5,3.4-7.5
				c0.1-0.6,0.2-1.2,0.2-1.8c0.6,0.1,1.4,0.3,1.9,0.4c0.3,0.1,0.4,0.2,0.4,0.3c0,0.1-0.1,0.3-0.2,0.5c-0.1,0.2-0.2,0.4-0.3,0.9
				c-0.1,0.6-0.3,1.2-0.5,1.9h2.5c1.8,0,2.4,0,2.5,0c0.2,0,0.2,0,0.2,0.2V18z M367.4,18.2c-0.1,0.4-0.3,0.7-0.5,1.1
				c0.3,1.8,0.8,3.4,1.4,4.8c0.7-1.5,1.1-3.4,1.3-5.9H367.4z"/>
		</g>
		<path d="M69.7,78.9c0.1-0.4,0.1-0.7,0.1-1.1c0-0.2,0-0.5,0.1-0.8s0-0.6,0-1s0-0.8-0.1-1.2c0-0.5-0.1-0.9-0.2-1.4
			c-0.1-0.6-0.3-1.2-0.5-1.8c-0.1-0.3-0.1-0.4-0.2-0.6l-0.1-0.2c-0.3-0.8-0.6-1.6-0.9-2.2s-0.4-1-0.6-1.4c-0.6-1.5-0.7-2.4-0.3-3.1
			c0.6-0.8,1.3-1.5,2.2-2l0.8,0.8c0.9,0.9,1.8,1.8,2.6,2.7c0.6,0.7,0.9,1.2,1.1,1.4l0.5,0.7c0.9,1.3,1.4,2.8,1.5,4.3
			c0.2,2-0.5,3.9-2,5.3c-0.3,0.3-0.7,0.5-1.1,0.8c-0.4,0.2-0.7,0.4-1.1,0.5c-0.4,0.1-0.8,0.2-1.2,0.2c-0.3,0-0.5,0-0.8,0L69.7,78.9z
			"/>
		<path d="M62.4,84.9c-0.7,0-1.3-0.1-2-0.3c0.1-0.2,0.2-0.5,0.3-1c0.3-1.4,0.6-2.8,0.7-4.2c0.2-1.5,0.2-2,0.2-2.3v-0.4
			c0.3-3.5,0.8-5.6,1.7-6.7c0.2-0.2,0.4-0.4,0.7-0.5c0.1-0.1,0.2-0.1,0.4-0.1c0.1,0,0.2-0.1,0.3-0.1c0.7-0.1,1.4-0.2,2.1-0.2l0,0
			l0.3,0.9c0.1,0.4,0.3,0.8,0.4,1.5c0.2,0.8,0.4,1.6,0.5,2.5c0.1,0.9,0.2,1.5,0.2,1.8v0.8c0.1,1.6-0.2,3.2-0.8,4.7
			c-0.4,1-1.1,1.9-2,2.6C64.4,84.6,63.4,84.9,62.4,84.9z"/>
		<path d="M53.7,89.5c-0.7,0-1.4-0.1-2.1-0.3c0-0.2,0.1-0.5,0.2-1c0.1-0.7,0.3-2,0.6-4.1l0.4-2.6c0.2-1.4,0.6-2.8,1.1-4.1
			c0.5-1.4,1.5-2.5,2.9-3.1c0.5-0.2,1-0.2,1.5-0.2c0.7,0,1.4,0.1,2.1,0.3c0,0.2-0.1,0.5-0.2,1c-0.2,1.2-0.4,2.5-0.6,4.1
			s-0.2,1.9-0.3,2.2v0.4c-0.2,1.4-0.6,2.8-1.2,4.1C57.1,88.4,55.6,89.5,53.7,89.5z"/>
		<path d="M37.5,73c-1.5,0-3.1-0.4-4.4-1.1c-3-1.5-4.2-5.2-2.6-8.2c0.1-0.2,0.2-0.4,0.4-0.6l0,0c0.2,0.2,0.4,0.4,0.8,0.7
			c1.2,0.9,2.5,1.6,3.8,2.1c0.6,0.2,1.1,0.4,1.7,0.6l0.7,0.2H38c0.9,0.2,1.6,0.4,2.2,0.5s1.2,0.2,1.6,0.4c1.6,0.4,2.3,0.7,2.7,1.4
			c0.1,0.2,0.2,0.4,0.2,0.5c0,0.1,0,0.2,0.1,0.3s0.1,0.3,0.1,0.4s0.1,0.6,0.1,0.9s0,0.4,0,0.7v0.1L44.1,72l-1.5,0.4l-1.1,0.2
			c-0.5,0.1-0.9,0.2-1.3,0.2C39.6,72.9,39,73,38.4,73c-0.3,0-0.5,0-0.7,0C37.7,73,37.5,73,37.5,73z"/>
		<path d="M45.5,94.3c-0.4,0-0.8,0-1.2-0.1c0-0.2,0-0.5-0.1-1L44,91.7v-0.4c0-0.6-0.1-1.3-0.1-2s0-1.4,0-1.8v-0.9
			c0-1.6,0.4-3.2,1-4.6c0.4-1,1.1-1.9,2-2.5c0.8-0.6,1.8-0.9,2.8-0.9c0.7,0,1.4,0.1,2.1,0.3c-0.1,0.2-0.2,0.5-0.3,1
			c-0.3,1.4-0.6,2.8-0.7,4.2c-0.2,1.4-0.2,1.9-0.3,2.2v0.4c-0.3,3.5-1,5.7-2.2,6.7c-0.7,0.7-1.7,1-2.7,0.9L45.5,94.3z"/>
		<path d="M58,90.8c-0.5,0-1-0.1-1.5-0.2c1.4-0.8,2.6-2.1,3.2-3.7c0.1-0.2,0.2-0.4,0.3-0.6c0.8,0.2,1.6,0.4,2.4,0.4
			c1.4,0,2.8-0.4,4-1.3c0.8-0.6,1.5-1.4,2-2.3c1.6,1,2.7,2.7,2.9,4.7h-1.1c-0.6,0-1.2,0.1-1.7,0.2c-0.8,0.2-1.7,0.4-2.5,0.6
			c-0.8,0.3-1.3,0.4-1.7,0.6l-0.8,0.3c-1.4,0.6-2.8,1-4.3,1.3C58.8,90.8,58.4,90.8,58,90.8L58,90.8z"/>
		<path d="M41.3,80.9c-1.2,0-2.4-0.3-3.4-1c-0.5-0.3-0.9-0.7-1.2-1.1c-0.2-0.2-0.3-0.4-0.5-0.7c-0.2-0.2-0.3-0.5-0.4-0.7
			c-0.4-0.9-0.6-1.9-0.6-2.9h0.1c0.3,0.1,0.7,0.1,1,0.2c0.5,0.1,1.1,0.1,1.6,0.1h0.2c0.9,0,1.8-0.1,2.6-0.3c0.9-0.2,1.4-0.3,1.8-0.4
			l0.8-0.2c1.4-0.5,2.8-0.9,4.2-1.1c0.3,0,0.7-0.1,1-0.1c0.6,0,1.1,0.1,1.7,0.3c1.2,0.5,2.1,1.5,2.5,2.8c-0.2,0.3-0.3,0.5-0.4,0.8
			l-0.1,0.3L51.6,77c-0.7-0.2-1.4-0.3-2.1-0.3c-1.4,0-2.7,0.4-3.8,1.2c-0.9,0.7-1.7,1.6-2.2,2.6C42.8,80.8,42,80.9,41.3,80.9z"/>
		<path d="M38.8,104.6l-1.6-0.8l0.1-0.4c0.3-0.9,0.9-2.5,1.7-4.4c0.5-1.3,1.2-2.5,1.9-3.6l0.3-0.5l-0.3-0.2l-0.1,0.2
			c-1,1.1-2,2.3-2.8,3.6c-0.9,1.4-1.6,2.9-2.2,4.4l-0.1,0.3l-1.5-0.6c0.2-0.5,0.5-1.1,0.8-1.6c0.5-1,1.1-2,1.7-3s1.2-1.9,1.9-2.9
			s1.4-2,2-2.8l-0.3-0.3c-0.8,0.7-1.6,1.5-2.5,2.5s-1.7,1.9-2.3,2.7c-0.7,1-1.4,2-2,3l-0.1,0.1c-0.3,0.5-0.5,1-0.8,1.5
			c0,0-0.1,0.1-0.1,0.2c-0.5-0.2-1-0.4-1.6-0.6c0.3-0.5,0.6-1.1,0.9-1.7c0.6-1,1.3-1.9,2-2.8c0.6-0.8,1.4-1.8,2.2-2.7
			s1.6-1.8,2.4-2.6l-0.2-0.3c-1,0.7-1.9,1.4-2.8,2.2c-1,0.9-1.8,1.7-2.5,2.5c-0.8,0.9-1.5,1.8-2.2,2.8l-0.5,0.8l-0.3,0.5l-0.1,0.3
			c-0.1,0.1-0.1,0.2-0.2,0.4l-2-0.7c2.4-3.6,5.5-6.8,9.1-9.3l0.7-0.5c1.5-1.2,3.1-2.2,4.8-3.1c0,0.2,0,0.4,0,0.7
			c-0.1,1.7,0.1,3.4,0.4,5c0.1,0.4,0.2,0.8,0.2,1.1c0.1,0.5,0.2,1,0.2,1.5C41,98.1,39.6,101.3,38.8,104.6z"/>
		<path d="M42.6,49.7c-0.1-0.3-0.2-0.7-0.3-1.2s-0.2-0.7-0.2-1.1s-0.1-0.8-0.2-1.3c-0.1-0.8-0.1-1.3-0.2-1.7v-0.2c0-0.3,0-0.4,0-0.6
			v-0.2c0-0.9,0.1-1.8,0.3-2.7c0.2-0.7,0.5-1.4,0.9-2.1c0.6-1.1,1.6-2,2.7-2.6c0.8-0.4,1.7-0.6,2.5-0.6c0.2,0,0.4,0,0.6,0
			c0.5,0,1,0.2,1.5,0.3c0.2,0.1,0.5,0.2,0.7,0.3l0.5,0.3v0c-0.2,0.3-0.4,0.5-0.7,0.8c-0.9,1.2-1.5,2.5-2,3.9
			c-0.2,0.6-0.4,1.2-0.6,1.8c-0.1,0.3-0.1,0.5-0.2,0.6v0.1c-0.1,0.7-0.3,1.3-0.4,1.9c-0.2,0.9-0.3,1.7-0.5,2.3
			c-0.1,0.7-0.4,1.4-0.9,2c-0.2,0.2-0.4,0.4-0.6,0.5c-0.3,0.1-0.5,0.2-0.8,0.3c-0.3,0.1-0.7,0.1-1,0.1h-0.6h-0.5L42.6,49.7z"/>
		<path d="M39.9,58c-0.1-0.1-0.3-0.3-0.7-0.7s-0.6-0.6-1.1-1.1s-1-1.1-1.6-1.8s-0.8-1-1-1.3l-0.1-0.2c-0.2-0.3-0.3-0.4-0.4-0.6
			l0-0.1c-0.8-1.3-1.3-2.8-1.4-4.4c-0.3-3.4,2.2-6.3,5.6-6.6c0.3,0,0.5,0,0.8,0h0.1v0.1c0,0.2-0.1,0.5-0.2,1
			c-0.1,0.6-0.1,1.2-0.1,1.8c0,0.4,0,0.8,0.1,1.2s0.1,0.9,0.2,1.4c0.2,0.9,0.3,1.4,0.4,1.7v0.1c0.1,0.3,0.1,0.5,0.2,0.6v0.1
			c0.3,0.8,0.5,1.4,0.7,1.9s0.5,1.3,0.6,1.8c0.5,1.5,0.5,2.4,0.1,3.2C41.6,56.9,40.8,57.5,39.9,58z"/>
		<path d="M70.4,104.6c-0.8-3.3-3.5-8.3-7.2-13.2c2-0.6,5.5-1.6,5.8-1.6l0.6-0.1h0.1c0.2,0,0.5-0.1,0.7-0.1c0.7,0,1.3,0.3,1.8,0.8
			l0.4,0.3c3.6,2.5,6.6,5.7,9.1,9.3l-2,0.7c-0.1-0.1-0.2-0.3-0.2-0.4l-0.2-0.3L79,99.5l-0.5-0.8c-0.7-1-1.4-1.9-2.2-2.8
			c-0.7-0.8-1.6-1.6-2.6-2.5c-0.9-0.8-1.8-1.5-2.8-2.2l-0.2,0.3c0.8,0.7,1.5,1.6,2.4,2.5s1.6,1.9,2.2,2.7s1.3,1.8,2,2.8
			c0.4,0.6,0.7,1.2,0.9,1.7c-0.5,0.2-1.1,0.4-1.6,0.6c0-0.1-0.1-0.1-0.1-0.2c-0.2-0.5-0.5-1-0.8-1.4l-0.1-0.1c-0.6-1-1.3-2-2-3
			c-0.6-0.8-1.3-1.7-2.3-2.7s-1.7-1.8-2.5-2.5l-0.3,0.3c0.6,0.8,1.3,1.8,2,2.8s1.3,2,1.9,2.9s1.2,2,1.7,3c0.2,0.5,0.5,1,0.8,1.6
			c-0.5,0.2-1,0.4-1.4,0.6l-0.1-0.2c-0.2-0.6-0.5-1.1-0.7-1.6c-0.6-1.2-1.2-2.2-1.7-3.1s-1.2-1.8-2-2.9s-1.5-1.9-2.2-2.7l-0.3,0.2
			c0.6,0.9,1.1,1.9,1.8,3s1.1,2,1.6,3.1s1,2,1.5,3.1c0.3,0.6,0.5,1.2,0.7,1.8L70.4,104.6z"/>
		<path d="M51.8,47.4c-1-0.1-1.9-0.4-2.8-1l0.3-1c0.3-1.3,0.7-2.5,1.2-3.7c0.2-0.4,0.3-0.8,0.5-1.1l0.3-0.6l0.4-0.7
			c0.7-1.4,1.8-2.5,3.1-3.4c1.1-0.7,2.3-1.1,3.6-1.1c0.6,0,1.3,0.1,1.9,0.3c1.5,0.5,2.7,1.5,3.5,2.9h-0.1c-0.2,0.1-0.5,0.2-1,0.4
			c-1.3,0.6-2.6,1.4-3.7,2.4c-0.4,0.3-0.7,0.6-0.9,0.8l-0.5,0.5c-0.2,0.2-0.3,0.3-0.4,0.5L57,42.6L55.9,44c-0.5,0.7-1,1.2-1.4,1.7
			C53.3,46.9,52.6,47.4,51.8,47.4L51.8,47.4z"/>
		<path d="M39.6,65.4c-1.2-0.4-2.4-0.8-3.6-1.3c-0.9-0.4-1.4-0.7-1.7-0.8l-0.7-0.4c-1.4-0.8-2.7-2-3.5-3.5c-0.6-1.1-0.9-2.4-0.8-3.6
			c0.1-1.3,0.7-2.6,1.6-3.6c0.2-0.2,0.4-0.4,0.6-0.5c0.3-0.3,0.7-0.5,1.1-0.8V51c0.1,0.3,0.3,0.7,0.4,1c0.6,1.3,1.4,2.6,2.4,3.7
			c0.5,0.6,0.9,1,1.1,1.2l0.1,0.1l0.4,0.4l1.3,1.2c0.9,0.8,1.5,1.3,2.1,1.9c0.6,0.5,1,1.1,1.3,1.8c0.1,0.3,0.1,0.5,0.1,0.8
			c0,0.3-0.1,0.6-0.2,0.8c-0.1,0.3-0.3,0.6-0.4,0.9c-0.1,0.2-0.2,0.3-0.3,0.5l-0.2,0.4L39.6,65.4z"/>
		<path d="M77,68.8c-0.1-0.3-0.2-0.7-0.4-1c-0.7-1.3-1.5-2.5-2.5-3.6c-0.6-0.7-1-1-1.3-1.3l-0.6-0.5L71,61.6
			c-0.9-0.7-1.6-1.3-2.2-1.8c-0.6-0.5-1-1.1-1.3-1.7c-0.2-0.5-0.2-1.1,0-1.7c0-0.2,0.1-0.3,0.2-0.5s0.1-0.3,0.2-0.5s0.3-0.6,0.5-0.9
			l1.2,0.3c1.2,0.3,2.3,0.6,3.5,1.1c0.7,0.3,1.2,0.5,1.5,0.7l0.2,0.1c0.2,0.1,0.3,0.2,0.5,0.2l0.2,0.1c1.5,0.8,2.7,1.9,3.6,3.3
			c0.7,1.1,1,2.3,1,3.6c0,0.6-0.1,1.1-0.3,1.6c-0.2,0.5-0.4,1-0.7,1.4c-0.3,0.4-0.6,0.8-1,1.2c-0.2,0.2-0.4,0.3-0.6,0.5
			C77.3,68.7,77.2,68.8,77,68.8L77,68.8z"/>
		<path d="M78.2,56.7c-0.2-0.1-0.4-0.4-0.8-0.7c-0.5-0.3-1-0.6-1.5-0.9c-0.8-0.4-1.6-0.7-2.4-1c-0.8-0.3-1.3-0.4-1.6-0.5h-0.2
			L71,53.4h-0.1c-0.8-0.2-1.4-0.3-2-0.4s-1.3-0.2-1.9-0.4c-1.6-0.3-2.4-0.7-2.8-1.4c-0.4-0.9-0.6-1.9-0.5-2.9l0.9-0.3l1.5-0.4
			l1.1-0.2c0.4-0.1,0.8-0.2,1.3-0.2c0.6-0.1,1.2-0.2,1.7-0.2L71,47h0.3c1.5,0,3,0.3,4.3,1c1.7,0.8,3,2.4,3.4,4.3
			C79.3,53.8,79,55.4,78.2,56.7z"/>
		<path d="M59.6,48c-0.1,0-0.3,0-0.4,0c-0.5-0.1-1-0.4-1.4-0.8c-0.2-0.2-0.4-0.5-0.6-0.8c-0.1-0.2-0.2-0.3-0.3-0.5l-0.2-0.4l0.8-0.8
			c0.2-0.3,0.6-0.6,1-1s1.1-1,1.8-1.6s1.1-0.8,1.5-1.1l0.7-0.4c1.4-0.9,3.1-1.4,4.7-1.4c1.3,0,2.5,0.3,3.6,1
			c1.7,1.2,2.8,3.2,2.7,5.3h-0.1c-0.3-0.1-0.7-0.1-1-0.2c-0.4,0-0.8-0.1-1.3-0.1h-0.4c-0.4,0-0.8,0-1.2,0.1s-0.9,0.1-1.4,0.2
			c-0.8,0.2-1.3,0.3-1.6,0.4l-0.2,0c-0.2,0.1-0.4,0.1-0.5,0.2l-0.2,0.1l-2,0.7c-0.8,0.3-1.5,0.5-2.1,0.7C60.8,47.8,60.2,48,59.6,48z
			"/>
	</g>
</g>
</svg>
