<?xml version="1.0" encoding="utf-8"?>
<!-- Generator: Adobe Illustrator 23.0.1, SVG Export Plug-In . SVG Version: 6.00 Build 0)  -->
<svg version="1.1" id="レイヤー_1" xmlns="http://www.w3.org/2000/svg" xmlns:xlink="http://www.w3.org/1999/xlink" x="0px"
	 y="0px" viewBox="0 0 402.1 126.6" style="enable-background:new 0 0 402.1 126.6;" xml:space="preserve">
<style type="text/css">
	.st0{fill:#FFFFFF;stroke:#000000;stroke-width:4.21;stroke-miterlimit:10;}
	.st1{fill:#FFFFFF;stroke:#000000;stroke-width:4.3;stroke-miterlimit:10;}
	.st2{enable-background:new    ;}
	.st3{fill:#30C0A9;}
</style>
<title>アセット 178</title>
<g>
	<g id="レイヤー_1-2">
		<polygon class="st0" points="399.9,40.5 41.6,40.5 60.3,2.1 399.9,2.1 		"/>
		<rect x="53.1" y="40.5" class="st1" width="346.9" height="69.4"/>
		<circle class="st1" cx="54.6" cy="72" r="52.5"/>
		<g class="st2">
			<path d="M187.8,77.9c0-0.1,0-0.1,0.1-0.1c0.5,0,2.3,0.3,4.2,0.8c0.3,0.1,0.4,0.3,0.4,0.5c0,0.2-0.1,0.5-0.4,0.7
				c-0.4,0.4-0.6,0.6-0.7,1.1c0,0,0,0.1,0,0.1c2.4,0,3.9-0.1,7.5-0.3c0.3,0,0.4,0.1,0.4,1.6c0,0.5,0,1-0.1,1.3
				c0,0.1-0.1,0.2-0.3,0.2c-3.7-0.2-5.3-0.3-7.7-0.3c0,0.5,0,1,0,1.4c0,0.5,0,0.9,0,1.3c3.2,0,6.3,0,12.1-0.3c0.3,0,0.4,0.1,0.4,1.7
				s-0.1,1.6-0.4,1.6c-5.6-0.3-8.9-0.3-12-0.3c-8.1,0-9.9,0-15.6,0.3h-0.1c-0.2,0-0.3,0-0.3-1.7s0-1.6,0.4-1.6
				c6.1,0.3,8.9,0.3,12.2,0.3c0-0.8,0-1.7,0-2.7c-2.7,0-4,0.1-8,0.3c-0.2,0-0.3-0.1-0.3-0.3c0-0.2,0-0.7,0-1.3c0-1.5,0-1.6,0.4-1.6
				c3.9,0.3,5.4,0.3,8,0.3c-0.1-1-0.1-1.9-0.3-2.8V77.9z M203.1,70.6c0,0.2-0.2,0.3-2.1,0.3c-1.4,0-1.6-0.1-1.6-0.3v-0.1
				c0.2-1.3,0.2-2.9,0.2-3.5c-2.4-0.1-4.1-0.1-5.5-0.1c-1.4,0-2.7,0-4.4,0c-1.9,0-3.2,0-4.6,0c-1.4,0-2.9,0-5.3,0.1
				c0,1.4,0.1,2.2,0.2,3.6v0c0,0.3-0.4,0.3-2.2,0.3c-0.9,0-1.6,0-1.6-0.3v-0.1c0.3-2.1,0.4-2.9,0.4-3.7c0-0.9-0.1-1.7-0.1-2.7
				c0-0.3,0-0.4,0.4-0.4c5.9,0.3,8.3,0.3,11,0.3c0-0.8,0-2.7-0.4-4.7c0-0.1,0-0.1,0-0.2c0-0.1,0.1-0.1,0.3-0.1
				c0.8,0.1,2.8,0.4,4,0.7c0.3,0.1,0.5,0.3,0.5,0.5c0,0.5-0.5,1.1-0.7,1.7c-0.2,0.7-0.3,1.5-0.3,2c3.1,0,5.4,0,11.4-0.3
				c0.3,0,0.3,0.1,0.3,0.3c-0.1,1.5-0.2,2.7-0.2,3.2C202.8,68.5,202.9,68.8,203.1,70.6L203.1,70.6z M198.1,71.9l-3.3-0.2
				c2.8,1.5,6.6,4.5,6.6,4.9c0,0.1-0.1,0.2-0.2,0.3c-0.3,0.3-1.8,1.8-2.1,1.8c-0.1,0-0.2-0.1-0.3-0.2c-0.7-0.7-1.4-1.4-2.1-2
				c-2.8,0.3-15.2,1.7-16.2,1.8c-0.4,0-0.7,0.3-1,0.3c-0.4,0-1.7-2.8-1.7-3.4c0-0.1,0.1-0.1,0.1-0.1s0.1,0,0.2,0
				c0.5,0.1,1.3,0.1,2.2,0.1c1.1,0,2.4-0.1,3.8-0.1c0.6-1.2,1.1-2.4,1.2-3.4c-1.1,0-2.3,0.1-3.9,0.2h-0.1c-0.1,0-0.3-0.1-0.3-0.3
				v-2.5c0-0.3,0.2-0.3,0.4-0.3c3.8,0.3,5.5,0.3,7.3,0.3c4.1,0,5.6-0.1,9.3-0.3c0.2,0,0.3,0.1,0.3,0.3c0,0.2,0.1,0.7,0.1,1.3
				c0,0.5,0,1-0.1,1.3C198.4,71.8,198.3,71.9,198.1,71.9L198.1,71.9z M189,71.7c0.3,0.1,0.5,0.2,0.5,0.4c0,0.2-0.4,0.4-0.8,0.7
				c-0.3,0.2-0.5,0.5-0.6,0.8c-0.2,0.4-0.4,0.9-0.7,1.3c2.4-0.2,4.8-0.4,6.7-0.5c-0.7-0.5-1.3-0.8-1.5-1c-0.1-0.1-0.1-0.1-0.1-0.2
				c0-0.1,0.1-0.2,0.1-0.3c0.3-0.3,0.9-0.9,1.3-1.2c-1.5-0.1-2.6-0.1-4-0.1c-0.4,0-0.8,0-1.3,0L189,71.7z"/>
			<path d="M232.9,85.4c0,2.3-1.1,4.5-5.9,4.5c-0.2,0-0.4-0.1-0.5-0.5c-0.2-0.8-1.3-2.1-2.1-3.1c0-0.1-0.1-0.1-0.1-0.2
				c0-0.1,0.1-0.1,0.2-0.1c0.1,0,0.1,0,0.2,0c1.2,0.2,2,0.3,2.7,0.3c1.4,0,1.8-0.5,1.8-1.6c0-2.3,0.1-4.3,0.1-5.8c0-2.1,0-3.5,0-4.5
				c0-1.4,0-4.1-0.2-6.4l-5.5,0.1v0.2c0,0.8,0,11,0.2,13.5v0.1c0,0.4-0.2,0.5-1.6,0.5c-1.2,0-1.6-0.1-1.6-0.4V82c0-0.5,0-1.3,0-2.3
				c-1.2,0-3.2-0.1-3.9-0.1s-2.4,0-3.5,0c0,1.7,0,3.1,0.1,3.8c0,0.4,0,0.4-0.5,0.5c-2.7,0-2.7,0-2.7-0.4v-0.2
				c0.1-1.2,0.2-4.2,0.2-15.3c0-0.3,0-0.7,0-1.3c0-1.2-0.1-2.8-0.2-4.7c0-0.1,0-0.2,0-0.3c0-0.2,0.1-0.2,0.3-0.2h0.2
				c1.4,0.1,4.4,0.2,6.2,0.2c1.7,0,4.4-0.1,6.5-0.2c0.3,0,0.4,0.1,0.4,0.3v0.1c-0.1,1-0.1,2-0.2,2.9c2.3,0.1,5.4,0.2,7,0.2
				c2.1,0,4.1,0,8.2-0.3h0c0.3,0,0.3,0.5,0.3,2c0,1.1,0,1.4-0.3,1.4c-2.3-0.2-3.9-0.3-5.3-0.3c-0.1,0.1-0.2,0.2-0.4,0.4
				c-0.3,0.2-0.4,0.5-0.4,1.2v4.8c0,2,0,6.9,0.2,10.8V85.4z M215.5,64.4c-1,0-2.1,0-2.1,0s0,2.9,0,3.9v0.8c0.6,0,1.4,0,2.2,0V64.4z
				 M215.5,77.1c0-1.3,0-3.2,0-5.4l-2.2,0.1V77L215.5,77.1z M220.8,68.3c0-0.7,0-3.8,0-3.8s-0.8,0-1.8,0c0,0.1-0.1,0.1-0.2,0.2
				c-0.1,0.1-0.2,0.2-0.3,0.4c0,0.3,0,0.5,0,4.2c0.8,0,1.7,0,2.3,0V68.3z M220.8,71.8c-0.7,0-1.5,0-2.3,0v5.3l2.3-0.1V71.8z"/>
			<path d="M253.8,82.8c0,0.3-0.1,0.6-1.7,0.6c-0.9,0-1.6,0-1.6-0.5v-0.1c0-0.6,0-1.5,0.1-2.4c-0.4,0-1-0.1-1.5-0.1
				c-0.6,0-1.2,0-1.6,0.1c0,1.5,0,3,0.1,4.4c0,0.6-0.1,0.6-1.7,0.6c-1.7,0-1.7-0.2-1.7-0.5v-0.1c0.3-4.7,0.4-9.8,0.4-12.5
				c0-3.5-0.1-6.3-0.2-9c0-0.1,0-0.2,0-0.3c0-0.1,0.1-0.2,0.2-0.2c0.1,0,0.2,0,0.3,0c1.1,0.1,2.6,0.2,4.3,0.2c1.7,0,2-0.1,4.2-0.2
				c0.4,0,0.4,0.1,0.4,0.5c-0.2,2.7-0.2,5.8-0.2,8.7c0,2.5,0.1,8.1,0.3,10.7V82.8z M249,65.4c-1,0-1.5,0-1.5,0s-0.1,2.1-0.1,4.5
				c0.4,0,1.1,0,1.6,0c0.5,0,1.2,0,1.6,0c0-2.2-0.1-4.5-0.1-4.5s-0.3,0-1,0H249z M250.6,72.7c-0.4,0-1,0-1.6,0c-0.6,0-1.3,0-1.6,0
				c0,1.3,0,3,0,4.9c0.4,0,1.1,0,1.6,0s1.2,0,1.5,0C250.6,75.7,250.6,74,250.6,72.7z M272.4,72.9c-3.8-0.4-7.3-0.4-9.5-0.4
				c-2.2,0-3.9,0.1-8.4,0.3c-0.3,0-0.4-0.1-0.4-1.6c0-1.6,0-1.6,0.4-1.6c3.3,0.3,5.1,0.3,6.8,0.3v-2.7c-1.5,0-3,0.1-5.5,0.2
				c-0.3,0-0.4,0-0.4-1.5c0-1.4,0.1-1.5,0.4-1.5c2.4,0.2,3.9,0.2,5.3,0.2v-0.3c-0.1-2.2-0.1-3.4-0.5-5v-0.2c0-0.2,0-0.2,0.2-0.2
				c0.5,0,4.4,0.4,4.4,1.1c0,0.3-0.3,0.6-0.5,1c-0.4,0.7-0.3,0.6-0.5,2.9c0,0.2,0,0.4,0,0.7c1.3,0,2.6-0.1,5.2-0.2
				c0.2,0,0.4,0,0.4,1.6c0,0.5,0,1-0.1,1.3c0,0.1-0.2,0.2-0.3,0.2h0c-2.5-0.1-3.7-0.2-5.2-0.2V70c2.1,0,4.9-0.2,8-0.4
				c0.2,0,0.4,0.2,0.4,1.7c0,0.5,0,1.1-0.1,1.4C272.7,72.8,272.6,72.9,272.4,72.9L272.4,72.9z M267.9,85.9c0,2-1.1,4.2-5.1,4.2
				c-0.2,0-0.4-0.2-0.5-0.5c-0.6-1.5-1.8-2.1-2.7-3c-0.1-0.1-0.2-0.2-0.2-0.2c0,0,0-0.1,0.1-0.1c0,0,0.1,0,0.2,0
				c1.1,0.2,2,0.3,2.8,0.3c1.3,0,2-0.3,2-1.3c0.1-1.3,0.1-4,0.1-5.5v-2h-1.5c-2.2,0-3.9,0.1-8.3,0.3c-0.1,0-0.3-0.1-0.3-0.3
				c0-0.3,0-0.8,0-1.3c0-1.6,0-1.6,0.4-1.6c4.2,0.3,5.9,0.3,8.3,0.3h1.4c-0.1-0.8-0.1-1.5-0.3-2c0-0.1,0-0.1,0-0.1
				c0-0.1,0.1-0.2,0.3-0.2c0.1,0,4,0.3,4,1c0,0.1-0.1,0.3-0.3,0.5c-0.3,0.4-0.4,0.4-0.4,0.7c1.4-0.1,3-0.2,4.6-0.3h0
				c0.2,0,0.3,0.3,0.3,1.7c0,0.5,0,1.1-0.1,1.5c0,0.1-0.2,0.2-0.3,0.2h0c-1.7-0.2-3.3-0.3-4.7-0.3v2.9c0,1.8,0.2,3,0.2,4.9V85.9z
				 M260.3,84.4c-0.1,0-0.1-0.1-0.2-0.1c-1.5-1.8-3.6-3.2-4.2-3.6c-0.1-0.1-0.1-0.1-0.1-0.2c0-0.4,1.5-1.4,1.8-1.6
				c0.1-0.1,0.1-0.1,0.2-0.1c0.1,0,0.1,0,0.2,0.1c0.7,0.3,3.2,1.6,4.5,2.9c0.1,0.1,0.1,0.1,0.1,0.2c0,0.2-1.5,1.9-2,2.4
				C260.4,84.4,260.4,84.4,260.3,84.4z"/>
			<path d="M281.6,89.3c0.5-4.6,0.7-12,0.9-17.6c-0.3,0.4-3.8,4.7-4.6,4.7c-0.1,0-0.2,0-0.3-0.1c-0.7-0.5-2-0.9-2.9-1.1
				c-0.2,0-0.3-0.1-0.3-0.2c0-0.1,0.1-0.1,0.2-0.2c5.8-4.1,10.5-12,10.9-14.3c0-0.1,0.1-0.2,0.2-0.2c0.6,0,4,1.5,4,2.1
				c0,0.2-0.3,0.5-0.8,0.7c-0.5,0.2-0.7,0.1-1,0.7c-0.3,0.6-1.2,2-2.3,3.6c0.2,0.1,0.4,0.2,0.5,0.2c0.2,0.1,0.3,0.2,0.3,0.4
				c0,0.2-0.1,0.4-0.3,0.6c-0.5,0.5-0.5,0.8-0.5,1.6c-0.1,4.2-0.3,9.8-0.3,14.3c0,1.8,0,3.4,0.1,4.7c0,0.2-0.1,0.3-1.9,0.3
				C281.9,89.7,281.6,89.7,281.6,89.3L281.6,89.3z M305.1,71.1c0,0.1-0.2,0.3-0.3,0.3c-5.1,0.4-5.8,0.4-8.8,0.9l-0.7,0.1
				c2,10.1,7.6,12.9,8.3,12.9c0.8,0,1.6-1,1.8-3.8c0-0.2,0.1-0.3,0.2-0.3c0.1,0,0.1,0.1,0.2,0.2c0.5,0.6,1.6,2.1,2.7,2.8
				c0.1,0.1,0.2,0.2,0.2,0.5c-0.9,3-2.5,4.7-4.6,4.7c-0.8,0-1.8-0.3-2.7-0.9c-5.6-3.5-8.1-9.5-9.3-15.5l-4.9,1h-0.1
				c-0.1,0-0.3,0-0.4-0.2c-0.2-0.5-0.4-2-0.4-2.7v-0.1c0-0.3,0.2-0.4,0.4-0.4c2.1-0.1,3.6-0.3,4.9-0.4c-0.3-1.7-0.5-3.5-0.6-5.1
				c-0.2-1.6-0.3-3-0.5-3.9c0-0.2-0.1-0.3-0.1-0.4c0-0.1,0.1-0.2,0.2-0.2c0.1,0,0.1,0,0.2,0c3.7,0.4,4.4,0.6,4.4,1.1
				c0,0.3-0.3,0.8-0.5,1.2c-0.2,0.4-0.2,0.7-0.2,1.1c0,1.2,0,3.3,0.3,5.7l0.7-0.1c3.3-0.4,4.1-0.6,8.7-1.6h0.1
				c0.2,0,0.3,0.1,0.4,0.3C304.8,68.7,305.1,70.5,305.1,71.1L305.1,71.1z M299.9,67.6c-1.7-1.6-3.9-2.7-4.1-2.8
				c-0.1-0.1-0.3-0.1-0.3-0.2c0-0.3,1.4-2.2,1.8-2.2c0.6,0,4.8,2.3,4.8,2.8c0,0.3-1.4,2.7-1.8,2.7C300.2,67.8,300.1,67.7,299.9,67.6
				z"/>
		</g>
		<g class="st2">
			<path d="M117.1,17.4c-2.6,0.5-4.8,0.9-7.1,1.4c-0.8,0.2-1,0.2-1.3,0.3c-0.1,0.1-0.3,0.2-0.5,0.2c-0.1,0-0.3-0.1-0.4-0.3
				c-0.3-0.6-0.5-1.3-0.8-2.3c1.1,0,1.7-0.1,3.3-0.4c2.6-0.4,7.2-1.1,12.6-1.8c0.3,0,0.4,0.1,0.4,0.2c0.1,0.5,0.2,1.3,0.2,1.8
				c0,0.3-0.1,0.3-0.4,0.3c-1,0.1-1.7,0.2-2.6,0.5c-3.6,1.2-5.4,3.7-5.4,6.2c0,2.7,1.9,4.2,5.6,4.4c0.3,0,0.5,0.1,0.5,0.3
				c0,0.5-0.1,1.3-0.2,1.8c-0.1,0.3-0.1,0.4-0.4,0.4c-3.7,0-7.7-2.1-7.7-6.5C113.1,21.1,114.6,19.1,117.1,17.4L117.1,17.4z
				 M121.3,19.6c0.1-0.1,0.2-0.1,0.3,0c0.7,0.5,1.4,1.3,2,2.2c0.1,0.1,0.1,0.2-0.1,0.3l-0.9,0.7c-0.1,0.1-0.3,0.1-0.4-0.1
				c-0.6-1-1.3-1.8-2.1-2.4L121.3,19.6z M123.1,18.3c0.1-0.1,0.2-0.1,0.3,0c0.8,0.6,1.5,1.4,2,2.2c0.1,0.1,0.1,0.3-0.1,0.4l-0.8,0.7
				c-0.2,0.1-0.3,0.1-0.4-0.1c-0.6-0.9-1.2-1.7-2.1-2.4L123.1,18.3z"/>
		</g>
		<g class="st2">
			<path d="M133.2,14.7c-0.2-0.5-0.4-0.9-0.7-1.3c0.8-0.1,1.7-0.2,2.5-0.2c0.3,0,0.5,0.2,0.5,0.4c0,0.1,0,0.3,0,0.4
				c0,0.2,0,0.4,0.1,0.6c0.1,0.5,0.2,0.7,0.3,1.1c1.6-0.3,2.8-0.6,4.3-1.1c0.2-0.1,0.3-0.1,0.4,0.1c0.1,0.4,0.3,1,0.4,1.4
				c0,0.2-0.1,0.3-0.3,0.4c-1.4,0.4-2.7,0.8-4.1,1.1c0.2,0.5,0.5,1.2,0.7,1.8c1.7-0.4,2.8-0.7,3.8-1.1c0.2-0.1,0.3-0.1,0.4,0.1
				c0.2,0.5,0.3,0.9,0.4,1.4c0,0.2,0,0.3-0.2,0.4c-1,0.4-2.4,0.8-3.5,1c0.9,1.5,1.7,2.7,2.8,3.6c0.2,0.2,0.2,0.3,0.1,0.5
				c-0.2,0.5-0.5,0.9-0.9,1.3c-0.1,0.1-0.2,0.2-0.3,0.2c-0.1,0-0.2,0-0.3-0.1c-0.3-0.3-0.8-0.5-1.2-0.7c-1.1-0.5-2.5-0.7-3.9-0.7
				c-2,0-3.1,0.6-3.1,1.6c0,1.4,1.8,1.8,5,1.8c0.8,0,1.6-0.1,2.3-0.1c0.2,0,0.3,0.1,0.3,0.3c-0.1,0.5-0.2,1.3-0.4,1.9
				c-0.1,0.2-0.1,0.3-0.4,0.3c-0.5,0-1,0.1-1.5,0.1c-4.8,0-7.4-1.4-7.4-3.9c0-2.2,1.9-3.7,5.2-3.7c1.5,0,2.8,0.2,3.6,0.5
				c-0.5-0.6-1.2-1.6-1.7-2.5c-2.2,0.3-4.2,0.6-5.8,0.6c-0.2,0-0.3-0.1-0.4-0.3c-0.1-0.4-0.3-1.1-0.4-1.7c2.1,0,3.8-0.2,5.6-0.5
				c-0.2-0.4-0.5-1.2-0.8-1.7c-1.9,0.3-3.5,0.5-5.1,0.5c-0.3,0-0.4-0.1-0.4-0.3c-0.1-0.2-0.2-1-0.3-1.7c2.1,0,3.7-0.1,5.2-0.3
				C133.6,15.5,133.5,15.2,133.2,14.7z"/>
		</g>
		<g class="st2">
			<path d="M149.8,24c0.2,0.1,0.2,0.2,0.1,0.4c-0.3,0.5-0.5,1.2-0.5,1.6c0,1.3,1.4,2,5,2c2,0,4-0.2,5.7-0.6c0.3-0.1,0.4,0,0.4,0.2
				c0.1,0.4,0.3,1.5,0.3,2.1c0,0.2-0.1,0.3-0.4,0.3c-2,0.4-3.9,0.5-6.2,0.5c-4.9,0-7.2-1.5-7.2-4.2c0-0.9,0.3-1.8,1.1-3
				C148.7,23.5,149.2,23.7,149.8,24z M154.5,15.8c1.5,0,3-0.1,4.4-0.2c0.2,0,0.3,0.1,0.3,0.2c0.1,0.5,0.2,1.1,0.2,1.8
				c0,0.3-0.1,0.4-0.4,0.4c-2,0.3-3.4,1-5.1,2.1c-0.2,0.1-0.4,0.2-0.5,0.2c-0.1,0-0.3,0-0.4-0.1c-0.4-0.3-0.9-0.5-1.5-0.7
				c1.1-0.7,2-1.3,2.8-1.7c-0.5,0.1-1.1,0.1-1.5,0.1c-0.9,0-2.7-0.1-3.9-0.4c-0.2,0-0.3-0.1-0.3-0.4c0-0.5,0-1.1,0.1-1.9
				C150.2,15.6,152.2,15.8,154.5,15.8z M160.2,13.5c0.1-0.1,0.2-0.1,0.3,0c0.7,0.5,1.4,1.3,2,2.2c0.1,0.1,0.1,0.2-0.1,0.3l-0.9,0.7
				c-0.1,0.1-0.3,0.1-0.4-0.1c-0.6-1-1.3-1.8-2.1-2.4L160.2,13.5z M162.1,12.1c0.1-0.1,0.2-0.1,0.3,0c0.8,0.6,1.5,1.4,2,2.2
				c0.1,0.1,0.1,0.3-0.1,0.4l-0.8,0.7c-0.2,0.1-0.3,0.1-0.4-0.1c-0.6-0.9-1.2-1.7-2.1-2.4L162.1,12.1z"/>
		</g>
		<g class="st2">
			<path d="M173.1,13.6c0.3,0.1,0.4,0.2,0.4,0.3c0,0.3-0.1,0.6-0.1,0.9c0,0.4,0.1,0.9,0.1,1.4c0.2,1.5,0.4,2.5,0.7,3.6
				c1-0.6,1.8-1,3-1.6c0.6-0.4,1.1-0.7,1.4-1.1c0.7,0.7,1.2,1.4,1.5,2c0.1,0.1,0.1,0.3,0.1,0.4c0,0.2-0.1,0.4-0.4,0.4
				c-0.6,0.1-1.3,0.4-2,0.6c-1.8,0.7-3.5,1.5-4.9,2.5c-1.8,1.2-2.5,2.2-2.5,3.2c0,1.2,0.9,1.8,3.3,1.8c2.6,0,4.8-0.2,6.4-0.5
				c0.2,0,0.3,0,0.4,0.3c0.1,0.6,0.2,1.3,0.2,2c0,0.2-0.1,0.3-0.4,0.4c-1.9,0.3-3.6,0.3-6.3,0.3c-4,0-6.1-1.3-6.1-4
				c0-2.3,1.5-3.9,4-5.4c-0.5-1.6-0.9-3.5-1.1-5.1c-0.1-1.1-0.3-1.8-0.5-2.4C171.4,13.3,172.3,13.4,173.1,13.6z"/>
		</g>
		<g class="st2">
			<path d="M196.7,17.1c-0.5,3.6-1.4,6.8-2.6,9c-0.9,1.6-2,2.4-3.6,2.4c-1.8,0-3.7-2-3.7-5.4c0-2,0.9-3.9,2.4-5.5
				c1.8-1.8,4-2.7,6.8-2.7c5,0,8,3.1,8,7.3c0,3.9-2.2,6.4-6.5,7.6c-0.4,0.1-0.6,0-0.9-0.4c-0.2-0.4-0.7-0.8-1.5-1.3
				c3.5-0.8,6.3-2.3,6.3-6.3C201.5,19.5,199.6,17.1,196.7,17.1L196.7,17.1z M190.7,19.1c-1,1.1-1.6,2.5-1.6,3.9c0,1.9,0.8,3,1.4,3
				c0.5,0,1-0.3,1.6-1.3c0.9-1.7,1.9-4.7,2.2-7.5C192.8,17.5,191.7,18.1,190.7,19.1z"/>
		</g>
		<g class="st2">
			<path d="M220.3,12.8c0.3-0.1,0.3-0.1,0.4,0.1c1.4,3.2,3.9,6.1,6.8,7.7c-0.4,0.3-0.9,1-1.2,1.6c-0.2,0.3-0.3,0.5-0.4,0.5
				c-0.1,0-0.2-0.1-0.4-0.3c-0.7-0.5-1.4-1.1-2-1.7c0,0.6,0,1.3-0.1,2.1c-0.1,2.2-0.2,3.9-0.5,5.9c-0.3,1.7-1.1,2.6-3.1,2.6
				c-0.5,0-0.9,0-1.4,0c-0.7,0-0.6,0-0.8-0.7c-0.1-0.7-0.4-1.3-0.7-1.7c1,0.1,1.7,0.2,2.4,0.2c0.9,0,1.2-0.3,1.4-1.3
				c0.2-1.2,0.4-2.8,0.4-5.2h-3.7c-0.4,4.2-2.5,7.2-6.4,8.9c-0.2,0.1-0.4,0.2-0.5,0.2c-0.2,0-0.2-0.1-0.4-0.5
				c-0.3-0.5-0.7-1-1.1-1.3c3.8-1.4,5.7-3.6,6.1-7.3h-0.3c-2,0-2.6,0-2.8,0c-0.2,0-0.2,0-0.2-0.2v-1.5c-0.7,0.6-1.3,1.2-2,1.7
				c-0.2,0.2-0.4,0.3-0.5,0.3c-0.1,0-0.2-0.1-0.4-0.5c-0.3-0.5-0.8-1-1.2-1.3c2.8-1.8,4.9-4.3,6.1-6.9c0.2-0.4,0.3-0.8,0.4-1.3
				c0.8,0.2,1.6,0.5,2.2,0.7c0.2,0.1,0.3,0.2,0.3,0.4c0,0.1-0.1,0.2-0.2,0.3c-0.2,0.2-0.3,0.4-0.5,0.7c-1.1,2.3-2.3,4.1-3.8,5.6
				c0.3,0,1,0,2.6,0h5.6c1.8,0,2.5,0,2.7,0c-2-2-3.5-4.3-4.5-6.7c-0.1-0.2,0-0.3,0.2-0.4L220.3,12.8z"/>
		</g>
		<g class="st2">
			<path d="M236.4,18.1c0.8,1,1.9,1.8,3.1,2.4c-0.2,0.3-0.5,0.7-0.7,1.1c-0.1,0.3-0.2,0.5-0.4,0.5c-0.1,0-0.2-0.1-0.5-0.3
				c-0.9-0.8-1.7-1.5-2.3-2.6c0,1.7,0.1,2.1,0.1,2.3s0,0.2-0.2,0.2h-1.4c-0.2,0-0.2,0-0.2-0.2c0-0.2,0.1-0.6,0.1-2.1
				c-0.8,1.1-1.7,1.9-2.8,2.8c-0.2,0.2-0.4,0.3-0.5,0.3c-0.1,0-0.2-0.1-0.4-0.4c-0.2-0.5-0.5-0.9-0.8-1.2c1.5-0.8,2.7-1.7,3.6-2.8
				h-0.4c-1.8,0-2.4,0-2.5,0c-0.2,0-0.2,0-0.2-0.2v-1.2c0-0.2,0-0.2,0.2-0.2c0.1,0,0.7,0,2.5,0h1V15c0-1,0-1.5-0.1-2.5
				c0.8,0,1.3,0.1,2,0.1c0.2,0,0.3,0.1,0.3,0.2c0,0.2-0.1,0.3-0.1,0.5c-0.1,0.3-0.1,0.7-0.1,1.7v1.6h0.9c1.8,0,2.4,0,2.5,0
				c0.2,0,0.2,0,0.2,0.2V18c0,0.2,0,0.2-0.2,0.2c-0.1,0-0.7,0-2.5,0H236.4z M232.7,25.7c-1.8,0-2.4,0-2.5,0c-0.2,0-0.2,0-0.2-0.2
				v-1.3c0-0.2,0-0.2,0.2-0.2c0.1,0,0.7,0,2.5,0h1c0-0.7,0.1-1.2,0-1.8c0.8,0.1,1.4,0.1,1.9,0.2c0.2,0,0.4,0.1,0.4,0.3
				c0,0.1-0.1,0.2-0.1,0.3c-0.1,0.1-0.1,0.4-0.2,1.1h1c1.8,0,2.4,0,2.5,0c0.2,0,0.3,0,0.3,0.2v1.3c0,0.2,0,0.2-0.3,0.2
				c-0.1,0-0.7,0-2.5,0H236c0.8,1.3,1.8,2.1,3.1,2.7c-0.5,0.4-0.8,0.8-1,1.1c-0.2,0.3-0.3,0.5-0.5,0.5c-0.1,0-0.3-0.1-0.5-0.3
				c-1-0.8-1.7-1.6-2.3-2.6c-0.7,1.6-1.8,2.8-3.3,3.7c-0.2,0.1-0.3,0.2-0.4,0.2c-0.1,0-0.3-0.1-0.5-0.5c-0.3-0.4-0.6-0.8-1-1.1
				c2-0.8,3.2-2,3.7-3.7H232.7z M231.6,13.2c0.2-0.1,0.3-0.1,0.4,0.1c0.4,0.5,0.8,1.3,1.2,2c0.1,0.2,0.1,0.3-0.2,0.4l-1,0.5
				c-0.3,0.1-0.3,0.1-0.4-0.1c-0.3-0.7-0.7-1.4-1.1-2c-0.1-0.2-0.2-0.3,0.1-0.4L231.6,13.2z M237,14c0.1-0.3,0.3-0.6,0.3-0.9
				c0.5,0.1,1.2,0.4,1.6,0.6c0.2,0.1,0.2,0.2,0.2,0.3s0,0.2-0.2,0.3c-0.1,0.1-0.2,0.3-0.3,0.4c-0.2,0.4-0.4,0.8-0.7,1.3
				c-0.2,0.3-0.3,0.4-0.4,0.4c-0.1,0-0.2-0.1-0.4-0.2c-0.4-0.2-0.8-0.3-1-0.4C236.5,15.1,236.8,14.5,237,14z M243.2,28.5
				c0.2,0.1,0.2,0.2,0.2,0.3c0,0.1-0.1,0.2-0.3,0.3c-0.2,0.1-0.3,0.2-0.5,0.4c-0.9,0.8-1.6,1.2-2.8,1.9c-0.3,0.1-0.4,0.2-0.5,0.2
				c-0.2,0-0.3-0.1-0.5-0.5c-0.3-0.4-0.6-0.8-0.9-1.1c1.6-0.6,2.3-1,3.1-1.7c0.3-0.2,0.5-0.4,0.7-0.7
				C242.3,27.9,242.8,28.2,243.2,28.5z M242.3,15.1c-1.9,0-2.5,0-2.6,0c-0.2,0-0.2,0-0.2-0.2v-1.5c0-0.2,0-0.2,0.2-0.2
				c0.1,0,0.8,0,2.6,0h3.9c1.9,0,2.5,0,2.6,0c0.2,0,0.2,0,0.2,0.2v1.5c0,0.2,0,0.2-0.2,0.2c-0.1,0-0.8,0-2.6,0h-1
				c-0.2,0.6-0.4,1.1-0.7,1.6h1c1.7,0,2.3,0,2.4,0c0.2,0,0.2,0,0.2,0.2c0,0.1,0,0.9,0,2.5v5.6c0,1.6,0,2.3,0,2.4
				c0,0.2,0,0.3-0.2,0.3c-0.1,0-0.7,0-2.4,0h-2.8c-1.7,0-2.3,0-2.4,0c-0.2,0-0.3,0-0.3-0.3c0-0.1,0-0.8,0-2.4v-5.5
				c0-1.7,0-2.4,0-2.5c0-0.2,0-0.2,0.3-0.2c0.1,0,0.7,0,2.1,0c0.3-0.5,0.4-1,0.6-1.6H242.3z M242.1,19.8h4v-1.3h-4V19.8z
				 M246.1,22.7v-1.4h-4v1.4H246.1z M246.1,24.3h-4v1.5h4V24.3z M245.6,27.8c0.1-0.1,0.2-0.1,0.3-0.1c0.1,0,0.1,0,0.2,0.1
				c1.1,1,2.2,1.6,3.5,2.1c-0.3,0.3-0.6,0.7-0.9,1.2c-0.2,0.4-0.3,0.5-0.5,0.5c-0.1,0-0.3-0.1-0.5-0.2c-1.3-0.7-2.1-1.4-3-2.3
				c-0.1-0.1-0.1-0.1-0.1-0.2s0-0.1,0.2-0.3L245.6,27.8z"/>
		</g>
		<g class="st2">
			<path d="M261.4,17.4c-2.6,0.5-4.8,0.9-7.1,1.4c-0.8,0.2-1,0.2-1.3,0.3c-0.1,0.1-0.3,0.2-0.5,0.2c-0.1,0-0.3-0.1-0.4-0.3
				c-0.3-0.6-0.5-1.3-0.8-2.3c1.1,0,1.7-0.1,3.3-0.4c2.6-0.4,7.2-1.1,12.6-1.8c0.3,0,0.4,0.1,0.4,0.2c0.1,0.5,0.2,1.3,0.2,1.8
				c0,0.3-0.1,0.3-0.4,0.3c-1,0.1-1.7,0.2-2.6,0.5c-3.6,1.2-5.4,3.7-5.4,6.2c0,2.7,1.9,4.2,5.6,4.4c0.3,0,0.5,0.1,0.5,0.3
				c0,0.5-0.1,1.3-0.2,1.8c-0.1,0.3-0.1,0.4-0.4,0.4c-3.7,0-7.7-2.1-7.7-6.5C257.4,21.1,258.9,19.1,261.4,17.4L261.4,17.4z
				 M265.6,19.6c0.1-0.1,0.2-0.1,0.3,0c0.7,0.5,1.4,1.3,2,2.2c0.1,0.1,0.1,0.2-0.1,0.3l-0.9,0.7c-0.1,0.1-0.3,0.1-0.4-0.1
				c-0.6-1-1.3-1.8-2.1-2.4L265.6,19.6z M267.5,18.3c0.1-0.1,0.2-0.1,0.3,0c0.8,0.6,1.5,1.4,2,2.2c0.1,0.1,0.1,0.3-0.1,0.4l-0.8,0.7
				c-0.2,0.1-0.3,0.1-0.4-0.1c-0.6-0.9-1.2-1.7-2.1-2.4L267.5,18.3z"/>
		</g>
		<g class="st2">
			<path d="M287.3,19.4c0-0.5,0-0.9,0-1.4c1.1,0.3,1.9,0.6,2.4,0.9c0.2,0.1,0.3,0.4,0.1,0.6c-0.1,0.3-0.3,0.5-0.3,0.8
				c-0.2,0.9-0.4,1.8-0.6,2.7c1.2,0.6,2.5,1.4,3.3,2c0.2,0.1,0.2,0.2,0.1,0.4c-0.2,0.5-0.7,1.4-0.9,1.8c-0.1,0.1-0.1,0.1-0.2,0.1
				c-0.1,0-0.2-0.1-0.3-0.1c-0.9-0.8-1.8-1.4-2.8-2c-1.1,2.4-2.2,3.9-4.2,5.5c-0.2,0.1-0.3,0.2-0.4,0.2c-0.1,0-0.2,0-0.3-0.1
				c-0.6-0.5-1.1-0.7-1.8-0.9c2.6-1.8,3.9-3.6,4.7-5.7c-1.2-0.6-2.6-1-4.2-1.3c-1.1,2.3-1.7,3.4-2.6,4.2c-0.8,0.8-1.6,1.2-2.7,1.2
				c-1.2,0-2.5-0.8-2.5-2.9c0-2.6,2.7-4.6,6.2-4.6c0.7-1.7,1.2-3.2,1.7-5c-1.2,0.1-2.2,0.3-2.9,0.3c-0.3,0-0.6,0.1-0.9,0.2
				c-0.1,0-0.3,0.1-0.4,0.1c-0.2,0-0.3-0.1-0.3-0.2c-0.2-0.4-0.4-1.2-0.6-2.3c0.6,0.1,1.2,0.1,1.8,0.1c1,0,2.1-0.1,3.3-0.3
				c0.5-0.1,0.8-0.2,1-0.4c0.1-0.1,0.2-0.1,0.3-0.1c0.1,0,0.2,0,0.3,0.1c0.5,0.3,1,0.7,1.4,1.2c0.1,0.1,0.2,0.2,0.2,0.4
				s-0.1,0.2-0.2,0.4c-0.3,0.3-0.4,0.7-0.6,1.1c-0.5,1.4-1.1,3.1-1.8,4.6c1.3,0.2,2.6,0.5,4.1,1C287,21.2,287.2,20.4,287.3,19.4z
				 M276.2,25.3c0,0.7,0.2,1,0.7,1c0.4,0,0.8-0.3,1.2-0.8c0.5-0.6,1-1.4,1.5-2.6C277.5,23,276.2,24.1,276.2,25.3z"/>
		</g>
		<g class="st2">
			<path d="M300.5,21.2c1.2-0.7,2.2-0.9,3.3-0.9c3.1,0,5.2,2,5.2,5c0,3.5-2.8,5.8-7.3,5.8c-2.6,0-4.2-1.1-4.2-3.1
				c0-1.4,1.3-2.6,3-2.6c2,0,3.4,1,3.9,3.1c1.5-0.7,2.1-1.6,2.1-3.2c0-1.9-1.3-3.2-3.3-3.2c-1.7,0-3.7,0.8-5.4,2.2
				c-0.6,0.5-1.2,1.2-1.8,1.8c-0.1,0.1-0.3,0.2-0.4,0.2c-0.1,0-0.2-0.1-0.3-0.2c-0.4-0.4-0.9-0.9-1.2-1.4c-0.1-0.2-0.1-0.3,0.1-0.5
				c1.6-1.3,3.1-2.7,5-4.6c1.3-1.3,2.3-2.4,3.3-3.6c-1.3,0.2-2.8,0.5-4.1,0.8c-0.3,0.1-0.5,0.1-0.9,0.3c-0.1,0-0.3,0.1-0.4,0.1
				c-0.2,0-0.4-0.1-0.5-0.4c-0.3-0.5-0.4-1.1-0.7-2.3c0.6,0.1,1.3,0.1,2,0c1.3-0.1,3.1-0.4,4.8-0.7c0.5-0.1,0.9-0.2,1.2-0.3
				c0.1-0.1,0.3-0.2,0.4-0.2c0.2,0,0.3,0.1,0.5,0.2c0.6,0.5,1,0.9,1.4,1.3c0.2,0.2,0.2,0.3,0.2,0.5c0,0.2-0.1,0.4-0.4,0.5
				c-0.4,0.2-0.5,0.3-0.9,0.7C303.4,18.1,302,19.6,300.5,21.2L300.5,21.2z M300.5,27.1c-0.6,0-1,0.4-1,0.8c0,0.7,0.6,1.1,1.8,1.1
				c0.4,0,0.7,0,1-0.1C302,27.8,301.4,27.1,300.5,27.1z"/>
		</g>
		<g class="st2">
			<path d="M325.9,22.5h-12.8v-1.2h12.8V22.5z"/>
		</g>
		<g class="st2">
			<path class="st3" d="M335.7,25.7c0.4-0.5,0.6-0.9,0.7-1.2c0.6,0.2,1.3,0.5,1.8,0.8c0.2,0.1,0.3,0.2,0.3,0.3
				c0,0.2-0.1,0.3-0.3,0.4c-0.1,0.1-0.3,0.3-0.5,0.5c-0.8,1.2-2,2.4-3.5,3.4c-0.3,0.2-0.4,0.3-0.5,0.3s-0.2-0.1-0.4-0.4
				c-0.3-0.4-0.8-0.9-1.2-1.2C333.7,27.8,334.9,26.8,335.7,25.7z M335.1,23.6c-1.9,0-2.5,0-2.6,0c-0.2,0-0.2,0-0.2-0.2v-1.6
				c0-0.2,0-0.3,0.2-0.3c0.1,0,0.8,0,2.6,0h12.7c1.9,0,2.5,0,2.6,0c0.2,0,0.3,0,0.3,0.3v1.6c0,0.2,0,0.2-0.3,0.2c-0.1,0-0.8,0-2.6,0
				h-5.2v2.8c0,1,0.1,1.9,0.1,2.6c0,0.9-0.1,1.4-0.7,1.8c-0.5,0.4-1.1,0.5-3.1,0.5c-0.6,0-0.7,0-0.8-0.4c-0.1-0.7-0.4-1.4-0.7-1.9
				c0.8,0.1,1.3,0.1,2.3,0.1c0.5,0,0.6-0.1,0.6-0.7v-5H335.1z M347.3,14.5c2,0,2.6,0,2.8,0c0.2,0,0.2,0,0.2,0.2c0,0.1,0,0.5,0,1.1
				v0.9c0,1.9,0,2.2,0,2.4c0,0.2,0,0.2-0.2,0.2h-1.7c-0.2,0-0.2,0-0.2-0.2v-2.6h-13.3v2.7c0,0.2,0,0.2-0.3,0.2h-1.7
				c-0.2,0-0.2,0-0.2-0.2c0-0.1,0-0.5,0-2.4v-0.8c0-0.8,0-1.2,0-1.3c0-0.2,0-0.2,0.2-0.2c0.1,0,0.8,0,2.8,0h4.6v-0.2
				c0-0.9-0.1-1.5-0.2-2c0.8,0,1.7,0.1,2.4,0.1c0.2,0,0.3,0.1,0.3,0.3c0,0.2-0.1,0.3-0.2,0.4c-0.1,0.2-0.1,0.4-0.1,1.2v0.2H347.3z
				 M339,19.9c-1.9,0-2.6,0-2.7,0c-0.2,0-0.2,0-0.2-0.2v-1.5c0-0.2,0-0.2,0.2-0.2c0.1,0,0.8,0,2.7,0h5c1.9,0,2.6,0,2.7,0
				c0.2,0,0.2,0,0.2,0.2v1.5c0,0.2,0,0.2-0.2,0.2c-0.1,0-0.8,0-2.7,0H339z M346,24.6c0.2-0.1,0.3-0.1,0.4,0.1
				c1.2,1.7,2.6,2.8,4.5,3.8c-0.4,0.3-0.8,0.9-1.1,1.4c-0.2,0.3-0.3,0.5-0.4,0.5c-0.1,0-0.3-0.1-0.5-0.3c-1.8-1.3-3.1-2.7-4.3-4.4
				c-0.1-0.2,0-0.3,0.2-0.4L346,24.6z"/>
			<path class="st3" d="M358.7,27.4c-0.9,0.1-1.8,0.3-2.6,0.4c-0.4,0.1-0.7,0.1-0.8,0.2c-0.1,0.1-0.2,0.1-0.3,0.1s-0.2-0.1-0.3-0.3
				c-0.2-0.6-0.3-1.2-0.4-1.8c0.8,0,1.5-0.1,2.2-0.1c0.7-0.1,1.4-0.1,2.2-0.3c0-0.5-0.1-0.9-0.1-1.4c0.3,0,0.6,0,0.9,0.1
				c0.4-0.4,0.8-0.8,1.1-1.2h-3.2c-0.6,0.4-1.3,0.8-2,1.1c-0.2,0.1-0.4,0.2-0.5,0.2c-0.2,0-0.2-0.1-0.4-0.5c-0.2-0.4-0.5-0.7-0.8-1
				c1.8-0.8,3.4-1.8,4.8-2.9H357c-1.9,0-2.5,0-2.6,0c-0.2,0-0.2,0-0.2-0.2v-1.3c0-0.2,0-0.2,0.2-0.2c0.1,0,0.8,0,2.6,0h0.9v-1.8
				h-0.5c-1.4,0-1.9,0-2,0c-0.2,0-0.2,0-0.2-0.2V15c0-0.2,0-0.2,0.2-0.2c0.1,0,0.6,0,2,0h0.5c0-1.1,0-1.7-0.1-2.3
				c0.8,0,1.4,0.1,2,0.1c0.2,0,0.3,0.1,0.3,0.2c0,0.2-0.1,0.3-0.1,0.4c-0.1,0.2-0.1,0.6-0.1,1.5c1.2,0,1.6,0,1.8,0
				c0.2,0,0.2,0,0.2,0.2v1.3c0.3-0.5,0.7-1,0.9-1.5c0.2-0.4,0.5-0.9,0.6-1.4c0.5,0.3,1.2,0.6,1.7,0.9c0.2,0.1,0.3,0.2,0.3,0.4
				c0,0.1-0.1,0.2-0.2,0.3c-0.3,0.2-0.4,0.4-0.7,0.7c-0.5,0.9-1.1,1.8-1.7,2.6c0.8,0,1.2,0,1.3,0c0.2,0,0.3,0,0.3,0.2v1.3
				c0,0.2,0,0.2-0.3,0.2c-0.1,0-0.8,0-2.5,0h-0.3c-0.5,0.5-1.1,1-1.7,1.5h1.9c0.2,0,0.3,0,0.4-0.1c0.1,0,0.1-0.1,0.2-0.1
				c0.1,0,0.3,0.1,0.7,0.5c0.4,0.5,0.5,0.6,0.5,0.8c0,0.2-0.1,0.3-0.3,0.4c-0.2,0.1-0.3,0.1-0.7,0.5c-0.6,0.6-1,1.1-1.6,1.6
				c0,0,0,0.1,0,0.1c1.2-0.2,2.4-0.4,3.5-0.7c-0.1,0.3-0.1,0.8-0.1,1.2c0,0.7,0,0.7-0.7,0.8c-0.9,0.2-1.8,0.4-2.7,0.6v0.1
				c0,0.9,0,1.6,0,2.1c0,0.7-0.1,1.2-0.7,1.6c-0.5,0.4-1,0.5-2.5,0.5c-0.7,0-0.7,0-0.8-0.5c-0.1-0.7-0.4-1.2-0.6-1.5
				c0.6,0.1,1,0.1,1.7,0.1c0.6,0,0.8-0.2,0.8-0.7V27.4z M361.7,16.5c-0.1,0-0.5,0-1.8,0v1.8h0.4C360.8,17.7,361.3,17.2,361.7,16.5
				L361.7,16.5z M373.2,18c0,0.2,0,0.2-0.2,0.2c-0.1,0-0.5,0-1.3,0c-0.1,3.2-0.9,5.9-2.1,7.8c1,1.2,2.3,2.3,4,3.3
				c-0.4,0.4-0.7,0.9-1,1.5c-0.2,0.3-0.2,0.5-0.4,0.5c-0.1,0-0.2-0.1-0.4-0.2c-1.5-1.2-2.6-2.3-3.4-3.4c-1.3,1.5-2.7,2.6-4.6,3.6
				c-0.3,0.1-0.4,0.2-0.5,0.2c-0.1,0-0.2-0.1-0.4-0.4c-0.3-0.6-0.7-0.9-1-1.3c2.4-1,4.1-2.3,5.4-3.9c-0.7-1.3-1.2-2.8-1.6-4.2
				c-0.2,0.3-0.4,0.6-0.5,0.8c-0.2,0.2-0.3,0.4-0.4,0.4c-0.1,0-0.2-0.1-0.4-0.4c-0.3-0.4-0.7-0.7-1-0.9c1.8-2.1,2.8-5,3.4-7.5
				c0.1-0.6,0.2-1.2,0.2-1.8c0.6,0.1,1.4,0.3,1.9,0.4c0.3,0.1,0.4,0.2,0.4,0.3c0,0.1-0.1,0.3-0.2,0.5c-0.1,0.2-0.2,0.4-0.3,0.9
				c-0.1,0.6-0.3,1.2-0.5,1.9h2.5c1.8,0,2.4,0,2.5,0c0.2,0,0.2,0,0.2,0.2V18z M367.4,18.2c-0.1,0.4-0.3,0.7-0.5,1.1
				c0.3,1.8,0.8,3.4,1.4,4.8c0.7-1.5,1.1-3.4,1.3-5.9H367.4z"/>
		</g>
		<rect x="50.1" y="41.7" width="8.9" height="1.5"/>
		<rect x="52" y="38.2" width="5.2" height="2.1"/>
		<path d="M54.6,38.6c1.1,0,2-0.9,2-2.1c0-1.1-0.9-2-2.1-2c-1.1,0-2,0.9-2,2C52.5,37.7,53.5,38.6,54.6,38.6
			C54.6,38.6,54.6,38.6,54.6,38.6z"/>
		<path d="M94.5,73.8c-6.1,0-12.2-1.8-18.3-4.8v-6.1h-2.9v-4.6c3.6-0.4,7-1.5,10.1-3.3c0.4-0.2,0.2-0.9-0.2-0.9
			c-7.8,0.1-15.7-3.9-23.6-9.6H49.5C41.9,50,34.3,54,26.6,54.1c-0.6,0-0.7,1-0.2,1.3c3,1.5,6.2,2.5,9.5,2.9v4.6h-2.9V69
			c-6.1,3-12.2,4.7-18.3,4.8c-0.6,0-0.8,1.4-0.2,1.7c4,2.1,8.4,3.4,12.8,4v4.3h-2.7v6.4h-3.6V96h6.2v4.6h3.5V96h47.3v4.6h3.6V96h6.3
			v-5.8h-3.6v-6.4h-2.7v-4.3c4.5-0.6,8.8-1.9,12.8-4C95.2,75.1,95.1,73.8,94.5,73.8z M30.9,85.2h8.9v5h-8.9V85.2z M54.6,59.2
			c1.5,0,3.1,0,4.7,0v3.7h-8.9v-3.7L54.6,59.2z M59.3,64.3v4.5h-8.9v-4.5H59.3z M62.3,68.8v-4.5h7.4v4.5H62.3z M47.3,68.8h-7.9v-4.5
			h7.9L47.3,68.8z M53,80.9v2.9H42.8v-3C46.4,80.9,49.8,80.9,53,80.9L53,80.9z M53,85.2v5H42.8v-5H53z M69.3,90.2v-5h8.9v5H69.3z
			 M66.3,90.2H56.1v-5h10.3L66.3,90.2z M56.1,83.8v-2.9c3.3,0,6.7,0,10.2-0.1v3L56.1,83.8z M74.8,64.3v4.5h-1.5v-4.5H74.8z
			 M69.8,62.9h-7.4v-3.8c2.5-0.1,5-0.2,7.4-0.4L69.8,62.9z M39.5,58.7c2.6,0.2,5.3,0.4,7.9,0.4v3.8h-7.9V58.7z M35.9,64.3v4.5h-1.5
			v-4.5H35.9z M30.9,80c2.9,0.3,5.9,0.6,8.9,0.7v3.2h-8.9V80z M26.1,85.2h1.3v5h-1.3L26.1,85.2z M83.2,85.2v5h-1.3v-5H83.2z
			 M78.3,83.8h-8.9v-3.2c3-0.1,6-0.3,8.9-0.7V83.8z"/>
	</g>
</g>
</svg>
