<svg xmlns="http://www.w3.org/2000/svg" viewBox="0 0 402.07 126.64"><defs><style>.cls-1,.cls-2,.cls-3{fill:#fff;stroke:#000;stroke-miterlimit:10;}.cls-1{stroke-width:4.21px;}.cls-2{stroke-width:4.3px;}.cls-3{stroke-width:4.3px;}</style></defs><title>アセット 306</title><g id="レイヤー_2" data-name="レイヤー 2"><g id="レイヤー_2-2" data-name="レイヤー 2"><polygon class="cls-1" points="399.92 40.55 41.62 40.55 60.35 2.11 399.92 2.11 399.92 40.55"/><rect class="cls-2" x="53.07" y="40.54" width="346.85" height="69.43"/><circle class="cls-3" cx="54.61" cy="72.03" r="52.46"/><path d="M152.53,87.58c-.07,0-.14,0-.17,0a8.35,8.35,0,0,0-2.52-.61c-.2,0-.34-.07-.34-.17s0-.07.1-.14a18.24,18.24,0,0,0,4.25-7.48c.07-.2,0-.41.21-.41s2.89.51,2.89,1c0,.2-.24.4-.48.71a3.41,3.41,0,0,0-.58,1,25.36,25.36,0,0,1-3.06,6.09A.54.54,0,0,1,152.53,87.58Zm24.92-3.74c-.82,0-2.21,0-3.68-.06,0,1,0,1.83.07,2.1.07.85.82.92,3.4.92,3.5,0,3.95,0,3.95-3.43,0-.07,0-.14.06-.14s.11.07.21.17a10.25,10.25,0,0,0,2.65,1.91c.17.1.17.17.17.23-.31,3.61-2.58,3.95-7.72,3.95-3.16,0-5.54-.34-5.54-2.59v-.24c0-.4.07-1.46.07-2.88-1.29,0-2.48,0-3.37,0,0,.41,0,.81,0,1.22,0,.24-.11.28-.34.28s-.78,0-1.23,0-.85,0-1.12,0-.37-.07-.37-.21v0a1.38,1.38,0,0,1,0-.34,16.42,16.42,0,0,0-2.07.85.14.14,0,0,1-.1,0c-.62,0-2.66-6.56-2.66-7s1.64-.65,2-.65c.07,0,.11,0,.14.14a22.68,22.68,0,0,0,2.72,5.78c.13-1.74.17-3,.17-4.83,0-1,0-1.94-.1-3.13a8,8,0,0,1-2.28,1.23.26.26,0,0,1-.24-.21,12.12,12.12,0,0,0-.41-1.36l-1.87.41c0,.1-.06.24-.27.41a.71.71,0,0,0-.2.58c0,4.52.07,6.8.41,12.44v.07a.22.22,0,0,1-.17.23c-.38,0-1.09.07-1.74.07-1.39,0-1.46-.13-1.46-.44.37-5.74.37-8,.41-12.78-1.77.37-3.33.68-3.54.75-.37.1-.61.4-.81.4s-.92-1.39-1.23-2.92a.43.43,0,0,1,0-.17s0-.14.34-.14h.44c.78,0,1.8-.06,2.89-.13.34-.51.78-1.26,1.29-2.14a38.83,38.83,0,0,0-4-1.84.33.33,0,0,1-.21-.31.43.43,0,0,1,0-.2c.23-.41.74-1.43,1-1.77.07-.1.1-.13.17-.13a.29.29,0,0,1,.14,0l.58.24a41.58,41.58,0,0,0,2-8.16c0-.31,0-.41.2-.41.51.07,3.37.92,3.37,1.67,0,.24-.24.47-.55.78a2.55,2.55,0,0,0-.54,1c-.48,1.18-1.67,4.62-2.35,6.15.48.24.92.51,1.33.75a63.26,63.26,0,0,0,3.06-6.9c.07-.17,0-.31.13-.31.55,0,3.34,1.32,3.34,1.94,0,.24-.34.37-.72.64a1.93,1.93,0,0,0-.64.82c-1.53,2.65-3.51,5.88-4.8,7.85l3.23-.37L160,71.43a1.11,1.11,0,0,1-.07-.23s0-.28,1.6-.75a.23.23,0,0,1,.14,0,.35.35,0,0,1,.27.17,23.09,23.09,0,0,1,2.89,5c0-.51-.11-1.09-.14-1.77a.21.21,0,0,1,.24-.21H165c1.8.11,4,.17,6.15.17v-2c-1,0-1.87,0-2.52,0v.68c0,.24-.06.27-.34.27s-.74,0-1.19,0-.81,0-1.08,0-.38-.1-.38-.24a48.9,48.9,0,0,0,.27-5.4c0-1.53-.06-2.89-.23-5.24,0-.1.06-.2.23-.2H166c2.25.13,4.29.17,6.73.17,2.66,0,4-.07,6.36-.24h.07a.27.27,0,0,1,.27.27c-.13,2.21-.17,3.54-.17,5.24,0,1.53.1,2.79.27,5.06a.33.33,0,0,1-.3.34c-.41,0-.95,0-1.43,0a6.14,6.14,0,0,1-.92,0c-.24,0-.37-.07-.37-.3v-.41c-.61,0-1.6,0-2.72,0,0,.68,0,1.36,0,2,2.25,0,4.19-.06,6.33-.23h.07a.27.27,0,0,1,.27.27c-.14,1.39-.17,3.47-.17,5.2s.1,3.2.27,5.13a.41.41,0,0,1-.31.38c-.34,0-.81,0-1.25,0-1.3,0-1.53-.07-1.53-.37Zm-6.29-8-3.54.07s0,.82-.07,1.74c.92,0,2.25,0,3.61,0Zm0,3.88c-1.36,0-2.68,0-3.53.07,0,.47,0,1.15.06,1.9.89,0,2.18,0,3.47,0Zm-2.58-15.81s0,.89,0,1.8c.68,0,1.64,0,2.66,0,0-.65,0-1.33,0-1.87C169.63,63.92,168.54,63.92,168.54,63.92Zm2.65,3.84c-1.05,0-2,0-2.69,0l.11,2c.68,0,1.59,0,2.58,0Zm2.58,9.93c1.53,0,3,0,3.78,0,0-1,0-1.74,0-1.74l-3.74-.07Zm0,4c1.53,0,3,0,3.78,0,0-.75,0-1.39,0-1.9-.81,0-2.28,0-3.81-.07Zm.11-14c0,.61,0,1.29,0,2,1.19,0,2.14,0,2.76,0,0-.78,0-1.43,0-2C176,67.8,175,67.8,173.88,67.76Zm.44-3.7c-.48.3-.31.85-.38,1.46,0,.07,0,.14,0,.24,1.19,0,2.11,0,2.72,0,0-1,0-1.8,0-1.8s-.82,0-2.08,0Z"/><path d="M214.44,69.12c-3.1-.17-5.54-.27-7.65-.3.81.3,1.56.61,1.56,1s-.37.58-.81.85a3.46,3.46,0,0,0-1.06,1.91,25.41,25.41,0,0,1-3.36,6.25c2.92,3.2,7.54,6.15,15,6.94.2,0,.37.07.37.17s-.1.2-.34.37a16.57,16.57,0,0,0-3.37,2.82.44.44,0,0,1-.4.21,26.51,26.51,0,0,1-13.26-8,28.07,28.07,0,0,1-13.3,8.23c-.06,0-.17,0-.27,0a.48.48,0,0,1-.47-.2c-.58-1-2.35-2.11-3.06-2.62-.24-.17-.34-.27-.34-.34s.17-.1.37-.13a22.52,22.52,0,0,0,15.09-7.52,23.69,23.69,0,0,1-2.82-5.3c-.88,1.33-1.66,2.58-1.7,2.72-.1.31-.06.65-.3.65a11.68,11.68,0,0,1-3.2-1.81.26.26,0,0,1-.1-.2c0-.1,0-.17.1-.2a15.14,15.14,0,0,0,4.86-5.78c-2.14,0-4.69.13-8.19.3h-.1c-.21,0-.34,0-.34-1.7s0-1.8.44-1.8c5.68.34,8.6.41,11.63.44a36.16,36.16,0,0,0-.34-6.32c0-.07,0-.14,0-.2s.07-.14.17-.14a22.18,22.18,0,0,1,4.08.68c.34.1.44.24.44.44,0,.41-.54,1-.71,1.63a21.25,21.25,0,0,0-.27,3.91c2.82,0,6.29-.13,11.73-.44.37,0,.44.1.44,1.77,0,.58,0,1.12,0,1.46a.37.37,0,0,1-.34.27Zm-13.36-.37c-1,0-2,0-3.1,0,.65.24,1,.44,1,.75a.9.9,0,0,1-.1.34,1.71,1.71,0,0,0-.21.82v.2a20.63,20.63,0,0,0,2.42,5.27,16.62,16.62,0,0,0,2.78-7.41Z"/><path d="M231.1,82.76c0,.34-.1.57-1.7.57-.92,0-1.63,0-1.63-.47v-.07c0-.65,0-1.5.07-2.41-.38,0-1-.07-1.47-.07s-1.19,0-1.56.07c0,1.53,0,3,.07,4.35,0,.58-.07.61-1.7.61s-1.74-.2-1.74-.55v-.1c.31-4.65.38-9.75.38-12.54,0-3.5-.07-6.26-.21-9,0-.14,0-.21,0-.31s.07-.2.24-.2.17,0,.27,0c1.09.1,2.58.17,4.32.17s2-.07,4.21-.2c.38,0,.45.13.45.47-.24,2.69-.24,5.81-.24,8.74,0,2.55.07,8.06.27,10.74Zm-4.76-17.34c-1,0-1.53,0-1.53,0s-.07,2.11-.07,4.52c.41,0,1.09,0,1.6,0s1.22,0,1.6,0c0-2.17-.1-4.52-.1-4.52s-.34,0-1,0Zm1.6,7.31c-.38,0-1,0-1.57,0s-1.25,0-1.63,0c0,1.32,0,3,0,4.86.4,0,1.05,0,1.56,0s1.16,0,1.53,0C227.9,75.75,227.94,74,227.94,72.73Zm21.82.17c-3.77-.38-7.31-.41-9.45-.41s-3.91.07-8.36.34c-.34,0-.41-.1-.41-1.57s0-1.63.41-1.63c3.33.28,5.06.34,6.83.34V67.29c-1.53,0-3,.07-5.47.2-.31,0-.38,0-.38-1.46s.07-1.53.45-1.53c2.38.2,3.91.2,5.33.2v-.34a27.37,27.37,0,0,0-.47-5v-.17c0-.17,0-.2.24-.2.54,0,4.35.4,4.35,1.12,0,.27-.31.61-.51,1-.38.71-.34.64-.48,2.85a5,5,0,0,0,0,.68c1.29,0,2.58-.06,5.2-.23.17,0,.41,0,.41,1.56a6.7,6.7,0,0,1-.07,1.26c0,.13-.2.2-.31.2h0c-2.55-.13-3.74-.17-5.24-.2V70c2.11,0,4.87-.17,8-.41.24,0,.38.24.38,1.67,0,.54,0,1.09-.07,1.43,0,.13-.17.24-.27.24Zm-4.59,13c0,2-1.12,4.25-5.1,4.25q-.3,0-.51-.51c-.64-1.53-1.83-2.07-2.65-3-.1-.11-.17-.17-.17-.24s0-.07.14-.07a1.39,1.39,0,0,0,.17,0,19.72,19.72,0,0,0,2.75.28c1.29,0,2-.34,2-1.33.07-1.32.07-4,.07-5.54v-2h-1.46c-2.18,0-3.95.07-8.33.34a.33.33,0,0,1-.34-.31c0-.27,0-.78,0-1.32,0-1.64,0-1.64.37-1.64,4.21.34,5.95.34,8.33.34h1.36a14.14,14.14,0,0,0-.27-2c0-.06,0-.1,0-.13s.1-.21.27-.21,4,.34,4,1a.87.87,0,0,1-.27.54c-.31.41-.41.41-.44.75,1.39-.07,3-.17,4.62-.3h0c.2,0,.34.27.34,1.7,0,.54,0,1.12-.07,1.46a.34.34,0,0,1-.27.24h0c-1.66-.17-3.26-.28-4.69-.31v2.92c0,1.84.17,3,.2,4.93Zm-7.51-1.49c-.07,0-.14-.07-.2-.14a19.71,19.71,0,0,0-4.25-3.64c-.11-.06-.14-.1-.14-.17,0-.37,1.5-1.36,1.84-1.56a.26.26,0,0,1,.17-.1.34.34,0,0,1,.17.07,17.07,17.07,0,0,1,4.45,2.89.26.26,0,0,1,.1.2,14.63,14.63,0,0,1-2,2.38C237.76,84.35,237.73,84.39,237.66,84.39Z"/><path d="M258.91,89.32c.51-4.59.75-12,.89-17.58-.31.37-3.81,4.73-4.56,4.73a.39.39,0,0,1-.27-.07,9.56,9.56,0,0,0-2.86-1.06c-.2,0-.34-.1-.34-.17s.07-.13.17-.2c5.85-4.15,10.51-12,10.92-14.28,0-.13.06-.2.17-.2.57,0,4,1.46,4,2.11,0,.23-.27.47-.78.68s-.68.13-1,.67A41.15,41.15,0,0,1,263,67.53c.24.06.41.17.54.2a.42.42,0,0,1,.34.41,1.06,1.06,0,0,1-.34.64,2.12,2.12,0,0,0-.51,1.63c-.13,4.22-.3,9.76-.3,14.28,0,1.77,0,3.37.1,4.69,0,.17-.1.34-1.94.34-1.6,0-1.94,0-1.94-.34Zm23.53-18.19c0,.13-.24.27-.34.27-5.1.37-5.85.44-8.84.88l-.72.11c2,10.13,7.62,12.92,8.3,12.92s1.6-1,1.84-3.81c0-.21.06-.27.17-.27s.13.06.2.17a12.25,12.25,0,0,0,2.72,2.75.52.52,0,0,1,.24.51c-.92,3-2.55,4.66-4.56,4.66a5.11,5.11,0,0,1-2.72-.92c-5.61-3.54-8.09-9.52-9.35-15.47l-4.86,1h-.1a.39.39,0,0,1-.41-.24,13.43,13.43,0,0,1-.37-2.68v-.14c0-.34.17-.41.37-.41,2.14-.13,3.61-.27,4.86-.44-.27-1.73-.47-3.47-.61-5.1s-.27-3-.48-3.91a2.49,2.49,0,0,1-.06-.37c0-.14.06-.21.2-.21s.14,0,.2,0c3.68.44,4.42.58,4.42,1.12A3.11,3.11,0,0,1,272,62.8a2.61,2.61,0,0,0-.2,1.12,49.33,49.33,0,0,0,.27,5.68l.75-.1c3.26-.45,4.08-.62,8.74-1.6h.07a.36.36,0,0,1,.37.3,18.12,18.12,0,0,1,.41,2.89Zm-5.17-3.54a23.35,23.35,0,0,0-4.11-2.82c-.14-.07-.28-.1-.28-.24a5.68,5.68,0,0,1,1.77-2.21c.65,0,4.8,2.32,4.8,2.76s-1.36,2.68-1.81,2.68A.51.51,0,0,1,277.27,67.59Z"/><path d="M304.23,79.32c0,.21-.07.34-.44.51-5.17,2.28-12,4.76-12.78,5.17-.58.31-.85.82-1.23.82-.57,0-2.58-2.76-2.58-3.13,0-.14.2-.17.44-.24a56.13,56.13,0,0,0,5.95-1.84c-.41-14.24-.75-16.83-1-18.46a.34.34,0,0,1,0-.2c0-.1.07-.14.31-.14.44,0,4.56.34,4.56,1.13,0,.23-.28.57-.51,1a2.84,2.84,0,0,0-.45,2c0,1.19.34,10.44.48,13.5,3.2-1.19,6.12-2.35,7.07-2.72a1.18,1.18,0,0,1,.27-.07c.07,0,.1,0,.1.1a.71.71,0,0,1,0,.21,7.49,7.49,0,0,0-.1,1.36,8.34,8.34,0,0,0,0,.88Zm-6.63,9.49a.43.43,0,0,1-.4-.24c-.72-1.16-2.25-1.57-3.06-2.08-.21-.1-.24-.2-.24-.27s.13-.13.24-.17c15.12-2.78,15.53-11.76,15.53-20.9a14.7,14.7,0,0,0-.3-3.23.59.59,0,0,1,0-.24c0-.07,0-.14.21-.14.47,0,4.76.51,4.76,1.29,0,.31-.34.65-.58,1a3.83,3.83,0,0,0-.51,1.77c-.1,1-.31,4.49-.44,5.68a24.42,24.42,0,0,1-2.08,7.38,22.31,22.31,0,0,0,8.26,7c.14.07.24.1.24.17s-.07.14-.27.2a18.32,18.32,0,0,0-3.26,1.7.46.46,0,0,1-.31.17c-.44,0-3.47-2.38-6.32-6.46C304.84,87.28,297.71,88.81,297.6,88.81Zm2.49-23.12c.13-.1.2-.17.3-.17.65,0,6.66,4.11,6.66,4.69a.76.76,0,0,1-.23.44c-.11.14-1.57,2-2,2a.54.54,0,0,1-.37-.24,44.52,44.52,0,0,0-5.61-4.55c-.2-.14-.27-.21-.27-.31a.51.51,0,0,1,.17-.31Z"/><path d="M341.46,65.08c2.62,0,5.48-.1,10-.34.38,0,.48.2.48,1.53,0,.61,0,1.22-.07,1.63,0,.17-.2.24-.41.24-5.88-.31-9.28-.34-12.65-.34-8.7,0-12,.13-16.21.34h-.1c-.41,0-.41-.27-.41-1.64,0-1.59,0-1.76.34-1.76h.17c4.38.24,7.34.3,9.79.34a19.87,19.87,0,0,0-3.2-3.91c-.1-.1-.17-.17-.17-.24a9,9,0,0,1,2.66-1.39c.34,0,4,3.46,4,4,0,.31-1.36,1.12-2,1.5H338a37.39,37.39,0,0,0,2.86-5.44c.1-.27.14-.41.27-.41s3.91,1.36,3.91,2c0,.23-.34.4-.78.68a3.16,3.16,0,0,0-1,.91Zm-8.6,17.27c-.64,0-1.66,0-2.31,0s-1.26,0-2,0c0,2.82.1,5.13.13,7,0,.28-.1.38-1.46.38-.58,0-1.22,0-1.66-.07-.24,0-.34-.07-.34-.27v-.1c.13-3.06.44-7.72.44-11.09,0-2.1,0-5.81-.24-8a1.07,1.07,0,0,1,0-.27c0-.14.06-.17.27-.17h.2a44.94,44.94,0,0,0,4.66.17c1.67,0,2.89,0,5-.17.3,0,.4.07.4.27v.14c0,.44-.2,2.34-.2,8.6,0,2.79.2,5.3.2,7.24s-.81,3.7-4.65,3.81a.47.47,0,0,1-.44-.45,10.28,10.28,0,0,0-1.94-2.68c-.07-.07-.14-.14-.14-.21s.07-.06.21-.06h.1a16.25,16.25,0,0,0,2.17.23c1.06,0,1.6-.3,1.6-1.12Zm0-3.57c0-.17,0-.72,0-1.36-.65,0-1.63,0-2.28,0s-1.36,0-2,0v2.41c.72,0,1.57,0,2,0s1.63,0,2.31,0Zm-.1-6.36s-1.12,0-2.24,0-1.91,0-1.91,0,0,1.19,0,2.52c.64,0,1.46,0,1.94,0s1.59,0,2.27,0C332.79,73.61,332.76,72.42,332.76,72.42Zm5.47-1.36c0-.1,0-.1.1-.1h.14a23.41,23.41,0,0,1,3.6.64c.31.11.41.21.41.41A2.38,2.38,0,0,1,342,73c-.2.34-.37.92-.37,3.4a68.24,68.24,0,0,0,.34,7.31c0,.14-.14.24-.31.24-.41,0-.95,0-1.5,0-1.66,0-1.8-.11-1.8-.34.21-2.89.27-3.4.27-6a28.26,28.26,0,0,0-.44-6.36Zm9.86,15.54c0,1.66-2,3.09-5.34,3.09a.57.57,0,0,1-.54-.48,11.79,11.79,0,0,0-2.14-2.72c-.07-.06-.1-.1-.1-.13s.1-.14.23-.14.14,0,.24,0a20,20,0,0,0,2.28.23c1,0,1.87-.23,1.9-1.08,0-2.11.07-3.64.07-4.86,0-1.64,0-2.69,0-3.88a38.66,38.66,0,0,0-.51-7.31.33.33,0,0,1,0-.17c0-.1.07-.1.28-.1a30.1,30.1,0,0,1,4,.71c.3.11.44.27.44.44a2.14,2.14,0,0,1-.48,1c-.27.41-.51,1-.51,4.45,0,2.21,0,6.63.24,10.85Z"/><path d="M106.88,24.16a16.83,16.83,0,0,0,1.94-.92,8.57,8.57,0,0,0,0,1.25c0,.66,0,.63-.52.92-1.24.62-2.66,1.2-4,1.7a2.82,2.82,0,0,0-.66.32.52.52,0,0,1-.34.14c-.12,0-.22-.06-.3-.24a17.53,17.53,0,0,1-.54-1.78,14.47,14.47,0,0,0,2-.51l.46-.13V19.22h-.16c-1.3,0-1.7,0-1.82,0s-.2,0-.2-.22V17.52c0-.2,0-.22.2-.22s.52,0,1.82,0h.16V15.46a16.94,16.94,0,0,0-.16-2.94c.78,0,1.4.06,2.06.14.2,0,.32.12.32.24a1.13,1.13,0,0,1-.12.4,6.71,6.71,0,0,0-.12,1.9v2.14c1.14,0,1.52,0,1.64,0s.2,0,.2.22V19c0,.2,0,.22-.2.22s-.5,0-1.64,0ZM111.93,27c0,.52.1.76.37.9s.91.22,2.89.22c2.16,0,2.82-.1,3.22-.42s.42-.68.48-2.26a5.67,5.67,0,0,0,1.44.64c.5.14.5.14.44.66-.18,1.74-.42,2.28-1.08,2.7s-1.64.66-4.74.66c-2.73,0-3.73-.24-4.23-.56s-.75-.9-.75-2V21.26c-1,.36-1.45.54-1.61.58s-.22,0-.26-.16l-.26-1.56c0-.2,0-.2.16-.26s.68-.16,2-.58v-2.2a23.8,23.8,0,0,0-.12-2.84c.67,0,1.32.06,1.91.12.29,0,.41.12.41.22a.9.9,0,0,1-.12.42,6.05,6.05,0,0,0-.12,1.9v1.72l1.92-.64v-2.9a20.74,20.74,0,0,0-.16-2.84,15.94,15.94,0,0,1,2,.16c.2,0,.32.1.32.22a1.13,1.13,0,0,1-.12.4,6.27,6.27,0,0,0-.12,1.8v2.52l1.54-.52c1.88-.62,2.48-.88,2.62-.9s.22,0,.22.2l-.06,2.56a19.56,19.56,0,0,1-.48,4.52c-.3,1.17-.86,1.53-1.72,1.53a4.72,4.72,0,0,1-.74,0c-.44,0-.44,0-.54-.66a5.15,5.15,0,0,0-.42-1.45,4.68,4.68,0,0,0,1.06.14c.34,0,.48-.1.6-.74a19.06,19.06,0,0,0,.24-3.5l-2.32.8v3.48c0,2,0,3,0,3.11s0,.22-.22.22H114c-.2,0-.22,0-.22-.22s0-1.1,0-3.11V19.94l-1.92.66Z"/><path d="M125.74,27.37h11.65c1.94,0,2.62,0,2.74,0s.22,0,.22.22v1.6c0,.2,0,.22-.22.22s-.8,0-2.74,0H125.74v.86c0,.2,0,.22-.24.22h-1.7c-.2,0-.22,0-.22-.22s0-1.48,0-4.2V17.34c0-2.74,0-4.08,0-4.2s0-.24.22-.24.8,0,2.68,0h10.77c1.86,0,2.5,0,2.62,0s.24,0,.24.24v1.58c0,.2,0,.22-.24.22s-.76,0-2.62,0H125.74ZM128.8,17c.18-.18.21-.2.38-.08,1.33.84,2.65,1.78,4,2.8a17.34,17.34,0,0,0,1.5-2.48,6,6,0,0,0,.56-1.62,11.28,11.28,0,0,1,1.92.76c.2.1.3.18.3.34s-.1.24-.24.36a4,4,0,0,0-.56.92,22.92,22.92,0,0,1-1.88,3c1.2,1,2.38,2,3.58,3.12.1.08.14.15.14.2s0,.14-.16.26l-1.1,1.2a.3.3,0,0,1-.22.15.2.2,0,0,1-.18-.11c-1.12-1.16-2.26-2.21-3.4-3.22a19.45,19.45,0,0,1-5,3.75,1.34,1.34,0,0,1-.48.2c-.14,0-.24-.14-.44-.44A3.83,3.83,0,0,0,126.48,25a18.89,18.89,0,0,0,5.39-3.77c-1.31-1-2.63-2-4-3-.1-.06-.14-.12-.14-.16s.06-.14.16-.24Z"/><path d="M150,21.54c1.09,0,1.42,0,1.54,0s.25,0,.25.24c0,.7-.05,1.22-.05,1.79a26.6,26.6,0,0,1-.38,4.56,2.33,2.33,0,0,1-2.55,2,8.36,8.36,0,0,1-1,0c-.54-.06-.58,0-.68-.64a3.69,3.69,0,0,0-.56-1.48c.8.1,1.52.18,1.92.18.6,0,.83-.26,1-1.2a23,23,0,0,0,.24-3.55H147.1a11.72,11.72,0,0,1-3,6.29c-.18.2-.28.3-.38.3s-.18-.12-.34-.38a5,5,0,0,0-1.08-1.22c2.28-2.1,3-4.33,3.12-8.83l-2,0c-.22,0-.24,0-.24-.22s0-.62,0-1.78V15c0-1.16,0-1.64,0-1.78s0-.22.24-.22.68,0,2.34,0h3.32c1.65,0,2.21,0,2.35,0s.22,0,.22.22,0,.62,0,1.78v2.58c0,1.16,0,1.66,0,1.78s0,.22-.22.22-.7,0-2.35,0h-1.68q0,1.08-.12,2Zm-4.73-3.74h4.38v-3h-4.38Zm8.41-1a21.07,21.07,0,0,0-.14-3c.7,0,1.36.06,2,.14.2,0,.3.1.3.22a1.87,1.87,0,0,1-.14.44,13.65,13.65,0,0,0-.06,2.14v5.52c0,1.71,0,2.53,0,2.65s0,.22-.24.22h-1.62c-.2,0-.22,0-.22-.22s0-.94,0-2.65Zm6.24,6.84c0,1.41.06,3,.06,4s-.16,1.56-.72,2-1.16.48-3.1.5c-.62,0-.62,0-.76-.64a4.3,4.3,0,0,0-.64-1.5A17.56,17.56,0,0,0,157,28c.64,0,.88-.14.88-.78v-12a19.41,19.41,0,0,0-.16-2.86c.72,0,1.46.06,2.16.14.2,0,.32.12.32.22a1,1,0,0,1-.14.42,7.15,7.15,0,0,0-.12,2Z"/><path d="M172.73,16.56a24.94,24.94,0,0,1-2.51,8.63,3.79,3.79,0,0,1-3.4,2.3c-1.76,0-3.54-1.88-3.54-5.15a7.37,7.37,0,0,1,2.26-5.2,8.78,8.78,0,0,1,6.51-2.56c4.8,0,7.62,3,7.62,6.94,0,3.72-2.1,6.07-6.16,7.29-.42.12-.6,0-.86-.36a4.24,4.24,0,0,0-1.4-1.26c3.38-.8,6-2.2,6-6a4.54,4.54,0,0,0-4.48-4.64ZM167,18.5a5.76,5.76,0,0,0-1.56,3.7c0,1.84.74,2.87,1.36,2.87s1-.26,1.5-1.23a22.58,22.58,0,0,0,2.13-7.16A6.08,6.08,0,0,0,167,18.5Z"/><path d="M194,12.46c.26-.12.3-.1.38.1a16,16,0,0,0,6.48,7.38,6.85,6.85,0,0,0-1.16,1.5c-.18.3-.26.44-.38.44s-.22-.1-.42-.26A16.55,16.55,0,0,1,197,20c0,.58,0,1.28-.06,2a40.07,40.07,0,0,1-.5,5.61c-.26,1.58-1,2.46-3,2.46-.5,0-.88,0-1.36,0s-.6,0-.75-.7a3.82,3.82,0,0,0-.62-1.6,15.11,15.11,0,0,0,2.29.18c.84,0,1.18-.32,1.34-1.24a33,33,0,0,0,.38-5h-3.56A9.69,9.69,0,0,1,185,30.17a1.31,1.31,0,0,1-.48.16c-.16,0-.22-.14-.42-.48a3.78,3.78,0,0,0-1-1.2c3.64-1.32,5.4-3.45,5.78-7h-.23c-1.89,0-2.53,0-2.65,0s-.22,0-.22-.22V20a21.79,21.79,0,0,1-1.94,1.66c-.22.16-.34.26-.44.26s-.22-.14-.42-.44a4.48,4.48,0,0,0-1.12-1.22,15.62,15.62,0,0,0,5.78-6.6,4.8,4.8,0,0,0,.4-1.28,14,14,0,0,1,2.08.7c.23.1.29.2.29.34a.39.39,0,0,1-.17.3,1.71,1.71,0,0,0-.46.64,18,18,0,0,1-3.66,5.3c.28,0,1,0,2.53,0h5.38c1.74,0,2.4,0,2.6,0a21.06,21.06,0,0,1-4.3-6.34c-.08-.22,0-.24.18-.34Z"/><path d="M208.28,17.56a9.13,9.13,0,0,0,2.93,2.28,4.47,4.47,0,0,0-.64,1c-.14.32-.22.48-.36.48s-.23-.1-.45-.28a10.32,10.32,0,0,1-2.18-2.44c0,1.6.08,2,.08,2.2s0,.22-.22.22H206.1c-.2,0-.22,0-.22-.22s.06-.56.08-2a10.87,10.87,0,0,1-2.62,2.62c-.22.16-.34.24-.46.24s-.22-.12-.34-.38a3.74,3.74,0,0,0-.72-1.1,10.66,10.66,0,0,0,3.46-2.64h-.4c-1.68,0-2.26,0-2.38,0s-.2,0-.2-.22V16.26c0-.2,0-.22.2-.22s.7,0,2.38,0h1V14.56a16.53,16.53,0,0,0-.14-2.42c.72,0,1.2.06,1.88.14.22,0,.33.1.33.2a1.92,1.92,0,0,1-.15.48,8.08,8.08,0,0,0-.08,1.6v1.52h.85c1.7,0,2.25,0,2.38,0s.22,0,.22.22v1.12c0,.2,0,.22-.22.22s-.68,0-2.38,0Zm-3.48,7.22c-1.7,0-2.26,0-2.38,0s-.22,0-.22-.21V23.34c0-.2,0-.22.22-.22s.68,0,2.38,0h.92a8.21,8.21,0,0,0,0-1.72c.8.06,1.34.1,1.78.16.22,0,.34.12.34.24a.86.86,0,0,1-.1.32,2.67,2.67,0,0,0-.18,1h.93c1.74,0,2.28,0,2.4,0s.24,0,.24.22v1.27c0,.2,0,.21-.24.21s-.66,0-2.4,0H208a6.13,6.13,0,0,0,3,2.57,4.63,4.63,0,0,0-.94,1c-.21.3-.3.44-.45.44s-.24-.1-.46-.26a7.46,7.46,0,0,1-2.18-2.46,7.24,7.24,0,0,1-3.14,3.56,1,1,0,0,1-.42.18c-.14,0-.26-.12-.46-.44a4.31,4.31,0,0,0-1-1,5.54,5.54,0,0,0,3.52-3.57Zm-1-11.88c.2-.1.26-.08.4.08a10.6,10.6,0,0,1,1.1,1.86c.1.22.06.28-.2.4l-.94.44c-.24.12-.3.14-.38-.06a10.62,10.62,0,0,0-1-1.9c-.14-.2-.16-.26.12-.4Zm5.1.68a2.89,2.89,0,0,0,.28-.88,10.66,10.66,0,0,1,1.49.54c.16.06.22.16.22.24s0,.16-.18.28a1.44,1.44,0,0,0-.28.38c-.17.36-.42.8-.68,1.24-.16.26-.24.36-.36.36a.85.85,0,0,1-.38-.16,6.68,6.68,0,0,0-1-.4A11.39,11.39,0,0,0,208.86,13.58Zm5.93,13.87c.2.14.22.22.22.32s-.1.18-.24.24a2.45,2.45,0,0,0-.52.36,13,13,0,0,1-2.68,1.8,1.45,1.45,0,0,1-.52.2c-.18,0-.29-.14-.48-.48a4.3,4.3,0,0,0-.82-1,10.24,10.24,0,0,0,3-1.6,3.79,3.79,0,0,0,.68-.7A13.44,13.44,0,0,1,214.79,27.45ZM214,14.68c-1.78,0-2.38,0-2.5,0s-.22,0-.22-.22V13c0-.2,0-.22.22-.22s.72,0,2.5,0h3.72c1.8,0,2.4,0,2.52,0s.2,0,.2.22V14.5c0,.2,0,.22-.2.22s-.72,0-2.52,0h-1a15.48,15.48,0,0,1-.62,1.5H217c1.6,0,2.16,0,2.3,0s.22,0,.22.2,0,.82,0,2.34V24c0,1.53,0,2.21,0,2.31s0,.24-.22.24-.7,0-2.3,0h-2.66c-1.62,0-2.16,0-2.28,0s-.24,0-.24-.24,0-.78,0-2.31V18.76c0-1.6,0-2.28,0-2.42s0-.2.24-.2.62,0,2,0a12.26,12.26,0,0,0,.58-1.5Zm-.22,4.42h3.84V17.84h-3.84Zm3.84,2.82V20.6h-3.84v1.32Zm0,1.5h-3.84v1.43h3.84Zm-.54,3.33a.28.28,0,0,1,.46,0,10.51,10.51,0,0,0,3.3,2,4.64,4.64,0,0,0-.82,1.12c-.18.34-.28.46-.44.46a1.14,1.14,0,0,1-.46-.18,11.84,11.84,0,0,1-2.9-2.18.27.27,0,0,1-.1-.2c0-.06,0-.14.16-.24Z"/><path d="M231.85,16.82c-2.45.46-4.59.88-6.73,1.32-.76.18-1,.22-1.26.32a1.17,1.17,0,0,1-.44.16.47.47,0,0,1-.38-.3,13.94,13.94,0,0,1-.74-2.16,27.59,27.59,0,0,0,3.18-.34c2.46-.36,6.87-1,12-1.7.3,0,.4.08.42.22a11.43,11.43,0,0,1,.22,1.76c0,.24-.12.3-.38.3a8.92,8.92,0,0,0-2.44.44c-3.4,1.16-5.11,3.5-5.11,5.9,0,2.58,1.85,4,5.33,4.21.32,0,.44.08.44.3a7.11,7.11,0,0,1-.22,1.72c-.06.3-.14.42-.38.42-3.52,0-7.39-2-7.39-6.19,0-2.84,1.43-4.76,3.85-6.34Zm4,2.16c.1-.08.18-.06.3,0a9.2,9.2,0,0,1,1.9,2.14.2.2,0,0,1-.06.32l-.84.62a.21.21,0,0,1-.34-.06,9.92,9.92,0,0,0-2-2.32Zm1.78-1.3c.12-.08.18-.06.3,0a8.35,8.35,0,0,1,1.9,2.06.23.23,0,0,1-.06.36l-.8.62a.21.21,0,0,1-.34-.06,9.46,9.46,0,0,0-2-2.3Z"/><path d="M254.65,18.78a6.26,6.26,0,0,0,0-1.36,8.62,8.62,0,0,1,2.32.86.38.38,0,0,1,.14.54,3.36,3.36,0,0,0-.32.78c-.16.84-.36,1.72-.56,2.58a22.15,22.15,0,0,1,3.12,1.93c.2.12.18.21.12.42a18.38,18.38,0,0,1-.86,1.72c-.06.1-.12.14-.18.14a.43.43,0,0,1-.24-.14,16.25,16.25,0,0,0-2.62-1.88,12.28,12.28,0,0,1-4,5.26c-.18.14-.28.22-.4.22a.6.6,0,0,1-.31-.14,4.12,4.12,0,0,0-1.74-.82,11,11,0,0,0,4.49-5.43,13.83,13.83,0,0,0-4-1.22,14,14,0,0,1-2.45,4,3.28,3.28,0,0,1-2.56,1.1,2.42,2.42,0,0,1-2.38-2.74c0-2.49,2.56-4.43,5.9-4.43.66-1.66,1.16-3.06,1.66-4.74l-2.76.32a4.2,4.2,0,0,0-.9.22,1.05,1.05,0,0,1-.36.08.32.32,0,0,1-.32-.22,12.12,12.12,0,0,1-.58-2.18,7.45,7.45,0,0,0,1.76.12,22.58,22.58,0,0,0,3.11-.26,2.21,2.21,0,0,0,1-.34.47.47,0,0,1,.27-.08.46.46,0,0,1,.28.08,6.68,6.68,0,0,1,1.36,1.1.48.48,0,0,1,.18.34.51.51,0,0,1-.2.34,2.72,2.72,0,0,0-.54,1c-.52,1.36-1.08,2.92-1.68,4.36a16.58,16.58,0,0,1,3.88,1A19.79,19.79,0,0,0,254.65,18.78Zm-10.57,5.59c0,.63.22.91.7.91a1.6,1.6,0,0,0,1.16-.75,13.81,13.81,0,0,0,1.46-2.45C245.36,22.16,244.08,23.22,244.08,24.37Z"/><path d="M267.72,20.44a6.08,6.08,0,0,1,3.19-.9,4.64,4.64,0,0,1,5,4.8c0,3.35-2.7,5.49-7,5.49-2.53,0-4-1.08-4-2.94a2.65,2.65,0,0,1,2.82-2.44,3.64,3.64,0,0,1,3.76,2.92,3,3,0,0,0,2-3.05,2.92,2.92,0,0,0-3.14-3,8.19,8.19,0,0,0-5.13,2.12c-.58.53-1.14,1.11-1.74,1.7-.14.15-.24.23-.34.23s-.18-.07-.3-.19a8.94,8.94,0,0,1-1.18-1.29c-.12-.17-.06-.3.1-.46A49.61,49.61,0,0,0,266.48,19c1.24-1.28,2.19-2.28,3.11-3.42-1.2.22-2.62.5-3.87.76a6.06,6.06,0,0,0-.83.24,1.63,1.63,0,0,1-.41.1.45.45,0,0,1-.44-.34,9.58,9.58,0,0,1-.7-2.16,9.64,9.64,0,0,0,1.86,0c1.23-.12,3-.38,4.55-.68a5.31,5.31,0,0,0,1.1-.3,1,1,0,0,1,.38-.16.71.71,0,0,1,.46.16A7.57,7.57,0,0,1,273,14.5a.69.69,0,0,1,.22.48.53.53,0,0,1-.34.48,3.23,3.23,0,0,0-.88.64c-1.46,1.42-2.8,2.82-4.32,4.28Zm0,5.71c-.58,0-1,.34-1,.76,0,.62.54,1,1.74,1a4.38,4.38,0,0,0,.92-.08C269.19,26.77,268.59,26.15,267.75,26.15Z"/><path d="M291.57,21.76H279.4V20.6h12.17Z"/><path d="M296.48,21.7a7.71,7.71,0,0,1-.82,1.17s-.06-.05-.1-.13a16.63,16.63,0,0,0-1.86-2.36,18.83,18.83,0,0,0,4.39-8.32,29.14,29.14,0,0,1,3,.88c.22.08.32.18.32.26s-.2.24-.48.24h-.12a25.38,25.38,0,0,1-1.46,3.32c.33.06.45.14.45.24s-.25.28-.54.36v7.17a16.34,16.34,0,0,0,3.59-6.17h-2.74V15.7h3.48a32.56,32.56,0,0,0,.58-3.6s2.62.28,3.06.38c.2,0,.3.14.3.22s-.18.26-.52.3c-.12.72-.3,1.64-.56,2.7h6.22v2.66h-7c-.26.78-.54,1.6-.88,2.4h7v2.5h-3.52v4.07h4.2v2.54H301.27V27.33h4.28V23.26h-1.92c-1.5,2.79-2.94,3.89-3,3.89a.17.17,0,0,1-.12,0,6.56,6.56,0,0,0-1.21-.62v4h-2.88Z"/><path d="M316.2,19.46h-1.9V17h1.9v-3.3s0-.78-.06-1.36c0,0,2.12,0,2.83.1.21,0,.36.12.36.24s-.16.28-.54.38c0,.3,0,.86,0,.86V17h1.32v2.42h-1.32v3.42a8,8,0,0,0,1.14-.62,17.72,17.72,0,0,0-.17,1.94,1.42,1.42,0,0,0,0,.37v.12c0,.09,0,.09-.15.16a29.51,29.51,0,0,1-4.22,2V27c0,.28-.08.46-.22.46s-.18-.08-.3-.28a26.61,26.61,0,0,1-1.1-2.49,17.46,17.46,0,0,0,2.44-.74Zm9.51-.26c0,.42,0,1.24,0,2.1,0,1.08,0,2.27-.06,2.9-.14,2-1.16,2.89-2.6,2.95-.2,0-.2-.06-.22-.14a7.26,7.26,0,0,0-.56-1.73c-.94,3.51-2.8,4.83-2.82,4.83s-.06,0-.12,0a13.84,13.84,0,0,0-2.79-1c3.85-2.58,3.93-6.75,3.93-9,0-.9-.12-4.34-.14-4.84h5.56V13.78c0-.56,0-1.12-.06-1.72,0,0,2.18.08,2.84.16.26,0,.38.12.38.22s-.22.3-.54.34c-.06.84-.1,1.66-.12,2.42h2a7.79,7.79,0,0,0-1.78-1.38l1.58-1.44a9,9,0,0,1,2.08,1.54L331,15.2h1.32v2.36h-3.94a35.27,35.27,0,0,0,.32,4,16.28,16.28,0,0,0,.84-3.36,22.64,22.64,0,0,1,2.68.84c.18.08.28.18.28.26s-.22.22-.62.26a26.87,26.87,0,0,1-2.32,5.7c.22.69.64,1.75.86,1.75s.54-1.71.58-2.91a15.87,15.87,0,0,0,2.14,2.57c.1.06.12.1.12.16s-.66,3.52-2.74,3.52c-1.06,0-1.88-1-2.62-2.68a8.65,8.65,0,0,1-3.52,2.68.17.17,0,0,1-.14-.06,16.3,16.3,0,0,0-2.82-1.4,9.86,9.86,0,0,0,5.56-4,34.73,34.73,0,0,1-1-7.35h-3.18s0,.84.06,1.64Zm-2.86,2.42a18.38,18.38,0,0,1-.38,3l.2,0c1,0,1-1,1-2,0-.31,0-.68,0-1.06Z"/><path d="M336.5,19.36h-2V16.92h2V13.64s0-.8-.06-1.34c0,0,2.16,0,2.86.14.29,0,.42.14.42.24s-.19.26-.62.36c0,.26,0,.94,0,.94v2.94h1.79v1.9l.76-.24V15.26s0-1.3-.06-1.72c0,0,2.44.06,2.88.14.22,0,.32.12.32.24s-.18.28-.58.36c0,.24,0,.92,0,.92v2.6l1.34-.4V13.64s0-1.08-.06-1.56c0,0,2.38,0,2.82.12.22,0,.32.12.32.24s-.18.28-.58.36c0,.24,0,.8,0,.8v3l4.1-1.26c0,.42,0,1,0,1.58,0,4.72-.3,6.26-1.08,7.27a11.07,11.07,0,0,0,1.92,1.58c.14.06.16.12.16.2s0,.14,0,.22c-.4,3.44-2.36,3.8-5.92,3.8-3,0-5.5,0-5.5-2.94v-6l-1.31.42-.79-2.16h-.45v4.22a15.76,15.76,0,0,0,2-.84s0,.72,0,1.38c0,.33,0,.65,0,.85s0,.1,0,.14-.06.12-.18.17a49.33,49.33,0,0,1-5.41,2.17v.12c0,.28-.08.46-.2.46s-.2-.1-.3-.28a26,26,0,0,1-1.18-2.64,24.91,24.91,0,0,0,2.66-.69Zm9,.52-1.34.42v6.13c0,1,.52,1.12,2.54,1.12,3.28,0,3.54-.32,3.62-2.74a2.45,2.45,0,0,1-1.22.31c-.48,0-.5,0-.52-.19a10.87,10.87,0,0,0-.62-1.77v2.69h-2.46Zm2.46,2.38a2.31,2.31,0,0,0,.58.12c.8,0,1-1,1-3.78l-1.54.5Z"/><path d="M355.3,13h16.51v2.54H358.17v9.14a15.7,15.7,0,0,0,4.9-3.44,34.71,34.71,0,0,0-4.2-2.6l2-1.8c1.08.6,2.42,1.4,3.86,2.38a14.73,14.73,0,0,0,2-3.58s2.56,1,3,1.26a.35.35,0,0,1,.18.26c0,.1-.12.2-.38.2a2.23,2.23,0,0,1-.34,0A25,25,0,0,1,367,20.82a31.46,31.46,0,0,1,3.54,3.34l-2.24,2.11a18,18,0,0,0-3-3.35,16.35,16.35,0,0,1-4.82,3.81s-.06,0-.1-.06a11.12,11.12,0,0,0-2.12-1.51V27h14.12v2.6H358.17v1H355.3Z"/><path d="M69.69,78.9a9.22,9.22,0,0,0,.14-1.07c0-.23,0-.48.06-.78s0-.63,0-1,0-.76-.07-1.2a13.84,13.84,0,0,0-.2-1.4,15.42,15.42,0,0,0-.47-1.8c-.09-.3-.14-.44-.19-.6l-.07-.19c-.32-.84-.61-1.57-.87-2.2s-.41-1-.56-1.44c-.58-1.51-.65-2.38-.27-3.1a6.25,6.25,0,0,1,2.2-2l.84.78a32.75,32.75,0,0,1,2.64,2.72c.6.71.91,1.15,1.12,1.43l.48.71A9.42,9.42,0,0,1,76,72.1,6.36,6.36,0,0,1,74,77.4a5.58,5.58,0,0,1-1.06.75,4.67,4.67,0,0,1-1.13.48,6.15,6.15,0,0,1-1.15.23,6.62,6.62,0,0,1-.77,0Z"/><path d="M62.4,84.88a7.49,7.49,0,0,1-2-.3c.06-.18.16-.5.28-1a34.43,34.43,0,0,0,.71-4.16c.16-1.48.2-2,.22-2.27l0-.37c.26-3.54.8-5.64,1.68-6.67a2.28,2.28,0,0,1,.66-.54,2,2,0,0,1,.35-.14,1.77,1.77,0,0,1,.31-.08,12,12,0,0,1,2.08-.15h0l.28.88c.12.37.27.85.43,1.47A23.33,23.33,0,0,1,67.88,74c.11.92.15,1.47.17,1.84l0,.81a11.46,11.46,0,0,1-.8,4.73,6.25,6.25,0,0,1-2,2.62A4.83,4.83,0,0,1,62.4,84.88Z"/><path d="M53.69,89.51a7.89,7.89,0,0,1-2.12-.34c0-.18.11-.5.2-1,.13-.68.35-2,.64-4.1l.36-2.63a16,16,0,0,1,1.11-4.14,5.18,5.18,0,0,1,2.89-3.07A4.5,4.5,0,0,1,58.22,74a7.92,7.92,0,0,1,2.07.32c0,.18-.1.5-.17,1-.18,1.16-.37,2.54-.56,4.11s-.25,1.94-.3,2.25l0,.38A15.09,15.09,0,0,1,58.1,86.2c-1,2.22-2.45,3.31-4.41,3.31Z"/><path d="M37.52,73a9.32,9.32,0,0,1-4.42-1.13A6.12,6.12,0,0,1,30.83,63l.05.05c.16.15.42.38.78.66a15,15,0,0,0,3.83,2.13,17.9,17.9,0,0,0,1.71.57l.7.19.11,0c.88.2,1.6.36,2.25.49s1.17.25,1.64.37c1.61.37,2.3.72,2.65,1.36a2.37,2.37,0,0,1,.2.54c0,.08,0,.18.07.28s.07.29.09.44.08.56.11.86,0,.43,0,.65v.14l-.92.23-1.53.38-1.07.24c-.46.1-.87.18-1.31.24A17,17,0,0,1,38.4,73c-.35,0-.51,0-.71,0h-.17Z"/><path d="M45.45,94.33a11.62,11.62,0,0,1-1.22-.08c0-.17,0-.47-.09-1L44,91.72l0-.41c0-.58-.09-1.26-.11-2s0-1.42,0-1.77v-.89a12.6,12.6,0,0,1,1-4.64,6.14,6.14,0,0,1,1.95-2.51,4.65,4.65,0,0,1,2.79-.87,7.37,7.37,0,0,1,2.09.33c-.06.18-.15.5-.27,1a35.56,35.56,0,0,0-.74,4.15c-.18,1.44-.23,1.92-.26,2.24l0,.39c-.34,3.47-1,5.66-2.15,6.73a3.63,3.63,0,0,1-2.7.92Z"/><path d="M58,90.81a4.66,4.66,0,0,1-1.49-.23,7.4,7.4,0,0,0,3.17-3.66c.09-.2.17-.41.26-.63a9,9,0,0,0,2.44.36,6.51,6.51,0,0,0,4-1.28,7.48,7.48,0,0,0,2-2.29,6.1,6.1,0,0,1,2.86,4.65H70.15a16.86,16.86,0,0,0-1.74.21,21.49,21.49,0,0,0-2.51.62c-.85.27-1.34.45-1.67.57l-.83.31a21.23,21.23,0,0,1-4.27,1.28,7.29,7.29,0,0,1-1.1.09Z"/><path d="M41.3,80.88a5.94,5.94,0,0,1-3.38-1,5.4,5.4,0,0,1-1.2-1.07,5.78,5.78,0,0,1-.49-.67,5.18,5.18,0,0,1-.4-.73,6.81,6.81,0,0,1-.6-2.89l.06,0a9,9,0,0,0,1,.19,12.2,12.2,0,0,0,1.61.11h.2a13.75,13.75,0,0,0,2.61-.28c.93-.2,1.42-.34,1.8-.45l.76-.23a24.32,24.32,0,0,1,4.24-1.13,7.31,7.31,0,0,1,1-.08,4.45,4.45,0,0,1,1.68.3,4.71,4.71,0,0,1,2.47,2.77,8,8,0,0,0-.42.83l-.11.26-.54.23a8.85,8.85,0,0,0-2.11-.27,6.36,6.36,0,0,0-3.8,1.2A7.55,7.55,0,0,0,43.5,80.6,9.09,9.09,0,0,1,41.3,80.88Z"/><path d="M38.82,104.6l-1.64-.78.13-.37c.3-.88.87-2.54,1.66-4.4a21.35,21.35,0,0,1,1.94-3.6l.33-.52-.32-.24-.14.16A23.73,23.73,0,0,0,38,98.45a23.06,23.06,0,0,0-2.23,4.39l-.12.3-1.45-.64q.36-.82.78-1.62c.5-1,1.08-2,1.71-3S37.93,96,38.61,95s1.39-2,2-2.81l-.29-.27c-.8.72-1.61,1.54-2.49,2.49s-1.65,1.9-2.27,2.72a35.6,35.6,0,0,0-2,3l-.07.13c-.27.48-.54,1-.78,1.46a1.07,1.07,0,0,0-.07.15c-.52-.22-1.05-.43-1.59-.64.26-.49.58-1.07.94-1.65a33,33,0,0,1,2-2.81c.62-.81,1.36-1.77,2.17-2.69s1.62-1.8,2.38-2.55l-.25-.31a30.1,30.1,0,0,0-2.8,2.19c-1,.9-1.82,1.7-2.55,2.49a28.14,28.14,0,0,0-2.22,2.82l-.5.75-.32.51-.15.27c-.08.12-.15.25-.23.38l-2-.71a36.3,36.3,0,0,1,9.07-9.3l.65-.48A40.94,40.94,0,0,1,42.05,87c0,.23,0,.45,0,.67a21.61,21.61,0,0,0,.39,5c.08.45.15.81.21,1.12a12.74,12.74,0,0,1,.24,1.49A30.3,30.3,0,0,0,38.82,104.6Z"/><path d="M42.57,49.74c-.09-.33-.2-.73-.3-1.2s-.16-.67-.24-1.07-.14-.83-.21-1.33c-.11-.79-.14-1.3-.16-1.65V44.3c0-.26,0-.41,0-.56v-.25a10.94,10.94,0,0,1,.31-2.69,8.86,8.86,0,0,1,.87-2.11,6.43,6.43,0,0,1,2.73-2.58,5.64,5.64,0,0,1,2.54-.59,4.49,4.49,0,0,1,.64,0,6,6,0,0,1,1.53.35c.25.1.49.2.72.31l.47.26,0,.05a9.38,9.38,0,0,0-.65.8,14.87,14.87,0,0,0-2,3.89A17.41,17.41,0,0,0,48.21,43c-.08.31-.11.46-.15.63l0,.13c-.14.74-.26,1.35-.36,1.91-.16.89-.31,1.66-.46,2.28a4.72,4.72,0,0,1-.86,2,2,2,0,0,1-.62.5,2.93,2.93,0,0,1-.8.28,9.15,9.15,0,0,1-1,.12l-.57,0h-.45Z"/><path d="M39.91,58c-.11-.13-.32-.34-.66-.67s-.63-.64-1.08-1.13-1-1.11-1.58-1.85-.77-1-1-1.34l-.11-.17c-.19-.29-.28-.42-.38-.59l-.05-.09a9.5,9.5,0,0,1-1.4-4.37A6.12,6.12,0,0,1,40,41.16h.07l0,.07c-.05.22-.11.55-.17,1A13.75,13.75,0,0,0,39.81,44c0,.37,0,.77.07,1.2s.11.92.2,1.4c.16.87.31,1.37.4,1.71l0,.1c.1.32.14.46.2.64l0,.1c.26.75.49,1.37.69,1.93s.47,1.3.64,1.83c.51,1.55.54,2.43.13,3.15A6.23,6.23,0,0,1,39.91,58Z"/><path d="M70.39,104.6c-.79-3.31-3.52-8.31-7.2-13.2,2-.58,5.53-1.58,5.75-1.63l.61-.12.14,0a4.36,4.36,0,0,1,.74-.08,2.78,2.78,0,0,1,1.8.78l.39.28a36.29,36.29,0,0,1,9.06,9.3l-2,.71c-.07-.13-.15-.26-.23-.39l-.16-.27-.3-.5-.5-.75a31,31,0,0,0-2.23-2.82c-.72-.78-1.55-1.6-2.55-2.49a30.1,30.1,0,0,0-2.8-2.19l-.25.31c.76.74,1.54,1.58,2.38,2.54s1.55,1.88,2.17,2.7,1.33,1.81,2,2.81c.37.58.69,1.16.94,1.65-.54.21-1.07.42-1.58.64,0-.06-.06-.11-.08-.16-.24-.49-.51-1-.78-1.45l-.07-.13a32.56,32.56,0,0,0-2-3c-.61-.82-1.34-1.68-2.27-2.72s-1.69-1.77-2.49-2.49l-.29.27c.64.83,1.31,1.75,2,2.81s1.29,2,1.88,2.9,1.21,2,1.72,3c.25.48.5,1,.77,1.62-.51.22-1,.43-1.44.64l-.07-.15c-.21-.55-.47-1.09-.72-1.63-.62-1.25-1.17-2.25-1.71-3.12s-1.18-1.8-2-2.92-1.51-1.92-2.23-2.72l-.32.24c.56.9,1.14,1.88,1.76,3s1.08,2,1.61,3.06,1,2,1.46,3.11c.26.6.49,1.21.71,1.81Z"/><path d="M51.79,47.4a6.06,6.06,0,0,1-2.77-1l.27-1a28.34,28.34,0,0,1,1.2-3.7c.17-.44.33-.79.45-1.06l.31-.62.39-.72a9.66,9.66,0,0,1,3.07-3.39,6.74,6.74,0,0,1,3.6-1.1,5.84,5.84,0,0,1,1.86.3A6.49,6.49,0,0,1,63.63,38l-.07,0c-.21.07-.53.19-1,.38a14.58,14.58,0,0,0-3.67,2.39c-.37.33-.65.59-.86.8l-.48.5c-.22.23-.32.35-.44.48l-.09.09-1.17,1.38c-.55.65-1,1.21-1.43,1.65-1.1,1.22-1.84,1.69-2.67,1.69Z"/><path d="M39.58,65.42A31.63,31.63,0,0,1,36,64.12c-.86-.39-1.36-.66-1.65-.82l-.71-.41a9.6,9.6,0,0,1-3.5-3.46,6.53,6.53,0,0,1-.84-3.61,6,6,0,0,1,1.62-3.59,7.27,7.27,0,0,1,.57-.54,6.79,6.79,0,0,1,1.08-.75l0,.07A10,10,0,0,0,33,52a14.88,14.88,0,0,0,2.37,3.68c.54.62.9,1,1.14,1.22l.13.13.4.38,1.3,1.16c.86.75,1.53,1.35,2.06,1.88a5,5,0,0,1,1.31,1.85,2.23,2.23,0,0,1,.1.79,3.38,3.38,0,0,1-.18.85,7.78,7.78,0,0,1-.42.93c-.08.16-.18.33-.28.5l-.23.39Z"/><path d="M77,68.83a7.22,7.22,0,0,0-.4-1,14.47,14.47,0,0,0-2.52-3.59c-.64-.67-1-1-1.33-1.3l-.6-.51L71,61.58c-.91-.74-1.63-1.32-2.19-1.84A4.76,4.76,0,0,1,67.46,58a2.48,2.48,0,0,1,0-1.66c0-.15.1-.3.16-.46s.13-.32.21-.49.3-.6.48-.92l1.23.32A29.56,29.56,0,0,1,73,55.86c.73.29,1.19.51,1.51.66l.18.09a5.18,5.18,0,0,1,.49.25l.23.12a9.47,9.47,0,0,1,3.64,3.3,6.3,6.3,0,0,1,1,3.57,5.52,5.52,0,0,1-.28,1.63,6.48,6.48,0,0,1-.7,1.42,6.35,6.35,0,0,1-1,1.19,5.79,5.79,0,0,1-.61.5,4.27,4.27,0,0,1-.44.3Z"/><path d="M78.24,56.74c-.16-.14-.43-.37-.85-.68a17.24,17.24,0,0,0-1.52-.93,17.43,17.43,0,0,0-2.4-1c-.78-.26-1.28-.39-1.61-.47l-.18,0L71,53.44l-.11,0c-.78-.16-1.45-.28-2-.38s-1.34-.24-1.86-.36c-1.62-.33-2.37-.71-2.77-1.4a6.55,6.55,0,0,1-.52-2.9l.9-.26,1.5-.41,1.07-.23q.6-.13,1.32-.24a15.19,15.19,0,0,1,1.74-.19L71,47h.3a9.31,9.31,0,0,1,4.31,1,6.34,6.34,0,0,1,3.42,4.32A6.47,6.47,0,0,1,78.24,56.74Z"/><path d="M59.64,48a3,3,0,0,1-.43,0,2.47,2.47,0,0,1-1.38-.83,6,6,0,0,1-.63-.8c-.11-.15-.21-.31-.32-.48l-.24-.39.79-.81c.25-.26.56-.58,1-1s1.14-1,1.84-1.61,1.1-.83,1.5-1.08l.68-.43a9.43,9.43,0,0,1,4.74-1.44,6.58,6.58,0,0,1,3.61,1,6.24,6.24,0,0,1,2.71,5.29H73.4a8.4,8.4,0,0,0-1-.17c-.38,0-.81-.07-1.35-.07h-.45c-.37,0-.77,0-1.19.08s-.91.13-1.4.23c-.82.17-1.31.31-1.64.41l-.16.05c-.25.07-.39.12-.53.17l-.22.07-2,.71c-.81.29-1.48.54-2.06.72A6.24,6.24,0,0,1,59.64,48Z"/></g></g></svg>