<svg xmlns="http://www.w3.org/2000/svg" viewBox="0 0 402.07 126.64"><defs><style>.cls-1,.cls-2,.cls-3{fill:#fff;stroke:#000;stroke-miterlimit:10;}.cls-1{stroke-width:4.21px;}.cls-2{stroke-width:4.3px;}.cls-3{stroke-width:4.3px;}</style></defs><title>アセット 197</title><g id="レイヤー_2" data-name="レイヤー 2"><g id="レイヤー_1-2" data-name="レイヤー 1"><polygon class="cls-1" points="399.92 40.55 41.62 40.55 60.35 2.11 399.92 2.11 399.92 40.55"/><rect class="cls-2" x="53.07" y="40.54" width="346.85" height="69.43"/><circle class="cls-3" cx="54.61" cy="72.03" r="52.46"/><path d="M137.27,74.29a.41.41,0,0,1-.4.27.75.75,0,0,1-.24,0c-1.8-.65-4.9-1.36-5.34-1.5-.2-.07-.37-.1-.37-.34a11,11,0,0,1,.68-2.24c0-.1.1-.24.44-.24a32,32,0,0,1,5.57,1,.39.39,0,0,1,.31.44A19.8,19.8,0,0,1,137.27,74.29Zm-5.37,12a.31.31,0,0,1,.14-.24,44.65,44.65,0,0,0,6.66-8c.07-.11.14-.17.17-.17s.14.06.17.17a14.44,14.44,0,0,0,1.63,2,.19.19,0,0,1,.14.2,1,1,0,0,1-.07.24c-1.46,2.68-3.16,4.93-3.87,6.12-.62,1-.65,1.66-1.23,1.66S131.9,86.87,131.9,86.29Zm7.34-19.24a.66.66,0,0,1-.37-.14A52.75,52.75,0,0,0,134.21,64c-.13-.1-.27-.17-.27-.34s1.19-2.14,1.53-2.14c.51,0,5.48,2.21,5.48,2.92a.73.73,0,0,1-.07.24,14.4,14.4,0,0,1-1.36,2.21A.36.36,0,0,1,139.24,67.05Zm23,16.69a.33.33,0,0,1,.31.37c0,.31,0,1,0,1.74,0,.47,0,1,0,1.22s-.21.24-.38.24C157.64,87,155,87,152.4,87c-7.65,0-9.89.14-12.88.34-.21,0-.44-.07-.44-.31s0-1,0-1.49c0-1.29,0-1.77.34-1.77h.14c4.14.27,6.76.37,9.11.37,0-1.83.1-5.71.1-9s-.07-6.35-.1-7.71c-1.57,0-3.54.1-6.39.3h-.07c-.17,0-.38-.06-.38-.3s0-.85,0-1.4c0-1.73.07-1.73.48-1.73,4.08.31,6.18.34,8.09.34a92.74,92.74,0,0,0,9.55-.34c.41,0,.41.34.41,2,0,1.26-.07,1.39-.41,1.39-3.53-.23-5.17-.3-6.9-.34v0c0,.2-.2.41-.48.58s-.23.27-.23.61c0,1.7-.07,4.11-.07,6.59,0,3.2.07,7.11.1,8.94,2.58,0,5.17-.06,9.89-.37Z"/><path d="M191.13,79c0,.31-.14.34-.41.34s-1.16.07-1.84.07c-1.46,0-1.59-.07-1.59-.41v-.07l.1-1.7c-1.23,0-3.27-.07-5.82-.07-3,0-5.54,0-6.86.07-1.19,9.25-6.8,13-7.41,13a.52.52,0,0,1-.34-.13,15.13,15.13,0,0,0-3.37-1.46c-.2-.07-.27-.14-.27-.21s.07-.13.27-.24c6.49-3.09,7.92-9.65,7.92-14.92a34.67,34.67,0,0,0-.51-5.78.93.93,0,0,1,0-.27c0-.14.07-.17.23-.17h.24c3.57.24,5.51.27,7.31.27,7.18,0,8.23,0,11.87-.24.27,0,.41.07.41.38v.1c-.14,1.43-.21,3.43-.21,5.5a43.67,43.67,0,0,0,.31,5.75Zm2.92-17.85c.27,0,.34.07.34,2.11,0,1.29-.07,1.6-.37,1.6-6.87-.38-9.32-.38-13.19-.38-5.68,0-8.57.14-12.65.38-.41,0-.44-.24-.44-1.87,0-1.84,0-1.84.27-1.84h.17c6.08.31,8.12.34,11,.34,5.64,0,8.53,0,14.82-.34Zm-6.56,9.18s-1.09-.1-3.71-.1c-.68,0-1.42,0-2.27,0l-6.67.07s0,1.94,0,3.84c1.42,0,3.91.07,6.59.07s4.76,0,6-.07Z"/><path d="M211,82.75c0,.34-.1.58-1.7.58-.92,0-1.63,0-1.63-.47v-.07c0-.65,0-1.5.06-2.42-.37,0-.95-.06-1.46-.06s-1.19,0-1.56.06c0,1.53,0,3,.07,4.36,0,.57-.07.61-1.7.61s-1.74-.21-1.74-.55v-.1c.31-4.66.38-9.76.38-12.54,0-3.51-.07-6.26-.21-9.05,0-.13,0-.2,0-.3s.07-.21.24-.21.17,0,.27,0c1.09.1,2.58.17,4.32.17s2-.07,4.21-.21c.38,0,.44.14.44.48-.23,2.69-.23,5.81-.23,8.74,0,2.55.06,8,.27,10.74Zm-4.76-17.33c-.95,0-1.53,0-1.53,0s-.07,2.11-.07,4.52c.41,0,1.09,0,1.6,0s1.22,0,1.6,0c0-2.17-.11-4.52-.11-4.52s-.34,0-1,0Zm1.6,7.31c-.38,0-1,0-1.57,0s-1.25,0-1.63,0c0,1.32,0,3,0,4.86.4,0,1.05,0,1.56,0s1.15,0,1.53,0C207.82,75.75,207.86,74,207.86,72.73Zm21.82.16c-3.77-.37-7.31-.4-9.45-.4s-3.91.07-8.36.34c-.34,0-.41-.1-.41-1.57s0-1.63.41-1.63c3.33.27,5.06.34,6.83.34V67.29c-1.53,0-3,.06-5.47.2-.31,0-.38,0-.38-1.46s.07-1.53.45-1.53c2.38.2,3.91.2,5.33.2v-.34a27.37,27.37,0,0,0-.47-5v-.17c0-.17,0-.21.24-.21.54,0,4.35.41,4.35,1.13,0,.27-.31.61-.51,1-.38.71-.34.64-.48,2.85a4.94,4.94,0,0,0,0,.68c1.29,0,2.58-.07,5.2-.24.17,0,.41,0,.41,1.57a6.7,6.7,0,0,1-.07,1.26c0,.13-.2.2-.31.2h0c-2.55-.14-3.74-.17-5.24-.2V70c2.11,0,4.86-.17,8-.41.24,0,.38.24.38,1.67,0,.54,0,1.09-.07,1.43,0,.13-.17.23-.27.23Zm-4.59,13c0,2-1.12,4.25-5.1,4.25q-.3,0-.51-.51c-.64-1.53-1.83-2.07-2.65-3-.1-.11-.17-.17-.17-.24s0-.07.14-.07a1.39,1.39,0,0,0,.17,0,19.72,19.72,0,0,0,2.75.28c1.29,0,2-.34,2-1.33.07-1.33.07-4,.07-5.54v-2h-1.46c-2.18,0-4,.06-8.33.34a.33.33,0,0,1-.34-.31c0-.27,0-.78,0-1.33,0-1.63,0-1.63.38-1.63,4.21.34,6,.34,8.33.34h1.36a14.14,14.14,0,0,0-.27-2c0-.07,0-.1,0-.13s.1-.21.27-.21,4,.34,4,1a.91.91,0,0,1-.27.54c-.31.41-.41.41-.44.75,1.39-.07,2.95-.17,4.62-.3h0c.2,0,.33.27.33,1.69,0,.55,0,1.13-.06,1.47a.33.33,0,0,1-.27.23h0c-1.67-.17-3.26-.27-4.69-.3v2.92c0,1.84.17,3,.2,4.93Zm-7.51-1.49c-.07,0-.14-.07-.2-.14a19.42,19.42,0,0,0-4.25-3.64c-.11-.07-.14-.1-.14-.17,0-.37,1.5-1.36,1.84-1.56a.26.26,0,0,1,.17-.1.44.44,0,0,1,.17.06,17.34,17.34,0,0,1,4.45,2.89.29.29,0,0,1,.1.21,14.63,14.63,0,0,1-2,2.38C217.68,84.35,217.65,84.39,217.58,84.39Z"/><path d="M238.83,89.31c.51-4.58.75-12,.88-17.57-.3.37-3.8,4.72-4.55,4.72a.45.45,0,0,1-.27-.06A9.56,9.56,0,0,0,232,75.34c-.2,0-.34-.1-.34-.17s.07-.13.17-.2c5.85-4.15,10.51-12,10.91-14.28,0-.14.07-.2.18-.2.57,0,4,1.46,4,2.1,0,.24-.27.48-.78.68s-.68.14-.95.68a39.91,39.91,0,0,1-2.31,3.57c.24.07.41.17.54.21a.42.42,0,0,1,.34.41,1.12,1.12,0,0,1-.34.64,2.12,2.12,0,0,0-.51,1.63c-.14,4.22-.31,9.76-.31,14.28,0,1.77,0,3.37.11,4.69,0,.17-.11.34-1.94.34-1.6,0-1.94,0-1.94-.34Zm23.53-18.18c0,.13-.24.27-.34.27-5.1.37-5.85.44-8.84.88l-.72.11c2,10.13,7.62,12.91,8.3,12.91s1.6-1,1.83-3.8c0-.21.07-.28.17-.28s.14.07.21.17a11.86,11.86,0,0,0,2.72,2.76.52.52,0,0,1,.24.51c-.92,3-2.55,4.65-4.56,4.65a5.09,5.09,0,0,1-2.72-.91c-5.61-3.54-8.09-9.52-9.35-15.47l-4.86,1h-.1a.4.4,0,0,1-.41-.24,13.43,13.43,0,0,1-.37-2.69v-.13c0-.34.17-.41.37-.41,2.14-.13,3.6-.27,4.86-.44-.27-1.73-.47-3.47-.61-5.1s-.27-3-.48-3.91a2.49,2.49,0,0,1-.06-.37c0-.14.06-.21.2-.21s.14,0,.2,0c3.68.44,4.42.57,4.42,1.12A3.17,3.17,0,0,1,252,62.8a2.61,2.61,0,0,0-.2,1.12A49.33,49.33,0,0,0,252,69.6l.75-.1c3.26-.45,4.08-.62,8.74-1.6h.07a.37.37,0,0,1,.37.3,19.34,19.34,0,0,1,.41,2.89Zm-5.17-3.54a23.35,23.35,0,0,0-4.11-2.82c-.14-.07-.28-.1-.28-.24a5.68,5.68,0,0,1,1.77-2.21c.65,0,4.8,2.31,4.8,2.76s-1.37,2.68-1.81,2.68A.51.51,0,0,1,257.19,67.59Z"/><path d="M282.49,91a.54.54,0,0,1-.41.2.35.35,0,0,1-.21-.06c-4.25-2.28-9.07-8-9.07-16.8,0-11.56,8.87-16.52,9.28-16.52a2.8,2.8,0,0,1,1.39,1.94.52.52,0,0,1-.31.47c-3.63,2.11-6.9,7.69-6.9,14.15,0,6.8,3.27,12.27,6.9,14.41a.51.51,0,0,1,.24.48A3.18,3.18,0,0,1,282.49,91Z"/><path d="M318.8,86c.13,0,.24,0,.24.13a.45.45,0,0,1-.11.24c-.41.55-2.1,1.6-2.72,2.72-.1.24-.34.24-.51.24a16.16,16.16,0,0,1-9.58-3.74,13.89,13.89,0,0,1-7.55,4.25.63.63,0,0,1-.41-.17c-1-1-2.79-1.29-3.4-1.6-.24-.13-.34-.2-.34-.27s.14-.14.31-.14a13.74,13.74,0,0,0,9.38-4.18,14.25,14.25,0,0,1-1.84-3c-4,5.31-6.56,6.36-6.62,6.36a.52.52,0,0,1-.31-.1,3.72,3.72,0,0,0-1.33-.48c0,1,.07,2,.14,3.1,0,.13-.14.24-.31.27-.34,0-.95.07-1.6.07-1.42,0-1.9,0-1.9-.41.44-4.62.68-9.45.78-14.08-1.59,1.84-3.63,3.78-4,3.78a.41.41,0,0,1-.27-.1,10.91,10.91,0,0,0-2.93-1.3c-.17,0-.27-.1-.27-.17s.07-.1.2-.2c5-2.65,9.46-9.28,9.93-10.84.07-.14.1-.21.21-.21s3.5,1.12,3.5,1.87c0,.24-.28.44-.82.61s-.64.11-.95.58-.89,1.33-1.73,2.45c.27.07.47.17.61.2s.34.24.34.45a1.06,1.06,0,0,1-.31.61c-.47.51-.47.81-.47,1.6,0,3.77-.14,7-.14,10.06a25.26,25.26,0,0,0,8.43-10l-4.08.58c-.44.1-.78.41-1,.41-.44,0-1.43-2-1.66-3.13a.22.22,0,0,1,0-.13c0-.14.07-.17.21-.17s.13,0,.2,0h.47c1.19,0,3-.1,5-.24l1.09-1.26c-1.77-1.25-4.42-2.61-5.1-3q-.21-.11-.21-.21a.34.34,0,0,1,.1-.2c1.09-1.43,1.33-1.77,1.53-1.77s.11,0,.17.07l1.23.61a19.44,19.44,0,0,0,2.45-6.15c0-.17.06-.24.23-.24s3.81.88,3.81,1.67c0,.23-.44.44-.88.78a2.29,2.29,0,0,0-.68.92c-.58,1-1.77,2.92-2.65,4.28l1.73,1.09c1.73-2.21,3.33-4.56,3.64-5.68.07-.17,0-.31.24-.31s3.77,1.43,3.77,2.15c0,.27-.41.4-.88.64a2,2,0,0,0-.92.75c-.85,1.05-3.1,3.57-4.93,5.58l5.68-.58c-.75-.85-1.43-1.46-1.7-1.8-.11-.11-.17-.17-.17-.24A5.64,5.64,0,0,1,310.94,68a20.31,20.31,0,0,1,5.24,5.33.58.58,0,0,1,.07.21c0,.3-1.74,1.36-2.38,1.7a.24.24,0,0,1-.14,0c-.13,0-.24,0-.27-.14a13.53,13.53,0,0,0-.92-1.73l-6.36.82.14.1c.1.1.17.17.17.24s-.14.24-.41.3-.51.14-.64.51l-.34.78h.4c1.36,0,2.89-.1,2.89-.1.58,0,.68-.3,1-.3s2.38,1.09,2.38,1.59c0,.17-.21.34-.55.62s-.41.37-.75,1A28.89,28.89,0,0,1,308,83.26c2.21,1.57,5.5,2.76,10.4,2.76Zm-22.95-23.8c-.48.17-.65.1-1,.58-3,4.18-6.08,7.27-6.69,7.27a.41.41,0,0,1-.28-.13A10.37,10.37,0,0,0,285,68.71c-.17-.07-.27-.1-.27-.2s.07-.1.21-.17A22.85,22.85,0,0,0,293,59.91c.07-.14.1-.24.17-.24l.1,0c.54.14,3.36,1.23,3.36,1.91C296.66,61.85,296.39,62.05,295.85,62.22Zm8.23,16.11a9.29,9.29,0,0,0,1.76,3,17.75,17.75,0,0,0,1.64-3Z"/><path d="M346.85,73.47c-5-.24-7.35-.3-10-.34,0,.92,0,2.21,0,3.68,3.5,0,6.22-.07,12.61-.38.34,0,.41.1.41,1.77s-.11,1.7-.41,1.7c-6.15-.27-9.21-.34-12.58-.38.07,3.51.2,7.42.34,10,0,.21-.14.38-2,.38-1.73,0-2,0-2-.44.2-3.34.34-6.87.44-10-3.57,0-6,.11-12.41.38-.44,0-.47-.17-.47-1.74,0-1.73,0-1.73.47-1.73,6.36.31,9.35.38,12.48.38,0-1.47,0-2.73,0-3.68-2.78,0-4.55.1-9.82.34h-.1c-.24,0-.31,0-.31-1.63s0-1.66.41-1.66c5.17.27,7.41.34,9.82.34a76.6,76.6,0,0,0-.54-10.78c0-.07,0-.14,0-.21s.06-.1.13-.1c.24,0,4.76.27,4.76,1.12,0,.34-.41.82-.68,1.6s-.47,4.12-.51,8.37c2.76,0,4.8-.07,10-.34.23,0,.27.1.3.3a13,13,0,0,1,0,1.4,13.22,13.22,0,0,1,0,1.39c0,.1-.07.2-.24.2Zm-17.17-3.94c-.1,0-.2-.07-.31-.24a27.06,27.06,0,0,0-4.69-4.59c-.13-.1-.24-.17-.24-.27,0-.34,1.74-1.67,1.94-1.67.44,0,5.88,3.54,5.88,4.32A7.4,7.4,0,0,1,329.68,69.53Zm15.71-3.94c-.58.27-3.44,2.68-5.1,3.84a.39.39,0,0,1-.28.1.2.2,0,0,1-.17-.1,4.86,4.86,0,0,0-1.8-1.09c-.1-.07-.13-.14-.13-.17A.19.19,0,0,1,338,68a29.16,29.16,0,0,0,5.1-5.64c.07-.14.13-.2.24-.2.44,0,3.26,2,3.26,2.72C346.61,65.31,345.86,65.31,345.39,65.59Z"/><path d="M354.5,91.18a.51.51,0,0,1-.41-.2,3.24,3.24,0,0,1-.92-1.73.61.61,0,0,1,.24-.48c3.64-2.14,6.9-7.61,6.9-14.41,0-6.46-3.26-12-6.9-14.15a.51.51,0,0,1-.3-.47,2.77,2.77,0,0,1,1.39-1.94c.41,0,9.28,5,9.28,16.52,0,8.81-4.83,14.52-9.08,16.8A.29.29,0,0,1,354.5,91.18Z"/><path d="M81.21,83.34a57.7,57.7,0,0,1-9.95-14.68c-.34-.72-.68-1.45-1-2.2a68.1,68.1,0,0,1-4.68-16.74l-.23-1.56H43.86l-.23,1.56A67.63,67.63,0,0,1,39,66.47c-.33.75-.66,1.48-1,2.19A58,58,0,0,1,27.86,83.49a52,52,0,0,1-8.44,7.29c-1.1.75-2,1.3-2.64,1.65-.3.18-.54.31-.7.39l-.17.09,0,0H93.34A46.19,46.19,0,0,1,81.21,83.34ZM65.58,71.68,60.08,65,54.6,71.66,49.12,65l-5.49,6.68-1.94-2.37A70.27,70.27,0,0,0,47,51.81H62.24a69.45,69.45,0,0,0,5.29,17.48Z"/><path d="M197.33,12.63a18.62,18.62,0,0,0,9,6.26,5.35,5.35,0,0,0-.9,1.59c-.15.38-.21.55-.38.55a2.07,2.07,0,0,1-.5-.19,25.17,25.17,0,0,1-2.88-1.49v1.53c0,.21,0,.23-.21.23s-.8,0-2.73,0h-1.49v2.35h2.39c2,0,2.73,0,2.86,0s.25,0,.25.23v1.6c0,.21,0,.23-.25.23s-.82-.05-2.86-.05h-2.39V28h5c1.91,0,2.58-.05,2.7-.05s.24,0,.24.23v1.64c0,.21,0,.23-.24.23s-.79,0-2.7,0h-12c-1.93,0-2.61,0-2.73,0s-.23,0-.23-.23V28.14c0-.21,0-.23.23-.23s.8.05,2.73.05H195V25.39h-2.12c-2,0-2.73.05-2.85.05s-.23,0-.23-.23v-1.6c0-.21,0-.23.23-.23s.82,0,2.85,0H195V21.07h-1.34c-1.93,0-2.58,0-2.71,0s-.23,0-.23-.23V19.52A26.41,26.41,0,0,1,188.14,21a1.62,1.62,0,0,1-.53.19c-.14,0-.23-.14-.4-.52a4.33,4.33,0,0,0-1-1.39c3.92-1.78,6.34-3.71,8.12-6.34a6.53,6.53,0,0,0,.8-1.51,15.14,15.14,0,0,1,2.21.44c.27.06.37.17.37.32s-.06.21-.21.31Zm1.39,6.47c1.45,0,2.16,0,2.5,0a18.21,18.21,0,0,1-5-4.72,19.68,19.68,0,0,1-4.83,4.72c.38,0,1.07,0,2.29,0Z"/><path d="M220.52,18.11c-2.06,0-2.75,0-2.88,0s-.23,0-.23-.23V16.3c0-.23,0-.23.23-.23s.82,0,2.88,0h2.12V14.73a22.15,22.15,0,0,0-.15-3,17.66,17.66,0,0,1,2.21.17c.21,0,.33.1.33.2a1.18,1.18,0,0,1-.14.45,6.9,6.9,0,0,0-.13,2.12v1.4h3c2,0,2.75,0,2.9,0s.21,0,.21.23v1.62c0,.21,0,.23-.21.23s-.86,0-2.9,0h-2.18a21.36,21.36,0,0,0,5.83,7.18,5.21,5.21,0,0,0-1,1.41c-.15.29-.23.44-.34.44s-.23-.13-.44-.34a20.59,20.59,0,0,1-4.89-7c0,1.89,0,3.76,0,5.39h.48c1.64,0,2.16,0,2.29,0s.23,0,.23.23v1.53c0,.24,0,.26-.23.26s-.65-.05-2.29-.05h-.46c0,2,.06,3.38.06,3.59s0,.24-.23.24h-1.8c-.23,0-.26,0-.26-.24s.05-1.61.09-3.59h-.38c-1.64,0-2.16.05-2.29.05s-.23,0-.23-.26V25.33c0-.21,0-.23.23-.23s.65,0,2.29,0h.4c0-1.63.06-3.5.06-5.37a19.67,19.67,0,0,1-4.78,7c-.21.19-.34.32-.45.32s-.18-.13-.33-.4a6.49,6.49,0,0,0-.95-1.24v2c0,2.06.05,3.09.05,3.19s0,.24-.24.24h-1.78c-.19,0-.21,0-.21-.24s0-1.13,0-3.19V22.71c0-.7,0-1.54,0-2.38-.4.53-.79,1.05-1.21,1.54-.15.16-.28.27-.38.27s-.17-.13-.23-.38a5.88,5.88,0,0,0-.72-1.8,18.6,18.6,0,0,0,4-6.83,7.46,7.46,0,0,0,.32-1.49,15.16,15.16,0,0,1,2,.65c.23.11.34.17.34.32s-.06.23-.23.38a1.92,1.92,0,0,0-.42.84,30.55,30.55,0,0,1-1.37,3.06v8.5a19.3,19.3,0,0,0,5.5-7.28Z"/><path d="M247.19,16.64c-2.56.48-4.81.92-7.06,1.38-.79.19-1,.24-1.32.34a1.28,1.28,0,0,1-.46.17.49.49,0,0,1-.4-.32,15.54,15.54,0,0,1-.78-2.26,31.39,31.39,0,0,0,3.34-.36c2.58-.38,7.2-1.07,12.62-1.79.32,0,.42.09.44.24a11.27,11.27,0,0,1,.23,1.84c0,.26-.12.32-.4.32a9.42,9.42,0,0,0-2.56.46c-3.57,1.22-5.35,3.67-5.35,6.19,0,2.71,1.93,4.18,5.58,4.41.34,0,.46.09.46.32a7.28,7.28,0,0,1-.23,1.8c-.06.32-.14.44-.4.44-3.69,0-7.74-2.12-7.74-6.48,0-3,1.49-5,4-6.66Zm4.16,2.27c.1-.09.18-.07.31,0a9.68,9.68,0,0,1,2,2.24.22.22,0,0,1-.07.34l-.88.65c-.15.11-.25.09-.36-.06a10.3,10.3,0,0,0-2.12-2.44Zm1.86-1.37c.13-.08.19-.06.32,0a8.63,8.63,0,0,1,2,2.17.23.23,0,0,1-.06.37l-.84.65c-.17.13-.27.07-.36-.06a9.57,9.57,0,0,0-2.1-2.41Z"/><path d="M275.33,18.7a6.91,6.91,0,0,0,0-1.43,9.06,9.06,0,0,1,2.43.9.4.4,0,0,1,.15.57,3.53,3.53,0,0,0-.34.82c-.16.88-.37,1.8-.58,2.71a23.74,23.74,0,0,1,3.27,2c.21.13.19.23.13.44a16.08,16.08,0,0,1-.91,1.81q-.09.15-.18.15a.44.44,0,0,1-.26-.15,16.86,16.86,0,0,0-2.75-2A12.88,12.88,0,0,1,272,30.08c-.19.14-.29.23-.42.23a.53.53,0,0,1-.31-.15,4.42,4.42,0,0,0-1.83-.86,11.58,11.58,0,0,0,4.7-5.69A14,14,0,0,0,270,22.33a14.71,14.71,0,0,1-2.57,4.2,3.41,3.41,0,0,1-2.68,1.15c-1.22,0-2.5-.84-2.5-2.87,0-2.61,2.69-4.64,6.19-4.64.7-1.75,1.22-3.22,1.74-5l-2.89.34a4.09,4.09,0,0,0-.95.23,1.12,1.12,0,0,1-.38.08.33.33,0,0,1-.33-.23,12.64,12.64,0,0,1-.61-2.29,7.69,7.69,0,0,0,1.85.13,24.5,24.5,0,0,0,3.25-.27,2.44,2.44,0,0,0,1-.36.48.48,0,0,1,.27-.09.53.53,0,0,1,.3.09A7,7,0,0,1,273.17,14a.52.52,0,0,1,.18.36c0,.13-.08.23-.21.36a2.9,2.9,0,0,0-.56,1.09c-.55,1.43-1.14,3.06-1.77,4.57a17.35,17.35,0,0,1,4.08,1.06A22.13,22.13,0,0,0,275.33,18.7Zm-11.09,5.85c0,.68.23,1,.74,1a1.67,1.67,0,0,0,1.21-.8,14.27,14.27,0,0,0,1.54-2.56C265.59,22.25,264.24,23.36,264.24,24.55Z"/><path d="M293.26,20.44a6.37,6.37,0,0,1,3.34-1,4.88,4.88,0,0,1,5.21,5c0,3.51-2.84,5.76-7.33,5.76-2.64,0-4.24-1.14-4.24-3.09a2.78,2.78,0,0,1,3-2.56,3.83,3.83,0,0,1,3.95,3.06,3.15,3.15,0,0,0,2.14-3.19,3.06,3.06,0,0,0-3.3-3.17,8.54,8.54,0,0,0-5.37,2.23c-.61.54-1.2,1.15-1.83,1.78-.15.15-.25.23-.36.23s-.18-.06-.31-.19A9.35,9.35,0,0,1,286.88,24c-.13-.17-.06-.32.11-.48a52.87,52.87,0,0,0,5-4.64c1.3-1.35,2.29-2.4,3.26-3.59-1.26.23-2.75.52-4.06.79a7.42,7.42,0,0,0-.88.26,1.51,1.51,0,0,1-.42.1c-.21,0-.35-.1-.46-.36a10,10,0,0,1-.73-2.26,10.59,10.59,0,0,0,1.95,0c1.28-.13,3.13-.4,4.76-.71a6.17,6.17,0,0,0,1.16-.32,1.08,1.08,0,0,1,.4-.17.78.78,0,0,1,.48.17,8,8,0,0,1,1.41,1.34.73.73,0,0,1,.23.51.55.55,0,0,1-.36.5,3.53,3.53,0,0,0-.92.67c-1.54,1.49-2.94,3-4.54,4.5Zm0,6c-.6,0-1,.36-1,.8,0,.65.56,1.09,1.82,1.09a4.88,4.88,0,0,0,1-.08C294.8,27.07,294.17,26.42,293.28,26.42Z"/></g></g></svg>