<svg xmlns="http://www.w3.org/2000/svg" viewBox="0 0 402.07 126.64"><defs><style>.cls-1,.cls-2,.cls-3{fill:#fff;stroke:#000;stroke-miterlimit:10;}.cls-1{stroke-width:4.21px;}.cls-2{stroke-width:4.3px;}.cls-3{stroke-width:4.3px;}.cls-4{fill:#040000;}</style></defs><title>アセット 202</title><g id="レイヤー_2" data-name="レイヤー 2"><g id="レイヤー_1-2" data-name="レイヤー 1"><polygon class="cls-1" points="399.92 40.55 41.62 40.55 60.35 2.11 399.92 2.11 399.92 40.55"/><rect class="cls-2" x="53.07" y="40.54" width="346.85" height="69.43"/><circle class="cls-3" cx="54.61" cy="72.03" r="52.46"/><path d="M187.43,89.21c.28-4.65.38-8.83.41-12.61-3.53,0-7.54.14-13,.38-.44,0-.44-.11-.44-1.7s0-1.84.44-1.84c4.49.27,7.86.34,10.64.34h2.38V73c0-6,0-6.67,0-8-2.59,0-4.49.11-9.93.31h-.07c-.34,0-.37,0-.37-1.63s.07-1.77.31-1.77h.13c4.28.27,6.29.34,8.09.34,1.09,0,2.11,0,3.5,0,4.32,0,4.19,0,11.39-.31h.07a.36.36,0,0,1,.34.31c0,.27,0,1,0,1.66,0,1.16,0,1.43-.34,1.43h0c-5.34-.2-6.87-.27-9.11-.31a1.16,1.16,0,0,1-.41.45c-.27.2-.27.3-.27.68-.07,2.24-.14,4.76-.14,6.9v.78c3.64,0,7.25-.07,13.5-.34.2,0,.37.1.37.31a10.7,10.7,0,0,1,.07,1.42,13.58,13.58,0,0,1-.07,1.53c0,.14-.2.24-.33.24-6-.24-9.73-.31-13.54-.34.07,4.11.21,9.25.41,12.72,0,.17-.13.27-.34.27a11.22,11.22,0,0,1-1.63.07,12.11,12.11,0,0,1-1.67-.07c-.27,0-.34-.1-.34-.27ZM183.66,73.1c-.1,0-.17-.1-.27-.27a26,26,0,0,0-4.11-5c-.11-.07-.17-.14-.17-.24,0-.31,1.56-1.36,2.14-1.57l.1,0c.51,0,4.93,4.35,4.93,5A7.32,7.32,0,0,1,183.66,73.1Zm15.47-4.39c-.54.34-3,3.06-4.49,4.39a.3.3,0,0,1-.24.1.19.19,0,0,1-.17-.07,6.56,6.56,0,0,0-2-1.08c-.13-.07-.17-.11-.17-.14s0-.1.1-.17a30.37,30.37,0,0,0,4.46-5.92c.07-.13.1-.2.2-.2.31,0,3.4,1.56,3.4,2.31C200.25,68.31,199.57,68.41,199.13,68.71Z"/><path d="M238.37,72.86c.23,0,.3.14.3,1.74,0,.57,0,1.12,0,1.42a.31.31,0,0,1-.34.27c-3.27-.16-5.92-.27-8.23-.33-.07.23-.41.5-.71.78a2.8,2.8,0,0,0-.75,1.49,25,25,0,0,1-1.19,3.06c5.17,1.84,8.26,4.86,8.26,5.2a8.26,8.26,0,0,1-2.28,3.2.39.39,0,0,1-.3-.17,19,19,0,0,0-7.28-5.61c-2.82,3.74-7.31,5.78-14.58,6-.07,0-.14,0-.24,0a.43.43,0,0,1-.44-.27,13.1,13.1,0,0,0-2.49-2.82.84.84,0,0,1-.23-.41c0-.07.06-.07.17-.07h.23c1,.07,1.94.1,2.83.1,5.5,0,9.28-1.25,11.66-3.7a25.28,25.28,0,0,0-3.23-.68l-.62,1.49c-.06.17-.2.21-.37.21h-.44c-.37,0-3.09,0-3.09-.55a.56.56,0,0,1,.06-.2,47.33,47.33,0,0,0,3.44-7.14c-2.55.07-5.54.14-9.73.34h-.1c-.27,0-.34-.13-.34-1.7s.1-1.7.27-1.7h.17c4.76.24,7.89.34,10.64.38a35.55,35.55,0,0,0,1.26-5.51c0-.24.1-.31.21-.31S225,68.31,225,69c0,.3-.41.61-.68.85s-.78,1-1.77,3.4h.95c4,0,7.75,0,14.76-.38Zm-2.49-8.6c-.1,1.46-.27,2.52-.27,3.06.07,1.09.17,1.56.41,3.37,0,.3-.41.34-2.07.34a15.69,15.69,0,0,1-1.57,0c-.24-.07-.3-.17-.3-.34a32.41,32.41,0,0,0,.2-3.57c-3.09-.13-5.41-.13-8.81-.13-3.87,0-5,0-8.63.13,0,.85.07,1.7.24,3.78,0,.34-.44.37-2.35.37-1.53,0-1.7-.1-1.7-.31v-.1a27.42,27.42,0,0,0,.48-3.87,18.23,18.23,0,0,0-.24-2.66v-.13c0-.17.07-.24.27-.24h.14c5.91.31,7.68.37,10.2.37a20.2,20.2,0,0,0-.41-5,.41.41,0,0,1,0-.2c0-.1.11-.14.31-.14,1.12,0,4.42.28,4.42,1,0,.4-.58,1-.75,1.7a16.16,16.16,0,0,0-.34,2.71c2.93,0,4.56,0,10.51-.37.24,0,.3.07.3.24ZM221.64,75.89c-.44,1.26-.85,2.55-1.26,3.77a33.73,33.73,0,0,1,4.05.72,12,12,0,0,0,1.25-4.49Z"/><path d="M253.6,82.75c0,.34-.1.58-1.7.58-.92,0-1.63,0-1.63-.47v-.07c0-.65,0-1.5.07-2.41-.38,0-1-.07-1.47-.07s-1.19,0-1.56.07c0,1.52,0,3,.07,4.35,0,.57-.07.61-1.7.61s-1.74-.21-1.74-.55v-.1c.31-4.65.38-9.75.38-12.54,0-3.5-.07-6.26-.21-9.05,0-.13,0-.2,0-.3s.07-.21.24-.21.17,0,.27,0c1.09.1,2.58.17,4.32.17s2-.07,4.21-.21c.38,0,.44.14.44.48-.23,2.69-.23,5.81-.23,8.74,0,2.55.06,8.06.27,10.74Zm-4.76-17.33c-1,0-1.53,0-1.53,0s-.07,2.11-.07,4.52c.41,0,1.09,0,1.6,0s1.22,0,1.6,0c0-2.17-.1-4.52-.1-4.52s-.35,0-1,0Zm1.6,7.31c-.38,0-1,0-1.57,0s-1.25,0-1.63,0c0,1.32,0,3,0,4.86.4,0,1.05,0,1.56,0s1.15,0,1.53,0C250.4,75.75,250.44,74,250.44,72.73Zm21.82.17c-3.77-.38-7.31-.41-9.45-.41s-3.91.07-8.36.34c-.34,0-.41-.1-.41-1.57s0-1.63.41-1.63c3.33.27,5.06.34,6.83.34V67.29c-1.53,0-3,.06-5.47.2-.31,0-.38,0-.38-1.46s.07-1.53.45-1.53c2.38.2,3.91.2,5.33.2v-.34a27.37,27.37,0,0,0-.47-5v-.17c0-.17,0-.2.24-.2.54,0,4.35.4,4.35,1.12,0,.27-.31.61-.51,1-.38.71-.34.64-.48,2.85a4.94,4.94,0,0,0,0,.68c1.29,0,2.58-.07,5.2-.24.17,0,.41,0,.41,1.57a6.7,6.7,0,0,1-.07,1.26c0,.13-.2.2-.31.2h0c-2.55-.14-3.74-.17-5.24-.2V70c2.11,0,4.87-.17,8-.41.24,0,.38.24.38,1.67,0,.54,0,1.09-.07,1.43,0,.13-.17.24-.27.24Zm-4.59,13c0,2-1.12,4.25-5.1,4.25q-.3,0-.51-.51c-.64-1.53-1.83-2.07-2.65-3-.1-.11-.17-.17-.17-.24s0-.07.14-.07a1.39,1.39,0,0,0,.17,0,19.72,19.72,0,0,0,2.75.28c1.29,0,2-.34,2-1.33.07-1.33.07-4,.07-5.54v-2H263c-2.18,0-3.95.07-8.33.34a.33.33,0,0,1-.34-.31c0-.27,0-.78,0-1.33,0-1.63,0-1.63.38-1.63,4.21.34,5.95.34,8.33.34h1.36a14.14,14.14,0,0,0-.27-2c0-.06,0-.1,0-.13s.1-.21.27-.21,4,.34,4,1a.87.87,0,0,1-.27.54c-.31.41-.41.41-.44.75,1.39-.07,2.95-.17,4.62-.3h0c.2,0,.34.27.34,1.69,0,.55,0,1.13-.07,1.47a.34.34,0,0,1-.27.24h0c-1.67-.17-3.26-.28-4.69-.31v2.92c0,1.84.17,3,.2,4.93Zm-7.51-1.49c-.07,0-.14-.07-.2-.14a19.71,19.71,0,0,0-4.25-3.64c-.11-.07-.14-.1-.14-.17,0-.37,1.5-1.36,1.84-1.56a.26.26,0,0,1,.17-.1.44.44,0,0,1,.17.06,17.34,17.34,0,0,1,4.45,2.89.29.29,0,0,1,.1.21,14.63,14.63,0,0,1-2,2.38C260.26,84.35,260.23,84.39,260.16,84.39Z"/><path d="M281.41,89.32c.51-4.59.75-12,.89-17.58-.31.37-3.81,4.72-4.56,4.72a.45.45,0,0,1-.27-.06,9.56,9.56,0,0,0-2.86-1.06c-.2,0-.34-.1-.34-.17s.07-.13.17-.2c5.85-4.15,10.51-12,10.91-14.28,0-.14.07-.2.18-.2.57,0,4,1.46,4,2.1,0,.24-.27.48-.78.68s-.68.14-1,.68a39.91,39.91,0,0,1-2.31,3.57c.24.07.41.17.54.21a.42.42,0,0,1,.34.41,1.12,1.12,0,0,1-.34.64,2.12,2.12,0,0,0-.51,1.63c-.14,4.22-.31,9.76-.31,14.28,0,1.77,0,3.37.11,4.69,0,.17-.11.34-1.94.34-1.6,0-1.94,0-1.94-.34Zm23.53-18.19c0,.13-.24.27-.34.27-5.1.37-5.85.44-8.84.88l-.72.11c2,10.13,7.62,12.91,8.3,12.91s1.6-1,1.84-3.8c0-.21.06-.28.17-.28s.13.07.2.17a11.86,11.86,0,0,0,2.72,2.76.52.52,0,0,1,.24.51c-.92,3-2.55,4.66-4.56,4.66a5.11,5.11,0,0,1-2.72-.92c-5.61-3.54-8.09-9.52-9.35-15.47L287,74h-.1a.39.39,0,0,1-.41-.24,13.43,13.43,0,0,1-.37-2.68v-.14c0-.34.17-.41.37-.41,2.14-.13,3.6-.27,4.86-.44-.27-1.73-.47-3.47-.61-5.1s-.27-3-.48-3.91a2.49,2.49,0,0,1-.06-.37c0-.14.06-.21.2-.21s.14,0,.2,0c3.68.44,4.42.57,4.42,1.12a3.17,3.17,0,0,1-.51,1.19,2.61,2.61,0,0,0-.2,1.12,49.33,49.33,0,0,0,.27,5.68l.75-.1c3.26-.45,4.08-.62,8.74-1.6h.07a.36.36,0,0,1,.37.3,19.34,19.34,0,0,1,.41,2.89Zm-5.17-3.54a23.35,23.35,0,0,0-4.11-2.82c-.14-.07-.28-.1-.28-.24a5.68,5.68,0,0,1,1.77-2.21c.65,0,4.8,2.31,4.8,2.76s-1.36,2.68-1.81,2.68A.51.51,0,0,1,299.77,67.59Z"/><path d="M197.33,12.7a18.62,18.62,0,0,0,9,6.26,5.47,5.47,0,0,0-.9,1.59c-.15.38-.21.55-.38.55a2.07,2.07,0,0,1-.5-.19,25.17,25.17,0,0,1-2.88-1.49V21c0,.21,0,.23-.21.23s-.8,0-2.73,0h-1.49v2.35h2.39c2,0,2.73,0,2.86,0s.25,0,.25.23v1.6c0,.21,0,.23-.25.23s-.82-.05-2.86-.05h-2.39V28h5c1.91,0,2.58-.05,2.7-.05s.24,0,.24.24v1.63c0,.21,0,.23-.24.23s-.79,0-2.7,0h-12c-1.93,0-2.61,0-2.73,0s-.23,0-.23-.23V28.22c0-.21,0-.24.23-.24s.8.05,2.73.05H195V25.46h-2.12c-2,0-2.73.05-2.85.05s-.23,0-.23-.23v-1.6c0-.21,0-.23.23-.23s.82,0,2.85,0H195V21.14h-1.34c-1.93,0-2.58,0-2.71,0s-.23,0-.23-.23V19.59A28.77,28.77,0,0,1,188.14,21a1.8,1.8,0,0,1-.53.18c-.14,0-.23-.14-.4-.52a4.33,4.33,0,0,0-1-1.39c3.92-1.78,6.34-3.71,8.12-6.34a6.53,6.53,0,0,0,.8-1.51,15.14,15.14,0,0,1,2.21.44c.27.06.37.17.37.32s-.06.21-.21.31Zm1.39,6.47c1.45,0,2.16,0,2.5,0a18.39,18.39,0,0,1-5-4.73,19.91,19.91,0,0,1-4.83,4.73c.38,0,1.07,0,2.29,0Z"/><path d="M220.52,18.18c-2.06,0-2.75,0-2.88,0s-.23,0-.23-.23V16.37c0-.23,0-.23.23-.23s.82,0,2.88,0h2.12V14.8a22.24,22.24,0,0,0-.15-3,17.66,17.66,0,0,1,2.21.17c.21,0,.33.1.33.21a1.19,1.19,0,0,1-.14.44,6.9,6.9,0,0,0-.13,2.12v1.4h3c2,0,2.75,0,2.9,0s.21,0,.21.23V18c0,.21,0,.23-.21.23s-.86,0-2.9,0h-2.18a21.36,21.36,0,0,0,5.83,7.18,5.21,5.21,0,0,0-1,1.41c-.15.29-.23.44-.34.44s-.23-.13-.44-.34a20.59,20.59,0,0,1-4.89-7c0,1.89,0,3.76,0,5.39h.48c1.64,0,2.16,0,2.29,0s.23,0,.23.23v1.54c0,.23,0,.25-.23.25s-.65-.05-2.29-.05h-.46c0,2,.06,3.39.06,3.6s0,.23-.23.23h-1.8c-.23,0-.26,0-.26-.23s.05-1.62.09-3.6h-.38c-1.64,0-2.16.05-2.29.05s-.23,0-.23-.25V25.4c0-.21,0-.23.23-.23s.65,0,2.29,0h.4c0-1.63.06-3.5.06-5.37a19.67,19.67,0,0,1-4.78,7c-.21.19-.34.32-.45.32s-.18-.13-.33-.4a6.49,6.49,0,0,0-.95-1.24v2c0,2.06.05,3.09.05,3.2s0,.23-.24.23h-1.78c-.19,0-.21,0-.21-.23s0-1.14,0-3.2V22.78c0-.69,0-1.53,0-2.37-.4.52-.79,1.05-1.21,1.53-.15.17-.28.27-.38.27s-.17-.12-.23-.38a5.88,5.88,0,0,0-.72-1.8,18.6,18.6,0,0,0,4-6.83,7.46,7.46,0,0,0,.32-1.49,15.16,15.16,0,0,1,2,.65c.23.11.34.17.34.32s-.06.23-.23.38a1.92,1.92,0,0,0-.42.84A29.57,29.57,0,0,1,216.19,17v8.5a19.3,19.3,0,0,0,5.5-7.28Z"/><path d="M247.19,16.71c-2.56.48-4.81.92-7.06,1.39-.79.19-1,.23-1.32.33a1.28,1.28,0,0,1-.46.17.49.49,0,0,1-.4-.31,16.18,16.18,0,0,1-.78-2.27,31.39,31.39,0,0,0,3.34-.36c2.58-.38,7.2-1.07,12.62-1.78.32-.05.42.08.44.23A11.27,11.27,0,0,1,253.8,16c0,.26-.12.32-.4.32a9.42,9.42,0,0,0-2.56.46c-3.57,1.22-5.35,3.68-5.35,6.19,0,2.71,1.93,4.18,5.58,4.41.34,0,.46.09.46.32a7.36,7.36,0,0,1-.23,1.81c-.06.31-.14.44-.4.44-3.69,0-7.74-2.12-7.74-6.49,0-3,1.49-5,4-6.66ZM251.35,19c.1-.09.18-.07.31,0a9.54,9.54,0,0,1,2,2.25.21.21,0,0,1-.07.33l-.88.65c-.15.11-.25.09-.36-.06a10.5,10.5,0,0,0-2.12-2.44Zm1.86-1.37c.13-.08.19-.06.32,0a8.63,8.63,0,0,1,2,2.17.24.24,0,0,1-.06.38l-.84.65a.22.22,0,0,1-.36-.07,9.57,9.57,0,0,0-2.1-2.41Z"/><path d="M275.33,18.77a6.92,6.92,0,0,0,0-1.43,9.06,9.06,0,0,1,2.43.9.4.4,0,0,1,.15.57,3.53,3.53,0,0,0-.34.82c-.16.88-.37,1.8-.58,2.71a24.76,24.76,0,0,1,3.27,2c.21.13.19.23.13.44a16.08,16.08,0,0,1-.91,1.81q-.09.15-.18.15a.44.44,0,0,1-.26-.15,16.21,16.21,0,0,0-2.75-2A12.91,12.91,0,0,1,272,30.15c-.19.14-.29.23-.42.23a.53.53,0,0,1-.31-.15,4.42,4.42,0,0,0-1.83-.86,11.58,11.58,0,0,0,4.7-5.69A14,14,0,0,0,270,22.4a14.71,14.71,0,0,1-2.57,4.2,3.41,3.41,0,0,1-2.68,1.15c-1.22,0-2.5-.84-2.5-2.87,0-2.61,2.69-4.64,6.19-4.64a52.58,52.58,0,0,0,1.74-5l-2.89.34a4.09,4.09,0,0,0-.95.23,1.12,1.12,0,0,1-.38.08.33.33,0,0,1-.33-.23,12.64,12.64,0,0,1-.61-2.29,7.69,7.69,0,0,0,1.85.13,24.5,24.5,0,0,0,3.25-.27,2.44,2.44,0,0,0,1-.36.48.48,0,0,1,.27-.09.53.53,0,0,1,.3.09A7,7,0,0,1,273.17,14a.52.52,0,0,1,.18.36c0,.13-.08.23-.21.36a2.9,2.9,0,0,0-.56,1.09c-.55,1.43-1.14,3.06-1.77,4.58a16.82,16.82,0,0,1,4.08,1.05A22.13,22.13,0,0,0,275.33,18.77Zm-11.09,5.86c0,.67.23,1,.74,1a1.67,1.67,0,0,0,1.21-.8,14.27,14.27,0,0,0,1.54-2.56C265.59,22.32,264.24,23.43,264.24,24.63Z"/><path d="M293.26,20.51a6.36,6.36,0,0,1,3.34-.94,4.87,4.87,0,0,1,5.21,5c0,3.51-2.84,5.76-7.33,5.76-2.64,0-4.24-1.14-4.24-3.09a2.78,2.78,0,0,1,3-2.56,3.83,3.83,0,0,1,3.95,3.07,3.17,3.17,0,0,0,2.14-3.2,3.06,3.06,0,0,0-3.3-3.17,8.54,8.54,0,0,0-5.37,2.23c-.61.54-1.2,1.15-1.83,1.78-.15.15-.25.23-.36.23s-.18-.06-.31-.19a9.35,9.35,0,0,1-1.24-1.36c-.13-.17-.06-.31.11-.48A52.87,52.87,0,0,0,292,19c1.3-1.35,2.29-2.4,3.26-3.59-1.26.23-2.75.52-4.06.8a5.77,5.77,0,0,0-.88.25,1.51,1.51,0,0,1-.42.1.47.47,0,0,1-.46-.35,10.3,10.3,0,0,1-.73-2.27,10.59,10.59,0,0,0,1.95,0c1.28-.13,3.13-.4,4.76-.71a5.48,5.48,0,0,0,1.16-.32,1.08,1.08,0,0,1,.4-.17.78.78,0,0,1,.48.17,8,8,0,0,1,1.41,1.34.73.73,0,0,1,.23.51.55.55,0,0,1-.36.5,3.53,3.53,0,0,0-.92.67c-1.54,1.5-2.94,3-4.54,4.5Zm0,6c-.6,0-1,.36-1,.8,0,.65.56,1.09,1.82,1.09a4.88,4.88,0,0,0,1-.08C294.8,27.14,294.17,26.49,293.28,26.49Z"/><polygon class="cls-4" points="79.81 55.29 85.63 59.52 57.91 87.12 79.81 55.29"/><polygon class="cls-4" points="70.72 50.95 77.29 53.87 56.17 86.04 70.72 50.95"/><polygon class="cls-4" points="60.93 48.59 67.96 50.08 54.28 86.14 60.93 48.59"/><polygon class="cls-4" points="50.85 48.32 58.04 48.32 52.04 87.18 50.85 48.32"/><polygon class="cls-4" points="40.94 50.15 47.98 48.65 50.22 87.63 40.94 50.15"/><polygon class="cls-4" points="31.63 54 38.2 51.07 49.24 89.85 31.63 54"/><polygon class="cls-4" points="23.32 59.7 29.14 55.48 48.03 91.44 23.32 59.7"/><polygon class="cls-4" points="16.38 67.01 21.2 61.66 47.66 93.12 16.38 67.01"/><path class="cls-4" d="M54.61,101.42a3.75,3.75,0,0,1-3.69-3.07,2.19,2.19,0,0,1,.65-2.17L87.81,61.43l5,5.58L58.36,96.14a.47.47,0,0,0-.15.48,3.81,3.81,0,0,1,.15,1A3.75,3.75,0,0,1,54.61,101.42Z"/></g></g></svg>