<svg xmlns="http://www.w3.org/2000/svg" viewBox="0 0 402.07 126.64"><defs><style>.cls-1,.cls-2,.cls-3{fill:#fff;stroke:#000;stroke-miterlimit:10;}.cls-1{stroke-width:4.21px;}.cls-2{stroke-width:4.3px;}.cls-3{stroke-width:4.3px;}</style></defs><title>アセット 193</title><g id="レイヤー_2" data-name="レイヤー 2"><g id="レイヤー_1-2" data-name="レイヤー 1"><polygon class="cls-1" points="399.92 40.55 41.62 40.55 60.35 2.11 399.92 2.11 399.92 40.55"/><rect class="cls-2" x="53.07" y="40.54" width="346.85" height="69.43"/><circle class="cls-3" cx="54.61" cy="72.03" r="52.46"/><path d="M187.82,77.89c0-.1,0-.13.1-.13a23.21,23.21,0,0,1,4.21.78c.31.1.41.27.41.47a1,1,0,0,1-.37.72,1.66,1.66,0,0,0-.68,1s0,.07,0,.1c2.38,0,3.91-.06,7.55-.3.31,0,.38.13.38,1.6a12.71,12.71,0,0,1-.07,1.29c0,.13-.11.24-.27.24-3.74-.17-5.34-.31-7.72-.34,0,.47,0,.95,0,1.39s0,.92,0,1.33c3.19,0,6.25,0,12.1-.34.31,0,.37.1.37,1.7s-.13,1.59-.37,1.59c-5.57-.27-8.91-.3-12-.3-8.13,0-9.93,0-15.57.3h-.07c-.2,0-.34,0-.34-1.66s0-1.63.41-1.63c6.08.34,8.94.34,12.24.34,0-.82,0-1.74,0-2.72-2.68,0-4,.13-8,.34-.24,0-.31-.07-.31-.31s0-.75,0-1.26c0-1.53,0-1.56.37-1.56,4,.3,5.37.3,8,.3-.07-1-.14-1.9-.27-2.82Zm15.26-7.27c0,.2-.2.34-2.11.34-1.39,0-1.56-.1-1.56-.34v-.07a29.64,29.64,0,0,0,.17-3.5c-2.45-.1-4.08-.14-5.54-.14s-2.69,0-4.39,0c-1.87,0-3.16,0-4.59,0s-2.92,0-5.27.14c0,1.43.07,2.17.17,3.6v0c0,.27-.37.34-2.17.34-.85,0-1.6,0-1.6-.34v-.07a23.61,23.61,0,0,0,.37-3.71c0-.88-.06-1.7-.13-2.72,0-.34,0-.37.44-.37,5.88.3,8.33.34,11,.34a28.77,28.77,0,0,0-.38-4.66.54.54,0,0,1,0-.2c0-.1.07-.14.27-.14a26.37,26.37,0,0,1,4.05.75c.34.1.47.27.47.47,0,.48-.54,1.09-.71,1.74a9.88,9.88,0,0,0-.27,2c3.13,0,5.4,0,11.35-.34.27,0,.31.1.31.34-.14,1.53-.17,2.68-.17,3.23a30.33,30.33,0,0,0,.27,3.19Zm-5,1.29-3.26-.2c2.79,1.53,6.59,4.48,6.59,4.86a.6.6,0,0,1-.17.34,11.21,11.21,0,0,1-2.1,1.8c-.14,0-.21-.07-.34-.24a23.64,23.64,0,0,0-2.11-2c-2.79.31-15.23,1.74-16.18,1.8-.44,0-.72.34-1,.34-.44,0-1.7-2.78-1.7-3.36a.13.13,0,0,1,.14-.14c.07,0,.13,0,.24,0a20.54,20.54,0,0,0,2.17.1c1.09,0,2.42-.07,3.84-.14a12.3,12.3,0,0,0,1.19-3.36c-1.09,0-2.34.1-3.94.2h-.07a.32.32,0,0,1-.34-.27V69.12c0-.3.2-.3.41-.3,3.84.27,5.54.3,7.31.3,4.11,0,5.64-.07,9.31-.3a.29.29,0,0,1,.31.3,11.69,11.69,0,0,1,.07,1.29c0,.51,0,1-.07,1.3s-.1.2-.24.2ZM189,71.74c.34.14.48.24.48.37s-.41.38-.78.68a1.74,1.74,0,0,0-.58.79,14.64,14.64,0,0,1-.75,1.32c2.41-.17,4.83-.37,6.73-.54-.71-.51-1.26-.85-1.49-1-.07-.07-.14-.14-.14-.21s.07-.17.14-.27c.27-.27.88-.88,1.25-1.19-1.53-.07-2.58-.07-4-.07-.41,0-.82,0-1.26,0Z"/><path d="M232.93,85.44c0,2.31-1.05,4.45-5.88,4.45-.2,0-.41-.13-.51-.51a13.93,13.93,0,0,0-2.11-3.12.7.7,0,0,1-.06-.17c0-.11.06-.14.2-.14a.75.75,0,0,1,.24,0,15.85,15.85,0,0,0,2.68.31c1.43,0,1.81-.51,1.84-1.63,0-2.35.07-4.28.07-5.85,0-2.11,0-3.53,0-4.52,0-1.39,0-4.15-.23-6.36l-5.48.14v.2c0,.78,0,11,.24,13.53v.1c0,.45-.2.55-1.6.55-1.15,0-1.6-.1-1.6-.41V82c0-.47,0-1.29,0-2.27-1.19,0-3.2-.07-3.91-.07l-3.5,0c0,1.7,0,3.13.07,3.81,0,.41,0,.44-.51.51-2.66,0-2.66,0-2.66-.41V83.4c.14-1.19.17-4.18.17-15.33,0-.34,0-.75,0-1.29,0-1.16-.07-2.79-.17-4.66,0-.1,0-.2,0-.27s.07-.21.34-.21h.17c1.4.14,4.39.21,6.16.21s4.38-.07,6.52-.21c.31,0,.41.07.41.34v.14c-.07,1-.13,2-.17,2.85,2.31.07,5.41.17,7,.17,2.07,0,4.11,0,8.23-.34h0c.31,0,.31.48.31,2,0,1.06,0,1.4-.34,1.4-2.35-.21-3.95-.27-5.34-.31a1.09,1.09,0,0,1-.41.38c-.34.23-.41.54-.44,1.22v4.76c0,2,0,6.9.2,10.81Zm-17.44-21c-1,0-2.14,0-2.14,0s0,2.89,0,3.88v.85c.61,0,1.42,0,2.17,0Zm0,12.65c0-1.26,0-3.23,0-5.37l-2.17.06V77Zm5.3-8.81c0-.75,0-3.81,0-3.81s-.85,0-1.8,0a.58.58,0,0,1-.21.2.54.54,0,0,0-.27.41c0,.31,0,.51,0,4.18.85,0,1.7,0,2.34,0Zm0,3.5c-.68,0-1.53,0-2.34,0v5.34l2.34-.07Z"/><path d="M253.78,82.75c0,.34-.11.58-1.7.58-.92,0-1.64,0-1.64-.47v-.07c0-.65,0-1.5.07-2.41-.37,0-.95-.07-1.46-.07s-1.19,0-1.56.07c0,1.52,0,3,.07,4.35,0,.57-.07.61-1.7.61s-1.74-.21-1.74-.55v-.1c.31-4.65.38-9.75.38-12.54,0-3.5-.07-6.26-.21-9.05,0-.13,0-.2,0-.3s.07-.21.24-.21.17,0,.27,0c1.09.1,2.58.17,4.31.17s2-.07,4.22-.21c.37,0,.44.14.44.48-.24,2.69-.24,5.81-.24,8.74,0,2.55.07,8.06.28,10.74ZM249,65.42c-1,0-1.53,0-1.53,0s-.07,2.11-.07,4.52c.41,0,1.09,0,1.6,0s1.22,0,1.6,0c0-2.17-.11-4.52-.11-4.52s-.34,0-1,0Zm1.6,7.31c-.38,0-1,0-1.57,0s-1.26,0-1.63,0c0,1.32,0,3,0,4.86.41,0,1.06,0,1.57,0s1.15,0,1.53,0C250.58,75.75,250.62,74,250.62,72.73Zm21.82.17c-3.77-.38-7.31-.41-9.45-.41s-3.91.07-8.36.34c-.34,0-.41-.1-.41-1.57s0-1.63.41-1.63c3.33.27,5.06.34,6.83.34V67.29c-1.53,0-3,.06-5.47.2-.31,0-.38,0-.38-1.46s.07-1.53.44-1.53c2.38.2,3.91.2,5.34.2v-.34a27.37,27.37,0,0,0-.47-5v-.17c0-.17,0-.2.23-.2.55,0,4.36.4,4.36,1.12,0,.27-.31.61-.51,1-.38.71-.34.64-.48,2.85a4.94,4.94,0,0,0,0,.68c1.29,0,2.58-.07,5.2-.24.17,0,.41,0,.41,1.57a6.7,6.7,0,0,1-.07,1.26c0,.13-.21.2-.31.2h0c-2.55-.14-3.74-.17-5.24-.2V70c2.11,0,4.86-.17,8-.41.24,0,.37.24.37,1.67,0,.54,0,1.09-.06,1.43,0,.13-.17.24-.28.24Zm-4.59,13c0,2-1.12,4.25-5.1,4.25q-.3,0-.51-.51c-.64-1.53-1.83-2.07-2.65-3-.1-.11-.17-.17-.17-.24s0-.07.14-.07a1.39,1.39,0,0,0,.17,0,19.72,19.72,0,0,0,2.75.28c1.29,0,2-.34,2-1.33.07-1.33.07-4,.07-5.54v-2h-1.46c-2.18,0-3.95.07-8.33.34a.32.32,0,0,1-.34-.31c0-.27,0-.78,0-1.33,0-1.63,0-1.63.38-1.63,4.21.34,5.95.34,8.33.34h1.36a12.71,12.71,0,0,0-.28-2,.86.86,0,0,0,0-.13c0-.14.1-.21.27-.21s4,.34,4,1a.89.89,0,0,1-.27.54c-.31.41-.41.41-.44.75,1.39-.07,2.95-.17,4.62-.3h0c.21,0,.34.27.34,1.69a14.3,14.3,0,0,1-.07,1.47.33.33,0,0,1-.27.24h0c-1.67-.17-3.26-.28-4.69-.31v2.92c0,1.84.17,3,.2,4.93Zm-7.51-1.49c-.07,0-.14-.07-.21-.14a19.47,19.47,0,0,0-4.25-3.64c-.1-.07-.13-.1-.13-.17,0-.37,1.49-1.36,1.83-1.56a.31.31,0,0,1,.17-.1.35.35,0,0,1,.17.06,17.37,17.37,0,0,1,4.46,2.89.29.29,0,0,1,.1.21,14.63,14.63,0,0,1-2,2.38C260.44,84.35,260.41,84.39,260.34,84.39Z"/><path d="M281.59,89.32c.51-4.59.75-12,.88-17.58-.3.37-3.8,4.72-4.55,4.72a.45.45,0,0,1-.27-.06,9.56,9.56,0,0,0-2.86-1.06c-.2,0-.34-.1-.34-.17s.07-.13.17-.2c5.85-4.15,10.5-12,10.91-14.28,0-.14.07-.2.17-.2.58,0,4,1.46,4,2.1,0,.24-.27.48-.78.68s-.68.14-.95.68a38.41,38.41,0,0,1-2.32,3.57c.24.07.41.17.55.21a.42.42,0,0,1,.34.41,1.12,1.12,0,0,1-.34.64,2,2,0,0,0-.51,1.63c-.14,4.22-.31,9.76-.31,14.28,0,1.77,0,3.37.1,4.69,0,.17-.1.34-1.93.34-1.6,0-1.94,0-1.94-.34Zm23.52-18.19c0,.13-.23.27-.34.27-5.09.37-5.84.44-8.83.88l-.72.11c2,10.13,7.62,12.91,8.3,12.91s1.59-1,1.83-3.8c0-.21.07-.28.17-.28s.14.07.21.17a11.67,11.67,0,0,0,2.72,2.76.52.52,0,0,1,.23.51c-.91,3-2.55,4.66-4.55,4.66a5.11,5.11,0,0,1-2.72-.92c-5.61-3.54-8.09-9.52-9.35-15.47l-4.86,1h-.1a.39.39,0,0,1-.41-.24,13.42,13.42,0,0,1-.38-2.68v-.14c0-.34.17-.41.38-.41,2.14-.13,3.6-.27,4.86-.44-.27-1.73-.48-3.47-.61-5.1s-.27-3-.48-3.91a2.81,2.81,0,0,1-.07-.37.19.19,0,0,1,.21-.21c.07,0,.13,0,.2,0,3.67.44,4.42.57,4.42,1.12a3.17,3.17,0,0,1-.51,1.19,2.61,2.61,0,0,0-.2,1.12,49.33,49.33,0,0,0,.27,5.68l.75-.1c3.26-.45,4.08-.62,8.74-1.6h.06a.37.37,0,0,1,.38.3,19.37,19.37,0,0,1,.4,2.89ZM300,67.59a23.27,23.27,0,0,0-4.12-2.82c-.13-.07-.27-.1-.27-.24a5.68,5.68,0,0,1,1.77-2.21c.65,0,4.79,2.31,4.79,2.76s-1.36,2.68-1.8,2.68A.49.49,0,0,1,300,67.59Z"/><rect x="50.14" y="41.7" width="8.92" height="1.45"/><rect x="52.02" y="38.18" width="5.17" height="2.14"/><path d="M54.61,38.63a2.05,2.05,0,1,0-2.06-2.05A2.05,2.05,0,0,0,54.61,38.63Z"/><path d="M94.47,73.76C88.36,73.72,82.26,72,76.15,69V62.9H73.28V58.27A26.68,26.68,0,0,0,83.42,55c.36-.23.23-.92-.17-.92-7.84.12-15.66-3.91-23.57-9.56H49.53C41.86,50,34.26,54,26.65,54.09c-.57,0-.73,1-.21,1.31a28.34,28.34,0,0,0,9.49,2.87V62.9H33.07V69C27,72,20.85,73.72,14.75,73.76c-.63,0-.79,1.37-.2,1.71a38.66,38.66,0,0,0,12.83,4v4.34H24.69v6.37H21.14V96h6.24v4.56h3.55V96H78.28v4.56h3.55V96h6.34V90.18H84.53V83.81h-2.7V79.47a38.59,38.59,0,0,0,12.83-4C95.25,75.13,95.1,73.76,94.47,73.76ZM30.93,85.19h8.88v5H30.93Zm23.68-26c1.5,0,3.09,0,4.72,0V62.9H50.42V59.18Zm4.72,5.09v4.53H50.42V64.28Zm3,4.53V64.28h7.37v4.53Zm-15,0H39.48V64.28h7.91Zm5.7,12.07v2.93H42.84v-3C46.37,80.86,49.84,80.88,53.09,80.88Zm0,4.31v5H42.84v-5Zm16.31,5v-5h8.88v5Zm-3,0H56.12v-5H66.37ZM56.12,83.81V80.88c3.26,0,6.73,0,10.25-.12v3ZM74.77,64.28v4.53H73.28V64.28Zm-5-1.38H62.36V59.12c2.46-.06,5-.18,7.37-.41ZM39.48,58.71c2.6.24,5.29.36,7.91.42V62.9H39.48Zm-3.55,5.57v4.53H34.44V64.28ZM30.93,80c2.89.33,5.89.55,8.88.68v3.16H30.93Zm-4.87,5.22h1.32v5H26.06Zm57.09,0v5H81.83v-5Zm-4.87-1.38H69.4V80.65c3-.13,6-.35,8.88-.68Z"/><path d="M197.33,13.07a18.62,18.62,0,0,0,9,6.26,5.35,5.35,0,0,0-.9,1.59c-.15.38-.21.55-.38.55a2.07,2.07,0,0,1-.5-.19,25.17,25.17,0,0,1-2.88-1.49v1.53c0,.21,0,.23-.21.23s-.8,0-2.73,0h-1.49v2.35h2.39c2,0,2.73,0,2.86,0s.25,0,.25.23v1.6c0,.21,0,.23-.25.23s-.82-.05-2.86-.05h-2.39V28.4h5c1.91,0,2.58,0,2.7,0s.24,0,.24.23v1.64c0,.21,0,.23-.24.23s-.79,0-2.7,0h-12c-1.93,0-2.61,0-2.73,0s-.23,0-.23-.23V28.58c0-.2,0-.23.23-.23s.8,0,2.73,0H195V25.83h-2.12c-2,0-2.73.05-2.85.05s-.23,0-.23-.23v-1.6c0-.21,0-.23.23-.23s.82,0,2.85,0H195V21.51h-1.34c-1.93,0-2.58,0-2.71,0s-.23,0-.23-.23V20a26.41,26.41,0,0,1-2.56,1.44,1.62,1.62,0,0,1-.53.19c-.14,0-.23-.14-.4-.52a4.33,4.33,0,0,0-1-1.39c3.92-1.78,6.34-3.71,8.12-6.34a6.53,6.53,0,0,0,.8-1.51,15.14,15.14,0,0,1,2.21.44c.27.06.37.17.37.32s-.06.21-.21.31Zm1.39,6.47c1.45,0,2.16,0,2.5,0a18.21,18.21,0,0,1-5-4.72,19.68,19.68,0,0,1-4.83,4.72c.38,0,1.07,0,2.29,0Z"/><path d="M220.52,18.55c-2.06,0-2.75,0-2.88,0s-.23,0-.23-.23V16.74c0-.23,0-.23.23-.23s.82,0,2.88,0h2.12V15.17a22.15,22.15,0,0,0-.15-3,17.66,17.66,0,0,1,2.21.17c.21,0,.33.1.33.2a1.18,1.18,0,0,1-.14.45,6.9,6.9,0,0,0-.13,2.12v1.4h3c2,0,2.75,0,2.9,0s.21,0,.21.23v1.62c0,.21,0,.23-.21.23s-.86,0-2.9,0h-2.18a21.36,21.36,0,0,0,5.83,7.18,5.21,5.21,0,0,0-1,1.41c-.15.29-.23.44-.34.44s-.23-.13-.44-.34a20.59,20.59,0,0,1-4.89-7c0,1.89,0,3.76,0,5.39h.48c1.64,0,2.16,0,2.29,0s.23,0,.23.23V27.3c0,.24,0,.26-.23.26s-.65,0-2.29,0h-.46c0,2,.06,3.38.06,3.59s0,.24-.23.24h-1.8c-.23,0-.26,0-.26-.24s.05-1.61.09-3.59h-.38c-1.64,0-2.16,0-2.29,0s-.23,0-.23-.26V25.77c0-.21,0-.23.23-.23s.65,0,2.29,0h.4c0-1.63.06-3.5.06-5.37a19.67,19.67,0,0,1-4.78,7c-.21.19-.34.32-.45.32s-.18-.13-.33-.4a6.49,6.49,0,0,0-.95-1.24v2c0,2.06.05,3.09.05,3.19s0,.24-.24.24h-1.78c-.19,0-.21,0-.21-.24s0-1.13,0-3.19V23.15c0-.7,0-1.54,0-2.38-.4.53-.79,1.05-1.21,1.54-.15.16-.28.27-.38.27s-.17-.13-.23-.38a5.88,5.88,0,0,0-.72-1.8,18.6,18.6,0,0,0,4-6.83,7.46,7.46,0,0,0,.32-1.49,15.16,15.16,0,0,1,2,.65c.23.11.34.17.34.32s-.06.23-.23.38a1.92,1.92,0,0,0-.42.84,30.55,30.55,0,0,1-1.37,3.06v8.5a19.3,19.3,0,0,0,5.5-7.28Z"/><path d="M247.19,17.08c-2.56.48-4.81.92-7.06,1.38-.79.19-1,.24-1.32.34a1.28,1.28,0,0,1-.46.17.49.49,0,0,1-.4-.32,15.54,15.54,0,0,1-.78-2.26,31.39,31.39,0,0,0,3.34-.36c2.58-.38,7.2-1.07,12.62-1.79.32,0,.42.09.44.24a11.27,11.27,0,0,1,.23,1.84c0,.26-.12.32-.4.32a9.42,9.42,0,0,0-2.56.46c-3.57,1.22-5.35,3.67-5.35,6.19,0,2.71,1.93,4.18,5.58,4.41.34,0,.46.09.46.32a7.28,7.28,0,0,1-.23,1.8c-.06.32-.14.44-.4.44-3.69,0-7.74-2.12-7.74-6.48,0-3,1.49-5,4-6.66Zm4.16,2.27c.1-.09.18-.07.31,0a9.68,9.68,0,0,1,2,2.24.22.22,0,0,1-.07.34l-.88.65c-.15.11-.25.09-.36-.06a10.3,10.3,0,0,0-2.12-2.44ZM253.21,18c.13-.08.19-.06.32,0a8.63,8.63,0,0,1,2,2.17.23.23,0,0,1-.06.37l-.84.65c-.17.13-.27.07-.36-.06a9.57,9.57,0,0,0-2.1-2.41Z"/><path d="M275.33,19.14a6.91,6.91,0,0,0,0-1.43,9.06,9.06,0,0,1,2.43.9.4.4,0,0,1,.15.57,3.53,3.53,0,0,0-.34.82c-.16.88-.37,1.8-.58,2.71a23.74,23.74,0,0,1,3.27,2c.21.13.19.23.13.44a16.08,16.08,0,0,1-.91,1.81q-.09.15-.18.15A.44.44,0,0,1,279,27a16.86,16.86,0,0,0-2.75-2A12.88,12.88,0,0,1,272,30.52c-.19.14-.29.23-.42.23a.53.53,0,0,1-.31-.15,4.42,4.42,0,0,0-1.83-.86,11.58,11.58,0,0,0,4.7-5.69A14,14,0,0,0,270,22.77a14.71,14.71,0,0,1-2.57,4.2,3.41,3.41,0,0,1-2.68,1.15c-1.22,0-2.5-.84-2.5-2.87,0-2.61,2.69-4.64,6.19-4.64.7-1.75,1.22-3.22,1.74-5l-2.89.34a4.09,4.09,0,0,0-.95.23,1.12,1.12,0,0,1-.38.08.33.33,0,0,1-.33-.23,12.64,12.64,0,0,1-.61-2.29,7.69,7.69,0,0,0,1.85.13,24.5,24.5,0,0,0,3.25-.27,2.44,2.44,0,0,0,1-.36.48.48,0,0,1,.27-.09.53.53,0,0,1,.3.09,7,7,0,0,1,1.43,1.15.52.52,0,0,1,.18.36c0,.13-.08.23-.21.36a2.9,2.9,0,0,0-.56,1.09c-.55,1.43-1.14,3.06-1.77,4.57a17.35,17.35,0,0,1,4.08,1.06A22.13,22.13,0,0,0,275.33,19.14ZM264.24,25c0,.68.23,1,.74,1a1.67,1.67,0,0,0,1.21-.8,14.27,14.27,0,0,0,1.54-2.56C265.59,22.69,264.24,23.8,264.24,25Z"/><path d="M293.26,20.88a6.37,6.37,0,0,1,3.34-.95,4.88,4.88,0,0,1,5.21,5c0,3.51-2.84,5.76-7.33,5.76-2.64,0-4.24-1.14-4.24-3.09a2.78,2.78,0,0,1,3-2.56,3.83,3.83,0,0,1,3.95,3.06A3.15,3.15,0,0,0,299.29,25a3.06,3.06,0,0,0-3.3-3.17A8.54,8.54,0,0,0,290.62,24c-.61.54-1.2,1.15-1.83,1.78-.15.15-.25.23-.36.23s-.18-.06-.31-.19a9.35,9.35,0,0,1-1.24-1.36c-.13-.17-.06-.32.11-.48a52.87,52.87,0,0,0,5-4.64c1.3-1.35,2.29-2.4,3.26-3.59-1.26.23-2.75.52-4.06.79a7.42,7.42,0,0,0-.88.26,1.51,1.51,0,0,1-.42.1c-.21,0-.35-.1-.46-.36a10,10,0,0,1-.73-2.26,10.59,10.59,0,0,0,1.95,0c1.28-.13,3.13-.4,4.76-.71a6.17,6.17,0,0,0,1.16-.32,1.08,1.08,0,0,1,.4-.17.78.78,0,0,1,.48.17,8,8,0,0,1,1.41,1.34.73.73,0,0,1,.23.51.55.55,0,0,1-.36.5,3.53,3.53,0,0,0-.92.67c-1.54,1.49-2.94,3-4.54,4.5Zm0,6c-.6,0-1,.36-1,.8,0,.65.56,1.09,1.82,1.09a4.88,4.88,0,0,0,1-.08C294.8,27.51,294.17,26.86,293.28,26.86Z"/></g></g></svg>