<svg xmlns="http://www.w3.org/2000/svg" viewBox="0 0 402.07 126.64"><defs><style>.cls-1,.cls-2,.cls-3{fill:#fff;stroke:#000;stroke-miterlimit:10;}.cls-1{stroke-width:4.21px;}.cls-2{stroke-width:4.3px;}.cls-3{stroke-width:4.3px;}.cls-4{fill:#040000;}</style></defs><title>アセット 198</title><g id="レイヤー_2" data-name="レイヤー 2"><g id="レイヤー_1-2" data-name="レイヤー 1"><polygon class="cls-1" points="399.92 40.55 41.62 40.55 60.35 2.11 399.92 2.11 399.92 40.55"/><rect class="cls-2" x="53.07" y="40.54" width="346.85" height="69.43"/><circle class="cls-3" cx="54.61" cy="72.03" r="52.46"/><path d="M209,79c0,.48-.48.55-1.57.55-1.43,0-1.8-.1-1.8-.44v-.07c0-.55,0-1.26,0-2-.47,0-1.32,0-2,0s-1.63,0-2.1.07c0,1.46,0,2.78.07,3.67,0,.58-.11.58-1.77.58-1.4,0-1.77,0-1.77-.45v-.17c.24-3.12.31-8.87.31-11.11V67.8c0-2,0-3.81-.17-5.92,0-.1,0-.2,0-.27s.07-.17.31-.17h.2c1.36.1,3.23.17,5,.17s2.62-.07,4.83-.17h.1c.24,0,.34.1.34.34v.1c-.13,1.67-.17,3.26-.17,4.83,0,6.59.07,9.72.21,12.1Zm15.77-18.15c-.24,2.69-.27,7.51-.27,10.85,0,1.66,0,9.24.27,13.7,0,.2,0,.44,0,.68,0,1.8-.72,4-5.82,4-.2,0-.41-.17-.51-.51-.2-.78-1.53-2.1-2.31-3.09a.42.42,0,0,1-.1-.24s0-.1.17-.1a1.39,1.39,0,0,0,.17,0,18.29,18.29,0,0,0,3.09.41c1.16,0,1.77-.37,1.77-1.39,0-2.28,0-4.83,0-6.9-1,0-2.75-.07-3.5-.07s-2.48,0-3.36.07c-1.26,4.79-4.36,9.45-11.6,11.83a.67.67,0,0,1-.27.07.42.42,0,0,1-.3-.14,13.2,13.2,0,0,0-3.13-2.28c-.24-.13-.34-.24-.34-.3s.17-.11.34-.14C209.51,85.92,212,78.4,212,71.4c0-8-.07-8.74-.34-10.54a1.2,1.2,0,0,1,0-.31c0-.13.07-.17.3-.17h.24c2.08.11,4.15.17,6,.21s3.84-.07,6.15-.21h.11c.23,0,.3.11.3.34ZM205.7,64.19s-.92-.07-2.08-.07l-2.1.07s0,1.6,0,3.47l2.14,0,2.11,0C205.7,66,205.7,64.19,205.7,64.19Zm-4.22,10.17,2.14,0,2.08,0c0-1.64,0-2.93,0-4-.51,0-1.39-.07-2.11-.07s-1.66,0-2.14.07Zm19.82-3.57c-.91,0-2.41-.07-3.16-.07l-2.89,0v.89a35.59,35.59,0,0,1-.27,3.74c1,0,2.21,0,2.79,0s2.51,0,3.53-.07Zm0-7.48s-1.94,0-3.13,0-2.85,0-2.85,0c0,.71.06,1.56.06,2.51,0,.65,0,1.36,0,2.08,1,0,2.24,0,2.82,0s2.21,0,3.13-.07Z"/><path d="M259.35,74.56a.82.82,0,0,1-.3-.07c-1.87-.64-5-1.39-5.48-1.53-.24-.07-.37-.07-.37-.3a8.3,8.3,0,0,1,.68-2.35c0-.1.07-.24.44-.24a31.45,31.45,0,0,1,5.75,1c.2.07.3.17.3.37a17,17,0,0,1-.64,2.86A.38.38,0,0,1,259.35,74.56Zm1.39,3.84c.07,0,.14.07.21.17a13.38,13.38,0,0,0,1.63,2,.27.27,0,0,1,.14.24,1,1,0,0,1-.07.24c-1.46,2.68-3.16,5-3.91,6.15-.61,1-.65,1.7-1.19,1.7s-3.77-1.43-3.77-2.11a.39.39,0,0,1,.13-.23,45.55,45.55,0,0,0,6.7-8.06C260.64,78.44,260.71,78.4,260.74,78.4Zm.31-11.69a54.29,54.29,0,0,0-4.79-3c-.17-.1-.27-.17-.27-.34s1.15-2.24,1.63-2.24,5.57,2.31,5.57,3a.55.55,0,0,1-.07.24c-.4,1-1.39,2.48-1.69,2.48A.64.64,0,0,1,261.05,66.71Zm8.53-5.78c0-.1,0-.17,0-.24s.07-.2.27-.2c.61,0,4.56.88,4.56,1.66,0,.24-.31.51-.65.85a2.94,2.94,0,0,0-.68,1.12c-.61,1.53-1.7,4.18-2.82,6.56,2.55-.2,5.2-.47,7.34-.71a31.26,31.26,0,0,0-2.48-2.34.45.45,0,0,1-.1-.24.49.49,0,0,1,.17-.31A5.71,5.71,0,0,1,277,65.82a.58.58,0,0,1,.31.11c4.35,2.89,6.79,6,6.79,6.35a.66.66,0,0,1-.23.41,19.58,19.58,0,0,1-2.45,1.8.69.69,0,0,1-.24.07c-.13,0-.24-.1-.37-.3-.41-.69-.85-1.37-1.29-2-4.36.68-14.22,2.11-14.76,2.24s-.78.41-1.09.41c-.61,0-2-3.19-2-3.5s.1-.17.27-.17c1.23,0,3-.07,4.87-.24,1.32-3.6,2.71-8.23,2.71-10Zm6.94,27.74c0-.41,0-.85,0-1.26-.88,0-2.89-.13-3.91-.13s-3.09.1-3.94.13l.07,1.33v.13c0,.48-.21.55-1.87.55-1.4,0-1.8-.07-1.8-.58v-.17c.27-2.35.34-5.41.34-6.49v-.79c0-1.66-.11-3-.21-4.42,0-.13,0-.2,0-.27s0-.17.24-.17.17,0,.3,0c1.57.1,4.49.2,6.8.2s4.66-.14,7.07-.24h.11c.27,0,.37.14.37.34V77c-.2,2.35-.24,4.29-.24,5.41s.07,3.64.27,6.05c0,.1,0,.2,0,.31,0,.4-.24.54-2.11.54-1.26,0-1.53-.14-1.53-.54Zm-7.89-4c.89,0,3,.07,3.95.07s3.23-.07,4.08-.07c0-1.26,0-2.28,0-2.69,0-.92-.1-2.62-.1-2.62s-2.52-.1-4-.1-3.85.1-3.85.1-.1,1.5-.1,2.72Z"/><path class="cls-4" d="M79,55.39c-2.13.58-4.14,1.11-6,6.83A67.65,67.65,0,0,1,60.92,53.7l1.59-6.18c-3.71-1.11-5.41-3.77-6.73-7.45a3.14,3.14,0,0,0-.25-5.92l.11-1.46c.94-.12,1.26-.44,1.26-.8S56.58,31,54.61,31s-2.3.39-2.3.87.32.68,1.26.8l.11,1.46a3.14,3.14,0,0,0-.25,5.92c-1.32,3.68-3,6.34-6.73,7.45l1.59,6.18a67.65,67.65,0,0,1-12.08,8.52c-1.87-5.72-3.87-6.25-6-6.83a.64.64,0,0,0-.71,1c1.11,1.75,3,5.89,4.86,14.18S41.1,99.58,41.1,99.58h0c.55,1.94,4.43,3.53,9.61,4.08v20.21H58.5V103.66c5.18-.55,9.06-2.14,9.61-4.08h0S73,78.81,74.86,70.52s3.75-12.43,4.86-14.18A.64.64,0,0,0,79,55.39ZM54.61,95H52.18L50.4,70.18h8.41L57,95Zm-8-24.86L48.39,95H44c-1.29-5.61-4-17.6-5.76-24.86ZM60.82,95,62.6,70.18H71C69.26,77.44,66.49,89.43,65.2,95Z"/><path d="M194.5,13.35a18.51,18.51,0,0,0,9,6.26,5.5,5.5,0,0,0-.91,1.59c-.14.38-.21.55-.38.55a1.81,1.81,0,0,1-.5-.19,23.53,23.53,0,0,1-2.87-1.49V21.6c0,.21,0,.23-.21.23s-.8,0-2.73,0h-1.5v2.35h2.4c2,0,2.73,0,2.85,0s.26,0,.26.23v1.6c0,.21,0,.23-.26.23s-.81,0-2.85,0h-2.4v2.56h5c1.91,0,2.58,0,2.71,0s.23,0,.23.23v1.64c0,.21,0,.23-.23.23s-.8,0-2.71,0h-12c-1.93,0-2.6,0-2.73,0s-.23,0-.23-.23V28.87c0-.21,0-.23.23-.23s.8,0,2.73,0h4.75V26.12H190c-2,0-2.73,0-2.86,0s-.23,0-.23-.23v-1.6c0-.21,0-.23.23-.23s.82,0,2.86,0h2.12V21.79H190.8c-1.93,0-2.58,0-2.7,0s-.23,0-.23-.23V20.24a25.5,25.5,0,0,1-2.57,1.45,2,2,0,0,1-.52.19c-.15,0-.23-.15-.4-.53a4.19,4.19,0,0,0-1-1.38c3.93-1.79,6.34-3.72,8.13-6.35a6.53,6.53,0,0,0,.8-1.51,15.26,15.26,0,0,1,2.2.44c.27.07.38.17.38.32s-.06.21-.21.31Zm1.39,6.47c1.44,0,2.16,0,2.49,0a18.52,18.52,0,0,1-5-4.73,19.86,19.86,0,0,1-4.82,4.73c.37,0,1.07,0,2.28,0Z"/><path d="M217.68,18.83c-2.05,0-2.75,0-2.87,0s-.23,0-.23-.23V17c0-.24,0-.24.23-.24s.82,0,2.87,0h2.12V15.45a24.34,24.34,0,0,0-.14-3,17.5,17.5,0,0,1,2.2.17c.21,0,.34.1.34.21a1.21,1.21,0,0,1-.15.44,7.52,7.52,0,0,0-.12,2.12v1.41h3c2,0,2.75,0,2.89,0s.21,0,.21.24v1.61c0,.21,0,.23-.21.23s-.86,0-2.89,0h-2.19A21.3,21.3,0,0,0,228.56,26a5.41,5.41,0,0,0-1,1.41c-.15.29-.23.44-.33.44s-.24-.13-.45-.34a20.87,20.87,0,0,1-4.89-7c0,1.89,0,3.76,0,5.39h.49c1.64,0,2.16,0,2.29,0s.23,0,.23.23v1.54c0,.23,0,.25-.23.25s-.65,0-2.29,0h-.46c0,2,.06,3.38.06,3.59s0,.23-.23.23H220c-.23,0-.25,0-.25-.23s0-1.62.08-3.59h-.37c-1.64,0-2.17,0-2.29,0s-.23,0-.23-.25V26.05c0-.21,0-.23.23-.23s.65,0,2.29,0h.39c0-1.63.07-3.5.07-5.37a19.69,19.69,0,0,1-4.79,7c-.21.19-.34.32-.44.32s-.19-.13-.34-.4a7.17,7.17,0,0,0-.94-1.24v2c0,2.05,0,3.08,0,3.19s0,.23-.23.23h-1.78c-.19,0-.21,0-.21-.23s0-1.14,0-3.19V23.43c0-.69,0-1.53,0-2.37-.4.52-.8,1.05-1.22,1.53-.15.17-.27.27-.38.27s-.17-.12-.23-.38a6.14,6.14,0,0,0-.71-1.8,18.66,18.66,0,0,0,4-6.83,7.44,7.44,0,0,0,.31-1.49,14.87,14.87,0,0,1,2,.65c.23.11.33.17.33.32s-.06.23-.23.38a2,2,0,0,0-.42.84,28.56,28.56,0,0,1-1.36,3.06v8.51a19.52,19.52,0,0,0,5.5-7.29Z"/><path d="M244.35,17.36c-2.56.48-4.8.93-7,1.39-.8.19-1,.23-1.32.33a1.16,1.16,0,0,1-.47.17.48.48,0,0,1-.39-.31,13.94,13.94,0,0,1-.78-2.27,29,29,0,0,0,3.34-.36c2.58-.38,7.2-1.07,12.62-1.78.31,0,.42.08.44.23a12.46,12.46,0,0,1,.23,1.85c0,.25-.13.31-.4.31a9.35,9.35,0,0,0-2.56.46c-3.57,1.22-5.36,3.68-5.36,6.2,0,2.7,1.93,4.18,5.59,4.41.33,0,.46.08.46.31a7.36,7.36,0,0,1-.23,1.81c-.06.31-.15.44-.4.44-3.7,0-7.75-2.12-7.75-6.49,0-3,1.49-5,4-6.66Zm4.16,2.27c.11-.08.19-.06.32,0a9.72,9.72,0,0,1,2,2.25.21.21,0,0,1-.06.33l-.88.65a.22.22,0,0,1-.36-.06,10.44,10.44,0,0,0-2.12-2.43Zm1.87-1.37c.13-.08.19-.06.31,0a8.47,8.47,0,0,1,2,2.16.25.25,0,0,1-.06.38l-.84.65a.22.22,0,0,1-.36-.07,10,10,0,0,0-2.1-2.41Z"/><path d="M272.49,19.42a5.76,5.76,0,0,0,0-1.43,9.29,9.29,0,0,1,2.44.9.39.39,0,0,1,.14.57,3.7,3.7,0,0,0-.33.82c-.17.88-.38,1.81-.59,2.71a25.35,25.35,0,0,1,3.28,2c.21.13.19.24.12.44a18,18,0,0,1-.9,1.81c-.06.11-.13.15-.19.15a.38.38,0,0,1-.25-.15,17,17,0,0,0-2.75-2,13,13,0,0,1-4.24,5.52c-.19.15-.3.23-.42.23a.55.55,0,0,1-.32-.15,4.32,4.32,0,0,0-1.82-.86,11.59,11.59,0,0,0,4.7-5.69,14.19,14.19,0,0,0-4.16-1.28,14.51,14.51,0,0,1-2.56,4.2,3.46,3.46,0,0,1-2.69,1.16c-1.22,0-2.5-.84-2.5-2.88,0-2.6,2.69-4.64,6.2-4.64.69-1.74,1.22-3.21,1.74-5l-2.9.34a4,4,0,0,0-.94.23,1.17,1.17,0,0,1-.38.08.35.35,0,0,1-.34-.23A12.64,12.64,0,0,1,262.2,14a7.69,7.69,0,0,0,1.85.13,23.18,23.18,0,0,0,3.26-.27,2.55,2.55,0,0,0,1-.36.47.47,0,0,1,.27-.08.49.49,0,0,1,.29.08,6.74,6.74,0,0,1,1.43,1.15.51.51,0,0,1,.19.36c0,.13-.08.23-.21.36a2.78,2.78,0,0,0-.57,1.09c-.54,1.43-1.13,3.07-1.76,4.58a17.35,17.35,0,0,1,4.07,1.05A20.36,20.36,0,0,0,272.49,19.42Zm-11.08,5.86c0,.67.23,1,.73,1a1.69,1.69,0,0,0,1.22-.8,13.62,13.62,0,0,0,1.53-2.56C262.75,23,261.41,24.08,261.41,25.28Z"/><path d="M290.43,21.16a6.31,6.31,0,0,1,3.34-.94,4.87,4.87,0,0,1,5.2,5c0,3.5-2.83,5.75-7.32,5.75-2.65,0-4.24-1.13-4.24-3.09a2.79,2.79,0,0,1,3-2.56,3.81,3.81,0,0,1,3.94,3.07,3.16,3.16,0,0,0,2.14-3.19,3.06,3.06,0,0,0-3.29-3.18,8.56,8.56,0,0,0-5.38,2.23c-.61.55-1.19,1.15-1.82,1.79-.15.14-.26.23-.36.23a.54.54,0,0,1-.31-.19,8.83,8.83,0,0,1-1.24-1.37c-.13-.17-.07-.31.1-.48a50.43,50.43,0,0,0,5-4.64c1.3-1.34,2.29-2.39,3.25-3.59-1.26.23-2.75.52-4.05.8a5.46,5.46,0,0,0-.88.25,1.7,1.7,0,0,1-.42.1.47.47,0,0,1-.46-.35,9.5,9.5,0,0,1-.74-2.27,10.59,10.59,0,0,0,1.95,0c1.28-.12,3.13-.4,4.77-.71a5.53,5.53,0,0,0,1.15-.32,1.23,1.23,0,0,1,.4-.17.81.81,0,0,1,.49.17,7.93,7.93,0,0,1,1.4,1.35.69.69,0,0,1,.23.5.54.54,0,0,1-.35.5,3.4,3.4,0,0,0-.93.68c-1.53,1.49-2.94,3-4.53,4.49Zm0,6c-.61,0-1,.35-1,.79,0,.65.57,1.1,1.83,1.1a4.68,4.68,0,0,0,1-.09C292,27.8,291.33,27.15,290.45,27.15Z"/></g></g></svg>