<svg xmlns="http://www.w3.org/2000/svg" viewBox="0 0 402.07 109.21"><defs><style>.cls-1,.cls-2{fill:#fff;stroke:#000;stroke-miterlimit:10;}.cls-1{stroke-width:4.3px;}.cls-2{stroke-width:4.3px;}</style></defs><title>アセット 39</title><g id="レイヤー_2" data-name="レイヤー 2"><g id="レイヤー_1-2" data-name="レイヤー 1"><rect class="cls-1" x="53.07" y="23.12" width="346.85" height="69.43"/><circle class="cls-2" cx="54.61" cy="54.61" r="52.46"/><path d="M85,50.86A13.7,13.7,0,0,0,68.25,37.5,13.7,13.7,0,0,0,41,37.5a13.7,13.7,0,0,0-8.43,26,13.7,13.7,0,0,0,22.08,16,13.7,13.7,0,0,0,22.07-16A13.69,13.69,0,0,0,85,50.86Zm-19.63,7.5a2.39,2.39,0,0,1-2.18-1.42H56.9l4.44,4.43A2.37,2.37,0,1,1,60,62.71l-4.43-4.43v6.27a2.38,2.38,0,1,1-1.9,0V58.28l-4.44,4.43a2.38,2.38,0,1,1-1.34-1.34l4.43-4.43H46A2.38,2.38,0,1,1,46,55h6.27L47.88,50.6a2.37,2.37,0,1,1,1.34-1.34l4.44,4.44V47.42a2.37,2.37,0,1,1,1.9,0V53.7L60,49.26a2.38,2.38,0,1,1,1.35,1.34L56.9,55h6.27a2.37,2.37,0,1,1,2.18,3.32Z"/></g></g></svg>