<svg xmlns="http://www.w3.org/2000/svg" viewBox="0 0 402.07 109.21"><defs><style>.cls-1,.cls-2{fill:#fff;stroke:#000;stroke-miterlimit:10;}.cls-1{stroke-width:4.3px;}.cls-2{stroke-width:4.3px;}</style></defs><title>アセット 41</title><g id="レイヤー_2" data-name="レイヤー 2"><g id="レイヤー_1-2" data-name="レイヤー 1"><rect class="cls-1" x="53.07" y="23.12" width="346.85" height="69.43"/><circle class="cls-2" cx="54.61" cy="54.61" r="52.46"/><path d="M70.13,72.86l-.34,0a6.49,6.49,0,0,0-1.45.21l-.32.06h0c1.21,1.65,2.1,3.55,1.71,5.37a4.81,4.81,0,0,1-3.33,3.86,7.77,7.77,0,0,1-2,.39h-.1a15.64,15.64,0,0,1-4.67-.55l-.37-.1-.86-.26c-.5-.17-1-.34-1.51-.55.31-.18.59-.37.89-.56l.12-.08c.62-.39,1.2-.8,1.76-1.22l.08-.06c.27-.22.57-.42.82-.64A17.37,17.37,0,0,0,63.82,75c.16-.24.33-.47.47-.72h0s0,0,0,0c-1,.31-2.06.62-3.2.88h0a15.83,15.83,0,0,1-2,2,25.11,25.11,0,0,1-4.71,3.1,24.18,24.18,0,0,1-4.73-3.1A15.58,15.58,0,0,1,47.62,75c-.83-.2-1.6-.43-2.34-.65l-.84-.27v0h0a17,17,0,0,0,3.88,4.63,23.23,23.23,0,0,0,3,2.19l.62.39a18.22,18.22,0,0,1-7.4,1.44h-.11a7.7,7.7,0,0,1-2-.39,2.39,2.39,0,0,1-.37-.15,5.12,5.12,0,0,1-.53-.25,4,4,0,0,1-.59-.38,3.07,3.07,0,0,1-.47-.41,4.07,4.07,0,0,1-.43-.49,4.59,4.59,0,0,1-.33-.52,5.29,5.29,0,0,1-.32-.68,5.22,5.22,0,0,1-.18-.56c0-.14-.08-.28-.11-.42a6.47,6.47,0,0,1,1.28-4.77c.15-.22.3-.44.48-.67h0v0a6.62,6.62,0,0,0-1.41-.19l-.34,0a4.69,4.69,0,0,0-.78.15A8.17,8.17,0,0,0,37,78.92a7,7,0,0,0,4.73,5.45,10.77,10.77,0,0,0,3.43.51,23.08,23.08,0,0,0,9.24-2.3,23,23,0,0,0,9.24,2.3,10.75,10.75,0,0,0,3.42-.51,7,7,0,0,0,4.73-5.45,8.21,8.21,0,0,0-1.39-6Z"/><path d="M72.07,67.12l-1-1.57L70,64a83.72,83.72,0,0,1-9.23,1.16l-2.53.12a12.93,12.93,0,0,0,6.57-4.81.64.64,0,0,0,.1-.13c.23-.3.46-.62.67-.94L66,58.8l0,0c.26-.4.52-.81.77-1.26l1.42-.16c.13-.26.29-.53.47-.82s.35-.53.56-.81a1,1,0,0,0,.12-.15l0,0a8.55,8.55,0,0,1,.82-.9c.18-.18.37-.35.57-.52a11.35,11.35,0,0,1,4.35-2.26,18.31,18.31,0,0,0-3-6.6c2.27-5.66,5.9-14.54,7.31-16.17l1.43-1.66.4-.45h0l0,0L78.7,25.76a14.51,14.51,0,0,0-6-1.43,8.17,8.17,0,0,0-6,2.24,2.15,2.15,0,0,0-.35.5h0A6,6,0,0,0,60.45,31l-.71,1.57,1.39,1a6.88,6.88,0,0,1,2.71,4.49c0,.07,0,.15,0,.23h0c0,.21,0,.41,0,.61A18.39,18.39,0,0,1,55.34,30a.8.8,0,0,0-1.47,0,17.89,17.89,0,0,1-6.58,7.7l-.21.15c-.12.08-.27.15-.4.23-.45.27-.89.55-1.39.8a6.9,6.9,0,0,1,2.79-5.34l1.41-1L48.76,31a6,6,0,0,0-5.89-3.9h0a3,3,0,0,0-.35-.5,8.21,8.21,0,0,0-6-2.24,14.59,14.59,0,0,0-6,1.43l-2,.92-.55.25h0l1.84,2.14c1.41,1.63,5.06,10.53,7.32,16.18a18.16,18.16,0,0,0-3,6.54v0h0v0a11.26,11.26,0,0,1,4.33,2.26c.2.17.39.34.57.52a7.59,7.59,0,0,1,.82.9l0,0,.12.15c.21.28.4.55.56.81a8.9,8.9,0,0,1,.47.82l1.45.15a19.77,19.77,0,0,0,3.93,5.14h0c.32.29.65.56,1,.82l.32.22c.25.17.5.34.76.5s.62.33.93.48l.24.12a11.79,11.79,0,0,0,1.33.51A82.48,82.48,0,0,1,39.23,64l-1,1.57-1.06,1.58c-.81,1.21-1.72,2.53-2.69,3.91-.45.62-.89,1.24-1.34,1.85l0,0,0,0c.69-.28,1.31-.57,1.87-.85a11.64,11.64,0,0,1,3.84-1.32c.21,0,.4,0,.61,0l.53,0a13.65,13.65,0,0,1,2.41.5c.3.09.59.17.91.28l1.05.33c.5.16,1,.33,1.56.48a31.15,31.15,0,0,0,7.21,1.4l.45,0c.35,0,.69.05,1,.05s.74,0,1.12-.05h.21a29.52,29.52,0,0,0,6.89-1.26c.72-.21,1.4-.43,2-.63q.28-.11.57-.18l1-.33a14.28,14.28,0,0,1,2.36-.54,5,5,0,0,1,.93-.08l.59,0a11.54,11.54,0,0,1,3.85,1.32c.42.2.88.42,1.36.62l.51.24,0,0,0,0C74.61,70.85,73.25,68.87,72.07,67.12ZM55.18,33.89l.47,19.31,0,1.06c.4,0,.81,0,1.2,0H57l-.65.91c-1.18,0-2.34,0-3.52,0-.17-.24-.37-.51-.56-.8a.83.83,0,0,1-.08-.12h.15c.39,0,.79,0,1.18,0l0-1.06L54,33.89a.57.57,0,0,1,1.14,0ZM31.41,27.7a12.1,12.1,0,0,1,5.12-1.25A6,6,0,0,1,40.93,28a.23.23,0,0,1,0,.32c-.32.4-.74,1.72-.22,2a.68.68,0,0,0,.28.07,1.5,1.5,0,0,0,1.2-1.16l.68,0a3.87,3.87,0,0,1,4,2.65A9,9,0,0,0,43.24,40a5.45,5.45,0,0,0,.28,1.19,74.84,74.84,0,0,0,5.59,12.18c.21.36.42.7.62,1h0c.16.27.32.51.48.75l.19.28c.31.45.6.85.88,1.22a15.54,15.54,0,0,0,1.34,1.51,3.32,3.32,0,0,0,2,1.18,3.3,3.3,0,0,0,2-1.18,13.28,13.28,0,0,0,1.33-1.51c.29-.37.59-.77.88-1.22a2.43,2.43,0,0,0,.2-.28c.16-.24.32-.48.48-.75h0c.21-.33.42-.66.62-1A74,74,0,0,0,65.7,41.18,6.1,6.1,0,0,0,66,40a9,9,0,0,0-3.59-8.14,3.88,3.88,0,0,1,4-2.65l.65,0h0a1.52,1.52,0,0,0,1.22,1.16.63.63,0,0,0,.26-.07c.52-.27.11-1.59-.21-2a.22.22,0,0,1,0-.32,6.06,6.06,0,0,1,4.41-1.56,12.1,12.1,0,0,1,4.71,1.08l.41.17c-1.56,1.83-4.81,9.61-7.26,15.72-1.45,3.64-2.63,6.68-3,7.52-.45,1-.9,2-1.39,3-.09.22-.2.44-.3.67a2.59,2.59,0,0,0-.17.33h0c-.17.34-.34.68-.52,1l-.11.19c-.29.54-.6,1.06-.93,1.57-2.13,3.38-5,5.91-9.51,5.91s-7.39-2.53-9.52-5.91c-.33-.51-.64-1-.93-1.57l-.1-.19c-.18-.33-.35-.67-.52-1h0l-.17-.33c-.11-.23-.22-.45-.31-.67-.49-1-.94-2-1.38-3-.37-.84-1.54-3.88-3-7.51-2.32-5.79-5.36-13.08-7-15.38A2.89,2.89,0,0,0,31.41,27.7Z"/><path d="M36,65.08c.35-.54.69-1,1-1.54,1.31-2,2.23-3.48,2.65-4.14A7.44,7.44,0,0,0,38.35,57l0-.06a7.68,7.68,0,0,0-.84-.9l0,0-.11-.11a6.93,6.93,0,0,0-.93-.72L36.2,55a9.73,9.73,0,0,0-2.49-1.1,14.11,14.11,0,0,0-4.06-.54,23.49,23.49,0,0,0-3.6.3c-3.48,5.19-7,11.17-9.21,14.87L15.76,70.4h0v0h.58a14.17,14.17,0,0,1,8,2c.29.2.58.4.86.63s.55.46.82.71.26.27.39.41a9.54,9.54,0,0,1,.86,1,11.08,11.08,0,0,1,.71,1s0,0,0,0,0,0,0-.05l.87-1.14c.32-.41.61-.81.91-1.21,1.91-2.56,3.66-5,5.14-7.23Z"/><path d="M93.43,70.42h0c-1.86-3.23-6.15-10.53-10.3-16.72a23.19,23.19,0,0,0-3.6-.3,14,14,0,0,0-4,.54A9.47,9.47,0,0,0,73,55.05l-.2.13a9,9,0,0,0-.94.73l-.11.1,0,0a11.39,11.39,0,0,0-.84.9l0,.06a8,8,0,0,0-1.27,2.4c.4.66,1.32,2.13,2.64,4.13l1,1.55c.33.5.68,1,1,1.55,1.48,2.18,3.22,4.67,5.13,7.23.3.4.6.8.92,1.21s.57.76.87,1.14l0,.05s0,0,0,0h0c.24-.36.47-.69.71-1a11.07,11.07,0,0,1,.86-1c.13-.14.26-.27.4-.4s.54-.49.82-.71a10.52,10.52,0,0,1,.86-.63,14.14,14.14,0,0,1,7.94-2h.38l.19,0Z"/></g></g></svg>