<svg xmlns="http://www.w3.org/2000/svg" viewBox="0 0 402.07 109.21"><defs><style>.cls-1,.cls-2{fill:#fff;stroke:#000;stroke-miterlimit:10;}.cls-1{stroke-width:4.3px;}.cls-2{stroke-width:4.3px;}</style></defs><title>アセット 42</title><g id="レイヤー_2" data-name="レイヤー 2"><g id="レイヤー_1-2" data-name="レイヤー 1"><rect class="cls-1" x="53.07" y="23.12" width="346.85" height="69.43"/><circle class="cls-2" cx="54.61" cy="54.61" r="52.46"/><path d="M82.47,26.7A39.35,39.35,0,0,0,54.61,15.17h-.07A39.43,39.43,0,0,0,15.17,54.6v.07A39.43,39.43,0,0,0,54.61,94h.06A39.42,39.42,0,0,0,94,54.61v-.06h0A39.28,39.28,0,0,0,82.47,26.7ZM54.58,22.37h0A32.23,32.23,0,0,1,86.84,54.55v.06A32.23,32.23,0,0,1,54.66,86.84h0A32.23,32.23,0,0,1,22.37,54.66V54.6A32.23,32.23,0,0,1,54.55,22.37h0Z"/><path d="M64.26,54.85a16.87,16.87,0,0,1,6,2.07l0,0a19.2,19.2,0,0,1-1.22-3.42A14.21,14.21,0,0,1,68.65,49l-10,5.8A20.28,20.28,0,0,1,64.26,54.85Z"/><path d="M76,66.94a36.46,36.46,0,0,0-3.27,7.31,23.88,23.88,0,0,0-.75,3,21.33,21.33,0,0,0,8-7.59A21.59,21.59,0,0,0,82.54,58.6,33.94,33.94,0,0,0,76,66.94Z"/><path d="M73.48,51.77a12.72,12.72,0,0,0-2.42-1.92,6.33,6.33,0,0,0-.7-.34,13.09,13.09,0,0,0,.4,3.6,19.17,19.17,0,0,0,1.6,4.12,24.31,24.31,0,0,0,1.57,2.56l.13.15a14.14,14.14,0,0,1,1.73,2.24l.1.11a.88.88,0,0,1,.22.44c0,.06.07.13.1.18a2,2,0,0,1,.12.26c.72-1.05,1.46-2,2.21-2.91a.43.43,0,0,1-.05-.12c-.19-.61-.5-1.51-.81-2.61A14.81,14.81,0,0,0,76.87,56,22.27,22.27,0,0,0,73.48,51.77Z"/><path d="M64,56.57a19.27,19.27,0,0,0-6.16.14A19.49,19.49,0,0,0,61,62.54a15,15,0,0,0,4.31,3.72A14.78,14.78,0,0,0,69,67.78a23.76,23.76,0,0,1,2.91.4h.57a5.31,5.31,0,0,0,.93-.12c.33-.65.68-1.31,1.06-2,.27-.46.55-.92.83-1.36l-.25,0a4.15,4.15,0,0,0-.4-1l-.29-.51a26.46,26.46,0,0,1-1.8-2.28,14.23,14.23,0,0,0-3.2-2.5A15,15,0,0,0,64,56.57Z"/><path d="M69,75.6h0a25.82,25.82,0,0,0-3.72,1.25,16.43,16.43,0,0,0-6.36,4.55c1,.31,2.13-.12,3.27-.33a36.3,36.3,0,0,0,7.95-2.81q0-.47.12-.93a20,20,0,0,1,.42-2,10,10,0,0,1-1,.2Z"/><path d="M79.31,56.92A10.51,10.51,0,0,1,80,58.67a22.65,22.65,0,0,1,2.47-2.24,36.32,36.32,0,0,0-1.54-8c-.74-2.08-.64-2.57-1.64-3.22a15.43,15.43,0,0,0-.9,5.61,24.75,24.75,0,0,0,1,6Z"/><path d="M64.16,75.43a22.9,22.9,0,0,1-3-.62,13.85,13.85,0,0,1-3.28-1.29,5.88,5.88,0,0,1-1.37-1.06V78a3.64,3.64,0,0,0,.95,2.45,16.87,16.87,0,0,1,5-4.13C63,76,63.59,75.69,64.16,75.43Z"/><path d="M64.47,67.79l-.06,0a16.7,16.7,0,0,1-4.79-4.14A20.74,20.74,0,0,1,56.45,58l0,12.62a14.21,14.21,0,0,1,4.43-2.12A19.94,19.94,0,0,1,64.47,67.79Z"/><path d="M71.93,48.35A17,17,0,0,1,76,52c.25.29.49.6.73.9a18,18,0,0,1,.88-8.18,3.76,3.76,0,0,0-2.26.47l-4.61,2.67A6.79,6.79,0,0,1,71.93,48.35Z"/><path d="M72.39,69.9a.77.77,0,0,1-.5,0l-.16,0a12.58,12.58,0,0,1-1.43-.11c-.48-.07-1-.17-1.53-.29l-1-.07a20.41,20.41,0,0,0-6.39.69,12.7,12.7,0,0,0-3.31,1.46,5.07,5.07,0,0,0,.64.43,15.49,15.49,0,0,0,4.63,1.54,21.37,21.37,0,0,0,5.32.33h0c1-.27,1.94-.45,2.56-.59a34.65,34.65,0,0,1,1.32-3.39Z"/><path d="M48.4,40.55v0a19.33,19.33,0,0,1-2.35,2.76,14.21,14.21,0,0,1-3.67,2.62l10,5.77a20.37,20.37,0,0,1-2.79-4.88A16.79,16.79,0,0,1,48.4,40.55Z"/><path d="M43.71,29.07A34,34,0,0,0,54.2,30.56a37.64,37.64,0,0,0,8-.83,24.79,24.79,0,0,0,3-.85,21.42,21.42,0,0,0-10.59-3.16A21.58,21.58,0,0,0,43.71,29.07Z"/><path d="M50.23,33a.9.9,0,0,1,.27-.41,1.74,1.74,0,0,0,.11-.18l.16-.23a36.1,36.1,0,0,1-3.62-.46.44.44,0,0,1-.08.11c-.43.47-1.07,1.18-1.86,2-.3.44-.6.93-.89,1.45a23.46,23.46,0,0,0-2,5.07,12.29,12.29,0,0,0-.44,3.05,4.65,4.65,0,0,0,0,.78A12.92,12.92,0,0,0,44.85,42a18.55,18.55,0,0,0,2.76-3.46,22.65,22.65,0,0,0,1.44-2.63l.06-.19a15.15,15.15,0,0,1,1.07-2.61C50.2,33.08,50.21,33,50.23,33Z"/><path d="M59,40.19a15.2,15.2,0,0,0-.57-4,24.1,24.1,0,0,1-1.1-2.72c-.1-.18-.2-.34-.3-.49a5.32,5.32,0,0,0-.56-.74q-1.11.06-2.25.06c-.54,0-1.07,0-1.6,0l.17.19a4.09,4.09,0,0,0-.7.87l-.29.5a24.85,24.85,0,0,1-1.09,2.7,14.91,14.91,0,0,0-.56,4,15.23,15.23,0,0,0,1.09,5.59,19.43,19.43,0,0,0,3.2,5.26,19.44,19.44,0,0,0,3.49-5.62A15.19,15.19,0,0,0,59,40.19Z"/><path d="M64.8,31.77l.42.56h0a27.23,27.23,0,0,0,3,2.6,16.41,16.41,0,0,0,7.12,3.23c-.25-1-1.17-1.78-1.92-2.67A36.18,36.18,0,0,0,67,30c-.27.13-.56.25-.86.37-.61.23-1.26.44-1.94.64A9.73,9.73,0,0,1,64.8,31.77Z"/><path d="M43.86,32.71h0a11,11,0,0,1,1.19-1.45,22.42,22.42,0,0,1-3.18-1,36.27,36.27,0,0,0-6.11,5.31c-1.44,1.68-1.91,1.84-2,3a15.24,15.24,0,0,0,5.31-2A24.09,24.09,0,0,0,43.86,32.71Z"/><path d="M73.52,42a3.71,3.71,0,0,0,1.65-2.05,16.89,16.89,0,0,1-6.07-2.26c-.57-.34-1.11-.7-1.63-1.07a24.2,24.2,0,0,1,1,2.94A14.68,14.68,0,0,1,69,43a5.91,5.91,0,0,1-.23,1.72Z"/><path d="M63.06,42.88a18.73,18.73,0,0,1-2.35-2.75v.06a17,17,0,0,1-1.19,6.22A20.7,20.7,0,0,1,56.19,52l10.92-6.33A14.35,14.35,0,0,1,63.06,42.88Z"/><path d="M41.62,37a18.12,18.12,0,0,1-7.51,3.33A3.64,3.64,0,0,0,35.64,42l4.62,2.65a7.4,7.4,0,0,1-.12-1.27A17,17,0,0,1,41.21,38C41.34,37.67,41.48,37.32,41.62,37Z"/><path d="M63.89,33.45h0c-.76-.77-1.37-1.45-1.81-1.92-1.13.23-2.33.42-3.59.55l.09.14a.94.94,0,0,1,.28.41,1.42,1.42,0,0,0,0,.16c.21.39.41.82.61,1.3A14.79,14.79,0,0,1,60,35.55c.14.29.29.59.45.89a20.44,20.44,0,0,0,3.78,5.2,13.17,13.17,0,0,0,2.93,2.13,6,6,0,0,0,0-.77,15.38,15.38,0,0,0-1-4.78A20.8,20.8,0,0,0,63.89,33.45Z"/><path d="M52.78,70.21l0-11.57a20.32,20.32,0,0,1-2.83,4.86,16.89,16.89,0,0,1-4.77,4.16l-.06,0a19.25,19.25,0,0,1,3.57.66A14.32,14.32,0,0,1,52.78,70.21Z"/><path d="M28.9,61.15A23.29,23.29,0,0,0,26.67,59a21.37,21.37,0,0,0,2.56,10.75,21.64,21.64,0,0,0,8.32,7.71,34,34,0,0,0-3.95-9.83A37.12,37.12,0,0,0,28.9,61.15Z"/><path d="M42.6,73.83A22.81,22.81,0,0,0,48,73a13.1,13.1,0,0,0,2.87-1.13,6.38,6.38,0,0,0,.64-.44A12.76,12.76,0,0,0,48.19,70a18.74,18.74,0,0,0-4.37-.66,24.35,24.35,0,0,0-3,.06l-.2,0a14.58,14.58,0,0,1-2.79.38l-.15,0a.9.9,0,0,1-.49,0H37l-.28,0q.81,1.73,1.41,3.36l.13,0c.63.14,1.56.33,2.67.61A15.51,15.51,0,0,0,42.6,73.83Z"/><path d="M35.87,68.17l.08-.24a4.21,4.21,0,0,0,1.11.16h.58a27.2,27.2,0,0,1,2.88-.41,14.67,14.67,0,0,0,3.76-1.53,15.16,15.16,0,0,0,4.3-3.73,19.27,19.27,0,0,0,3-5.41,19.45,19.45,0,0,0-6.61-.21,14.92,14.92,0,0,0-8.56,4.36,25.21,25.21,0,0,1-1.8,2.32c-.11.18-.2.34-.28.5a4.58,4.58,0,0,0-.36.86c.4.62.79,1.25,1.18,1.92C35.37,67.23,35.62,67.7,35.87,68.17Z"/><path d="M29,58.79a9.49,9.49,0,0,1,.32-.94c.09-.21.18-.43.28-.65h0a27.47,27.47,0,0,0,.78-3.85,16.46,16.46,0,0,0-.76-7.78c-.79.74-1,1.9-1.36,3a36,36,0,0,0-1.53,8.3l.74.57C28,57.84,28.51,58.29,29,58.79Z"/><path d="M46.33,77.7a24.84,24.84,0,0,0-5.7-2.19h0a11.33,11.33,0,0,1-1.85-.31,22.79,22.79,0,0,1,.7,3.26,35.92,35.92,0,0,0,7.66,2.64c2.16.4,2.54.73,3.6.19A15.26,15.26,0,0,0,46.33,77.7Z"/><path d="M32.16,53.13a25.61,25.61,0,0,1,2.06-2.32A14.08,14.08,0,0,1,37,48.62a5.89,5.89,0,0,1,1.6-.66L33.8,45.21a3.65,3.65,0,0,0-2.6-.4,17,17,0,0,1,1.08,6.38C32.27,51.86,32.23,52.5,32.16,53.13Z"/><path d="M44.66,55.1a20.91,20.91,0,0,1,6.49.09L40.22,48.9a14.42,14.42,0,0,1-.38,4.89,20,20,0,0,1-1.21,3.42l0,0A17.09,17.09,0,0,1,44.66,55.1Z"/><path d="M51.73,73.39a16.92,16.92,0,0,1-5.16,1.75l-1.15.19a17.93,17.93,0,0,1,6.65,4.84A3.66,3.66,0,0,0,52.79,78V72.66A6.3,6.3,0,0,1,51.73,73.39Z"/><path d="M35.55,59.25a20.5,20.5,0,0,0,2.61-5.87,12.79,12.79,0,0,0,.39-3.6,4.93,4.93,0,0,0-.7.34,15.18,15.18,0,0,0-3.64,3.24,21.18,21.18,0,0,0-3,4.44h0c-.29,1-.57,1.91-.76,2.52a36.19,36.19,0,0,1,2.27,2.84s.05-.09.07-.14a1,1,0,0,1,.22-.45l.12-.13q.34-.55.81-1.17c.3-.39.65-.78,1-1.18C35.19,59.82,35.37,59.55,35.55,59.25Z"/></g></g></svg>