<svg xmlns="http://www.w3.org/2000/svg" viewBox="0 0 402.07 109.21"><defs><style>.cls-1,.cls-2{fill:#fff;stroke:#000;stroke-miterlimit:10;}.cls-1{stroke-width:4.3px;}.cls-2{stroke-width:4.3px;}</style></defs><title>アセット 43</title><g id="レイヤー_2" data-name="レイヤー 2"><g id="レイヤー_1-2" data-name="レイヤー 1"><rect class="cls-1" x="53.07" y="23.12" width="346.85" height="69.43"/><circle class="cls-2" cx="54.61" cy="54.61" r="52.46"/><path d="M81,65.05a57.88,57.88,0,0,1-9.94-14.67c-.34-.72-.68-1.45-1-2.2A67.63,67.63,0,0,1,65.4,31.43l-.23-1.55H43.68l-.23,1.55a68,68,0,0,1-4.68,16.76c-.33.75-.66,1.48-1,2.19A58.18,58.18,0,0,1,27.68,65.21a52.82,52.82,0,0,1-8.44,7.29c-1.11.75-2,1.3-2.64,1.65-.3.18-.55.3-.7.39l-.17.08,0,0H93.16A46.51,46.51,0,0,1,81,65.05ZM65.4,53.39l-5.5-6.7-5.48,6.69-5.49-6.69-5.48,6.69L41.5,51a69.8,69.8,0,0,0,5.31-17.49H62.05A69.81,69.81,0,0,0,67.34,51Z"/></g></g></svg>