<svg xmlns="http://www.w3.org/2000/svg" viewBox="0 0 402.07 109.21"><defs><style>.cls-1,.cls-2{fill:#fff;stroke:#000;stroke-miterlimit:10;}.cls-1{stroke-width:4.3px;}.cls-2{stroke-width:4.3px;}</style></defs><title>アセット 47</title><g id="レイヤー_2" data-name="レイヤー 2"><g id="レイヤー_1-2" data-name="レイヤー 1"><rect class="cls-1" x="53.07" y="23.12" width="346.85" height="69.43"/><circle class="cls-2" cx="54.61" cy="54.61" r="52.46"/><path d="M30.63,65.62h48a3.31,3.31,0,0,0,3.31-3.31V34.1a3.32,3.32,0,0,0-3.31-3.32H30.63a3.32,3.32,0,0,0-3.31,3.32V62.31A3.31,3.31,0,0,0,30.63,65.62Zm1.76-30.38H76.83V60.39H32.39Z"/><path d="M85.74,74.82l-5.91-5.25a2.27,2.27,0,0,0-1.5-.53H30.89a2.28,2.28,0,0,0-1.51.53l-5.91,5.25a1.38,1.38,0,0,0-.49,1v1.83a.91.91,0,0,0,1,.77H85.23a.91.91,0,0,0,1-.77V75.83A1.34,1.34,0,0,0,85.74,74.82Zm-37.91.62,1.71-2.32H60.38l1.71,2.32Z"/></g></g></svg>