<svg xmlns="http://www.w3.org/2000/svg" viewBox="0 0 402.07 109.21"><defs><style>.cls-1,.cls-2{fill:#fff;stroke:#000;stroke-miterlimit:10;}.cls-1{stroke-width:4.3px;}.cls-2{stroke-width:4.3px;}</style></defs><title>アセット 33</title><g id="レイヤー_2" data-name="レイヤー 2"><g id="レイヤー_1-2" data-name="レイヤー 1"><rect class="cls-1" x="53.07" y="23.12" width="346.85" height="69.43"/><circle class="cls-2" cx="54.61" cy="54.61" r="52.46"/><path d="M38.09,55h0a.59.59,0,0,0,.54,0,.57.57,0,0,0,.29-.47,15.58,15.58,0,0,1,1.19-5,.55.55,0,0,0,0-.38L40.05,49a32.46,32.46,0,0,1-1.11-11,27.43,27.43,0,0,1,2.17-9.12.51.51,0,0,0,.06-.25.57.57,0,0,0-.51-.57,8.84,8.84,0,0,0-5.83,1.74c-.82.63-1.61,1.3-2.37,2C31.22,33,30,36.73,30,38.94s-.17,6.38,2.09,9.51A35.67,35.67,0,0,0,38.09,55Z"/><path d="M42.36,44.51a.59.59,0,0,0,.42.38l.13,0a.6.6,0,0,0,.42-.18,15.47,15.47,0,0,1,4.1-3,.57.57,0,0,0,.27-.3l.09-.21A32.46,32.46,0,0,1,54,32.07a27.63,27.63,0,0,1,7.53-5.58.62.62,0,0,0,.17-.11.59.59,0,0,0,0-.81,9,9,0,0,0-5.58-2.42c-1,0-2.06,0-3.11,0-1.72.12-5,2.24-6.5,3.89S42.29,31.8,42,35.66a36.08,36.08,0,0,0,.36,8.84Z"/><path d="M52.48,39.17a.55.55,0,0,0,0,.57.59.59,0,0,0,.58.33,15.77,15.77,0,0,1,5.09.32h0a1.93,1.93,0,0,0,.56-.17,32.25,32.25,0,0,1,10.63-3,25.06,25.06,0,0,1,2.92-.17,27.1,27.1,0,0,1,6.44.76.61.61,0,0,0,.57-.16.57.57,0,0,0,.15-.43,8.91,8.91,0,0,0-2.71-5.45c-.76-.7-1.56-1.37-2.37-2-1.13-.83-4-1.32-6-1.32a10.27,10.27,0,0,0-1.47.1c-2.21.32-6.31.92-9,3.67A35.82,35.82,0,0,0,52.48,39.17Z"/><path d="M72.13,39.89a35.93,35.93,0,0,0-8.54,1.81.59.59,0,0,0-.39.38.58.58,0,0,0,.23.65,15.81,15.81,0,0,1,3.68,3.53.6.6,0,0,0,.31.21l.26.06a32.13,32.13,0,0,1,10,4.57,27.57,27.57,0,0,1,6.78,6.48.61.61,0,0,0,.48.25.59.59,0,0,0,.46-.23,8.91,8.91,0,0,0,1.43-5.91c-.12-1-.3-2-.53-3.06-.41-1.67-3.06-4.58-5-5.76S76,39.51,72.13,39.89Z"/><path d="M76.43,76.9a.54.54,0,0,0,.38.15l.13,0a8.88,8.88,0,0,0,4.9-3.6,29.71,29.71,0,0,0,1.56-2.68c.77-1.54.62-5.47-.07-7.59s-2-6-5.16-8.24a35.67,35.67,0,0,0-7.68-4.11.6.6,0,0,0-.63.07.58.58,0,0,0-.19.6,15.53,15.53,0,0,1,.55,5.07.58.58,0,0,0,.1.36l.16.21a32.3,32.3,0,0,1,4.73,10,27.1,27.1,0,0,1,1,9.32A.57.57,0,0,0,76.43,76.9Z"/><path d="M73.1,70.3a35.85,35.85,0,0,0-3.26-8.15.54.54,0,0,0-.09-.12.58.58,0,0,0-.94.17A15.7,15.7,0,0,1,66,66.43a.57.57,0,0,0-.16.33c0,.1,0,.19,0,.28A32.4,32.4,0,0,1,63,77.71a27.18,27.18,0,0,1-5.22,7.78.6.6,0,0,0-.18.42.57.57,0,0,0,.32.51,7.45,7.45,0,0,0,3.43.74A10.83,10.83,0,0,0,64,86.83c1-.31,2-.66,2.93-1,1.58-.68,4-3.79,4.83-5.86S74.12,74,73.1,70.3Z"/><path d="M62.08,70.36a.56.56,0,0,0-.27-.48.57.57,0,0,0-.55,0,15.57,15.57,0,0,1-4.9,1.41.6.6,0,0,0-.35.16l-.17.19a32.13,32.13,0,0,1-9,6.36,27.43,27.43,0,0,1-9,2.59.59.59,0,0,0-.54.58.54.54,0,0,0,0,.22,8.84,8.84,0,0,0,4.38,4.22,30.92,30.92,0,0,0,2.91,1.09,4.71,4.71,0,0,0,1.24.14,15.79,15.79,0,0,0,6.25-1.52c2-1,5.61-3,7.22-6.48A35.14,35.14,0,0,0,62.08,70.36Z"/><path d="M45.53,68.65l-.26,0a21.1,21.1,0,0,1-2.52.14,36.67,36.67,0,0,1-8.47-1.08,27.47,27.47,0,0,1-8.56-3.83A.59.59,0,0,0,25,64a.55.55,0,0,0-.14.23,9,9,0,0,0,.62,6l0,.05A28.11,28.11,0,0,0,27,73c.94,1.44,4.41,3.29,6.61,3.77a23.54,23.54,0,0,0,5,.66,10.82,10.82,0,0,0,4.69-1,35.93,35.93,0,0,0,7.47-4.6.55.55,0,0,0,.15-.19.58.58,0,0,0,0-.5.61.61,0,0,0-.38-.32,15.43,15.43,0,0,1-4.65-2.08A.52.52,0,0,0,45.53,68.65Z"/><path d="M32.58,64.3a36.07,36.07,0,0,0,8.67,1.29h0a.58.58,0,0,0,.26-.06.58.58,0,0,0,.3-.38.57.57,0,0,0-.09-.47,15.46,15.46,0,0,1-2.21-4.59.63.63,0,0,0-.21-.3l-.23-.15a32,32,0,0,1-7.81-7.8,27.57,27.57,0,0,1-4.09-8.44.6.6,0,0,0-.3-.38.63.63,0,0,0-.57,0,9,9,0,0,0-3.41,5c-.24,1-.43,2-.57,3-.21,1.71,1.26,5.36,2.62,7.13S28.85,63.31,32.58,64.3Z"/></g></g></svg>