<svg xmlns="http://www.w3.org/2000/svg" viewBox="0 0 402.07 109.21"><defs><style>.cls-1,.cls-2{fill:#fff;stroke:#000;stroke-miterlimit:10;}.cls-1{stroke-width:4.3px;}.cls-2{stroke-width:4.3px;}</style></defs><title>アセット 36</title><g id="レイヤー_2" data-name="レイヤー 2"><g id="レイヤー_1-2" data-name="レイヤー 1"><rect class="cls-1" x="53.07" y="23.12" width="346.85" height="69.43"/><circle class="cls-2" cx="54.61" cy="54.61" r="52.46"/><path d="M43.06,77.44l-6.38-9.52a2.66,2.66,0,1,0-2.57,1.72l6.38,9.52a2.66,2.66,0,1,0,2.57-1.72Z"/><path d="M25.74,76.74a1.89,1.89,0,0,0-.43,2.65l2.5,3.5a1.9,1.9,0,0,0,2.65.44l6.77-4.48-4.35-6.66Z"/><path d="M79.44,44.94a16.45,16.45,0,0,0-.8-19.41s-.2.68-.73,2.21C73.25,38.68,64.16,48.45,56,55.62c2.36,2,4.6,3.78,6.59,5.28C69.48,55.68,76.35,49.76,79.44,44.94Z"/><path d="M39.64,68l4.15,5.83s3.92-2.42,9.21-6c-2-1.42-4.19-3-6.38-4.61C42.46,66.26,39.64,68,39.64,68Z"/><path d="M75.1,69.64a2.66,2.66,0,1,0-2.42-3.91,2.63,2.63,0,0,0-.14,2.19l-6.38,9.52a2.66,2.66,0,1,0,2.42,3.92,2.7,2.7,0,0,0,.14-2.2Z"/><path d="M83.47,76.74,76.33,72.2,72,78.85l6.77,4.48a1.92,1.92,0,0,0,2.66-.44l2.5-3.5A1.9,1.9,0,0,0,83.47,76.74Z"/><path d="M65.42,73.83l1.64-2.31C48.37,58.88,39.78,51.33,35.6,46.27a22.42,22.42,0,0,1-2.94-4.41,17.22,17.22,0,0,1-1.36-4.11.63.63,0,0,1,.46-.77.64.64,0,0,1,.77.47A16.19,16.19,0,0,0,33.8,41.3a25.2,25.2,0,0,0,4.34,5.94C42.68,52.13,51.26,59.3,67.8,70.49L69.57,68S40.94,50.39,31.3,27.74c-.53-1.53-.73-2.21-.73-2.21a16.44,16.44,0,0,0-.79,19.41C37.07,56.32,65.42,73.83,65.42,73.83Z"/></g></g></svg>