<svg xmlns="http://www.w3.org/2000/svg" viewBox="0 0 402.07 109.21"><defs><style>.cls-1,.cls-2{fill:#fff;stroke:#000;stroke-miterlimit:10;}.cls-1{stroke-width:4.3px;}.cls-2{stroke-width:4.3px;}</style></defs><title>アセット 38</title><g id="レイヤー_2" data-name="レイヤー 2"><g id="レイヤー_1-2" data-name="レイヤー 1"><rect class="cls-1" x="53.07" y="23.12" width="346.85" height="69.43"/><circle class="cls-2" cx="54.61" cy="54.61" r="52.46"/><path d="M65.33,43.57a8.62,8.62,0,0,1-2.33.32,10.72,10.72,0,0,1-8.1-3.7l-.29-.3-.3.3a10.7,10.7,0,0,1-8.09,3.7,8.57,8.57,0,0,1-2.33-.32c-.37.23-.8.43-1.27.68-1.32.72-1.3,1.62.48,2.52,2.4,1.2,9.23,2.15,11.51,2.15s9.1-1,11.5-2.15c1.78-.9,1.8-1.8.48-2.52C66.13,44,65.69,43.8,65.33,43.57Z"/><path d="M54.58,30.43l0,0,0,0a10.56,10.56,0,0,1,7.82-3.79,2.38,2.38,0,0,0-1-.81,2.46,2.46,0,0,0,0-.28,2.26,2.26,0,0,0-.88-1.79,3.6,3.6,0,0,0-2.78-5.88,3.58,3.58,0,0,0-3.17,1.9,3.6,3.6,0,1,0-6,4,2.24,2.24,0,0,0-.88,1.79,2.53,2.53,0,0,0,0,.28,2.38,2.38,0,0,0-1,.81A10.61,10.61,0,0,1,54.58,30.43Z"/><path d="M40.18,39.16a7.18,7.18,0,0,0,6,3.29c5.57,0,7.25-4.25,8.39-4.25s2.81,4.25,8.38,4.25a7.18,7.18,0,0,0,6-3.29c3.79-1,3.91-3.37,2.33-4.5,2.22-2.7-1-4-3.09-4.28A7.2,7.2,0,0,0,63,28.07c-5.83,0-7.43,4.2-8.38,4.2s-2.56-4.2-8.39-4.2A7.16,7.16,0,0,0,41,30.38c-2.09.27-5.32,1.58-3.1,4.28C36.27,35.79,36.39,38.18,40.18,39.16ZM63,30.47a4.8,4.8,0,1,1-4.79,4.79A4.79,4.79,0,0,1,63,30.47Zm-16.77,0a4.8,4.8,0,1,1-4.8,4.79A4.79,4.79,0,0,1,46.22,30.47Z"/><rect x="42.8" y="34.54" width="6.83" height="1.44"/><rect x="59.58" y="34.54" width="6.83" height="1.44"/><path d="M42.41,87.09h9.43s.12-7.32,2.77-7.32,2.76,7.32,2.76,7.32h9.44c4.25-6.44,5.06-11.41,5.06-11.41H37.34S38.15,80.65,42.41,87.09Z"/><path d="M50.89,88H42.26a1.68,1.68,0,0,0,0,3.36h8.63a1.68,1.68,0,0,0,0-3.36Z"/><path d="M67,88H58.32a1.68,1.68,0,0,0,0,3.36H67A1.68,1.68,0,0,0,67,88Z"/><path d="M69.35,47a32.19,32.19,0,0,1-14.74,3.35A32.14,32.14,0,0,1,39.87,47c-9.23-1.56-13.43,5.08-12.95,10.11.44,4.54,4.08,7.67,4.8,8.39A1.52,1.52,0,0,0,32.56,68h2.75c2.76,0,2.52-2.16,1.68-3-1.68-3.11-.12-6,3.12-5.63s4,2.64,1.55,5.63C40.08,67,35.31,71.5,35,72.1s-.24,2,1,2h16a15.54,15.54,0,0,0,2.84-3.6,15.38,15.38,0,0,0,2.83,3.6H73.3c1.2,0,1.32-1.44,1-2S69.13,67,67.55,65c-2.4-3-1.78-5.26,1.56-5.63S73.9,61.92,72.22,65c-.84.84-1.08,3,1.68,3h2.76c1.08,0,1.67-1.68.84-2.52.71-.72,4.36-3.85,4.79-8.39C82.77,52.09,78.57,45.45,69.35,47ZM47.59,61.44a1.8,1.8,0,1,1,1.8-1.8A1.8,1.8,0,0,1,47.59,61.44Zm7,3.26A1.35,1.35,0,1,1,56,63.35,1.34,1.34,0,0,1,54.61,64.7Zm0-6.79a53.05,53.05,0,0,0-5.42-6,37.61,37.61,0,0,0,5.3.38h.24A37.58,37.58,0,0,0,60,51.9,52.38,52.38,0,0,0,54.61,57.91Zm7,3.53a1.8,1.8,0,1,1,1.79-1.8A1.8,1.8,0,0,1,61.62,61.44Z"/></g></g></svg>