<svg xmlns="http://www.w3.org/2000/svg" viewBox="0 0 402.07 109.21"><defs><style>.cls-1,.cls-2{fill:#fff;stroke:#000;stroke-miterlimit:10;}.cls-1{stroke-width:4.3px;}.cls-2{stroke-width:4.3px;}.cls-3{fill:#040000;}</style></defs><title>アセット 44</title><g id="レイヤー_2" data-name="レイヤー 2"><g id="レイヤー_1-2" data-name="レイヤー 1"><rect class="cls-1" x="53.07" y="23.12" width="346.85" height="69.43"/><circle class="cls-2" cx="54.61" cy="54.61" r="52.46"/><path class="cls-3" d="M77.46,37.41c-.89,0-1.07,4.66-2.15,4.13S64.67,35,63.77,33c.18-2-1.08-2.51-.9-3.05S64.3,27.8,64.3,26.9s-3-.54-4.83-1.61c-.75-.25-1.84-2.82-2.55-5.21a3,3,0,0,0,2-2.68,3.25,3.25,0,0,0-2.8-2.94c0-.67.08-1.3.14-1.8.93-.14,1.58-.46,1.58-.82s-.44-.56-1.1-.72a1.22,1.22,0,0,0,0-.17c0-.39-.45-.72-1.07-.84-.07-.69-.36-1.2-.7-1.2s-.65.55-.7,1.28c-.46.16-.76.44-.76.76a.55.55,0,0,0,0,.17c-.67.16-1.1.43-1.1.72s.65.68,1.58.82c.06.5.11,1.13.14,1.8a3.25,3.25,0,0,0-2.8,2.94,3,3,0,0,0,2,2.68c-.72,2.39-1.81,5-2.55,5.21C49.07,26.36,46,26,46,26.9s1.26,2.51,1.43,3.05S46.38,31,46.56,33C45.66,35,35,42.44,33.9,43s-1.25-4.12-2.15-4.12.54,4.3.36,4.84a3.12,3.12,0,0,0,.35,2.15c.36.54.9.9,1.08,1.61s7.89,29.76,7.89,29.76-.72,1.08-.18,1.8,1.61,2.15,1.61,2.15a26.74,26.74,0,0,0,7.7,2.56V99.15h8.91V84a21.61,21.61,0,0,0,8.14-2.47l1.61-2.15c.54-.71-.18-1.79-.18-1.79S75.49,46.74,75.67,46s.72-1.08,1.08-1.62a3.06,3.06,0,0,0,.36-2.15C76.93,41.71,78.36,37.41,77.46,37.41ZM60.53,48.71,58,77.05l-6,.16L49.5,48.71ZM44.66,77.39,38.2,48.71H46l3.86,28.55Zm21.15-.53L60.19,77,64,48.71h7.9Z"/></g></g></svg>