<svg xmlns="http://www.w3.org/2000/svg" viewBox="0 0 402.07 109.21"><defs><style>.cls-1,.cls-2{fill:#fff;stroke:#000;stroke-miterlimit:10;}.cls-1{stroke-width:4.3px;}.cls-2{stroke-width:4.3px;}</style></defs><title>アセット 40</title><g id="レイヤー_2" data-name="レイヤー 2"><g id="レイヤー_1-2" data-name="レイヤー 1"><rect class="cls-1" x="53.07" y="23.12" width="346.85" height="69.43"/><circle class="cls-2" cx="54.61" cy="54.61" r="52.46"/><path d="M93.68,46.18v0l-.77,0a67.1,67.1,0,0,1-12.8-2.26c-7.21-1.94-7.84-12-7.85-12.07l0-.6H37l0,.6c0,.1-.62,10.13-7.85,12.07a68,68,0,0,1-12.8,2.26l-.61,0h-.18l1.29,4h1.63c3,2.57,8.46,7,12.9,9v9.29H28.61a1.24,1.24,0,0,0-1.21,1.27v2.55a1.24,1.24,0,0,0,1.21,1.27h2.74v9h4v-9H73.83v9h4v-9h2.75a1.23,1.23,0,0,0,1.2-1.27V69.68a1.23,1.23,0,0,0-1.2-1.27H77.86V59c4.42-2,9.83-6.36,12.81-8.9H92.4l1-3.12.27-.82ZM77.9,55V51.57l5.78-.39a59.63,59.63,0,0,1-5.17,3.46C78.31,54.75,78.1,54.88,77.9,55ZM73.31,57.4v11h-5v-11Zm0-2.94h-5V51.2h5ZM66.18,51.2v3.26H55.67V51.2Zm0,6.2v11H55.67v-11ZM37.6,42.55a20.87,20.87,0,0,0,3.23-6.76.59.59,0,0,1,.59-.45h6.3l.16,0,.06,0a.67.67,0,0,1,.25.19l0,0a.56.56,0,0,1,.1.28.28.28,0,0,1,0,.09.59.59,0,0,1-.07.29.59.59,0,0,0,0,.08.6.6,0,0,1-.11.12c-2.4,2.18-3.33,4.48-5.25,6.88a.53.53,0,0,1-.45.23H38.09A.64.64,0,0,1,37.6,42.55ZM53.55,57.4v11H43v-11Zm0-6.2v3.26H43V51.2ZM40.91,57.4v11h-5v-11Zm-5-2.94V51.2h5v3.26Zm-4.59.63a51.64,51.64,0,0,1-5.75-3.81l5.76.39v3.42Z"/><path d="M72.18,29.65l.6-4.88c0-.69-.39-1.21-.9-1.21a.75.75,0,0,0-.54.22L70,25.09H39.26l-1.38-1.31a.74.74,0,0,0-.53-.22c-.51,0-.9.52-.9,1.29l.6,4.8Z"/><path d="M59.19,77.56H50a2.1,2.1,0,0,0-2,2.15v2.75H61.23V79.71A2.11,2.11,0,0,0,59.19,77.56Z"/></g></g></svg>