<?xml version="1.0" encoding="utf-8"?>
<!-- Generator: Adobe Illustrator 23.0.1, SVG Export Plug-In . SVG Version: 6.00 Build 0)  -->
<svg version="1.1" id="レイヤー_1" xmlns="http://www.w3.org/2000/svg" xmlns:xlink="http://www.w3.org/1999/xlink" x="0px"
	 y="0px" viewBox="0 0 402.1 126.3" style="enable-background:new 0 0 402.1 126.3;" xml:space="preserve">
<style type="text/css">
	.st0{fill:#FFFFFF;stroke:#000000;stroke-width:4.21;stroke-miterlimit:10;}
	.st1{fill:#FFFFFF;stroke:#000000;stroke-width:4.3;stroke-miterlimit:10;}
	.st2{enable-background:new    ;}
	.st3{fill:#817CC0;}
</style>
<title>アセット 101</title>
<g>
	<g id="レイヤー_1-2">
		<polygon class="st0" points="399.9,40.5 41.6,40.5 60.3,2.1 399.9,2.1 		"/>
		<rect x="53.1" y="40.5" class="st1" width="346.9" height="69.4"/>
		<g class="st2">
			<path d="M188.2,73.7c-0.3,1.3-0.1,5.5-0.8,9.2c2.6-3,3.9-6.2,4.2-8.1c0-0.3,0.1-0.4,0.3-0.4c0.3,0,3.5,1,3.5,1.5
				c0,0.2-0.3,0.5-0.9,0.7c-0.3,0.1-0.5,0.3-0.6,0.7c-1.2,3.5-3.7,7.8-4.3,7.8c-0.1,0-0.1,0-0.2-0.1c-0.7-0.4-1.6-0.6-2.3-0.8
				c-1.3,4.6-4,5.3-5.8,5.3c-0.2,0-0.4,0-0.7,0c-0.3,0-0.5-0.1-0.5-0.4c-0.1-0.7-1.4-2.6-1.8-3.1c-0.1-0.1-0.1-0.1-0.1-0.2
				s0,0,0.1,0c0.1,0,0.1,0,0.2,0c1.5,0.3,2.3,0.4,2.9,0.4c3.1,0,3.3-7.7,3.3-10.1h-3.8c-0.1,1.1-0.2,1.3-0.5,1.3c-0.3,0-0.8,0-1.2,0
				c-0.6,0-1.2,0-1.7-0.1c-0.2-0.1-0.3-0.1-0.3-0.3c0,0,0-0.1,0-0.1c1.2-2.8,1.8-7,1.8-9.6v-0.1c0-0.1,0.1-0.2,0.2-0.2
				c0,0,0.1,0,0.2,0c0.4,0.1,2,0.3,4.3,0.3h1V66c0-0.7,0-2.2,0-2.2s-0.8,0-1.2,0c-1.1,0-3.1,0.2-4.4,0.2h-0.1
				c-0.3,0-0.4-0.3-0.4-2.4v-0.3c0.1-0.3,0.2-0.4,0.3-0.4h0.1c1.4,0.1,2.8,0.2,4.5,0.2c1.2,0,1.8-0.1,4-0.2h0.1
				c0.2,0,0.3,0.1,0.3,0.3v0.1c-0.2,2.4-0.2,3.7-0.2,4.6c0,0.8,0,1.8,0.2,4.2v0.3c0,0.2,0,0.4-1.9,0.4c-0.3,0-0.6,0-0.9,0
				c-0.3-0.1-0.5,0-0.5-0.4v-0.1c-0.3,0-0.6,0-0.9,0c-0.4,0-1.1,0-1.7,0c-0.1,0.4-0.6,2.4-0.7,3.3c2.1,0,4.9,0,6.7-0.2
				c0.2,0,0.3,0,0.3,0.1V73.7z M199.6,86.5c0,1.7-1.4,3.5-5.1,3.5c-0.2,0-0.4-0.1-0.5-0.5c-0.2-0.7-1.2-2-1.9-2.9
				c-0.1-0.1-0.1-0.1-0.1-0.2c0-0.1,0.1-0.1,0.2-0.1c0.1,0,0.1,0,0.2,0c0.8,0.1,1.6,0.2,2.1,0.2c1.1,0,1.7-0.3,1.7-1.4
				c0-1.7,0-3.1,0-4.3c0-2.4,0-4,0-4.9c0-3.8-0.1-5.1-0.2-5.8c-0.8,0-1.7,0-2.6,0c-0.5,1.1-1.1,2.1-1.7,3.1c-0.1,0-0.2,0.1-0.3,0.1
				c-0.1,0-0.1,0-0.2,0c-0.9-0.4-2.1-0.3-3-0.5c-0.2,0-0.3-0.1-0.3-0.2c0,0,0-0.1,0.1-0.2c3.8-4.5,5.1-9.8,5.3-11.9
				c0-0.2,0.1-0.3,0.3-0.3s3.7,1.2,3.7,1.8c0,0.2-0.3,0.4-0.7,0.7c-0.3,0.2-0.5,0.4-0.7,0.8c-0.2,0.6-0.7,2.1-1.4,3.8h1.9
				c2.8,0,5.3,0,9.7-0.3h0.1c0.3,0,0.3,0.2,0.3,1.6c0,0.5,0,1.1-0.1,1.4c0,0.2-0.2,0.2-0.3,0.2c-2.5-0.1-4.6-0.2-6.3-0.2l-0.3,0.2
				c-0.3,0.3-0.4,0.6-0.4,3.4c0,2.5,0.1,9,0.2,12.6V86.5z M209.2,82.9c-0.9,0.2-2,0.7-3,1.3c-0.1,0.1-0.2,0.1-0.3,0.1
				c-0.9,0-5.2-8.2-5.2-9.1c0-0.2,0.1-0.2,0.3-0.3c0.3,0,1.7-0.6,2-0.6c0.3,0,0.3,0,0.5,0.3c0.5,1.1,2.8,5.4,5.8,7.9
				c0.1,0.1,0.2,0.2,0.2,0.2C209.6,82.8,209.5,82.9,209.2,82.9z"/>
			<path d="M240.6,85.3c0.2,0,0.3,0.1,0.3,0.3c0,0.2,0.1,0.9,0.1,1.6c0,0.5,0,1.1-0.1,1.3c0,0.2-0.2,0.2-0.3,0.2
				c-7-0.3-10.4-0.3-14.4-0.3c-3.7,0-7.2,0-13.8,0.3c-0.4,0-0.5,0-0.5-1.6c0-1.6,0-1.8,0.3-1.8h0.1c4,0.3,6.8,0.3,9.1,0.3
				c1.2,0,2.2,0,3.3,0c0-1.7,0-3.7,0-5.7c-1.9,0-4,0.1-7.2,0.3c-0.3,0-0.5,0-0.5-1.7c0-1.7,0.1-1.7,0.5-1.7c3.2,0.2,5.3,0.3,7.2,0.3
				c0-1.8,0-3.5,0-5.1c-1.7,0-2.8,0-3.9,0c-0.6,0-1.2,0-1.9,0c-1.9,3.8-3.9,6.4-4.3,6.4c-0.1,0-0.1,0-0.2-0.1
				c-0.9-0.6-1.9-0.8-3.1-1.1c-0.2-0.1-0.4-0.1-0.4-0.2c0,0,0-0.1,0.1-0.2c4.6-3.6,7.5-11.8,7.5-13.8c0-0.2,0.1-0.2,0.3-0.2
				c0.2,0,2.1,0.8,3.4,1.3c0.4,0.2,0.6,0.3,0.6,0.6c0,0.2-0.2,0.5-0.7,0.8c-0.2,0.1-0.7,0.5-1,1.3l-1,2.3c1.2,0,2.9,0,4.5,0
				c0-1.8,0-3.2,0-3.5c-0.1-2.3-0.1-3.8-0.3-5.3c0-0.1,0-0.1,0-0.2c0-0.1,0.1-0.2,0.3-0.2c1,0,4.6,0.4,4.6,1.2c0,0.2-0.3,0.6-0.5,1
				c-0.4,0.7-0.5,0.7-0.5,3c0,0.3,0,1.9,0,3.9c3.1,0,5,0,9.7-0.3c0.4,0,0.4,0.4,0.4,1.7c0,1.6-0.1,1.7-0.4,1.7
				c-4.2-0.2-6.7-0.3-9.7-0.3v5.1c2,0,3.9-0.1,7.3-0.3c0.4,0,0.4,0.2,0.4,2c0,0.5,0,1,0,1.2c0,0.1-0.2,0.2-0.4,0.2
				c-3.1-0.2-5.3-0.3-7.3-0.3v5.7C231.4,85.6,234.4,85.6,240.6,85.3L240.6,85.3z"/>
			<path d="M256.3,82.8c0,0.3-0.1,0.6-1.7,0.6c-0.9,0-1.6,0-1.6-0.5v-0.1c0-0.6,0-1.5,0.1-2.4c-0.4,0-1-0.1-1.5-0.1
				c-0.6,0-1.2,0-1.6,0.1c0,1.5,0,3,0.1,4.4c0,0.6-0.1,0.6-1.7,0.6c-1.7,0-1.7-0.2-1.7-0.5v-0.1c0.3-4.7,0.4-9.8,0.4-12.5
				c0-3.5-0.1-6.3-0.2-9c0-0.1,0-0.2,0-0.3c0-0.1,0.1-0.2,0.2-0.2c0.1,0,0.2,0,0.3,0c1.1,0.1,2.6,0.2,4.3,0.2c1.7,0,2-0.1,4.2-0.2
				c0.4,0,0.4,0.1,0.4,0.5c-0.2,2.7-0.2,5.8-0.2,8.7c0,2.5,0.1,8.1,0.3,10.7V82.8z M251.6,65.4c-1,0-1.5,0-1.5,0S250,67.6,250,70
				c0.4,0,1.1,0,1.6,0c0.5,0,1.2,0,1.6,0c0-2.2-0.1-4.5-0.1-4.5s-0.3,0-1,0H251.6z M253.2,72.7c-0.4,0-1,0-1.6,0c-0.6,0-1.3,0-1.6,0
				c0,1.3,0,3,0,4.9c0.4,0,1.1,0,1.6,0s1.2,0,1.5,0C253.1,75.7,253.2,74,253.2,72.7z M275,72.9c-3.8-0.4-7.3-0.4-9.5-0.4
				c-2.2,0-3.9,0.1-8.4,0.3c-0.3,0-0.4-0.1-0.4-1.6c0-1.6,0-1.6,0.4-1.6c3.3,0.3,5.1,0.3,6.8,0.3v-2.7c-1.5,0-3,0.1-5.5,0.2
				c-0.3,0-0.4,0-0.4-1.5c0-1.4,0.1-1.5,0.4-1.5c2.4,0.2,3.9,0.2,5.3,0.2v-0.3c-0.1-2.2-0.1-3.4-0.5-5v-0.2c0-0.2,0-0.2,0.2-0.2
				c0.5,0,4.4,0.4,4.4,1.1c0,0.3-0.3,0.6-0.5,1c-0.4,0.7-0.3,0.6-0.5,2.9c0,0.2,0,0.4,0,0.7c1.3,0,2.6-0.1,5.2-0.2
				c0.2,0,0.4,0,0.4,1.6c0,0.5,0,1-0.1,1.3c0,0.1-0.2,0.2-0.3,0.2h0c-2.5-0.1-3.7-0.2-5.2-0.2V70c2.1,0,4.9-0.2,8-0.4
				c0.2,0,0.4,0.2,0.4,1.7c0,0.5,0,1.1-0.1,1.4C275.3,72.8,275.1,72.9,275,72.9L275,72.9z M270.4,85.9c0,2-1.1,4.2-5.1,4.2
				c-0.2,0-0.4-0.2-0.5-0.5c-0.6-1.5-1.8-2.1-2.7-3c-0.1-0.1-0.2-0.2-0.2-0.2c0,0,0-0.1,0.1-0.1c0,0,0.1,0,0.2,0
				c1.1,0.2,2,0.3,2.8,0.3c1.3,0,2-0.3,2-1.3c0.1-1.3,0.1-4,0.1-5.5v-2h-1.5c-2.2,0-3.9,0.1-8.3,0.3c-0.1,0-0.3-0.1-0.3-0.3
				c0-0.3,0-0.8,0-1.3c0-1.6,0-1.6,0.4-1.6c4.2,0.3,5.9,0.3,8.3,0.3h1.4c-0.1-0.8-0.1-1.5-0.3-2c0-0.1,0-0.1,0-0.1
				c0-0.1,0.1-0.2,0.3-0.2c0.1,0,4,0.3,4,1c0,0.1-0.1,0.3-0.3,0.5c-0.3,0.4-0.4,0.4-0.4,0.7c1.4-0.1,3-0.2,4.6-0.3h0
				c0.2,0,0.3,0.3,0.3,1.7c0,0.5,0,1.1-0.1,1.5c0,0.1-0.2,0.2-0.3,0.2h0c-1.7-0.2-3.3-0.3-4.7-0.3v2.9c0,1.8,0.2,3,0.2,4.9V85.9z
				 M262.9,84.4c-0.1,0-0.1-0.1-0.2-0.1c-1.5-1.8-3.6-3.2-4.2-3.6c-0.1-0.1-0.1-0.1-0.1-0.2c0-0.4,1.5-1.4,1.8-1.6
				c0.1-0.1,0.1-0.1,0.2-0.1c0.1,0,0.1,0,0.2,0.1c0.7,0.3,3.2,1.6,4.5,2.9c0.1,0.1,0.1,0.1,0.1,0.2c0,0.2-1.5,1.9-2,2.4
				C263,84.4,263,84.4,262.9,84.4z"/>
			<path d="M284.1,89.3c0.5-4.6,0.7-12,0.9-17.6c-0.3,0.4-3.8,4.7-4.6,4.7c-0.1,0-0.2,0-0.3-0.1c-0.7-0.5-2-0.9-2.9-1.1
				c-0.2,0-0.3-0.1-0.3-0.2c0-0.1,0.1-0.1,0.2-0.2c5.8-4.1,10.5-12,10.9-14.3c0-0.1,0.1-0.2,0.2-0.2c0.6,0,4,1.5,4,2.1
				c0,0.2-0.3,0.5-0.8,0.7c-0.5,0.2-0.7,0.1-1,0.7c-0.3,0.6-1.2,2-2.3,3.6c0.2,0.1,0.4,0.2,0.5,0.2c0.2,0.1,0.3,0.2,0.3,0.4
				c0,0.2-0.1,0.4-0.3,0.6c-0.5,0.5-0.5,0.8-0.5,1.6c-0.1,4.2-0.3,9.8-0.3,14.3c0,1.8,0,3.4,0.1,4.7c0,0.2-0.1,0.3-1.9,0.3
				C284.5,89.7,284.1,89.7,284.1,89.3L284.1,89.3z M307.7,71.1c0,0.1-0.2,0.3-0.3,0.3c-5.1,0.4-5.8,0.4-8.8,0.9l-0.7,0.1
				c2,10.1,7.6,12.9,8.3,12.9c0.8,0,1.6-1,1.8-3.8c0-0.2,0.1-0.3,0.2-0.3c0.1,0,0.1,0.1,0.2,0.2c0.5,0.6,1.6,2.1,2.7,2.8
				c0.1,0.1,0.2,0.2,0.2,0.5c-0.9,3-2.5,4.7-4.6,4.7c-0.8,0-1.8-0.3-2.7-0.9c-5.6-3.5-8.1-9.5-9.3-15.5l-4.9,1h-0.1
				c-0.1,0-0.3,0-0.4-0.2c-0.2-0.5-0.4-2-0.4-2.7v-0.1c0-0.3,0.2-0.4,0.4-0.4c2.1-0.1,3.6-0.3,4.9-0.4c-0.3-1.7-0.5-3.5-0.6-5.1
				c-0.2-1.6-0.3-3-0.5-3.9c0-0.2-0.1-0.3-0.1-0.4c0-0.1,0.1-0.2,0.2-0.2c0.1,0,0.1,0,0.2,0c3.7,0.4,4.4,0.6,4.4,1.1
				c0,0.3-0.3,0.8-0.5,1.2c-0.2,0.4-0.2,0.7-0.2,1.1c0,1.2,0,3.3,0.3,5.7l0.7-0.1c3.3-0.4,4.1-0.6,8.7-1.6h0.1
				c0.2,0,0.3,0.1,0.4,0.3C307.4,68.7,307.7,70.5,307.7,71.1L307.7,71.1z M302.5,67.6c-1.7-1.6-3.9-2.7-4.1-2.8
				c-0.1-0.1-0.3-0.1-0.3-0.2c0-0.3,1.4-2.2,1.8-2.2c0.6,0,4.8,2.3,4.8,2.8c0,0.3-1.4,2.7-1.8,2.7C302.8,67.8,302.6,67.7,302.5,67.6
				z"/>
		</g>
		<g class="st2">
			<path d="M117.1,17.4c-2.6,0.5-4.8,0.9-7.1,1.4c-0.8,0.2-1,0.2-1.3,0.3c-0.1,0.1-0.3,0.2-0.5,0.2c-0.1,0-0.3-0.1-0.4-0.3
				c-0.3-0.6-0.5-1.3-0.8-2.3c1.1,0,1.7-0.1,3.3-0.4c2.6-0.4,7.2-1.1,12.6-1.8c0.3,0,0.4,0.1,0.4,0.2c0.1,0.5,0.2,1.3,0.2,1.8
				c0,0.3-0.1,0.3-0.4,0.3c-1,0.1-1.7,0.2-2.6,0.5c-3.6,1.2-5.4,3.7-5.4,6.2c0,2.7,1.9,4.2,5.6,4.4c0.3,0,0.5,0.1,0.5,0.3
				c0,0.5-0.1,1.3-0.2,1.8c-0.1,0.3-0.1,0.4-0.4,0.4c-3.7,0-7.7-2.1-7.7-6.5C113.1,21.1,114.6,19.1,117.1,17.4L117.1,17.4z
				 M121.3,19.6c0.1-0.1,0.2-0.1,0.3,0c0.7,0.5,1.4,1.3,2,2.2c0.1,0.1,0.1,0.2-0.1,0.3l-0.9,0.7c-0.1,0.1-0.3,0.1-0.4-0.1
				c-0.6-1-1.3-1.8-2.1-2.4L121.3,19.6z M123.1,18.3c0.1-0.1,0.2-0.1,0.3,0c0.8,0.6,1.5,1.4,2,2.2c0.1,0.1,0.1,0.3-0.1,0.4l-0.8,0.7
				c-0.2,0.1-0.3,0.1-0.4-0.1c-0.6-0.9-1.2-1.7-2.1-2.4L123.1,18.3z"/>
		</g>
		<g class="st2">
			<path d="M133.2,14.7c-0.2-0.5-0.4-0.9-0.7-1.3c0.8-0.1,1.7-0.2,2.5-0.2c0.3,0,0.5,0.2,0.5,0.4c0,0.1,0,0.3,0,0.4
				c0,0.2,0,0.4,0.1,0.6c0.1,0.5,0.2,0.7,0.3,1.1c1.6-0.3,2.8-0.6,4.3-1.1c0.2-0.1,0.3-0.1,0.4,0.1c0.1,0.4,0.3,1,0.4,1.4
				c0,0.2-0.1,0.3-0.3,0.4c-1.4,0.4-2.7,0.8-4.1,1.1c0.2,0.5,0.5,1.2,0.7,1.8c1.7-0.4,2.8-0.7,3.8-1.1c0.2-0.1,0.3-0.1,0.4,0.1
				c0.2,0.5,0.3,0.9,0.4,1.4c0,0.2,0,0.3-0.2,0.4c-1,0.4-2.4,0.8-3.5,1c0.9,1.5,1.7,2.7,2.8,3.6c0.2,0.2,0.2,0.3,0.1,0.5
				c-0.2,0.5-0.5,0.9-0.9,1.3c-0.1,0.1-0.2,0.2-0.3,0.2c-0.1,0-0.2,0-0.3-0.1c-0.3-0.3-0.8-0.5-1.2-0.7c-1.1-0.5-2.5-0.7-3.9-0.7
				c-2,0-3.1,0.6-3.1,1.6c0,1.4,1.8,1.8,5,1.8c0.8,0,1.6-0.1,2.3-0.1c0.2,0,0.3,0.1,0.3,0.3c-0.1,0.5-0.2,1.3-0.4,1.9
				c-0.1,0.2-0.1,0.3-0.4,0.3c-0.5,0-1,0.1-1.5,0.1c-4.8,0-7.4-1.4-7.4-3.9c0-2.2,1.9-3.7,5.2-3.7c1.5,0,2.8,0.2,3.6,0.5
				c-0.5-0.6-1.2-1.6-1.7-2.5c-2.2,0.3-4.2,0.6-5.8,0.6c-0.2,0-0.3-0.1-0.4-0.3c-0.1-0.4-0.3-1.1-0.4-1.7c2.1,0,3.8-0.2,5.6-0.5
				c-0.2-0.4-0.5-1.2-0.8-1.7c-1.9,0.3-3.5,0.5-5.1,0.5c-0.3,0-0.4-0.1-0.4-0.3c-0.1-0.2-0.2-1-0.3-1.7c2.1,0,3.7-0.1,5.2-0.3
				C133.6,15.5,133.5,15.2,133.2,14.7z"/>
		</g>
		<g class="st2">
			<path d="M149.8,24c0.2,0.1,0.2,0.2,0.1,0.4c-0.3,0.5-0.5,1.2-0.5,1.6c0,1.3,1.4,2,5,2c2,0,4-0.2,5.7-0.6c0.3-0.1,0.4,0,0.4,0.2
				c0.1,0.4,0.3,1.5,0.3,2.1c0,0.2-0.1,0.3-0.4,0.3c-2,0.4-3.9,0.5-6.2,0.5c-4.9,0-7.2-1.5-7.2-4.2c0-0.9,0.3-1.8,1.1-3
				C148.7,23.5,149.2,23.7,149.8,24z M154.5,15.8c1.5,0,3-0.1,4.4-0.2c0.2,0,0.3,0.1,0.3,0.2c0.1,0.5,0.2,1.1,0.2,1.8
				c0,0.3-0.1,0.4-0.4,0.4c-2,0.3-3.4,1-5.1,2.1c-0.2,0.1-0.4,0.2-0.5,0.2c-0.1,0-0.3,0-0.4-0.1c-0.4-0.3-0.9-0.5-1.5-0.7
				c1.1-0.7,2-1.3,2.8-1.7c-0.5,0.1-1.1,0.1-1.5,0.1c-0.9,0-2.7-0.1-3.9-0.4c-0.2,0-0.3-0.1-0.3-0.4c0-0.5,0-1.1,0.1-1.9
				C150.2,15.6,152.2,15.8,154.5,15.8z M160.2,13.5c0.1-0.1,0.2-0.1,0.3,0c0.7,0.5,1.4,1.3,2,2.2c0.1,0.1,0.1,0.2-0.1,0.3l-0.9,0.7
				c-0.1,0.1-0.3,0.1-0.4-0.1c-0.6-1-1.3-1.8-2.1-2.4L160.2,13.5z M162.1,12.1c0.1-0.1,0.2-0.1,0.3,0c0.8,0.6,1.5,1.4,2,2.2
				c0.1,0.1,0.1,0.3-0.1,0.4l-0.8,0.7c-0.2,0.1-0.3,0.1-0.4-0.1c-0.6-0.9-1.2-1.7-2.1-2.4L162.1,12.1z"/>
		</g>
		<g class="st2">
			<path d="M173.1,13.6c0.3,0.1,0.4,0.2,0.4,0.3c0,0.3-0.1,0.6-0.1,0.9c0,0.4,0.1,0.9,0.1,1.4c0.2,1.5,0.4,2.5,0.7,3.6
				c1-0.6,1.8-1,3-1.6c0.6-0.4,1.1-0.7,1.4-1.1c0.7,0.7,1.2,1.4,1.5,2c0.1,0.1,0.1,0.3,0.1,0.4c0,0.2-0.1,0.4-0.4,0.4
				c-0.6,0.1-1.3,0.4-2,0.6c-1.8,0.7-3.5,1.5-4.9,2.5c-1.8,1.2-2.5,2.2-2.5,3.2c0,1.2,0.9,1.8,3.3,1.8c2.6,0,4.8-0.2,6.4-0.5
				c0.2,0,0.3,0,0.4,0.3c0.1,0.6,0.2,1.3,0.2,2c0,0.2-0.1,0.3-0.4,0.4c-1.9,0.3-3.6,0.3-6.3,0.3c-4,0-6.1-1.3-6.1-4
				c0-2.3,1.5-3.9,4-5.4c-0.5-1.6-0.9-3.5-1.1-5.1c-0.1-1.1-0.3-1.8-0.5-2.4C171.4,13.3,172.3,13.4,173.1,13.6z"/>
		</g>
		<g class="st2">
			<path d="M196.7,17.1c-0.5,3.6-1.4,6.8-2.6,9c-0.9,1.6-2,2.4-3.6,2.4c-1.8,0-3.7-2-3.7-5.4c0-2,0.9-3.9,2.4-5.5
				c1.8-1.8,4-2.7,6.8-2.7c5,0,8,3.1,8,7.3c0,3.9-2.2,6.4-6.5,7.6c-0.4,0.1-0.6,0-0.9-0.4c-0.2-0.4-0.7-0.8-1.5-1.3
				c3.5-0.8,6.3-2.3,6.3-6.3C201.5,19.5,199.6,17.1,196.7,17.1L196.7,17.1z M190.7,19.1c-1,1.1-1.6,2.5-1.6,3.9c0,1.9,0.8,3,1.4,3
				c0.5,0,1-0.3,1.6-1.3c0.9-1.7,1.9-4.7,2.2-7.5C192.8,17.5,191.7,18.1,190.7,19.1z"/>
		</g>
		<g class="st2">
			<path d="M220.3,12.8c0.3-0.1,0.3-0.1,0.4,0.1c1.4,3.2,3.9,6.1,6.8,7.7c-0.4,0.3-0.9,1-1.2,1.6c-0.2,0.3-0.3,0.5-0.4,0.5
				c-0.1,0-0.2-0.1-0.4-0.3c-0.7-0.5-1.4-1.1-2-1.7c0,0.6,0,1.3-0.1,2.1c-0.1,2.2-0.2,3.9-0.5,5.9c-0.3,1.7-1.1,2.6-3.1,2.6
				c-0.5,0-0.9,0-1.4,0c-0.7,0-0.6,0-0.8-0.7c-0.1-0.7-0.4-1.3-0.7-1.7c1,0.1,1.7,0.2,2.4,0.2c0.9,0,1.2-0.3,1.4-1.3
				c0.2-1.2,0.4-2.8,0.4-5.2h-3.7c-0.4,4.2-2.5,7.2-6.4,8.9c-0.2,0.1-0.4,0.2-0.5,0.2c-0.2,0-0.2-0.1-0.4-0.5
				c-0.3-0.5-0.7-1-1.1-1.3c3.8-1.4,5.7-3.6,6.1-7.3h-0.3c-2,0-2.6,0-2.8,0c-0.2,0-0.2,0-0.2-0.2v-1.5c-0.7,0.6-1.3,1.2-2,1.7
				c-0.2,0.2-0.4,0.3-0.5,0.3c-0.1,0-0.2-0.1-0.4-0.5c-0.3-0.5-0.8-1-1.2-1.3c2.8-1.8,4.9-4.3,6.1-6.9c0.2-0.4,0.3-0.8,0.4-1.3
				c0.8,0.2,1.6,0.5,2.2,0.7c0.2,0.1,0.3,0.2,0.3,0.4c0,0.1-0.1,0.2-0.2,0.3c-0.2,0.2-0.3,0.4-0.5,0.7c-1.1,2.3-2.3,4.1-3.8,5.6
				c0.3,0,1,0,2.6,0h5.6c1.8,0,2.5,0,2.7,0c-2-2-3.5-4.3-4.5-6.7c-0.1-0.2,0-0.3,0.2-0.4L220.3,12.8z"/>
		</g>
		<g class="st2">
			<path d="M236.4,18.1c0.8,1,1.9,1.8,3.1,2.4c-0.2,0.3-0.5,0.7-0.7,1.1c-0.1,0.3-0.2,0.5-0.4,0.5c-0.1,0-0.2-0.1-0.5-0.3
				c-0.9-0.8-1.7-1.5-2.3-2.6c0,1.7,0.1,2.1,0.1,2.3s0,0.2-0.2,0.2h-1.4c-0.2,0-0.2,0-0.2-0.2c0-0.2,0.1-0.6,0.1-2.1
				c-0.8,1.1-1.7,1.9-2.8,2.8c-0.2,0.2-0.4,0.3-0.5,0.3c-0.1,0-0.2-0.1-0.4-0.4c-0.2-0.5-0.5-0.9-0.8-1.2c1.5-0.8,2.7-1.7,3.6-2.8
				h-0.4c-1.8,0-2.4,0-2.5,0c-0.2,0-0.2,0-0.2-0.2v-1.2c0-0.2,0-0.2,0.2-0.2c0.1,0,0.7,0,2.5,0h1V15c0-1,0-1.5-0.1-2.5
				c0.8,0,1.3,0.1,2,0.1c0.2,0,0.3,0.1,0.3,0.2c0,0.2-0.1,0.3-0.1,0.5c-0.1,0.3-0.1,0.7-0.1,1.7v1.6h0.9c1.8,0,2.4,0,2.5,0
				c0.2,0,0.2,0,0.2,0.2V18c0,0.2,0,0.2-0.2,0.2c-0.1,0-0.7,0-2.5,0H236.4z M232.7,25.7c-1.8,0-2.4,0-2.5,0c-0.2,0-0.2,0-0.2-0.2
				v-1.3c0-0.2,0-0.2,0.2-0.2c0.1,0,0.7,0,2.5,0h1c0-0.7,0.1-1.2,0-1.8c0.8,0.1,1.4,0.1,1.9,0.2c0.2,0,0.4,0.1,0.4,0.3
				c0,0.1-0.1,0.2-0.1,0.3c-0.1,0.1-0.1,0.4-0.2,1.1h1c1.8,0,2.4,0,2.5,0c0.2,0,0.3,0,0.3,0.2v1.3c0,0.2,0,0.2-0.3,0.2
				c-0.1,0-0.7,0-2.5,0H236c0.8,1.3,1.8,2.1,3.1,2.7c-0.5,0.4-0.8,0.8-1,1.1c-0.2,0.3-0.3,0.5-0.5,0.5c-0.1,0-0.3-0.1-0.5-0.3
				c-1-0.8-1.7-1.6-2.3-2.6c-0.7,1.6-1.8,2.8-3.3,3.7c-0.2,0.1-0.3,0.2-0.4,0.2c-0.1,0-0.3-0.1-0.5-0.5c-0.3-0.4-0.6-0.8-1-1.1
				c2-0.8,3.2-2,3.7-3.7H232.7z M231.6,13.2c0.2-0.1,0.3-0.1,0.4,0.1c0.4,0.5,0.8,1.3,1.2,2c0.1,0.2,0.1,0.3-0.2,0.4l-1,0.5
				c-0.3,0.1-0.3,0.1-0.4-0.1c-0.3-0.7-0.7-1.4-1.1-2c-0.1-0.2-0.2-0.3,0.1-0.4L231.6,13.2z M237,14c0.1-0.3,0.3-0.6,0.3-0.9
				c0.5,0.1,1.2,0.4,1.6,0.6c0.2,0.1,0.2,0.2,0.2,0.3s0,0.2-0.2,0.3c-0.1,0.1-0.2,0.3-0.3,0.4c-0.2,0.4-0.4,0.8-0.7,1.3
				c-0.2,0.3-0.3,0.4-0.4,0.4c-0.1,0-0.2-0.1-0.4-0.2c-0.4-0.2-0.8-0.3-1-0.4C236.5,15.1,236.8,14.5,237,14z M243.2,28.5
				c0.2,0.1,0.2,0.2,0.2,0.3c0,0.1-0.1,0.2-0.3,0.3c-0.2,0.1-0.3,0.2-0.5,0.4c-0.9,0.8-1.6,1.2-2.8,1.9c-0.3,0.1-0.4,0.2-0.5,0.2
				c-0.2,0-0.3-0.1-0.5-0.5c-0.3-0.4-0.6-0.8-0.9-1.1c1.6-0.6,2.3-1,3.1-1.7c0.3-0.2,0.5-0.4,0.7-0.7
				C242.3,27.9,242.8,28.2,243.2,28.5z M242.3,15.1c-1.9,0-2.5,0-2.6,0c-0.2,0-0.2,0-0.2-0.2v-1.5c0-0.2,0-0.2,0.2-0.2
				c0.1,0,0.8,0,2.6,0h3.9c1.9,0,2.5,0,2.6,0c0.2,0,0.2,0,0.2,0.2v1.5c0,0.2,0,0.2-0.2,0.2c-0.1,0-0.8,0-2.6,0h-1
				c-0.2,0.6-0.4,1.1-0.7,1.6h1c1.7,0,2.3,0,2.4,0c0.2,0,0.2,0,0.2,0.2c0,0.1,0,0.9,0,2.5v5.6c0,1.6,0,2.3,0,2.4
				c0,0.2,0,0.3-0.2,0.3c-0.1,0-0.7,0-2.4,0h-2.8c-1.7,0-2.3,0-2.4,0c-0.2,0-0.3,0-0.3-0.3c0-0.1,0-0.8,0-2.4v-5.5
				c0-1.7,0-2.4,0-2.5c0-0.2,0-0.2,0.3-0.2c0.1,0,0.7,0,2.1,0c0.3-0.5,0.4-1,0.6-1.6H242.3z M242.1,19.8h4v-1.3h-4V19.8z
				 M246.1,22.7v-1.4h-4v1.4H246.1z M246.1,24.3h-4v1.5h4V24.3z M245.6,27.8c0.1-0.1,0.2-0.1,0.3-0.1c0.1,0,0.1,0,0.2,0.1
				c1.1,1,2.2,1.6,3.5,2.1c-0.3,0.3-0.6,0.7-0.9,1.2c-0.2,0.4-0.3,0.5-0.5,0.5c-0.1,0-0.3-0.1-0.5-0.2c-1.3-0.7-2.1-1.4-3-2.3
				c-0.1-0.1-0.1-0.1-0.1-0.2s0-0.1,0.2-0.3L245.6,27.8z"/>
		</g>
		<g class="st2">
			<path d="M261.4,17.4c-2.6,0.5-4.8,0.9-7.1,1.4c-0.8,0.2-1,0.2-1.3,0.3c-0.1,0.1-0.3,0.2-0.5,0.2c-0.1,0-0.3-0.1-0.4-0.3
				c-0.3-0.6-0.5-1.3-0.8-2.3c1.1,0,1.7-0.1,3.3-0.4c2.6-0.4,7.2-1.1,12.6-1.8c0.3,0,0.4,0.1,0.4,0.2c0.1,0.5,0.2,1.3,0.2,1.8
				c0,0.3-0.1,0.3-0.4,0.3c-1,0.1-1.7,0.2-2.6,0.5c-3.6,1.2-5.4,3.7-5.4,6.2c0,2.7,1.9,4.2,5.6,4.4c0.3,0,0.5,0.1,0.5,0.3
				c0,0.5-0.1,1.3-0.2,1.8c-0.1,0.3-0.1,0.4-0.4,0.4c-3.7,0-7.7-2.1-7.7-6.5C257.4,21.1,258.9,19.1,261.4,17.4L261.4,17.4z
				 M265.6,19.6c0.1-0.1,0.2-0.1,0.3,0c0.7,0.5,1.4,1.3,2,2.2c0.1,0.1,0.1,0.2-0.1,0.3l-0.9,0.7c-0.1,0.1-0.3,0.1-0.4-0.1
				c-0.6-1-1.3-1.8-2.1-2.4L265.6,19.6z M267.5,18.3c0.1-0.1,0.2-0.1,0.3,0c0.8,0.6,1.5,1.4,2,2.2c0.1,0.1,0.1,0.3-0.1,0.4l-0.8,0.7
				c-0.2,0.1-0.3,0.1-0.4-0.1c-0.6-0.9-1.2-1.7-2.1-2.4L267.5,18.3z"/>
		</g>
		<g class="st2">
			<path d="M287.3,19.4c0-0.5,0-0.9,0-1.4c1.1,0.3,1.9,0.6,2.4,0.9c0.2,0.1,0.3,0.4,0.1,0.6c-0.1,0.3-0.3,0.5-0.3,0.8
				c-0.2,0.9-0.4,1.8-0.6,2.7c1.2,0.6,2.5,1.4,3.3,2c0.2,0.1,0.2,0.2,0.1,0.4c-0.2,0.5-0.7,1.4-0.9,1.8c-0.1,0.1-0.1,0.1-0.2,0.1
				c-0.1,0-0.2-0.1-0.3-0.1c-0.9-0.8-1.8-1.4-2.8-2c-1.1,2.4-2.2,3.9-4.2,5.5c-0.2,0.1-0.3,0.2-0.4,0.2c-0.1,0-0.2,0-0.3-0.1
				c-0.6-0.5-1.1-0.7-1.8-0.9c2.6-1.8,3.9-3.6,4.7-5.7c-1.2-0.6-2.6-1-4.2-1.3c-1.1,2.3-1.7,3.4-2.6,4.2c-0.8,0.8-1.6,1.2-2.7,1.2
				c-1.2,0-2.5-0.8-2.5-2.9c0-2.6,2.7-4.6,6.2-4.6c0.7-1.7,1.2-3.2,1.7-5c-1.2,0.1-2.2,0.3-2.9,0.3c-0.3,0-0.6,0.1-0.9,0.2
				c-0.1,0-0.3,0.1-0.4,0.1c-0.2,0-0.3-0.1-0.3-0.2c-0.2-0.4-0.4-1.2-0.6-2.3c0.6,0.1,1.2,0.1,1.8,0.1c1,0,2.1-0.1,3.3-0.3
				c0.5-0.1,0.8-0.2,1-0.4c0.1-0.1,0.2-0.1,0.3-0.1c0.1,0,0.2,0,0.3,0.1c0.5,0.3,1,0.7,1.4,1.2c0.1,0.1,0.2,0.2,0.2,0.4
				s-0.1,0.2-0.2,0.4c-0.3,0.3-0.4,0.7-0.6,1.1c-0.5,1.4-1.1,3.1-1.8,4.6c1.3,0.2,2.6,0.5,4.1,1C287,21.2,287.2,20.4,287.3,19.4z
				 M276.2,25.3c0,0.7,0.2,1,0.7,1c0.4,0,0.8-0.3,1.2-0.8c0.5-0.6,1-1.4,1.5-2.6C277.5,23,276.2,24.1,276.2,25.3z"/>
		</g>
		<g class="st2">
			<path d="M300.5,21.2c1.2-0.7,2.2-0.9,3.3-0.9c3.1,0,5.2,2,5.2,5c0,3.5-2.8,5.8-7.3,5.8c-2.6,0-4.2-1.1-4.2-3.1
				c0-1.4,1.3-2.6,3-2.6c2,0,3.4,1,3.9,3.1c1.5-0.7,2.1-1.6,2.1-3.2c0-1.9-1.3-3.2-3.3-3.2c-1.7,0-3.7,0.8-5.4,2.2
				c-0.6,0.5-1.2,1.2-1.8,1.8c-0.1,0.1-0.3,0.2-0.4,0.2c-0.1,0-0.2-0.1-0.3-0.2c-0.4-0.4-0.9-0.9-1.2-1.4c-0.1-0.2-0.1-0.3,0.1-0.5
				c1.6-1.3,3.1-2.7,5-4.6c1.3-1.3,2.3-2.4,3.3-3.6c-1.3,0.2-2.8,0.5-4.1,0.8c-0.3,0.1-0.5,0.1-0.9,0.3c-0.1,0-0.3,0.1-0.4,0.1
				c-0.2,0-0.4-0.1-0.5-0.4c-0.3-0.5-0.4-1.1-0.7-2.3c0.6,0.1,1.3,0.1,2,0c1.3-0.1,3.1-0.4,4.8-0.7c0.5-0.1,0.9-0.2,1.2-0.3
				c0.1-0.1,0.3-0.2,0.4-0.2c0.2,0,0.3,0.1,0.5,0.2c0.6,0.5,1,0.9,1.4,1.3c0.2,0.2,0.2,0.3,0.2,0.5c0,0.2-0.1,0.4-0.4,0.5
				c-0.4,0.2-0.5,0.3-0.9,0.7C303.4,18.1,302,19.6,300.5,21.2L300.5,21.2z M300.5,27.1c-0.6,0-1,0.4-1,0.8c0,0.7,0.6,1.1,1.8,1.1
				c0.4,0,0.7,0,1-0.1C302,27.8,301.4,27.1,300.5,27.1z"/>
		</g>
		<g class="st2">
			<path d="M325.9,22.5h-12.8v-1.2h12.8V22.5z"/>
		</g>
		<g class="st2">
			<path class="st3" d="M338.8,19.2c0.3-0.1,0.3-0.1,0.4,0.1c0.6,1.3,1.1,2.4,1.4,3.8c0.1,0.2,0,0.3-0.3,0.4l-1,0.3
				c-0.3,0.1-0.3,0.1-0.4-0.2l-0.2-0.9l-1.3,0.1v5.8c0,1.9,0,2.6,0,2.8c0,0.2,0,0.2-0.2,0.2h-1.6c-0.2,0-0.2,0-0.2-0.2
				c0-0.1,0-0.8,0-2.8V23l-1.9,0.1c-0.4,0-0.6,0.1-0.8,0.2c-0.1,0-0.2,0.1-0.3,0.1c-0.1,0-0.2-0.1-0.2-0.4c-0.1-0.5-0.2-1.1-0.3-1.8
				c0.6,0,1.2,0.1,1.8,0c0.4-0.5,0.8-1,1.2-1.6c-0.8-1-1.8-2.1-2.8-3c-0.1-0.1-0.1-0.1-0.1-0.2s0.1-0.1,0.1-0.3l0.7-1
				c0.1-0.1,0.1-0.2,0.2-0.2c0.1,0,0.1,0,0.2,0.1l0.5,0.6c0.4-0.7,0.8-1.4,1.1-2.2c0.3-0.6,0.4-0.9,0.5-1.3c0.6,0.2,1.3,0.5,1.8,0.8
				c0.2,0.1,0.3,0.2,0.3,0.3c0,0.1-0.1,0.2-0.2,0.3c-0.2,0.1-0.3,0.2-0.4,0.5c-0.7,1.2-1.2,2-1.8,2.9c0.3,0.4,0.7,0.7,1,1.1
				c0.5-0.8,0.9-1.6,1.4-2.3c0.3-0.5,0.5-1,0.6-1.4c0.6,0.3,1.3,0.6,1.8,0.9c0.2,0.1,0.3,0.2,0.3,0.3c0,0.1-0.1,0.2-0.2,0.3
				c-0.2,0.1-0.4,0.4-0.7,0.8c-1.1,1.7-2.2,3.3-3.2,4.6c0.8,0,1.5-0.1,2.3-0.2c-0.1-0.4-0.3-0.8-0.5-1.2c-0.1-0.2-0.1-0.3,0.2-0.4
				L338.8,19.2z M332.8,25.4c0-0.4,0.1-0.7,0-1.2c0.5,0.1,1.3,0.2,1.6,0.3c0.3,0.1,0.4,0.1,0.4,0.3s0,0.2-0.1,0.3
				c-0.1,0.1-0.1,0.4-0.1,0.7c-0.1,1.2-0.4,2.7-0.7,3.9c-0.1,0.3-0.2,0.5-0.3,0.5c-0.1,0-0.2-0.1-0.4-0.2c-0.4-0.3-0.8-0.4-1.2-0.5
				C332.4,28.1,332.6,26.8,332.8,25.4z M339.3,24.3c0.3-0.1,0.3,0,0.4,0.2c0.3,1.1,0.7,2.3,0.8,3.5c0,0.2,0,0.3-0.3,0.4l-1,0.3
				c-0.3,0.1-0.4,0.1-0.4-0.1c-0.1-1.4-0.4-2.6-0.7-3.6c-0.1-0.2,0-0.3,0.3-0.3L339.3,24.3z M346.3,26.3v2.8h2c2,0,2.7,0,2.8,0
				c0.2,0,0.3,0,0.3,0.2v1.5c0,0.2,0,0.2-0.3,0.2c-0.1,0-0.8,0-2.8,0h-5.8c-2,0-2.7,0-2.8,0c-0.2,0-0.2,0-0.2-0.2v-1.5
				c0-0.2,0-0.2,0.2-0.2c0.1,0,0.8,0,2.8,0h1.7v-2.8h-0.7c-1.8,0-2.4,0-2.5,0c-0.2,0-0.2,0-0.2-0.2v-1.4c0-0.2,0-0.2,0.2-0.2
				c0.1,0,0.7,0,2.5,0h0.7v-0.5c0-0.9,0-1.6-0.1-2.2c0.8,0,1.4,0.1,2.1,0.2c0.2,0,0.3,0.1,0.3,0.2c0,0.1,0,0.2-0.1,0.4
				c-0.1,0.2-0.1,0.6-0.1,1.3v0.6h1.2c1.8,0,2.4,0,2.5,0c0.2,0,0.3,0,0.3,0.2v1.4c0,0.2,0,0.2-0.3,0.2c-0.1,0-0.7,0-2.5,0H346.3z
				 M348.1,13.4c0.2,0,0.4,0,0.5-0.1c0.1,0,0.2-0.1,0.3-0.1c0.1,0,0.4,0.1,0.9,0.6c0.5,0.5,0.7,0.7,0.7,0.8c0,0.1-0.1,0.2-0.3,0.4
				c-0.2,0.1-0.4,0.5-0.6,0.9c-0.7,1.3-1.4,2.5-2.5,3.4c1.2,0.6,2.5,1.1,4.2,1.4c-0.3,0.4-0.5,0.9-0.7,1.6c-0.1,0.4-0.1,0.5-0.3,0.5
				c-0.1,0-0.3,0-0.5-0.1c-1.6-0.5-3-1.2-4.3-2c-1,0.7-2.2,1.3-3.6,1.8c-0.3,0.1-0.4,0.1-0.5,0.1c-0.2,0-0.3-0.1-0.4-0.4
				c-0.3-0.6-0.5-0.9-0.9-1.3c1.4-0.4,2.7-0.9,3.8-1.6c-1.1-1.1-1.9-2.5-2.6-4.1c-0.7,0-1,0-1.1,0c-0.2,0-0.2,0-0.2-0.2v-1.4
				c0-0.2,0-0.2,0.2-0.2c0.1,0,0.7,0,2.6,0H348.1z M343.4,15.1c0.5,1.2,1.2,2.2,2.1,3c0.9-0.8,1.7-1.8,2.2-3H343.4z"/>
			<path class="st3" d="M355.1,18.1c0.2-0.2,0.2-0.2,0.4-0.1c1,0.6,2,1.3,3,2.1c0.1,0.1,0.1,0.1,0.1,0.2c2-0.2,3.8-0.6,5.4-1.1
				c-1-0.8-2-1.7-2.7-2.9c-1,0-1.4,0-1.5,0c-0.2,0-0.3,0-0.3-0.2v-1.4c0-0.2,0-0.2,0.3-0.2c0.1,0,0.8,0,2.9,0h2.1v-0.3
				c0-0.7,0-1.3-0.1-2c0.8,0,1.5,0.1,2.2,0.1c0.2,0,0.3,0.1,0.3,0.2c0,0.2-0.1,0.3-0.1,0.4c-0.1,0.2-0.1,0.4-0.1,1.2v0.3h2.9
				c2.1,0,2.8,0,2.9,0c0.2,0,0.2,0,0.2,0.2v1.4c0,0.2,0,0.2-0.2,0.2c-0.1,0-0.7,0-2.2,0c-0.7,1.1-1.6,2-2.6,2.8
				c1.6,0.6,3.6,0.9,5.6,1.1c-0.2,0.3-0.5,0.9-0.6,1.4c-0.1,0.6-0.2,0.6-0.8,0.5c-0.5-0.1-0.9-0.1-1.3-0.2v6.7c0,1.7,0,2.5,0,2.6
				c0,0.2,0,0.2-0.3,0.2h-1.7c-0.2,0-0.2,0-0.2-0.2c0-0.1,0-0.9,0-2.6v-1.1h-6.1c-0.4,1.5-1.1,2.7-2.2,3.6c-0.3,0.2-0.4,0.3-0.5,0.3
				s-0.3-0.1-0.5-0.3c-0.4-0.4-0.9-0.8-1.3-1c1.3-0.9,2.1-2,2.6-3.7c0.3-1.2,0.4-2.5,0.4-4.6c-0.4,0.1-0.8,0.1-1.2,0.2
				c-0.6,0.1-0.6,0.1-0.8-0.5c-0.1-0.5-0.3-0.9-0.5-1.2l-1,1.4c-0.1,0.1-0.1,0.1-0.2,0.1c0,0-0.1,0-0.2-0.1
				c-0.9-0.9-1.9-1.7-2.9-2.3c-0.1-0.1-0.2-0.1-0.2-0.1c0-0.1,0.1-0.1,0.1-0.3L355.1,18.1z M355.3,28.4c0.6-1.2,1.3-2.8,2-4.9
				c0.3,0.3,0.8,0.7,1.2,1c0.3,0.3,0.4,0.4,0.4,0.5c0,0.1,0,0.3-0.1,0.5c-0.6,1.6-1.3,3.3-2,4.6c-0.2,0.4-0.3,0.6-0.3,0.8
				c0,0.2-0.1,0.3-0.3,0.3c-0.1,0-0.2,0-0.4-0.1c-0.5-0.3-1-0.7-1.6-1.2C354.6,29.5,354.9,29.1,355.3,28.4z M355.9,12.9
				c0.2-0.2,0.2-0.2,0.4-0.1c1,0.6,2,1.3,2.9,2.2c0.1,0.1,0.1,0.1,0.1,0.2s0,0.1-0.1,0.3l-0.9,1.3c-0.2,0.2-0.2,0.2-0.4,0.1
				c-0.9-0.9-2-1.8-3-2.4c-0.1-0.1-0.1-0.1-0.1-0.1c0-0.1,0-0.1,0.1-0.3L355.9,12.9z M368.7,25.8v-1.6h-5.6c0,0.6-0.1,1.1-0.1,1.6
				H368.7z M363.2,22.5h5.5v-1c-1-0.3-2-0.7-2.9-1.1c-0.8,0.4-1.7,0.8-2.7,1V22.5z M363.6,16.4c0.6,0.8,1.4,1.4,2.3,1.9
				c0.9-0.5,1.6-1.2,2.2-1.9H363.6z"/>
		</g>
		<circle class="st1" cx="54.6" cy="71.7" r="52.5"/>
		<path d="M69.4,57c-3.2-2.6-2.4-7.2,1.7-12.4c0.3-0.4,0-1-0.6-1H38.7c-0.6,0-1,0.6-0.6,1c4.2,5.2,4.9,9.8,1.7,12.4
			c-3.4,2.7-9.2,7-9.2,15.4s3.5,15.1,7.8,20.9c2.6,3.3,4.9,6.9,7,10.5h18.4c2.1-3.6,4.4-7.2,7-10.5c4.3-5.8,7.8-12.5,7.8-20.9
			S72.8,59.7,69.4,57z"/>
	</g>
</g>
</svg>
