<svg xmlns="http://www.w3.org/2000/svg" viewBox="0 0 402.07 109.21"><defs><style>.cls-1,.cls-2{fill:#fff;stroke:#000;stroke-miterlimit:10;}.cls-1{stroke-width:4.3px;}.cls-2{stroke-width:4.3px;}</style></defs><title>アセット 46</title><g id="レイヤー_2" data-name="レイヤー 2"><g id="レイヤー_1-2" data-name="レイヤー 1"><rect class="cls-1" x="53.07" y="23.12" width="346.85" height="69.43"/><circle class="cls-2" cx="54.61" cy="54.61" r="52.46"/><rect x="52.83" y="14.53" width="3.55" height="11.67"/><path d="M58.21,88.2c1.12-12,5.85-10.58,10.3-.26H77.9c-4.1-4.2-10.71-15.48-13-22H44.26c-2.23,6.54-8.85,17.82-12.95,22H40.7c4.45-10.32,9.19-11.72,10.3.26Z"/><path d="M48.21,52.87H61c-.44-2.54-.72-5-.89-7.22h-11C48.93,47.9,48.65,50.33,48.21,52.87Z"/><path d="M49.37,34.25H59.85c0-2.38,0-4.37,0-5.86H49.35C49.35,29.88,49.4,31.87,49.37,34.25Z"/><rect x="46.01" y="36.98" width="17.19" height="5.95"/><rect x="41.34" y="55.6" width="26.53" height="8.04"/></g></g></svg>