<?xml version="1.0" encoding="utf-8"?>
<!-- Generator: Adobe Illustrator 23.0.1, SVG Export Plug-In . SVG Version: 6.00 Build 0)  -->
<svg version="1.1" id="レイヤー_1" xmlns="http://www.w3.org/2000/svg" xmlns:xlink="http://www.w3.org/1999/xlink" x="0px"
	 y="0px" viewBox="0 0 401.6 126.6" style="enable-background:new 0 0 401.6 126.6;" xml:space="preserve">
<style type="text/css">
	.st0{fill:#FFFFFF;stroke:#000000;stroke-width:4.21;stroke-miterlimit:10;}
	.st1{fill:#FFFFFF;stroke:#000000;stroke-width:4.3;stroke-miterlimit:10;}
	.st2{enable-background:new    ;}
	.st3{fill:#30C0A9;}
	.st4{fill:#060001;}
</style>
<title>アセット 188</title>
<g>
	<g id="レイヤー_1-2">
		<polygon class="st0" points="399.5,40.5 41.2,40.5 59.9,2.1 399.5,2.1 		"/>
		<rect x="52.6" y="40.5" class="st1" width="346.9" height="69.4"/>
		<g class="st2">
			<path d="M198.4,88.9c0,0.3,0,0.5-2.1,0.5c-1.5,0-1.6-0.2-1.6-0.5v-0.1c0-0.5,0-1.1,0-1.6c-1.2,0-4.7-0.1-5.7-0.1
				c-1,0-4.7,0.1-5.9,0.1l0.1,1.8c0,0.5-0.1,0.6-1.9,0.6c-1.7,0-1.8-0.1-1.8-0.5v-0.2c0.3-2.5,0.3-6.3,0.3-7.4c0-2.2,0-4-0.1-5.8
				c0-0.1,0-0.2,0-0.3c0-0.1,0-0.1,0.2-0.1c0.1,0,0.2,0,0.3,0c1.2,0.1,4.5,0.1,6.9,0.1c0-1.7,0-3.2,0-5.1c-3.1,0-6.7,0.1-12.5,0.4
				c-0.4,0-0.5-0.2-0.5-1.6c0-1.9,0-2,0.5-2c5.8,0.3,9.4,0.4,12.5,0.4v-1.7c-0.1-2.4-0.2-3.9-0.4-5.4v-0.2c0-0.2,0-0.2,0.2-0.2
				c0.8,0.1,4.5,0.4,4.5,1.2c0,0.2-0.1,0.5-0.4,0.9c-0.5,0.8-0.5,1.2-0.6,2.6v2.8c3.2,0,7.1-0.1,13-0.4c0.4,0,0.4,0.1,0.4,1.8
				c0,0.6,0,1.2,0,1.5c0,0.2-0.2,0.2-0.4,0.2c-5.7-0.3-9.7-0.3-13-0.4v5.1c2.2,0,5.4-0.1,7.4-0.2c0.4,0,0.5,0.1,0.5,0.4v0.1
				c-0.1,1.9-0.2,3.6-0.2,4.9c0,4.5,0.1,6.5,0.2,8.1V88.9z M194.8,81.3c0-1,0-3,0-3s-2.9,0-4.7,0H189c-1.3,0-5.9,0-5.9,0
				s0,1.8,0,3.1v2.8c1.3,0,5.1,0.1,5.9,0.1c0.9,0,4.6-0.1,5.8-0.1V81.3z"/>
			<path d="M232.2,70c0,0.3,0.1,0.7,0.1,1.1v0c0,0.1-0.1,0.2-0.2,0.2c-0.3,0-0.7,0.1-1.1,0.1c-1.3,0-1.6,0-1.6-0.3
				c0.1-0.5,0.1-0.7,0.2-1.1c-1.1,0-1.9,0-2.6,0h-2c0,0.4,0.1,0.8,0.1,1.2v0c0,0.1-0.1,0.2-0.2,0.2c-0.3,0-0.7,0.1-1.1,0.1
				c-1.3,0-1.6,0-1.6-0.3c0.1-0.4,0.1-0.6,0.2-1c-1,0-2.2,0.1-3.6,0.2v0.6c0,0.5,0,1.1,0,1.4c0,0.2-0.2,0.2-0.3,0.2l-3-0.1
				c0,0.9,0,3.5,0.1,5.5c1.5-0.5,2.7-1.1,3.3-1.3c0.1,0,0.2-0.1,0.2-0.1c0.1,0,0.1,0.1,0.1,0.3c0,0.3,0,0.7,0,1.2c0,0.3,0,0.6,0.1,1
				v0.1c0,0.3-0.2,0.5-8.8,4c-0.4,0.2-0.7,0.6-1.1,0.6c-0.1,0-0.3-0.1-0.4-0.2c-1.9-2.4-2.1-2.7-2.1-2.9c0-0.1,0.2-0.2,0.4-0.2
				c1.1-0.1,3.1-0.7,5.2-1.4c0-2.3,0.1-5.5,0.1-6.6c-1.2,0-2.3,0.1-3.6,0.2c-0.3,0-0.4-0.1-0.4-1.4c0-0.6,0-1.3,0-1.5
				c0-0.2,0.1-0.3,0.3-0.3h0.1c1.3,0.1,2.4,0.2,3.6,0.3c0-2.8,0-6.6-0.4-8.8v-0.1c0-0.1,0-0.1,0.1-0.1c0.2,0,4.3,0.3,4.3,1.1
				c0,0.4-0.4,0.9-0.6,1.3c-0.2,0.4-0.2,0.5-0.4,6.6c0.9,0,1.6-0.1,2.8-0.2c0-1.4,0-1.8,0.3-1.8h0.1c1.5,0.1,2.8,0.2,3.8,0.2
				c0-0.5-0.1-1-0.3-1.7c0,0,0-0.1,0-0.1c0-0.1,0.1-0.1,0.2-0.1c3.2,0.3,3.4,0.6,3.4,0.8s-0.3,0.5-0.5,0.8c-0.1,0.1-0.1,0.3-0.2,0.4
				h4.6c0-0.5-0.1-1.1-0.3-1.8c0,0,0-0.1,0-0.1c0-0.1,0.1-0.1,0.2-0.1c1.4,0.1,3.4,0.3,3.4,0.8c0,0.2-0.2,0.5-0.4,0.8
				c-0.1,0.1-0.1,0.2-0.1,0.3c1.5,0,3.3-0.1,5.3-0.3c0.2,0,0.3,0.1,0.4,0.3c0,0.3,0,0.8,0,1.3c0,1.1-0.1,1.2-0.4,1.2L232.2,70z
				 M225.8,87.1c-0.4,0-0.5,0.1-0.8,0.3c-3.5,1.8-7.9,2.7-9.4,2.7c-0.2,0-0.5-0.1-0.6-0.3c-0.3-0.6-1.7-1.8-2.2-2.2
				c-0.1-0.1-0.2-0.2-0.2-0.3s0.1-0.1,0.4-0.1c6.3,0,10.4-2,11.1-2.5c0.1-0.1,0.2-0.2,0.2-0.2c0.1,0,2.2,1.8,2.2,2.2
				C226.5,86.9,226.2,87,225.8,87.1z M234.9,65.3c-3.1-0.2-4.9-0.3-6.4-0.3c0,0.5,0.1,1,0.2,1.5c0,0.2-0.1,0.3-1.4,0.3
				c-1.4,0-1.7-0.1-1.7-0.4c0.1-0.6,0.1-1,0.2-1.5c-1.2,0-2.6,0.1-5.6,0.3h-0.1c-0.3,0-0.3-0.2-0.3-1.3c0-1.5,0.1-1.5,0.4-1.5
				c3.2,0.3,4.5,0.3,5.6,0.3c0-1.8-0.2-2.6-0.3-3v-0.1c0-0.1,0-0.2,0.2-0.2c3.4,0.3,3.5,0.7,3.5,1c0,0.2-0.2,0.6-0.5,0.9
				c-0.2,0.2-0.3,1-0.3,1.4c1.4,0,3.1-0.1,6.4-0.3c0.2,0,0.3,0,0.3,1.6c0,0.4,0,0.7,0,1C235.2,65.2,235.1,65.3,234.9,65.3
				L234.9,65.3z M234,84.1c0,0.3-0.2,0.3-0.3,0.3c-2.8,0-2.9,0-2.9-0.3v-0.6c-0.6,0-1.9,0-3.8,0c-1.6,0-2.7,0-3.4,0
				c0,0.3,0,0.6,0,0.9v0.1c0,0.1-0.1,0.2-0.3,0.2c-0.3,0-0.9,0-1.3,0c-1.1,0-1.6-0.1-1.6-0.2v-0.1c0.2-2.3,0.4-3.9,0.4-5.7
				c0-4.8-0.1-5.7-0.2-6.8v-0.1c0-0.1,0-0.1,0.1-0.1h0.1c2.7,0.1,3.3,0.1,6.2,0.1c1.5,0,2.3,0,3.1,0c0.9,0,1.8,0,3.5-0.2h0.1
				c0.1,0,0.2,0.1,0.2,0.2v0.1c-0.1,1.5-0.1,2.7-0.1,3.9C233.7,80.1,233.8,81.8,234,84.1L234,84.1z M231,76.9c-0.6,0-1.9,0-3.9,0
				c-1.7,0-2.8,0-3.5,0v1.3c0.7,0,1.9,0,3.5,0c2,0,3.3,0,3.9,0V76.9z M230.9,81.5c0-0.4,0-0.9,0-1.4c-0.6,0-1.9,0-3.9,0
				c-1.7,0-2.8,0-3.5,0c0,0.5,0,0.9,0,1.4H230.9z M227,73.7c-2.7,0-3.4,0.1-3.4,0.1s0,0.5,0,1.2c0.7,0,1.9,0,3.5,0c2,0,3.3,0,3.9,0
				c0-0.7,0-1.2,0-1.2S229.7,73.7,227,73.7z M239.3,86.8c0,0.1-0.1,0.1-0.2,0.2c-0.6,0.4-2.1,1.6-2.6,2.4c-0.1,0.1-0.2,0.2-0.3,0.2
				c-0.1,0-0.1,0-0.2,0c-4.1-0.9-7.5-3-7.5-3.3c0-0.3,1.5-1.6,1.7-1.7c0.1-0.1,0.2-0.1,0.2-0.1c0,0,0.1,0,0.2,0.1
				c0.8,0.5,4.1,1.9,8.5,2C239.2,86.7,239.3,86.7,239.3,86.8z"/>
			<path d="M253.1,82.8c0,0.3-0.1,0.6-1.7,0.6c-0.9,0-1.6,0-1.6-0.5v-0.1c0-0.6,0-1.5,0.1-2.4c-0.4,0-1-0.1-1.5-0.1
				c-0.6,0-1.2,0-1.6,0.1c0,1.5,0,3,0.1,4.4c0,0.6-0.1,0.6-1.7,0.6c-1.7,0-1.7-0.2-1.7-0.5v-0.1c0.3-4.7,0.4-9.8,0.4-12.5
				c0-3.5-0.1-6.3-0.2-9c0-0.1,0-0.2,0-0.3c0-0.1,0.1-0.2,0.2-0.2c0.1,0,0.2,0,0.3,0c1.1,0.1,2.6,0.2,4.3,0.2c1.7,0,2-0.1,4.2-0.2
				c0.4,0,0.4,0.1,0.4,0.5c-0.2,2.7-0.2,5.8-0.2,8.7c0,2.5,0.1,8.1,0.3,10.7V82.8z M248.4,65.4c-1,0-1.5,0-1.5,0s-0.1,2.1-0.1,4.5
				c0.4,0,1.1,0,1.6,0c0.5,0,1.2,0,1.6,0c0-2.2-0.1-4.5-0.1-4.5s-0.3,0-1,0H248.4z M250,72.7c-0.4,0-1,0-1.6,0c-0.6,0-1.3,0-1.6,0
				c0,1.3,0,3,0,4.9c0.4,0,1.1,0,1.6,0s1.2,0,1.5,0C249.9,75.7,250,74,250,72.7z M271.8,72.9c-3.8-0.4-7.3-0.4-9.5-0.4
				c-2.2,0-3.9,0.1-8.4,0.3c-0.3,0-0.4-0.1-0.4-1.6c0-1.6,0-1.6,0.4-1.6c3.3,0.3,5.1,0.3,6.8,0.3v-2.7c-1.5,0-3,0.1-5.5,0.2
				c-0.3,0-0.4,0-0.4-1.5c0-1.4,0.1-1.5,0.4-1.5c2.4,0.2,3.9,0.2,5.3,0.2v-0.3c-0.1-2.2-0.1-3.4-0.5-5v-0.2c0-0.2,0-0.2,0.2-0.2
				c0.5,0,4.4,0.4,4.4,1.1c0,0.3-0.3,0.6-0.5,1c-0.4,0.7-0.3,0.6-0.5,2.9c0,0.2,0,0.4,0,0.7c1.3,0,2.6-0.1,5.2-0.2
				c0.2,0,0.4,0,0.4,1.6c0,0.5,0,1-0.1,1.3c0,0.1-0.2,0.2-0.3,0.2h0c-2.5-0.1-3.7-0.2-5.2-0.2V70c2.1,0,4.9-0.2,8-0.4
				c0.2,0,0.4,0.2,0.4,1.7c0,0.5,0,1.1-0.1,1.4C272.1,72.8,271.9,72.9,271.8,72.9L271.8,72.9z M267.2,85.9c0,2-1.1,4.2-5.1,4.2
				c-0.2,0-0.4-0.2-0.5-0.5c-0.6-1.5-1.8-2.1-2.7-3c-0.1-0.1-0.2-0.2-0.2-0.2c0,0,0-0.1,0.1-0.1c0,0,0.1,0,0.2,0
				c1.1,0.2,2,0.3,2.8,0.3c1.3,0,2-0.3,2-1.3c0.1-1.3,0.1-4,0.1-5.5v-2h-1.5c-2.2,0-3.9,0.1-8.3,0.3c-0.1,0-0.3-0.1-0.3-0.3
				c0-0.3,0-0.8,0-1.3c0-1.6,0-1.6,0.4-1.6c4.2,0.3,5.9,0.3,8.3,0.3h1.4c-0.1-0.8-0.1-1.5-0.3-2c0-0.1,0-0.1,0-0.1
				c0-0.1,0.1-0.2,0.3-0.2c0.1,0,4,0.3,4,1c0,0.1-0.1,0.3-0.3,0.5c-0.3,0.4-0.4,0.4-0.4,0.7c1.4-0.1,3-0.2,4.6-0.3h0
				c0.2,0,0.3,0.3,0.3,1.7c0,0.5,0,1.1-0.1,1.5c0,0.1-0.2,0.2-0.3,0.2h0c-1.7-0.2-3.3-0.3-4.7-0.3v2.9c0,1.8,0.2,3,0.2,4.9V85.9z
				 M259.7,84.4c-0.1,0-0.1-0.1-0.2-0.1c-1.5-1.8-3.6-3.2-4.2-3.6c-0.1-0.1-0.1-0.1-0.1-0.2c0-0.4,1.5-1.4,1.8-1.6
				c0.1-0.1,0.1-0.1,0.2-0.1c0.1,0,0.1,0,0.2,0.1c0.7,0.3,3.2,1.6,4.5,2.9c0.1,0.1,0.1,0.1,0.1,0.2c0,0.2-1.5,1.9-2,2.4
				C259.8,84.4,259.8,84.4,259.7,84.4z"/>
			<path d="M280.9,89.3c0.5-4.6,0.7-12,0.9-17.6c-0.3,0.4-3.8,4.7-4.6,4.7c-0.1,0-0.2,0-0.3-0.1c-0.7-0.5-2-0.9-2.9-1.1
				c-0.2,0-0.3-0.1-0.3-0.2c0-0.1,0.1-0.1,0.2-0.2c5.8-4.1,10.5-12,10.9-14.3c0-0.1,0.1-0.2,0.2-0.2c0.6,0,4,1.5,4,2.1
				c0,0.2-0.3,0.5-0.8,0.7c-0.5,0.2-0.7,0.1-1,0.7c-0.3,0.6-1.2,2-2.3,3.6c0.2,0.1,0.4,0.2,0.5,0.2c0.2,0.1,0.3,0.2,0.3,0.4
				c0,0.2-0.1,0.4-0.3,0.6c-0.5,0.5-0.5,0.8-0.5,1.6c-0.1,4.2-0.3,9.8-0.3,14.3c0,1.8,0,3.4,0.1,4.7c0,0.2-0.1,0.3-1.9,0.3
				C281.3,89.7,280.9,89.7,280.9,89.3L280.9,89.3z M304.5,71.1c0,0.1-0.2,0.3-0.3,0.3c-5.1,0.4-5.8,0.4-8.8,0.9l-0.7,0.1
				c2,10.1,7.6,12.9,8.3,12.9c0.8,0,1.6-1,1.8-3.8c0-0.2,0.1-0.3,0.2-0.3c0.1,0,0.1,0.1,0.2,0.2c0.5,0.6,1.6,2.1,2.7,2.8
				c0.1,0.1,0.2,0.2,0.2,0.5c-0.9,3-2.5,4.7-4.6,4.7c-0.8,0-1.8-0.3-2.7-0.9c-5.6-3.5-8.1-9.5-9.3-15.5l-4.9,1h-0.1
				c-0.1,0-0.3,0-0.4-0.2c-0.2-0.5-0.4-2-0.4-2.7v-0.1c0-0.3,0.2-0.4,0.4-0.4c2.1-0.1,3.6-0.3,4.9-0.4c-0.3-1.7-0.5-3.5-0.6-5.1
				c-0.2-1.6-0.3-3-0.5-3.9c0-0.2-0.1-0.3-0.1-0.4c0-0.1,0.1-0.2,0.2-0.2c0.1,0,0.1,0,0.2,0c3.7,0.4,4.4,0.6,4.4,1.1
				c0,0.3-0.3,0.8-0.5,1.2c-0.2,0.4-0.2,0.7-0.2,1.1c0,1.2,0,3.3,0.3,5.7l0.7-0.1c3.3-0.4,4.1-0.6,8.7-1.6h0.1
				c0.2,0,0.3,0.1,0.4,0.3C304.2,68.7,304.5,70.5,304.5,71.1L304.5,71.1z M299.3,67.6c-1.7-1.6-3.9-2.7-4.1-2.8
				c-0.1-0.1-0.3-0.1-0.3-0.2c0-0.3,1.4-2.2,1.8-2.2c0.6,0,4.8,2.3,4.8,2.8c0,0.3-1.4,2.7-1.8,2.7C299.6,67.8,299.4,67.7,299.3,67.6
				z"/>
		</g>
		<g class="st2">
			<path d="M116.6,17.4c-2.6,0.5-4.8,0.9-7.1,1.4c-0.8,0.2-1,0.2-1.3,0.3c-0.1,0.1-0.3,0.2-0.5,0.2c-0.1,0-0.3-0.1-0.4-0.3
				c-0.3-0.6-0.5-1.3-0.8-2.3c1.1,0,1.7-0.1,3.3-0.4c2.6-0.4,7.2-1.1,12.6-1.8c0.3,0,0.4,0.1,0.4,0.2c0.1,0.5,0.2,1.3,0.2,1.8
				c0,0.3-0.1,0.3-0.4,0.3c-1,0.1-1.7,0.2-2.6,0.5c-3.6,1.2-5.4,3.7-5.4,6.2c0,2.7,1.9,4.2,5.6,4.4c0.3,0,0.5,0.1,0.5,0.3
				c0,0.5-0.1,1.3-0.2,1.8c-0.1,0.3-0.1,0.4-0.4,0.4c-3.7,0-7.7-2.1-7.7-6.5C112.6,21.1,114.1,19.1,116.6,17.4L116.6,17.4z
				 M120.8,19.6c0.1-0.1,0.2-0.1,0.3,0c0.7,0.5,1.4,1.3,2,2.2c0.1,0.1,0.1,0.2-0.1,0.3l-0.9,0.7c-0.1,0.1-0.3,0.1-0.4-0.1
				c-0.6-1-1.3-1.8-2.1-2.4L120.8,19.6z M122.7,18.3c0.1-0.1,0.2-0.1,0.3,0c0.8,0.6,1.5,1.4,2,2.2c0.1,0.1,0.1,0.3-0.1,0.4l-0.8,0.7
				c-0.2,0.1-0.3,0.1-0.4-0.1c-0.6-0.9-1.2-1.7-2.1-2.4L122.7,18.3z"/>
		</g>
		<g class="st2">
			<path d="M132.8,14.7c-0.2-0.5-0.4-0.9-0.7-1.3c0.8-0.1,1.7-0.2,2.5-0.2c0.3,0,0.5,0.2,0.5,0.4c0,0.1,0,0.3,0,0.4
				c0,0.2,0,0.4,0.1,0.6c0.1,0.5,0.2,0.7,0.3,1.1c1.6-0.3,2.8-0.6,4.3-1.1c0.2-0.1,0.3-0.1,0.4,0.1c0.1,0.4,0.3,1,0.4,1.4
				c0,0.2-0.1,0.3-0.3,0.4c-1.4,0.4-2.7,0.8-4.1,1.1c0.2,0.5,0.5,1.2,0.7,1.8c1.7-0.4,2.8-0.7,3.8-1.1c0.2-0.1,0.3-0.1,0.4,0.1
				c0.2,0.5,0.3,0.9,0.4,1.4c0,0.2,0,0.3-0.2,0.4c-1,0.4-2.4,0.8-3.5,1c0.9,1.5,1.7,2.7,2.8,3.6c0.2,0.2,0.2,0.3,0.1,0.5
				c-0.2,0.5-0.5,0.9-0.9,1.3c-0.1,0.1-0.2,0.2-0.3,0.2c-0.1,0-0.2,0-0.3-0.1c-0.3-0.3-0.8-0.5-1.2-0.7c-1.1-0.5-2.5-0.7-3.9-0.7
				c-2,0-3.1,0.6-3.1,1.6c0,1.4,1.8,1.8,5,1.8c0.8,0,1.6-0.1,2.3-0.1c0.2,0,0.3,0.1,0.3,0.3c-0.1,0.5-0.2,1.3-0.4,1.9
				c-0.1,0.2-0.1,0.3-0.4,0.3c-0.5,0-1,0.1-1.5,0.1c-4.8,0-7.4-1.4-7.4-3.9c0-2.2,1.9-3.7,5.2-3.7c1.5,0,2.8,0.2,3.6,0.5
				c-0.5-0.6-1.2-1.6-1.7-2.5c-2.2,0.3-4.2,0.6-5.8,0.6c-0.2,0-0.3-0.1-0.4-0.3c-0.1-0.4-0.3-1.1-0.4-1.7c2.1,0,3.8-0.2,5.6-0.5
				c-0.2-0.4-0.5-1.2-0.8-1.7c-1.9,0.3-3.5,0.5-5.1,0.5c-0.3,0-0.4-0.1-0.4-0.3c-0.1-0.2-0.2-1-0.3-1.7c2.1,0,3.7-0.1,5.2-0.3
				C133.1,15.5,133,15.2,132.8,14.7z"/>
		</g>
		<g class="st2">
			<path d="M149.3,24c0.2,0.1,0.2,0.2,0.1,0.4c-0.3,0.5-0.5,1.2-0.5,1.6c0,1.3,1.4,2,5,2c2,0,4-0.2,5.7-0.6c0.3-0.1,0.4,0,0.4,0.2
				c0.1,0.4,0.3,1.5,0.3,2.1c0,0.2-0.1,0.3-0.4,0.3c-2,0.4-3.9,0.5-6.2,0.5c-4.9,0-7.2-1.5-7.2-4.2c0-0.9,0.3-1.8,1.1-3
				C148.2,23.5,148.8,23.7,149.3,24z M154.1,15.8c1.5,0,3-0.1,4.4-0.2c0.2,0,0.3,0.1,0.3,0.2c0.1,0.5,0.2,1.1,0.2,1.8
				c0,0.3-0.1,0.4-0.4,0.4c-2,0.3-3.4,1-5.1,2.1c-0.2,0.1-0.4,0.2-0.5,0.2c-0.1,0-0.3,0-0.4-0.1c-0.4-0.3-0.9-0.5-1.5-0.7
				c1.1-0.7,2-1.3,2.8-1.7c-0.5,0.1-1.1,0.1-1.5,0.1c-0.9,0-2.7-0.1-3.9-0.4c-0.2,0-0.3-0.1-0.3-0.4c0-0.5,0-1.1,0.1-1.9
				C149.8,15.6,151.8,15.8,154.1,15.8z M159.8,13.5c0.1-0.1,0.2-0.1,0.3,0c0.7,0.5,1.4,1.3,2,2.2c0.1,0.1,0.1,0.2-0.1,0.3l-0.9,0.7
				c-0.1,0.1-0.3,0.1-0.4-0.1c-0.6-1-1.3-1.8-2.1-2.4L159.8,13.5z M161.6,12.1c0.1-0.1,0.2-0.1,0.3,0c0.8,0.6,1.5,1.4,2,2.2
				c0.1,0.1,0.1,0.3-0.1,0.4l-0.8,0.7c-0.2,0.1-0.3,0.1-0.4-0.1c-0.6-0.9-1.2-1.7-2.1-2.4L161.6,12.1z"/>
		</g>
		<g class="st2">
			<path d="M172.6,13.6c0.3,0.1,0.4,0.2,0.4,0.3c0,0.3-0.1,0.6-0.1,0.9c0,0.4,0.1,0.9,0.1,1.4c0.2,1.5,0.4,2.5,0.7,3.6
				c1-0.6,1.8-1,3-1.6c0.6-0.4,1.1-0.7,1.4-1.1c0.7,0.7,1.2,1.4,1.5,2c0.1,0.1,0.1,0.3,0.1,0.4c0,0.2-0.1,0.4-0.4,0.4
				c-0.6,0.1-1.3,0.4-2,0.6c-1.8,0.7-3.5,1.5-4.9,2.5c-1.8,1.2-2.5,2.2-2.5,3.2c0,1.2,0.9,1.8,3.3,1.8c2.6,0,4.8-0.2,6.4-0.5
				c0.2,0,0.3,0,0.4,0.3c0.1,0.6,0.2,1.3,0.2,2c0,0.2-0.1,0.3-0.4,0.4c-1.9,0.3-3.6,0.3-6.3,0.3c-4,0-6.1-1.3-6.1-4
				c0-2.3,1.5-3.9,4-5.4c-0.5-1.6-0.9-3.5-1.1-5.1c-0.1-1.1-0.3-1.8-0.5-2.4C170.9,13.3,171.9,13.4,172.6,13.6z"/>
		</g>
		<g class="st2">
			<path d="M196.3,17.1c-0.5,3.6-1.4,6.8-2.6,9c-0.9,1.6-2,2.4-3.6,2.4c-1.8,0-3.7-2-3.7-5.4c0-2,0.9-3.9,2.4-5.5
				c1.8-1.8,4-2.7,6.8-2.7c5,0,8,3.1,8,7.3c0,3.9-2.2,6.4-6.5,7.6c-0.4,0.1-0.6,0-0.9-0.4c-0.2-0.4-0.7-0.8-1.5-1.3
				c3.5-0.8,6.3-2.3,6.3-6.3C201.1,19.5,199.2,17.1,196.3,17.1L196.3,17.1z M190.2,19.1c-1,1.1-1.6,2.5-1.6,3.9c0,1.9,0.8,3,1.4,3
				c0.5,0,1-0.3,1.6-1.3c0.9-1.7,1.9-4.7,2.2-7.5C192.4,17.5,191.2,18.1,190.2,19.1z"/>
		</g>
		<g class="st2">
			<path d="M219.8,12.8c0.3-0.1,0.3-0.1,0.4,0.1c1.4,3.2,3.9,6.1,6.8,7.7c-0.4,0.3-0.9,1-1.2,1.6c-0.2,0.3-0.3,0.5-0.4,0.5
				c-0.1,0-0.2-0.1-0.4-0.3c-0.7-0.5-1.4-1.1-2-1.7c0,0.6,0,1.3-0.1,2.1c-0.1,2.2-0.2,3.9-0.5,5.9c-0.3,1.7-1.1,2.6-3.1,2.6
				c-0.5,0-0.9,0-1.4,0c-0.7,0-0.6,0-0.8-0.7c-0.1-0.7-0.4-1.3-0.7-1.7c1,0.1,1.7,0.2,2.4,0.2c0.9,0,1.2-0.3,1.4-1.3
				c0.2-1.2,0.4-2.8,0.4-5.2h-3.7c-0.4,4.2-2.5,7.2-6.4,8.9c-0.2,0.1-0.4,0.2-0.5,0.2c-0.2,0-0.2-0.1-0.4-0.5
				c-0.3-0.5-0.7-1-1.1-1.3c3.8-1.4,5.7-3.6,6.1-7.3h-0.3c-2,0-2.6,0-2.8,0c-0.2,0-0.2,0-0.2-0.2v-1.5c-0.7,0.6-1.3,1.2-2,1.7
				c-0.2,0.2-0.4,0.3-0.5,0.3c-0.1,0-0.2-0.1-0.4-0.5c-0.3-0.5-0.8-1-1.2-1.3c2.8-1.8,4.9-4.3,6.1-6.9c0.2-0.4,0.3-0.8,0.4-1.3
				c0.8,0.2,1.6,0.5,2.2,0.7c0.2,0.1,0.3,0.2,0.3,0.4c0,0.1-0.1,0.2-0.2,0.3c-0.2,0.2-0.3,0.4-0.5,0.7c-1,2.3-2.3,4.1-3.8,5.6
				c0.3,0,1,0,2.6,0h5.6c1.8,0,2.5,0,2.7,0c-2-2-3.5-4.3-4.5-6.7c-0.1-0.2,0-0.3,0.2-0.4L219.8,12.8z"/>
		</g>
		<g class="st2">
			<path d="M235.9,18.1c0.8,1,1.9,1.8,3.1,2.4c-0.2,0.3-0.5,0.7-0.7,1.1c-0.1,0.3-0.2,0.5-0.4,0.5c-0.1,0-0.2-0.1-0.5-0.3
				c-0.9-0.8-1.7-1.5-2.3-2.6c0,1.7,0.1,2.1,0.1,2.3s0,0.2-0.2,0.2h-1.4c-0.2,0-0.2,0-0.2-0.2c0-0.2,0.1-0.6,0.1-2.1
				c-0.8,1.1-1.7,1.9-2.8,2.8c-0.2,0.2-0.4,0.3-0.5,0.3c-0.1,0-0.2-0.1-0.4-0.4c-0.2-0.5-0.5-0.9-0.8-1.2c1.5-0.8,2.7-1.7,3.6-2.8
				h-0.4c-1.8,0-2.4,0-2.5,0c-0.2,0-0.2,0-0.2-0.2v-1.2c0-0.2,0-0.2,0.2-0.2c0.1,0,0.7,0,2.5,0h1V15c0-1,0-1.5-0.1-2.5
				c0.8,0,1.3,0.1,2,0.1c0.2,0,0.3,0.1,0.3,0.2c0,0.2-0.1,0.3-0.1,0.5c-0.1,0.3-0.1,0.7-0.1,1.7v1.6h0.9c1.8,0,2.4,0,2.5,0
				c0.2,0,0.2,0,0.2,0.2V18c0,0.2,0,0.2-0.2,0.2c-0.1,0-0.7,0-2.5,0H235.9z M232.3,25.7c-1.8,0-2.4,0-2.5,0c-0.2,0-0.2,0-0.2-0.2
				v-1.3c0-0.2,0-0.2,0.2-0.2c0.1,0,0.7,0,2.5,0h1c0-0.7,0.1-1.2,0-1.8c0.8,0.1,1.4,0.1,1.9,0.2c0.2,0,0.4,0.1,0.4,0.3
				c0,0.1-0.1,0.2-0.1,0.3c-0.1,0.1-0.1,0.4-0.2,1.1h1c1.8,0,2.4,0,2.5,0c0.2,0,0.3,0,0.3,0.2v1.3c0,0.2,0,0.2-0.3,0.2
				c-0.1,0-0.7,0-2.5,0h-0.5c0.8,1.3,1.8,2.1,3.1,2.7c-0.5,0.4-0.8,0.8-1,1.1c-0.2,0.3-0.3,0.5-0.5,0.5c-0.1,0-0.3-0.1-0.5-0.3
				c-1-0.8-1.7-1.6-2.3-2.6c-0.7,1.6-1.8,2.8-3.3,3.7c-0.2,0.1-0.3,0.2-0.4,0.2c-0.1,0-0.3-0.1-0.5-0.5c-0.3-0.4-0.6-0.8-1-1.1
				c2-0.8,3.2-2,3.7-3.7H232.3z M231.2,13.2c0.2-0.1,0.3-0.1,0.4,0.1c0.4,0.5,0.8,1.3,1.2,2c0.1,0.2,0.1,0.3-0.2,0.4l-1,0.5
				c-0.3,0.1-0.3,0.1-0.4-0.1c-0.3-0.7-0.7-1.4-1.1-2c-0.1-0.2-0.2-0.3,0.1-0.4L231.2,13.2z M236.5,14c0.1-0.3,0.3-0.6,0.3-0.9
				c0.5,0.1,1.2,0.4,1.6,0.6c0.2,0.1,0.2,0.2,0.2,0.3s0,0.2-0.2,0.3c-0.1,0.1-0.2,0.3-0.3,0.4c-0.2,0.4-0.4,0.8-0.7,1.3
				c-0.2,0.3-0.3,0.4-0.4,0.4c-0.1,0-0.2-0.1-0.4-0.2c-0.4-0.2-0.8-0.3-1-0.4C236,15.1,236.3,14.5,236.5,14z M242.7,28.5
				c0.2,0.1,0.2,0.2,0.2,0.3c0,0.1-0.1,0.2-0.3,0.3c-0.2,0.1-0.3,0.2-0.5,0.4c-0.9,0.8-1.6,1.2-2.8,1.9c-0.3,0.1-0.4,0.2-0.5,0.2
				c-0.2,0-0.3-0.1-0.5-0.5c-0.3-0.4-0.6-0.8-0.9-1.1c1.6-0.6,2.3-1,3.1-1.7c0.3-0.2,0.5-0.4,0.7-0.7
				C241.9,27.9,242.3,28.2,242.7,28.5z M241.9,15.1c-1.9,0-2.5,0-2.6,0c-0.2,0-0.2,0-0.2-0.2v-1.5c0-0.2,0-0.2,0.2-0.2
				c0.1,0,0.8,0,2.6,0h3.9c1.9,0,2.5,0,2.6,0c0.2,0,0.2,0,0.2,0.2v1.5c0,0.2,0,0.2-0.2,0.2c-0.1,0-0.8,0-2.6,0h-1
				c-0.2,0.6-0.4,1.1-0.7,1.6h1c1.7,0,2.3,0,2.4,0c0.2,0,0.2,0,0.2,0.2c0,0.1,0,0.9,0,2.5v5.6c0,1.6,0,2.3,0,2.4
				c0,0.2,0,0.3-0.2,0.3c-0.1,0-0.7,0-2.4,0h-2.8c-1.7,0-2.3,0-2.4,0c-0.2,0-0.3,0-0.3-0.3c0-0.1,0-0.8,0-2.4v-5.5
				c0-1.7,0-2.4,0-2.5c0-0.2,0-0.2,0.3-0.2c0.1,0,0.7,0,2.1,0c0.3-0.5,0.4-1,0.6-1.6H241.9z M241.6,19.8h4v-1.3h-4V19.8z
				 M245.7,22.7v-1.4h-4v1.4H245.7z M245.7,24.3h-4v1.5h4V24.3z M245.1,27.8c0.1-0.1,0.2-0.1,0.3-0.1c0.1,0,0.1,0,0.2,0.1
				c1.1,1,2.2,1.6,3.5,2.1c-0.3,0.3-0.6,0.7-0.9,1.2c-0.2,0.4-0.3,0.5-0.5,0.5c-0.1,0-0.3-0.1-0.5-0.2c-1.3-0.7-2.1-1.4-3-2.3
				c-0.1-0.1-0.1-0.1-0.1-0.2s0-0.1,0.2-0.3L245.1,27.8z"/>
		</g>
		<g class="st2">
			<path d="M261,17.4c-2.6,0.5-4.8,0.9-7.1,1.4c-0.8,0.2-1,0.2-1.3,0.3c-0.1,0.1-0.3,0.2-0.5,0.2c-0.1,0-0.3-0.1-0.4-0.3
				c-0.3-0.6-0.5-1.3-0.8-2.3c1.1,0,1.7-0.1,3.3-0.4c2.6-0.4,7.2-1.1,12.6-1.8c0.3,0,0.4,0.1,0.4,0.2c0.1,0.5,0.2,1.3,0.2,1.8
				c0,0.3-0.1,0.3-0.4,0.3c-1,0.1-1.7,0.2-2.6,0.5c-3.6,1.2-5.4,3.7-5.4,6.2c0,2.7,1.9,4.2,5.6,4.4c0.3,0,0.5,0.1,0.5,0.3
				c0,0.5-0.1,1.3-0.2,1.8c-0.1,0.3-0.1,0.4-0.4,0.4c-3.7,0-7.7-2.1-7.7-6.5C257,21.1,258.4,19.1,261,17.4L261,17.4z M265.1,19.6
				c0.1-0.1,0.2-0.1,0.3,0c0.7,0.5,1.4,1.3,2,2.2c0.1,0.1,0.1,0.2-0.1,0.3l-0.9,0.7c-0.1,0.1-0.3,0.1-0.4-0.1
				c-0.6-1-1.3-1.8-2.1-2.4L265.1,19.6z M267,18.3c0.1-0.1,0.2-0.1,0.3,0c0.8,0.6,1.5,1.4,2,2.2c0.1,0.1,0.1,0.3-0.1,0.4l-0.8,0.7
				c-0.2,0.1-0.3,0.1-0.4-0.1c-0.6-0.9-1.2-1.7-2.1-2.4L267,18.3z"/>
		</g>
		<g class="st2">
			<path d="M286.8,19.4c0-0.5,0-0.9,0-1.4c1.1,0.3,1.9,0.6,2.4,0.9c0.2,0.1,0.3,0.4,0.1,0.6c-0.1,0.3-0.3,0.5-0.3,0.8
				c-0.2,0.9-0.4,1.8-0.6,2.7c1.2,0.6,2.5,1.4,3.3,2c0.2,0.1,0.2,0.2,0.1,0.4c-0.2,0.5-0.7,1.4-0.9,1.8c-0.1,0.1-0.1,0.1-0.2,0.1
				c-0.1,0-0.2-0.1-0.3-0.1c-0.9-0.8-1.8-1.4-2.8-2c-1.1,2.4-2.2,3.9-4.2,5.5c-0.2,0.1-0.3,0.2-0.4,0.2c-0.1,0-0.2,0-0.3-0.1
				c-0.6-0.5-1.1-0.7-1.8-0.9c2.6-1.8,3.9-3.6,4.7-5.7c-1.2-0.6-2.6-1-4.2-1.3c-1.1,2.3-1.7,3.4-2.6,4.2c-0.8,0.8-1.6,1.2-2.7,1.2
				c-1.2,0-2.5-0.8-2.5-2.9c0-2.6,2.7-4.6,6.2-4.6c0.7-1.7,1.2-3.2,1.7-5c-1.2,0.1-2.2,0.3-2.9,0.3c-0.3,0-0.6,0.1-0.9,0.2
				c-0.1,0-0.3,0.1-0.4,0.1c-0.2,0-0.3-0.1-0.3-0.2c-0.2-0.4-0.4-1.2-0.6-2.3c0.6,0.1,1.2,0.1,1.8,0.1c1,0,2.1-0.1,3.3-0.3
				c0.5-0.1,0.8-0.2,1-0.4c0.1-0.1,0.2-0.1,0.3-0.1c0.1,0,0.2,0,0.3,0.1c0.5,0.3,1,0.7,1.4,1.2c0.1,0.1,0.2,0.2,0.2,0.4
				s-0.1,0.2-0.2,0.4c-0.3,0.3-0.4,0.7-0.6,1.1c-0.5,1.4-1.1,3.1-1.8,4.6c1.3,0.2,2.6,0.5,4.1,1C286.6,21.2,286.7,20.4,286.8,19.4z
				 M275.7,25.3c0,0.7,0.2,1,0.7,1c0.4,0,0.8-0.3,1.2-0.8c0.5-0.6,1-1.4,1.5-2.6C277.1,23,275.7,24.1,275.7,25.3z"/>
		</g>
		<g class="st2">
			<path d="M300,21.2c1.2-0.7,2.2-0.9,3.3-0.9c3.1,0,5.2,2,5.2,5c0,3.5-2.8,5.8-7.3,5.8c-2.6,0-4.2-1.1-4.2-3.1c0-1.4,1.3-2.6,3-2.6
				c2,0,3.4,1,3.9,3.1c1.5-0.7,2.1-1.6,2.1-3.2c0-1.9-1.3-3.2-3.3-3.2c-1.7,0-3.7,0.8-5.4,2.2c-0.6,0.5-1.2,1.2-1.8,1.8
				c-0.1,0.1-0.3,0.2-0.4,0.2c-0.1,0-0.2-0.1-0.3-0.2c-0.4-0.4-0.9-0.9-1.2-1.4c-0.1-0.2-0.1-0.3,0.1-0.5c1.6-1.3,3.1-2.7,5-4.6
				c1.3-1.3,2.3-2.4,3.3-3.6c-1.3,0.2-2.8,0.5-4.1,0.8c-0.3,0.1-0.5,0.1-0.9,0.3c-0.1,0-0.3,0.1-0.4,0.1c-0.2,0-0.4-0.1-0.5-0.4
				c-0.3-0.5-0.4-1.1-0.7-2.3c0.6,0.1,1.3,0.1,2,0c1.3-0.1,3.1-0.4,4.8-0.7c0.5-0.1,0.9-0.2,1.2-0.3c0.1-0.1,0.3-0.2,0.4-0.2
				c0.2,0,0.3,0.1,0.5,0.2c0.6,0.5,1,0.9,1.4,1.3c0.2,0.2,0.2,0.3,0.2,0.5c0,0.2-0.1,0.4-0.4,0.5c-0.4,0.2-0.5,0.3-0.9,0.7
				C303,18.1,301.6,19.6,300,21.2L300,21.2z M300,27.1c-0.6,0-1,0.4-1,0.8c0,0.7,0.6,1.1,1.8,1.1c0.4,0,0.7,0,1-0.1
				C301.5,27.8,300.9,27.1,300,27.1z"/>
		</g>
		<g class="st2">
			<path d="M325.4,22.5h-12.8v-1.2h12.8V22.5z"/>
		</g>
		<g class="st2">
			<path class="st3" d="M335.2,25.7c0.4-0.5,0.6-0.9,0.7-1.2c0.6,0.2,1.3,0.5,1.8,0.8c0.2,0.1,0.3,0.2,0.3,0.3
				c0,0.2-0.1,0.3-0.3,0.4c-0.1,0.1-0.3,0.3-0.5,0.5c-0.8,1.2-2,2.4-3.5,3.4c-0.3,0.2-0.4,0.3-0.5,0.3s-0.2-0.1-0.4-0.4
				c-0.3-0.4-0.8-0.9-1.2-1.2C333.2,27.8,334.4,26.8,335.2,25.7z M334.6,23.6c-1.9,0-2.5,0-2.6,0c-0.2,0-0.2,0-0.2-0.2v-1.6
				c0-0.2,0-0.3,0.2-0.3c0.1,0,0.8,0,2.6,0h12.7c1.9,0,2.5,0,2.6,0c0.2,0,0.3,0,0.3,0.3v1.6c0,0.2,0,0.2-0.3,0.2c-0.1,0-0.8,0-2.6,0
				h-5.2v2.8c0,1,0.1,1.9,0.1,2.6c0,0.9-0.1,1.4-0.7,1.8c-0.5,0.4-1.1,0.5-3.1,0.5c-0.6,0-0.7,0-0.8-0.4c-0.1-0.7-0.4-1.4-0.7-1.9
				c0.8,0.1,1.3,0.1,2.3,0.1c0.5,0,0.6-0.1,0.6-0.7v-5H334.6z M346.9,14.5c2,0,2.6,0,2.8,0c0.2,0,0.2,0,0.2,0.2c0,0.1,0,0.5,0,1.1
				v0.9c0,1.9,0,2.2,0,2.4c0,0.2,0,0.2-0.2,0.2h-1.7c-0.2,0-0.2,0-0.2-0.2v-2.6h-13.3v2.7c0,0.2,0,0.2-0.3,0.2h-1.7
				c-0.2,0-0.2,0-0.2-0.2c0-0.1,0-0.5,0-2.4v-0.8c0-0.8,0-1.2,0-1.3c0-0.2,0-0.2,0.2-0.2c0.1,0,0.8,0,2.8,0h4.6v-0.2
				c0-0.9-0.1-1.5-0.2-2c0.8,0,1.7,0.1,2.4,0.1c0.2,0,0.3,0.1,0.3,0.3c0,0.2-0.1,0.3-0.2,0.4c-0.1,0.2-0.1,0.4-0.1,1.2v0.2H346.9z
				 M338.5,19.9c-1.9,0-2.6,0-2.7,0c-0.2,0-0.2,0-0.2-0.2v-1.5c0-0.2,0-0.2,0.2-0.2c0.1,0,0.8,0,2.7,0h5c1.9,0,2.6,0,2.7,0
				c0.2,0,0.2,0,0.2,0.2v1.5c0,0.2,0,0.2-0.2,0.2c-0.1,0-0.8,0-2.7,0H338.5z M345.6,24.6c0.2-0.1,0.3-0.1,0.4,0.1
				c1.2,1.7,2.6,2.8,4.5,3.8c-0.4,0.3-0.8,0.9-1.1,1.4c-0.2,0.3-0.3,0.5-0.4,0.5c-0.1,0-0.3-0.1-0.5-0.3c-1.8-1.3-3.1-2.7-4.3-4.4
				c-0.1-0.2,0-0.3,0.2-0.4L345.6,24.6z"/>
			<path class="st3" d="M358.3,27.4c-0.9,0.1-1.8,0.3-2.6,0.4c-0.4,0.1-0.7,0.1-0.8,0.2c-0.1,0.1-0.2,0.1-0.3,0.1s-0.2-0.1-0.3-0.3
				c-0.2-0.6-0.3-1.2-0.4-1.8c0.8,0,1.5-0.1,2.2-0.1c0.7-0.1,1.4-0.1,2.2-0.3c0-0.5-0.1-0.9-0.1-1.4c0.3,0,0.6,0,0.9,0.1
				c0.4-0.4,0.8-0.8,1.1-1.2h-3.2c-0.6,0.4-1.3,0.8-2,1.1c-0.2,0.1-0.4,0.2-0.5,0.2c-0.2,0-0.2-0.1-0.4-0.5c-0.2-0.4-0.5-0.7-0.8-1
				c1.8-0.8,3.4-1.8,4.8-2.9h-1.5c-1.9,0-2.5,0-2.6,0c-0.2,0-0.2,0-0.2-0.2v-1.3c0-0.2,0-0.2,0.2-0.2c0.1,0,0.8,0,2.6,0h0.9v-1.8
				H357c-1.4,0-1.9,0-2,0c-0.2,0-0.2,0-0.2-0.2V15c0-0.2,0-0.2,0.2-0.2c0.1,0,0.6,0,2,0h0.5c0-1.1,0-1.7-0.1-2.3
				c0.8,0,1.4,0.1,2,0.1c0.2,0,0.3,0.1,0.3,0.2c0,0.2-0.1,0.3-0.1,0.4c-0.1,0.2-0.1,0.6-0.1,1.5c1.2,0,1.6,0,1.8,0
				c0.2,0,0.2,0,0.2,0.2v1.3c0.3-0.5,0.7-1,0.9-1.5c0.2-0.4,0.5-0.9,0.6-1.4c0.5,0.3,1.2,0.6,1.7,0.9c0.2,0.1,0.3,0.2,0.3,0.4
				c0,0.1-0.1,0.2-0.2,0.3c-0.3,0.2-0.4,0.4-0.7,0.7c-0.5,0.9-1.1,1.8-1.7,2.6c0.8,0,1.2,0,1.3,0c0.2,0,0.3,0,0.3,0.2v1.3
				c0,0.2,0,0.2-0.3,0.2c-0.1,0-0.8,0-2.5,0h-0.3c-0.5,0.5-1.1,1-1.7,1.5h1.9c0.2,0,0.3,0,0.4-0.1c0.1,0,0.1-0.1,0.2-0.1
				c0.1,0,0.3,0.1,0.7,0.5c0.4,0.5,0.5,0.6,0.5,0.8c0,0.2-0.1,0.3-0.3,0.4c-0.2,0.1-0.3,0.1-0.7,0.5c-0.6,0.6-1,1.1-1.6,1.6
				c0,0,0,0.1,0,0.1c1.2-0.2,2.4-0.4,3.5-0.7c-0.1,0.3-0.1,0.8-0.1,1.2c0,0.7,0,0.7-0.7,0.8c-0.9,0.2-1.8,0.4-2.7,0.6v0.1
				c0,0.9,0,1.6,0,2.1c0,0.7-0.1,1.2-0.7,1.6c-0.5,0.4-1,0.5-2.5,0.5c-0.7,0-0.7,0-0.8-0.5c-0.1-0.7-0.4-1.2-0.6-1.5
				c0.6,0.1,1,0.1,1.7,0.1c0.6,0,0.8-0.2,0.8-0.7V27.4z M361.2,16.5c-0.1,0-0.5,0-1.8,0v1.8h0.4C360.4,17.7,360.8,17.2,361.2,16.5
				L361.2,16.5z M372.8,18c0,0.2,0,0.2-0.2,0.2c-0.1,0-0.5,0-1.3,0c-0.1,3.2-0.9,5.9-2.1,7.8c1,1.2,2.3,2.3,4,3.3
				c-0.4,0.4-0.7,0.9-1,1.5c-0.2,0.3-0.2,0.5-0.4,0.5c-0.1,0-0.2-0.1-0.4-0.2c-1.5-1.2-2.6-2.3-3.4-3.4c-1.3,1.5-2.7,2.6-4.6,3.6
				c-0.3,0.1-0.4,0.2-0.5,0.2c-0.1,0-0.2-0.1-0.4-0.4c-0.3-0.6-0.7-0.9-1-1.3c2.4-1,4.1-2.3,5.4-3.9c-0.7-1.3-1.2-2.8-1.6-4.2
				c-0.2,0.3-0.4,0.6-0.5,0.8c-0.2,0.2-0.3,0.4-0.4,0.4c-0.1,0-0.2-0.1-0.4-0.4c-0.3-0.4-0.7-0.7-1-0.9c1.8-2.1,2.8-5,3.4-7.5
				c0.1-0.6,0.2-1.2,0.2-1.8c0.6,0.1,1.4,0.3,1.9,0.4c0.3,0.1,0.4,0.2,0.4,0.3c0,0.1-0.1,0.3-0.2,0.5c-0.1,0.2-0.2,0.4-0.3,0.9
				c-0.1,0.6-0.3,1.2-0.5,1.9h2.5c1.8,0,2.4,0,2.5,0c0.2,0,0.2,0,0.2,0.2V18z M366.9,18.2c-0.1,0.4-0.3,0.7-0.5,1.1
				c0.3,1.8,0.8,3.4,1.4,4.8c0.7-1.5,1.1-3.4,1.3-5.9H366.9z"/>
		</g>
		<circle class="st1" cx="54.6" cy="72" r="52.5"/>
		<rect x="59.3" y="53.3" class="st4" width="7.4" height="1.2"/>
		<rect x="42.6" y="53.3" class="st4" width="7.4" height="1.2"/>
		<path class="st4" d="M37.5,56.5c0.6,3,5,4.7,8.8,4.7c1.7,0,3.4-0.6,4.7-1.7c2.1-1.8,5.2-1.8,7.3,0c1.3,1.1,3,1.7,4.7,1.7
			c3.8,0,8.2-1.7,8.8-4.7c0.3-1.1-0.3-2.2-1.4-2.5C70.2,54,70,54,69.8,54c1.1,0,2-0.8,2.1-1.9c0-0.2,0-0.4-0.1-0.6
			c-0.6-3-5-4.7-8.8-4.7c-1.7,0-3.4,0.6-4.7,1.7c-2.1,1.8-5.2,1.8-7.3,0c-1.3-1.1-3-1.7-4.7-1.7c-3.8,0-8.2,1.7-8.8,4.7
			c-0.3,1.1,0.4,2.2,1.5,2.5c0.2,0,0.3,0.1,0.5,0.1c-1.1,0-2.1,0.9-2.1,2C37.4,56.1,37.4,56.3,37.5,56.5z M63,48.8
			c2.8,0,5.1,2.3,5.1,5.2c0,2.8-2.3,5.1-5.1,5.1c-2.8,0-5-2.3-5.1-5.1c0-2.8,2.2-5.1,5-5.2C62.9,48.8,63,48.8,63,48.8z M46.3,48.8
			c2.8,0,5.1,2.3,5.1,5.1s-2.3,5.1-5.1,5.1c-2.8,0-5.1-2.3-5.1-5.1C41.1,51.2,43.4,48.9,46.3,48.8C46.2,48.9,46.2,48.9,46.3,48.8
			L46.3,48.8z"/>
		<path class="st4" d="M54.6,90.7c-6,0-12-0.8-17.8-2.4c-0.8,1.5-0.8,2.4,0,3.1l1.2,0.3c0.1,4.3,3,7.9,5.4,10.5h7.9
			c0-3.6,0.5-6.8,1.7-8.9h1.6h1.6c1.3,2.1,1.7,5.3,1.8,8.9h7.9c2.4-2.6,5.3-6.2,5.4-10.5l1.2-0.3c0.8-0.7,0.8-1.6,0-3.1
			C66.6,89.9,60.6,90.7,54.6,90.7z"/>
		<path class="st4" d="M46.7,45.1c1.9,0.1,3.8,0.8,5.3,2.1c1.5,1.3,3.7,1.3,5.3,0c1.5-1.3,3.3-2,5.3-2.1c0.3-0.1,0.6-0.3,0.8-0.6
			c0.5-0.9-0.5-2.4-2.2-3.3c-0.8-0.5-1.7-0.7-2.7-0.7c0.2-0.1,0.4-0.2,0.5-0.4c0.6-0.8,0.2-2.2-0.9-3.1s-2.6-0.9-3.2,0
			c-0.1,0.1-0.1,0.2-0.2,0.3c-0.1-0.1-0.1-0.2-0.2-0.3c-0.6-0.8-2.1-0.8-3.2,0s-1.5,2.2-0.9,3.1c0.1,0.2,0.3,0.3,0.5,0.4
			c-0.9,0-1.9,0.2-2.7,0.7c-1.7,0.9-2.7,2.4-2.2,3.3C46.1,44.8,46.4,45,46.7,45.1z"/>
		<path class="st4" d="M54.6,60.2c-1,0-1.9,0.4-2.7,1c-1.7,1.3-3.7,2.1-5.8,2.1c-0.5,0-0.9,0-1.4-0.1c5.7,4.9,14.1,4.9,19.8,0
			c-0.5,0-0.9,0.1-1.4,0.1c-2.1,0-4.2-0.7-5.8-2.1C56.5,60.5,55.6,60.2,54.6,60.2z"/>
		<path class="st4" d="M78.3,79.9C83.2,76.1,81,68,81,68c-4.4-1.1-8.7-2.8-12.8-4.9c-7.7,7.1-19.5,7.1-27.2,0
			c-4.1,2.1-8.4,3.7-12.8,4.9c0,0-2.2,8,2.7,11.9c-0.7,0.3-1.2,0.8-1.2,1.3c0,0.9,1.3,1.6,3,1.6s2.9-0.7,2.9-1.5s-0.4-1.2-0.4-2.4
			c-0.1-2.1,1.5-3.9,3.6-4c2.1,0.1,3.7,1.9,3.6,4c0,2.7-2.5,5.8-6.4,8c6.1,1.3,12.3,2,18.5,2c6.2,0,12.4-0.7,18.5-2
			c-4-2.2-6.4-5.3-6.4-8c-0.2-2,1.3-3.8,3.3-3.9c2-0.2,3.8,1.3,3.9,3.3c0,0.2,0,0.4,0,0.7c0,1.2-0.4,1.6-0.4,2.4s1.4,1.5,2.9,1.5
			s3-0.7,3-1.6C79.5,80.7,79,80.2,78.3,79.9z M47.4,75.3C46,75.3,45,74.1,45,72.7s1.2-2.4,2.6-2.4c1.3,0.1,2.4,1.2,2.4,2.5
			C50,74.2,48.8,75.3,47.4,75.3C47.4,75.3,47.4,75.3,47.4,75.3z M54.6,78.8c-1.1,0-1.9-0.9-1.8-2c0-1.1,0.9-1.9,2-1.8
			c1,0,1.8,0.9,1.8,1.9C56.6,77.9,55.7,78.8,54.6,78.8z M61.8,75.3c-1.4-0.1-2.4-1.2-2.4-2.6c0.1-1.4,1.2-2.4,2.6-2.4
			c1.3,0.1,2.4,1.2,2.4,2.5C64.4,74.2,63.2,75.3,61.8,75.3z"/>
		<path class="st4" d="M50.9,103.5h-9.7c-1.1,0-1.9,0.9-1.9,1.9c0,1.1,0.9,1.9,1.9,1.9h9.7c1.1,0,1.9-0.9,1.9-1.9
			C52.8,104.3,52,103.5,50.9,103.5z"/>
		<path class="st4" d="M68,103.5h-9.7c-1.1,0-1.9,0.9-1.9,1.9c0,1.1,0.9,1.9,1.9,1.9H68c1.1,0,1.9-0.9,1.9-1.9
			C69.9,104.3,69.1,103.5,68,103.5z"/>
	</g>
</g>
</svg>
