<svg xmlns="http://www.w3.org/2000/svg" viewBox="0 0 402.07 109.21"><defs><style>.cls-1,.cls-2{fill:#fff;stroke:#000;stroke-miterlimit:10;}.cls-1{stroke-width:4.3px;}.cls-2{stroke-width:4.3px;}</style></defs><title>アセット 45</title><g id="レイヤー_2" data-name="レイヤー 2"><g id="レイヤー_1-2" data-name="レイヤー 1"><rect class="cls-1" x="53.07" y="23.12" width="346.85" height="69.43"/><circle class="cls-2" cx="54.61" cy="54.61" r="52.46"/><path d="M72.75,62.18c7.64-.93,9.58-10.94,12.61-20.87,1.45-4.78-.49-7.56-3.64-7.69-5.26-.2-18,6-27.12,14.76-9.07-8.75-21.85-15-27.11-14.76-3.15.13-5.09,2.91-3.63,7.69,3,9.93,5,19.94,12.61,20.87C39,62.49,42.66,61.83,46,61l0,1.09L33.92,65.61a74.25,74.25,0,0,0-4.12,7.58c-3.64,8.62,13.82,12.25,17.82,6.65A66.73,66.73,0,0,0,54.6,66a67.37,67.37,0,0,0,7,13.83c4,5.6,21.46,2,17.82-6.65a74.25,74.25,0,0,0-4.12-7.58L63.16,62.08l0-1.09C66.55,61.83,70.23,62.49,72.75,62.18Z"/><path d="M48.78,32.85h.11c1.15,3.14,2.71,8.34,3,9.81s1.49,1.15,1.35,0A84.48,84.48,0,0,0,50.39,32.3a2.68,2.68,0,1,0-1.61.55Z"/><path d="M57.3,42.65c.31-1.47,1.87-6.67,3-9.81h.11a2.71,2.71,0,1,0-1.61-.55A84.48,84.48,0,0,0,56,42.65C55.81,43.8,57,44,57.3,42.65Z"/></g></g></svg>