<svg xmlns="http://www.w3.org/2000/svg" viewBox="0 0 402.29 126.86"><defs><style>.cls-1,.cls-2,.cls-4{fill:#fff;stroke:#000;stroke-miterlimit:10;}.cls-1{stroke-width:4.21px;}.cls-2{stroke-width:4.3px;}.cls-3{fill:#c6d443;}.cls-4{stroke-width:4.3px;}.cls-5{fill:#040000;}</style></defs><title>アセット 378</title><g id="レイヤー_2" data-name="レイヤー 2"><g id="レイヤー_5" data-name="レイヤー 5"><polygon class="cls-1" points="400.14 40.55 41.84 40.55 60.57 2.11 400.14 2.11 400.14 40.55"/><rect class="cls-2" x="53.29" y="40.54" width="346.85" height="69.43"/><path d="M137.5,74.29a.42.42,0,0,1-.41.27.75.75,0,0,1-.24,0c-1.8-.65-4.9-1.36-5.34-1.5-.2-.07-.37-.1-.37-.34a11,11,0,0,1,.68-2.24c0-.1.1-.24.44-.24a32.2,32.2,0,0,1,5.58,1,.39.39,0,0,1,.3.44A21.34,21.34,0,0,1,137.5,74.29Zm-5.38,12a.31.31,0,0,1,.14-.24,44.23,44.23,0,0,0,6.66-8c.07-.11.14-.17.17-.17s.14.06.17.17a13.83,13.83,0,0,0,1.64,2,.19.19,0,0,1,.13.2.69.69,0,0,1-.07.24c-1.46,2.68-3.16,4.93-3.87,6.12-.61,1-.65,1.66-1.23,1.66S132.12,86.87,132.12,86.29Zm7.35-19.24a.69.69,0,0,1-.38-.14A54.59,54.59,0,0,0,134.44,64c-.14-.1-.28-.17-.28-.34s1.19-2.14,1.53-2.14c.51,0,5.48,2.21,5.48,2.92a.73.73,0,0,1-.07.24,13.66,13.66,0,0,1-1.36,2.21A.35.35,0,0,1,139.47,67.05Zm23,16.69c.21,0,.31.17.31.37s0,1,0,1.74c0,.47,0,1,0,1.22s-.21.24-.38.24c-4.55-.31-7.2-.34-9.79-.34-7.64,0-9.89.14-12.88.34-.2,0-.44-.07-.44-.31s0-1,0-1.49c0-1.29,0-1.77.34-1.77h.14c4.15.27,6.76.37,9.11.37,0-1.83.1-5.71.1-9s-.07-6.36-.1-7.72c-1.56,0-3.53.1-6.39.3h-.07c-.17,0-.37-.06-.37-.3a13.33,13.33,0,0,1,0-1.4c0-1.73.07-1.73.48-1.73,4.08.31,6.19.34,8.09.34a92.63,92.63,0,0,0,9.55-.34c.41,0,.41.34.41,2,0,1.26-.07,1.39-.41,1.39-3.53-.23-5.16-.3-6.9-.34v0c0,.2-.2.41-.47.58s-.24.27-.24.61c0,1.7-.07,4.11-.07,6.59,0,3.2.07,7.11.1,8.94,2.59,0,5.17-.06,9.89-.37Z"/><path d="M191.35,79c0,.31-.14.34-.41.34s-1.15.07-1.83.07c-1.47,0-1.6-.07-1.6-.41v-.07l.1-1.7c-1.22,0-3.26-.06-5.81-.06-3,0-5.54,0-6.87.06-1.19,9.25-6.8,13-7.41,13a.54.54,0,0,1-.34-.13,15.13,15.13,0,0,0-3.37-1.46c-.2-.07-.27-.14-.27-.21s.07-.13.27-.24c6.5-3.09,7.92-9.65,7.92-14.92a34.67,34.67,0,0,0-.51-5.78.93.93,0,0,1,0-.27c0-.14.07-.17.24-.17h.24c3.57.24,5.5.27,7.31.27,7.17,0,8.22,0,11.86-.24.27,0,.41.07.41.38v.1C191.11,69,191,71,191,73.07a43.62,43.62,0,0,0,.31,5.74Zm2.92-17.85c.28,0,.34.07.34,2.11,0,1.29-.06,1.6-.37,1.6-6.87-.38-9.32-.38-13.19-.38-5.68,0-8.57.14-12.65.38-.41,0-.44-.24-.44-1.87,0-1.84,0-1.84.27-1.84h.17c6.09.31,8.13.34,11,.34,5.65,0,8.54,0,14.83-.34Zm-6.56,9.18s-1.09-.1-3.7-.1c-.68,0-1.43,0-2.28,0l-6.66.07s0,1.94,0,3.84c1.43,0,3.91.07,6.6.07s4.75,0,6-.07Z"/><path d="M211.24,82.75c0,.34-.1.58-1.7.58-.92,0-1.63,0-1.63-.47v-.07c0-.65,0-1.5.07-2.42-.38,0-.95-.06-1.46-.06s-1.19,0-1.57.06c0,1.53,0,3,.07,4.36,0,.57-.07.61-1.7.61s-1.73-.21-1.73-.55v-.1c.3-4.66.37-9.75.37-12.54,0-3.5-.07-6.26-.2-9.05,0-.13,0-.2,0-.3s.07-.21.24-.21.17,0,.27,0c1.09.1,2.59.17,4.32.17s2-.07,4.22-.21c.37,0,.44.14.44.48-.24,2.69-.24,5.81-.24,8.74,0,2.55.07,8,.27,10.74Zm-4.76-17.33c-.95,0-1.53,0-1.53,0s-.07,2.11-.07,4.52c.41,0,1.09,0,1.6,0s1.23,0,1.6,0c0-2.17-.1-4.52-.1-4.52s-.34,0-1,0Zm1.6,7.31c-.37,0-1,0-1.56,0s-1.26,0-1.64,0c0,1.32,0,3,0,4.86.41,0,1.05,0,1.56,0s1.16,0,1.53,0C208.05,75.75,208.08,74,208.08,72.73Zm21.83.17c-3.78-.38-7.31-.41-9.46-.41s-3.91.07-8.36.34c-.34,0-.41-.1-.41-1.57s0-1.63.41-1.63c3.33.27,5.07.34,6.83.34V67.29c-1.53,0-3,.06-5.47.2-.3,0-.37,0-.37-1.46s.07-1.53.44-1.53c2.38.2,3.91.2,5.34.2v-.34a28.2,28.2,0,0,0-.48-5v-.17c0-.17,0-.2.24-.2.54,0,4.35.4,4.35,1.12,0,.27-.31.61-.51,1-.37.71-.34.64-.48,2.85a4.94,4.94,0,0,0,0,.68c1.29,0,2.58-.07,5.2-.24.17,0,.41,0,.41,1.57a6.7,6.7,0,0,1-.07,1.26c0,.13-.2.2-.3.2h0c-2.55-.14-3.74-.17-5.23-.2V70c2.1,0,4.86-.17,8-.41.23,0,.37.24.37,1.67a13.6,13.6,0,0,1-.07,1.43c0,.13-.17.24-.27.24Zm-4.59,13c0,2-1.13,4.25-5.1,4.25q-.32,0-.51-.51c-.65-1.53-1.84-2.07-2.66-3-.1-.11-.17-.17-.17-.24s0-.07.14-.07a1.39,1.39,0,0,0,.17,0,19.72,19.72,0,0,0,2.75.28c1.3,0,2-.34,2-1.33.07-1.33.07-4,.07-5.54v-2h-1.46c-2.18,0-3.94.06-8.33.34a.33.33,0,0,1-.34-.31c0-.27,0-.78,0-1.33,0-1.63,0-1.63.37-1.63,4.22.34,6,.34,8.33.34H222a14.14,14.14,0,0,0-.27-2c0-.06,0-.1,0-.13s.11-.21.28-.21,4,.34,4,1a.86.86,0,0,1-.27.54c-.3.41-.41.41-.44.75,1.39-.07,3-.17,4.62-.3h0c.2,0,.34.27.34,1.69,0,.55,0,1.13-.07,1.47a.32.32,0,0,1-.27.23h0c-1.66-.17-3.26-.27-4.69-.3v2.92c0,1.84.17,3,.21,4.93Zm-7.52-1.49c-.07,0-.13-.07-.2-.14a19.19,19.19,0,0,0-4.25-3.64c-.1-.07-.14-.1-.14-.17,0-.37,1.5-1.36,1.84-1.56a.28.28,0,0,1,.17-.1.39.39,0,0,1,.17.06,17.17,17.17,0,0,1,4.45,2.89.29.29,0,0,1,.1.21,14.63,14.63,0,0,1-2,2.38C217.9,84.35,217.87,84.39,217.8,84.39Z"/><path d="M239.05,89.32c.51-4.59.75-12,.89-17.58-.31.37-3.81,4.72-4.56,4.72a.45.45,0,0,1-.27-.06,9.46,9.46,0,0,0-2.86-1.06c-.2,0-.34-.1-.34-.17s.07-.13.17-.2c5.85-4.15,10.51-12,10.92-14.28,0-.14.07-.2.17-.2.58,0,4,1.46,4,2.1,0,.24-.28.48-.79.68s-.68.14-1,.68a39.91,39.91,0,0,1-2.31,3.57c.24.07.41.17.54.21a.42.42,0,0,1,.34.41,1.06,1.06,0,0,1-.34.64,2.12,2.12,0,0,0-.51,1.63c-.13,4.22-.3,9.76-.3,14.28,0,1.77,0,3.37.1,4.69,0,.17-.1.34-1.94.34-1.6,0-1.94,0-1.94-.34Zm23.53-18.19c0,.13-.24.27-.34.27-5.1.37-5.85.44-8.84.88l-.71.11c2,10.13,7.61,12.91,8.29,12.91s1.6-1,1.84-3.8c0-.21.07-.28.17-.28s.13.07.2.17a12.07,12.07,0,0,0,2.72,2.76.52.52,0,0,1,.24.51c-.92,3-2.55,4.66-4.56,4.66a5.14,5.14,0,0,1-2.72-.92c-5.61-3.54-8.09-9.52-9.35-15.47l-4.86,1h-.1a.41.41,0,0,1-.41-.24,13.43,13.43,0,0,1-.37-2.68v-.14c0-.34.17-.41.37-.41,2.14-.13,3.61-.27,4.86-.44-.27-1.73-.47-3.47-.61-5.1s-.27-3-.47-3.91a1.76,1.76,0,0,1-.07-.37.18.18,0,0,1,.2-.21c.07,0,.14,0,.21,0,3.67.44,4.42.57,4.42,1.12a3.34,3.34,0,0,1-.51,1.19,2.62,2.62,0,0,0-.21,1.12,49.33,49.33,0,0,0,.27,5.68l.75-.1c3.27-.45,4.08-.62,8.74-1.6h.07a.36.36,0,0,1,.37.3,18.12,18.12,0,0,1,.41,2.89Zm-5.17-3.54a23,23,0,0,0-4.11-2.82c-.14-.07-.27-.1-.27-.24a5.66,5.66,0,0,1,1.76-2.21c.65,0,4.8,2.31,4.8,2.76s-1.36,2.68-1.8,2.68A.51.51,0,0,1,257.41,67.59Z"/><path d="M282.71,91a.52.52,0,0,1-.41.21.29.29,0,0,1-.2-.07c-4.25-2.28-9.08-8-9.08-16.8,0-11.56,8.87-16.52,9.28-16.52a2.77,2.77,0,0,1,1.39,1.94.51.51,0,0,1-.3.47c-3.64,2.11-6.9,7.69-6.9,14.15,0,6.8,3.26,12.27,6.9,14.41a.51.51,0,0,1,.24.48A3.24,3.24,0,0,1,282.71,91Z"/><path d="M306,65.08c2.62,0,5.48-.11,10-.34.38,0,.48.2.48,1.53,0,.61,0,1.22-.07,1.63,0,.17-.2.24-.41.24-5.88-.31-9.28-.34-12.64-.34-8.71,0-12,.13-16.22.34H287c-.41,0-.41-.28-.41-1.64,0-1.59,0-1.76.34-1.76h.17c4.39.23,7.34.3,9.79.34a20.28,20.28,0,0,0-3.19-3.91c-.11-.11-.17-.17-.17-.24a9,9,0,0,1,2.65-1.4c.34,0,4,3.47,4,4,0,.31-1.36,1.12-2,1.5h4.32a38.18,38.18,0,0,0,2.85-5.44c.1-.28.14-.41.27-.41s3.91,1.36,3.91,2c0,.24-.34.41-.78.68a3.29,3.29,0,0,0-1,.92Zm-8.6,17.27c-.64,0-1.66,0-2.31,0s-1.26,0-2,0c0,2.82.1,5.13.14,7,0,.28-.11.38-1.47.38-.57,0-1.22,0-1.66-.07-.24,0-.34-.07-.34-.27v-.1c.13-3.06.44-7.72.44-11.09,0-2.11,0-5.81-.24-8a1.07,1.07,0,0,1,0-.27c0-.14.07-.17.27-.17h.2a44.94,44.94,0,0,0,4.66.17c1.67,0,2.89,0,5-.17.31,0,.41.07.41.27v.14c0,.44-.21,2.34-.21,8.6,0,2.78.21,5.3.21,7.24s-.82,3.7-4.66,3.81a.47.47,0,0,1-.44-.45,10.28,10.28,0,0,0-1.94-2.68c-.07-.07-.14-.14-.14-.21s.07-.06.21-.06h.1a16.21,16.21,0,0,0,2.18.23c1.05,0,1.59-.3,1.59-1.12Zm0-3.57c0-.17,0-.72,0-1.36-.65,0-1.63,0-2.28,0s-1.36,0-2,0v2.41c.71,0,1.56,0,2,0s1.63,0,2.31,0Zm-.1-6.36s-1.12,0-2.24,0-1.91,0-1.91,0,0,1.19,0,2.52c.65,0,1.46,0,1.94,0s1.6,0,2.28,0C297.3,73.61,297.26,72.42,297.26,72.42Zm5.48-1.36c0-.1,0-.1.1-.1H303a23.51,23.51,0,0,1,3.61.64c.3.11.4.21.4.41a2.38,2.38,0,0,1-.44.95c-.2.34-.37.92-.37,3.4a68.34,68.34,0,0,0,.34,7.31c0,.14-.14.24-.31.24-.41,0-.95,0-1.49,0-1.67,0-1.8-.1-1.8-.34.2-2.89.27-3.4.27-6a28.26,28.26,0,0,0-.44-6.36Zm9.85,15.54c0,1.66-2,3.09-5.33,3.09a.57.57,0,0,1-.55-.48,11.52,11.52,0,0,0-2.14-2.72c-.07-.06-.1-.1-.1-.13s.1-.14.24-.14.13,0,.24,0a19.83,19.83,0,0,0,2.27.23c1,0,1.87-.23,1.91-1.08,0-2.11.06-3.64.06-4.87,0-1.63,0-2.68,0-3.87a37.85,37.85,0,0,0-.51-7.31.43.43,0,0,1,0-.17c0-.1.06-.1.27-.1a30.1,30.1,0,0,1,4,.71c.31.1.44.27.44.44a2.21,2.21,0,0,1-.47,1c-.28.41-.51,1-.51,4.45,0,2.21,0,6.63.23,10.85Z"/><path d="M347.07,73.47c-5-.24-7.34-.3-10-.34,0,.92,0,2.21,0,3.68,3.5,0,6.22-.07,12.61-.38.34,0,.41.1.41,1.77s-.1,1.7-.41,1.7c-6.15-.27-9.21-.34-12.58-.38.07,3.51.21,7.42.34,10,0,.21-.13.38-2,.38-1.73,0-2,0-2-.44.21-3.34.34-6.87.45-10-3.57,0-6,.11-12.41.38-.44,0-.48-.17-.48-1.74,0-1.73,0-1.73.48-1.73,6.35.31,9.35.38,12.47.38,0-1.47,0-2.73,0-3.68-2.79,0-4.56.1-9.83.34H324c-.24,0-.31,0-.31-1.63s0-1.66.41-1.66c5.17.27,7.41.34,9.83.34a76.53,76.53,0,0,0-.55-10.78c0-.07,0-.14,0-.21s.07-.1.14-.1c.23,0,4.75.27,4.75,1.12,0,.34-.4.82-.68,1.6s-.47,4.12-.5,8.37c2.75,0,4.79-.07,10-.34.24,0,.27.1.31.3s0,.82,0,1.4,0,1.12,0,1.39c0,.1-.07.2-.24.2ZM329.9,69.53c-.1,0-.2-.07-.3-.24a27.42,27.42,0,0,0-4.7-4.59c-.13-.1-.23-.17-.23-.27,0-.34,1.73-1.67,1.93-1.67.45,0,5.89,3.54,5.89,4.32A7.43,7.43,0,0,1,329.9,69.53Zm15.71-3.94c-.58.27-3.44,2.68-5.1,3.84a.38.38,0,0,1-.27.1.18.18,0,0,1-.17-.1,5,5,0,0,0-1.81-1.09c-.1-.07-.13-.14-.13-.17a.19.19,0,0,1,.1-.14,28.81,28.81,0,0,0,5.1-5.64c.07-.14.14-.2.24-.2.44,0,3.26,2,3.26,2.72C346.83,65.31,346.08,65.31,345.61,65.59Z"/><path d="M354.72,91.19a.55.55,0,0,1-.41-.21,3.18,3.18,0,0,1-.91-1.73.6.6,0,0,1,.23-.48c3.64-2.14,6.91-7.61,6.91-14.41,0-6.46-3.27-12-6.91-14.15a.51.51,0,0,1-.3-.47,2.8,2.8,0,0,1,1.39-1.94c.41,0,9.28,5,9.28,16.52,0,8.81-4.82,14.52-9.07,16.8A.32.32,0,0,1,354.72,91.19Z"/><path d="M118,17.36c-2.56.49-4.8.93-7,1.39-.8.19-1,.23-1.32.33a1.16,1.16,0,0,1-.47.17.5.5,0,0,1-.4-.31,15.11,15.11,0,0,1-.77-2.27,29,29,0,0,0,3.34-.36c2.58-.38,7.2-1.07,12.62-1.78.31,0,.41.08.44.23a12.46,12.46,0,0,1,.23,1.85c0,.25-.13.31-.4.31a9.35,9.35,0,0,0-2.56.46c-3.57,1.22-5.36,3.68-5.36,6.2,0,2.7,1.93,4.18,5.59,4.41.33,0,.46.08.46.31a7.36,7.36,0,0,1-.23,1.81c-.06.31-.15.44-.4.44-3.7,0-7.75-2.12-7.75-6.49,0-3,1.49-5,4-6.66Zm4.16,2.27c.11-.08.19-.06.32,0a9.93,9.93,0,0,1,2,2.25.21.21,0,0,1-.06.33l-.88.65a.22.22,0,0,1-.36-.06,10.44,10.44,0,0,0-2.12-2.43Zm1.87-1.36c.12-.09.19-.07.31,0a8.47,8.47,0,0,1,2,2.16.25.25,0,0,1-.06.38l-.84.65a.22.22,0,0,1-.36-.06A9.84,9.84,0,0,0,123,19Z"/><path d="M135,14.65a5.54,5.54,0,0,0-.73-1.34,14.54,14.54,0,0,1,2.54-.23c.29,0,.46.17.46.38s0,.27,0,.4a4.17,4.17,0,0,0,.08.63c.15.54.21.73.34,1.09A32.26,32.26,0,0,0,142,14.46c.19-.08.3-.06.36.11.12.4.27,1,.36,1.41a.32.32,0,0,1-.26.37c-1.4.44-2.68.76-4.11,1.08.19.52.46,1.17.73,1.76a25.7,25.7,0,0,0,3.82-1.09c.21-.11.32-.07.38.12a7.75,7.75,0,0,1,.38,1.39c0,.19,0,.29-.17.38a26.71,26.71,0,0,1-3.55,1,16.25,16.25,0,0,0,2.75,3.63c.21.19.21.27.11.5a6.37,6.37,0,0,1-.86,1.3c-.13.15-.21.21-.34.21a.56.56,0,0,1-.29-.12,5.57,5.57,0,0,0-1.24-.68,10.27,10.27,0,0,0-4-.67c-2,0-3.13.61-3.13,1.6,0,1.36,1.79,1.81,5,1.81.78,0,1.56-.09,2.31-.13.21,0,.27.1.25.27a12.64,12.64,0,0,1-.42,1.91c-.06.21-.14.3-.44.32-.48,0-1,.06-1.51.06-4.83,0-7.39-1.36-7.39-4,0-2.24,1.93-3.65,5.21-3.65a9.89,9.89,0,0,1,3.61.52,23.21,23.21,0,0,1-1.74-2.47,50.59,50.59,0,0,1-5.76.63c-.23,0-.31-.09-.38-.3a10.9,10.9,0,0,1-.37-1.72,36.79,36.79,0,0,0,5.64-.52c-.21-.44-.52-1.16-.79-1.75a35.43,35.43,0,0,1-5.11.51c-.25,0-.37-.09-.42-.3s-.21-1-.33-1.68a37.1,37.1,0,0,0,5.23-.33C135.36,15.53,135.23,15.18,135,14.65Z"/><path d="M151.21,24c.19.1.21.21.11.38a3.37,3.37,0,0,0-.55,1.59c0,1.32,1.37,2,5,2a27.22,27.22,0,0,0,5.69-.6c.29-.07.4,0,.44.18a18.44,18.44,0,0,1,.34,2.06c0,.19-.11.28-.36.32a33,33,0,0,1-6.15.5c-4.85,0-7.22-1.51-7.22-4.24a5.51,5.51,0,0,1,1.11-3C150.14,23.45,150.67,23.72,151.21,24ZM156,15.79c1.53,0,3-.09,4.37-.19.21,0,.29.06.31.23a11.28,11.28,0,0,1,.19,1.78c0,.3-.1.42-.36.44a12.34,12.34,0,0,0-5.14,2.08.88.88,0,0,1-.52.19,1,1,0,0,1-.45-.12,4.65,4.65,0,0,0-1.47-.67c1.1-.72,2-1.31,2.75-1.75a11.49,11.49,0,0,1-1.53.07,25.29,25.29,0,0,1-3.86-.36c-.19,0-.27-.13-.27-.38,0-.5,0-1.11.08-1.87A26.36,26.36,0,0,0,156,15.79Zm5.71-2.33c.11-.09.19-.07.32,0a9.52,9.52,0,0,1,2,2.25.21.21,0,0,1-.06.33l-.88.65a.22.22,0,0,1-.36-.06,10.5,10.5,0,0,0-2.12-2.44Zm1.87-1.37c.13-.08.19-.06.31,0a8.67,8.67,0,0,1,2,2.17.24.24,0,0,1-.06.37l-.84.66a.22.22,0,0,1-.36-.07,10,10,0,0,0-2.1-2.41Z"/><path d="M175.13,13.56c.26.06.38.17.38.34s-.15.59-.15.88.07.92.11,1.41a30.23,30.23,0,0,0,.67,3.61l3-1.6a5,5,0,0,0,1.45-1.13,10.71,10.71,0,0,1,1.53,2,.83.83,0,0,1,.15.44c0,.21-.13.38-.42.42a10.53,10.53,0,0,0-2,.63A29.17,29.17,0,0,0,174.88,23c-1.83,1.2-2.48,2.18-2.48,3.17,0,1.24.93,1.76,3.34,1.76a37.17,37.17,0,0,0,6.41-.48c.23,0,.33,0,.37.25a17.12,17.12,0,0,1,.21,1.95c0,.24-.12.34-.37.36a45.09,45.09,0,0,1-6.26.32c-4,0-6.07-1.3-6.07-4,0-2.33,1.53-3.86,4-5.41a32.49,32.49,0,0,1-1.09-5.12,9.57,9.57,0,0,0-.55-2.44A12,12,0,0,1,175.13,13.56Z"/><path d="M197.16,17.09a26.26,26.26,0,0,1-2.62,9.05c-.91,1.57-2,2.41-3.57,2.41-1.85,0-3.72-2-3.72-5.39a7.73,7.73,0,0,1,2.37-5.46A9.18,9.18,0,0,1,196.45,15c5,0,8,3.11,8,7.29,0,3.9-2.21,6.36-6.47,7.64-.44.12-.63,0-.9-.38a4.36,4.36,0,0,0-1.47-1.32C199.16,27.4,202,25.93,202,22a4.77,4.77,0,0,0-4.7-4.87Zm-6,2A6,6,0,0,0,189.5,23c0,1.93.77,3,1.43,3s1-.27,1.57-1.28a24.12,24.12,0,0,0,2.23-7.52A6.35,6.35,0,0,0,191.14,19.13Z"/><path d="M220.49,12.78c.28-.12.32-.1.4.11a16.9,16.9,0,0,0,6.8,7.75,7,7,0,0,0-1.21,1.57c-.19.32-.28.46-.4.46s-.23-.1-.44-.27a16.45,16.45,0,0,1-2-1.7c0,.61,0,1.34-.06,2.08a40.78,40.78,0,0,1-.53,5.88c-.27,1.66-1.07,2.58-3.12,2.58-.53,0-.93,0-1.43,0-.65,0-.63,0-.78-.74a4.46,4.46,0,0,0-.65-1.68,15.29,15.29,0,0,0,2.39.19c.89,0,1.24-.33,1.41-1.3a34.34,34.34,0,0,0,.4-5.21h-3.74a10.18,10.18,0,0,1-6.38,8.91,1.45,1.45,0,0,1-.5.16c-.17,0-.24-.14-.45-.5a3.92,3.92,0,0,0-1.07-1.26c3.82-1.39,5.67-3.61,6.07-7.31H215c-2,0-2.65.05-2.77.05s-.23,0-.23-.23V20.74a22.33,22.33,0,0,1-2,1.74c-.23.17-.36.28-.46.28s-.23-.15-.44-.46A4.64,4.64,0,0,0,207.83,21a16.43,16.43,0,0,0,6.07-6.93,6.12,6.12,0,0,0,.42-1.35,14.57,14.57,0,0,1,2.18.74c.23.1.3.21.3.35a.46.46,0,0,1-.17.32,1.65,1.65,0,0,0-.48.67,18.92,18.92,0,0,1-3.85,5.57c.3,0,1,0,2.65,0h5.65c1.82,0,2.52,0,2.73,0a22.14,22.14,0,0,1-4.52-6.66c-.08-.23,0-.25.19-.36Z"/><path d="M236.6,18.14a9.5,9.5,0,0,0,3.07,2.39A4.58,4.58,0,0,0,239,21.6c-.14.34-.23.51-.37.51s-.23-.11-.47-.3a10.48,10.48,0,0,1-2.28-2.56c0,1.68.08,2.1.08,2.31s0,.23-.23.23h-1.41c-.21,0-.23,0-.23-.23s.06-.59.08-2.1a11.06,11.06,0,0,1-2.75,2.75c-.23.17-.35.25-.48.25s-.23-.12-.36-.39a3.87,3.87,0,0,0-.75-1.16,11.24,11.24,0,0,0,3.63-2.77H233c-1.76,0-2.37,0-2.5,0s-.21,0-.21-.23V16.77c0-.21,0-.23.21-.23s.74.05,2.5.05h1V15a16.8,16.8,0,0,0-.15-2.54,18.06,18.06,0,0,1,2,.15c.23,0,.33.1.33.21a2.19,2.19,0,0,1-.14.5A7.72,7.72,0,0,0,236,15v1.6h.88c1.79,0,2.38-.05,2.5-.05s.23,0,.23.23V18c0,.21,0,.23-.23.23s-.71,0-2.5,0ZM233,25.72c-1.79,0-2.38,0-2.5,0s-.23,0-.23-.23V24.21c0-.21,0-.23.23-.23s.71,0,2.5,0h1a8.4,8.4,0,0,0,0-1.81c.84.07,1.41.11,1.87.17.23,0,.36.13.36.25A1,1,0,0,1,236,23a3,3,0,0,0-.19,1.05h1c1.83,0,2.39,0,2.52,0s.25,0,.25.23v1.32c0,.21,0,.23-.25.23s-.69,0-2.52,0h-.53a6.57,6.57,0,0,0,3.13,2.69,4.58,4.58,0,0,0-1,1.07c-.21.31-.32.46-.47.46s-.25-.11-.48-.27a7.9,7.9,0,0,1-2.29-2.59,7.57,7.57,0,0,1-3.29,3.74,1,1,0,0,1-.44.19c-.15,0-.28-.13-.49-.46a4.36,4.36,0,0,0-1-1.09,5.82,5.82,0,0,0,3.7-3.74Zm-1.09-12.47c.21-.11.27-.09.42.08a11,11,0,0,1,1.15,1.95c.11.23.06.3-.21.42l-1,.47c-.25.12-.31.14-.4-.07a10.67,10.67,0,0,0-1.07-2c-.14-.21-.16-.28.13-.42Zm5.35.71a3.15,3.15,0,0,0,.29-.92,10.06,10.06,0,0,1,1.56.56c.17.07.23.17.23.26s0,.16-.19.29a1.25,1.25,0,0,0-.29.4c-.17.38-.45.84-.72,1.3-.17.27-.25.38-.38.38a.92.92,0,0,1-.4-.17,5.89,5.89,0,0,0-1-.42A11.59,11.59,0,0,0,237.21,14Zm6.21,14.55c.21.15.24.23.24.34s-.11.19-.26.25a2.34,2.34,0,0,0-.54.38A14.14,14.14,0,0,1,240,31.37a1.66,1.66,0,0,1-.54.21c-.19,0-.3-.15-.51-.51a4.28,4.28,0,0,0-.86-1.05,10.51,10.51,0,0,0,3.15-1.68,4.16,4.16,0,0,0,.72-.73A14.65,14.65,0,0,1,243.42,28.51Zm-.86-13.4c-1.87,0-2.5.05-2.62.05s-.23,0-.23-.23V13.39c0-.21,0-.23.23-.23s.75,0,2.62,0h3.91c1.89,0,2.52,0,2.64,0s.21,0,.21.23v1.54c0,.21,0,.23-.21.23s-.75-.05-2.64-.05h-1.05a16.11,16.11,0,0,1-.65,1.58h1c1.68,0,2.27,0,2.42,0s.23,0,.23.21,0,.86,0,2.45V24.9c0,1.6,0,2.31,0,2.41s0,.26-.23.26-.74-.05-2.42-.05H243c-1.7,0-2.27.05-2.39.05s-.25,0-.25-.26,0-.81,0-2.41V19.4c0-1.68,0-2.39,0-2.54s0-.21.25-.21.65,0,2.1,0a12.94,12.94,0,0,0,.61-1.58Zm-.23,4.65h4V18.43h-4Zm4,3V21.33h-4v1.39Zm0,1.57h-4v1.49h4Zm-.56,3.49a.37.37,0,0,1,.27-.15.4.4,0,0,1,.21.1,11,11,0,0,0,3.46,2.08,5.46,5.46,0,0,0-.86,1.18c-.19.36-.29.48-.46.48a1.16,1.16,0,0,1-.48-.19A12.36,12.36,0,0,1,244.89,29a.27.27,0,0,1-.1-.21c0-.06,0-.14.17-.25Z"/><path d="M262.39,17.36c-2.56.49-4.81.93-7.06,1.39-.79.19-1,.23-1.32.33a1.12,1.12,0,0,1-.46.17.48.48,0,0,1-.4-.31,16.18,16.18,0,0,1-.78-2.27,29,29,0,0,0,3.34-.36c2.58-.38,7.2-1.07,12.62-1.78.31,0,.42.08.44.23a11.26,11.26,0,0,1,.23,1.85c0,.25-.12.31-.4.31a9.42,9.42,0,0,0-2.56.46c-3.57,1.22-5.35,3.68-5.35,6.2,0,2.7,1.93,4.18,5.58,4.41.34,0,.46.08.46.31a7.36,7.36,0,0,1-.23,1.81c-.06.31-.14.44-.4.44-3.69,0-7.74-2.12-7.74-6.49,0-3,1.49-5,4-6.66Zm4.16,2.27c.1-.08.18-.06.31,0a9.7,9.7,0,0,1,2,2.25.2.2,0,0,1-.06.33l-.88.65c-.15.11-.25.09-.36-.06a10.44,10.44,0,0,0-2.12-2.43Zm1.86-1.36c.13-.09.19-.07.32,0a8.42,8.42,0,0,1,2,2.16.24.24,0,0,1-.06.38l-.84.65a.22.22,0,0,1-.36-.06,9.44,9.44,0,0,0-2.1-2.42Z"/><path d="M287.38,19.42a6.92,6.92,0,0,0,0-1.43,9.41,9.41,0,0,1,2.43.9.4.4,0,0,1,.15.57,3.73,3.73,0,0,0-.34.82c-.17.88-.37,1.81-.58,2.71a25.87,25.87,0,0,1,3.27,2c.21.13.19.24.13.44a16.08,16.08,0,0,1-.91,1.81c-.06.11-.12.15-.19.15a.4.4,0,0,1-.25-.15,16.21,16.21,0,0,0-2.75-2,12.91,12.91,0,0,1-4.24,5.52c-.19.15-.29.23-.42.23a.53.53,0,0,1-.31-.15,4.42,4.42,0,0,0-1.83-.86,11.59,11.59,0,0,0,4.7-5.69,14,14,0,0,0-4.15-1.28,14.71,14.71,0,0,1-2.57,4.2,3.42,3.42,0,0,1-2.68,1.16c-1.22,0-2.5-.84-2.5-2.88,0-2.6,2.69-4.64,6.19-4.64.69-1.74,1.22-3.21,1.74-5l-2.89.34a4.09,4.09,0,0,0-.95.23,1.12,1.12,0,0,1-.38.08.33.33,0,0,1-.33-.23,12.64,12.64,0,0,1-.61-2.29,7.69,7.69,0,0,0,1.85.13,23.17,23.17,0,0,0,3.25-.27,2.44,2.44,0,0,0,1-.36.47.47,0,0,1,.27-.08.52.52,0,0,1,.3.08,7.36,7.36,0,0,1,1.42,1.15.51.51,0,0,1,.19.36c0,.13-.08.23-.21.36a2.76,2.76,0,0,0-.56,1.09c-.55,1.43-1.14,3.07-1.77,4.58a17.42,17.42,0,0,1,4.08,1.05A22.13,22.13,0,0,0,287.38,19.42Zm-11.09,5.86c0,.67.23,1,.74,1a1.67,1.67,0,0,0,1.21-.8,13.58,13.58,0,0,0,1.54-2.56C277.64,23,276.29,24.08,276.29,25.28Z"/><path d="M302.16,21.16a6.36,6.36,0,0,1,3.34-.94,4.87,4.87,0,0,1,5.21,5c0,3.5-2.84,5.75-7.33,5.75-2.64,0-4.24-1.13-4.24-3.09a2.79,2.79,0,0,1,3-2.56,3.83,3.83,0,0,1,3.95,3.07,3.16,3.16,0,0,0,2.14-3.19,3.06,3.06,0,0,0-3.3-3.17,8.52,8.52,0,0,0-5.37,2.22c-.61.55-1.2,1.15-1.83,1.79-.15.14-.25.23-.36.23a.54.54,0,0,1-.31-.19,10,10,0,0,1-1.24-1.37c-.13-.17-.06-.31.11-.48a51.57,51.57,0,0,0,5-4.64c1.3-1.34,2.29-2.39,3.26-3.59-1.26.23-2.75.52-4.06.8a5.77,5.77,0,0,0-.88.25,1.51,1.51,0,0,1-.42.1.47.47,0,0,1-.46-.35,10.53,10.53,0,0,1-.74-2.27,10.7,10.7,0,0,0,2,0c1.28-.12,3.13-.4,4.76-.71a5.48,5.48,0,0,0,1.16-.32,1.08,1.08,0,0,1,.4-.17.78.78,0,0,1,.48.17,8.4,8.4,0,0,1,1.41,1.35.73.73,0,0,1,.23.5.55.55,0,0,1-.36.5,3.38,3.38,0,0,0-.92.68c-1.54,1.49-2.94,3-4.54,4.49Zm0,6c-.6,0-1,.35-1,.79,0,.66.56,1.1,1.82,1.1a4.21,4.21,0,0,0,1-.09C303.7,27.8,303.07,27.15,302.18,27.15Z"/><path d="M328.24,22.55H315.48V21.33h12.76Z"/><path class="cls-3" d="M347.46,18a18,18,0,0,1-3.95,7.6,21.76,21.76,0,0,0,7.69,3.57,5.31,5.31,0,0,0-1,1.72c-.15.4-.21.55-.42.55a1.58,1.58,0,0,1-.48-.11,23.16,23.16,0,0,1-7.5-4.16,23.64,23.64,0,0,1-7.5,4.12,2.64,2.64,0,0,1-.5.13c-.19,0-.25-.15-.4-.53a4.83,4.83,0,0,0-.94-1.55,22.42,22.42,0,0,0,7.68-3.72A19.25,19.25,0,0,1,336.08,18h-.4c-1.89,0-2.54,0-2.67,0s-.23,0-.23-.23v-1.7c0-.21,0-.23.23-.23s.78,0,2.67,0h4.83v-1a12.15,12.15,0,0,0-.17-2.41,19.82,19.82,0,0,1,2.33.15c.21,0,.34.1.34.23a1.08,1.08,0,0,1-.13.42c-.12.21-.12.44-.12,1.57v1h5.18c1.89,0,2.54,0,2.67,0s.25,0,.25.23v1.7c0,.21,0,.23-.25.23s-.78,0-2.67,0Zm-9.09,0a14.32,14.32,0,0,0,3.46,6.13A13,13,0,0,0,345,18Z"/><path class="cls-3" d="M357.52,23.43c0-.8,0-1.76,0-2.69a22.79,22.79,0,0,1-1.87,2.19c-.21.18-.33.31-.46.31s-.21-.15-.31-.46a8.2,8.2,0,0,0-.8-1.72A17.45,17.45,0,0,0,359,14a8.12,8.12,0,0,0,.42-1.47,14.64,14.64,0,0,1,2,.67c.28.11.36.17.36.32a.42.42,0,0,1-.19.35,2.19,2.19,0,0,0-.52.91,27,27,0,0,1-1.32,2.71V28.18c0,2,0,3.06,0,3.19s0,.21-.23.21h-1.83c-.23,0-.25,0-.25-.21s0-1.16,0-3.19Zm8,4.28c0,.76.12,1,.59,1.2a7.2,7.2,0,0,0,2.08.15,3.11,3.11,0,0,0,2.16-.53c.35-.29.54-1.19.63-3.19a6.52,6.52,0,0,0,1.61.86c.53.19.51.19.47.74-.15,2-.51,3-1.22,3.48a7.09,7.09,0,0,1-3.8.72,8.9,8.9,0,0,1-3.65-.42c-.7-.34-1.12-.89-1.12-2.29V15.18a15.41,15.41,0,0,0-.12-2.44c.84,0,1.51.07,2.24.15.28,0,.4.1.4.27a.82.82,0,0,1-.12.4,3.31,3.31,0,0,0-.15,1.43v5.25a23.24,23.24,0,0,0,3.88-3.09,7.82,7.82,0,0,0,1.24-1.43,17.84,17.84,0,0,1,1.64,1.39c.17.17.23.27.23.42s-.15.27-.36.34a4.13,4.13,0,0,0-1.09.79,36,36,0,0,1-5.54,4.08Z"/><circle class="cls-4" cx="54.83" cy="72.04" r="52.68"/><path class="cls-5" d="M53.31,69.08,53.26,69c-.09-.26-.18-.52-.26-.77l0-.11-.24-.74v0c-.08-.25-.15-.5-.22-.75l0-.1c-.14-.51-.26-1-.37-1.52v-.08q-.09-.39-.15-.78v0c0-.26-.09-.52-.12-.79v0l-.09-.82v-.06c-.05-.56-.08-1.13-.1-1.74v-.08c0-.6,0-1.23,0-1.9v-.08c0-.34,0-.69.05-1h0a33.42,33.42,0,0,1-5.54,8.3,47.59,47.59,0,0,0,7.34,3.72Z"/><path class="cls-5" d="M56.66,68.2c-.08.25-.17.51-.26.77l0,.11-.16.45a48,48,0,0,0,7.34-3.72A33.42,33.42,0,0,1,58,57.51h0c0,.35,0,.7,0,1v.08c0,.67,0,1.3,0,1.9v.08c0,.61,0,1.18-.1,1.74v.06l-.09.82v0c0,.27-.07.53-.12.79v0c0,.26-.09.52-.15.78l0,.08c-.1.51-.22,1-.36,1.52l0,.1c-.07.25-.15.5-.22.75v0l-.24.74Z"/><path class="cls-5" d="M48.47,51.85a3,3,0,0,1-.88-2.2c-3.39,1.58-6.49,3.41-10.11,8.94h0C42.13,57,45.06,55.49,48.47,51.85Z"/><path class="cls-5" d="M58.71,51.53c1.45-.12,2-1,2-1.85A1.53,1.53,0,0,0,59,48.26l0-1.35a3,3,0,0,1,2.58,1.17A47.08,47.08,0,0,0,74.09,50.6c-1.26-4.21-5.9-6-9.86-6.19-4.37-.25-8.06,1.1-8.6,3.14a3.39,3.39,0,0,0,.59,3A2.77,2.77,0,0,0,58.71,51.53Z"/><path class="cls-5" d="M62.06,49.65a2.92,2.92,0,0,1-.87,2.2c3.41,3.64,6.34,5.13,11,6.75h0C68.56,53.06,65.46,51.23,62.06,49.65Z"/><path class="cls-5" d="M58.83,52.88a4.4,4.4,0,0,1-1.21-.05c1.5,5.75,3.91,8.77,6.92,12.35h0c-.58-5.07-1.2-8.7-4.38-12.63A4.18,4.18,0,0,1,58.83,52.88Z"/><path class="cls-5" d="M50.83,52.88a4.18,4.18,0,0,1-1.35-.34c-3.19,3.93-3.8,7.56-4.38,12.63h0c3-3.57,5.41-6.59,6.91-12.3A6.84,6.84,0,0,1,50.83,52.88Z"/><path class="cls-5" d="M54.83,69.82c2.06-5.4,2.63-8.73,1.45-17.45a4,4,0,0,1-1.1-.9,5.62,5.62,0,0,1-.35-.5,5.62,5.62,0,0,1-.35.5,4.45,4.45,0,0,1-1.11,1C52.21,61.11,52.77,64.44,54.83,69.82Z"/><path class="cls-5" d="M63.47,55.52a27.29,27.29,0,0,1,2.18,8.93c.65-.43,1.28-.87,1.88-1.33a24.09,24.09,0,0,0,3.86-3.55A26.84,26.84,0,0,1,63.47,55.52Z"/><path class="cls-5" d="M66.35,50.68a23.06,23.06,0,0,1,6.54,6.86,8.86,8.86,0,0,0,1.45-5.75A49.22,49.22,0,0,1,66.35,50.68Z"/><path class="cls-5" d="M46.19,55.52a27,27,0,0,1-7.92,4,24.09,24.09,0,0,0,3.86,3.55c.6.46,1.23.9,1.87,1.33A27.55,27.55,0,0,1,46.19,55.52Z"/><path class="cls-5" d="M43.31,50.68a49.37,49.37,0,0,1-8,1.11,8.8,8.8,0,0,0,1.45,5.75A23.06,23.06,0,0,1,43.31,50.68Z"/><path class="cls-5" d="M48.15,48.08a2.92,2.92,0,0,1,2.46-1.17h.11l0,1.35a1.55,1.55,0,0,0-1.75,1.42c0,.83.56,1.73,2,1.85a2.77,2.77,0,0,0,2.49-.94,3.39,3.39,0,0,0,.59-3c-.54-2-4.24-3.39-8.6-3.14-4,.23-8.6,2-9.86,6.19A47.08,47.08,0,0,0,48.15,48.08Z"/><path class="cls-5" d="M53,74.83l-.09.1c-.17.21-.35.41-.53.61l-.07.08-.52.58,0,0c-.18.2-.36.39-.55.57l-.07.08c-.37.37-.74.73-1.13,1.08L50,78l-.6.52h0l-.62.5,0,0-.66.48-.05,0c-.46.32-.94.64-1.45,1l-.07,0c-.52.31-1.07.62-1.66.94l-.06,0-.94.48h0a33,33,0,0,1,10,.66,48.71,48.71,0,0,0-.45-8.23Z"/><path class="cls-5" d="M50.59,72.37l.8-.16.12,0,.47-.08a47.85,47.85,0,0,0-6.9-4.5,33,33,0,0,1-4.41,9h0l.88-.57.06,0c.57-.35,1.11-.67,1.64-1l.07,0q.8-.44,1.56-.78l0,0,.76-.33h0l.74-.3h0c.25-.1.49-.18.74-.26l.09,0c.49-.16,1-.31,1.49-.44l.1,0,.77-.18h0l.76-.16Z"/><path class="cls-5" d="M40.53,87.63a3,3,0,0,1-1.47,1.86c3.06,2.15,6.2,3.92,12.8,4.3v0C48.14,90.57,45.38,88.77,40.53,87.63Z"/><path class="cls-5" d="M35.13,78.93a1.87,1.87,0,0,0-2.61-.81,1.52,1.52,0,0,0-.35,2.21L31,81a3,3,0,0,1-.28-2.81,47.22,47.22,0,0,0-4.1-12.16c-3,3.2-2.21,8.09-.43,11.63,2,3.91,5,6.44,7,5.88a3.37,3.37,0,0,0,2.35-2A2.78,2.78,0,0,0,35.13,78.93Z"/><path class="cls-5" d="M31.82,77a2.93,2.93,0,0,1,2.35-.34c1.45-4.77,1.27-8.06.36-12.88h0C31.53,69.63,31.49,73.24,31.82,77Z"/><path class="cls-5" d="M36.24,78.15a4.57,4.57,0,0,1,.56,1.07C41,75.05,42.44,71.45,44,67.05h0c-4.1,3-6.94,5.38-8.75,10.11A4,4,0,0,1,36.24,78.15Z"/><path class="cls-5" d="M40.24,85.07a4.06,4.06,0,0,1,.38,1.35c5,.79,8.45-.49,13.13-2.53v0c-4.6-.81-8.41-1.39-14.11.17A6.09,6.09,0,0,1,40.24,85.07Z"/><path class="cls-5" d="M52.91,73.14c-5.71.92-8.88,2.09-15.84,7.48a4,4,0,0,1-.23,1.4,5.45,5.45,0,0,1-.25.55,3.05,3.05,0,0,1,.6.06,4.2,4.2,0,0,1,1.4.46C46.68,79.77,49.27,77.62,52.91,73.14Z"/><path class="cls-5" d="M36.21,72.81a27.47,27.47,0,0,1,6.64-6.36c-.69-.34-1.39-.66-2.09-1a25,25,0,0,0-5-1.57A27.54,27.54,0,0,1,36.21,72.81Z"/><path class="cls-5" d="M30.57,72.74a23.18,23.18,0,0,1,2.67-9.1,8.87,8.87,0,0,0-5.7,1.62A48.28,48.28,0,0,1,30.57,72.74Z"/><path class="cls-5" d="M44.84,87.77a27.24,27.24,0,0,1,7.48,4.84,24.84,24.84,0,0,0,1.14-5.12c.09-.75.16-1.52.22-2.29A27.14,27.14,0,0,1,44.84,87.77Z"/><path class="cls-5" d="M42.09,92.69a48.84,48.84,0,0,1,5,6.36,8.77,8.77,0,0,0,4.25-4.12A23.3,23.3,0,0,1,42.09,92.69Z"/><path class="cls-5" d="M37.42,89.8a2.93,2.93,0,0,1-2.24-1.55l-.06-.1,1.19-.64a1.53,1.53,0,0,0,2.1.8c.75-.38,1.22-1.34.6-2.66A2.77,2.77,0,0,0,37,84,3.37,3.37,0,0,0,34,85c-1.5,1.49-.82,5.37,1.58,9,2.18,3.31,6,6.45,10.29,5.44A47.1,47.1,0,0,0,37.42,89.8Z"/><path class="cls-5" d="M58.15,72.19l.12,0,.8.16.11,0,.76.16h0l.76.18.11,0c.5.13,1,.28,1.49.44l.08,0,.75.26h0l.74.3h0l.76.33,0,0c.51.23,1,.49,1.55.78l.07,0c.54.29,1.08.61,1.65,1l.06,0,.88.57h0a33.57,33.57,0,0,1-4.41-9,49,49,0,0,0-6.9,4.5Z"/><path class="cls-5" d="M57.23,75.54l-.53-.61-.08-.1-.3-.37a47.67,47.67,0,0,0-.45,8.23,33,33,0,0,1,10-.66h0l-.93-.48-.06,0c-.59-.32-1.14-.63-1.66-.94l-.07,0c-.51-.31-1-.63-1.45-1l0,0-.67-.48,0,0-.63-.5h0l-.6-.52-.06,0c-.39-.35-.76-.71-1.13-1.08l-.08-.08q-.27-.27-.54-.57l0,0c-.17-.19-.35-.38-.52-.58Z"/><path class="cls-5" d="M75.49,76.62a2.91,2.91,0,0,1,2.34.34c.33-3.72.29-7.33-2.68-13.23h0C74.22,68.56,74,71.85,75.49,76.62Z"/><path class="cls-5" d="M70.64,85.65c-.61,1.32-.14,2.28.61,2.66a1.53,1.53,0,0,0,2.1-.8l1.19.64a3,3,0,0,1-2.3,1.65,47.1,47.1,0,0,0-8.48,9.63c4.28,1,8.11-2.13,10.29-5.44,2.4-3.66,3.08-7.53,1.58-9a3.39,3.39,0,0,0-2.93-1A2.8,2.8,0,0,0,70.64,85.65Z"/><path class="cls-5" d="M70.6,89.49a2.93,2.93,0,0,1-1.47-1.86c-4.86,1.14-7.61,2.94-11.34,6.14v0C64.4,93.41,67.54,91.64,70.6,89.49Z"/><path class="cls-5" d="M69.42,85.07a5.51,5.51,0,0,1,.64-1c-5.72-1.57-9.54-1-14.15-.18v0c4.68,2,8.13,3.32,13.13,2.53A4.06,4.06,0,0,1,69.42,85.07Z"/><path class="cls-5" d="M73.42,78.15a4,4,0,0,1,1-1c-1.82-4.73-4.65-7.07-8.75-10.11h0c1.59,4.39,3,8,7.2,12.14A6.08,6.08,0,0,1,73.42,78.15Z"/><path class="cls-5" d="M56.75,73.14c3.64,4.49,6.25,6.64,14.39,10a3.8,3.8,0,0,1,1.33-.49,3.05,3.05,0,0,1,.6-.06,3.87,3.87,0,0,1-.25-.55,4.27,4.27,0,0,1-.3-1.45C65.6,75.23,62.44,74.05,56.75,73.14Z"/><path class="cls-5" d="M64.81,87.77A27.15,27.15,0,0,1,56,85.2c.06.77.13,1.54.22,2.29a24.21,24.21,0,0,0,1.14,5.12A27.19,27.19,0,0,1,64.81,87.77Z"/><path class="cls-5" d="M67.56,92.69a23.21,23.21,0,0,1-9.21,2.24,8.79,8.79,0,0,0,4.26,4.12A49.57,49.57,0,0,1,67.56,92.69Z"/><path class="cls-5" d="M73.45,72.81a27.26,27.26,0,0,1,.45-8.89,25,25,0,0,0-5,1.57c-.7.3-1.4.62-2.09,1A27.47,27.47,0,0,1,73.45,72.81Z"/><path class="cls-5" d="M79.09,72.74a48.28,48.28,0,0,1,3-7.48,8.87,8.87,0,0,0-5.7-1.62A23.35,23.35,0,0,1,79.09,72.74Z"/><path class="cls-5" d="M78.92,78.23A3,3,0,0,1,78.7,81l-.06.09-1.15-.71a1.53,1.53,0,0,0-.36-2.21c-.69-.46-1.77-.39-2.6.81a2.78,2.78,0,0,0-.44,2.62,3.37,3.37,0,0,0,2.34,2c2,.56,5.06-2,7-5.88C85.23,74.16,86,69.27,83,66.07A47.22,47.22,0,0,0,78.92,78.23Z"/><path class="cls-5" d="M54.83,32.18A39.86,39.86,0,1,0,94.68,72,39.86,39.86,0,0,0,54.83,32.18Zm0,73.12A33.22,33.22,0,0,1,29.62,93.73C28.24,91.12,31,85.82,31,85.8h0s-6.1-.29-7.58-2.86A33.27,33.27,0,0,1,48.55,39.36c3,0,6.27,5.13,6.28,5.14h0s3.31-5.14,6.28-5.14A33.27,33.27,0,0,1,86.26,82.94c-1.48,2.57-7.57,2.86-7.58,2.86h0s2.73,5.32,1.35,7.93A33.2,33.2,0,0,1,54.83,105.3Z"/></g></g></svg>