<svg xmlns="http://www.w3.org/2000/svg" viewBox="0 0 402.07 126.64"><defs><style>.cls-1,.cls-2,.cls-3,.cls-4{fill:#fff;}.cls-1,.cls-2,.cls-3{stroke:#000;stroke-miterlimit:10;}.cls-1{stroke-width:4.21px;}.cls-2{stroke-width:4.3px;}.cls-3{stroke-width:4.3px;}</style></defs><title>アセット 344</title><g id="レイヤー_2" data-name="レイヤー 2"><g id="レイヤー_1-2" data-name="レイヤー 1"><polygon class="cls-1" points="399.92 40.55 41.62 40.55 60.35 2.11 399.92 2.11 399.92 40.55"/><rect class="cls-2" x="53.07" y="40.54" width="346.85" height="69.43"/><circle class="cls-3" cx="54.61" cy="72.03" r="52.46"/><path d="M160.55,79.12a19.25,19.25,0,0,0,5.34,1.9c.14,0,.17.07.17.17a.37.37,0,0,1-.14.27,9,9,0,0,0-1.66,1.7c-.1.14-.14.24-.27.24a13.77,13.77,0,0,1-4.9-2.75c1.56,4.55,5.24,5.71,5.61,5.71.2,0,.75-.1.75-3.37,0-.17,0-.23.1-.23s.14.06.24.16a9.66,9.66,0,0,0,2.79,2.76.44.44,0,0,1,.3.41s0,.06,0,.1c-.44,2.62-1.46,3.74-3.13,3.74-2.24,0-10.2-3.06-10.2-13.43v-.71c-.88,0-1.87-.07-2.82-.07v.07c0,2.65,0,9.62.37,13.36,0,.13-.1.2-.27.2-.34,0-.88.07-1.46.07-1.94,0-2-.17-2-.27v-.07a131.76,131.76,0,0,0,.44-13.29v-.11h-2.92c-.17,3.81-1.13,10.41-7,13.87a.53.53,0,0,1-.38.17.34.34,0,0,1-.23-.1,9.6,9.6,0,0,0-3.13-1.39c-.27-.1-.38-.17-.38-.24s.11-.14.17-.17c6.73-2.62,7.82-8.64,8-12.1-1.46,0-2.92.13-5.06.27-.24,0-.41-.07-.41-.27s0-.78,0-1.29c0-1.57.06-1.6.27-1.6h.17c2.14.17,3.67.24,5.1.27,0-.71-.07-.95-.07-1.6a18,18,0,0,0-.1-1.83,28.09,28.09,0,0,1-3.23,1,.36.36,0,0,1-.31-.17,16.74,16.74,0,0,0-2-1.9c-.14-.14-.17-.21-.17-.24s.1-.07.24-.1a20.07,20.07,0,0,0,8.22-3.17c.14-.1.21-.2.28-.2s.13,0,.23.14a9.67,9.67,0,0,1,2.28,1.76,1.06,1.06,0,0,1,.21.31c-.07-.71-.17-1.43-.28-2.18V64.8c0-.1,0-.1.11-.1h.13c.41,0,4.18.24,4.18,1,0,.34-.37.75-.61,1.15-.44.72-.44,2.35-.44,6.29,1.87,0,3.81-.06,5.61-.2l.24,0c.1,0,.2,0,.2.27,0,0,0,.13,0,.2a17.06,17.06,0,0,0-.27,3,14.22,14.22,0,0,0,.1,1.73,9.57,9.57,0,0,0,2.65-2.85c.07-.14.13-.21.2-.21a.19.19,0,0,1,.14,0c.2,0,2.38,1.59,2.38,2,0,.21-.24.31-.68.41a2,2,0,0,0-1,.44Zm.31-12.92a18,18,0,0,0,4.66,1.56c.13,0,.2.07.2.14s-.07.17-.17.27a7.08,7.08,0,0,0-1.36,1.73c-.07.14-.14.24-.27.24-.78,0-3.3-1.46-4.49-2.38a6.67,6.67,0,0,0,5,4.69c.85,0,.85-2.65.85-2.72s0-.2.11-.2.13,0,.2.14A7.85,7.85,0,0,0,168,71.94c.24.11.3.24.3.34a.11.11,0,0,1,0,.07c-.48,2.31-1.46,3.33-3.13,3.33-1.94,0-9-1.76-9-11v-.51c-1.76-.07-1.8-.1-4.11-.1-4,0-5.24.07-9.52.31-.27,0-.44,0-.44-.28a11.42,11.42,0,0,1,0-1.32,11.71,11.71,0,0,1,0-1.33c0-.2,0-.27.24-.27h.2c3.6.2,5.41.27,7.68.27H152c3.36,0,3.57,0,6.9-.2.34,0,.44,0,.44.2s0,.14,0,.21a14.77,14.77,0,0,0-.3,2.95V65a9.58,9.58,0,0,0,3-3.12c.06-.11.1-.17.17-.17.4,0,2.58,1.63,2.58,2.07,0,.17-.24.27-.68.37a2,2,0,0,0-1,.44Zm-11.05,5.64c0-1.46,0-2.85-.17-4.35-.1.17-.37.24-.85.24h-.31a5.92,5.92,0,0,0-1.25.47l-1,.48,1,.2c.31.07.41.21.41.34s-.27.55-.44.85a9.65,9.65,0,0,0-.34,3.06h2.89Z"/><path d="M173.81,89.55a.51.51,0,0,1-.3-.1,10.06,10.06,0,0,0-3.23-1c-.17,0-.27-.1-.27-.2s0-.1.17-.17a12.21,12.21,0,0,0,5.2-6.09c0-.1.07-.17.13-.17.21,0,3.47.82,3.47,1.57,0,.27-.3.47-.68.74-.2.14-.2.21-.44.65C175.75,88.19,174.15,89.55,173.81,89.55Zm13.84-9.21c-.78,0-4.66,0-7,0,0,.1,0,.2,0,.27,0,.44-.17.47-1.87.47-1.53,0-1.77,0-1.77-.44v-.1c.34-2.62.41-9.32.41-10.27v-1c0-2-.07-5.17-.27-6.76a.76.76,0,0,1,0-.27c0-.07,0-.11.31-.11h.24c1,.07,2.82.11,4.59.14a12.67,12.67,0,0,0,1.05-3.78c0-.27.07-.34.24-.34s4.25.68,4.25,1.37c0,.23-.34.54-.75.84a2.76,2.76,0,0,0-.65.85c-.23.38-.44.75-.68,1.09,2,0,5-.1,7.52-.2h.1c.27,0,.37.1.37.27v.14a33.29,33.29,0,0,0-.24,4.59c0,.88.11,3.8.31,5.33v.21c0,.27-.14.37-2,.37-1.36,0-1.53-.17-1.53-.47v-.11c-1,0-3.53-.1-4.62-.1s-4.22.07-5.07.1v1.6c2.21,0,4.46.07,6.5.07,2.61,0,10-.1,14.07-.34.37,0,.41.34.41,1.67a6.73,6.73,0,0,1,0,1c0,.14-.2.2-.34.2-3.87-.27-11.66-.33-14.1-.33-2,0-4.12,0-6.46.1,0,.58,0,1.15,0,1.66,2.28,0,6.29,0,7.07,0h1.19c2.35,0,7.14-.07,11.19-.31.27,0,.37,0,.37.17a.51.51,0,0,1,0,.21c-.41,1.56-.85,5.88-2.42,8.46-1.29,2.11-2.55,3.6-6.66,3.6-1.8,0-1.94-.13-2-.47-.14-1.06-1.19-2-2-2.93-.11-.1-.14-.17-.14-.2s.07-.1.17-.1.17,0,.27,0a17.7,17.7,0,0,0,3.84.51c2.08,0,2.66-.75,3.23-1.63a11.75,11.75,0,0,0,1.63-5s-5.37-.07-7.78-.07ZM180,87.45c0-.41,0-.85,0-1.33a17.63,17.63,0,0,0-.3-3.4v-.07c0-.34.2-.4,2.1-.4h.34c.17,0,.28,0,.34.27a16,16,0,0,1,.82,4.55c0,.24,0,.38-.34.44a14.41,14.41,0,0,1-2.41.28c-.51,0-.58-.17-.58-.28Zm10.4-19c-.92,0-3.64-.1-4.79-.1s-4.15.07-5.07.1v1.84c.92,0,4,.07,5,.07s3.85-.07,4.76-.07Zm-4.72-4.08c-1.33,0-5,.11-5,.11s0,.78-.07,1.76c1.09,0,4,.1,5,.1s3.88-.06,4.8-.1c0-.85-.07-1.76-.07-1.76S186.94,64.36,185.65,64.36Zm.54,22.27c-.1,0-.17,0-.2-.17a14,14,0,0,0-1.77-4,.22.22,0,0,1-.07-.17c0-.41,2-.78,2.07-.78,1,0,2.69,3.43,2.69,3.91S186.39,86.63,186.19,86.63ZM192,85.07a1,1,0,0,1-.23.06.17.17,0,0,1-.14-.1A12.24,12.24,0,0,0,189,81.9a.22.22,0,0,1-.1-.2.47.47,0,0,1,.06-.2,6.84,6.84,0,0,1,1.53-.89.56.56,0,0,1,.21-.06.3.3,0,0,1,.2.06c.72.34,3,2.18,3,2.72A6.94,6.94,0,0,1,192,85.07Z"/><path d="M213,78a3.52,3.52,0,1,1,3.53-3.54A3.53,3.53,0,0,1,213,78Z"/><path d="M241,86.63c0,1.67-1.29,3.5-5.27,3.5-.24,0-.37-.13-.51-.44a16.47,16.47,0,0,0-2.38-2.75c-.07-.11-.13-.17-.13-.21s0-.07.13-.07.1,0,.17,0a23.11,23.11,0,0,0,2.59.2c1.12,0,2-.2,2-1,0-.41,0-1,0-1.77a38.59,38.59,0,0,0-.2-4.41c-1.84,0-4.49.1-7,.3a.34.34,0,0,1-.34-.34,9,9,0,0,1,0-1.12,13.28,13.28,0,0,1,0-1.46,21.76,21.76,0,0,1-4.45,3,.29.29,0,0,1-.21-.1,8.56,8.56,0,0,0-3.09-1.77c-.31-.13-.41-.2-.41-.27s.17-.17.34-.24A26.53,26.53,0,0,0,233.89,68c-2,0-4.38.11-8,.28-.41,0-.44-.17-.44-1.67s0-1.7.27-1.7h.17c4.62.24,7.14.31,9.62.31A13.88,13.88,0,0,0,237,59.5c0-.24,0-.37.2-.37.48,0,4.46,1.15,4.46,1.76,0,.34-.55.72-.89,1.06a4.66,4.66,0,0,0-1,1.66c-.17.41-.41,1-.72,1.64h.14c7.17,0,10.57-.17,13.6-.31h.07c.3,0,.3.24.3,1.73s-.13,1.64-.37,1.64c-3.57-.17-6.12-.24-8.33-.28a23.56,23.56,0,0,0,11.56,8.4c.2.07.37.14.37.24s-.13.17-.44.31a14.55,14.55,0,0,0-3.71,1.93.55.55,0,0,1-.34.1c-.61,0-3.12-1.93-3.26-2a.12.12,0,0,1,0,.1,12.38,12.38,0,0,1,0,1.32,12.68,12.68,0,0,1,0,1.33c0,.17-.23.27-.3.27-2.65-.2-5.13-.27-6.87-.3a1.3,1.3,0,0,1-.3.23c-.41.24-.38.51-.41,1.09,0,1.4.1,4,.2,5.41Zm-6.83-2.86a1.82,1.82,0,0,0-.85.51c-2.82,2.42-5.51,4.53-6.26,4.53a.47.47,0,0,1-.37-.21,12.55,12.55,0,0,0-2.72-2c-.17-.1-.2-.17-.2-.2s.1-.11.23-.17a17.63,17.63,0,0,0,7.75-5c.17-.17.24-.27.38-.27.54,0,3.16,1.6,3.16,2.11C235.32,83.4,234.91,83.64,234.2,83.77Zm14.24-7A30,30,0,0,1,244.53,73c0,.62,0,1.26,0,1.64,0,.13-.17.23-.27.23h0a35,35,0,0,0-4.69-.27,39.45,39.45,0,0,0-5,.27h-.07c-.34,0-.34-.51-.34-1.8a30.16,30.16,0,0,1-3.64,3.71c2.42.24,4.73.3,6.46.3,1.16,0,2,0,2.55,0,5.27,0,7.35-.14,8.91-.27ZM237.67,68a44.41,44.41,0,0,1-2.45,3.71,33.14,33.14,0,0,0,3.53.2,46.73,46.73,0,0,0,4.73-.2A31.09,31.09,0,0,1,241,68Zm13,20.09a.34.34,0,0,1-.31.14c-1.15,0-7.1-5-7.1-5.68a6.7,6.7,0,0,1,2.55-1.33c.07,0,.13,0,.3.17a21,21,0,0,0,7.65,4.15c.17,0,.27.07.27.14s-.06.13-.27.27A16.81,16.81,0,0,0,250.62,88.09Z"/><path d="M281.12,78c0,.37-.34.51-2,.51-1.06,0-1.5,0-1.5-.48v-.41c-.82,0-2.41,0-3.54-.07a13.6,13.6,0,0,0,2.42,3.88,18.29,18.29,0,0,0,5.91-4,.18.18,0,0,1,.14-.1,10.73,10.73,0,0,1,2.82,3c0,.31-.48.45-1,.51a2.63,2.63,0,0,0-1.23.27c-.92.45-2.62,1.4-4.62,2.28,2.62,2,6.29,3.3,11.22,3.64.3,0,.4.1.4.17s-.13.24-.37.41a12.39,12.39,0,0,0-3,2.38.51.51,0,0,1-.47.24A21.62,21.62,0,0,1,274.9,84a5.41,5.41,0,0,0-.07,1c0,.24,0,.44-.44.58s-11.73,3.84-13,4.22c-.54.17-.82.64-1.12.64-.48,0-2.25-2.89-2.25-3.43,0-.17.17-.14.41-.17a55.28,55.28,0,0,0,6.53-1.4c.17-3.6.2-7,.2-9.92a100.44,100.44,0,0,0-.27-10.71,1.36,1.36,0,0,1,0-.31c0-.13.07-.2.3-.2h.24c2.58.2,4.42.2,6,.2v-.85a25.16,25.16,0,0,0-.37-4.11.43.43,0,0,1,0-.2c0-.11.07-.14.28-.14a25.22,25.22,0,0,1,3.94.71c.34.11.48.28.48.51,0,.41-.55,1-.75,1.64a7.69,7.69,0,0,0-.21,1.63,6.7,6.7,0,0,0,0,.81c1.73,0,3.81-.1,5.81-.24h.11c.3,0,.37.18.37.45-.2,2.34-.24,4.52-.24,7.34a45.15,45.15,0,0,0,.31,5.75Zm-12.85-3.06,5,0,4.49,0c0-.89,0-1.74,0-2.55-1,0-3.57-.11-4.49-.11s-3.94.07-5,.11Zm0,2.68c0,1.9,0,3.88.06,6.9,2.28-.64,4.32-1.29,5.55-1.66a19.46,19.46,0,0,1-3-5.27C269.83,77.59,268.78,77.62,268.27,77.62Zm5-10.47-4.9,0s0,1,0,2.45c1.16,0,4.15.07,4.93.07s3.54-.07,4.52-.07c0-1.43,0-2.45,0-2.45Z"/><path d="M303.29,82.76c0,.33-.11.57-1.7.57-.92,0-1.64,0-1.64-.47v-.07c0-.65,0-1.5.07-2.41-.37,0-.95-.07-1.46-.07s-1.19,0-1.56.07c0,1.52,0,3,.06,4.35,0,.57-.06.61-1.69.61s-1.74-.21-1.74-.55v-.1c.31-4.65.38-9.75.38-12.54,0-3.5-.07-6.26-.21-9.05,0-.13,0-.2,0-.3s.07-.21.24-.21.17,0,.27,0c1.09.1,2.58.17,4.31.17s2-.07,4.22-.21c.37,0,.44.14.44.48-.24,2.69-.24,5.81-.24,8.74,0,2.55.07,8.06.28,10.74Zm-4.76-17.34c-.95,0-1.53,0-1.53,0s-.07,2.11-.07,4.52c.41,0,1.09,0,1.6,0s1.22,0,1.6,0c0-2.17-.11-4.52-.11-4.52s-.34,0-1,0Zm1.6,7.31c-.38,0-1,0-1.57,0s-1.26,0-1.63,0c0,1.32,0,3,0,4.86.41,0,1.06,0,1.57,0s1.15,0,1.53,0C300.09,75.75,300.13,74,300.13,72.73ZM322,72.9c-3.77-.38-7.31-.41-9.45-.41s-3.91.07-8.36.34c-.34,0-.41-.1-.41-1.57s0-1.63.41-1.63c3.33.27,5.06.34,6.83.34V67.29c-1.53,0-3,.06-5.47.2-.31,0-.38,0-.38-1.46s.07-1.53.44-1.53c2.38.2,3.91.2,5.34.2v-.34a27.37,27.37,0,0,0-.47-5v-.17c0-.17,0-.2.23-.2.55,0,4.36.4,4.36,1.12,0,.27-.31.61-.51,1-.38.71-.34.64-.48,2.85a5,5,0,0,0,0,.68c1.29,0,2.58-.07,5.2-.23.17,0,.41,0,.41,1.56a6.7,6.7,0,0,1-.07,1.26c0,.13-.21.2-.31.2h0c-2.55-.14-3.74-.17-5.24-.2V70c2.11,0,4.86-.17,8-.41.24,0,.37.24.37,1.67,0,.54,0,1.09-.06,1.43,0,.13-.17.24-.28.24Zm-4.59,13c0,2-1.12,4.25-5.1,4.25q-.3,0-.51-.51c-.64-1.53-1.83-2.07-2.65-3-.1-.11-.17-.17-.17-.24s0-.07.14-.07a1.39,1.39,0,0,0,.17,0,19.72,19.72,0,0,0,2.75.28c1.29,0,2-.34,2-1.33.07-1.33.07-4,.07-5.54v-2h-1.46c-2.18,0-3.95.07-8.33.34a.32.32,0,0,1-.34-.31c0-.27,0-.78,0-1.32,0-1.64,0-1.64.38-1.64,4.21.34,5.95.34,8.33.34H314a12.71,12.71,0,0,0-.28-2,.86.86,0,0,0,0-.13c0-.14.1-.21.27-.21s4,.34,4,1a.87.87,0,0,1-.27.54c-.31.41-.41.41-.44.75,1.39-.07,2.95-.17,4.62-.3h0c.21,0,.34.27.34,1.7a14.24,14.24,0,0,1-.07,1.46.33.33,0,0,1-.27.24h0c-1.67-.17-3.27-.28-4.69-.31v2.92c0,1.84.17,3,.2,4.93Zm-7.51-1.49c-.07,0-.14-.07-.21-.14a19.47,19.47,0,0,0-4.25-3.64c-.1-.06-.13-.1-.13-.17,0-.37,1.49-1.36,1.83-1.56a.31.31,0,0,1,.17-.1.35.35,0,0,1,.17.06,17.37,17.37,0,0,1,4.46,2.89.29.29,0,0,1,.1.21,14.63,14.63,0,0,1-2,2.38C310,84.35,309.92,84.39,309.85,84.39Z"/><path d="M331.1,89.32c.51-4.59.75-12,.88-17.58-.3.37-3.8,4.73-4.55,4.73a.39.39,0,0,1-.27-.07,9.56,9.56,0,0,0-2.86-1.06c-.2,0-.34-.1-.34-.17s.07-.13.17-.2c5.85-4.15,10.5-12,10.91-14.28,0-.14.07-.2.17-.2.58,0,4,1.46,4,2.1,0,.24-.27.48-.78.68s-.68.14-1,.68a38.41,38.41,0,0,1-2.32,3.57c.24.07.41.17.55.21a.42.42,0,0,1,.34.41,1.12,1.12,0,0,1-.34.64,2,2,0,0,0-.51,1.63c-.14,4.22-.31,9.76-.31,14.28,0,1.77,0,3.37.1,4.69,0,.17-.1.34-1.93.34-1.6,0-1.94,0-1.94-.34Zm23.52-18.19c0,.13-.23.27-.34.27-5.09.37-5.84.44-8.83.88l-.72.11c2,10.13,7.62,12.91,8.3,12.91s1.59-1,1.83-3.8c0-.21.07-.28.17-.28s.14.07.21.17A11.67,11.67,0,0,0,358,84.15a.52.52,0,0,1,.23.51c-.91,3-2.55,4.66-4.55,4.66a5.11,5.11,0,0,1-2.72-.92c-5.61-3.54-8.09-9.52-9.35-15.47l-4.86,1h-.1a.39.39,0,0,1-.41-.24,13.42,13.42,0,0,1-.38-2.68v-.14c0-.34.17-.41.38-.41,2.14-.13,3.6-.27,4.86-.44-.27-1.73-.48-3.47-.61-5.1s-.27-3-.48-3.91a2.81,2.81,0,0,1-.07-.37.19.19,0,0,1,.21-.21c.07,0,.13,0,.2,0,3.67.44,4.42.57,4.42,1.12a3.17,3.17,0,0,1-.51,1.19,2.61,2.61,0,0,0-.2,1.12,49.33,49.33,0,0,0,.27,5.68l.75-.1c3.26-.45,4.08-.62,8.73-1.6h.07a.37.37,0,0,1,.38.3,19.37,19.37,0,0,1,.4,2.89Zm-5.16-3.54a23.27,23.27,0,0,0-4.12-2.82c-.13-.07-.27-.1-.27-.24a5.68,5.68,0,0,1,1.77-2.21c.65,0,4.79,2.31,4.79,2.76s-1.36,2.68-1.8,2.68A.49.49,0,0,1,349.46,67.59Z"/><path d="M106.88,24.16a21,21,0,0,0,1.94-.92,8.41,8.41,0,0,0,0,1.24c0,.66,0,.64-.52.92-1.24.62-2.66,1.2-4,1.7a3.31,3.31,0,0,0-.66.32.48.48,0,0,1-.34.14c-.12,0-.22,0-.3-.23-.2-.53-.36-1.11-.54-1.78a16.09,16.09,0,0,0,2-.51l.46-.14V19.22h-.16c-1.3,0-1.7,0-1.82,0s-.2,0-.2-.22V17.52c0-.2,0-.22.2-.22s.52,0,1.82,0h.16V15.46a16.94,16.94,0,0,0-.16-2.94c.78,0,1.4.06,2.06.14.2,0,.32.12.32.24a1.13,1.13,0,0,1-.12.4,6.71,6.71,0,0,0-.12,1.9v2.14c1.14,0,1.52,0,1.64,0s.2,0,.2.22V19c0,.2,0,.22-.2.22s-.5,0-1.64,0Zm5.05,2.78c0,.53.1.77.38.9s.9.23,2.88.23c2.16,0,2.82-.1,3.22-.43s.42-.67.48-2.26a5.34,5.34,0,0,0,1.44.64c.5.15.5.15.44.66-.18,1.74-.42,2.29-1.08,2.71s-1.64.66-4.74.66c-2.72,0-3.72-.24-4.22-.56s-.77-.9-.77-2V21.26c-1,.36-1.44.54-1.6.58s-.22,0-.26-.16l-.26-1.56c0-.2,0-.2.16-.26s.68-.16,2-.58v-2.2a20.22,20.22,0,0,0-.12-2.84c.68,0,1.33.06,1.93.12.28,0,.4.12.4.22a.9.9,0,0,1-.12.42,6.05,6.05,0,0,0-.12,1.9v1.72l1.92-.64v-2.9a20.74,20.74,0,0,0-.16-2.84,15.94,15.94,0,0,1,2,.16c.2,0,.32.1.32.22a1.13,1.13,0,0,1-.12.4,6.27,6.27,0,0,0-.12,1.8v2.52l1.54-.52c1.88-.62,2.48-.88,2.62-.9s.22,0,.22.2l-.06,2.56a19.56,19.56,0,0,1-.48,4.52c-.3,1.16-.86,1.52-1.72,1.52a4.72,4.72,0,0,1-.74,0c-.44,0-.44,0-.54-.66a5,5,0,0,0-.42-1.44,4.68,4.68,0,0,0,1.06.14c.34,0,.48-.1.6-.74a19.06,19.06,0,0,0,.24-3.5l-2.32.8v3.48c0,2,0,3,0,3.1s0,.23-.22.23H114c-.2,0-.22,0-.22-.23s0-1.1,0-3.1V19.94l-1.92.66Z"/><path d="M125.74,27.37h11.65c1.94,0,2.62,0,2.74,0s.22,0,.22.22v1.6c0,.2,0,.22-.22.22s-.8,0-2.74,0H125.74v.86c0,.2,0,.22-.24.22h-1.7c-.2,0-.22,0-.22-.22s0-1.48,0-4.21V17.34c0-2.74,0-4.08,0-4.2s0-.24.22-.24.8,0,2.68,0h10.77c1.86,0,2.5,0,2.62,0s.24,0,.24.24v1.58c0,.2,0,.22-.24.22s-.76,0-2.62,0H125.74ZM128.8,17c.18-.18.2-.2.38-.08,1.32.84,2.65,1.78,4,2.8a17.34,17.34,0,0,0,1.5-2.48,6,6,0,0,0,.56-1.62,11.28,11.28,0,0,1,1.92.76c.2.1.3.18.3.34s-.1.24-.24.36a4,4,0,0,0-.56.92,22.92,22.92,0,0,1-1.88,3c1.2,1,2.38,2,3.58,3.12.1.08.14.14.14.2s0,.14-.16.26l-1.1,1.2a.31.31,0,0,1-.22.14.21.21,0,0,1-.18-.1c-1.12-1.16-2.26-2.22-3.4-3.22a19.84,19.84,0,0,1-5,3.74,1.23,1.23,0,0,1-.48.21c-.14,0-.24-.15-.44-.45A4,4,0,0,0,126.48,25a18.67,18.67,0,0,0,5.39-3.76c-1.31-1-2.63-2-4-3-.1-.06-.14-.12-.14-.16s.06-.14.16-.24Z"/><path d="M150,21.54c1.11,0,1.43,0,1.55,0s.26,0,.26.24c0,.7-.06,1.22-.06,1.78a26.63,26.63,0,0,1-.38,4.57,2.34,2.34,0,0,1-2.55,2,8.36,8.36,0,0,1-1,0c-.54-.06-.58,0-.68-.64a3.69,3.69,0,0,0-.56-1.48c.8.1,1.52.18,1.92.18.6,0,.82-.26,1-1.21a22.76,22.76,0,0,0,.24-3.54H147.1a11.79,11.79,0,0,1-3,6.29c-.18.2-.28.3-.38.3s-.18-.12-.34-.38a5,5,0,0,0-1.08-1.22c2.28-2.11,3-4.33,3.12-8.83l-2,0c-.22,0-.24,0-.24-.22s0-.62,0-1.78V15c0-1.16,0-1.64,0-1.78s0-.22.24-.22.68,0,2.34,0h3.32c1.65,0,2.21,0,2.35,0s.22,0,.22.22,0,.62,0,1.78v2.58c0,1.16,0,1.66,0,1.78s0,.22-.22.22-.7,0-2.35,0h-1.68q0,1.08-.12,2Zm-4.72-3.74h4.38v-3h-4.38Zm8.41-1a21.07,21.07,0,0,0-.14-3c.7,0,1.36.06,2,.14.2,0,.3.1.3.22a1.87,1.87,0,0,1-.14.44,13.65,13.65,0,0,0-.06,2.14v5.52c0,1.7,0,2.52,0,2.64s0,.22-.24.22h-1.62c-.2,0-.22,0-.22-.22s0-.94,0-2.64Zm6.24,6.84c0,1.4.06,3,.06,4s-.16,1.57-.72,2-1.16.48-3.1.5c-.62,0-.62,0-.76-.64a4.27,4.27,0,0,0-.64-1.51A16,16,0,0,0,157,28c.64,0,.88-.15.88-.78v-12a19.41,19.41,0,0,0-.16-2.86c.72,0,1.46.06,2.16.14.2,0,.32.12.32.22a1,1,0,0,1-.14.42,7.15,7.15,0,0,0-.12,2Z"/><path d="M172.73,16.56a25,25,0,0,1-2.5,8.62,3.82,3.82,0,0,1-3.41,2.31c-1.76,0-3.54-1.89-3.54-5.15a7.37,7.37,0,0,1,2.26-5.2,8.78,8.78,0,0,1,6.51-2.56c4.8,0,7.62,3,7.62,6.94,0,3.72-2.1,6.07-6.16,7.29-.42.11-.6,0-.86-.36a4.24,4.24,0,0,0-1.4-1.27c3.38-.8,6-2.2,6-6a4.54,4.54,0,0,0-4.48-4.64ZM167,18.5a5.76,5.76,0,0,0-1.56,3.7c0,1.84.74,2.86,1.36,2.86s1-.26,1.5-1.22a22.58,22.58,0,0,0,2.13-7.16A6,6,0,0,0,167,18.5Z"/><path d="M194,12.46c.26-.12.3-.1.38.1a16,16,0,0,0,6.48,7.38,6.85,6.85,0,0,0-1.16,1.5c-.18.3-.26.44-.38.44s-.22-.1-.42-.26A16.55,16.55,0,0,1,197,20c0,.58,0,1.28-.06,2a40.21,40.21,0,0,1-.5,5.61c-.26,1.58-1,2.46-3,2.46-.5,0-.88,0-1.36,0s-.6,0-.74-.7a4.11,4.11,0,0,0-.62-1.6,16.09,16.09,0,0,0,2.28.17c.84,0,1.18-.32,1.34-1.24a33,33,0,0,0,.38-5h-3.56A9.7,9.7,0,0,1,185,30.17a1.31,1.31,0,0,1-.48.16c-.16,0-.22-.14-.42-.48a3.67,3.67,0,0,0-1-1.2c3.64-1.32,5.4-3.45,5.78-7h-.23c-1.89,0-2.53,0-2.65,0s-.22,0-.22-.22V20a21.79,21.79,0,0,1-1.94,1.66c-.22.16-.34.26-.44.26s-.22-.14-.42-.44a4.48,4.48,0,0,0-1.12-1.22,15.62,15.62,0,0,0,5.78-6.6,5.66,5.66,0,0,0,.4-1.28,14.18,14.18,0,0,1,2.09.7c.22.1.28.2.28.34a.41.41,0,0,1-.16.3,1.51,1.51,0,0,0-.46.64,18.26,18.26,0,0,1-3.67,5.3c.28,0,1,0,2.53,0h5.38c1.74,0,2.4,0,2.6,0a21.06,21.06,0,0,1-4.3-6.34c-.08-.22,0-.24.18-.34Z"/><path d="M208.28,17.56a9,9,0,0,0,2.93,2.28,4.47,4.47,0,0,0-.64,1c-.14.32-.22.48-.36.48s-.23-.1-.44-.28a10,10,0,0,1-2.19-2.44c0,1.6.08,2,.08,2.2s0,.22-.22.22H206.1c-.2,0-.22,0-.22-.22s.06-.56.08-2a10.87,10.87,0,0,1-2.62,2.62c-.22.16-.34.24-.46.24s-.22-.12-.34-.38a3.74,3.74,0,0,0-.72-1.1,10.66,10.66,0,0,0,3.46-2.64h-.4c-1.68,0-2.26,0-2.38,0s-.2,0-.2-.22V16.26c0-.2,0-.22.2-.22s.7,0,2.38,0h1V14.56a16.53,16.53,0,0,0-.14-2.42c.72,0,1.2.06,1.88.14.22,0,.32.1.32.2a1.9,1.9,0,0,1-.14.48,8.08,8.08,0,0,0-.08,1.6v1.52h.84c1.71,0,2.27,0,2.39,0s.22,0,.22.22v1.12c0,.2,0,.22-.22.22s-.68,0-2.39,0Zm-3.48,7.22c-1.7,0-2.26,0-2.38,0s-.22,0-.22-.22V23.34c0-.2,0-.22.22-.22s.68,0,2.38,0h.92a8.21,8.21,0,0,0,0-1.72c.8.06,1.34.1,1.78.16.22,0,.34.12.34.24a.86.86,0,0,1-.1.32,2.67,2.67,0,0,0-.18,1h.92c1.75,0,2.29,0,2.41,0s.24,0,.24.22V24.6c0,.2,0,.22-.24.22s-.66,0-2.41,0H208a6.18,6.18,0,0,0,3,2.56,5,5,0,0,0-.95,1c-.19.3-.29.44-.44.44s-.24-.1-.45-.26a7.38,7.38,0,0,1-2.19-2.46,7.28,7.28,0,0,1-3.14,3.56,1,1,0,0,1-.42.18c-.14,0-.26-.12-.46-.44a4.55,4.55,0,0,0-1-1.05,5.53,5.53,0,0,0,3.52-3.56Zm-1-11.88c.2-.1.26-.08.4.08a10.6,10.6,0,0,1,1.1,1.86c.1.22.06.28-.2.4l-.94.44c-.24.12-.3.14-.38-.06a10.62,10.62,0,0,0-1-1.9c-.14-.2-.16-.26.12-.4Zm5.1.68a3.24,3.24,0,0,0,.29-.88,10.5,10.5,0,0,1,1.48.54c.16.06.22.16.22.24s0,.16-.18.28a1.44,1.44,0,0,0-.28.38c-.16.36-.43.8-.68,1.24-.17.26-.25.36-.37.36a1,1,0,0,1-.38-.16,6.24,6.24,0,0,0-1-.4A9.72,9.72,0,0,0,208.86,13.58Zm5.93,13.87c.2.14.22.22.22.31s-.1.19-.24.25a2.45,2.45,0,0,0-.52.36,13,13,0,0,1-2.68,1.8,1.45,1.45,0,0,1-.52.2c-.18,0-.28-.14-.48-.48a4.91,4.91,0,0,0-.82-1,10.49,10.49,0,0,0,3-1.59,4.13,4.13,0,0,0,.68-.7A10.65,10.65,0,0,1,214.79,27.45ZM214,14.68c-1.78,0-2.38,0-2.5,0s-.22,0-.22-.22V13c0-.2,0-.22.22-.22s.72,0,2.5,0h3.72c1.8,0,2.4,0,2.52,0s.2,0,.2.22V14.5c0,.2,0,.22-.2.22s-.72,0-2.52,0h-1a15.48,15.48,0,0,1-.62,1.5H217c1.6,0,2.16,0,2.3,0s.22,0,.22.2,0,.82,0,2.34V24c0,1.52,0,2.21,0,2.3s0,.25-.22.25-.7,0-2.3,0h-2.66c-1.62,0-2.16,0-2.28,0s-.24,0-.24-.25,0-.78,0-2.3V18.76c0-1.6,0-2.28,0-2.42s0-.2.24-.2.62,0,2,0a12.26,12.26,0,0,0,.58-1.5Zm-.22,4.42h3.84V17.84h-3.84Zm3.84,2.82V20.6h-3.84v1.32Zm0,1.5h-3.84v1.42h3.84Zm-.54,3.33a.36.36,0,0,1,.26-.15.34.34,0,0,1,.2.11,10.51,10.51,0,0,0,3.3,2,4.64,4.64,0,0,0-.82,1.12c-.18.34-.28.46-.44.46a1.14,1.14,0,0,1-.46-.18,11.84,11.84,0,0,1-2.9-2.18.29.29,0,0,1-.1-.2c0-.07,0-.15.16-.24Z"/><path d="M231.85,16.82c-2.45.46-4.59.88-6.73,1.32-.76.18-1,.22-1.26.32a1.17,1.17,0,0,1-.44.16.47.47,0,0,1-.38-.3,13.94,13.94,0,0,1-.74-2.16,27.59,27.59,0,0,0,3.18-.34c2.46-.36,6.87-1,12-1.7.3,0,.4.08.42.22a11.43,11.43,0,0,1,.22,1.76c0,.24-.12.3-.38.3a8.92,8.92,0,0,0-2.44.44c-3.4,1.16-5.1,3.5-5.1,5.9,0,2.58,1.84,4,5.32,4.2.32,0,.44.08.44.31a7.18,7.18,0,0,1-.22,1.72c-.06.3-.14.42-.38.42-3.52,0-7.39-2-7.39-6.19,0-2.84,1.42-4.76,3.85-6.34Zm4,2.16c.1-.08.18-.06.3,0a9.2,9.2,0,0,1,1.9,2.14.2.2,0,0,1-.06.32l-.84.62a.21.21,0,0,1-.34-.06,9.92,9.92,0,0,0-2-2.32Zm1.78-1.3c.12-.08.18-.06.3,0a8.35,8.35,0,0,1,1.9,2.06.23.23,0,0,1-.06.36l-.8.62a.21.21,0,0,1-.34-.06,9.46,9.46,0,0,0-2-2.3Z"/><path d="M254.65,18.78a6.26,6.26,0,0,0,0-1.36,8.62,8.62,0,0,1,2.32.86.38.38,0,0,1,.14.54,3.36,3.36,0,0,0-.32.78c-.16.84-.36,1.72-.56,2.58a23.14,23.14,0,0,1,3.12,1.92c.2.12.18.22.12.42a18.58,18.58,0,0,1-.86,1.73c-.06.09-.12.13-.18.13a.41.41,0,0,1-.24-.13,15.73,15.73,0,0,0-2.62-1.89,12.25,12.25,0,0,1-4,5.27c-.18.14-.28.22-.4.22a.55.55,0,0,1-.3-.14,4.24,4.24,0,0,0-1.75-.83,11,11,0,0,0,4.49-5.42,13.5,13.5,0,0,0-4-1.22,14.12,14.12,0,0,1-2.44,4,3.31,3.31,0,0,1-2.56,1.09c-1.16,0-2.38-.79-2.38-2.74,0-2.48,2.56-4.42,5.9-4.42.66-1.66,1.17-3.06,1.67-4.74l-2.77.32a4.2,4.2,0,0,0-.9.22,1.05,1.05,0,0,1-.36.08.32.32,0,0,1-.32-.22,12.12,12.12,0,0,1-.58-2.18,7.45,7.45,0,0,0,1.76.12,22.58,22.58,0,0,0,3.11-.26,2.31,2.31,0,0,0,1-.34.44.44,0,0,1,.26-.08.46.46,0,0,1,.28.08,6.68,6.68,0,0,1,1.36,1.1.48.48,0,0,1,.18.34.51.51,0,0,1-.2.34,2.72,2.72,0,0,0-.54,1c-.52,1.36-1.08,2.92-1.68,4.36a16.58,16.58,0,0,1,3.88,1A19.79,19.79,0,0,0,254.65,18.78Zm-10.57,5.58c0,.64.22.92.7.92a1.62,1.62,0,0,0,1.16-.76,13.67,13.67,0,0,0,1.46-2.44C245.36,22.16,244.08,23.22,244.08,24.36Z"/><path d="M267.73,20.44a6,6,0,0,1,3.18-.9,4.64,4.64,0,0,1,5,4.8c0,3.34-2.7,5.49-7,5.49-2.53,0-4.05-1.08-4.05-2.95a2.67,2.67,0,0,1,2.83-2.44,3.64,3.64,0,0,1,3.76,2.93,3,3,0,0,0,2-3.05,2.92,2.92,0,0,0-3.14-3,8.19,8.19,0,0,0-5.13,2.12c-.58.52-1.14,1.1-1.74,1.7-.14.14-.24.22-.34.22a.49.49,0,0,1-.3-.18,9,9,0,0,1-1.18-1.3c-.12-.16-.06-.3.1-.46A48.14,48.14,0,0,0,266.48,19c1.25-1.28,2.19-2.28,3.11-3.42-1.2.22-2.63.5-3.87.76a6.16,6.16,0,0,0-.84.24,1.47,1.47,0,0,1-.4.1.45.45,0,0,1-.44-.34,9.58,9.58,0,0,1-.7-2.16,9.64,9.64,0,0,0,1.86,0c1.22-.12,3-.38,4.55-.68a5.31,5.31,0,0,0,1.1-.3,1,1,0,0,1,.38-.16.71.71,0,0,1,.46.16A7.57,7.57,0,0,1,273,14.5a.69.69,0,0,1,.22.48.53.53,0,0,1-.34.48,3.23,3.23,0,0,0-.88.64c-1.46,1.42-2.8,2.82-4.32,4.28Zm0,5.7c-.58,0-1,.34-1,.76,0,.63.54,1.05,1.74,1.05a5.17,5.17,0,0,0,.92-.08C269.19,26.76,268.59,26.14,267.75,26.14Z"/><path d="M291.57,21.76H279.4V20.6h12.17Z"/><path d="M296.76,26.56c0-1.22.08-2.8.16-4.22a9,9,0,0,1-1.26,3.06s0,0-.06-.06a15.39,15.39,0,0,0-2-1.68,14.52,14.52,0,0,0,2.76-5.26h-2V15.8h2.38V13.42s0-1-.06-1.36c0,0,2.09,0,2.95.12.26,0,.4.14.4.26s-.18.3-.54.36c0,.32,0,.88,0,.88V15.8h1.92v2.14a17.92,17.92,0,0,0,1.68-5.9s2,.22,2.78.4c.2,0,.34.14.34.24s-.16.22-.6.3c-.06.34-.2,1-.42,1.84h6.9v2.46h-3.72v3.56h4.48v2.44h-4.48v7.17h-2.8V23.28h-4.08v-.64a12.9,12.9,0,0,0-1.32.84s-.06,0-.1,0a9,9,0,0,1-.78-2.24c.1,1.76.22,4.24.22,5.4v3.83h-2.75Zm2.95-8.16c.16.34.38.78.64,1.24a12.07,12.07,0,0,0,.82-1.24Zm1.78,2.44h4.08V17.28h-1.1a11,11,0,0,1-1.56,3.32.15.15,0,0,1-.08,0c-.42-.16-1.58-.4-2.24-.54a15.36,15.36,0,0,0,.9,1.42Z"/><path d="M321.19,28.38v.11c0,1.36-1.2,1.92-2.61,1.92h-.14c-.14,0-.16,0-.18-.16a6,6,0,0,0-.9-1.78,5.77,5.77,0,0,1-.78,2.06.2.2,0,0,1-.12,0,12.2,12.2,0,0,0-2.44-.44c1.66-2.13,1.66-6.53,1.66-9.55,0-1.26,0-3.86,0-3.86h5.51V24.2a7.25,7.25,0,0,0,1.42-1.4h-1.14V20.92h2.34a7,7,0,0,0,.36-.8h-2.34V18.34h.62a11.15,11.15,0,0,0-.72-1.34l1.86-.64s.56,1.06,1,2h.22a8.67,8.67,0,0,0,.32-2c.2,0,2,.12,2.44.2.26,0,.36.12.36.2s-.26.26-.54.28c-.08.38-.18.84-.3,1.34h.84a10.74,10.74,0,0,0,.7-2s1.86.5,2.18.62c.14.06.24.16.24.26s-.12.2-.46.2h-.16a8.62,8.62,0,0,1-.42.92h1.56v1.78h-2.62a6.35,6.35,0,0,0,.34.8h3V22.8h-1.66A8.42,8.42,0,0,0,333,24.48a11.43,11.43,0,0,0-2,1.42c-.06.08-.1.11-.14.11a3.81,3.81,0,0,1-.86-.65,8.92,8.92,0,0,1-1.38.77s-.06,0-.08-.08a4.84,4.84,0,0,0-1-1.05v2.53l1.26-1.39a10.13,10.13,0,0,0,3.84,1.66,15.28,15.28,0,0,0-1.5,1.93c-.06.1-.1.14-.14.14a15.41,15.41,0,0,1-3.46-2.08v.08l0,.6v.18c0,1.4-1.32,1.8-2.68,1.8h-.38c-.18,0-.2,0-.22-.18a7.77,7.77,0,0,0-1-1.68l-1.12.44c0,.06,0,.12,0,.18s-.06.34-.16.34-.3-.22-1-1.5ZM314.56,13.3h4.83V13a9.86,9.86,0,0,0-.06-1s2.16,0,2.92.12c.22,0,.32.12.32.22s-.18.28-.58.36a4.77,4.77,0,0,0,0,.6v0h2.94V13a9.86,9.86,0,0,0-.06-1s2.16,0,2.92.12c.22,0,.32.12.32.22s-.18.28-.58.36a4.77,4.77,0,0,0,0,.6v0h5v2.32h-5v.44h-2.56v-.44H322v.64h-2.56v-.64h-4.83ZM319,25.44H317.8a22.36,22.36,0,0,1-.34,2.53,7.46,7.46,0,0,0,.82.08c.45,0,.68-.14.68-.63Zm0-2V22h-1c0,.46,0,.94,0,1.44Zm0-3.38V18.74h-1v1.32Zm2.19,7.2a20.43,20.43,0,0,0,3.64-1.48,9.43,9.43,0,0,0,.28,1.78.17.17,0,0,1,0,.08c0,.15-1.34.77-1.4.78a6,6,0,0,0,.88.09c.44,0,.74-.1.74-.5V24.24a10.14,10.14,0,0,0,0-1s2.18.12,2.58.16c.18,0,.28.1.28.18s-.16.24-.5.28c0,.2,0,.44,0,.62a11.08,11.08,0,0,0,1-.58c-.26-.36-.48-.72-.68-1.06h-2.86a10.53,10.53,0,0,1-.7,1,5.6,5.6,0,0,1,.8.54l-1.34,1.68a9,9,0,0,0-.86-.66,5,5,0,0,1-.9.73s-.08,0-.16-.08a3.25,3.25,0,0,0-.8-.5Zm5.94-6.34-.26-.8h-.38c-.12.26-.22.54-.34.8Z"/><path d="M336.5,19.36h-2V16.92h2V13.64s0-.8-.06-1.34c0,0,2.17,0,2.87.14.27,0,.42.14.42.24s-.2.26-.62.36a7.83,7.83,0,0,0-.05.94v2.94h1.79v1.9l.76-.24V15.26s0-1.3-.06-1.72c0,0,2.44.06,2.88.14.22,0,.32.12.32.24s-.18.28-.58.36c0,.24,0,.92,0,.92v2.6l1.34-.4V13.64s0-1.08-.06-1.56c0,0,2.38,0,2.82.12.22,0,.32.12.32.24s-.18.28-.58.36c0,.24,0,.8,0,.8v3l4.1-1.26c0,.42,0,1,0,1.58,0,4.72-.3,6.26-1.08,7.26a10.22,10.22,0,0,0,1.92,1.58c.14.06.16.12.16.21s0,.13,0,.21c-.4,3.45-2.36,3.81-5.92,3.81-3,0-5.5,0-5.5-2.94v-6l-1.3.42-.8-2.16h-.45v4.22a17.42,17.42,0,0,0,2-.84s0,.72,0,1.38c0,.32,0,.64,0,.85,0,.05,0,.09,0,.13s-.06.12-.18.18a49.33,49.33,0,0,1-5.41,2.17v.11c0,.28-.08.47-.2.47s-.2-.11-.3-.28a26.76,26.76,0,0,1-1.18-2.65,24.78,24.78,0,0,0,2.66-.68Zm9,.52-1.34.42v6.12c0,1,.52,1.13,2.54,1.13,3.28,0,3.54-.33,3.62-2.75a2.35,2.35,0,0,1-1.22.32c-.48,0-.5,0-.52-.2a11.14,11.14,0,0,0-.62-1.76v2.68h-2.46Zm2.46,2.38a2.31,2.31,0,0,0,.58.12c.8,0,1-1,1-3.78l-1.54.5Z"/><path d="M355.3,13h16.51v2.54H358.17v9.14a15.7,15.7,0,0,0,4.9-3.44,34.71,34.71,0,0,0-4.2-2.6l2-1.8c1.08.6,2.42,1.4,3.86,2.38a14.73,14.73,0,0,0,2-3.58s2.56,1,3,1.26a.35.35,0,0,1,.18.26c0,.1-.12.2-.38.2a2.23,2.23,0,0,1-.34,0A25,25,0,0,1,367,20.82a30.57,30.57,0,0,1,3.54,3.34l-2.24,2.1a17.62,17.62,0,0,0-3-3.34,16.18,16.18,0,0,1-4.82,3.8.12.12,0,0,1-.1,0,10.69,10.69,0,0,0-2.12-1.51V27h14.12v2.61H358.17v1H355.3Z"/><path d="M85.56,70A14.6,14.6,0,0,0,71,55.42a13.57,13.57,0,0,0-1.69.1,15.07,15.07,0,0,0-29.65,0,13.3,13.3,0,0,0-1.68-.1,14.59,14.59,0,0,0-4.5,28.48,11.37,11.37,0,0,0-.38,2.93A11.57,11.57,0,0,0,54.45,93a11.57,11.57,0,0,0,21.39-6.12,11.37,11.37,0,0,0-.38-2.93A14.59,14.59,0,0,0,85.56,70Z"/><path class="cls-4" d="M58.9,75.67l2.6-8.31A2.24,2.24,0,1,0,60.42,67l-3,9.5A13.21,13.21,0,0,0,55,78.64V65.75a2.26,2.26,0,1,0-1.13,0V78.64a12.84,12.84,0,0,0-2.43-2.11l-3-9.5a2.28,2.28,0,1,0-1.08.33L50,75.67a13.38,13.38,0,0,0-6-1.43v2a11.26,11.26,0,0,1,9.61,5.34L54.45,83l.86-1.38a11.26,11.26,0,0,1,9.61-5.34v-2A13.38,13.38,0,0,0,58.9,75.67Z"/></g></g></svg>