<svg xmlns="http://www.w3.org/2000/svg" viewBox="0 0 402.41 126.86"><defs><style>.cls-1,.cls-2,.cls-3{fill:#fff;stroke:#000;stroke-miterlimit:10;}.cls-1{stroke-width:4.21px;}.cls-2{stroke-width:4.3px;}.cls-3{stroke-width:4.3px;}.cls-4{fill:#040000;}</style></defs><title>アセット 368</title><g id="レイヤー_2" data-name="レイヤー 2"><g id="レイヤー_5" data-name="レイヤー 5"><polygon class="cls-1" points="400.26 40.55 41.95 40.55 60.69 2.11 400.26 2.11 400.26 40.55"/><rect class="cls-2" x="53.4" y="40.54" width="346.85" height="69.43"/><path d="M137.61,74.29a.42.42,0,0,1-.41.27.75.75,0,0,1-.24,0c-1.8-.65-4.89-1.36-5.34-1.5-.2-.07-.37-.1-.37-.34a11,11,0,0,1,.68-2.24c0-.1.1-.24.44-.24a32,32,0,0,1,5.58,1,.38.38,0,0,1,.3.44A19.74,19.74,0,0,1,137.61,74.29Zm-5.37,12a.29.29,0,0,1,.13-.24,44.7,44.7,0,0,0,6.67-8c.06-.11.13-.17.17-.17s.13.06.17.17a13.76,13.76,0,0,0,1.63,2,.19.19,0,0,1,.13.2.93.93,0,0,1-.06.24c-1.47,2.68-3.17,4.93-3.88,6.12-.61,1-.65,1.66-1.22,1.66S132.24,86.87,132.24,86.29Zm7.34-19.24a.64.64,0,0,1-.37-.14A54.3,54.3,0,0,0,134.55,64c-.14-.1-.27-.17-.27-.34s1.19-2.14,1.53-2.14c.51,0,5.47,2.21,5.47,2.92a.55.55,0,0,1-.07.24,13.66,13.66,0,0,1-1.36,2.21A.35.35,0,0,1,139.58,67.05Zm23,16.69c.2,0,.3.17.3.37s0,1,0,1.74a10.52,10.52,0,0,1,0,1.22c0,.17-.2.24-.37.24C158,87,155.32,87,152.74,87c-7.65,0-9.9.14-12.89.34-.2,0-.44-.07-.44-.31s0-1,0-1.49c0-1.29,0-1.77.34-1.77h.13c4.15.27,6.77.37,9.11.37,0-1.83.1-5.71.1-9s-.06-6.36-.1-7.72c-1.56,0-3.53.1-6.39.3h-.07c-.17,0-.37-.06-.37-.3s0-.85,0-1.4c0-1.73.06-1.73.47-1.73,4.08.31,6.19.34,8.09.34a92.94,92.94,0,0,0,9.56-.34c.4,0,.4.34.4,2,0,1.26-.06,1.39-.4,1.39-3.54-.23-5.17-.3-6.91-.34v0c0,.2-.2.41-.47.58s-.24.27-.24.61c0,1.7-.07,4.11-.07,6.59,0,3.2.07,7.11.1,8.94,2.59,0,5.17-.06,9.9-.37Z"/><path d="M191.46,79c0,.31-.13.34-.41.34s-1.15.07-1.83.07c-1.46,0-1.6-.07-1.6-.41v-.07l.1-1.7c-1.22,0-3.26-.06-5.81-.06-3,0-5.54,0-6.87.06-1.19,9.25-6.8,13-7.41,13a.56.56,0,0,1-.34-.13,15.13,15.13,0,0,0-3.37-1.46c-.2-.07-.27-.14-.27-.21s.07-.13.27-.24c6.5-3.09,7.93-9.65,7.93-14.92a35.78,35.78,0,0,0-.51-5.78.71.71,0,0,1,0-.27c0-.14.07-.17.24-.17h.24c3.57.24,5.51.27,7.31.27,7.17,0,8.22,0,11.86-.24.27,0,.41.07.41.38v.1c-.14,1.43-.2,3.43-.2,5.51a43.68,43.68,0,0,0,.3,5.74Zm2.93-17.85c.27,0,.34.07.34,2.11,0,1.29-.07,1.6-.38,1.6-6.87-.38-9.31-.38-13.19-.38-5.68,0-8.57.14-12.65.38-.4,0-.44-.24-.44-1.87,0-1.84,0-1.84.27-1.84h.17c6.09.31,8.13.34,11,.34,5.64,0,8.53,0,14.82-.34Zm-6.57,9.18s-1.08-.1-3.7-.1c-.68,0-1.43,0-2.28,0l-6.66.07s0,1.94,0,3.84c1.43,0,3.91.07,6.6.07s4.76,0,6-.07Z"/><path d="M211.35,82.75c0,.34-.1.58-1.7.58-.91,0-1.63,0-1.63-.47v-.07c0-.65,0-1.5.07-2.42-.37,0-1-.06-1.46-.06s-1.19,0-1.57.06c0,1.53,0,3,.07,4.36,0,.57-.07.61-1.7.61s-1.73-.21-1.73-.55v-.1c.3-4.66.37-9.75.37-12.54,0-3.5-.07-6.26-.2-9.05,0-.13,0-.2,0-.3s.07-.21.24-.21.17,0,.27,0c1.09.1,2.59.17,4.32.17s2-.07,4.22-.21c.37,0,.44.14.44.48-.24,2.69-.24,5.81-.24,8.74,0,2.55.07,8,.27,10.74Zm-4.76-17.33c-1,0-1.53,0-1.53,0S205,67.56,205,70c.4,0,1.08,0,1.59,0s1.23,0,1.6,0c0-2.17-.1-4.52-.1-4.52s-.34,0-1,0Zm1.6,7.31c-.37,0-1,0-1.56,0s-1.26,0-1.63,0c0,1.32,0,3,0,4.86.41,0,1.05,0,1.56,0s1.16,0,1.53,0C208.16,75.75,208.19,74,208.19,72.73ZM230,72.9c-3.78-.38-7.31-.41-9.45-.41s-3.91.07-8.37.34c-.34,0-.4-.1-.4-1.57s0-1.63.4-1.63c3.33.27,5.07.34,6.84.34V67.29c-1.53,0-3,.06-5.48.2-.3,0-.37,0-.37-1.46s.07-1.53.44-1.53c2.38.2,3.91.2,5.34.2v-.34a27.27,27.27,0,0,0-.48-5v-.17c0-.17,0-.2.24-.2.54,0,4.35.4,4.35,1.12,0,.27-.3.61-.51,1-.37.71-.34.64-.47,2.85a3.71,3.71,0,0,0,0,.68c1.29,0,2.59-.07,5.2-.24.17,0,.41,0,.41,1.57a6.7,6.7,0,0,1-.07,1.26c0,.13-.2.2-.3.2h0c-2.55-.14-3.74-.17-5.23-.2V70c2.11,0,4.86-.17,8-.41.24,0,.37.24.37,1.67a13.6,13.6,0,0,1-.07,1.43c0,.13-.17.24-.27.24Zm-4.59,13c0,2-1.12,4.25-5.1,4.25q-.32,0-.51-.51c-.65-1.53-1.84-2.07-2.65-3-.11-.11-.17-.17-.17-.24s0-.07.13-.07.1,0,.17,0a19.7,19.7,0,0,0,2.76.28c1.29,0,2-.34,2-1.33.06-1.33.06-4,.06-5.54v-2H220.7c-2.17,0-3.94.06-8.33.34a.33.33,0,0,1-.34-.31c0-.27,0-.78,0-1.33,0-1.63,0-1.63.37-1.63,4.22.34,5.95.34,8.33.34h1.36a12.86,12.86,0,0,0-.27-2,.86.86,0,0,0,0-.13c0-.14.1-.21.27-.21s4,.34,4,1a.88.88,0,0,1-.28.54c-.3.41-.4.41-.44.75,1.4-.07,3-.17,4.63-.3h0c.2,0,.34.27.34,1.69a14.3,14.3,0,0,1-.07,1.47.32.32,0,0,1-.27.23h0c-1.67-.17-3.27-.27-4.7-.3v2.92c0,1.84.17,3,.21,4.93Zm-7.52-1.49c-.06,0-.13-.07-.2-.14a19.19,19.19,0,0,0-4.25-3.64c-.1-.07-.13-.1-.13-.17,0-.37,1.49-1.36,1.83-1.56a.31.31,0,0,1,.17-.1.39.39,0,0,1,.17.06A17.17,17.17,0,0,1,220,81.73a.31.31,0,0,1,.11.21,14.78,14.78,0,0,1-2,2.38C218,84.35,218,84.39,217.91,84.39Z"/><path d="M239.17,89.32c.51-4.59.74-12,.88-17.58-.31.37-3.81,4.72-4.56,4.72a.45.45,0,0,1-.27-.06,9.4,9.4,0,0,0-2.85-1.06c-.21,0-.34-.1-.34-.17s.06-.13.17-.2c5.84-4.15,10.5-12,10.91-14.28,0-.14.07-.2.17-.2.58,0,4,1.46,4,2.1,0,.24-.27.48-.78.68s-.68.14-1,.68a39.91,39.91,0,0,1-2.31,3.57c.24.07.41.17.55.21a.43.43,0,0,1,.34.41,1.12,1.12,0,0,1-.34.64,2,2,0,0,0-.51,1.63c-.14,4.22-.31,9.76-.31,14.28,0,1.77,0,3.37.1,4.69,0,.17-.1.34-1.94.34-1.59,0-1.93,0-1.93-.34Zm23.52-18.19c0,.13-.24.27-.34.27-5.1.37-5.85.44-8.84.88l-.71.11c2,10.13,7.61,12.91,8.29,12.91s1.6-1,1.84-3.8c0-.21.07-.28.17-.28s.14.07.2.17A12.07,12.07,0,0,0,266,84.15a.51.51,0,0,1,.24.51c-.92,3-2.55,4.66-4.55,4.66A5.11,5.11,0,0,1,259,88.4c-5.61-3.54-8.1-9.52-9.35-15.47l-4.86,1h-.11a.39.39,0,0,1-.4-.24,13.42,13.42,0,0,1-.38-2.68v-.14c0-.34.17-.41.38-.41,2.14-.13,3.6-.27,4.86-.44-.28-1.73-.48-3.47-.61-5.1s-.28-3-.48-3.91a1.76,1.76,0,0,1-.07-.37.19.19,0,0,1,.21-.21c.06,0,.13,0,.2,0,3.67.44,4.42.57,4.42,1.12a3.34,3.34,0,0,1-.51,1.19,2.62,2.62,0,0,0-.21,1.12,47.58,47.58,0,0,0,.28,5.68l.74-.1c3.27-.45,4.08-.62,8.74-1.6h.07a.36.36,0,0,1,.37.3,18.12,18.12,0,0,1,.41,2.89Zm-5.17-3.54a23,23,0,0,0-4.11-2.82c-.14-.07-.27-.1-.27-.24a5.68,5.68,0,0,1,1.77-2.21c.64,0,4.79,2.31,4.79,2.76s-1.36,2.68-1.8,2.68A.53.53,0,0,1,257.52,67.59Z"/><path d="M282.82,91a.52.52,0,0,1-.41.21.29.29,0,0,1-.2-.07c-4.25-2.28-9.08-8-9.08-16.8,0-11.56,8.87-16.52,9.28-16.52a2.78,2.78,0,0,1,1.4,1.94.52.52,0,0,1-.31.47c-3.64,2.11-6.9,7.69-6.9,14.15,0,6.8,3.26,12.27,6.9,14.41a.51.51,0,0,1,.24.48A3.15,3.15,0,0,1,282.82,91Z"/><path d="M306.08,65.08c2.61,0,5.47-.11,10-.34.37,0,.47.2.47,1.53,0,.61,0,1.22-.07,1.63,0,.17-.2.24-.4.24-5.89-.31-9.29-.34-12.65-.34-8.7,0-12,.13-16.22.34h-.1c-.41,0-.41-.28-.41-1.64,0-1.59,0-1.76.34-1.76h.17c4.39.23,7.35.3,9.79.34a20.28,20.28,0,0,0-3.19-3.91c-.1-.11-.17-.17-.17-.24a9.08,9.08,0,0,1,2.65-1.4c.34,0,4,3.47,4,4,0,.31-1.36,1.12-2,1.5h4.32a38.18,38.18,0,0,0,2.85-5.44c.11-.28.14-.41.28-.41s3.91,1.36,3.91,2c0,.24-.34.41-.79.68a3.29,3.29,0,0,0-1,.92Zm-8.6,17.27c-.65,0-1.67,0-2.32,0s-1.25,0-2,0c0,2.82.1,5.13.14,7,0,.28-.1.38-1.46.38-.58,0-1.23,0-1.67-.07-.24,0-.34-.07-.34-.27v-.1c.14-3.06.44-7.72.44-11.09,0-2.11,0-5.81-.24-8a1.07,1.07,0,0,1,0-.27c0-.14.07-.17.27-.17h.21a44.66,44.66,0,0,0,4.65.17c1.67,0,2.89,0,5-.17.31,0,.41.07.41.27v.14c0,.44-.2,2.34-.2,8.6,0,2.78.2,5.3.2,7.24s-.82,3.7-4.66,3.81a.47.47,0,0,1-.44-.45,10.28,10.28,0,0,0-1.94-2.68.35.35,0,0,1-.13-.21s.06-.06.2-.06h.1a16.37,16.37,0,0,0,2.18.23c1.05,0,1.6-.3,1.6-1.12Zm0-3.57c0-.17,0-.72,0-1.36-.64,0-1.63,0-2.28,0s-1.36,0-2,0v2.41c.71,0,1.56,0,2,0s1.64,0,2.32,0Zm-.11-6.36s-1.12,0-2.24,0-1.9,0-1.9,0,0,1.19,0,2.52c.65,0,1.46,0,1.94,0s1.6,0,2.28,0C297.41,73.61,297.37,72.42,297.37,72.42Zm5.48-1.36c0-.1,0-.1.1-.1h.13a23.51,23.51,0,0,1,3.61.64c.3.11.41.21.41.41a2.43,2.43,0,0,1-.45.95c-.2.34-.37.92-.37,3.4a68.34,68.34,0,0,0,.34,7.31c0,.14-.14.24-.31.24-.4,0-.95,0-1.49,0-1.67,0-1.8-.1-1.8-.34.2-2.89.27-3.4.27-6a28.26,28.26,0,0,0-.44-6.36Zm9.86,15.54c0,1.66-2,3.09-5.34,3.09-.24,0-.44-.14-.55-.48a11.26,11.26,0,0,0-2.14-2.72c-.07-.06-.1-.1-.1-.13s.1-.14.24-.14.13,0,.24,0a19.83,19.83,0,0,0,2.27.23c1,0,1.87-.23,1.91-1.08,0-2.11.07-3.64.07-4.87,0-1.63,0-2.68,0-3.87a37.85,37.85,0,0,0-.51-7.31.43.43,0,0,1,0-.17c0-.1.07-.1.27-.1a29.83,29.83,0,0,1,4,.71c.31.1.44.27.44.44a2.11,2.11,0,0,1-.47,1c-.27.41-.51,1-.51,4.45,0,2.21,0,6.63.24,10.85Z"/><path d="M347.18,73.47c-5-.24-7.34-.3-10-.34,0,.92,0,2.21,0,3.68,3.5,0,6.22-.07,12.61-.38.34,0,.41.1.41,1.77s-.1,1.7-.41,1.7c-6.15-.27-9.21-.34-12.57-.38.06,3.51.2,7.42.34,10,0,.21-.14.38-2,.38-1.74,0-2,0-2-.44.2-3.34.34-6.87.44-10-3.57,0-6,.11-12.41.38-.44,0-.48-.17-.48-1.74,0-1.73,0-1.73.48-1.73,6.36.31,9.35.38,12.48.38,0-1.47,0-2.73,0-3.68-2.79,0-4.56.1-9.83.34h-.1c-.24,0-.3,0-.3-1.63s0-1.66.4-1.66c5.17.27,7.42.34,9.83.34a78.14,78.14,0,0,0-.54-10.78c0-.07,0-.14,0-.21s.07-.1.14-.1c.24,0,4.76.27,4.76,1.12,0,.34-.41.82-.68,1.6s-.48,4.12-.51,8.37c2.75,0,4.79-.07,10-.34.24,0,.27.1.31.3s0,.82,0,1.4,0,1.12,0,1.39c0,.1-.07.2-.24.2ZM330,69.53c-.1,0-.2-.07-.3-.24A27.79,27.79,0,0,0,325,64.7c-.14-.1-.24-.17-.24-.27,0-.34,1.73-1.67,1.94-1.67.44,0,5.88,3.54,5.88,4.32A7.35,7.35,0,0,1,330,69.53Zm15.71-3.94c-.58.27-3.43,2.68-5.1,3.84a.38.38,0,0,1-.27.1.18.18,0,0,1-.17-.1,4.94,4.94,0,0,0-1.8-1.09c-.11-.07-.14-.14-.14-.17a.19.19,0,0,1,.1-.14,28.81,28.81,0,0,0,5.1-5.64c.07-.14.14-.2.24-.2.44,0,3.26,2,3.26,2.72C346.94,65.31,346.2,65.31,345.72,65.59Z"/><path d="M354.83,91.19a.52.52,0,0,1-.4-.21,3.15,3.15,0,0,1-.92-1.73.58.58,0,0,1,.24-.48c3.63-2.14,6.9-7.61,6.9-14.41,0-6.46-3.27-12-6.9-14.15a.52.52,0,0,1-.31-.47,2.8,2.8,0,0,1,1.39-1.94c.41,0,9.29,5,9.29,16.52,0,8.81-4.83,14.52-9.08,16.8A.32.32,0,0,1,354.83,91.19Z"/><path d="M107.22,24.16a21,21,0,0,0,1.94-.92,8.41,8.41,0,0,0,0,1.24c0,.66,0,.64-.52.92-1.24.62-2.66,1.2-4,1.7a2.82,2.82,0,0,0-.66.32.52.52,0,0,1-.34.14c-.12,0-.22-.06-.3-.24a17.53,17.53,0,0,1-.54-1.78,14.36,14.36,0,0,0,2-.5l.46-.14V19.22h-.16c-1.3,0-1.7,0-1.82,0s-.2,0-.2-.22V17.52c0-.2,0-.22.2-.22s.52,0,1.82,0h.16V15.46a16.94,16.94,0,0,0-.16-2.94c.78,0,1.4.06,2.06.14.2,0,.32.12.32.24a1.13,1.13,0,0,1-.12.4,6.71,6.71,0,0,0-.12,1.9v2.14c1.14,0,1.52,0,1.64,0s.2,0,.2.22V19c0,.2,0,.22-.2.22s-.5,0-1.64,0Zm5,2.78c0,.52.1.76.38.9s.9.23,2.88.23c2.16,0,2.82-.11,3.22-.43s.42-.68.48-2.26a5.67,5.67,0,0,0,1.44.64c.5.14.5.14.44.66-.18,1.74-.42,2.28-1.08,2.71s-1.64.66-4.74.66c-2.72,0-3.72-.24-4.22-.57s-.76-.9-.76-2V21.26c-1,.36-1.44.54-1.6.58s-.22,0-.26-.16l-.26-1.56c0-.2,0-.2.16-.26s.68-.16,2-.58v-2.2a20.22,20.22,0,0,0-.12-2.84q1,0,1.92.12c.28,0,.4.12.4.22a.9.9,0,0,1-.12.42,6.05,6.05,0,0,0-.12,1.9v1.72l1.92-.64v-2.9a20.74,20.74,0,0,0-.16-2.84,15.94,15.94,0,0,1,2,.16c.2,0,.32.1.32.22a1.13,1.13,0,0,1-.12.4,6.27,6.27,0,0,0-.12,1.8v2.52l1.54-.52c1.88-.62,2.48-.88,2.62-.9s.22,0,.22.2l-.06,2.56A19.56,19.56,0,0,1,120,23.2c-.3,1.16-.86,1.52-1.72,1.52a4.72,4.72,0,0,1-.74,0c-.44,0-.44,0-.54-.66a5,5,0,0,0-.42-1.44,4.68,4.68,0,0,0,1.06.14c.34,0,.48-.1.6-.74a19.06,19.06,0,0,0,.24-3.5l-2.32.8v3.48c0,2,0,3,0,3.1s0,.22-.22.22h-1.6c-.2,0-.22,0-.22-.22s0-1.1,0-3.1V19.94l-1.92.66Z"/><path d="M126.08,27.36h11.64c1.94,0,2.62,0,2.74,0s.22,0,.22.22v1.61c0,.2,0,.21-.22.21s-.8,0-2.74,0H126.08v.87c0,.2,0,.21-.24.21h-1.7c-.2,0-.22,0-.22-.21s0-1.49,0-4.21V17.34c0-2.74,0-4.08,0-4.2s0-.24.22-.24.8,0,2.68,0h10.76c1.86,0,2.5,0,2.62,0s.24,0,.24.24v1.58c0,.2,0,.22-.24.22s-.76,0-2.62,0h-11.5ZM129.14,17c.18-.18.2-.2.38-.08,1.32.84,2.64,1.78,4,2.8a17.34,17.34,0,0,0,1.5-2.48,6,6,0,0,0,.56-1.62,11.28,11.28,0,0,1,1.92.76c.2.1.3.18.3.34s-.1.24-.24.36A4,4,0,0,0,137,18a22.92,22.92,0,0,1-1.88,3c1.2,1,2.38,2,3.58,3.12.1.08.14.14.14.2s0,.14-.16.26l-1.1,1.2a.31.31,0,0,1-.22.14.21.21,0,0,1-.18-.1c-1.12-1.16-2.26-2.22-3.4-3.22a19.78,19.78,0,0,1-4.94,3.74,1.34,1.34,0,0,1-.48.2c-.14,0-.24-.14-.44-.44A4,4,0,0,0,126.82,25a18.48,18.48,0,0,0,5.38-3.76c-1.3-1-2.62-2-4-3-.1-.06-.14-.12-.14-.16s.06-.14.16-.24Z"/><path d="M150.34,21.54c1.1,0,1.42,0,1.54,0s.26,0,.26.24c0,.7-.06,1.22-.06,1.78a25.52,25.52,0,0,1-.38,4.56,2.33,2.33,0,0,1-2.54,2,8.36,8.36,0,0,1-1,0c-.54-.06-.58-.05-.68-.64a3.68,3.68,0,0,0-.56-1.49c.8.1,1.52.18,1.92.18.6,0,.82-.26,1-1.2a24.17,24.17,0,0,0,.24-3.54h-2.62a11.73,11.73,0,0,1-3,6.28c-.18.2-.28.31-.38.31s-.18-.12-.34-.39a5,5,0,0,0-1.08-1.22c2.28-2.1,3-4.32,3.12-8.82l-2,0c-.22,0-.24,0-.24-.22s0-.62,0-1.78V15c0-1.16,0-1.64,0-1.78s0-.22.24-.22.68,0,2.34,0h3.32c1.64,0,2.2,0,2.34,0s.22,0,.22.22,0,.62,0,1.78v2.58c0,1.16,0,1.66,0,1.78s0,.22-.22.22-.7,0-2.34,0H147.8q0,1.08-.12,2Zm-4.72-3.74H150v-3h-4.38Zm8.4-1a21.07,21.07,0,0,0-.14-3c.7,0,1.36.06,2,.14.2,0,.3.1.3.22a1.87,1.87,0,0,1-.14.44,13.65,13.65,0,0,0-.06,2.14v5.52c0,1.7,0,2.52,0,2.64s0,.22-.24.22H154.2c-.2,0-.22,0-.22-.22s0-.94,0-2.64Zm6.24,6.84c0,1.4.06,3,.06,4s-.16,1.56-.72,2-1.16.48-3.1.5c-.62,0-.62,0-.76-.64a4.27,4.27,0,0,0-.64-1.51,16,16,0,0,0,2.22.11c.64,0,.88-.15.88-.79v-12a19.41,19.41,0,0,0-.16-2.86c.72,0,1.46.06,2.16.14.2,0,.32.12.32.22a1,1,0,0,1-.14.42,7.15,7.15,0,0,0-.12,2Z"/><path d="M173.06,16.56a25,25,0,0,1-2.5,8.62,3.8,3.8,0,0,1-3.4,2.3c-1.76,0-3.54-1.88-3.54-5.14a7.37,7.37,0,0,1,2.26-5.2,8.75,8.75,0,0,1,6.5-2.56c4.8,0,7.62,3,7.62,6.94,0,3.72-2.1,6.06-6.16,7.29-.42.11-.6,0-.86-.37a4.35,4.35,0,0,0-1.4-1.26c3.38-.8,6-2.2,6-6a4.54,4.54,0,0,0-4.48-4.64Zm-5.74,1.94a5.76,5.76,0,0,0-1.56,3.7c0,1.84.74,2.86,1.36,2.86s1-.26,1.5-1.22a22.85,22.85,0,0,0,2.12-7.16A6,6,0,0,0,167.32,18.5Z"/><path d="M194.28,12.46c.26-.12.3-.1.38.1a16,16,0,0,0,6.48,7.38,6.85,6.85,0,0,0-1.16,1.5c-.18.3-.26.44-.38.44s-.22-.1-.42-.26a16.55,16.55,0,0,1-1.9-1.62c0,.58,0,1.28-.06,2a39.92,39.92,0,0,1-.5,5.6,2.6,2.6,0,0,1-3,2.47c-.5,0-.88,0-1.36,0s-.6,0-.74-.7A4.1,4.1,0,0,0,191,27.7a14.9,14.9,0,0,0,2.28.18c.84,0,1.18-.32,1.34-1.24a33,33,0,0,0,.38-5h-3.56a9.66,9.66,0,0,1-6.08,8.48,1.14,1.14,0,0,1-.48.16c-.16,0-.22-.13-.42-.47a3.57,3.57,0,0,0-1-1.2c3.64-1.33,5.4-3.45,5.78-7H189c-1.88,0-2.52,0-2.64,0s-.22,0-.22-.22V20a21.79,21.79,0,0,1-1.94,1.66c-.22.16-.34.26-.44.26s-.22-.14-.42-.44a4.48,4.48,0,0,0-1.12-1.22A15.62,15.62,0,0,0,188,13.7a5.66,5.66,0,0,0,.4-1.28,14,14,0,0,1,2.08.7c.22.1.28.2.28.34a.41.41,0,0,1-.16.3,1.6,1.6,0,0,0-.46.64,18,18,0,0,1-3.66,5.3c.28,0,1,0,2.52,0h5.38c1.74,0,2.4,0,2.6,0a21.06,21.06,0,0,1-4.3-6.34c-.08-.22,0-.24.18-.34Z"/><path d="M208.62,17.56a9.09,9.09,0,0,0,2.92,2.28,4.47,4.47,0,0,0-.64,1c-.14.32-.22.48-.36.48s-.22-.1-.44-.28a10.11,10.11,0,0,1-2.18-2.44c0,1.6.08,2,.08,2.2s0,.22-.22.22h-1.34c-.2,0-.22,0-.22-.22s.06-.56.08-2a10.87,10.87,0,0,1-2.62,2.62c-.22.16-.34.24-.46.24s-.22-.12-.34-.38a3.74,3.74,0,0,0-.72-1.1,10.66,10.66,0,0,0,3.46-2.64h-.4c-1.68,0-2.26,0-2.38,0s-.2,0-.2-.22V16.26c0-.2,0-.22.2-.22s.7,0,2.38,0h1V14.56a16.53,16.53,0,0,0-.14-2.42c.72,0,1.2.06,1.88.14.22,0,.32.1.32.2a1.9,1.9,0,0,1-.14.48,8.08,8.08,0,0,0-.08,1.6v1.52h.84c1.7,0,2.26,0,2.38,0s.22,0,.22.22v1.12c0,.2,0,.22-.22.22s-.68,0-2.38,0Zm-3.48,7.22c-1.7,0-2.26,0-2.38,0s-.22,0-.22-.22V23.34c0-.2,0-.22.22-.22s.68,0,2.38,0h.92a8.21,8.21,0,0,0,0-1.72c.8.06,1.34.1,1.78.16.22,0,.34.12.34.24a.86.86,0,0,1-.1.32,2.67,2.67,0,0,0-.18,1h.92c1.74,0,2.28,0,2.4,0s.24,0,.24.22V24.6c0,.2,0,.22-.24.22s-.66,0-2.4,0h-.5a6.21,6.21,0,0,0,3,2.56,4.87,4.87,0,0,0-.94,1c-.2.3-.3.45-.44.45s-.24-.11-.46-.27a7.46,7.46,0,0,1-2.18-2.46,7.31,7.31,0,0,1-3.14,3.57.9.9,0,0,1-.42.17c-.14,0-.26-.12-.46-.43a4.18,4.18,0,0,0-1-1.05,5.55,5.55,0,0,0,3.52-3.56Zm-1-11.88c.2-.1.26-.08.4.08a10.6,10.6,0,0,1,1.1,1.86c.1.22.06.28-.2.4l-.94.44c-.24.12-.3.14-.38-.06a10.62,10.62,0,0,0-1-1.9c-.14-.2-.16-.26.12-.4Zm5.1.68a3.2,3.2,0,0,0,.28-.88,10.5,10.5,0,0,1,1.48.54c.16.06.22.16.22.24s0,.16-.18.28a1.44,1.44,0,0,0-.28.38,13.5,13.5,0,0,1-.68,1.24c-.16.26-.24.36-.36.36a.9.9,0,0,1-.38-.16,6.24,6.24,0,0,0-1-.4A10.54,10.54,0,0,0,209.2,13.58Zm5.92,13.86c.2.14.22.22.22.32s-.1.18-.24.24a2.45,2.45,0,0,0-.52.36,12.66,12.66,0,0,1-2.68,1.8,1.45,1.45,0,0,1-.52.2c-.18,0-.28-.13-.48-.47a4.37,4.37,0,0,0-.82-1,10.24,10.24,0,0,0,3-1.6,3.79,3.79,0,0,0,.68-.7A13.44,13.44,0,0,1,215.12,27.44Zm-.82-12.76c-1.78,0-2.38,0-2.5,0s-.22,0-.22-.22V13c0-.2,0-.22.22-.22s.72,0,2.5,0H218c1.8,0,2.4,0,2.52,0s.2,0,.2.22V14.5c0,.2,0,.22-.2.22s-.72,0-2.52,0h-1a15.48,15.48,0,0,1-.62,1.5h.94c1.6,0,2.16,0,2.3,0s.22,0,.22.2,0,.82,0,2.34V24c0,1.52,0,2.2,0,2.3s0,.24-.22.24-.7,0-2.3,0h-2.66c-1.62,0-2.16,0-2.28,0s-.24,0-.24-.24,0-.78,0-2.3V18.76c0-1.6,0-2.28,0-2.42s0-.2.24-.2.62,0,2,0a12.26,12.26,0,0,0,.58-1.5Zm-.22,4.42h3.84V17.84h-3.84Zm3.84,2.82V20.6h-3.84v1.32Zm0,1.5h-3.84v1.42h3.84Zm-.54,3.32a.28.28,0,0,1,.46,0,10.74,10.74,0,0,0,3.3,2,4.27,4.27,0,0,0-.82,1.12c-.18.34-.28.46-.44.46a1.32,1.32,0,0,1-.46-.18,11.86,11.86,0,0,1-2.9-2.19.27.27,0,0,1-.1-.2c0-.06,0-.14.16-.24Z"/><path d="M232.18,16.82c-2.44.46-4.58.88-6.72,1.32-.76.18-1,.22-1.26.32a1.17,1.17,0,0,1-.44.16.47.47,0,0,1-.38-.3,13.94,13.94,0,0,1-.74-2.16,27.59,27.59,0,0,0,3.18-.34c2.46-.36,6.86-1,12-1.7.3,0,.4.08.42.22a11.43,11.43,0,0,1,.22,1.76c0,.24-.12.3-.38.3a8.92,8.92,0,0,0-2.44.44c-3.4,1.16-5.1,3.5-5.1,5.9,0,2.58,1.84,4,5.32,4.2.32,0,.44.08.44.3A7.11,7.11,0,0,1,236.1,29c-.06.31-.14.43-.38.43-3.52,0-7.38-2-7.38-6.19,0-2.84,1.42-4.76,3.84-6.34Zm4,2.16c.1-.08.18-.06.3,0a9.2,9.2,0,0,1,1.9,2.14.2.2,0,0,1-.06.32l-.84.62a.21.21,0,0,1-.34-.06,9.92,9.92,0,0,0-2-2.32Zm1.78-1.3c.12-.08.18-.06.3,0a8.35,8.35,0,0,1,1.9,2.06.23.23,0,0,1-.06.36l-.8.62a.21.21,0,0,1-.34-.06,9.46,9.46,0,0,0-2-2.3Z"/><path d="M255,18.78a6.26,6.26,0,0,0,0-1.36,8.62,8.62,0,0,1,2.32.86.38.38,0,0,1,.14.54,3.36,3.36,0,0,0-.32.78c-.16.84-.36,1.72-.56,2.58a23.14,23.14,0,0,1,3.12,1.92c.2.12.18.22.12.42a17.23,17.23,0,0,1-.86,1.72c-.06.1-.12.14-.18.14a.38.38,0,0,1-.24-.14,16.25,16.25,0,0,0-2.62-1.88,12.28,12.28,0,0,1-4,5.26c-.18.15-.28.23-.4.23a.51.51,0,0,1-.3-.15,4.38,4.38,0,0,0-1.74-.82,11,11,0,0,0,4.48-5.42,13.52,13.52,0,0,0-4-1.22,13.88,13.88,0,0,1-2.44,4,3.28,3.28,0,0,1-2.56,1.1,2.42,2.42,0,0,1-2.38-2.74c0-2.48,2.56-4.42,5.9-4.42.66-1.66,1.16-3.06,1.66-4.74l-2.76.32a4.2,4.2,0,0,0-.9.22,1.05,1.05,0,0,1-.36.08.32.32,0,0,1-.32-.22,12.12,12.12,0,0,1-.58-2.18,7.45,7.45,0,0,0,1.76.12,22.32,22.32,0,0,0,3.1-.26,2.31,2.31,0,0,0,1-.34.44.44,0,0,1,.26-.08.46.46,0,0,1,.28.08,6.68,6.68,0,0,1,1.36,1.1.48.48,0,0,1,.18.34.51.51,0,0,1-.2.34,2.72,2.72,0,0,0-.54,1c-.52,1.36-1.08,2.92-1.68,4.36a16.58,16.58,0,0,1,3.88,1A19.79,19.79,0,0,0,255,18.78Zm-10.56,5.58c0,.64.22.92.7.92a1.62,1.62,0,0,0,1.16-.76,13.67,13.67,0,0,0,1.46-2.44C245.7,22.16,244.42,23.22,244.42,24.36Z"/><path d="M268.06,20.44a6,6,0,0,1,3.18-.9,4.64,4.64,0,0,1,5,4.8c0,3.34-2.7,5.48-7,5.48-2.52,0-4-1.08-4-2.94A2.65,2.65,0,0,1,268,24.44a3.64,3.64,0,0,1,3.76,2.92,3,3,0,0,0,2-3,2.92,2.92,0,0,0-3.14-3,8.14,8.14,0,0,0-5.12,2.12c-.58.52-1.14,1.1-1.74,1.7-.14.14-.24.22-.34.22a.49.49,0,0,1-.3-.18,9,9,0,0,1-1.18-1.3c-.12-.16-.06-.3.1-.46A48.14,48.14,0,0,0,266.82,19c1.24-1.28,2.18-2.28,3.1-3.42-1.2.22-2.62.5-3.86.76a6.16,6.16,0,0,0-.84.24,1.47,1.47,0,0,1-.4.1.45.45,0,0,1-.44-.34,9.58,9.58,0,0,1-.7-2.16,9.64,9.64,0,0,0,1.86,0c1.22-.12,3-.38,4.54-.68a5.31,5.31,0,0,0,1.1-.3,1,1,0,0,1,.38-.16.71.71,0,0,1,.46.16,7.57,7.57,0,0,1,1.34,1.28.69.69,0,0,1,.22.48.53.53,0,0,1-.34.48,3.23,3.23,0,0,0-.88.64c-1.46,1.42-2.8,2.82-4.32,4.28Zm0,5.7c-.58,0-1,.34-1,.76,0,.63.54,1,1.74,1a4.38,4.38,0,0,0,.92-.08C269.52,26.76,268.92,26.14,268.08,26.14Z"/><path d="M291.9,21.76H279.74V20.6H291.9Z"/><path d="M297.1,26.56c0-1.22.08-2.8.16-4.22A9,9,0,0,1,296,25.4s0,0-.06-.06a15.39,15.39,0,0,0-2-1.68,14.52,14.52,0,0,0,2.76-5.26h-2V15.8h2.38V13.42s0-1-.06-1.36c0,0,2.08,0,2.94.12.26,0,.4.14.4.26s-.18.3-.54.36c0,.32,0,.88,0,.88V15.8h1.92v2.14a17.92,17.92,0,0,0,1.68-5.9s2,.22,2.78.4c.2,0,.34.14.34.24s-.16.22-.6.3c-.06.34-.2,1-.42,1.84h6.9v2.46H308.7v3.56h4.48v2.44H308.7v7.16h-2.8V23.28h-4.08v-.64a12.9,12.9,0,0,0-1.32.84s-.06,0-.1,0a9,9,0,0,1-.78-2.24c.1,1.76.22,4.24.22,5.4v3.83H297.1ZM300,18.4c.16.34.38.78.64,1.24a12.07,12.07,0,0,0,.82-1.24Zm1.78,2.44h4.08V17.28h-1.1a11,11,0,0,1-1.56,3.32.15.15,0,0,1-.08,0c-.42-.16-1.58-.4-2.24-.54a15.36,15.36,0,0,0,.9,1.42Z"/><path d="M321.52,28.38v.1c0,1.37-1.2,1.92-2.6,1.92h-.14c-.14,0-.16,0-.18-.16a6.2,6.2,0,0,0-.9-1.78,5.86,5.86,0,0,1-.78,2.07.17.17,0,0,1-.12-.05,12.78,12.78,0,0,0-2.44-.43C316,27.92,316,23.52,316,20.5c0-1.26,0-3.86,0-3.86h5.5V24.2a7.25,7.25,0,0,0,1.42-1.4h-1.14V20.92h2.34a7,7,0,0,0,.36-.8h-2.34V18.34h.62A11.15,11.15,0,0,0,322,17l1.86-.64s.56,1.06,1,2h.22a8.67,8.67,0,0,0,.32-2c.2,0,2,.12,2.44.2.26,0,.36.12.36.2s-.26.26-.54.28c-.08.38-.18.84-.3,1.34h.84a10.74,10.74,0,0,0,.7-2s1.86.5,2.18.62c.14.06.24.16.24.26s-.12.2-.46.2h-.16a8.62,8.62,0,0,1-.42.92h1.56v1.78h-2.62a6.35,6.35,0,0,0,.34.8h3V22.8H330.9a8.42,8.42,0,0,0,2.46,1.68,11.43,11.43,0,0,0-2,1.42c-.06.08-.1.1-.14.1a4,4,0,0,1-.86-.64,8.91,8.91,0,0,1-1.38.76s-.06,0-.08-.08a5.05,5.05,0,0,0-1-1v2.53l1.26-1.39A10.29,10.29,0,0,0,333,27.8a14.55,14.55,0,0,0-1.5,1.93c-.06.09-.1.13-.14.13a15,15,0,0,1-3.46-2.08v.08l0,.6v.19c0,1.4-1.32,1.79-2.68,1.79h-.38c-.18,0-.2,0-.22-.17a7.82,7.82,0,0,0-1-1.69c-.34.15-.7.28-1.12.45,0,0,0,.12,0,.17s-.06.34-.16.34-.3-.22-1-1.5ZM314.9,13.3h4.82V13a9.86,9.86,0,0,0-.06-1s2.16,0,2.92.12c.22,0,.32.12.32.22s-.18.28-.58.36a4.77,4.77,0,0,0,0,.6v0h2.94V13a9.86,9.86,0,0,0-.06-1s2.16,0,2.92.12c.22,0,.32.12.32.22s-.18.28-.58.36a4.77,4.77,0,0,0,0,.6v0h5v2.32h-5v.44h-2.56v-.44h-2.94v.64h-2.56v-.64H314.9Zm4.4,12.14h-1.16A24.7,24.7,0,0,1,317.8,28a7.46,7.46,0,0,0,.82.08c.44,0,.68-.14.68-.62Zm0-2V22h-1c0,.46,0,.94,0,1.44Zm0-3.38V18.74h-1v1.32Zm2.18,7.2a20.43,20.43,0,0,0,3.64-1.48,9.54,9.54,0,0,0,.28,1.78.15.15,0,0,1,0,.08,6.41,6.41,0,0,1-1.4.78,7.55,7.55,0,0,0,.88.08c.44,0,.74-.1.74-.5V24.24a10.14,10.14,0,0,0,0-1s2.18.12,2.58.16c.18,0,.28.1.28.18s-.16.24-.5.28c0,.2,0,.44,0,.62a11.08,11.08,0,0,0,1-.58c-.26-.36-.48-.72-.68-1.06h-2.86a10.53,10.53,0,0,1-.7,1,5.6,5.6,0,0,1,.8.54l-1.34,1.68a7.63,7.63,0,0,0-.86-.66,4.71,4.71,0,0,1-.9.72s-.08,0-.16-.08a4,4,0,0,0-.8-.5Zm5.94-6.34-.26-.8h-.38c-.12.26-.22.54-.34.8Z"/><path d="M336.84,19.36h-2V16.92h2V13.64s0-.8-.06-1.34c0,0,2.16,0,2.86.14.28,0,.42.14.42.24s-.2.26-.62.36c0,.26,0,.94,0,.94v2.94h1.78v1.9l.76-.24V15.26s0-1.3-.06-1.72c0,0,2.44.06,2.88.14.22,0,.32.12.32.24s-.18.28-.58.36c0,.24,0,.92,0,.92v2.6l1.34-.4V13.64s0-1.08-.06-1.56c0,0,2.38,0,2.82.12.22,0,.32.12.32.24s-.18.28-.58.36c0,.24,0,.8,0,.8v3l4.1-1.26c0,.42,0,1,0,1.58,0,4.72-.3,6.26-1.08,7.26a10.63,10.63,0,0,0,1.92,1.58c.14.06.16.12.16.2s0,.14,0,.22C353,29.66,351,30,347.44,30c-3,0-5.5-.05-5.5-3v-6l-1.3.42-.8-2.16h-.44v4.22a17.82,17.82,0,0,0,2-.84s0,.72,0,1.38c0,.32,0,.64,0,.84s0,.1,0,.14-.06.12-.18.18a51.29,51.29,0,0,1-5.4,2.16v.12c0,.28-.08.47-.2.47s-.2-.11-.3-.29a26,26,0,0,1-1.18-2.64,24.78,24.78,0,0,0,2.66-.68Zm9,.52-1.34.42v6.12c0,1,.52,1.12,2.54,1.12,3.28,0,3.54-.32,3.62-2.74a2.35,2.35,0,0,1-1.22.32c-.48,0-.5,0-.52-.2a11.14,11.14,0,0,0-.62-1.76v2.68H345.8Zm2.46,2.38a2.31,2.31,0,0,0,.58.12c.8,0,1-1,1-3.78l-1.54.5Z"/><path d="M355.64,13h16.5v2.54H358.5v9.14a15.7,15.7,0,0,0,4.9-3.44,34.71,34.71,0,0,0-4.2-2.6l2-1.8c1.08.6,2.42,1.4,3.86,2.38a14.73,14.73,0,0,0,2-3.58s2.56,1,3,1.26a.35.35,0,0,1,.18.26c0,.1-.12.2-.38.2a2.23,2.23,0,0,1-.34,0,25,25,0,0,1-2.22,3.52,30.57,30.57,0,0,1,3.54,3.34l-2.24,2.1a17.62,17.62,0,0,0-3-3.34,16.18,16.18,0,0,1-4.82,3.8s-.06,0-.1-.06a10.68,10.68,0,0,0-2.12-1.5V27h14.12v2.6H358.5v1.05h-2.86Z"/><circle class="cls-3" cx="54.83" cy="72.04" r="52.68"/><path class="cls-4" d="M53.31,69.08,53.26,69c-.09-.26-.18-.52-.26-.77l0-.11-.24-.74v0c-.08-.25-.15-.5-.22-.75l0-.1c-.14-.51-.26-1-.37-1.52v-.08q-.09-.39-.15-.78v0c0-.26-.09-.52-.12-.79v0l-.09-.82v-.06c-.05-.56-.08-1.13-.1-1.74v-.08c0-.6,0-1.23,0-1.9v-.08c0-.34,0-.69.05-1h0a33.42,33.42,0,0,1-5.54,8.3,47.59,47.59,0,0,0,7.34,3.72Z"/><path class="cls-4" d="M56.66,68.2c-.08.25-.17.51-.26.77l0,.11-.16.45a48,48,0,0,0,7.34-3.72A33.42,33.42,0,0,1,58,57.51h0c0,.35,0,.7,0,1v.08c0,.67,0,1.3,0,1.9v.08c0,.61,0,1.18-.1,1.74v.06l-.09.82v0c0,.27-.07.53-.12.79v0c0,.26-.09.52-.15.78l0,.08c-.1.51-.22,1-.36,1.52l0,.1c-.07.25-.15.5-.22.75v0l-.24.74Z"/><path class="cls-4" d="M48.47,51.85a3,3,0,0,1-.88-2.2c-3.39,1.58-6.49,3.41-10.11,8.94h0C42.13,57,45.06,55.49,48.47,51.85Z"/><path class="cls-4" d="M58.71,51.53c1.45-.12,2-1,2-1.85A1.53,1.53,0,0,0,59,48.26l0-1.35a3,3,0,0,1,2.58,1.17A47.08,47.08,0,0,0,74.09,50.6c-1.26-4.21-5.9-6-9.86-6.19-4.37-.25-8.06,1.1-8.6,3.14a3.39,3.39,0,0,0,.59,3A2.77,2.77,0,0,0,58.71,51.53Z"/><path class="cls-4" d="M62.06,49.65a2.92,2.92,0,0,1-.87,2.2c3.41,3.64,6.34,5.13,11,6.75h0C68.56,53.06,65.46,51.23,62.06,49.65Z"/><path class="cls-4" d="M58.83,52.88a4.4,4.4,0,0,1-1.21-.05c1.5,5.75,3.91,8.77,6.92,12.35h0c-.58-5.07-1.2-8.7-4.38-12.63A4.18,4.18,0,0,1,58.83,52.88Z"/><path class="cls-4" d="M50.83,52.88a4.18,4.18,0,0,1-1.35-.34c-3.19,3.93-3.8,7.56-4.38,12.63h0c3-3.57,5.41-6.59,6.91-12.3A6.84,6.84,0,0,1,50.83,52.88Z"/><path class="cls-4" d="M54.83,69.82c2.06-5.4,2.63-8.73,1.45-17.45a4,4,0,0,1-1.1-.9,5.62,5.62,0,0,1-.35-.5,5.62,5.62,0,0,1-.35.5,4.45,4.45,0,0,1-1.11,1C52.21,61.11,52.77,64.44,54.83,69.82Z"/><path class="cls-4" d="M63.47,55.52a27.29,27.29,0,0,1,2.18,8.93c.65-.43,1.28-.87,1.88-1.33a24.09,24.09,0,0,0,3.86-3.55A26.84,26.84,0,0,1,63.47,55.52Z"/><path class="cls-4" d="M66.35,50.68a23.06,23.06,0,0,1,6.54,6.86,8.86,8.86,0,0,0,1.45-5.75A49.22,49.22,0,0,1,66.35,50.68Z"/><path class="cls-4" d="M46.19,55.52a27,27,0,0,1-7.92,4,24.09,24.09,0,0,0,3.86,3.55c.6.46,1.23.9,1.87,1.33A27.55,27.55,0,0,1,46.19,55.52Z"/><path class="cls-4" d="M43.31,50.68a49.37,49.37,0,0,1-8,1.11,8.8,8.8,0,0,0,1.45,5.75A23.06,23.06,0,0,1,43.31,50.68Z"/><path class="cls-4" d="M48.15,48.08a2.92,2.92,0,0,1,2.46-1.17h.11l0,1.35a1.55,1.55,0,0,0-1.75,1.42c0,.83.56,1.73,2,1.85a2.77,2.77,0,0,0,2.49-.94,3.39,3.39,0,0,0,.59-3c-.54-2-4.24-3.39-8.6-3.14-4,.23-8.6,2-9.86,6.19A47.08,47.08,0,0,0,48.15,48.08Z"/><path class="cls-4" d="M53,74.83l-.09.1c-.17.21-.35.41-.53.61l-.07.08-.52.58,0,0c-.18.2-.36.39-.55.57l-.07.08c-.37.37-.74.73-1.13,1.08L50,78l-.6.52h0l-.62.5,0,0-.66.48-.05,0c-.46.32-.94.64-1.45,1l-.07,0c-.52.31-1.07.62-1.66.94l-.06,0-.94.48h0a33,33,0,0,1,10,.66,48.71,48.71,0,0,0-.45-8.23Z"/><path class="cls-4" d="M50.59,72.37l.8-.16.12,0,.47-.08a47.85,47.85,0,0,0-6.9-4.5,33,33,0,0,1-4.41,9h0l.88-.57.06,0c.57-.35,1.11-.67,1.64-1l.07,0q.8-.44,1.56-.78l0,0,.76-.33h0l.74-.3h0c.25-.1.49-.18.74-.26l.09,0c.49-.16,1-.31,1.49-.44l.1,0,.77-.18h0l.76-.16Z"/><path class="cls-4" d="M40.53,87.63a3,3,0,0,1-1.47,1.86c3.06,2.15,6.2,3.92,12.8,4.3v0C48.14,90.57,45.38,88.77,40.53,87.63Z"/><path class="cls-4" d="M35.13,78.93a1.87,1.87,0,0,0-2.61-.81,1.52,1.52,0,0,0-.35,2.21L31,81a3,3,0,0,1-.28-2.81,47.22,47.22,0,0,0-4.1-12.16c-3,3.2-2.21,8.09-.43,11.63,2,3.91,5,6.44,7,5.88a3.37,3.37,0,0,0,2.35-2A2.78,2.78,0,0,0,35.13,78.93Z"/><path class="cls-4" d="M31.82,77a2.93,2.93,0,0,1,2.35-.34c1.45-4.77,1.27-8.06.36-12.88h0C31.53,69.63,31.49,73.24,31.82,77Z"/><path class="cls-4" d="M36.24,78.15a4.57,4.57,0,0,1,.56,1.07C41,75.05,42.44,71.45,44,67.05h0c-4.1,3-6.94,5.38-8.75,10.11A4,4,0,0,1,36.24,78.15Z"/><path class="cls-4" d="M40.24,85.07a4.06,4.06,0,0,1,.38,1.35c5,.79,8.45-.49,13.13-2.53v0c-4.6-.81-8.41-1.39-14.11.17A6.09,6.09,0,0,1,40.24,85.07Z"/><path class="cls-4" d="M52.91,73.14c-5.71.92-8.88,2.09-15.84,7.48a4,4,0,0,1-.23,1.4,5.45,5.45,0,0,1-.25.55,3.05,3.05,0,0,1,.6.06,4.2,4.2,0,0,1,1.4.46C46.68,79.77,49.27,77.62,52.91,73.14Z"/><path class="cls-4" d="M36.21,72.81a27.47,27.47,0,0,1,6.64-6.36c-.69-.34-1.39-.66-2.09-1a25,25,0,0,0-5-1.57A27.54,27.54,0,0,1,36.21,72.81Z"/><path class="cls-4" d="M30.57,72.74a23.18,23.18,0,0,1,2.67-9.1,8.87,8.87,0,0,0-5.7,1.62A48.28,48.28,0,0,1,30.57,72.74Z"/><path class="cls-4" d="M44.84,87.77a27.24,27.24,0,0,1,7.48,4.84,24.84,24.84,0,0,0,1.14-5.12c.09-.75.16-1.52.22-2.29A27.14,27.14,0,0,1,44.84,87.77Z"/><path class="cls-4" d="M42.09,92.69a48.84,48.84,0,0,1,5,6.36,8.77,8.77,0,0,0,4.25-4.12A23.3,23.3,0,0,1,42.09,92.69Z"/><path class="cls-4" d="M37.42,89.8a2.93,2.93,0,0,1-2.24-1.55l-.06-.1,1.19-.64a1.53,1.53,0,0,0,2.1.8c.75-.38,1.22-1.34.6-2.66A2.77,2.77,0,0,0,37,84,3.37,3.37,0,0,0,34,85c-1.5,1.49-.82,5.37,1.58,9,2.18,3.31,6,6.45,10.29,5.44A47.1,47.1,0,0,0,37.42,89.8Z"/><path class="cls-4" d="M58.15,72.19l.12,0,.8.16.11,0,.76.16h0l.76.18.11,0c.5.13,1,.28,1.49.44l.08,0,.75.26h0l.74.3h0l.76.33,0,0c.51.23,1,.49,1.55.78l.07,0c.54.29,1.08.61,1.65,1l.06,0,.88.57h0a33.57,33.57,0,0,1-4.41-9,49,49,0,0,0-6.9,4.5Z"/><path class="cls-4" d="M57.23,75.54l-.53-.61-.08-.1-.3-.37a47.67,47.67,0,0,0-.45,8.23,33,33,0,0,1,10-.66h0l-.93-.48-.06,0c-.59-.32-1.14-.63-1.66-.94l-.07,0c-.51-.31-1-.63-1.45-1l0,0-.67-.48,0,0-.63-.5h0l-.6-.52-.06,0c-.39-.35-.76-.71-1.13-1.08l-.08-.08q-.27-.27-.54-.57l0,0c-.17-.19-.35-.38-.52-.58Z"/><path class="cls-4" d="M75.49,76.62a2.91,2.91,0,0,1,2.34.34c.33-3.72.29-7.33-2.68-13.23h0C74.22,68.56,74,71.85,75.49,76.62Z"/><path class="cls-4" d="M70.64,85.65c-.61,1.32-.14,2.28.61,2.66a1.53,1.53,0,0,0,2.1-.8l1.19.64a3,3,0,0,1-2.3,1.65,47.1,47.1,0,0,0-8.48,9.63c4.28,1,8.11-2.13,10.29-5.44,2.4-3.66,3.08-7.53,1.58-9a3.39,3.39,0,0,0-2.93-1A2.8,2.8,0,0,0,70.64,85.65Z"/><path class="cls-4" d="M70.6,89.49a2.93,2.93,0,0,1-1.47-1.86c-4.86,1.14-7.61,2.94-11.34,6.14v0C64.4,93.41,67.54,91.64,70.6,89.49Z"/><path class="cls-4" d="M69.42,85.07a5.51,5.51,0,0,1,.64-1c-5.72-1.57-9.54-1-14.15-.18v0c4.68,2,8.13,3.32,13.13,2.53A4.06,4.06,0,0,1,69.42,85.07Z"/><path class="cls-4" d="M73.42,78.15a4,4,0,0,1,1-1c-1.82-4.73-4.65-7.07-8.75-10.11h0c1.59,4.39,3,8,7.2,12.14A6.08,6.08,0,0,1,73.42,78.15Z"/><path class="cls-4" d="M56.75,73.14c3.64,4.49,6.25,6.64,14.39,10a3.8,3.8,0,0,1,1.33-.49,3.05,3.05,0,0,1,.6-.06,3.87,3.87,0,0,1-.25-.55,4.27,4.27,0,0,1-.3-1.45C65.6,75.23,62.44,74.05,56.75,73.14Z"/><path class="cls-4" d="M64.81,87.77A27.15,27.15,0,0,1,56,85.2c.06.77.13,1.54.22,2.29a24.21,24.21,0,0,0,1.14,5.12A27.19,27.19,0,0,1,64.81,87.77Z"/><path class="cls-4" d="M67.56,92.69a23.21,23.21,0,0,1-9.21,2.24,8.79,8.79,0,0,0,4.26,4.12A49.57,49.57,0,0,1,67.56,92.69Z"/><path class="cls-4" d="M73.45,72.81a27.26,27.26,0,0,1,.45-8.89,25,25,0,0,0-5,1.57c-.7.3-1.4.62-2.09,1A27.47,27.47,0,0,1,73.45,72.81Z"/><path class="cls-4" d="M79.09,72.74a48.28,48.28,0,0,1,3-7.48,8.87,8.87,0,0,0-5.7-1.62A23.35,23.35,0,0,1,79.09,72.74Z"/><path class="cls-4" d="M78.92,78.23A3,3,0,0,1,78.7,81l-.06.09-1.15-.71a1.53,1.53,0,0,0-.36-2.21c-.69-.46-1.77-.39-2.6.81a2.78,2.78,0,0,0-.44,2.62,3.37,3.37,0,0,0,2.34,2c2,.56,5.06-2,7-5.88C85.23,74.16,86,69.27,83,66.07A47.22,47.22,0,0,0,78.92,78.23Z"/><path class="cls-4" d="M54.83,32.18A39.86,39.86,0,1,0,94.68,72,39.86,39.86,0,0,0,54.83,32.18Zm0,73.12A33.22,33.22,0,0,1,29.62,93.73C28.24,91.12,31,85.82,31,85.8h0s-6.1-.29-7.58-2.86A33.27,33.27,0,0,1,48.55,39.36c3,0,6.27,5.13,6.28,5.14h0s3.31-5.14,6.28-5.14A33.27,33.27,0,0,1,86.26,82.94c-1.48,2.57-7.57,2.86-7.58,2.86h0s2.73,5.32,1.35,7.93A33.2,33.2,0,0,1,54.83,105.3Z"/></g></g></svg>