<svg xmlns="http://www.w3.org/2000/svg" viewBox="0 0 287.56 49.85"><defs><style>.cls-1{fill:none;stroke:#000;stroke-miterlimit:10;stroke-width:2.55px;}</style></defs><title>アセット 239</title><g id="レイヤー_2" data-name="レイヤー 2"><g id="レイヤー_5" data-name="レイヤー 5"><path d="M76.56,37.19c-9.06-.69-11.3-6.71-11.3-8.81,0-1.66,1-3.07,4.41-3.07a70.47,70.47,0,0,1,9.64.83h.18c.13,0,.27,0,.27-.14s-.93-1.76-3.89-6.41a20.8,20.8,0,0,1-3.48.31,8.67,8.67,0,0,1-5.78-2c-.35-.21-.38-.35-.38-.62v-.11c0-.58.31-3.16.72-3.16a.52.52,0,0,1,.38.24c2,2,3.55,2.92,5.85,2.92.21,0,.42,0,.62,0s.35,0,.52,0a11.87,11.87,0,0,1-1.1-2.44c0-.17.1-.34,2.17-.34.48,0,.93,0,1.27,0,.76,0,.52.69.66,1.72,0,.1,0,.21,0,.35l.31-.14c.28-.11.14-1,.52-1h0a6.54,6.54,0,0,0,1.17.25h.14c.83,0,.83,0,.83,1.89,0,.34,0,.59-2,1.48a56.34,56.34,0,0,0,4.61,7c.76,1.06,1,1.48,1,1.82a.77.77,0,0,1-.24.59,14.44,14.44,0,0,1-2.1,1.34.93.93,0,0,1-.45.1.66.66,0,0,1-.24,0c-1.06-.31-.82-.31-2-.66a37.45,37.45,0,0,0-9.09-1.3c-1.24,0-1.69.38-1.69,1,0,.9,2.17,5.24,9.68,5.24a16.17,16.17,0,0,0,1.82-.07h.14c.17,0,.24,0,.24.1a1,1,0,0,1-.17.34c-.38.62-1.65,1.59-2,2.17a1.1,1.1,0,0,1-1.1.69Z"/><path d="M94.6,36c-.69,0-3.07-.45-3.07-1a.51.51,0,0,1,.18-.28,55.5,55.5,0,0,0,5.61-6.27,14.21,14.21,0,0,1-.24-1.79.6.6,0,0,1,.17-.48,15,15,0,0,0,1.34-1.51.33.33,0,0,1,.18-.11c.1,0,.13.14.17.38a12.25,12.25,0,0,0,.14,1.31c.89-1.17,1.75-2.34,2.58-3.48-.93.28-1.65.62-2.34.83a9.69,9.69,0,0,1-3.24.65h-.35a.82.82,0,0,1-.65-.41A9,9,0,0,1,94,21.18c0-.14.07-.21.14-.21s.1,0,.17,0a15,15,0,0,0,2.34.27A10.58,10.58,0,0,0,98.77,21c1.37-.24,2.92-.66,4.78-1l1.59-2.31a.5.5,0,0,0,.1-.27c0-.1,0-.14-.14-.14a.9.9,0,0,0-.45.17,9.49,9.49,0,0,1-.75.59.15.15,0,0,1-.11,0c-.07,0-.1,0-.13-.13a7.81,7.81,0,0,0-.28-.93,1.12,1.12,0,0,1,0-.31.42.42,0,0,1,.06-.28,5.09,5.09,0,0,1,2.86-1.41c1.52,0,1.69,2.13,1.69,2.79,0,.93-.38.89-.79,1.38l-.66.75c1.49.49,2.41,2.07,2.41,5.86,0,5.47-2.72,9.33-6.09,9.33-.9,0-3.31-.27-4.62-3.65C95.15,36,95.15,36,94.67,36Zm5.2-6.86c.34.86,1.31,2.9,3,2.9,2.1,0,3.27-3.52,3.27-6.72,0-2.41-.34-3-1.41-3C102.86,24.59,101.31,26.86,99.8,29.13Zm18.39.69c-.1,0-.21-.07-.28-.27a9.24,9.24,0,0,0-7.16-6.1c-.24,0-.31-.14-.31-.24s1.07-1.79,1.65-1.79c.38,0,6.48,1.1,8.85,6.37a.88.88,0,0,1,.07.28C121,28.41,118.77,29.82,118.19,29.82Zm-2.93-8.92a.36.36,0,0,1-.34-.27,42.21,42.21,0,0,0-3-4.24s0-.1,0-.14c0-.34,1.24-1.1,1.76-1.1.07,0,.14.07.24.17,1.07,1,3.17,3.76,3.17,4.24S115.64,20.9,115.26,20.9Zm.69-5.65a.18.18,0,0,1-.07-.17c0-.31,1-.82,1.45-1.06a.69.69,0,0,1,.24-.07c.07,0,.14.07.24.17s3.34,3.48,3.34,4.17c0,.48-1.48,1.24-1.65,1.3a.39.39,0,0,1-.21,0c-.1,0-.21-.07-.27-.24A47,47,0,0,0,116,15.25Z"/><path d="M134.44,27.41a.77.77,0,0,0-.52.21c-1.38,1.27-4,6-5.37,8.19a.32.32,0,0,1-.28.21c-.48,0-2.86-1.58-2.86-2a1.16,1.16,0,0,1,.35-.62c5.16-6.16,11.19-15.08,16.12-19.08.17-.14.31-.27.48-.27s2.72,1.54,2.72,2.06a.45.45,0,0,1-.21.35c-3.61,2.2-8.64,7.61-8.64,8,0,.14.07.17.17.21a1.57,1.57,0,0,1,1,1.38c.18,5.23,2,7.16,4.38,7.16,3.75,0,8.68-4.89,10.09-9.16.1-.35.24-.48.34-.48s.31.2.42.48c.2.51.44,1.62,1,2a.44.44,0,0,1,.13.34c0,1.52-5.75,10.23-12.46,10.23-3.28,0-6-2.41-6.51-8.85A.29.29,0,0,0,134.44,27.41Z"/><path d="M184.88,14.15c-5.13-.24-8.57-.27-10.43-.27l-8.61,0c0,1.1.07,2.21.07,3.38,1.89.17,2.72.2,3.48.2A21.37,21.37,0,0,0,169,14.6v-.1a.1.1,0,0,1,.11-.11h.06c1.59.11,3,.35,3,.73a1.86,1.86,0,0,1-.37.72,1.22,1.22,0,0,0-.28.9,4.34,4.34,0,0,0-.07.75,27.12,27.12,0,0,0,3.1-.27h.07a.26.26,0,0,1,.24.24,6,6,0,0,1,0,1,7.26,7.26,0,0,1,0,1c0,.11-.21.17-.31.17-1.51-.13-2.27-.2-3.2-.24v0l.17.14a20.2,20.2,0,0,0,3.27,1.75c.17.07.24.14.24.24a.29.29,0,0,1-.1.21c-.14.21-1,.93-1.27,1.34-.07.14-.11.24-.21.24a6.56,6.56,0,0,1-2.07-1.68c.07,1.68.21,4,.38,5.51v0a.33.33,0,0,1-.21.24c-.34,0-.89,0-1.41,0-1.1,0-1.2-.07-1.2-.35.2-1.86.34-3.65.41-5.06-1.31,2.69-2.34,3.79-2.58,3.79a.18.18,0,0,1-.17-.07,5,5,0,0,0-1.31-.66c-1.14,7.34-4.27,12-4.79,12a.66.66,0,0,1-.38-.13,11.7,11.7,0,0,0-2.86-.83c-.17,0-.27-.1-.27-.17s.07-.14.17-.24c4.41-4.07,5.58-11.85,5.58-17.88a37.72,37.72,0,0,0-.52-6.54.75.75,0,0,1,0-.24c0-.14.07-.17.2-.17h.21c2.27.24,7.2.31,10.3.31h1.51c5,0,8.37-.18,10.4-.31H185a.32.32,0,0,1,.35.31c0,.34,0,.82,0,1.3s0,1,0,1.31a.34.34,0,0,1-.35.31ZM186.19,34c.21,0,.24.14.24.31a12.21,12.21,0,0,1,.07,1.41c0,1.24-.14,1.28-.34,1.28-5.06-.18-7.06-.28-10.82-.28-4,0-5.68.1-10.84.28-.45,0-.49,0-.49-1.49,0-.51,0-1,0-1.2s.07-.31.31-.31h.14l4.09.24c0-.31,0-.58,0-.72a19.77,19.77,0,0,0-.31-4.45v-.13c0-.14,0-.14.24-.14,3.34.34,3.68.69,3.68,1s-.31.66-.48,1a6.53,6.53,0,0,0-.41,2.72v.79H174v-.83a41.87,41.87,0,0,0-.35-6.47v-.21c0-.07,0-.07.07-.07h.14c.69,0,3.82.45,3.82,1.11a2.62,2.62,0,0,1-.45.92,3,3,0,0,0-.31,1.28h.9a38.28,38.28,0,0,0,4.65-.35h.07a.38.38,0,0,1,.34.35,9.52,9.52,0,0,1,0,1.17,11.18,11.18,0,0,1,0,1.24.3.3,0,0,1-.31.21h-.1c-1.83-.11-3.07-.28-4.65-.28h-1V34.3c2.78,0,4.92,0,9.29-.31ZM169,19.32c-.69,0-1.52.07-3.17.24,0,1.38-.14,2.82-.31,4.24A17,17,0,0,0,169,19.32Zm15.63-2.1a.25.25,0,0,1,.24.24,6,6,0,0,1,0,1,7.26,7.26,0,0,1,0,1c0,.11-.2.17-.31.17-1.86-.17-2.61-.24-3.37-.27A17.61,17.61,0,0,0,188,24.14c.1,0,.17.1.17.14s-.1.14-.21.2a12.77,12.77,0,0,0-2.13,1.35.53.53,0,0,1-.35.2c-.44,0-2.3-1.37-4.61-4.44.07,1.69.21,4,.41,5.55a.38.38,0,0,1-.2.27c-.35,0-.9,0-1.45,0-1,0-1.21,0-1.21-.35.25-1.93.38-3.75.42-5.16a28.13,28.13,0,0,1-3,3.82.42.42,0,0,1-.27.14.26.26,0,0,1-.21-.07,7.37,7.37,0,0,0-2.2-.93c-.14,0-.25-.07-.25-.14s0-.1.14-.14a16.89,16.89,0,0,0,5.44-5.27c-.72,0-1.48.14-2.48.24-.37,0-.37-.37-.37-1.17,0-1.13.1-1.2.27-1.2h.1c1.11.14,1.93.24,2.79.27a15.5,15.5,0,0,0-.31-2.89v-.1a.1.1,0,0,1,.11-.11h.07c2.3.18,3,.38,3,.73,0,.17-.21.41-.42.72a1.26,1.26,0,0,0-.27.9c0,.17,0,.44-.07.75.89,0,1.51-.07,3.68-.27Z"/><path d="M222.48,34.4a.13.13,0,0,1,.14.11.45.45,0,0,1-.1.24,12.83,12.83,0,0,0-2.27,3,.52.52,0,0,1-.49.31c-.34,0-.65,0-1,0a23.28,23.28,0,0,1-14.71-4.89c-2.1,2.21-5.34,4.14-10.3,5.24a.91.91,0,0,1-.34.07.39.39,0,0,1-.28-.11,11.28,11.28,0,0,0-2.79-2.24.23.23,0,0,1-.13-.2c0-.07.06-.11.17-.14,5.89-.65,9.4-2.55,11.5-4.79a11.58,11.58,0,0,1-1.17-1.75,16.75,16.75,0,0,0-1.45,2.41c-.1.27-.1.58-.34.58a9.82,9.82,0,0,1-2.62-1.62c0-.06-.07-.1-.07-.17a.26.26,0,0,1,.11-.2c4-3.21,3.75-3.28,4-4.31.06-.41.31-.41.62-.41,1.51,0,1.75.27,1.75.69v.1a2.49,2.49,0,0,0-.07.62,2.41,2.41,0,0,0,.14.83,9.27,9.27,0,0,0,.69,1.1,12.9,12.9,0,0,0,1.38-4.2c-1.93,0-4.07.07-5.31.07l.07,1.06v.07c0,.24-.17.31-1.68.31-.93,0-1.62,0-1.62-.31v0a31.09,31.09,0,0,0,.27-4.75,40.72,40.72,0,0,0-.27-5.62v0c0-.14.17-.24.34-.24,2.14.17,5.55.24,8.34.24a39.9,39.9,0,0,0-.38-5.27.55.55,0,0,1,0-.21c0-.1,0-.1.11-.1a24.71,24.71,0,0,1,4,.48c.31.1.44.24.44.41s-.41.8-.65,1.52a14.72,14.72,0,0,0-.31,3.17c3,0,6.34-.18,8.54-.31h.07a.29.29,0,0,1,.27.27v.07c0,.38-.17,2.27-.17,5.68,0,1.93.17,2.9.28,4.69v.07c0,.38-.17.41-2,.41-1.17,0-1.37-.1-1.37-.41a10.26,10.26,0,0,1,.07-1.14l-5.89-.1a15.18,15.18,0,0,1-2.24,6.44c2.41,1.86,6.34,3.65,12.09,3.65a32.53,32.53,0,0,0,4.65-.35ZM205,17.94l-5.54.07s0,1.65,0,3.1a8.64,8.64,0,0,0,0,1c1.23,0,3.51.07,5.54.07Zm8.92,3.38c0-1.86-.07-3.31-.07-3.31l-5.78-.07v4.2c2.27,0,4.82-.07,5.85-.07Z"/><path d="M237.08,29.44c0,.24,0,.45-8.85,4.38-.38.14-.69.58-1,.58-.48,0-2.38-3-2.38-3.13s.14-.17.35-.21a24.37,24.37,0,0,0,5.13-1.51c0-2.59.1-6.31.1-6.89v-1l-3.51.14h-.07a.31.31,0,0,1-.27-.24c0-.27,0-.79,0-1.27s0-1,0-1.21a.34.34,0,0,1,.34-.31c1.14.14,2.34.24,3.51.28a51.87,51.87,0,0,0-.38-7.82v-.1c0-.14.07-.21.25-.21s4.06.41,4.06,1.24c0,.34-.41.83-.62,1.24s-.21.55-.35,5.65c1,0,1.8-.14,3-.28a.34.34,0,0,1,.34.31c0,.28,0,.86,0,1.45,0,1.2-.06,1.27-.31,1.27h-.06c-1.28,0-2.07-.1-3.07-.14v1c0,.45,0,3.51,0,5.72,1.52-.59,2.76-1.11,3.38-1.38a.5.5,0,0,1,.17-.07c.07,0,.07.1.07.31a12.33,12.33,0,0,0,.07,2.13Zm9.68,1.48c0,.31-.42.31-1.79.31s-1.48-.06-1.48-.44c.13-1.83.2-5.79.24-8.06-.59.24-1.52.69-2.59,1.2,0,3.07-.07,6.51-.07,8.27,0,2.51,0,2.65,5.21,2.65a45.79,45.79,0,0,0,5.47-.27c1.24-.25,1.72-2.28,1.72-3.93,0-.62.11-.62.14-.62a.43.43,0,0,1,.24.14,7.77,7.77,0,0,0,2.58,2.24.57.57,0,0,1,.49.51,5,5,0,0,1-4.69,4.65,47.28,47.28,0,0,1-5.44.21c-6.16,0-8.75-.14-8.75-3.72v-.55c0-.52.11-4.31.14-8.1-.86.42-1.69.87-2.34,1.21a.56.56,0,0,1-.24.07.37.37,0,0,1-.28-.17,15.49,15.49,0,0,1-.89-2.45c0-.21.14-.27.31-.34,1.07-.35,2.27-.8,3.44-1.28v-2.1c0-3.34,0-4.54-.24-5.44a1,1,0,0,1,0-.28c0-.17.07-.2.27-.2.66,0,4,.69,4,1.24,0,.34-.52.76-.8,1.17a3.78,3.78,0,0,0-.13,1.38c0,.41-.07,1.51-.07,3l1.82-.83.76-.34c0-4.72,0-8-.34-9.51a1.11,1.11,0,0,1,0-.34c0-.14,0-.21.28-.21s4,.59,4,1.21c0,.27-.31.58-.48.79-.35.41-.52.89-.52,6.71l2.48-1.2c.65-.31.58-1,1.1-1s2.86.59,2.86,1.21c0,.41-.45.93-.45,1.3-.07,2.62-.1,5.72-.27,6.86-.35,2.51-1.11,4-3.93,4.16a.62.62,0,0,1-.58-.51,7.35,7.35,0,0,0-1.18-2.14l.11,3.48Zm-.14-9.5c0,1.2,0,3.24,0,5.27a10.61,10.61,0,0,0,1.45.2c.76,0,1.45-.41,1.45-5.51a12.15,12.15,0,0,0,0-1.27Z"/><path d="M284,37.61c0-.45,0-.9,0-1.35-1.76,0-6.72-.1-9.06-.1-2.17,0-6.78.07-8.88.1,0,.52,0,1,0,1.52,0,.34-.1.45-1.83.45-1.2,0-1.72-.07-1.72-.38v0c.38-5.4.42-11.19.42-13.64,0-2.65-.07-7.16-.31-12.22,0-.14,0-.28.2-.28H263c2.58.18,9.16.24,12,.24,3.1,0,9.26-.1,12-.34.27,0,.37.17.37.31V12c-.13,4.1-.17,7.64-.17,10.12,0,6.79.28,13.33.38,15.47a.44.44,0,0,1-.41.51c-.48,0-1.1,0-1.66,0-1.34,0-1.48-.11-1.48-.42ZM265.93,24.24c0,1,0,5,.11,9.27,2.1,0,6.71.07,8.92.07,2.37,0,7.54-.07,9.16-.07.1-4,.1-8.23.1-9.16,0-2.07-.07-9.75-.07-9.75s-6.51-.07-9.19-.07-9,.07-9,.07,0,4.86,0,7.85Zm13-8.71c0-.21,0-.34.17-.34s3.72.72,3.72,1.41c0,.27-.41.62-.65.93a4.28,4.28,0,0,0-.72,1.58,25.26,25.26,0,0,1-3.21,7.1c1.83.93,4.62,2.68,4.62,3.16a5.15,5.15,0,0,1-1.83,2.35.79.79,0,0,1-.48-.24,25.83,25.83,0,0,0-4.17-3,18,18,0,0,1-6.75,4.37.59.59,0,0,1-.27.11.31.31,0,0,1-.21-.11A8.53,8.53,0,0,0,266.73,31c-.21-.14-.28-.21-.28-.28s.17-.1.34-.13a14.52,14.52,0,0,0,7.13-3.34,46.43,46.43,0,0,0-5.51-2c-.2-.07-.31-.13-.31-.24s0-.1.07-.2.86-2,1.31-2a51.87,51.87,0,0,1,6.37,2.34,19,19,0,0,0,3.1-9.26Zm-8.54,6.72a.34.34,0,0,1-.17,0,.25.25,0,0,1-.24-.17,14.45,14.45,0,0,0-2.62-3.76c-.07-.1-.14-.17-.14-.24s.07-.13.17-.17a12.07,12.07,0,0,1,2.14-1c.48,0,3.2,3.2,3.2,3.68C272.75,20.9,272.17,21.32,270.41,22.25Zm4.13-1a.29.29,0,0,1-.27-.24,16.34,16.34,0,0,0-2-4.23.31.31,0,0,1-.11-.21c0-.24,2.28-.86,2.45-.86s.14.07.24.17c.45.59,2.37,3.55,2.37,4.1C277.19,20.28,274.82,21.21,274.54,21.21Z"/><circle class="cls-1" cx="24.93" cy="24.93" r="23.65"/><circle class="cls-1" cx="24.93" cy="24.93" r="19.08"/><polygon points="13.26 17.01 12.64 15.1 17 13.65 17.66 17.71 20.88 18.36 20.48 17 28.75 16.81 35.67 19.76 39.33 17.9 39.98 22.46 32.45 28.74 33.04 31.39 30.99 31.66 28.26 28.91 24.92 32.58 26.89 38.05 27.84 39.15 25 39.7 16.52 33.65 16.68 31.79 15.73 30.03 11.8 29.56 11.8 26.87 9.87 24.5 10.99 22.77 13.19 25.14 13.92 20.34 11.82 18.25 13.26 17.01"/></g></g></svg>