<svg xmlns="http://www.w3.org/2000/svg" viewBox="0 0 473.2 99.67"><defs><style>.cls-1{fill:#fff;stroke:#000;stroke-miterlimit:10;stroke-width:4.3px;}</style></defs><title>アセット 1</title><g id="レイヤー_2" data-name="レイヤー 2"><g id="レイヤー_1-2" data-name="レイヤー 1"><g id="レイヤー_2-2" data-name="レイヤー 2-2"><rect class="cls-1" x="2.15" y="2.15" width="468.9" height="95.37"/></g><path d="M149,67.13c.61-5.75,1-14.9,1.21-21.94-3.74,5.32-4.3,5.41-4.55,5.41a.73.73,0,0,1-.31-.09,12.06,12.06,0,0,0-3.82-1.24c-.25-.05-.47-.13-.47-.22s.09-.13.22-.26c7-5.62,12.79-16.14,13.13-19,.05-.22.05-.3.22-.3.39,0,4.81,1.54,4.81,2.44q0,.45-.9.9c-.6.31-.65.09-1,.73-.56,1-1.93,3.27-3.65,6,.34.09.64.22.82.26s.42.3.42.52a1.55,1.55,0,0,1-.42.86c-.61.64-.61,1-.65,2-.13,5.16-.34,11.85-.34,17.48,0,2.45,0,4.72.13,6.53,0,.21-.18.34-.43.34a12.53,12.53,0,0,1-2,.09c-2.19,0-2.41-.18-2.41-.43Zm33.11-5.67c-4.81-.3-8.07-.39-10.86-.39,0,1.81.17,3.83.34,6.1,0,.22,0,.35-.26.35a16.29,16.29,0,0,1-2.14.08c-2.19,0-2.19-.21-2.19-.38v-.13c.12-2.15.25-4.13.3-6-3.1,0-7.3.09-12.11.39h-.09c-.21,0-.38-.08-.38-.34a10.51,10.51,0,0,1,0-1.38,12.76,12.76,0,0,1,0-1.46c0-.3.12-.38.3-.38h.17c1.71.13,3.39.21,4.94.3,0-.69,0-1.33-.05-2.11l-2.7.18c-.48,0-.56-.13-.56-1.68,0-1.84,0-1.84.56-1.84,4.59.34,7.43.38,9.83.38,0-.77,0-1.46-.13-2.06l-3.86.09c0,.08,0,.21,0,.3,0,.43,0,.64-2.15.64s-2.19-.08-2.19-.43a1.29,1.29,0,0,0,0-.26,32.46,32.46,0,0,0,.25-4c0-1.16,0-.69-.17-3.48,0-.13,0-.21,0-.3s.08-.17.34-.17h.26c1.67.13,6.27.17,8.37.17s5.84,0,8.42-.17h.17c.26,0,.3.08.3.26v.17c-.08,1-.08,1.8-.08,2.49s0,1.72.21,4.51v.21c0,.43-.3.52-2.88.52-1.2,0-1.37-.09-1.37-.43-.3,0-.65,0-1,0,.17,0,.21.13.21.26s-.08.3-.34.47a.74.74,0,0,0-.3.65c0,.21,0,.43,0,.64,1.8,0,3.09,0,7.64-.38a.42.42,0,0,1,.47.38c0,.35,0,1,0,1.68,0,1.37-.08,1.5-.51,1.5-4.47-.3-5.88-.39-7.69-.39v2.36c2.88,0,6,0,10.91-.38h.09a.37.37,0,0,1,.34.38,14.45,14.45,0,0,1,.08,1.59,11,11,0,0,1-.08,1.33c0,.13-.22.26-.34.26Zm.17-22.58c.3,0,.39,0,.39,2a8.45,8.45,0,0,1-.05,1.25.42.42,0,0,1-.42.26C176.85,42,171.31,42,168.39,42c-2.75,0-6.87,0-12.41.39-.43,0-.51,0-.51-1.68s0-1.8.34-1.8H156c2.92.21,5.41.3,7.52.34l.6-2.14c-1.16,0-2.66.12-4.64.3-.34,0-.47-.13-.47-2,0-.47,0-.9,0-1.16,0,0,0-.3.52-.3,2.36.22,4,.3,5.19.34a18.38,18.38,0,0,0,.52-4v-.43c0-.3,0-.34.38-.34,1,.08,5.29.81,5.29,1.54,0,.34-.48.77-1,1.07s-.73.43-1.2,2.19c1.8,0,4.5-.08,7-.25h.18c.21,0,.3,0,.3.17s-.05.08-.05.17a20.62,20.62,0,0,0-.43,4.81c2,0,4.17-.13,6.45-.34Zm-9.4,7.51-5,0c-1.38,0-4.68,0-4.68,0s0,.52,0,1v1c1.25,0,3.87,0,4.73,0s3.69,0,5,0Zm-5.54,9.53h-2.84c0,.17-.21.3-.38.43a.71.71,0,0,0-.26.56c0,.39,0,.9,0,1.37h3.44Zm.69-18.8c-.18.73-.39,1.5-.52,2.14h4.38c0-.81,0-1.5,0-2.14Z"/><path d="M211.64,36.9c0,11.12,7.21,21.6,19,26,.21.08.43.17.43.3s-.13.21-.52.39A23.17,23.17,0,0,0,225.89,66a.67.67,0,0,1-.39.13c-.68,0-11.46-5.67-15.88-18.76-4.55,14.17-15.2,19-15.46,19a.52.52,0,0,1-.39-.17c-1-1.08-3.73-2.06-4.76-2.45-.39-.17-.56-.26-.56-.34s.21-.17.43-.26c12.79-4.47,18.33-15.07,18.33-27.52a14.79,14.79,0,0,0-.34-3.48.91.91,0,0,1,0-.3c0-.13,0-.22.25-.22.61,0,5.8.69,5.8,1.63,0,.39-.43.86-.73,1.38a4.09,4.09,0,0,0-.51,1.46Z"/><path d="M272.91,50.81c-.94,0-7.34-.43-17.09-.43h-3c-3.48,0-7.69.09-14.17.43h-.13c-.26,0-.52-.08-.52-.38s-.08-1.12-.08-1.89c0-2.67.13-2.84.51-2.84h.22c8.46.48,13,.48,17.17.48,4.34,0,8.85,0,17.09-.48H273a.51.51,0,0,1,.51.48c.05.38.05,1.28.05,2.14s0,1.76-.05,2.19a.49.49,0,0,1-.51.3Z"/><path d="M312.55,60.22c0,.21-.26.34-.52.34-.6,0-1.37,0-2.06,0a13,13,0,0,1-1.33,0c-.34,0-.6,0-.6-.3s0-.52,0-.77c-.43,0-.94-.05-1.59-.05a24.22,24.22,0,0,0-.12,3.27c0,1.07.9,1.41,5.23,1.41,6.44,0,6.53-.34,6.7-4.51,0-.12,0-.21.13-.21s.13.09.22.17a12.48,12.48,0,0,0,3.73,2.79c.22.09.34.17.34.39a2,2,0,0,0,0,.21c-1.07,3.74-3.09,4.47-11.33,4.47-7.78,0-8.93-1.42-8.93-3.44v-.47c.08-1,.08-1.2.12-3.26V59.4H299c.09,0,2.4,1.38,2.4,1.76s-.34.43-.85.52c-.78.13-1.59,1.16-2.07,1.63-3.6,3.6-11.33,5.37-14.47,5.37a.78.78,0,0,1-.68-.35,16.82,16.82,0,0,0-2.41-2.75c-.21-.21-.3-.34-.3-.38s.09-.13.22-.13.26,0,.38,0c.6,0,1.25.09,1.81.09,6.05,0,12.11-2.28,13.82-5.76h-1.29a8.76,8.76,0,0,0,.09,1c0,.31-.09.39-2.27.39-1.85,0-2.24-.08-2.24-.34a46.34,46.34,0,0,0,.56-7.26,53.51,53.51,0,0,0-.39-6.44c0-.13.18-.26.48-.26,3.35.17,7.08.22,10.22.22,3.43,0,6.18-.05,9.79-.26.43,0,.55.17.55.3-.21,2.49-.25,4.17-.25,6.44a59.68,59.68,0,0,0,.47,6.91ZM289,45.06c0,.77,0,1.46.08,1.76v0c0,.35-1.33.35-1.89.35-1.76,0-1.8-.13-1.8-.3v-.09c0-.47.3-4.17.3-10,0-2.32-.13-5.24-.26-6.1a.35.35,0,0,1,0-.17c0-.13.08-.18.38-.18,2.84.22,6.19.26,7.3.26s6.14-.13,8.46-.3c.43,0,.48,0,.48.9a17,17,0,0,1-.05,1.72c0,.22-.17.26-.3.26-1.5-.13-3.91-.17-5.79-.22,0,.13-.18.22-.35.3a.46.46,0,0,0-.21.39v1.25c1.29,0,2.7,0,4.94-.13h.12c.13,0,.18,0,.18.17v.08c-.09,1-.18,2.32-.18,3.53a13.91,13.91,0,0,0,.18,2.53s0,.13,0,.17c0,.22-.17.26-1.72.26-.56,0-1.12,0-1.37,0s-.35-.13-.35-.39.05-.26.05-.43c-.39,0-.9,0-1.38,0a.88.88,0,0,1-.3.25.44.44,0,0,0-.21.35c0,.47,0,1.07,0,1.54,2.19,0,4.85,0,6.91-.25a.29.29,0,0,1,.3.3,5.71,5.71,0,0,1,0,1,7,7,0,0,1,0,1.11c0,.13-.25.22-.34.22-1.24-.09-1.89-.13-9.58-.13ZM289,33a18.44,18.44,0,0,0-.05,1.89c1,0,2.28,0,3.09,0,0-.56,0-1.16,0-1.94Zm8.28,3.95s-1.89,0-3.56,0h-1.16c-1.16,0-2.45,0-3.61,0,0,.48.05,1,.05,1.25v.47c1.11,0,2.57,0,3.52,0,1.16,0,3.43,0,4.76,0ZM292,42.78c0-.6,0-1.33,0-2.14-1,0-2.06,0-3,0v2.1ZM308.3,52.4c-1.25,0-3.91-.08-6.27-.08s-5.11,0-6.7.08c0,.3,0,.6,0,.9v.43c1.63,0,4.47.05,6.62.05,2.4,0,5.11-.05,6.31-.05ZM302,49c-3,0-6.57.08-6.57.08s-.05.52-.05,1.25c1.63,0,4.47,0,6.62,0,2.4,0,5,0,6.26,0,0-.69,0-1.25,0-1.25S305,49,302,49Zm0,6.78c-2.23,0-5.07,0-6.66.09,0,.43.05.94.05,1.46,1.63,0,4.42,0,6.57,0,2.4,0,5,0,6.26,0,0-.6.05-1,.05-1.46C307.05,55.79,304.39,55.75,302,55.75Zm9.57-22c1.68,0,4.86-.08,7.35-.34.3,0,.47.17.47,1.93a13,13,0,0,1-.09,1.63c0,.18-.25.26-.38.26-3.27-.3-7.35-.34-8.33-.34-1.21,0-3.05.08-4.64.08-.65,1-1.33,1.89-1.8,2.49a.49.49,0,0,1-.35.13,1.46,1.46,0,0,1-.34-.08,7.93,7.93,0,0,0-2.66-1.29c-.22-.09-.39-.13-.39-.22s0-.12.13-.21c2.62-2.53,5.24-7.26,5.49-8.63.05-.17.09-.3.22-.3s3.65,1.59,3.65,2.4c0,.26-.26.52-.86.86-.34.17-.21,0-.6.73l-.47.86c1,0,2.06,0,2.66,0ZM318.13,40c.26,0,.43.22.43,1.89a13.56,13.56,0,0,1-.09,1.59c0,.17-.25.26-.38.26a60.55,60.55,0,0,0-6.06-.3,68.23,68.23,0,0,0-7.85.3.46.46,0,0,1-.48-.35c0-.3,0-.9,0-1.5,0-1.46,0-1.89.39-1.89h.13a68.61,68.61,0,0,0,7.08.3,53.15,53.15,0,0,0,6.83-.3Z"/></g></g></svg>