<svg xmlns="http://www.w3.org/2000/svg" viewBox="0 0 1098.81 810.32"><defs><style>.cls-1{fill:#c6d443;}.cls-2,.cls-7{fill:#fff;}.cls-2{stroke:#000;stroke-width:4.3px;}.cls-2,.cls-6{stroke-miterlimit:10;}.cls-3{fill:#30c0a9;}.cls-4{fill:#d43a52;}.cls-5,.cls-6{fill:none;}.cls-5{stroke:#b3b3b3;stroke-linecap:round;stroke-linejoin:round;stroke-width:3px;}.cls-6{stroke:#ccc;}.cls-8{opacity:0.2;}</style></defs><title>アセット 49</title><g id="レイヤー_2" data-name="レイヤー 2"><g id="レイヤー_1-2" data-name="レイヤー 1"><rect class="cls-1" x="92.57" width="99.33" height="38.5"/><rect class="cls-2" x="2.15" y="38.5" width="1069" height="738.49"/><rect class="cls-3" x="46.49" y="19.84" width="99.33" height="38.5"/><rect class="cls-2" x="27.66" y="58.34" width="1069" height="738.49"/><rect class="cls-4" x="177.52" y="31.18" width="99.33" height="38.5"/><rect class="cls-2" x="16.32" y="69.68" width="1069" height="738.49"/><path d="M431,268.94c-29.94-2.28-37.35-22.2-37.35-29.15,0-5.46,3.42-10.13,14.58-10.13a236.22,236.22,0,0,1,31.88,2.73h.57c.45,0,.91-.11.91-.45,0-.8-3.07-5.81-12.87-21.18a69.11,69.11,0,0,1-11.5,1c-8.08,0-13-2.05-19.13-6.6-1.13-.69-1.25-1.14-1.25-2.05v-.34c0-1.94,1-10.48,2.39-10.48a1.79,1.79,0,0,1,1.26.8c6.6,6.72,11.72,9.68,19.35,9.68.69,0,1.37-.12,2.05-.12s1.14-.11,1.71-.11c-.46-.91-3.64-6.6-3.64-8.08,0-.57.34-1.14,7.17-1.14,1.59,0,3.07,0,4.21.11,2.51.11,1.71,2.28,2.17,5.69,0,.35.11.69.11,1.14l1-.45c.92-.34.46-3.42,1.71-3.42h.12c1.82.34,2.61.8,3.87.8h.45c2.74,0,2.74.11,2.74,6.26,0,1.14,0,1.94-6.72,4.9,3.75,7.28,9.79,15.82,15.25,23.22,2.51,3.53,3.42,4.9,3.42,6a2.48,2.48,0,0,1-.8,1.93c-1.7,1.71-4.89,3.08-6.94,4.44a3.14,3.14,0,0,1-1.48.35,1.86,1.86,0,0,1-.8-.12c-3.53-1-2.73-1-6.72-2.16-10-3.08-23.91-4.33-30.06-4.33-4.1,0-5.58,1.25-5.58,3.19,0,3,7.18,17.31,32,17.31a53.82,53.82,0,0,0,6-.23h.46c.57,0,.8.11.8.34a3.34,3.34,0,0,1-.57,1.14c-1.26,2.05-5.47,5.24-6.61,7.17a3.69,3.69,0,0,1-3.64,2.28Z"/><path d="M503.71,265c-2.28-.12-10.13-1.49-10.13-3.31a1.63,1.63,0,0,1,.57-.91A186.14,186.14,0,0,0,512.71,240a46.67,46.67,0,0,1-.8-5.92,2,2,0,0,1,.57-1.59c1.48-1.14,2.84-3.31,4.44-5a1.07,1.07,0,0,1,.57-.34c.34,0,.45.46.57,1.26.11,1.59.22,3,.45,4.32,3-3.87,5.81-7.74,8.54-11.5-3.07.91-5.46,2.05-7.74,2.74-3.19,1-6.26,2.16-10.7,2.16h-1.14a2.77,2.77,0,0,1-2.17-1.37c-1.36-2.39-3.53-7.06-3.53-8.77,0-.45.23-.68.46-.68s.34.12.57.12a50.21,50.21,0,0,0,7.74.91,34.93,34.93,0,0,0,6.95-.91c4.55-.8,9.68-2.17,15.82-3.19l5.24-7.63a1.78,1.78,0,0,0,.34-.91c0-.34-.11-.46-.45-.46a2.73,2.73,0,0,0-1.48.57c-.57.46-1.48,1.25-2.51,1.94a.41.41,0,0,1-.34.11c-.23,0-.34-.11-.45-.45a27.07,27.07,0,0,0-.91-3.08,3,3,0,0,1-.12-1,1.21,1.21,0,0,1,.23-.91c3.76-3.08,6.94-4.67,9.45-4.67,5,0,5.58,7.06,5.58,9.22,0,3.07-1.25,3-2.62,4.56l-2.16,2.5c4.89,1.59,8,6.83,8,19.36,0,18.1-9,30.85-20.16,30.85-3,0-10.93-.91-15.25-12.07C505.53,265,505.53,265,503.94,265ZM520.9,242.3c1.14,2.84,4.33,9.56,9.8,9.56,6.94,0,10.81-11.61,10.81-22.2,0-8-1.14-9.91-4.67-9.91C531,227.27,525.91,234.78,520.9,242.3Zm60.81,2.27c-.35,0-.69-.22-.92-.91-4.44-13.2-15.94-18.78-23.68-20.15-.8-.11-1-.46-1-.8s3.53-5.92,5.46-5.92c1.25,0,21.41,3.65,29.26,21.07a3.26,3.26,0,0,1,.23.91C591,239.91,583.64,244.57,581.71,244.57ZM572,215.08a1.2,1.2,0,0,1-1.14-.91,132.25,132.25,0,0,0-9.79-14,.67.67,0,0,1-.12-.46c0-1.14,4.1-3.64,5.81-3.64.23,0,.46.23.8.57,3.53,3.41,10.47,12.41,10.47,14S573.28,215.08,572,215.08Zm2.27-18.67a.64.64,0,0,1-.22-.57c0-1,3.18-2.73,4.78-3.53a3,3,0,0,1,.8-.23c.22,0,.45.23.79.57,0,0,11,11.5,11,13.78,0,1.59-4.9,4.1-5.47,4.33a1.48,1.48,0,0,1-.68.11c-.34,0-.68-.23-.91-.8C582.16,206.2,576.47,199,574.3,196.41Z"/><path d="M648.53,236.6a2.47,2.47,0,0,0-1.7.69c-4.56,4.21-13.21,19.81-17.77,27.1a1.07,1.07,0,0,1-.91.68c-1.59,0-9.45-5.24-9.45-6.72a3.71,3.71,0,0,1,1.14-2.05c17.08-20.38,37-49.87,53.29-63.08.57-.45,1-.91,1.59-.91.8,0,9,5.13,9,6.83a1.41,1.41,0,0,1-.69,1.14c-11.95,7.29-28.57,25.17-28.57,26.3,0,.46.22.57.56.69a5.24,5.24,0,0,1,3.19,4.55c.57,17.31,6.72,23.68,14.46,23.68,12.41,0,28.7-16.16,33.36-30.28.35-1.14.8-1.6,1.14-1.6.57,0,1,.69,1.37,1.6.68,1.71,1.48,5.35,3.3,6.72a1.46,1.46,0,0,1,.46,1.13c0,5-19,33.82-41.22,33.82-10.82,0-19.81-8-21.52-29.26A1,1,0,0,0,648.53,236.6Z"/><path d="M398.06,302.56c-17-.8-28.35-.91-34.5-.91-5.92,0-23.8.11-28.47.11.12,3.64.23,7.29.23,11.16,6.26.57,9,.68,11.5.68a69.15,69.15,0,0,0-1.14-9.56v-.34a.3.3,0,0,1,.34-.34h.23c5.24.34,10,1.13,10,2.39a6.06,6.06,0,0,1-1.25,2.39c-.8,1-.8,1.48-.91,3a12.88,12.88,0,0,0-.23,2.5,89.28,89.28,0,0,0,10.25-.91h.23a.85.85,0,0,1,.79.8,21.89,21.89,0,0,1,.12,3.19,26.43,26.43,0,0,1-.12,3.3c0,.34-.68.57-1,.57-5-.46-7.52-.68-10.59-.8v.12l.57.45a63.65,63.65,0,0,0,10.81,5.81c.57.23.8.45.8.79a1,1,0,0,1-.34.69c-.46.68-3.3,3.07-4.21,4.44-.23.45-.34.79-.69.79-.68,0-3.3-1.93-6.83-5.57.23,5.57.69,13.09,1.26,18.21v.12a1.15,1.15,0,0,1-.69.79c-1.14.12-3,.12-4.67.12-3.64,0-4-.23-4-1.14.68-6.15,1.14-12.07,1.37-16.74-4.33,8.88-7.75,12.53-8.54,12.53a.62.62,0,0,1-.57-.23,15.08,15.08,0,0,0-4.33-2.16c-3.76,24.25-14.12,39.73-15.83,39.73a2.13,2.13,0,0,1-1.25-.45c-1.59-1-6.49-2.17-9.45-2.73-.57-.12-.91-.35-.91-.57s.23-.46.57-.8c14.57-13.44,18.44-39.17,18.44-59.09a126.66,126.66,0,0,0-1.7-21.64,2.12,2.12,0,0,1-.12-.8c0-.45.23-.56.69-.56h.68c7.51.79,23.8,1,34,1h5c16.63,0,27.67-.57,34.39-1h.23a1,1,0,0,1,1.13,1c.12,1.14.12,2.73.12,4.33s0,3.18-.12,4.32a1.12,1.12,0,0,1-1.13,1Zm4.33,65.58c.68,0,.79.46.79,1a43.16,43.16,0,0,1,.23,4.66c0,4.1-.46,4.22-1.14,4.22-16.74-.57-23.34-.91-35.75-.91-13.21,0-18.79.34-35.87.91-1.48,0-1.59-.12-1.59-4.9,0-1.71.11-3.41.11-4,.23-.8.23-1,1-1h.45l13.55.8c0-1,.12-1.94.12-2.39,0-8.54-.35-11.16-1-14.69v-.46c0-.45.12-.45.8-.45,11,1.14,12.18,2.28,12.18,3.42,0,.91-1,2.16-1.59,3.18-1,2.28-1.37,5-1.37,9v2.62H362v-2.74a141.72,141.72,0,0,0-1.13-21.4v-.69c0-.22,0-.22.22-.22h.46c2.28.11,12.64,1.48,12.64,3.64,0,.8-.8,1.82-1.48,3.07a9.25,9.25,0,0,0-1,4.22h3A129.31,129.31,0,0,0,390,353.91h.23c.69,0,1,.57,1.14,1.14a37.91,37.91,0,0,1,.11,3.87c0,1.59,0,3.07-.11,4.1a1,1,0,0,1-1,.68H390c-6-.34-10.13-.91-15.37-.91h-3.18v6.38c9.22,0,16.28-.12,30.74-1Zm-56.82-48.5c-2.28.11-5,.23-10.48.79-.11,4.56-.45,9.34-1,14C339.42,329.77,343,324.19,345.57,319.64Zm51.69-6.95a.86.86,0,0,1,.8.8,23.86,23.86,0,0,1,.11,3.19,28.81,28.81,0,0,1-.11,3.3c0,.34-.68.57-1,.57-6.14-.57-8.65-.8-11.15-.91,2.61,3,10.93,11.84,22.31,15.94.34.11.57.34.57.45s-.34.46-.68.69c-1.94,1.25-5.81,3-7.06,4.44a1.73,1.73,0,0,1-1.14.68c-1.48,0-7.63-4.55-15.26-14.69.23,5.58.69,13.21,1.37,18.33a1.31,1.31,0,0,1-.68.91c-1.14.12-3,.12-4.79.12-3.3,0-4-.12-4-1.14.8-6.38,1.25-12.41,1.37-17.08A92,92,0,0,1,368,340.93a1.4,1.4,0,0,1-.91.45.84.84,0,0,1-.68-.22c-1.26-1.14-5.47-2.62-7.29-3.08-.46-.11-.8-.22-.8-.45s.12-.34.46-.46c8-4.33,14.23-11.95,18-17.42-2.39.12-4.9.46-8.2.8-1.25,0-1.25-1.25-1.25-3.87,0-3.76.34-4,.91-4h.34c3.64.46,6.37.8,9.22.91a54.16,54.16,0,0,0-1-9.56v-.34a.3.3,0,0,1,.34-.34h.23c7.62.56,10,1.25,10,2.39,0,.57-.69,1.36-1.37,2.39s-.8,1.48-.91,3c-.12.57-.12,1.48-.23,2.5,3,0,5-.23,12.18-.91Z"/><path d="M538.9,369.51c.22,0,.45.11.45.34a1.49,1.49,0,0,1-.34.8c-1.48,1.71-5.92,6-7.51,9.79a1.73,1.73,0,0,1-1.6,1c-1.14,0-2.16.12-3.3.12-21.06,0-37.92-7.4-48.62-16.17-6.94,7.29-17.65,13.66-34,17.31a3,3,0,0,1-1.14.22,1.27,1.27,0,0,1-.91-.34c-2.62-3.3-6.72-5.8-9.23-7.4a.81.81,0,0,1-.45-.68c0-.23.23-.34.57-.46,19.47-2.16,31.08-8.42,38-15.82a36.31,36.31,0,0,1-3.87-5.81,55.83,55.83,0,0,0-4.79,8c-.34.91-.34,1.93-1.13,1.93-1.26,0-7.41-4.09-8.66-5.35-.11-.22-.23-.34-.23-.57a.94.94,0,0,1,.35-.68c13.09-10.59,12.41-10.82,13.09-14.23.23-1.37,1-1.37,2.05-1.37,5,0,5.81.91,5.81,2.28v.34a7.48,7.48,0,0,0-.23,2.05,7.67,7.67,0,0,0,.45,2.73,30.41,30.41,0,0,0,2.28,3.65,42.42,42.42,0,0,0,4.56-13.89c-6.38.11-13.44.22-17.54.22l.23,3.53v.23c0,.8-.57,1-5.58,1-3.07,0-5.35-.12-5.35-1v-.11a103.2,103.2,0,0,0,.91-15.72,132.36,132.36,0,0,0-.91-18.56v-.11c0-.45.57-.8,1.14-.8,7.06.57,18.33.8,27.55.8a127.7,127.7,0,0,0-1.25-17.42,1.9,1.9,0,0,1-.12-.68c0-.34.12-.34.35-.34A81.44,81.44,0,0,1,493,289.92c1,.34,1.48.8,1.48,1.37,0,1-1.37,2.62-2.16,5-.57,1.48-.8,5.12-1,10.47,9.79-.11,20.95-.57,28.24-1h.23a1,1,0,0,1,.91.91v.22c-.12,1.26-.57,7.52-.57,18.79,0,6.38.57,9.57.91,15.49v.22c0,1.26-.57,1.37-6.49,1.37-3.87,0-4.55-.34-4.55-1.37,0-1.25.11-2.61.22-3.75l-19.47-.34a49.73,49.73,0,0,1-7.4,21.29c8,6.15,20.95,12.07,40,12.07a106,106,0,0,0,15.37-1.14Zm-57.85-54.43c-8.53.12-18.33.23-18.33.23s-.11,5.47-.11,10.25c0,.91,0,1.93.11,3.19,4.1,0,11.62.22,18.33.22Zm29.49,11.16c0-6.15-.22-10.93-.22-10.93s-10.25-.11-19.13-.23V329c7.51,0,15.94-.22,19.35-.22Z"/><path d="M599.12,353.11c0,.8-.11,1.48-29.26,14.46-1.25.46-2.28,1.94-3.3,1.94-1.6,0-7.86-10-7.86-10.36s.46-.57,1.14-.69c3.3-.22,10-2.39,17-5,.12-8.54.35-20.83.35-22.77v-3.19l-11.62.46h-.23a1.08,1.08,0,0,1-.91-.8c0-.91-.11-2.62-.11-4.21s.11-3.3.11-4a1.12,1.12,0,0,1,1.14-1c3.76.45,7.74.8,11.62.91,0-8.88-.12-19.81-1.26-25.85v-.34c0-.45.23-.68.8-.68s13.43,1.37,13.43,4.1c0,1.14-1.36,2.73-2,4.1s-.69,1.82-1.14,18.67c3.3-.11,5.92-.46,10-.91a1.12,1.12,0,0,1,1.14,1c.11.92.11,2.85.11,4.79,0,4-.23,4.21-1,4.21H597c-4.22-.12-6.84-.34-10.14-.46v3.19c0,1.48.12,11.62.12,18.9,5-1.93,9.11-3.64,11.16-4.55a1.67,1.67,0,0,1,.57-.23c.22,0,.22.34.22,1,0,5.92.12,6.49.23,7.05Zm32,4.9c0,1-1.37,1-5.93,1-4.32,0-4.89-.22-4.89-1.48.45-6,.68-19.13.8-26.64-1.94.8-5,2.28-8.54,4-.12,10.14-.23,21.52-.23,27.33,0,8.31,0,8.77,17.19,8.77a149,149,0,0,0,18.1-.91c4.1-.8,5.7-7.52,5.7-13,0-2.05.34-2.05.45-2.05a1.49,1.49,0,0,1,.8.45c1.94,2.05,4.78,6,8.54,7.4a2,2,0,0,1,1.59,1.71c0,2.05-1.7,13.67-15.48,15.37-3.87.57-11.05.69-18,.69-20.38,0-28.92-.46-28.92-12.3v-1.82c.11-1.71.34-14.23.45-26.76-2.84,1.37-5.58,2.85-7.74,4a1.68,1.68,0,0,1-.8.22,1.15,1.15,0,0,1-.91-.57,49.73,49.73,0,0,1-3-8.08c0-.68.46-.91,1-1.14,3.53-1.14,7.51-2.62,11.38-4.21v-6.95c0-11,0-15-.79-18a2.68,2.68,0,0,1-.12-.91c0-.57.23-.68.91-.68,2.17,0,13.21,2.28,13.21,4.1,0,1.14-1.71,2.5-2.62,3.87-.23.45-.45,1.37-.45,4.55-.12,1.37-.23,5-.23,9.8l6-2.74,2.51-1.14c0-15.59,0-26.41-1.14-31.42a4.45,4.45,0,0,1-.11-1.14c0-.45.11-.68.91-.68,1.25,0,13.09,1.93,13.09,4,0,.91-1,1.94-1.59,2.62-1.14,1.37-1.71,3-1.71,22.2l8.2-4c2.16-1,1.93-3.3,3.64-3.3,1.37,0,9.45,1.93,9.45,4,0,1.37-1.48,3.08-1.48,4.33-.23,8.65-.34,18.9-.91,22.66-1.14,8.31-3.64,13.32-13,13.77a2.1,2.1,0,0,1-1.93-1.7c-.57-2.28-2-4.44-3.88-7.06l.35,11.5Zm-.46-31.43c0,4,0,10.71.11,17.42a34.33,34.33,0,0,0,4.79.69c2.5,0,4.78-1.37,4.78-18.22,0-1.6,0-3.08-.12-4.21Z"/><path d="M766.26,380.1c0-1.48.11-3,.11-4.44-5.8-.12-22.2-.34-29.94-.34-7.17,0-22.43.22-29.38.34,0,1.71,0,3.3.12,5,0,1.14-.34,1.48-6,1.48-4,0-5.69-.23-5.69-1.26v-.11c1.25-17.88,1.37-37,1.37-45.09-.12-8.77-.23-23.68-1-40.42,0-.45.11-.91.68-.91h.23c8.54.57,30.29.8,39.63.8,10.24,0,30.62-.34,39.73-1.14.91,0,1.25.57,1.25,1v.23c-.45,13.55-.56,25.28-.56,33.48,0,22.43.91,44.06,1.25,51.12a1.5,1.5,0,0,1-1.37,1.71c-1.59.11-3.64.11-5.46.11-4.44,0-4.9-.34-4.9-1.36Zm-59.78-44.18c0,3.3.12,16.51.35,30.63,6.94.11,22.2.23,29.49.23,7.85,0,24.93-.23,30.28-.23.34-13.32.34-27.22.34-30.29,0-6.83-.22-32.22-.22-32.22s-21.52-.23-30.4-.23-29.72.23-29.72.23-.12,16-.12,26Zm43-28.81c0-.68,0-1.14.57-1.14.12,0,12.3,2.4,12.3,4.67,0,.91-1.37,2.05-2.16,3.08a14.93,14.93,0,0,0-2.4,5.23c-1.59,4.79-4.09,14.12-10.58,23.46,6,3.07,15.25,8.88,15.25,10.47,0,1.94-5.12,7.75-6,7.75a2.61,2.61,0,0,1-1.6-.8,86.38,86.38,0,0,0-13.77-9.91,59.64,59.64,0,0,1-22.32,14.46,2.12,2.12,0,0,1-.91.35,1,1,0,0,1-.68-.35c-1.94-2.84-6-4.89-8.09-6.26-.68-.45-.91-.68-.91-.91s.57-.34,1.14-.45a48,48,0,0,0,23.57-11.05A154.54,154.54,0,0,0,714.68,339c-.68-.22-1-.45-1-.79a4.67,4.67,0,0,1,.22-.69c.12-.22,2.85-6.6,4.33-6.6a170.13,170.13,0,0,1,21.07,7.74c7.74-11,10.24-25.62,10.24-30.63Zm-28.23,22.21a1.08,1.08,0,0,1-.57.11.85.85,0,0,1-.8-.57c-1.71-4.9-7.74-11.39-8.65-12.41-.23-.34-.46-.57-.46-.8s.23-.45.57-.57c.8-.45,6-3.19,7.06-3.19,1.59,0,10.59,10.59,10.59,12.19C729,324.87,727.09,326.24,721.29,329.32ZM735,325.9a1,1,0,0,1-.91-.8c-.91-4.78-5.92-12.86-6.72-14a1,1,0,0,1-.34-.69c0-.79,7.51-2.84,8.08-2.84.23,0,.46.23.8.57,1.48,1.93,7.86,11.73,7.86,13.55C743.72,322.83,735.86,325.9,735,325.9Z"/><line class="cls-5" x1="825.94" y1="388.3" x2="853.22" y2="395.61"/><line class="cls-5" x1="881.75" y1="378.08" x2="908.34" y2="382.77"/><line class="cls-5" x1="830.22" y1="368.99" x2="873.78" y2="376.67"/><line class="cls-5" x1="832.8" y1="349.39" x2="896.9" y2="355"/><line class="cls-5" x1="933.57" y1="329.64" x2="936.09" y2="329.64"/><line class="cls-5" x1="833.66" y1="329.64" x2="927.82" y2="329.64"/><line class="cls-5" x1="910.34" y1="303.1" x2="912.71" y2="302.89"/><line class="cls-5" x1="898.3" y1="304.15" x2="905.51" y2="303.52"/><line class="cls-5" x1="832.8" y1="309.88" x2="893.32" y2="304.67"/><line class="cls-5" x1="830.22" y1="290.28" x2="872.94" y2="282.75"/><line class="cls-5" x1="894.74" y1="252.54" x2="924.88" y2="244.46"/><line class="cls-5" x1="825.94" y1="270.97" x2="887.41" y2="254.5"/><line class="cls-5" x1="820" y1="252.11" x2="883.06" y2="229.16"/><line class="cls-5" x1="275.7" y1="388.3" x2="248.43" y2="395.61"/><line class="cls-5" x1="271.43" y1="368.99" x2="193.3" y2="382.77"/><line class="cls-5" x1="213.66" y1="354.22" x2="204.74" y2="355"/><line class="cls-5" x1="268.84" y1="349.39" x2="223.58" y2="353.35"/><line class="cls-5" x1="267.98" y1="329.64" x2="165.55" y2="329.64"/><line class="cls-5" x1="210.74" y1="304.8" x2="188.94" y2="302.89"/><line class="cls-5" x1="216.77" y1="305.33" x2="216.77" y2="305.33"/><line class="cls-5" x1="268.84" y1="309.88" x2="223.83" y2="305.94"/><line class="cls-5" x1="271.43" y1="290.28" x2="228.71" y2="282.75"/><line class="cls-5" x1="178.27" y1="244.87" x2="176.77" y2="244.46"/><line class="cls-5" x1="275.7" y1="270.97" x2="185.85" y2="246.89"/><line class="cls-5" x1="281.65" y1="252.11" x2="218.58" y2="229.16"/><circle class="cls-6" cx="550.32" cy="136.34" r="28.34"/><circle class="cls-6" cx="550.32" cy="136.34" r="22.12"/><rect class="cls-7" x="482.23" y="126.31" width="150.01" height="17.97"/><g class="cls-8"><path d="M480.29,136.51l-1-.6a4.48,4.48,0,0,1-1.31-1.12,2.1,2.1,0,0,1-.4-1.26,2.2,2.2,0,0,1,.75-1.73,2.72,2.72,0,0,1,1.92-.67,3.6,3.6,0,0,1,2.08.64v1.47a3,3,0,0,0-2.1-.94,1.81,1.81,0,0,0-1.05.29.9.9,0,0,0-.4.75,1.15,1.15,0,0,0,.3.76,3.72,3.72,0,0,0,1,.75l1,.58A2.9,2.9,0,0,1,482.7,138a2.29,2.29,0,0,1-.73,1.77,2.69,2.69,0,0,1-1.89.68,4,4,0,0,1-2.45-.82v-1.65a3,3,0,0,0,2.43,1.33,1.51,1.51,0,0,0,1-.34,1.05,1.05,0,0,0,.4-.85C481.48,137.52,481.08,137,480.29,136.51Z"/><path d="M488.6,131.2h.92l4.05,9.1h-1.32L491,137.62h-3.86l-1.13,2.68h-1.33Zm1.91,5.26-1.46-3.28-1.36,3.28Z"/><path d="M500.65,135.84h3v3.84a8.36,8.36,0,0,1-3.32.72,4.92,4.92,0,0,1-3.59-1.31,4.34,4.34,0,0,1-1.35-3.24,4.5,4.5,0,0,1,1.4-3.37,4.8,4.8,0,0,1,3.49-1.35,6.19,6.19,0,0,1,1.45.17,12.08,12.08,0,0,1,1.73.6v1.32a6.43,6.43,0,0,0-3.21-.94,3.42,3.42,0,0,0-2.5,1,3.59,3.59,0,0,0,0,5,3.63,3.63,0,0,0,2.62,1,6,6,0,0,0,1.86-.35l.12,0V137h-1.74Z"/><path d="M509.79,131.2h.91l4.06,9.1h-1.32l-1.21-2.68h-3.86l-1.13,2.68h-1.33Zm1.91,5.26-1.46-3.28-1.36,3.28Z"/><path d="M528.47,131.25h1.3v9.05h-1.3v-3.94h-5.08v3.94h-1.3v-9.05h1.3v3.91h5.08Z"/><path d="M533.76,131.25h1.3v9.05h-1.3Z"/><path d="M541.3,136.51l-1-.6a4.48,4.48,0,0,1-1.31-1.12,2.1,2.1,0,0,1-.4-1.26,2.2,2.2,0,0,1,.75-1.73,2.72,2.72,0,0,1,1.92-.67,3.6,3.6,0,0,1,2.08.64v1.47a3,3,0,0,0-2.1-.94,1.81,1.81,0,0,0-1,.29.9.9,0,0,0-.4.75,1.15,1.15,0,0,0,.3.76,3.72,3.72,0,0,0,1,.75l1,.58a2.9,2.9,0,0,1,1.66,2.52,2.29,2.29,0,0,1-.73,1.77,2.69,2.69,0,0,1-1.89.68,4,4,0,0,1-2.45-.82v-1.65a3,3,0,0,0,2.43,1.33,1.51,1.51,0,0,0,1-.34,1.05,1.05,0,0,0,.4-.85C542.49,137.52,542.09,137,541.3,136.51Z"/><path d="M546,131.24h7.56v1.15h-3.15v7.91h-1.3v-7.91H546Z"/><path d="M560.37,131.12a4.88,4.88,0,0,1,3.5,1.33,4.42,4.42,0,0,1,1.39,3.33,4.34,4.34,0,0,1-1.41,3.31,5,5,0,0,1-3.55,1.31,4.75,4.75,0,0,1-3.41-1.31,4.38,4.38,0,0,1-1.36-3.29,4.47,4.47,0,0,1,1.37-3.35A4.78,4.78,0,0,1,560.37,131.12Zm0,1.23a3.51,3.51,0,0,0-2.55,1,3.35,3.35,0,0,0-1,2.48,3.29,3.29,0,0,0,1,2.44,3.73,3.73,0,0,0,5,0,3.31,3.31,0,0,0,1-2.47,3.22,3.22,0,0,0-1-2.42A3.44,3.44,0,0,0,560.42,132.35Z"/><path d="M568.48,140.3v-9.05h2.27a3.23,3.23,0,0,1,2.18.68,2.26,2.26,0,0,1,.81,1.84,2.3,2.3,0,0,1-.4,1.36,2.32,2.32,0,0,1-1.13.87,4.26,4.26,0,0,1,.85.77,16.6,16.6,0,0,1,1.16,1.72c.32.51.57.9.76,1.16l.48.65h-1.54l-.4-.6-.07-.11-.26-.36-.4-.66-.43-.7a6.81,6.81,0,0,0-.74-.89,2.85,2.85,0,0,0-.6-.48,2.15,2.15,0,0,0-.9-.14h-.34v3.94Zm1.69-8h-.39v2.86h.49a3.66,3.66,0,0,0,1.35-.17,1.18,1.18,0,0,0,.57-.51,1.47,1.47,0,0,0,.21-.78,1.39,1.39,0,0,0-.23-.77,1.22,1.22,0,0,0-.64-.49A4.77,4.77,0,0,0,570.17,132.35Z"/><path d="M583.09,131.25h1.58l-3.35,4.26v4.79H580v-4.79l-3.35-4.26h1.57l2.42,3.12Z"/><path d="M599.2,131.25h1.21v9.05h-1.3v-7l-2.78,3.49h-.24l-2.82-3.49v7H592v-9.05h1.22l3,3.71Z"/><path d="M606.44,131.2h.91l4.06,9.1h-1.32l-1.21-2.68H605l-1.13,2.68h-1.33Zm1.91,5.26-1.46-3.28-1.36,3.28Z"/><path d="M613.66,140.3v-9.06h2.87a3,3,0,0,1,2.06.69,2.42,2.42,0,0,1,.78,1.88,2.53,2.53,0,0,1-.4,1.4,2.25,2.25,0,0,1-1.08.89,5.64,5.64,0,0,1-2,.27h-1v3.93Zm2.64-7.91H615v2.83h1.42a1.85,1.85,0,0,0,1.22-.37,1.36,1.36,0,0,0,.42-1.07C618,132.85,617.45,132.39,616.3,132.39Z"/></g><line class="cls-6" x1="456.82" y1="126.66" x2="643.48" y2="126.66"/><line class="cls-6" x1="457.17" y1="144.63" x2="643.82" y2="144.63"/></g></g></svg>