<svg xmlns="http://www.w3.org/2000/svg" viewBox="0 0 473.2 126.9"><defs><style>.cls-1{fill:#d43a52;}.cls-2{fill:#fff;stroke:#000;stroke-miterlimit:10;stroke-width:4.3px;}</style></defs><title>アセット 234</title><g id="レイヤー_2" data-name="レイヤー 2"><g id="レイヤー_2-2" data-name="レイヤー 2"><rect class="cls-1" x="380.18" width="75.79" height="29.37"/><rect class="cls-2" x="2.15" y="29.37" width="468.9" height="95.37"/><path d="M54.63,60.89c0-.37.11-.48.37-.48h.15c1.74.18,5.07.18,10,.18.29,0,.41.6.41,1.23s-.15,1.4-.41,1.4c-.89,0-4.92.3-5.85.41a1,1,0,0,0-.85,1.11c-.11,4.4-.15,8.47-.15,12.58s0,8.18.15,12.58c0,.37-.92.59-1.85.59s-1.7-.18-1.7-.63c.18-4.55.33-9,.33-13.35,0-5.26-.18-10.33-.63-15.32Z"/><path d="M85.27,91.83c-9.73-.75-12.14-7.22-12.14-9.48,0-1.77,1.11-3.29,4.74-3.29A76.9,76.9,0,0,1,88.23,80h.18c.15,0,.3,0,.3-.15s-1-1.89-4.18-6.88a22.62,22.62,0,0,1-3.74.33,9.25,9.25,0,0,1-6.21-2.15c-.38-.22-.41-.37-.41-.66v-.11c0-.63.33-3.41.78-3.41a.59.59,0,0,1,.4.26c2.15,2.19,3.81,3.15,6.29,3.15.22,0,.45,0,.67,0s.37,0,.55,0a13.41,13.41,0,0,1-1.18-2.62c0-.19.11-.37,2.33-.37.52,0,1,0,1.37,0,.81,0,.55.74.7,1.85,0,.11,0,.23,0,.37l.33-.14c.3-.12.15-1.12.56-1.12h0a7.05,7.05,0,0,0,1.26.26h.15c.89,0,.89,0,.89,2,0,.37,0,.63-2.18,1.59a62.06,62.06,0,0,0,5,7.55c.82,1.15,1.11,1.59,1.11,2a.8.8,0,0,1-.26.63,15.68,15.68,0,0,1-2.25,1.44,1,1,0,0,1-.48.11.74.74,0,0,1-.26,0c-1.15-.34-.89-.34-2.19-.71A39.67,39.67,0,0,0,78,81.69c-1.34,0-1.82.4-1.82,1,0,1,2.33,5.63,10.4,5.63a16.31,16.31,0,0,0,2-.08h.15c.18,0,.26,0,.26.11a1,1,0,0,1-.19.37c-.4.67-1.77,1.71-2.14,2.33a1.21,1.21,0,0,1-1.19.75Z"/><path d="M103.73,90.53c-.74,0-3.29-.48-3.29-1.07a.52.52,0,0,1,.18-.3,60.27,60.27,0,0,0,6-6.73,15.25,15.25,0,0,1-.25-1.93.61.61,0,0,1,.18-.51A17.48,17.48,0,0,0,108,78.36a.35.35,0,0,1,.19-.12c.11,0,.15.15.18.41,0,.52.08,1,.15,1.41,1-1.26,1.89-2.52,2.78-3.74-1,.3-1.78.67-2.52.89a10.41,10.41,0,0,1-3.48.7H105a.87.87,0,0,1-.7-.44,9.76,9.76,0,0,1-1.15-2.85c0-.15.08-.22.15-.22s.11,0,.19,0a15.23,15.23,0,0,0,2.51.3,10.91,10.91,0,0,0,2.26-.3c1.48-.26,3.14-.7,5.14-1l1.7-2.48a.53.53,0,0,0,.11-.3c0-.11,0-.14-.14-.14a.84.84,0,0,0-.48.18c-.19.15-.49.41-.82.63a.13.13,0,0,1-.11,0c-.07,0-.11,0-.15-.15a9,9,0,0,0-.29-1,.93.93,0,0,1,0-.33.42.42,0,0,1,.07-.3A5.44,5.44,0,0,1,116.28,68c1.62,0,1.81,2.3,1.81,3,0,1-.41,1-.85,1.48l-.71.82c1.59.51,2.59,2.21,2.59,6.28,0,5.89-2.92,10-6.54,10-1,0-3.56-.29-5-3.92-3.3,4.81-3.3,4.81-3.81,4.81Zm5.59-7.36c.37.92,1.4,3.11,3.18,3.11,2.26,0,3.52-3.78,3.52-7.22,0-2.59-.37-3.22-1.52-3.22C112.61,78.28,111,80.73,109.32,83.17Zm19.76.74c-.11,0-.22-.08-.3-.3a9.93,9.93,0,0,0-7.7-6.55c-.25,0-.33-.15-.33-.26s1.15-1.92,1.78-1.92c.41,0,7,1.18,9.51,6.84a1.05,1.05,0,0,1,.07.3C132.11,82.39,129.71,83.91,129.08,83.91Zm-3.15-9.59a.4.4,0,0,1-.37-.29,41,41,0,0,0-3.18-4.55.21.21,0,0,1,0-.15c0-.37,1.34-1.19,1.89-1.19.07,0,.15.08.26.19,1.15,1.11,3.4,4,3.4,4.55S126.34,74.32,125.93,74.32Zm.74-6.07a.2.2,0,0,1-.07-.18c0-.33,1-.89,1.55-1.15a1.28,1.28,0,0,1,.26-.07c.08,0,.15.07.26.18s3.59,3.74,3.59,4.48c0,.52-1.59,1.33-1.78,1.41a.53.53,0,0,1-.22,0c-.11,0-.22-.07-.29-.25A47.71,47.71,0,0,0,126.67,68.25Z"/><path d="M146,81.32a.81.81,0,0,0-.56.22c-1.48,1.37-4.29,6.44-5.77,8.81a.37.37,0,0,1-.3.22c-.52,0-3.07-1.7-3.07-2.19a1.2,1.2,0,0,1,.37-.66c5.55-6.63,12-16.21,17.32-20.5.18-.15.33-.3.52-.3s2.92,1.67,2.92,2.22a.45.45,0,0,1-.22.37c-3.89,2.37-9.29,8.18-9.29,8.55,0,.15.07.18.18.22a1.71,1.71,0,0,1,1,1.48c.19,5.63,2.18,7.7,4.7,7.7,4,0,9.32-5.25,10.84-9.84.11-.37.26-.52.37-.52s.33.22.45.52c.22.55.48,1.74,1.07,2.18a.48.48,0,0,1,.15.37c0,1.63-6.18,11-13.4,11-3.51,0-6.44-2.59-7-9.51A.31.31,0,0,0,146,81.32Z"/><path d="M200,67.07c-5.52-.26-9.22-.3-11.22-.3l-9.25,0c0,1.19.08,2.37.08,3.63,2,.18,2.92.22,3.74.22a24.4,24.4,0,0,0-.37-3.11v-.11a.1.1,0,0,1,.11-.11h.07c1.7.11,3.26.37,3.26.78a2,2,0,0,1-.41.77,1.41,1.41,0,0,0-.3,1,5.06,5.06,0,0,0-.07.81,28.21,28.21,0,0,0,3.33-.3h.07a.29.29,0,0,1,.26.26,7.06,7.06,0,0,1,0,1,8.3,8.3,0,0,1,0,1.07c0,.11-.22.19-.33.19-1.63-.15-2.44-.22-3.44-.26v0l.18.14a20.68,20.68,0,0,0,3.52,1.89c.18.07.26.15.26.26a.33.33,0,0,1-.11.22c-.15.22-1.08,1-1.37,1.45-.08.14-.11.25-.22.25a7,7,0,0,1-2.22-1.81c.07,1.81.22,4.26.4,5.92v0a.39.39,0,0,1-.22.26c-.37,0-1,0-1.52,0-1.18,0-1.29-.07-1.29-.37.22-2,.37-3.92.44-5.44-1.4,2.89-2.51,4.07-2.77,4.07a.22.22,0,0,1-.19-.07,4.9,4.9,0,0,0-1.4-.7c-1.23,7.88-4.59,12.91-5.15,12.91a.67.67,0,0,1-.4-.15,12.71,12.71,0,0,0-3.08-.88c-.18,0-.29-.12-.29-.19s.07-.15.18-.26c4.74-4.36,6-12.73,6-19.2a40.53,40.53,0,0,0-.56-7,.9.9,0,0,1,0-.26c0-.15.07-.19.22-.19h.22c2.44.26,7.73.34,11.06.34h1.63c5.4,0,9-.19,11.18-.34h.07a.34.34,0,0,1,.37.34c0,.37,0,.88,0,1.4s0,1,0,1.41a.36.36,0,0,1-.37.33Zm1.4,21.31c.22,0,.26.15.26.34a13.92,13.92,0,0,1,.07,1.52c0,1.33-.14,1.36-.37,1.36-5.43-.18-7.58-.29-11.61-.29-4.3,0-6.11.11-11.66.29-.48,0-.52,0-.52-1.59,0-.55,0-1.11,0-1.29s.07-.34.33-.34h.15l4.4.26c0-.33,0-.63,0-.77a21.67,21.67,0,0,0-.33-4.78v-.15c0-.14,0-.14.26-.14,3.59.37,4,.74,4,1.11s-.34.7-.52,1a7.09,7.09,0,0,0-.45,2.93v.85h2.82v-.89a45.81,45.81,0,0,0-.37-7v-.22c0-.07,0-.07.07-.07h.15c.74,0,4.11.48,4.11,1.18a2.89,2.89,0,0,1-.49,1,3.07,3.07,0,0,0-.33,1.37h1a42.42,42.42,0,0,0,5-.37h.07a.39.39,0,0,1,.37.37,11.1,11.1,0,0,1,0,1.26,12.78,12.78,0,0,1,0,1.33.31.31,0,0,1-.33.22h-.11c-2-.11-3.29-.29-5-.29h-1v2.07c3,0,5.29,0,10-.34ZM183,72.62c-.74,0-1.63.08-3.41.26a44.3,44.3,0,0,1-.33,4.55A18.29,18.29,0,0,0,183,72.62Zm16.8-2.26a.29.29,0,0,1,.26.26,9.4,9.4,0,0,1,0,1c0,.41,0,.81,0,1.07,0,.11-.23.19-.34.19-2-.19-2.81-.26-3.62-.3a18.91,18.91,0,0,0,7.25,5.18c.11,0,.18.11.18.15s-.11.15-.22.22A13.43,13.43,0,0,0,201,79.61a.54.54,0,0,1-.37.23c-.48,0-2.48-1.48-5-4.78.07,1.82.22,4.3.44,6a.45.45,0,0,1-.22.3c-.37,0-1,0-1.55,0-1.07,0-1.3,0-1.3-.37.26-2.07.41-4,.45-5.55a29.16,29.16,0,0,1-3.22,4.11.51.51,0,0,1-.3.15.26.26,0,0,1-.22-.08,7.86,7.86,0,0,0-2.37-1c-.15,0-.26-.08-.26-.15s0-.11.15-.15a18.38,18.38,0,0,0,5.85-5.66c-.78,0-1.59.15-2.67.26-.4,0-.4-.41-.4-1.26,0-1.22.11-1.3.29-1.3h.11c1.19.15,2.07.26,3,.3a18.66,18.66,0,0,0-.33-3.11v-.11a.1.1,0,0,1,.11-.11h.07c2.48.18,3.26.41,3.26.78,0,.18-.22.44-.45.77a1.46,1.46,0,0,0-.29,1c0,.18,0,.48-.08.81a38.76,38.76,0,0,0,4-.3Z"/><path d="M242.08,88.83a.13.13,0,0,1,.14.11.45.45,0,0,1-.11.26,14.16,14.16,0,0,0-2.44,3.18.55.55,0,0,1-.52.33c-.37,0-.7,0-1.07,0a25,25,0,0,1-15.8-5.25c-2.26,2.36-5.74,4.44-11.06,5.62a.94.94,0,0,1-.37.07.39.39,0,0,1-.3-.11,12,12,0,0,0-3-2.4c-.11-.08-.15-.15-.15-.22s.08-.11.19-.15c6.33-.7,10.1-2.74,12.36-5.15a11.86,11.86,0,0,1-1.26-1.88,17.09,17.09,0,0,0-1.55,2.59c-.11.29-.11.63-.37.63A10.79,10.79,0,0,1,214,84.76c0-.08-.07-.11-.07-.19a.31.31,0,0,1,.11-.22c4.26-3.44,4-3.51,4.26-4.62.07-.45.33-.45.66-.45,1.63,0,1.89.3,1.89.74v.11a2.45,2.45,0,0,0-.07.67,2.54,2.54,0,0,0,.14.89,10.67,10.67,0,0,0,.74,1.18,13.67,13.67,0,0,0,1.48-4.51c-2.07,0-4.36.07-5.69.07l.07,1.15v.07c0,.26-.19.34-1.81.34-1,0-1.74,0-1.74-.34v0a33,33,0,0,0,.29-5.1,44.05,44.05,0,0,0-.29-6v0c0-.15.18-.26.37-.26,2.29.19,6,.26,9,.26a42.13,42.13,0,0,0-.41-5.66.8.8,0,0,1,0-.22c0-.11,0-.11.11-.11a27.59,27.59,0,0,1,4.25.51c.34.12.48.26.48.45s-.44.85-.7,1.63a15.62,15.62,0,0,0-.33,3.4c3.18,0,6.81-.19,9.17-.33h.08a.32.32,0,0,1,.3.29v.08c0,.4-.19,2.44-.19,6.1,0,2.08.19,3.11.3,5v.08c0,.41-.19.44-2.11.44-1.26,0-1.48-.11-1.48-.44a11.79,11.79,0,0,1,.07-1.22l-6.33-.11a16.26,16.26,0,0,1-2.4,6.92c2.59,2,6.81,3.92,13,3.92a34.44,34.44,0,0,0,5-.37Zm-18.8-17.69-6,.08s0,1.77,0,3.33a10,10,0,0,0,0,1c1.33,0,3.78.08,6,.08Zm9.58,3.63c0-2-.07-3.55-.07-3.55l-6.22-.08v4.52c2.44,0,5.18-.08,6.29-.08Z"/><path d="M258,83.5c0,.26,0,.48-9.51,4.7-.41.15-.74.63-1.08.63-.51,0-2.55-3.26-2.55-3.37s.15-.18.37-.22a26.5,26.5,0,0,0,5.51-1.63c0-2.77.11-6.77.11-7.4v-1l-3.77.15H247a.36.36,0,0,1-.3-.26c0-.29,0-.85,0-1.37s0-1.07,0-1.29a.37.37,0,0,1,.37-.33c1.22.14,2.52.26,3.77.29a56.74,56.74,0,0,0-.4-8.4v-.11c0-.15.07-.22.26-.22S255,64.07,255,65c0,.37-.44.89-.66,1.33s-.22.6-.37,6.07c1.07,0,1.92-.15,3.25-.29a.35.35,0,0,1,.37.33c0,.3,0,.93,0,1.55,0,1.3-.07,1.37-.33,1.37h-.08c-1.36,0-2.22-.11-3.29-.15v1c0,.48,0,3.78,0,6.14,1.63-.63,3-1.18,3.62-1.48a.93.93,0,0,1,.19-.07c.07,0,.07.11.07.33a12,12,0,0,0,.08,2.3Zm10.39,1.59c0,.33-.44.33-1.92.33s-1.59-.07-1.59-.48c.15-2,.22-6.21.26-8.66-.63.26-1.63.74-2.78,1.3,0,3.29-.07,7-.07,8.88,0,2.7,0,2.85,5.59,2.85a47.29,47.29,0,0,0,5.88-.3c1.33-.26,1.85-2.44,1.85-4.21,0-.67.11-.67.15-.67a.47.47,0,0,1,.26.15,8.18,8.18,0,0,0,2.77,2.4.64.64,0,0,1,.52.56,5.35,5.35,0,0,1-5,5,49.46,49.46,0,0,1-5.85.22c-6.62,0-9.4-.14-9.4-4v-.59c0-.56.11-4.63.15-8.7-.92.44-1.81.93-2.51,1.3a.66.66,0,0,1-.26.07.35.35,0,0,1-.3-.19,16,16,0,0,1-1-2.62c0-.23.15-.3.33-.37,1.15-.37,2.44-.85,3.7-1.37V73.73c0-3.59,0-4.88-.26-5.84a.91.91,0,0,1,0-.3c0-.19.08-.22.3-.22.7,0,4.29.74,4.29,1.33,0,.37-.55.81-.85,1.26a3.72,3.72,0,0,0-.15,1.48c0,.44-.07,1.63-.07,3.18l2-.89.82-.37c0-5.07,0-8.58-.37-10.21a1.3,1.3,0,0,1,0-.37c0-.15,0-.22.29-.22.41,0,4.26.63,4.26,1.29,0,.3-.33.63-.52.85-.37.45-.55,1-.55,7.22l2.66-1.3c.7-.33.63-1.07,1.19-1.07s3.07.63,3.07,1.29c0,.45-.48,1-.48,1.41-.08,2.81-.12,6.14-.3,7.36-.37,2.71-1.19,4.33-4.22,4.48a.69.69,0,0,1-.63-.55,7.27,7.27,0,0,0-1.26-2.3l.11,3.74Zm-.14-10.21c0,1.29,0,3.48,0,5.66a11.22,11.22,0,0,0,1.56.22c.81,0,1.55-.44,1.55-5.92,0-.52,0-1,0-1.37Z"/><path d="M308.56,92.27c0-.48,0-1,0-1.44-1.89,0-7.21-.11-9.73-.11-2.33,0-7.29.07-9.55.11,0,.55,0,1.07,0,1.62,0,.38-.11.49-2,.49-1.3,0-1.85-.08-1.85-.41v0c.41-5.81.44-12,.44-14.65,0-2.85-.07-7.7-.33-13.14,0-.14,0-.29.22-.29H286c2.77.18,9.84.25,12.87.25,3.33,0,10-.1,12.92-.36.29,0,.4.18.4.33v.07c-.14,4.41-.18,8.22-.18,10.88,0,7.29.29,14.32.41,16.62a.48.48,0,0,1-.45.55c-.52,0-1.18,0-1.78,0-1.44,0-1.59-.11-1.59-.45ZM289.14,77.91c0,1.08,0,5.37.11,10,2.26,0,7.22.07,9.58.07,2.56,0,8.11-.07,9.84-.07.12-4.33.12-8.85.12-9.85,0-2.22-.08-10.47-.08-10.47s-7-.07-9.88-.07-9.66.07-9.66.07,0,5.22,0,8.44Zm14-9.36c0-.22,0-.37.18-.37s4,.78,4,1.52c0,.29-.44.66-.7,1a4.78,4.78,0,0,0-.77,1.7A27.3,27.3,0,0,1,302.39,80c2,1,4.95,2.89,4.95,3.41a5.5,5.5,0,0,1-2,2.51.83.83,0,0,1-.52-.26,29,29,0,0,0-4.47-3.22,19.27,19.27,0,0,1-7.26,4.7.63.63,0,0,1-.29.11.28.28,0,0,1-.22-.11,9.28,9.28,0,0,0-2.63-2c-.22-.15-.3-.22-.3-.3s.19-.11.37-.15a15.4,15.4,0,0,0,7.66-3.59,51,51,0,0,0-5.92-2.18c-.22-.07-.33-.15-.33-.26s0-.11.07-.22.93-2.15,1.41-2.15a55.84,55.84,0,0,1,6.85,2.52,20.47,20.47,0,0,0,3.33-10ZM294,75.77a.42.42,0,0,1-.19,0,.28.28,0,0,1-.26-.18,15.47,15.47,0,0,0-2.81-4c-.07-.11-.15-.18-.15-.25s.08-.15.19-.19a12.77,12.77,0,0,1,2.29-1c.52,0,3.45,3.45,3.45,4C296.47,74.32,295.83,74.77,294,75.77Zm4.44-1.11a.32.32,0,0,1-.3-.26,17.06,17.06,0,0,0-2.18-4.55.31.31,0,0,1-.11-.23c0-.25,2.44-.92,2.63-.92s.14.07.25.18c.49.63,2.56,3.82,2.56,4.41C301.24,73.66,298.68,74.66,298.39,74.66Z"/><path d="M329.91,94.6c-1.74-.19-5.07-.19-10-.19-.3,0-.41-.62-.41-1.25s.15-1.37.41-1.37c.88,0,4.91-.3,5.84-.45a1,1,0,0,0,.85-1.1c.11-4,.15-7.81.15-11.55,0-4.44-.07-8.81-.18-13.58,0-.41,1-.63,1.84-.63s1.74.22,1.74.67c-.18,4.55-.33,9-.33,13.35,0,5.26.19,10.33.63,15.32v.3c0,.37-.11.48-.41.48Z"/><path d="M349.67,79c-1.11-2.78-3.7-6.74-6.77-8.47-.22-.12-.33-.26-.33-.41a5.52,5.52,0,0,1,2.07-1.85c.15,0,4.66,2.22,7.66,8.44,5.22-4.3,9.17-7.11,9.47-7.11a.52.52,0,0,1,.41.19A8.31,8.31,0,0,1,364,72.33c0,.4-.67.29-1.07.55-3.15,2-6.48,4.14-9.63,6.55a5.12,5.12,0,0,1,.08.63c0,.44,0,.55-.37.7a8.59,8.59,0,0,1-2,.52,1.24,1.24,0,0,1-.22.19c-1.52,1.25-2.44,2.4-2.44,3.47,0,1.63,2.4,2.93,5,2.93a8.87,8.87,0,0,0,6.92-3.56c.11-.14.22-.22.29-.22s.19.08.22.3a22.43,22.43,0,0,0,.67,3,1.5,1.5,0,0,1,.19.55c0,.67-3.48,3.08-8.14,3.08-5.11,0-8.15-3.19-8.15-5.56,0-1.74,1.26-3.73,3.85-6Z"/><path d="M393.41,75.91c0,4,.22,6.3.29,8.26,3.55.92,8.44,3.44,8.44,4,0,.25-1.56,2.92-2,2.92a.29.29,0,0,1-.22-.07,24.48,24.48,0,0,0-6.33-3.85A4.68,4.68,0,0,1,388.86,91c-2.6,0-5.26-1.89-5.26-4.11s1.89-3.41,5.26-3.41a19.53,19.53,0,0,1,2,.15c.07-1,.11-2.11.11-3.26,0-1.77-.08-3.58-.22-5.36a23.3,23.3,0,0,0-5.33,2.22,2.1,2.1,0,0,1-1.11.29A22.68,22.68,0,0,1,381.6,77c-.07,0-.18,0-.26,0-2,0-2.37,8.33-2.37,10.84a18.26,18.26,0,0,0,.08,2.11.21.21,0,0,1,0,.15c0,.41-.12.44-2.82.67a.51.51,0,0,1-.48-.26,15,15,0,0,1-2-8.33c0-5.66,1.74-11.54,1.74-14.13v-.3c0-.3.14-.37.33-.37a22.94,22.94,0,0,1,2.55.41c.41.11.48.26.52.51v.15a17.74,17.74,0,0,1-.89,4.48,32.15,32.15,0,0,0-1.7,9,13.16,13.16,0,0,0,.44,3.56c1.15-9.11,2.74-10.66,4.45-10.66a2.59,2.59,0,0,1,.55,0,9.72,9.72,0,0,0,1.33.14,2.83,2.83,0,0,0,1-.18c1.33-.56,3.69-1.52,6.43-2.44l-.15-1.19a3.76,3.76,0,0,0-1.11-2.18.63.63,0,0,1-.07-.22.73.73,0,0,1,.19-.45,9.81,9.81,0,0,1,2.36-1.84c.6,0,1.93,1.44,1.93,2.88v.08l-.11,2,1.55-.37c.37-.07.59-.92,1-.92a.33.33,0,0,1,.15,0,18.55,18.55,0,0,0,2.26,1.15c.37.19.44.33.44.52s-.26,1.63-.33,1.81-.22.37-.74.37a24.84,24.84,0,0,0-4.4.41Zm-5.07,10c-1.85,0-2.15.59-2.15,1,0,1,2,1.4,2.37,1.4,1.18,0,1.85-1,2-2.11A11.94,11.94,0,0,0,388.34,85.94Z"/><path d="M408.35,70.36c0-3.55,3.37-7.28,9-7.28C422,63.08,426,66,426,69.92a8.1,8.1,0,0,1-2,5c-3.62,4.55-5.73,6.07-5.73,9.07a4.11,4.11,0,0,0,0,.7c0,.59-.41.63-3,.63a.49.49,0,0,1-.48-.44c0-.45-.07-.89-.07-1.3,0-3,1.4-5.14,5.44-9.8A6,6,0,0,0,421.9,70c0-2.07-1.89-3.44-4.67-3.44-3.51,0-4.73,2.08-4.73,3.41a4.11,4.11,0,0,0,.92,2.4.54.54,0,0,1,.08.22.4.4,0,0,1-.37.41,23.26,23.26,0,0,1-3.08.56C408.5,73.55,408.35,70.55,408.35,70.36Zm8.33,23.24a2.7,2.7,0,1,1,0-5.4,2.7,2.7,0,0,1,0,5.4Z"/></g></g></svg>