<svg xmlns="http://www.w3.org/2000/svg" viewBox="0 0 402.07 126.64"><defs><style>.cls-1,.cls-2,.cls-3{fill:#fff;stroke:#000;stroke-miterlimit:10;}.cls-1{stroke-width:4.21px;}.cls-2{stroke-width:4.3px;}.cls-3{stroke-width:4.3px;}</style></defs><title>アセット 293</title><g id="レイヤー_2" data-name="レイヤー 2"><g id="レイヤー_1-2" data-name="レイヤー 1"><polygon class="cls-1" points="399.92 40.55 41.62 40.55 60.35 2.11 399.92 2.11 399.92 40.55"/><rect class="cls-2" x="53.07" y="40.54" width="346.85" height="69.43"/><circle class="cls-3" cx="54.61" cy="72.03" r="52.46"/><path d="M201.92,79.9c0,.1,0,.31-1.53.31-1.25,0-1.25-.14-1.25-.38a6.2,6.2,0,0,1,0-.71H198a25.13,25.13,0,0,0,9.11,7.61c.2.07.27.17.27.24s-.17.2-.41.27a12.51,12.51,0,0,0-2.85,1.5.56.56,0,0,1-.28.1c-.51,0-3.94-2.92-6.22-6.7.1,2.55.24,5.31.41,7.45,0,.17-.1.24-.27.27-.34,0-.82.07-1.26.07-1.46,0-1.53-.14-1.53-.41.24-4,.27-7.65.27-10.44-.47,0-1,0-1.76,0,.06,3.13.17,7.48.34,10.47,0,.17-.11.24-.28.27-.34,0-.81.07-1.25.07-1.36,0-1.57,0-1.57-.41.17-2.45.31-4.83.41-7a21.19,21.19,0,0,1-8.47,7.31,1,1,0,0,1-.44-.21,9,9,0,0,0-2.68-1.29c-.14-.07-.24-.14-.24-.24s.07-.13.2-.2a22.09,22.09,0,0,0,11.39-8.74c-1.05,0-2.21.07-3.33.14a.31.31,0,0,1-.27-.21c0-.27,0-.71,0-1.12s0-.88,0-1.09.13-.3.24-.3c1.36.1,2.58.17,3.7.2V75.24c-1,0-2.17.14-4.32.24-.23,0-.27-.07-.27-.31s0-.68,0-1.08,0-.85,0-1.09.1-.31.14-.31h.17c2.14.14,3.33.21,4.28.24V71.47c-1.15,0-2.38.1-3.43.2-.14,0-.24-.07-.24-.27s-.07-.82-.07-1.29,0-.68,0-.89.2-.3.34-.3c1.05.1,2.21.2,3.29.24a14.34,14.34,0,0,0-.13-1.57c-.92,0-2,.1-3.71.24h-.07a.24.24,0,0,1-.27-.24,7.46,7.46,0,0,0-1.8.92l-.14.1a6.61,6.61,0,0,1,0,1,8.48,8.48,0,0,1,0,1.09.36.36,0,0,1-.2.24c-.85-.1-1.46-.17-2-.21A.27.27,0,0,1,183,71c0,.13-.1.27-.31.41a.63.63,0,0,0-.2.54c0,.41,0,.92,0,1.46.72,0,1.53-.07,3.2-.24h0c.11,0,.21.14.24.31a8.48,8.48,0,0,1,0,1.09,9,9,0,0,1,0,1.12.31.31,0,0,1-.27.24c-1.53-.14-2.48-.21-3.23-.24v3.7a11.25,11.25,0,0,0,2-3c0-.13.07-.17.14-.17.3,0,2.38,1.19,2.38,1.7,0,.24-.31.34-.58.48-.1.07-.24.24-.48.44-2.31,2-2.31,2-2.38,2s-.23-.13-.37-.2l-.68-.27v1.87c2.18-.79,4-1.5,4.66-1.77a1.2,1.2,0,0,1,.27-.07.13.13,0,0,1,.14.14s0,.07,0,.13a7.31,7.31,0,0,0-.24,1.64v.17c0,.2,0,.4-.4.54s-9.9,4.32-10.51,4.66c-.44.27-.68.71-1,.71-.51,0-2.11-2.82-2.11-3.09s.17-.17.37-.21a57.66,57.66,0,0,0,6.36-2c0-.61,0-1.43,0-2.38a11.77,11.77,0,0,1-1.25,1.12.48.48,0,0,1-.24.1c-.07,0-.14-.06-.21-.23a13.22,13.22,0,0,0-3-3.33c-.07-.07-.17-.14-.17-.24s1-1,1.4-1.23a.29.29,0,0,1,.2-.1,11.8,11.8,0,0,1,3.3,2.52V75.65c-.92,0-2.15.07-4.05.24a.29.29,0,0,1-.3-.27,6.65,6.65,0,0,1,0-1,9.56,9.56,0,0,1,0-1.22c0-.24.1-.31.2-.31h.1a35.21,35.21,0,0,0,4,.24c0-1.32-.06-2.31-.1-2.65a22.7,22.7,0,0,0-2.38.2c-.07,0-.2-.06-.24-.27s0-.27,0-.47c-1,1.08-1.73,1.76-2.11,1.76a.36.36,0,0,1-.24-.1,6.75,6.75,0,0,0-2.55-1.15c-.1,0-.17-.11-.17-.17a.26.26,0,0,1,.14-.21c4.28-2.31,7.65-8.91,8-10.26,0-.14.1-.17.21-.17h.1c.44.06,3,.5,3,1.12,0,.2-.21.4-.58.61l-.21.17a19.17,19.17,0,0,0,4.08,4.59,10.14,10.14,0,0,1,.07-1.09c0-.27.07-.34.21-.34h.13c1.74.14,2.93.24,3.84.27,0,0,0,0,0-.07a16.12,16.12,0,0,0-2.65-4c-.07-.1-.14-.17-.14-.24a11.9,11.9,0,0,1,2.45-1.22,14,14,0,0,1,3.2,3.74.56.56,0,0,1,.06.2c0,.24-.88.82-2.31,1.64h3A32.55,32.55,0,0,0,197.17,60c.1-.27.1-.38.23-.38.45,0,3.33,1.33,3.33,1.8,0,.24-.3.41-.68.65a3.94,3.94,0,0,0-.85.88l-1.73,2.32c1.7,0,3.71-.11,6.26-.34a.31.31,0,0,1,.3.34,7.93,7.93,0,0,1,.07,1.15,9.39,9.39,0,0,1-.07,1.19.25.25,0,0,1-.24.24h-.06c-2.11-.14-3.91-.24-5.48-.27-.1.17-.3.3-.37.41a2.63,2.63,0,0,0-.24,1.25c1.22,0,2.75-.1,4-.23h.13c.11,0,.17,0,.17.13a.4.4,0,0,1,0,.17,32.14,32.14,0,0,0-.2,3.64c1.08,0,2.31-.1,3.77-.24h.07c.17,0,.17.1.2.27a9.78,9.78,0,0,1,0,1.16,9.24,9.24,0,0,1,0,1.12.26.26,0,0,1-.27.24l-3.74-.2c0,1.63.1,3.4.2,4.55ZM178.71,68.41a13.49,13.49,0,0,0,1.8.1,34,34,0,0,0,3.91-.2,17.35,17.35,0,0,1-3-4.12A32.4,32.4,0,0,1,178.71,68.41Zm16.48,3h-1.73c0,.48,0,1,0,1.56h1.76Zm0,3.74h-1.76v1.7h1.76Zm-.06-5.92c0-.64-.07-1.19-.14-1.7h-.68a1.29,1.29,0,0,1-.48.48,2.83,2.83,0,0,0-.23,1.22Zm2.41,2.15L197.47,73h1.77c0-.65,0-1.23,0-1.63Zm1.66,5.47c0-.58,0-1.12,0-1.63-.61,0-1.19,0-1.77,0v1.67Z"/><path d="M232.69,89.66c0,.3-.13.4-2,.4-1.22,0-1.46-.06-1.46-.47l.07-1.5-4.15,0-5.51,0,.07,1.5v.13c0,.31-.1.41-1.73.41s-1.74-.07-1.74-.47v-.11a38.26,38.26,0,0,0,.31-4.52c0-.81,0-1.53-.1-2.34a13.68,13.68,0,0,1-6.6,6.86.4.4,0,0,1-.3-.13,7.82,7.82,0,0,0-3.13-1.33c-.24-.07-.37-.17-.37-.27s.1-.14.23-.2c7.45-3,8.77-8.84,8.77-13.57,0-.92,0-1.77-.1-2.55-.92.72-3.33,2.45-3.87,2.45a.32.32,0,0,1-.31-.14,10.74,10.74,0,0,0-3.23-1.66c-.37-.14-.51-.24-.51-.34s.24-.17.48-.27c8.22-3.13,14.07-10.14,14.65-12.21.07-.2.1-.34.31-.34,0,0,3.77,1.06,3.77,1.9,0,.28-.37.51-.75.65,2.62,2.82,8.23,6.46,14.31,8.3.28.06.41.17.41.27s-.13.24-.37.37c-1,.58-2.38,1-3.13,1.91a.6.6,0,0,1-.48.23,36,36,0,0,1-8-5,10.66,10.66,0,0,1-.07,1.26c0,.13-.23.2-.3.2-2.21-.17-2.69-.2-4.12-.2a43.74,43.74,0,0,0-4.59.2.3.3,0,0,1-.3-.27,2,2,0,0,1,0-.54c-.68.64-1.46,1.32-2.31,2,2.38.14,4.8.17,7.21.17s5.1-.1,7.55-.24h.1c.24,0,.34.11.34.24v.07a23.61,23.61,0,0,0-.17,3.2,56.94,56.94,0,0,0,.27,6.32v0c0,.28-.27.41-.48.45-.37,0-.85,0-1.32,0-1.63,0-1.7-.1-1.7-.41v0c0-.1,0-.21,0-.34-1.59,0-3.87,0-4.62,0-.92,0-4.49,0-6.19.07-.13.44-.27.92-.44,1.36,1.7.1,6.32.14,8.16.14s4.59-.07,6.94-.17h.1c.3,0,.37.13.37.4a33.79,33.79,0,0,0-.2,3.64c0,.78,0,1.84.23,4.22ZM218,77.66l5.68,0c.68,0,3.09,0,4.72,0,0-.62,0-1,0-1.47-1.6,0-3.95,0-4.73,0l-5.54,0Zm8.84-5c-6.39,0-8.16,0-8.57,0V74c1.87,0,4.69,0,5.41,0s3.12,0,4.76,0c0-.68-.07-1.16-.07-1.33Zm2.51,12.24c0-.71,0-1.16,0-1.16s-1.87,0-3.26,0h-.92l-5.44,0a11.59,11.59,0,0,0,0,1.23v.54l5.48,0,4.21,0Zm-8.73-18.36c.85.07,1.46.07,2,.07.23,0,2.68,0,4.14-.1a30,30,0,0,1-3.29-3.2C222.84,64.12,221.92,65.25,220.63,66.57Z"/><path d="M253.78,82.76c0,.33-.11.57-1.7.57-.92,0-1.64,0-1.64-.47v-.07c0-.65,0-1.5.07-2.41-.37,0-.95-.07-1.46-.07s-1.19,0-1.56.07c0,1.52,0,3,.06,4.35,0,.57-.06.61-1.7.61s-1.73-.21-1.73-.55v-.1c.31-4.65.38-9.75.38-12.54,0-3.5-.07-6.26-.21-9.05,0-.13,0-.2,0-.3s.07-.21.24-.21.17,0,.27,0c1.08.1,2.58.17,4.31.17s2-.07,4.22-.21c.37,0,.44.14.44.48-.24,2.69-.24,5.81-.24,8.74,0,2.55.07,8.06.28,10.74ZM249,65.42c-1,0-1.53,0-1.53,0s-.07,2.11-.07,4.52c.41,0,1.09,0,1.6,0s1.22,0,1.59,0c0-2.17-.1-4.52-.1-4.52s-.34,0-1,0Zm1.59,7.31c-.37,0-1,0-1.56,0s-1.26,0-1.63,0c0,1.32,0,3,0,4.86.41,0,1.06,0,1.57,0s1.15,0,1.53,0C250.58,75.75,250.61,74,250.61,72.73Zm21.83.17c-3.77-.38-7.31-.41-9.45-.41s-3.91.07-8.36.34c-.34,0-.41-.1-.41-1.57s0-1.63.41-1.63c3.33.27,5.06.34,6.83.34V67.29c-1.53,0-3,.06-5.47.2-.31,0-.38,0-.38-1.46s.07-1.53.44-1.53c2.38.2,3.91.2,5.34.2v-.34a27.37,27.37,0,0,0-.47-5v-.17c0-.17,0-.2.23-.2.55,0,4.35.4,4.35,1.12,0,.27-.3.61-.5,1-.38.71-.34.64-.48,2.85a3.77,3.77,0,0,0,0,.68c1.3,0,2.59-.07,5.21-.23.17,0,.4,0,.4,1.56a7.8,7.8,0,0,1-.06,1.26c0,.13-.21.2-.31.2h0c-2.55-.14-3.74-.17-5.24-.2V70c2.11,0,4.86-.17,8-.41.24,0,.37.24.37,1.67,0,.54,0,1.09-.06,1.43,0,.13-.17.24-.28.24Zm-4.59,13c0,2-1.12,4.25-5.1,4.25q-.3,0-.51-.51c-.64-1.53-1.83-2.07-2.65-3-.1-.11-.17-.17-.17-.24s0-.07.14-.07a1.39,1.39,0,0,0,.17,0,19.72,19.72,0,0,0,2.75.28c1.29,0,2-.34,2-1.33.07-1.33.07-4,.07-5.54v-2h-1.46c-2.18,0-3.95.07-8.33.34a.32.32,0,0,1-.34-.31c0-.27,0-.78,0-1.32,0-1.64,0-1.64.38-1.64,4.21.34,5.95.34,8.33.34h1.35a11.79,11.79,0,0,0-.27-2,.86.86,0,0,0,0-.13c0-.14.1-.21.27-.21s4,.34,4,1a.87.87,0,0,1-.27.54c-.31.41-.41.41-.45.75,1.4-.07,3-.17,4.63-.3h0c.21,0,.34.27.34,1.7a14.24,14.24,0,0,1-.07,1.46.33.33,0,0,1-.27.24h0c-1.67-.17-3.27-.28-4.69-.31v2.92c0,1.84.17,3,.2,4.93Zm-7.51-1.49c-.07,0-.14-.07-.21-.14a19.47,19.47,0,0,0-4.25-3.64c-.1-.06-.13-.1-.13-.17,0-.37,1.49-1.36,1.83-1.56a.31.31,0,0,1,.17-.1.35.35,0,0,1,.17.06,17.37,17.37,0,0,1,4.46,2.89.29.29,0,0,1,.1.21,14.63,14.63,0,0,1-2,2.38C260.44,84.35,260.41,84.39,260.34,84.39Z"/><path d="M281.59,89.32c.51-4.59.75-12,.88-17.58-.3.37-3.8,4.73-4.55,4.73a.38.38,0,0,1-.27-.07,9.56,9.56,0,0,0-2.86-1.06c-.2,0-.34-.1-.34-.17s.07-.13.17-.2c5.85-4.15,10.5-12,10.91-14.28,0-.14.07-.2.17-.2.58,0,4,1.46,4,2.1,0,.24-.27.48-.78.68s-.68.14-.95.68a38.41,38.41,0,0,1-2.32,3.57c.24.07.41.17.55.21a.42.42,0,0,1,.34.41,1.12,1.12,0,0,1-.34.64,2,2,0,0,0-.51,1.63c-.14,4.22-.31,9.76-.31,14.28,0,1.77,0,3.37.1,4.69,0,.17-.1.34-1.93.34-1.6,0-1.94,0-1.94-.34Zm23.52-18.19c0,.13-.23.27-.34.27-5.1.37-5.84.44-8.83.88l-.72.11c2,10.13,7.62,12.91,8.3,12.91s1.59-1,1.83-3.8c0-.21.07-.28.17-.28s.14.07.21.17a11.67,11.67,0,0,0,2.72,2.76.52.52,0,0,1,.23.51c-.91,3-2.55,4.66-4.55,4.66a5.11,5.11,0,0,1-2.72-.92c-5.61-3.54-8.09-9.52-9.35-15.47l-4.86,1h-.1a.39.39,0,0,1-.41-.24,13.42,13.42,0,0,1-.38-2.68v-.14c0-.34.17-.41.38-.41,2.14-.13,3.6-.27,4.86-.44-.27-1.73-.48-3.47-.61-5.1s-.27-3-.48-3.91a2.81,2.81,0,0,1-.07-.37.19.19,0,0,1,.21-.21c.07,0,.13,0,.2,0,3.67.44,4.42.57,4.42,1.12a3.11,3.11,0,0,1-.51,1.19,2.61,2.61,0,0,0-.2,1.12,49.33,49.33,0,0,0,.27,5.68l.75-.1c3.26-.45,4.08-.62,8.73-1.6h.07a.37.37,0,0,1,.38.3,19.37,19.37,0,0,1,.4,2.89ZM300,67.59a23.27,23.27,0,0,0-4.12-2.82c-.13-.07-.27-.1-.27-.24a5.68,5.68,0,0,1,1.77-2.21c.65,0,4.79,2.31,4.79,2.76s-1.36,2.68-1.8,2.68A.49.49,0,0,1,300,67.59Z"/><path d="M106.88,24.16a21,21,0,0,0,1.94-.92,8.41,8.41,0,0,0,0,1.24c0,.66,0,.64-.52.92-1.24.62-2.66,1.2-4,1.7a2.71,2.71,0,0,0-.66.33.51.51,0,0,1-.34.13c-.12,0-.22,0-.3-.23-.2-.53-.36-1.11-.54-1.78a14.47,14.47,0,0,0,2-.51l.46-.14V19.22h-.16c-1.3,0-1.7,0-1.82,0s-.2,0-.2-.22V17.52c0-.2,0-.22.2-.22s.52,0,1.82,0h.16V15.46a16.94,16.94,0,0,0-.16-2.94c.78,0,1.4.06,2.06.14.2,0,.32.12.32.24a1.13,1.13,0,0,1-.12.4,6.71,6.71,0,0,0-.12,1.9v2.14c1.14,0,1.52,0,1.64,0s.2,0,.2.22V19c0,.2,0,.22-.2.22s-.5,0-1.64,0Zm5.05,2.78c0,.53.1.77.38.9s.9.23,2.88.23c2.16,0,2.82-.1,3.22-.43s.42-.67.48-2.26a5.34,5.34,0,0,0,1.44.64c.5.15.5.15.44.66-.18,1.75-.42,2.29-1.08,2.71s-1.64.66-4.74.66c-2.72,0-3.72-.24-4.22-.56s-.77-.9-.77-2V21.26c-1,.36-1.44.54-1.6.58s-.22,0-.26-.16l-.26-1.56c0-.2,0-.2.16-.26s.68-.16,2-.58v-2.2a20.22,20.22,0,0,0-.12-2.84c.68,0,1.33.06,1.93.12.28,0,.4.12.4.22a.9.9,0,0,1-.12.42,6.05,6.05,0,0,0-.12,1.9v1.72l1.92-.64v-2.9a20.74,20.74,0,0,0-.16-2.84,15.94,15.94,0,0,1,2,.16c.2,0,.32.1.32.22a1.13,1.13,0,0,1-.12.4,6.27,6.27,0,0,0-.12,1.8v2.52l1.54-.52c1.88-.62,2.48-.88,2.62-.9s.22,0,.22.2l-.06,2.56a19.56,19.56,0,0,1-.48,4.52c-.3,1.16-.86,1.52-1.72,1.52a4.72,4.72,0,0,1-.74,0c-.44,0-.44,0-.54-.66a5,5,0,0,0-.42-1.44,4.68,4.68,0,0,0,1.06.14c.34,0,.48-.1.6-.74a19.06,19.06,0,0,0,.24-3.5l-2.32.8v3.48c0,2,0,3,0,3.1s0,.23-.22.23H114c-.2,0-.22,0-.22-.23s0-1.1,0-3.1V19.94l-1.92.66Z"/><path d="M125.74,27.37h11.65c1.94,0,2.62,0,2.74,0s.22,0,.22.22v1.6c0,.2,0,.22-.22.22s-.8,0-2.74,0H125.74v.86c0,.2,0,.22-.24.22h-1.7c-.2,0-.22,0-.22-.22s0-1.48,0-4.21V17.34c0-2.74,0-4.08,0-4.2s0-.24.22-.24.8,0,2.68,0h10.77c1.86,0,2.5,0,2.62,0s.24,0,.24.24v1.58c0,.2,0,.22-.24.22s-.76,0-2.62,0H125.74ZM128.8,17c.18-.18.2-.2.38-.08,1.32.84,2.65,1.78,4,2.8a17.34,17.34,0,0,0,1.5-2.48,6,6,0,0,0,.56-1.62,11.28,11.28,0,0,1,1.92.76c.2.1.3.18.3.34s-.1.24-.24.36a4,4,0,0,0-.56.92,22.92,22.92,0,0,1-1.88,3c1.2,1,2.38,2,3.58,3.12.1.08.14.14.14.2s0,.14-.16.26l-1.1,1.2a.33.33,0,0,1-.22.15.23.23,0,0,1-.18-.11c-1.12-1.16-2.26-2.22-3.4-3.22a19.84,19.84,0,0,1-5,3.74,1.23,1.23,0,0,1-.48.21c-.14,0-.24-.15-.44-.45A4,4,0,0,0,126.48,25a18.67,18.67,0,0,0,5.39-3.76c-1.31-1-2.63-2-4-3-.1-.06-.14-.12-.14-.16s.06-.14.16-.24Z"/><path d="M150,21.54c1.1,0,1.43,0,1.55,0s.26,0,.26.24c0,.7-.06,1.22-.06,1.78a26.63,26.63,0,0,1-.38,4.57,2.34,2.34,0,0,1-2.55,2,8.36,8.36,0,0,1-1,0c-.54-.06-.58,0-.68-.64a3.69,3.69,0,0,0-.56-1.48c.8.1,1.52.18,1.92.18.6,0,.82-.26,1-1.21a24.07,24.07,0,0,0,.24-3.54H147.1a11.79,11.79,0,0,1-3,6.29c-.18.2-.28.3-.38.3s-.18-.12-.34-.38a5,5,0,0,0-1.08-1.22c2.28-2.11,3-4.33,3.12-8.83l-2,0c-.22,0-.24,0-.24-.22s0-.62,0-1.78V15c0-1.16,0-1.64,0-1.78s0-.22.24-.22.68,0,2.34,0h3.32c1.65,0,2.21,0,2.35,0s.22,0,.22.22,0,.62,0,1.78v2.58c0,1.16,0,1.66,0,1.78s0,.22-.22.22-.7,0-2.35,0h-1.68q0,1.08-.12,2Zm-4.72-3.74h4.38v-3h-4.38Zm8.41-1a21.07,21.07,0,0,0-.14-3c.7,0,1.36.06,2,.14.2,0,.3.1.3.22a1.87,1.87,0,0,1-.14.44,13.65,13.65,0,0,0-.06,2.14v5.52c0,1.7,0,2.52,0,2.65s0,.21-.24.21h-1.62c-.2,0-.22,0-.22-.21s0-.95,0-2.65Zm6.24,6.84c0,1.4.06,3,.06,4s-.16,1.57-.72,2-1.16.48-3.1.5c-.62,0-.62,0-.76-.64a4.14,4.14,0,0,0-.64-1.5A17.56,17.56,0,0,0,157,28c.64,0,.88-.15.88-.78v-12a19.41,19.41,0,0,0-.16-2.86c.72,0,1.46.06,2.16.14.2,0,.32.12.32.22a1,1,0,0,1-.14.42,7.15,7.15,0,0,0-.12,2Z"/><path d="M172.73,16.56a25,25,0,0,1-2.5,8.62,3.82,3.82,0,0,1-3.41,2.31c-1.76,0-3.54-1.89-3.54-5.15a7.37,7.37,0,0,1,2.26-5.2,8.78,8.78,0,0,1,6.51-2.56c4.8,0,7.62,3,7.62,6.94,0,3.72-2.1,6.07-6.16,7.29-.42.12-.6,0-.86-.36a4.24,4.24,0,0,0-1.4-1.27c3.38-.8,6-2.2,6-6a4.54,4.54,0,0,0-4.48-4.64ZM167,18.5a5.76,5.76,0,0,0-1.56,3.7c0,1.84.74,2.86,1.36,2.86s1-.26,1.5-1.22a22.58,22.58,0,0,0,2.13-7.16A6,6,0,0,0,167,18.5Z"/><path d="M194,12.46c.26-.12.3-.1.38.1a16,16,0,0,0,6.48,7.38,6.85,6.85,0,0,0-1.16,1.5c-.18.3-.26.44-.38.44s-.22-.1-.42-.26A16.55,16.55,0,0,1,197,20c0,.58,0,1.28-.06,2a40.21,40.21,0,0,1-.5,5.61c-.26,1.58-1,2.46-3,2.46-.5,0-.88,0-1.36,0s-.6,0-.74-.7a4.11,4.11,0,0,0-.62-1.6,16.09,16.09,0,0,0,2.28.17c.84,0,1.18-.32,1.34-1.24a33,33,0,0,0,.38-5h-3.56A9.7,9.7,0,0,1,185,30.17a1.31,1.31,0,0,1-.48.16c-.16,0-.22-.14-.42-.48a3.78,3.78,0,0,0-1-1.2c3.64-1.32,5.4-3.45,5.78-7h-.23c-1.89,0-2.53,0-2.65,0s-.22,0-.22-.22V20a21.79,21.79,0,0,1-1.94,1.66c-.22.16-.34.26-.44.26s-.22-.14-.42-.44a4.48,4.48,0,0,0-1.12-1.22,15.62,15.62,0,0,0,5.78-6.6,5.66,5.66,0,0,0,.4-1.28,14.59,14.59,0,0,1,2.09.7c.22.1.28.2.28.34a.41.41,0,0,1-.16.3,1.51,1.51,0,0,0-.46.64,18.26,18.26,0,0,1-3.67,5.3c.28,0,1,0,2.53,0h5.38c1.74,0,2.4,0,2.6,0a21.06,21.06,0,0,1-4.3-6.34c-.08-.22,0-.24.18-.34Z"/><path d="M208.28,17.56a9,9,0,0,0,2.93,2.28,4.47,4.47,0,0,0-.64,1c-.14.32-.22.48-.36.48s-.23-.1-.44-.28a10,10,0,0,1-2.19-2.44c0,1.6.08,2,.08,2.2s0,.22-.22.22H206.1c-.2,0-.22,0-.22-.22s.06-.56.08-2a10.87,10.87,0,0,1-2.62,2.62c-.22.16-.34.24-.46.24s-.22-.12-.34-.38a3.74,3.74,0,0,0-.72-1.1,10.66,10.66,0,0,0,3.46-2.64h-.4c-1.68,0-2.26,0-2.38,0s-.2,0-.2-.22V16.26c0-.2,0-.22.2-.22s.7,0,2.38,0h1V14.56a16.53,16.53,0,0,0-.14-2.42c.72,0,1.2.06,1.88.14.22,0,.32.1.32.2a1.9,1.9,0,0,1-.14.48,8.08,8.08,0,0,0-.08,1.6v1.52h.84c1.71,0,2.27,0,2.39,0s.22,0,.22.22v1.12c0,.2,0,.22-.22.22s-.68,0-2.39,0Zm-3.48,7.22c-1.7,0-2.26,0-2.38,0s-.22,0-.22-.22V23.34c0-.2,0-.22.22-.22s.68,0,2.38,0h.92a8.21,8.21,0,0,0,0-1.72c.8.06,1.34.1,1.78.16.22,0,.34.12.34.24a.86.86,0,0,1-.1.32,2.67,2.67,0,0,0-.18,1h.92c1.75,0,2.29,0,2.41,0s.24,0,.24.22V24.6c0,.2,0,.22-.24.22s-.66,0-2.41,0H208a6.18,6.18,0,0,0,3,2.56,5,5,0,0,0-.95,1c-.19.3-.29.44-.44.44s-.24-.1-.46-.26a7.46,7.46,0,0,1-2.18-2.46,7.28,7.28,0,0,1-3.14,3.56,1,1,0,0,1-.42.18c-.14,0-.26-.12-.46-.44a4.55,4.55,0,0,0-1-1.05,5.53,5.53,0,0,0,3.52-3.56Zm-1-11.88c.2-.1.26-.08.4.08a10.6,10.6,0,0,1,1.1,1.86c.1.22.06.28-.2.4l-.94.44c-.24.12-.3.14-.38-.06a10.62,10.62,0,0,0-1-1.9c-.14-.2-.16-.26.12-.4Zm5.1.68a3.62,3.62,0,0,0,.29-.88,9.91,9.91,0,0,1,1.47.54c.17.06.23.16.23.24s0,.16-.18.28a1.44,1.44,0,0,0-.28.38c-.16.36-.43.8-.68,1.24-.17.26-.25.36-.37.36a1,1,0,0,1-.38-.16,6.24,6.24,0,0,0-1-.4A9.72,9.72,0,0,0,208.86,13.58Zm5.93,13.87c.2.14.22.22.22.31s-.1.19-.24.25a2.45,2.45,0,0,0-.52.36,13,13,0,0,1-2.68,1.8,1.45,1.45,0,0,1-.52.2c-.18,0-.28-.14-.48-.48a4.91,4.91,0,0,0-.82-1,10.25,10.25,0,0,0,3-1.59,4.13,4.13,0,0,0,.68-.7A10.65,10.65,0,0,1,214.79,27.45ZM214,14.68c-1.78,0-2.38,0-2.5,0s-.22,0-.22-.22V13c0-.2,0-.22.22-.22s.72,0,2.5,0h3.72c1.8,0,2.4,0,2.52,0s.2,0,.2.22V14.5c0,.2,0,.22-.2.22s-.72,0-2.52,0h-1a15.48,15.48,0,0,1-.62,1.5H217c1.6,0,2.16,0,2.3,0s.22,0,.22.2,0,.82,0,2.34V24c0,1.52,0,2.21,0,2.3s0,.25-.22.25-.7,0-2.3,0h-2.66c-1.62,0-2.16,0-2.28,0s-.24,0-.24-.25,0-.78,0-2.3V18.76c0-1.6,0-2.28,0-2.42s0-.2.24-.2.62,0,2,0a12.26,12.26,0,0,0,.58-1.5Zm-.22,4.42h3.84V17.84h-3.84Zm3.84,2.82V20.6h-3.84v1.32Zm0,1.5h-3.84v1.42h3.84Zm-.54,3.33a.36.36,0,0,1,.26-.15.34.34,0,0,1,.2.11,10.51,10.51,0,0,0,3.3,2,4.64,4.64,0,0,0-.82,1.12c-.18.34-.28.46-.44.46a1.14,1.14,0,0,1-.46-.18,11.84,11.84,0,0,1-2.9-2.18.29.29,0,0,1-.1-.2c0-.07,0-.15.16-.24Z"/><path d="M231.85,16.82c-2.45.46-4.59.88-6.73,1.32-.76.18-1,.22-1.26.32a1.17,1.17,0,0,1-.44.16.47.47,0,0,1-.38-.3,13.94,13.94,0,0,1-.74-2.16,27.59,27.59,0,0,0,3.18-.34c2.46-.36,6.87-1,12-1.7.3,0,.4.08.42.22a11.43,11.43,0,0,1,.22,1.76c0,.24-.12.3-.38.3a8.92,8.92,0,0,0-2.44.44c-3.4,1.16-5.1,3.5-5.1,5.9,0,2.58,1.84,4,5.32,4.2.32,0,.44.08.44.31a7.18,7.18,0,0,1-.22,1.72c-.06.3-.14.42-.38.42-3.52,0-7.39-2-7.39-6.19,0-2.84,1.42-4.76,3.85-6.34Zm4,2.16c.1-.08.18-.06.3,0a9.2,9.2,0,0,1,1.9,2.14.2.2,0,0,1-.06.32l-.84.62a.21.21,0,0,1-.34-.06,9.92,9.92,0,0,0-2-2.32Zm1.78-1.3c.12-.08.18-.06.3,0a8.35,8.35,0,0,1,1.9,2.06.23.23,0,0,1-.06.36l-.8.62a.21.21,0,0,1-.34-.06,9.46,9.46,0,0,0-2-2.3Z"/><path d="M254.65,18.78a6.26,6.26,0,0,0,0-1.36,8.62,8.62,0,0,1,2.32.86.38.38,0,0,1,.14.54,3.36,3.36,0,0,0-.32.78c-.16.84-.36,1.72-.56,2.58a23.14,23.14,0,0,1,3.12,1.92c.2.12.18.22.12.42a18.58,18.58,0,0,1-.86,1.73c-.06.09-.12.13-.18.13a.41.41,0,0,1-.24-.13,15.73,15.73,0,0,0-2.62-1.89,12.25,12.25,0,0,1-4,5.27c-.18.14-.28.22-.4.22a.55.55,0,0,1-.3-.14,4.24,4.24,0,0,0-1.75-.83,11,11,0,0,0,4.49-5.42,13.5,13.5,0,0,0-4-1.22,14.12,14.12,0,0,1-2.44,4,3.31,3.31,0,0,1-2.56,1.09c-1.16,0-2.38-.79-2.38-2.74,0-2.48,2.56-4.42,5.9-4.42.66-1.66,1.17-3.06,1.67-4.74l-2.77.32a4.2,4.2,0,0,0-.9.22,1.05,1.05,0,0,1-.36.08.32.32,0,0,1-.32-.22,12.12,12.12,0,0,1-.58-2.18,7.45,7.45,0,0,0,1.76.12,22.58,22.58,0,0,0,3.11-.26,2.31,2.31,0,0,0,1-.34.44.44,0,0,1,.26-.08.46.46,0,0,1,.28.08,6.68,6.68,0,0,1,1.36,1.1.48.48,0,0,1,.18.34.51.51,0,0,1-.2.34,2.72,2.72,0,0,0-.54,1c-.52,1.36-1.08,2.92-1.68,4.36a16.58,16.58,0,0,1,3.88,1A19.79,19.79,0,0,0,254.65,18.78Zm-10.57,5.58c0,.64.22.92.7.92a1.62,1.62,0,0,0,1.16-.76,13.67,13.67,0,0,0,1.46-2.44C245.36,22.16,244.08,23.22,244.08,24.36Z"/><path d="M267.73,20.44a6,6,0,0,1,3.18-.9,4.64,4.64,0,0,1,5,4.8c0,3.34-2.7,5.49-7,5.49-2.53,0-4.05-1.08-4.05-2.95a2.66,2.66,0,0,1,2.83-2.44,3.64,3.64,0,0,1,3.76,2.93,3,3,0,0,0,2-3.05,2.92,2.92,0,0,0-3.14-3,8.19,8.19,0,0,0-5.13,2.12c-.58.52-1.14,1.1-1.74,1.7-.14.14-.24.22-.34.22a.49.49,0,0,1-.3-.18,9,9,0,0,1-1.18-1.3c-.12-.16-.06-.3.1-.46A48.14,48.14,0,0,0,266.48,19c1.25-1.28,2.19-2.28,3.11-3.42-1.2.22-2.63.5-3.87.76a6.16,6.16,0,0,0-.84.24,1.47,1.47,0,0,1-.4.1.45.45,0,0,1-.44-.34,9.58,9.58,0,0,1-.7-2.16,9.64,9.64,0,0,0,1.86,0c1.22-.12,3-.38,4.55-.68a5.31,5.31,0,0,0,1.1-.3,1,1,0,0,1,.38-.16.71.71,0,0,1,.46.16A7.57,7.57,0,0,1,273,14.5a.69.69,0,0,1,.22.48.53.53,0,0,1-.34.48,3.23,3.23,0,0,0-.88.64c-1.46,1.42-2.8,2.82-4.32,4.28Zm0,5.7c-.58,0-1,.34-1,.76,0,.63.54,1.05,1.74,1.05a4.38,4.38,0,0,0,.92-.08C269.19,26.76,268.59,26.14,267.75,26.14Z"/><path d="M291.57,21.76H279.4V20.6h12.17Z"/><path d="M296.54,21.42c-.74,1-.78,1.06-.82,1.06s-.06,0-.08-.06A13.06,13.06,0,0,0,293.7,20c2.12-1.76,4.08-6.12,4.49-8.14a13.65,13.65,0,0,1,3.28,1.1h10.18V17.1H313v2.46h-1.32V25H309V24h-2.36a8.09,8.09,0,0,1-4.62,6.57.28.28,0,0,1-.12,0,.18.18,0,0,1-.1-.06,14.32,14.32,0,0,0-2.56-1.72v1.68h-2.85Zm4,.06h3.6V19.56H300V17.1h4.2V15.42h-3.24V13.26h-.06a26.41,26.41,0,0,1-1.5,3.42c.34,0,.46.14.46.24s-.27.28-.54.36V28.63c3.12-1,4.26-2.5,4.68-4.65h-3.4ZM309,17.1V15.42h-2.16V17.1Zm0,4.38V19.56h-2.16v1.92Z"/><path d="M315.26,17.42h4.89V15.76h-5.81V13.1h18.27v2.66h-6v1.66h5.16v13h-2.84V29.27H318.08v1.26h-2.82Zm13.65,9.3,0-2.34a3.43,3.43,0,0,1-2.5.66c-1.78,0-2.5-.92-2.5-2.22l0-3h-1.22c-.12,2.28-.76,4.5-3.22,5.82a.27.27,0,0,1-.14.06s-.08,0-.14-.08a7.69,7.69,0,0,0-1.17-.82l0,1.9Zm-10.85-3.2a4,4,0,0,0,2.15-3.68h-2.15Zm5.89-6.1,0-1.66h-1.2v1.66Zm5,2.42h-2.46v2.38c0,.32.08.48.44.48s.58-.06.58-2c0,0,.78.74,1.44,1.26Z"/><path d="M336.5,19.36h-2V16.92h2V13.64s0-.8-.06-1.34c0,0,2.16,0,2.87.14.27,0,.42.14.42.24s-.2.26-.63.36c0,.26,0,.94,0,.94v2.94h1.79v1.9l.76-.24V15.26s0-1.3-.06-1.72c0,0,2.44.06,2.88.14.22,0,.32.12.32.24s-.18.28-.58.36c0,.24,0,.92,0,.92v2.6l1.34-.4V13.64s0-1.08-.06-1.56c0,0,2.38,0,2.82.12.22,0,.32.12.32.24s-.18.28-.58.36c0,.24,0,.8,0,.8v3l4.1-1.26c0,.42,0,1,0,1.58,0,4.72-.3,6.26-1.08,7.26a10.22,10.22,0,0,0,1.92,1.58c.14.06.16.13.16.21s0,.13,0,.21c-.4,3.45-2.36,3.81-5.92,3.81-3,0-5.5,0-5.5-2.94v-6l-1.3.42-.8-2.16h-.45v4.22a17.42,17.42,0,0,0,2-.84s0,.72,0,1.38c0,.32,0,.64,0,.85,0,.05,0,.09,0,.13s-.06.12-.18.18a49.33,49.33,0,0,1-5.41,2.17v.11c0,.28-.08.47-.2.47s-.2-.1-.3-.28a26.76,26.76,0,0,1-1.18-2.65,24.78,24.78,0,0,0,2.66-.68Zm9,.52-1.34.42v6.13c0,1,.52,1.12,2.54,1.12,3.28,0,3.54-.33,3.62-2.75a2.35,2.35,0,0,1-1.22.32c-.48,0-.5,0-.52-.19a10.87,10.87,0,0,0-.62-1.77v2.68h-2.46Zm2.46,2.38a2.31,2.31,0,0,0,.58.12c.8,0,1-1,1-3.78l-1.54.5Z"/><path d="M355.3,13h16.51v2.54H358.17v9.14a15.7,15.7,0,0,0,4.9-3.44,34.71,34.71,0,0,0-4.2-2.6l2-1.8c1.08.6,2.42,1.4,3.86,2.38a14.73,14.73,0,0,0,2-3.58s2.56,1,3,1.26a.35.35,0,0,1,.18.26c0,.1-.12.2-.38.2a2.23,2.23,0,0,1-.34,0A25,25,0,0,1,367,20.82a30.57,30.57,0,0,1,3.54,3.34l-2.24,2.1a17.62,17.62,0,0,0-3-3.34,16.18,16.18,0,0,1-4.82,3.8.12.12,0,0,1-.1,0,10.69,10.69,0,0,0-2.12-1.51V27h14.12v2.61H358.17v1H355.3Z"/><path d="M46.32,80.93c-1.85,1.37-3.45,2.49-4.67,3.31C39,81,36.39,79.18,35.38,79.88c-1.31.9.42,5.65,3.85,10.63s7.27,8.27,8.57,7.37c1-.71.17-3.8-1.9-7.5,1.72-1.1,4.18-2.71,7-4.67C50.84,84.24,48.59,82.63,46.32,80.93Z"/><path d="M35.3,88.23,24.66,95a2,2,0,0,0-.46,2.75l2.6,3.63a2,2,0,0,0,2.75.45l10.27-6.7a40.62,40.62,0,0,1-2.54-3.42A34.12,34.12,0,0,1,35.3,88.23Z"/><path d="M80.37,62a17.06,17.06,0,0,0-.83-20.14s-.2.7-.76,2.29C74,55.51,64.52,65.65,56.06,73.09c2.44,2.08,4.77,3.92,6.83,5.48C70,73.15,77.16,67,80.37,62Z"/><path d="M73.84,79.88c-1-.7-3.58,1.16-6.28,4.36l-.48-.32c-7.84-5.36-28.62-20.87-36.65-39.76-.55-1.59-.76-2.29-.76-2.29A17.06,17.06,0,0,0,28.84,62c6.18,9.63,26.9,23.5,34.32,28.28l.15.09c-2.07,3.7-2.92,6.79-1.9,7.5,1.3.9,5.14-2.4,8.57-7.37S75.14,80.78,73.84,79.88Zm-9.9,7.8c-19.18-14-31-23.22-33.13-33l1-.22c2.06,9.4,14.3,18.93,32.73,32.38Z"/><path d="M84.55,95,73.91,88.23a34.12,34.12,0,0,1-2,3.48,41.8,41.8,0,0,1-2.53,3.42l10.26,6.7a2,2,0,0,0,2.75-.45L85,97.75A2,2,0,0,0,84.55,95ZM74.43,96l-.16-2.82,2.63-1L77.06,95Zm4,2.56-.16-2.82,2.63-1,.16,2.82Z"/></g></g></svg>