<svg xmlns="http://www.w3.org/2000/svg" viewBox="0 0 401.61 126.64"><defs><style>.cls-1,.cls-2,.cls-3{fill:#fff;stroke:#000;stroke-miterlimit:10;}.cls-1{stroke-width:4.21px;}.cls-2{stroke-width:4.3px;}.cls-3{stroke-width:4.3px;}.cls-4{fill:#060001;}</style></defs><title>アセット 304</title><g id="レイヤー_2" data-name="レイヤー 2"><g id="レイヤー_1-2" data-name="レイヤー 1"><polygon class="cls-1" points="399.46 40.55 41.15 40.55 59.89 2.11 399.46 2.11 399.46 40.55"/><rect class="cls-2" x="52.6" y="40.54" width="346.85" height="69.43"/><path d="M198.36,88.87c0,.34,0,.55-2.08.55-1.53,0-1.56-.21-1.56-.51v-.07c0-.51,0-1,0-1.6-1.22,0-4.72-.1-5.67-.1s-4.66.07-6,.1l.06,1.77c0,.54-.13.58-1.9.58s-1.84-.14-1.84-.48v-.17a71.29,71.29,0,0,0,.31-7.44c0-2.21,0-4-.14-5.78a1.46,1.46,0,0,1,0-.34c0-.1,0-.14.21-.14s.2,0,.34,0c1.22.06,4.48.13,6.93.13,0-1.66,0-3.16,0-5.13-3.12,0-6.73.07-12.47.37-.41,0-.51-.17-.51-1.6,0-1.93,0-2,.51-2,5.78.3,9.38.41,12.47.41v-1.7a42.7,42.7,0,0,0-.4-5.44v-.21c0-.17,0-.2.23-.2.82.07,4.46.41,4.46,1.22a1.9,1.9,0,0,1-.38.92,4.59,4.59,0,0,0-.57,2.62v2.79c3.23,0,7.1-.07,13-.41.38,0,.44.07.44,1.83,0,.62,0,1.19,0,1.53,0,.17-.2.24-.41.24-5.74-.3-9.72-.34-13-.37v5.13c2.17,0,5.37-.1,7.41-.2.37,0,.47.13.47.41v.1c-.13,1.87-.17,3.63-.17,4.89,0,4.46.07,6.53.21,8.09Zm-3.54-7.58c0-1,0-3,0-3s-2.86,0-4.66,0H189l-5.88,0s0,1.77,0,3.09v2.83c1.25,0,5.06.06,5.91.06s4.63-.06,5.78-.06Z"/><path d="M232.19,70c0,.34.07.72.13,1.09v0c0,.07-.1.21-.2.21a10.23,10.23,0,0,1-1.12.07c-1.33,0-1.63,0-1.63-.34.06-.48.13-.75.17-1.09-1.06,0-1.94,0-2.59,0h-2c0,.38.07.79.14,1.16v0a.25.25,0,0,1-.21.21,10.23,10.23,0,0,1-1.12.07c-1.32,0-1.63,0-1.63-.34a9.43,9.43,0,0,0,.17-1c-1,0-2.18.1-3.6.2v.65a12.7,12.7,0,0,1,0,1.36.32.32,0,0,1-.34.23l-3-.13c0,.85,0,3.53.07,5.47,1.46-.54,2.72-1.05,3.33-1.32a1,1,0,0,1,.2-.07c.11,0,.11.1.11.3s0,.75,0,1.16a5,5,0,0,0,.1,1v.1c0,.27-.23.48-8.83,4-.41.17-.75.61-1.09.61a.53.53,0,0,1-.41-.24c-1.9-2.41-2.11-2.72-2.11-2.92s.17-.17.38-.17a29.34,29.34,0,0,0,5.23-1.39c0-2.32.1-5.55.1-6.57-1.19,0-2.31.11-3.6.17-.31,0-.37-.13-.37-1.36,0-.61,0-1.25,0-1.53s.14-.3.27-.3h.07c1.33.13,2.41.24,3.6.27a65.73,65.73,0,0,0-.4-8.81v-.13c0-.14,0-.14.1-.14s4.28.31,4.28,1.13c0,.37-.44.85-.65,1.32s-.23.54-.37,6.6c.88,0,1.63-.11,2.79-.21,0-1.36,0-1.8.3-1.8h.14c1.53.1,2.75.17,3.77.2A10.49,10.49,0,0,0,222,66a.11.11,0,0,1,0-.1c0-.1.07-.14.21-.14,3.16.27,3.43.58,3.43.82s-.27.54-.47.85a.86.86,0,0,0-.17.41h4.62a8.65,8.65,0,0,0-.31-1.84.13.13,0,0,1,0-.1c0-.1.07-.14.2-.14,1.36.14,3.4.34,3.4.82a2,2,0,0,1-.44.85,1.19,1.19,0,0,0-.13.34c1.52,0,3.29-.14,5.26-.27a.35.35,0,0,1,.38.3c0,.27,0,.78,0,1.29,0,1.09-.07,1.16-.41,1.16Zm-6.39,17.1a2.11,2.11,0,0,0-.85.27A26.93,26.93,0,0,1,215.56,90a.65.65,0,0,1-.58-.28,10,10,0,0,0-2.24-2.21c-.13-.1-.24-.2-.24-.27s.11-.1.38-.1c6.32,0,10.37-2,11.11-2.55.11-.1.17-.17.24-.17s2.25,1.77,2.25,2.24C226.48,86.87,226.2,87,225.8,87.07Zm9.14-21.76c-3.13-.2-4.93-.27-6.36-.3,0,.51.11.95.17,1.53,0,.2-.13.34-1.39.34s-1.67-.07-1.67-.38c.07-.57.14-1,.17-1.49-1.19,0-2.58.1-5.57.3h-.07c-.31,0-.34-.23-.34-1.32,0-1.5.1-1.5.41-1.5,3.16.28,4.45.34,5.61.34a12.4,12.4,0,0,0-.27-3v-.1c0-.11,0-.17.2-.17,3.37.3,3.54.74,3.54,1a1.62,1.62,0,0,1-.48.88c-.24.24-.27,1-.31,1.43,1.43,0,3.13-.06,6.36-.34.2,0,.34,0,.34,1.63a9.45,9.45,0,0,1,0,1,.35.35,0,0,1-.28.2ZM234,84.08c0,.27-.17.27-.34.31-2.78,0-2.85,0-2.85-.28v-.64c-.65,0-1.91,0-3.81,0-1.56,0-2.65,0-3.4,0,0,.27,0,.58,0,.88v.07c0,.14-.1.17-.34.17s-.85,0-1.32,0c-1.06,0-1.63-.06-1.63-.2v-.07a56.78,56.78,0,0,0,.4-5.67,51.57,51.57,0,0,0-.2-6.8v-.07c0-.1,0-.1.14-.1h.13c2.69.1,3.27.13,6.16.13,1.46,0,2.31,0,3.12,0a31.41,31.41,0,0,0,3.47-.21h.1c.14,0,.21.07.21.17v.1a38.89,38.89,0,0,0-.14,3.91c0,4.29.1,6,.27,8.16ZM231,76.91c-.64,0-1.9,0-3.91,0-1.73,0-2.82,0-3.53,0v1.32c.71,0,1.87,0,3.5,0,2,0,3.33,0,3.94,0Zm0,4.55c0-.44,0-.88,0-1.36-.64,0-1.9,0-3.91,0-1.73,0-2.82,0-3.53,0,0,.48,0,.92,0,1.36ZM227,73.75c-2.72,0-3.4.06-3.4.06s0,.48,0,1.19c.72,0,1.87,0,3.47,0,2,0,3.26,0,3.91,0,0-.68,0-1.19,0-1.19S229.67,73.75,227,73.75Zm12.34,13.08c0,.07-.07.14-.21.24a13,13,0,0,0-2.58,2.38c-.1.14-.17.17-.27.17a.75.75,0,0,1-.24,0c-4.11-.92-7.55-3-7.55-3.27s1.46-1.56,1.67-1.66a.42.42,0,0,1,.24-.1.7.7,0,0,1,.17.06,21.1,21.1,0,0,0,8.49,2C239.19,86.7,239.33,86.73,239.33,86.83Z"/><path d="M253.13,82.76c0,.34-.1.57-1.7.57-.92,0-1.63,0-1.63-.47v-.07c0-.65,0-1.5.07-2.41-.38,0-1-.07-1.46-.07s-1.19,0-1.57.07c0,1.52,0,3,.07,4.35,0,.58-.07.61-1.7.61s-1.73-.2-1.73-.55v-.1c.3-4.65.37-9.75.37-12.54,0-3.5-.07-6.26-.2-9.05,0-.13,0-.2,0-.3s.07-.2.24-.2.17,0,.27,0c1.09.1,2.59.17,4.32.17s2-.07,4.22-.2c.37,0,.44.13.44.47-.24,2.69-.24,5.81-.24,8.74,0,2.55.07,8.06.27,10.74Zm-4.76-17.34c-1,0-1.53,0-1.53,0s-.06,2.11-.06,4.52c.4,0,1.08,0,1.59,0s1.23,0,1.6,0c0-2.17-.1-4.52-.1-4.52s-.34,0-1,0Zm1.6,7.31c-.37,0-1,0-1.56,0s-1.26,0-1.63,0c0,1.32,0,3,0,4.86.41,0,1.05,0,1.56,0s1.16,0,1.53,0C249.94,75.75,250,74,250,72.73Zm21.83.17c-3.78-.38-7.31-.41-9.45-.41s-3.91.07-8.37.34c-.34,0-.41-.1-.41-1.57s0-1.63.41-1.63c3.33.27,5.07.34,6.84.34V67.29c-1.53,0-3,.06-5.48.2-.3,0-.37,0-.37-1.46s.07-1.53.44-1.53c2.38.2,3.91.2,5.34.2v-.34a27.27,27.27,0,0,0-.48-5v-.17c0-.17,0-.2.24-.2.54,0,4.35.4,4.35,1.12,0,.27-.3.61-.51,1-.37.71-.34.64-.47,2.85a3.77,3.77,0,0,0,0,.68c1.29,0,2.59-.06,5.2-.23.17,0,.41,0,.41,1.56a6.7,6.7,0,0,1-.07,1.26c0,.13-.2.2-.3.2h0c-2.55-.14-3.74-.17-5.23-.2V70c2.11,0,4.86-.17,8-.41.23,0,.37.24.37,1.67a13.6,13.6,0,0,1-.07,1.43c0,.13-.17.24-.27.24Zm-4.59,13c0,2-1.12,4.25-5.1,4.25q-.32,0-.51-.51c-.65-1.53-1.84-2.07-2.65-3-.11-.11-.17-.17-.17-.24s0-.07.13-.07.1,0,.17,0a19.7,19.7,0,0,0,2.76.28c1.29,0,2-.34,2-1.33.06-1.33.06-4,.06-5.54v-2h-1.46c-2.17,0-3.94.07-8.33.34a.33.33,0,0,1-.34-.31c0-.27,0-.78,0-1.32,0-1.64,0-1.64.37-1.64,4.22.34,6,.34,8.33.34h1.36a12.86,12.86,0,0,0-.27-2,.86.86,0,0,0,0-.13c0-.14.1-.21.27-.21s4,.34,4,1a.81.81,0,0,1-.27.54c-.3.41-.41.41-.44.75,1.4-.07,3-.17,4.62-.3h0c.2,0,.34.27.34,1.7,0,.54,0,1.12-.07,1.46a.33.33,0,0,1-.27.24h0c-1.66-.17-3.26-.28-4.69-.31v2.92c0,1.84.17,3,.21,4.93Zm-7.52-1.49c-.06,0-.13-.07-.2-.14a19.47,19.47,0,0,0-4.25-3.64c-.1-.06-.14-.1-.14-.17,0-.37,1.5-1.36,1.84-1.56a.31.31,0,0,1,.17-.1c.07,0,.1,0,.17.07a16.83,16.83,0,0,1,4.45,2.88.31.31,0,0,1,.11.21,14.78,14.78,0,0,1-2,2.38C259.8,84.35,259.76,84.39,259.69,84.39Z"/><path d="M281,89.32c.5-4.59.74-12,.88-17.58-.31.37-3.81,4.73-4.56,4.73a.39.39,0,0,1-.27-.07,9.4,9.4,0,0,0-2.85-1.06c-.21,0-.34-.1-.34-.17s.06-.13.17-.2c5.84-4.15,10.5-12,10.91-14.28,0-.13.07-.2.17-.2.58,0,4,1.46,4,2.11,0,.23-.28.47-.79.67s-.68.14-.95.68A39.91,39.91,0,0,1,285,67.52c.24.07.41.17.54.21a.42.42,0,0,1,.34.41,1.06,1.06,0,0,1-.34.64,2.12,2.12,0,0,0-.51,1.63c-.13,4.22-.3,9.76-.3,14.28,0,1.77,0,3.37.1,4.69,0,.17-.1.34-1.94.34-1.6,0-1.93,0-1.93-.34Zm23.52-18.19c0,.13-.24.27-.34.27-5.1.37-5.85.44-8.84.88l-.71.11c2,10.13,7.61,12.92,8.29,12.92s1.6-1,1.84-3.81c0-.21.07-.28.17-.28s.13.07.2.17a12.07,12.07,0,0,0,2.72,2.76.52.52,0,0,1,.24.51c-.92,3-2.55,4.66-4.56,4.66a5.16,5.16,0,0,1-2.72-.92c-5.6-3.54-8.09-9.52-9.34-15.47l-4.87,1h-.1a.39.39,0,0,1-.41-.24,13.43,13.43,0,0,1-.37-2.68v-.14c0-.34.17-.41.37-.41,2.15-.13,3.61-.27,4.87-.44-.28-1.73-.48-3.47-.62-5.1s-.27-3-.47-3.91a1.76,1.76,0,0,1-.07-.37.18.18,0,0,1,.2-.21c.07,0,.14,0,.21,0,3.67.44,4.42.57,4.42,1.12a3.27,3.27,0,0,1-.51,1.19,2.62,2.62,0,0,0-.21,1.12,47.58,47.58,0,0,0,.28,5.68l.74-.1c3.27-.45,4.08-.62,8.74-1.6h.07a.36.36,0,0,1,.37.3,18.12,18.12,0,0,1,.41,2.89Zm-5.17-3.54a23,23,0,0,0-4.11-2.82c-.14-.07-.27-.1-.27-.24a5.68,5.68,0,0,1,1.77-2.21c.64,0,4.79,2.32,4.79,2.76s-1.36,2.68-1.8,2.68A.51.51,0,0,1,299.3,67.59Z"/><path d="M106.42,24.16a21,21,0,0,0,1.94-.92,8.41,8.41,0,0,0,0,1.24c0,.66,0,.64-.52.92-1.24.62-2.66,1.2-4,1.7a3.15,3.15,0,0,0-.66.33.51.51,0,0,1-.34.13c-.12,0-.22,0-.3-.23a18.35,18.35,0,0,1-.54-1.78,14.47,14.47,0,0,0,2-.51l.46-.14V19.22h-.16c-1.3,0-1.7,0-1.82,0s-.2,0-.2-.22V17.52c0-.2,0-.22.2-.22s.52,0,1.82,0h.16V15.46a16.94,16.94,0,0,0-.16-2.94c.78,0,1.4.06,2.06.14.2,0,.32.12.32.24a1.13,1.13,0,0,1-.12.4,6.71,6.71,0,0,0-.12,1.9v2.14c1.14,0,1.52,0,1.64,0s.2,0,.2.22V19c0,.2,0,.22-.2.22s-.5,0-1.64,0Zm5,2.78c0,.53.1.77.38.91s.9.22,2.88.22c2.16,0,2.82-.1,3.22-.43s.42-.67.48-2.25a5.67,5.67,0,0,0,1.44.63c.5.15.5.15.44.66-.18,1.75-.42,2.29-1.08,2.71s-1.64.66-4.74.66c-2.72,0-3.72-.24-4.22-.56s-.76-.9-.76-2V21.26c-1,.36-1.44.54-1.6.58s-.22,0-.26-.16l-.26-1.56c0-.2,0-.2.16-.26s.68-.16,2-.58v-2.2a20.22,20.22,0,0,0-.12-2.84q1,0,1.92.12c.28,0,.4.12.4.22a.9.9,0,0,1-.12.42,6.05,6.05,0,0,0-.12,1.9v1.72l1.92-.64v-2.9a20.74,20.74,0,0,0-.16-2.84,15.94,15.94,0,0,1,2,.16c.2,0,.32.1.32.22a1.13,1.13,0,0,1-.12.4,6.27,6.27,0,0,0-.12,1.8v2.52l1.54-.52c1.88-.62,2.48-.88,2.62-.9s.22,0,.22.2l-.06,2.56a19.56,19.56,0,0,1-.48,4.52c-.3,1.16-.86,1.52-1.72,1.52a4.72,4.72,0,0,1-.74,0c-.44,0-.44,0-.54-.66a5,5,0,0,0-.42-1.44,4.68,4.68,0,0,0,1.06.14c.34,0,.48-.1.6-.74a19.06,19.06,0,0,0,.24-3.5l-2.32.8v3.48c0,2,0,3,0,3.1s0,.23-.22.23h-1.6c-.2,0-.22,0-.22-.23s0-1.09,0-3.1V19.94l-1.92.66Z"/><path d="M125.28,27.37h11.64c1.94,0,2.62,0,2.74,0s.22,0,.22.22v1.6c0,.2,0,.22-.22.22s-.8,0-2.74,0H125.28v.86c0,.2,0,.22-.24.22h-1.7c-.2,0-.22,0-.22-.22s0-1.48,0-4.21V17.34c0-2.74,0-4.08,0-4.2s0-.24.22-.24.8,0,2.68,0h10.76c1.86,0,2.5,0,2.62,0s.24,0,.24.24v1.58c0,.2,0,.22-.24.22s-.76,0-2.62,0h-11.5ZM128.34,17c.18-.18.2-.2.38-.08,1.32.84,2.64,1.78,4,2.8a17.34,17.34,0,0,0,1.5-2.48,6,6,0,0,0,.56-1.62,11.28,11.28,0,0,1,1.92.76c.2.1.3.18.3.34s-.1.24-.24.36a4,4,0,0,0-.56.92,22.92,22.92,0,0,1-1.88,3c1.2,1,2.38,2,3.58,3.12.1.08.14.15.14.2s0,.14-.16.26l-1.1,1.2a.3.3,0,0,1-.22.15.23.23,0,0,1-.18-.11c-1.12-1.16-2.26-2.22-3.4-3.22A20,20,0,0,1,128,26.35a1.34,1.34,0,0,1-.48.2c-.14,0-.24-.15-.44-.45A4,4,0,0,0,126,25a18.48,18.48,0,0,0,5.38-3.76c-1.3-1-2.62-2-4-3-.1-.06-.14-.12-.14-.16s.06-.14.16-.24Z"/><path d="M149.54,21.54c1.1,0,1.42,0,1.54,0s.26,0,.26.24c0,.7-.06,1.22-.06,1.78a25.65,25.65,0,0,1-.38,4.57,2.33,2.33,0,0,1-2.54,2,8.36,8.36,0,0,1-1,0c-.54-.06-.58,0-.68-.64a3.69,3.69,0,0,0-.56-1.48c.8.1,1.52.18,1.92.18.6,0,.82-.26,1-1.2a24.32,24.32,0,0,0,.24-3.55h-2.62a11.76,11.76,0,0,1-3,6.29c-.18.2-.28.3-.38.3s-.18-.12-.34-.38a5,5,0,0,0-1.08-1.22c2.28-2.11,3-4.33,3.12-8.83l-2,0c-.22,0-.24,0-.24-.22s0-.62,0-1.78V15c0-1.16,0-1.64,0-1.78s0-.22.24-.22.68,0,2.34,0h3.32c1.64,0,2.2,0,2.34,0s.22,0,.22.22,0,.62,0,1.78v2.58c0,1.16,0,1.66,0,1.78s0,.22-.22.22-.7,0-2.34,0H147q0,1.08-.12,2Zm-4.72-3.74h4.38v-3h-4.38Zm8.4-1a21.07,21.07,0,0,0-.14-3c.7,0,1.36.06,2,.14.2,0,.3.1.3.22a1.87,1.87,0,0,1-.14.44,13.65,13.65,0,0,0-.06,2.14v5.52c0,1.7,0,2.53,0,2.65s0,.21-.24.21H153.4c-.2,0-.22,0-.22-.21s0-.95,0-2.65Zm6.24,6.84c0,1.4.06,3,.06,4s-.16,1.57-.72,2-1.16.48-3.1.5c-.62,0-.62,0-.76-.64a4.3,4.3,0,0,0-.64-1.5,17.56,17.56,0,0,0,2.22.1c.64,0,.88-.14.88-.78v-12a19.41,19.41,0,0,0-.16-2.86c.72,0,1.46.06,2.16.14.2,0,.32.12.32.22a1,1,0,0,1-.14.42,7.15,7.15,0,0,0-.12,2Z"/><path d="M172.26,16.56a25,25,0,0,1-2.5,8.62,3.81,3.81,0,0,1-3.4,2.31c-1.76,0-3.54-1.89-3.54-5.15a7.37,7.37,0,0,1,2.26-5.2,8.75,8.75,0,0,1,6.5-2.56c4.8,0,7.62,3,7.62,6.94,0,3.72-2.1,6.07-6.16,7.29-.42.12-.6,0-.86-.36a4.24,4.24,0,0,0-1.4-1.27c3.38-.79,6-2.2,6-6a4.54,4.54,0,0,0-4.48-4.64Zm-5.74,1.94A5.76,5.76,0,0,0,165,22.2c0,1.84.74,2.86,1.36,2.86s1-.25,1.5-1.22a22.85,22.85,0,0,0,2.12-7.16A6,6,0,0,0,166.52,18.5Z"/><path d="M193.48,12.46c.26-.12.3-.1.38.1a16,16,0,0,0,6.48,7.38,6.85,6.85,0,0,0-1.16,1.5c-.18.3-.26.44-.38.44s-.22-.1-.42-.26a16.55,16.55,0,0,1-1.9-1.62c0,.58,0,1.28-.06,2a40.21,40.21,0,0,1-.5,5.61c-.26,1.58-1,2.46-3,2.46-.5,0-.88,0-1.36,0s-.6,0-.74-.7a4.11,4.11,0,0,0-.62-1.6,14.9,14.9,0,0,0,2.28.18c.84,0,1.18-.33,1.34-1.25a33,33,0,0,0,.38-5h-3.56a9.69,9.69,0,0,1-6.08,8.49,1.31,1.31,0,0,1-.48.16c-.16,0-.22-.14-.42-.48a3.78,3.78,0,0,0-1-1.2c3.64-1.32,5.4-3.45,5.78-7h-.24c-1.88,0-2.52,0-2.64,0s-.22,0-.22-.22V20a21.79,21.79,0,0,1-1.94,1.66c-.22.16-.34.26-.44.26s-.22-.14-.42-.44a4.48,4.48,0,0,0-1.12-1.22,15.62,15.62,0,0,0,5.78-6.6,5.66,5.66,0,0,0,.4-1.28,14,14,0,0,1,2.08.7c.22.1.28.2.28.34a.41.41,0,0,1-.16.3,1.6,1.6,0,0,0-.46.64,18,18,0,0,1-3.66,5.3c.28,0,1,0,2.52,0h5.38c1.74,0,2.4,0,2.6,0a21.06,21.06,0,0,1-4.3-6.34c-.08-.22,0-.24.18-.34Z"/><path d="M207.82,17.56a9.09,9.09,0,0,0,2.92,2.28,4.47,4.47,0,0,0-.64,1c-.14.32-.22.48-.36.48s-.22-.1-.44-.28a10.11,10.11,0,0,1-2.18-2.44c0,1.6.08,2,.08,2.2s0,.22-.22.22h-1.34c-.2,0-.22,0-.22-.22s.06-.56.08-2a10.87,10.87,0,0,1-2.62,2.62c-.22.16-.34.24-.46.24s-.22-.12-.34-.38a3.74,3.74,0,0,0-.72-1.1,10.66,10.66,0,0,0,3.46-2.64h-.4c-1.68,0-2.26,0-2.38,0s-.2,0-.2-.22V16.26c0-.2,0-.22.2-.22s.7,0,2.38,0h1V14.56a16.53,16.53,0,0,0-.14-2.42c.72,0,1.2.06,1.88.14.22,0,.32.1.32.2a1.9,1.9,0,0,1-.14.48,8.08,8.08,0,0,0-.08,1.6v1.52h.84c1.7,0,2.26,0,2.38,0s.22,0,.22.22v1.12c0,.2,0,.22-.22.22s-.68,0-2.38,0Zm-3.48,7.22c-1.7,0-2.26,0-2.38,0s-.22,0-.22-.22V23.34c0-.2,0-.22.22-.22s.68,0,2.38,0h.92a8.21,8.21,0,0,0,0-1.72c.8.06,1.34.1,1.78.16.22,0,.34.12.34.24a.86.86,0,0,1-.1.32,2.67,2.67,0,0,0-.18,1H208c1.74,0,2.28,0,2.4,0s.24,0,.24.22V24.6c0,.21,0,.22-.24.22s-.66,0-2.4,0h-.5a6.18,6.18,0,0,0,3,2.57,4.42,4.42,0,0,0-.94,1c-.2.3-.3.44-.44.44s-.24-.1-.46-.26a7.46,7.46,0,0,1-2.18-2.46,7.28,7.28,0,0,1-3.14,3.56,1,1,0,0,1-.42.18c-.14,0-.26-.12-.46-.44a4.31,4.31,0,0,0-1-1A5.57,5.57,0,0,0,205,24.78Zm-1-11.88c.2-.1.26-.08.4.08a10.6,10.6,0,0,1,1.1,1.86c.1.22.06.28-.2.4l-.94.44c-.24.12-.3.14-.38-.06a10.62,10.62,0,0,0-1-1.9c-.14-.2-.16-.26.12-.4Zm5.1.68a3.2,3.2,0,0,0,.28-.88,10.5,10.5,0,0,1,1.48.54c.16.06.22.16.22.24s0,.16-.18.28a1.44,1.44,0,0,0-.28.38,13.5,13.5,0,0,1-.68,1.24c-.16.26-.24.36-.36.36a.9.9,0,0,1-.38-.16,6.24,6.24,0,0,0-1-.4A10.54,10.54,0,0,0,208.4,13.58Zm5.92,13.87c.2.14.22.22.22.32s-.1.18-.24.24a2.45,2.45,0,0,0-.52.36,13,13,0,0,1-2.68,1.8,1.45,1.45,0,0,1-.52.2c-.18,0-.28-.14-.48-.48a4.3,4.3,0,0,0-.82-1,10.24,10.24,0,0,0,3-1.6,4.13,4.13,0,0,0,.68-.7A11.88,11.88,0,0,1,214.32,27.45Zm-.82-12.77c-1.78,0-2.38,0-2.5,0s-.22,0-.22-.22V13c0-.2,0-.22.22-.22s.72,0,2.5,0h3.72c1.8,0,2.4,0,2.52,0s.2,0,.2.22V14.5c0,.2,0,.22-.2.22s-.72,0-2.52,0h-1a15.48,15.48,0,0,1-.62,1.5h.94c1.6,0,2.16,0,2.3,0s.22,0,.22.2,0,.82,0,2.34V24c0,1.52,0,2.21,0,2.31s0,.24-.22.24-.7,0-2.3,0h-2.66c-1.62,0-2.16,0-2.28,0s-.24,0-.24-.24,0-.79,0-2.31V18.76c0-1.6,0-2.28,0-2.42s0-.2.24-.2.62,0,2,0a12.26,12.26,0,0,0,.58-1.5Zm-.22,4.42h3.84V17.84h-3.84Zm3.84,2.82V20.6h-3.84v1.32Zm0,1.5h-3.84v1.43h3.84Zm-.54,3.33a.36.36,0,0,1,.26-.15.34.34,0,0,1,.2.11,10.51,10.51,0,0,0,3.3,2,4.64,4.64,0,0,0-.82,1.12c-.18.34-.28.46-.44.46a1.14,1.14,0,0,1-.46-.18,11.84,11.84,0,0,1-2.9-2.18.27.27,0,0,1-.1-.2c0-.07,0-.15.16-.24Z"/><path d="M231.38,16.82c-2.44.46-4.58.88-6.72,1.32-.76.18-1,.22-1.26.32a1.17,1.17,0,0,1-.44.16.47.47,0,0,1-.38-.3,13.94,13.94,0,0,1-.74-2.16,27.59,27.59,0,0,0,3.18-.34c2.46-.36,6.86-1,12-1.7.3,0,.4.08.42.22a11.43,11.43,0,0,1,.22,1.76c0,.24-.12.3-.38.3a8.92,8.92,0,0,0-2.44.44c-3.4,1.16-5.1,3.5-5.1,5.9,0,2.58,1.84,4,5.32,4.2.32,0,.44.08.44.31A7.11,7.11,0,0,1,235.3,29c-.06.3-.14.42-.38.42-3.52,0-7.38-2-7.38-6.19,0-2.84,1.42-4.76,3.84-6.34Zm4,2.16c.1-.08.18-.06.3,0a9.2,9.2,0,0,1,1.9,2.14.2.2,0,0,1-.06.32l-.84.62a.21.21,0,0,1-.34-.06,9.92,9.92,0,0,0-2-2.32Zm1.78-1.3c.12-.08.18-.06.3,0a8.35,8.35,0,0,1,1.9,2.06.23.23,0,0,1-.06.36l-.8.62a.21.21,0,0,1-.34-.06,9.46,9.46,0,0,0-2-2.3Z"/><path d="M254.18,18.78a6.26,6.26,0,0,0,0-1.36,8.62,8.62,0,0,1,2.32.86.38.38,0,0,1,.14.54,3.36,3.36,0,0,0-.32.78c-.16.84-.36,1.72-.56,2.58a23.14,23.14,0,0,1,3.12,1.92c.2.12.18.22.12.42a17.42,17.42,0,0,1-.86,1.73c-.06.1-.12.14-.18.14a.43.43,0,0,1-.24-.14,15.73,15.73,0,0,0-2.62-1.89,12.25,12.25,0,0,1-4,5.27c-.18.14-.28.22-.4.22a.55.55,0,0,1-.3-.14,4.12,4.12,0,0,0-1.74-.82,11.1,11.1,0,0,0,4.48-5.43,13.52,13.52,0,0,0-4-1.22,14.12,14.12,0,0,1-2.44,4,3.32,3.32,0,0,1-2.56,1.1c-1.16,0-2.38-.8-2.38-2.75,0-2.48,2.56-4.42,5.9-4.42.66-1.66,1.16-3.06,1.66-4.74l-2.76.32a4.2,4.2,0,0,0-.9.22,1.05,1.05,0,0,1-.36.08.32.32,0,0,1-.32-.22,12.12,12.12,0,0,1-.58-2.18,7.45,7.45,0,0,0,1.76.12,22.32,22.32,0,0,0,3.1-.26,2.31,2.31,0,0,0,1-.34.44.44,0,0,1,.26-.08.46.46,0,0,1,.28.08,6.68,6.68,0,0,1,1.36,1.1.48.48,0,0,1,.18.34.51.51,0,0,1-.2.34,2.72,2.72,0,0,0-.54,1c-.52,1.36-1.08,2.92-1.68,4.36a16.58,16.58,0,0,1,3.88,1A19.79,19.79,0,0,0,254.18,18.78Zm-10.56,5.58c0,.64.22.92.7.92a1.62,1.62,0,0,0,1.16-.76,13.67,13.67,0,0,0,1.46-2.44C244.9,22.16,243.62,23.22,243.62,24.36Z"/><path d="M267.26,20.44a6,6,0,0,1,3.18-.9,4.64,4.64,0,0,1,5,4.8c0,3.34-2.7,5.49-7,5.49-2.52,0-4-1.08-4-2.94a2.66,2.66,0,0,1,2.82-2.45A3.64,3.64,0,0,1,271,27.37a3,3,0,0,0,2-3.05,2.92,2.92,0,0,0-3.14-3,8.14,8.14,0,0,0-5.12,2.12c-.58.52-1.14,1.1-1.74,1.7-.14.15-.24.23-.34.23s-.18-.07-.3-.19a8.51,8.51,0,0,1-1.18-1.3c-.12-.16-.06-.3.1-.46A48.14,48.14,0,0,0,266,19c1.24-1.28,2.18-2.28,3.1-3.42-1.2.22-2.62.5-3.86.76a6.16,6.16,0,0,0-.84.24,1.47,1.47,0,0,1-.4.1.45.45,0,0,1-.44-.34,9.58,9.58,0,0,1-.7-2.16,9.64,9.64,0,0,0,1.86,0c1.22-.12,3-.38,4.54-.68a5.31,5.31,0,0,0,1.1-.3,1,1,0,0,1,.38-.16.71.71,0,0,1,.46.16,7.57,7.57,0,0,1,1.34,1.28.69.69,0,0,1,.22.48.53.53,0,0,1-.34.48,3.23,3.23,0,0,0-.88.64c-1.46,1.42-2.8,2.82-4.32,4.28Zm0,5.7c-.58,0-1,.34-1,.76,0,.63.54,1.05,1.74,1.05a4.38,4.38,0,0,0,.92-.08C268.72,26.77,268.12,26.14,267.28,26.14Z"/><path d="M291.1,21.76H278.94V20.6H291.1Z"/><path d="M296.08,21.42c-.74,1-.78,1.06-.82,1.06s-.06,0-.08-.06a13.06,13.06,0,0,0-1.94-2.4c2.12-1.76,4.08-6.12,4.48-8.14A13.65,13.65,0,0,1,301,13h10.18V17.1h1.32v2.46h-1.32V25h-2.62V24H306.2a8.09,8.09,0,0,1-4.62,6.57.28.28,0,0,1-.12,0,.18.18,0,0,1-.1-.06,14.32,14.32,0,0,0-2.56-1.72v1.68H296Zm4,.06h3.6V19.56h-4.2V17.1h4.2V15.42h-3.24V13.26h-.06a26.41,26.41,0,0,1-1.5,3.42c.34,0,.46.14.46.24s-.26.28-.54.36V28.63c3.12-1,4.26-2.5,4.68-4.65h-3.4Zm8.48-4.38V15.42H306.4V17.1Zm0,4.38V19.56H306.4v1.92Z"/><path d="M314.8,17.42h4.88V15.76h-5.8V13.1h18.26v2.66h-6v1.66h5.16v13h-2.84V29.27H317.62v1.26H314.8Zm13.64,9.3,0-2.34A3.43,3.43,0,0,1,326,25c-1.78,0-2.5-.92-2.5-2.22l0-3h-1.22c-.12,2.28-.76,4.5-3.22,5.82a.27.27,0,0,1-.14.06s-.08,0-.14-.08a7.07,7.07,0,0,0-1.16-.82l0,1.9Zm-10.84-3.2a4,4,0,0,0,2.14-3.68H317.6Zm5.88-6.1,0-1.66h-1.2v1.66Zm5,2.42H326v2.38c0,.32.08.48.44.48s.58-.06.58-2c0,0,.78.74,1.44,1.26Z"/><path d="M336,19.36h-2V16.92h2V13.64s0-.8-.06-1.34c0,0,2.16,0,2.86.14.28,0,.42.14.42.24s-.2.26-.62.36c0,.26,0,.94,0,.94v2.94h1.78v1.9l.76-.24V15.26s0-1.3-.06-1.72c0,0,2.44.06,2.88.14.22,0,.32.12.32.24s-.18.28-.58.36c0,.24,0,.92,0,.92v2.6l1.34-.4V13.64s0-1.08-.06-1.56c0,0,2.38,0,2.82.12.22,0,.32.12.32.24s-.18.28-.58.36c0,.24,0,.8,0,.8v3l4.1-1.26c0,.42,0,1,0,1.58,0,4.72-.3,6.26-1.08,7.26a10.73,10.73,0,0,0,1.92,1.59c.14.05.16.12.16.2s0,.13,0,.21c-.4,3.45-2.36,3.81-5.92,3.81-3,0-5.5,0-5.5-2.94v-6l-1.3.42-.8-2.16h-.44v4.22a17.82,17.82,0,0,0,2-.84s0,.72,0,1.38c0,.32,0,.65,0,.85s0,.09,0,.13-.06.12-.18.18a49.11,49.11,0,0,1-5.4,2.17v.11c0,.29-.08.47-.2.47s-.2-.1-.3-.28a26.76,26.76,0,0,1-1.18-2.65,24.78,24.78,0,0,0,2.66-.68Zm9,.52-1.34.42v6.13c0,1,.52,1.12,2.54,1.12,3.28,0,3.54-.33,3.62-2.74a2.45,2.45,0,0,1-1.22.31c-.48,0-.5,0-.52-.19a10.87,10.87,0,0,0-.62-1.77v2.69H345Zm2.46,2.38a2.31,2.31,0,0,0,.58.12c.8,0,1-1,1-3.78l-1.54.5Z"/><path d="M354.84,13h16.5v2.54H357.7v9.14a15.7,15.7,0,0,0,4.9-3.44,34.71,34.71,0,0,0-4.2-2.6l2-1.8c1.08.6,2.42,1.4,3.86,2.38a14.73,14.73,0,0,0,2-3.58s2.56,1,3,1.26a.35.35,0,0,1,.18.26c0,.1-.12.2-.38.2a2.23,2.23,0,0,1-.34,0,25,25,0,0,1-2.22,3.52A30.57,30.57,0,0,1,370,24.16l-2.24,2.11a17.37,17.37,0,0,0-3-3.35,16.18,16.18,0,0,1-4.82,3.8.12.12,0,0,1-.1,0,10.69,10.69,0,0,0-2.12-1.51V27h14.12v2.61H357.7v1h-2.86Z"/><circle class="cls-3" cx="54.61" cy="72.03" r="52.46"/><rect class="cls-4" x="59.27" y="53.34" width="7.37" height="1.24"/><rect class="cls-4" x="42.57" y="53.34" width="7.37" height="1.24"/><path class="cls-4" d="M37.48,56.52c.6,3,5,4.7,8.77,4.7a7.25,7.25,0,0,0,4.69-1.72,5.65,5.65,0,0,1,7.33,0A7.27,7.27,0,0,0,63,61.22c3.79,0,8.18-1.73,8.77-4.7a2,2,0,0,0-2-2.56,2,2,0,0,0,2-2.56c-.59-3-5-4.7-8.77-4.7a7.27,7.27,0,0,0-4.69,1.72,5.65,5.65,0,0,1-7.33,0,7.25,7.25,0,0,0-4.69-1.72c-3.79,0-8.17,1.73-8.77,4.7a2.05,2.05,0,0,0,2,2.56A2.05,2.05,0,0,0,37.48,56.52ZM63,48.85A5.11,5.11,0,1,1,57.85,54,5.1,5.1,0,0,1,63,48.85Zm-16.71,0A5.11,5.11,0,1,1,41.15,54,5.11,5.11,0,0,1,46.25,48.85Z"/><path class="cls-4" d="M54.61,90.74a67.56,67.56,0,0,1-17.83-2.45c-.78,1.5-.77,2.43,0,3.14l1.17.31c.12,4.32,3,7.9,5.42,10.53h7.87c0-3.57.49-6.79,1.74-8.86l1.63,0,1.62,0c1.26,2.07,1.69,5.29,1.75,8.86h7.87c2.42-2.63,5.29-6.21,5.41-10.53l1.17-.31c.77-.71.79-1.64,0-3.14A67.53,67.53,0,0,1,54.61,90.74Z"/><path class="cls-4" d="M46.7,45.11A8.9,8.9,0,0,1,52,47.2a4.08,4.08,0,0,0,5.26,0,8.84,8.84,0,0,1,5.27-2.09,1.25,1.25,0,0,0,.75-.58c.5-.93-.49-2.43-2.21-3.35a5.2,5.2,0,0,0-2.69-.68,1.4,1.4,0,0,0,.52-.41c.64-.84.25-2.22-.89-3.09s-2.56-.88-3.21,0a1.59,1.59,0,0,0-.17.31,2.48,2.48,0,0,0-.18-.31c-.64-.84-2.08-.82-3.21,0s-1.53,2.25-.89,3.09a1.48,1.48,0,0,0,.52.41,5.19,5.19,0,0,0-2.68.68c-1.73.92-2.72,2.42-2.22,3.35A1.28,1.28,0,0,0,46.7,45.11Z"/><path class="cls-4" d="M54.61,60.16a4.26,4.26,0,0,0-2.69,1,9.27,9.27,0,0,1-5.85,2.06c-.45,0-.9,0-1.36-.06a15.14,15.14,0,0,0,19.79,0c-.46,0-.91.06-1.36.06a9.29,9.29,0,0,1-5.85-2.06A4.26,4.26,0,0,0,54.61,60.16Z"/><path class="cls-4" d="M78.27,79.9C83.23,76.06,81,68,81,68a61.62,61.62,0,0,1-12.83-4.86,20,20,0,0,1-27.15,0A61.74,61.74,0,0,1,28.21,68s-2.23,8,2.73,11.89c-.74.29-1.23.77-1.23,1.31,0,.9,1.32,1.62,2.95,1.62s2.94-.71,2.94-1.49-.4-1.21-.4-2.38a3.85,3.85,0,0,1,3.63-4,3.85,3.85,0,0,1,3.64,4c0,2.69-2.45,5.75-6.41,8a90.69,90.69,0,0,0,18.55,2,90.66,90.66,0,0,0,18.54-2c-4-2.22-6.4-5.28-6.4-8A3.64,3.64,0,1,1,74,79c0,1.17-.39,1.61-.39,2.38s1.39,1.49,2.93,1.49,3-.72,3-1.62C79.5,80.67,79,80.19,78.27,79.9ZM47.39,75.32A2.49,2.49,0,1,1,50,72.83,2.54,2.54,0,0,1,47.39,75.32Zm7.22,3.45a1.91,1.91,0,1,1,2-1.91A2,2,0,0,1,54.61,78.77Zm7.21-3.45a2.49,2.49,0,1,1,2.6-2.49A2.55,2.55,0,0,1,61.82,75.32Z"/><path class="cls-4" d="M50.93,103.46H41.19a1.92,1.92,0,0,0,0,3.84h9.74a1.92,1.92,0,0,0,0-3.84Z"/><path class="cls-4" d="M68,103.46H58.28a1.92,1.92,0,0,0,0,3.84H68a1.92,1.92,0,0,0,0-3.84Z"/></g></g></svg>