<svg xmlns="http://www.w3.org/2000/svg" viewBox="0 0 402.02 126.64"><defs><style>.cls-1,.cls-2,.cls-3{fill:#fff;stroke:#000;stroke-miterlimit:10;}.cls-1{stroke-width:4.21px;}.cls-2{stroke-width:4.3px;}.cls-3{stroke-width:4.3px;}.cls-4{fill:#040000;}</style></defs><title>アセット 371</title><g id="レイヤー_2" data-name="レイヤー 2"><g id="レイヤー_5" data-name="レイヤー 5"><polygon class="cls-1" points="399.87 40.55 41.56 40.55 60.29 2.11 399.87 2.11 399.87 40.55"/><rect class="cls-2" x="53.01" y="40.54" width="346.85" height="69.43"/><path d="M137.22,74.29a.42.42,0,0,1-.41.27.75.75,0,0,1-.24,0c-1.8-.65-4.9-1.36-5.34-1.5-.2-.07-.37-.1-.37-.34a11,11,0,0,1,.68-2.24c0-.1.1-.24.44-.24a32.2,32.2,0,0,1,5.58,1,.39.39,0,0,1,.3.44A21.34,21.34,0,0,1,137.22,74.29Zm-5.38,12a.31.31,0,0,1,.14-.24,44.23,44.23,0,0,0,6.66-8c.07-.11.14-.17.17-.17s.14.06.17.17a13.83,13.83,0,0,0,1.64,2,.19.19,0,0,1,.13.2.69.69,0,0,1-.07.24c-1.46,2.68-3.16,4.93-3.87,6.12-.61,1-.65,1.66-1.23,1.66S131.84,86.87,131.84,86.29Zm7.35-19.24a.69.69,0,0,1-.38-.14A54.59,54.59,0,0,0,134.16,64c-.14-.1-.28-.17-.28-.34s1.19-2.14,1.53-2.14c.51,0,5.48,2.21,5.48,2.92a.73.73,0,0,1-.07.24,13.66,13.66,0,0,1-1.36,2.21A.35.35,0,0,1,139.19,67.05Zm23,16.69c.21,0,.31.17.31.37s0,1,0,1.74c0,.47,0,1,0,1.22s-.2.24-.37.24c-4.56-.31-7.21-.34-9.8-.34-7.64,0-9.89.14-12.88.34-.2,0-.44-.07-.44-.31s0-1,0-1.49c0-1.29,0-1.77.34-1.77h.14c4.15.27,6.77.37,9.11.37,0-1.83.1-5.71.1-9s-.07-6.35-.1-7.71c-1.56,0-3.53.1-6.39.3h-.07c-.17,0-.37-.06-.37-.3a13.33,13.33,0,0,1,0-1.4c0-1.73.07-1.73.48-1.73,4.08.31,6.19.34,8.09.34a92.63,92.63,0,0,0,9.55-.34c.41,0,.41.34.41,2,0,1.26-.07,1.39-.41,1.39-3.53-.23-5.16-.3-6.9-.34v0c0,.2-.2.41-.47.58s-.24.27-.24.61c0,1.7-.07,4.11-.07,6.59,0,3.2.07,7.11.1,8.94,2.59,0,5.17-.06,9.9-.37Z"/><path d="M191.07,79c0,.31-.14.34-.41.34s-1.15.07-1.83.07c-1.47,0-1.6-.07-1.6-.41v-.07l.1-1.7c-1.22,0-3.26-.07-5.81-.07-3,0-5.54,0-6.87.07-1.19,9.25-6.8,13-7.41,13a.54.54,0,0,1-.34-.13,15.13,15.13,0,0,0-3.37-1.46c-.2-.07-.27-.14-.27-.21s.07-.13.27-.24c6.5-3.09,7.92-9.65,7.92-14.92a34.67,34.67,0,0,0-.51-5.78.93.93,0,0,1,0-.27c0-.14.07-.17.24-.17h.24c3.57.24,5.5.27,7.31.27,7.17,0,8.22,0,11.86-.24.27,0,.41.07.41.38v.1c-.14,1.43-.21,3.43-.21,5.5a43.67,43.67,0,0,0,.31,5.75ZM194,61.13c.28,0,.34.07.34,2.11,0,1.29-.06,1.6-.37,1.6-6.87-.38-9.31-.38-13.19-.38-5.68,0-8.57.14-12.65.38-.41,0-.44-.24-.44-1.87,0-1.84,0-1.84.27-1.84h.17c6.09.31,8.13.34,11,.34,5.65,0,8.54,0,14.83-.34Zm-6.56,9.18s-1.09-.1-3.7-.1c-.68,0-1.43,0-2.28,0l-6.66.07s0,1.94,0,3.84c1.43,0,3.91.07,6.6.07s4.75,0,6-.07Z"/><path d="M211,82.75c0,.34-.1.58-1.7.58-.92,0-1.63,0-1.63-.47v-.07c0-.65,0-1.5.07-2.42-.38,0-.95-.06-1.46-.06s-1.19,0-1.57.06c0,1.53,0,3,.07,4.36,0,.57-.07.61-1.7.61s-1.73-.21-1.73-.55v-.1c.3-4.66.37-9.76.37-12.54,0-3.51-.07-6.26-.2-9.05,0-.13,0-.2,0-.3s.07-.21.24-.21.17,0,.27,0c1.09.1,2.59.17,4.32.17s2-.07,4.22-.21c.37,0,.44.14.44.48-.24,2.69-.24,5.81-.24,8.74,0,2.55.07,8,.27,10.74ZM206.2,65.42c-.95,0-1.53,0-1.53,0s-.07,2.11-.07,4.52c.41,0,1.09,0,1.6,0s1.23,0,1.6,0c0-2.17-.1-4.52-.1-4.52s-.34,0-1,0Zm1.6,7.31c-.37,0-1,0-1.56,0s-1.26,0-1.64,0c0,1.32,0,3,0,4.86.41,0,1.05,0,1.56,0s1.16,0,1.53,0C207.77,75.75,207.8,74,207.8,72.73Zm21.83.16c-3.78-.37-7.31-.4-9.46-.4s-3.9.07-8.36.34c-.34,0-.41-.1-.41-1.57s0-1.63.41-1.63c3.33.27,5.07.34,6.84.34V67.29c-1.54,0-3,.06-5.48.2-.3,0-.37,0-.37-1.46s.07-1.53.44-1.53c2.38.2,3.91.2,5.34.2v-.34a27.27,27.27,0,0,0-.48-5v-.17c0-.17,0-.21.24-.21.54,0,4.35.41,4.35,1.13,0,.27-.31.61-.51,1-.37.71-.34.64-.48,2.85a4.94,4.94,0,0,0,0,.68c1.29,0,2.58-.07,5.2-.24.17,0,.41,0,.41,1.57a6.7,6.7,0,0,1-.07,1.26c0,.13-.2.2-.3.2h0c-2.55-.14-3.74-.17-5.23-.2V70c2.1,0,4.86-.17,8-.41.23,0,.37.24.37,1.67a13.6,13.6,0,0,1-.07,1.43c0,.13-.17.23-.27.23Zm-4.59,13c0,2-1.13,4.25-5.1,4.25q-.31,0-.51-.51c-.65-1.53-1.84-2.07-2.65-3-.11-.11-.17-.17-.17-.24s0-.07.13-.07.1,0,.17,0a19.72,19.72,0,0,0,2.75.28c1.3,0,2-.34,2-1.33.07-1.33.07-4,.07-5.54v-2h-1.46c-2.17,0-3.94.06-8.33.34a.33.33,0,0,1-.34-.31c0-.27,0-.78,0-1.33,0-1.63,0-1.63.37-1.63,4.22.34,6,.34,8.33.34h1.36a14.14,14.14,0,0,0-.27-2c0-.07,0-.1,0-.13s.11-.21.28-.21,4,.34,4,1a.86.86,0,0,1-.27.54c-.3.41-.41.41-.44.75,1.39-.07,3-.17,4.62-.3h0c.2,0,.34.27.34,1.69,0,.55,0,1.13-.07,1.47a.32.32,0,0,1-.27.23h0c-1.66-.17-3.26-.27-4.69-.3v2.92c0,1.84.17,3,.21,4.93Zm-7.52-1.49c-.07,0-.13-.07-.2-.14a19.19,19.19,0,0,0-4.25-3.64c-.1-.07-.14-.1-.14-.17,0-.37,1.5-1.36,1.84-1.56a.28.28,0,0,1,.17-.1.39.39,0,0,1,.17.06,17.17,17.17,0,0,1,4.45,2.89.29.29,0,0,1,.1.21,14.63,14.63,0,0,1-2,2.38C217.62,84.35,217.59,84.39,217.52,84.39Z"/><path d="M238.77,89.31c.51-4.58.75-12,.89-17.57-.31.37-3.81,4.72-4.56,4.72a.45.45,0,0,1-.27-.06A9.5,9.5,0,0,0,232,75.34c-.21,0-.34-.1-.34-.17s.06-.13.17-.2c5.84-4.15,10.5-12,10.91-14.28,0-.14.07-.2.17-.2.58,0,4,1.46,4,2.1,0,.24-.28.48-.79.68s-.68.14-1,.68a39.91,39.91,0,0,1-2.31,3.57c.24.07.41.17.54.21a.42.42,0,0,1,.34.41,1.06,1.06,0,0,1-.34.64,2.12,2.12,0,0,0-.51,1.63c-.13,4.22-.3,9.76-.3,14.28,0,1.77,0,3.37.1,4.69,0,.17-.1.34-1.94.34-1.6,0-1.94,0-1.94-.34ZM262.3,71.13c0,.13-.24.27-.34.27-5.1.37-5.85.44-8.84.88l-.71.11c2,10.13,7.61,12.91,8.29,12.91s1.6-1,1.84-3.8c0-.21.07-.28.17-.28s.13.07.2.17a12.07,12.07,0,0,0,2.72,2.76.52.52,0,0,1,.24.51c-.92,3-2.55,4.65-4.56,4.65a5.12,5.12,0,0,1-2.72-.91c-5.6-3.54-8.09-9.52-9.35-15.47l-4.86,1h-.1a.41.41,0,0,1-.41-.24A13.43,13.43,0,0,1,243.5,71v-.13c0-.34.17-.41.37-.41,2.15-.13,3.61-.27,4.87-.44-.28-1.73-.48-3.47-.62-5.1s-.27-3-.47-3.91a1.76,1.76,0,0,1-.07-.37.18.18,0,0,1,.2-.21c.07,0,.14,0,.21,0,3.67.44,4.42.57,4.42,1.12a3.34,3.34,0,0,1-.51,1.19,2.62,2.62,0,0,0-.21,1.12A49.33,49.33,0,0,0,252,69.6l.75-.1c3.27-.45,4.08-.62,8.74-1.6h.07a.36.36,0,0,1,.37.3,18.12,18.12,0,0,1,.41,2.89Zm-5.17-3.54A23,23,0,0,0,253,64.77c-.14-.07-.27-.1-.27-.24a5.66,5.66,0,0,1,1.76-2.21c.65,0,4.8,2.31,4.8,2.76s-1.36,2.68-1.8,2.68A.51.51,0,0,1,257.13,67.59Z"/><path d="M282.43,91a.51.51,0,0,1-.41.2.29.29,0,0,1-.2-.06c-4.25-2.28-9.08-8-9.08-16.8,0-11.56,8.87-16.52,9.28-16.52a2.77,2.77,0,0,1,1.39,1.94.51.51,0,0,1-.3.47c-3.64,2.11-6.9,7.69-6.9,14.15,0,6.8,3.26,12.27,6.9,14.41a.51.51,0,0,1,.24.48A3.24,3.24,0,0,1,282.43,91Z"/><path d="M318.74,86c.14,0,.24,0,.24.13a.51.51,0,0,1-.1.24c-.41.55-2.11,1.6-2.72,2.72a.48.48,0,0,1-.51.24,16.17,16.17,0,0,1-9.59-3.74,13.89,13.89,0,0,1-7.55,4.25.67.67,0,0,1-.41-.17c-1-1-2.78-1.29-3.4-1.6-.23-.13-.34-.2-.34-.27s.14-.14.31-.14a13.74,13.74,0,0,0,9.38-4.18,13.73,13.73,0,0,1-1.83-3c-4,5.31-6.56,6.36-6.63,6.36a.54.54,0,0,1-.31-.1,3.67,3.67,0,0,0-1.32-.48c0,1,.06,2,.13,3.1,0,.13-.13.24-.3.27-.34,0-1,.07-1.6.07-1.43,0-1.91,0-1.91-.41.45-4.62.68-9.45.79-14.08-1.6,1.84-3.64,3.78-4.05,3.78a.43.43,0,0,1-.27-.1,11,11,0,0,0-2.92-1.3c-.18,0-.28-.1-.28-.17s.07-.1.21-.2c5-2.65,9.45-9.28,9.92-10.84.07-.14.11-.21.21-.21s3.5,1.12,3.5,1.87c0,.24-.27.44-.82.61s-.64.11-.95.58-.88,1.33-1.73,2.45c.27.07.47.17.61.2s.34.24.34.45a1,1,0,0,1-.31.61c-.47.51-.47.81-.47,1.6,0,3.77-.14,7-.14,10.06a25.18,25.18,0,0,0,8.43-10l-4.08.58c-.44.1-.78.41-1,.41-.44,0-1.42-2-1.66-3.13a.22.22,0,0,1,0-.13c0-.14.07-.17.21-.17s.13,0,.2,0h.48c1.19,0,3-.1,5-.24l1.09-1.26c-1.77-1.25-4.42-2.61-5.1-3-.14-.07-.2-.14-.2-.21a.29.29,0,0,1,.1-.2c1.09-1.43,1.32-1.77,1.53-1.77s.1,0,.17.07l1.22.61a19.44,19.44,0,0,0,2.45-6.15c0-.17.07-.24.24-.24s3.8.88,3.8,1.67c0,.23-.44.44-.88.78a2.39,2.39,0,0,0-.68.92c-.58,1-1.77,2.92-2.65,4.28l1.73,1.09c1.74-2.21,3.34-4.56,3.64-5.68.07-.17,0-.31.24-.31s3.77,1.43,3.77,2.15c0,.27-.41.4-.88.64a2,2,0,0,0-.92.75c-.85,1.05-3.09,3.57-4.93,5.58l5.68-.58c-.75-.85-1.43-1.46-1.7-1.8-.1-.11-.17-.17-.17-.24A5.59,5.59,0,0,1,310.89,68a20.48,20.48,0,0,1,5.23,5.33.44.44,0,0,1,.07.21c0,.3-1.73,1.36-2.38,1.7a.22.22,0,0,1-.14,0c-.13,0-.23,0-.27-.14a13.53,13.53,0,0,0-.92-1.73l-6.35.82.13.1c.1.1.17.17.17.24s-.13.24-.4.3-.51.14-.65.51l-.34.78h.41c1.36,0,2.89-.1,2.89-.1.57,0,.68-.3,1-.3s2.38,1.09,2.38,1.59c0,.17-.21.34-.55.62s-.4.37-.74,1a29,29,0,0,1-2.45,4.28c2.21,1.57,5.51,2.76,10.4,2.76Zm-22.95-23.8c-.47.17-.64.1-1,.58-3,4.18-6.09,7.27-6.7,7.27a.39.39,0,0,1-.27-.13A10.63,10.63,0,0,0,285,68.71c-.17-.07-.27-.1-.27-.2s.06-.1.2-.17A22.85,22.85,0,0,0,293,59.91c.07-.14.1-.24.17-.24l.1,0c.55.14,3.37,1.23,3.37,1.91C296.61,61.85,296.34,62.05,295.79,62.22ZM304,78.33a9.35,9.35,0,0,0,1.77,3,17.67,17.67,0,0,0,1.63-3Z"/><path d="M346.79,73.47c-5-.24-7.34-.3-10-.34,0,.92,0,2.21,0,3.68,3.5,0,6.22-.07,12.61-.38.34,0,.41.1.41,1.77s-.1,1.7-.41,1.7c-6.15-.27-9.21-.34-12.58-.38.07,3.51.21,7.42.34,10,0,.21-.13.38-2,.38-1.73,0-2,0-2-.44.21-3.34.34-6.87.45-10-3.57,0-6,.11-12.41.38-.44,0-.48-.17-.48-1.74,0-1.73,0-1.73.48-1.73,6.35.31,9.35.38,12.47.38,0-1.47,0-2.73,0-3.68-2.79,0-4.56.1-9.83.34h-.1c-.24,0-.3,0-.3-1.63s0-1.66.4-1.66c5.17.27,7.41.34,9.83.34a76.53,76.53,0,0,0-.55-10.78c0-.07,0-.14,0-.21s.07-.1.14-.1c.23,0,4.76.27,4.76,1.12,0,.34-.41.82-.68,1.6s-.48,4.12-.51,8.37c2.75,0,4.79-.07,10-.34.24,0,.27.1.31.3s0,.82,0,1.4,0,1.12,0,1.39c0,.1-.07.2-.24.2Zm-17.17-3.94c-.1,0-.2-.07-.3-.24a27.42,27.42,0,0,0-4.7-4.59c-.13-.1-.23-.17-.23-.27,0-.34,1.73-1.67,1.93-1.67.45,0,5.89,3.54,5.89,4.32A7.43,7.43,0,0,1,329.62,69.53Zm15.71-3.94c-.58.27-3.43,2.68-5.1,3.84a.38.38,0,0,1-.27.1.18.18,0,0,1-.17-.1,5,5,0,0,0-1.8-1.09c-.11-.07-.14-.14-.14-.17A.19.19,0,0,1,338,68a28.81,28.81,0,0,0,5.1-5.64c.07-.14.14-.2.24-.2.44,0,3.26,2,3.26,2.72C346.55,65.31,345.8,65.31,345.33,65.59Z"/><path d="M354.44,91.18A.54.54,0,0,1,354,91a3.18,3.18,0,0,1-.91-1.73.58.58,0,0,1,.24-.48c3.63-2.14,6.9-7.61,6.9-14.41,0-6.46-3.27-12-6.9-14.15a.52.52,0,0,1-.31-.47,2.8,2.8,0,0,1,1.39-1.94c.41,0,9.28,5,9.28,16.52,0,8.81-4.82,14.52-9.07,16.8A.33.33,0,0,1,354.44,91.18Z"/><path d="M106.83,24.16a21,21,0,0,0,1.94-.92,8.41,8.41,0,0,0,0,1.24c0,.66,0,.64-.52.92-1.24.62-2.66,1.2-4,1.7a2.82,2.82,0,0,0-.66.32.52.52,0,0,1-.34.14c-.12,0-.22-.06-.3-.24a17.53,17.53,0,0,1-.54-1.78,14.36,14.36,0,0,0,2-.5l.46-.14V19.22h-.16c-1.3,0-1.7,0-1.82,0s-.2,0-.2-.22V17.52c0-.2,0-.22.2-.22s.52,0,1.82,0h.16V15.46a16.94,16.94,0,0,0-.16-2.94c.78,0,1.4.06,2.06.14.2,0,.32.12.32.24a1.13,1.13,0,0,1-.12.4,6.71,6.71,0,0,0-.12,1.9v2.14c1.14,0,1.52,0,1.64,0s.2,0,.2.22V19c0,.2,0,.22-.2.22s-.5,0-1.64,0Zm5,2.78c0,.52.1.76.38.9s.9.22,2.88.22c2.16,0,2.82-.1,3.22-.42s.42-.68.48-2.26a5.67,5.67,0,0,0,1.44.64c.5.14.5.14.44.66-.18,1.74-.42,2.28-1.08,2.71s-1.64.66-4.74.66c-2.72,0-3.72-.24-4.22-.57s-.76-.9-.76-2V21.26c-1,.36-1.44.54-1.6.58s-.22,0-.26-.16l-.26-1.56c0-.2,0-.2.16-.26s.68-.16,2-.58v-2.2a20.22,20.22,0,0,0-.12-2.84q1,0,1.92.12c.28,0,.4.12.4.22A.9.9,0,0,1,112,15a6.05,6.05,0,0,0-.12,1.9v1.72l1.92-.64v-2.9a20.74,20.74,0,0,0-.16-2.84,15.94,15.94,0,0,1,2,.16c.2,0,.32.1.32.22a1.13,1.13,0,0,1-.12.4,6.27,6.27,0,0,0-.12,1.8v2.52l1.54-.52c1.88-.62,2.48-.88,2.62-.9s.22,0,.22.2l-.06,2.56a19.56,19.56,0,0,1-.48,4.52c-.3,1.16-.86,1.52-1.72,1.52a4.72,4.72,0,0,1-.74,0c-.44,0-.44,0-.54-.66a5,5,0,0,0-.42-1.44,4.68,4.68,0,0,0,1.06.14c.34,0,.48-.1.6-.74a19.06,19.06,0,0,0,.24-3.5l-2.32.8v3.48c0,2,0,3,0,3.1s0,.22-.22.22H114c-.2,0-.22,0-.22-.22s0-1.1,0-3.1V19.94l-1.92.66Z"/><path d="M125.69,27.36h11.64c1.94,0,2.62,0,2.74,0s.22,0,.22.22v1.6c0,.21,0,.22-.22.22s-.8,0-2.74,0H125.69v.86c0,.21,0,.22-.24.22h-1.7c-.2,0-.22,0-.22-.22s0-1.48,0-4.2V17.34c0-2.74,0-4.08,0-4.2s0-.24.22-.24.8,0,2.68,0h10.76c1.86,0,2.5,0,2.62,0s.24,0,.24.24v1.58c0,.2,0,.22-.24.22s-.76,0-2.62,0h-11.5ZM128.75,17c.18-.18.2-.2.38-.08,1.32.84,2.64,1.78,4,2.8a17.34,17.34,0,0,0,1.5-2.48,6,6,0,0,0,.56-1.62,11.28,11.28,0,0,1,1.92.76c.2.1.3.18.3.34s-.1.24-.24.36a4,4,0,0,0-.56.92,22.92,22.92,0,0,1-1.88,3c1.2,1,2.38,2,3.58,3.12.1.08.14.14.14.2s0,.14-.16.26l-1.1,1.2a.31.31,0,0,1-.22.14.21.21,0,0,1-.18-.1c-1.12-1.16-2.26-2.22-3.4-3.22a19.78,19.78,0,0,1-4.94,3.74,1.34,1.34,0,0,1-.48.2c-.14,0-.24-.14-.44-.44A4,4,0,0,0,126.43,25a18.48,18.48,0,0,0,5.38-3.76c-1.3-1-2.62-2-4-3-.1-.06-.14-.12-.14-.16s.06-.14.16-.24Z"/><path d="M150,21.54c1.1,0,1.42,0,1.54,0s.26,0,.26.24c0,.7-.06,1.22-.06,1.78a25.52,25.52,0,0,1-.38,4.56,2.32,2.32,0,0,1-2.54,2,8.36,8.36,0,0,1-1,0c-.54-.05-.58,0-.68-.63a3.68,3.68,0,0,0-.56-1.49c.8.1,1.52.18,1.92.18.6,0,.82-.26,1-1.2a24.17,24.17,0,0,0,.24-3.54h-2.62a11.73,11.73,0,0,1-3,6.28c-.18.2-.28.31-.38.31s-.18-.12-.34-.39a5,5,0,0,0-1.08-1.22c2.28-2.1,3-4.32,3.12-8.82l-2,0c-.22,0-.24,0-.24-.22s0-.62,0-1.78V15c0-1.16,0-1.64,0-1.78s0-.22.24-.22.68,0,2.34,0h3.32c1.64,0,2.2,0,2.34,0s.22,0,.22.22,0,.62,0,1.78v2.58c0,1.16,0,1.66,0,1.78s0,.22-.22.22-.7,0-2.34,0h-1.68q0,1.08-.12,2Zm-4.72-3.74h4.38v-3h-4.38Zm8.4-1a21.07,21.07,0,0,0-.14-3c.7,0,1.36.06,2,.14.2,0,.3.1.3.22a1.87,1.87,0,0,1-.14.44,13.65,13.65,0,0,0-.06,2.14v5.52c0,1.7,0,2.52,0,2.64s0,.22-.24.22h-1.62c-.2,0-.22,0-.22-.22s0-.94,0-2.64Zm6.24,6.84c0,1.4.06,3,.06,4s-.16,1.56-.72,2-1.16.49-3.1.5c-.62,0-.62,0-.76-.63a4.27,4.27,0,0,0-.64-1.51,17.56,17.56,0,0,0,2.22.1c.64,0,.88-.14.88-.78v-12a19.41,19.41,0,0,0-.16-2.86c.72,0,1.46.06,2.16.14.2,0,.32.12.32.22a1,1,0,0,1-.14.42,7.15,7.15,0,0,0-.12,2Z"/><path d="M172.67,16.56a25,25,0,0,1-2.5,8.62,3.8,3.8,0,0,1-3.4,2.3c-1.76,0-3.54-1.88-3.54-5.14a7.37,7.37,0,0,1,2.26-5.2,8.75,8.75,0,0,1,6.5-2.56c4.8,0,7.62,3,7.62,6.94,0,3.72-2.1,6.06-6.16,7.29-.42.11-.6,0-.86-.37a4.24,4.24,0,0,0-1.4-1.26c3.38-.8,6-2.2,6-6a4.54,4.54,0,0,0-4.48-4.64Zm-5.74,1.94a5.76,5.76,0,0,0-1.56,3.7c0,1.84.74,2.86,1.36,2.86s1-.26,1.5-1.22a22.85,22.85,0,0,0,2.12-7.16A6,6,0,0,0,166.93,18.5Z"/><path d="M193.89,12.46c.26-.12.3-.1.38.1a16,16,0,0,0,6.48,7.38,6.85,6.85,0,0,0-1.16,1.5c-.18.3-.26.44-.38.44s-.22-.1-.42-.26a16.55,16.55,0,0,1-1.9-1.62c0,.58,0,1.28-.06,2a39.92,39.92,0,0,1-.5,5.6,2.6,2.6,0,0,1-3,2.47c-.5,0-.88,0-1.36,0s-.6,0-.74-.7a4.1,4.1,0,0,0-.62-1.61,14.9,14.9,0,0,0,2.28.18c.84,0,1.18-.32,1.34-1.24a33,33,0,0,0,.38-5h-3.56A9.67,9.67,0,0,1,185,30.16a1.14,1.14,0,0,1-.48.16c-.16,0-.22-.14-.42-.47a3.71,3.71,0,0,0-1-1.21c3.64-1.32,5.4-3.44,5.78-7h-.24c-1.88,0-2.52,0-2.64,0s-.22,0-.22-.22V20a21.79,21.79,0,0,1-1.94,1.66c-.22.16-.34.26-.44.26s-.22-.14-.42-.44a4.48,4.48,0,0,0-1.12-1.22,15.62,15.62,0,0,0,5.78-6.6,5.66,5.66,0,0,0,.4-1.28,14,14,0,0,1,2.08.7c.22.1.28.2.28.34a.41.41,0,0,1-.16.3,1.6,1.6,0,0,0-.46.64,18,18,0,0,1-3.66,5.3c.28,0,1,0,2.52,0H194c1.74,0,2.4,0,2.6,0a21.06,21.06,0,0,1-4.3-6.34c-.08-.22,0-.24.18-.34Z"/><path d="M208.23,17.56a9.09,9.09,0,0,0,2.92,2.28,4.47,4.47,0,0,0-.64,1c-.14.32-.22.48-.36.48s-.22-.1-.44-.28a10.11,10.11,0,0,1-2.18-2.44c0,1.6.08,2,.08,2.2s0,.22-.22.22h-1.34c-.2,0-.22,0-.22-.22s.06-.56.08-2a10.87,10.87,0,0,1-2.62,2.62c-.22.16-.34.24-.46.24s-.22-.12-.34-.38a3.74,3.74,0,0,0-.72-1.1,10.66,10.66,0,0,0,3.46-2.64h-.4c-1.68,0-2.26,0-2.38,0s-.2,0-.2-.22V16.26c0-.2,0-.22.2-.22s.7,0,2.38,0h1V14.56a16.53,16.53,0,0,0-.14-2.42c.72,0,1.2.06,1.88.14.22,0,.32.1.32.2a1.9,1.9,0,0,1-.14.48,8.08,8.08,0,0,0-.08,1.6v1.52h.84c1.7,0,2.26,0,2.38,0s.22,0,.22.22v1.12c0,.2,0,.22-.22.22s-.68,0-2.38,0Zm-3.48,7.22c-1.7,0-2.26,0-2.38,0s-.22,0-.22-.22V23.34c0-.2,0-.22.22-.22s.68,0,2.38,0h.92a8.21,8.21,0,0,0,0-1.72c.8.06,1.34.1,1.78.16.22,0,.34.12.34.24a.86.86,0,0,1-.1.32,2.67,2.67,0,0,0-.18,1h.92c1.74,0,2.28,0,2.4,0s.24,0,.24.22V24.6c0,.2,0,.22-.24.22s-.66,0-2.4,0h-.5a6.21,6.21,0,0,0,3,2.56,4.63,4.63,0,0,0-.94,1c-.2.3-.3.45-.44.45s-.24-.11-.46-.27a7.46,7.46,0,0,1-2.18-2.46,7.24,7.24,0,0,1-3.14,3.56.84.84,0,0,1-.42.18c-.14,0-.26-.12-.46-.43a4.18,4.18,0,0,0-1-1.05,5.55,5.55,0,0,0,3.52-3.56Zm-1-11.88c.2-.1.26-.08.4.08a10.6,10.6,0,0,1,1.1,1.86c.1.22.06.28-.2.4l-.94.44c-.24.12-.3.14-.38-.06a10.62,10.62,0,0,0-1-1.9c-.14-.2-.16-.26.12-.4Zm5.1.68a3.2,3.2,0,0,0,.28-.88,10.5,10.5,0,0,1,1.48.54c.16.06.22.16.22.24s0,.16-.18.28a1.44,1.44,0,0,0-.28.38,13.5,13.5,0,0,1-.68,1.24c-.16.26-.24.36-.36.36a.9.9,0,0,1-.38-.16,6.24,6.24,0,0,0-1-.4A10.54,10.54,0,0,0,208.81,13.58Zm5.92,13.86c.2.14.22.22.22.32s-.1.18-.24.24a2.45,2.45,0,0,0-.52.36,13,13,0,0,1-2.68,1.8,1.45,1.45,0,0,1-.52.2c-.18,0-.28-.13-.48-.47a4.17,4.17,0,0,0-.82-1,10.24,10.24,0,0,0,3-1.6,3.79,3.79,0,0,0,.68-.7A13.44,13.44,0,0,1,214.73,27.44Zm-.82-12.76c-1.78,0-2.38,0-2.5,0s-.22,0-.22-.22V13c0-.2,0-.22.22-.22s.72,0,2.5,0h3.72c1.8,0,2.4,0,2.52,0s.2,0,.2.22V14.5c0,.2,0,.22-.2.22s-.72,0-2.52,0h-1a15.48,15.48,0,0,1-.62,1.5H217c1.6,0,2.16,0,2.3,0s.22,0,.22.2,0,.82,0,2.34V24c0,1.52,0,2.2,0,2.3s0,.24-.22.24-.7,0-2.3,0h-2.66c-1.62,0-2.16,0-2.28,0s-.24,0-.24-.24,0-.78,0-2.3V18.76c0-1.6,0-2.28,0-2.42s0-.2.24-.2.62,0,2,0a12.26,12.26,0,0,0,.58-1.5Zm-.22,4.42h3.84V17.84h-3.84Zm3.84,2.82V20.6h-3.84v1.32Zm0,1.5h-3.84v1.42h3.84ZM217,26.74a.28.28,0,0,1,.46,0,10.51,10.51,0,0,0,3.3,2,4.52,4.52,0,0,0-.82,1.13c-.18.33-.28.46-.44.46a1.32,1.32,0,0,1-.46-.18,11.86,11.86,0,0,1-2.9-2.19.27.27,0,0,1-.1-.2c0-.06,0-.14.16-.24Z"/><path d="M231.79,16.82c-2.44.46-4.58.88-6.72,1.32-.76.18-1,.22-1.26.32a1.17,1.17,0,0,1-.44.16.47.47,0,0,1-.38-.3,13.94,13.94,0,0,1-.74-2.16,27.59,27.59,0,0,0,3.18-.34c2.46-.36,6.86-1,12-1.7.3,0,.4.08.42.22a11.43,11.43,0,0,1,.22,1.76c0,.24-.12.3-.38.3a8.92,8.92,0,0,0-2.44.44c-3.4,1.16-5.1,3.5-5.1,5.9,0,2.58,1.84,4,5.32,4.2.32,0,.44.08.44.3a7.11,7.11,0,0,1-.22,1.72c-.06.31-.14.43-.38.43-3.52,0-7.38-2-7.38-6.19,0-2.84,1.42-4.76,3.84-6.34Zm4,2.16c.1-.08.18-.06.3,0a9.2,9.2,0,0,1,1.9,2.14.2.2,0,0,1-.06.32l-.84.62a.21.21,0,0,1-.34-.06,9.92,9.92,0,0,0-2-2.32Zm1.78-1.3c.12-.08.18-.06.3,0a8.35,8.35,0,0,1,1.9,2.06.23.23,0,0,1-.06.36l-.8.62a.21.21,0,0,1-.34-.06,9.46,9.46,0,0,0-2-2.3Z"/><path d="M254.59,18.78a6.26,6.26,0,0,0,0-1.36,8.62,8.62,0,0,1,2.32.86.38.38,0,0,1,.14.54,3.36,3.36,0,0,0-.32.78c-.16.84-.36,1.72-.56,2.58a23.14,23.14,0,0,1,3.12,1.92c.2.12.18.22.12.42a17.23,17.23,0,0,1-.86,1.72c-.06.1-.12.14-.18.14a.38.38,0,0,1-.24-.14,16.25,16.25,0,0,0-2.62-1.88,12.28,12.28,0,0,1-4,5.26c-.18.15-.28.23-.4.23a.51.51,0,0,1-.3-.15,4.24,4.24,0,0,0-1.74-.82,11,11,0,0,0,4.48-5.42,13.52,13.52,0,0,0-4-1.22,13.88,13.88,0,0,1-2.44,4,3.28,3.28,0,0,1-2.56,1.1,2.42,2.42,0,0,1-2.38-2.74c0-2.48,2.56-4.42,5.9-4.42.66-1.66,1.16-3.06,1.66-4.74l-2.76.32a4.2,4.2,0,0,0-.9.22,1.05,1.05,0,0,1-.36.08.32.32,0,0,1-.32-.22,12.12,12.12,0,0,1-.58-2.18,7.45,7.45,0,0,0,1.76.12,22.32,22.32,0,0,0,3.1-.26,2.31,2.31,0,0,0,1-.34.44.44,0,0,1,.26-.08.46.46,0,0,1,.28.08,6.68,6.68,0,0,1,1.36,1.1.48.48,0,0,1,.18.34.51.51,0,0,1-.2.34,2.72,2.72,0,0,0-.54,1c-.52,1.36-1.08,2.92-1.68,4.36a16.58,16.58,0,0,1,3.88,1A19.79,19.79,0,0,0,254.59,18.78ZM244,24.36c0,.64.22.92.7.92a1.62,1.62,0,0,0,1.16-.76,13.67,13.67,0,0,0,1.46-2.44C245.31,22.16,244,23.22,244,24.36Z"/><path d="M267.67,20.44a6,6,0,0,1,3.18-.9,4.64,4.64,0,0,1,5,4.8c0,3.34-2.7,5.48-7,5.48-2.52,0-4-1.08-4-2.94a2.65,2.65,0,0,1,2.82-2.44,3.64,3.64,0,0,1,3.76,2.92,3,3,0,0,0,2-3,2.92,2.92,0,0,0-3.14-3,8.14,8.14,0,0,0-5.12,2.12c-.58.52-1.14,1.1-1.74,1.7-.14.14-.24.22-.34.22a.49.49,0,0,1-.3-.18,9,9,0,0,1-1.18-1.3c-.12-.16-.06-.3.1-.46A48.14,48.14,0,0,0,266.43,19c1.24-1.28,2.18-2.28,3.1-3.42-1.2.22-2.62.5-3.86.76a6.16,6.16,0,0,0-.84.24,1.47,1.47,0,0,1-.4.1.45.45,0,0,1-.44-.34,9.58,9.58,0,0,1-.7-2.16,9.64,9.64,0,0,0,1.86,0c1.22-.12,3-.38,4.54-.68a5.31,5.31,0,0,0,1.1-.3,1,1,0,0,1,.38-.16.71.71,0,0,1,.46.16A7.57,7.57,0,0,1,273,14.5a.69.69,0,0,1,.22.48.53.53,0,0,1-.34.48,3.23,3.23,0,0,0-.88.64c-1.46,1.42-2.8,2.82-4.32,4.28Zm0,5.7c-.58,0-1,.34-1,.76,0,.62.54,1,1.74,1a4.38,4.38,0,0,0,.92-.08C269.13,26.76,268.53,26.14,267.69,26.14Z"/><path d="M291.51,21.76H279.35V20.6h12.16Z"/><path d="M294.55,26.2h17.66V29H294.55Zm1.08-12.32h15.48v2.8H295.63Zm1.28,5.8h13v2.84h-13Z"/><path d="M316.93,24.12c-.88.88-1,.9-1.06.9s0,0-.08-.08A12.38,12.38,0,0,0,313.67,23a11,11,0,0,0,4.92-5.56l-3.84,0,0-2.38,2.2,0V13.26s0-.66-.06-1.3c0,0,2.68,0,3,.12s.34.14.34.24-.2.28-.62.36a3.34,3.34,0,0,0,0,.62v1.78h.4c.12,0,.2-.1.32-.1a6.54,6.54,0,0,1,1.54,1.14V14.74h3.64v-1.1s0-1.24-.06-1.68c0,0,2.6.1,3,.14.18,0,.28.1.28.2s-.16.28-.52.36c0,.28,0,1,0,1v1.08H332v11.2h-2.56v-1h-1.24v5.57h-2.7V24.9h-1.2V26h-2.44V23.12a5.29,5.29,0,0,0-1,.94c0,.06-.06.08-.1.08A8.75,8.75,0,0,1,319.57,23l0,7.49h-2.68Zm4.92-7.74-.16.12a29.93,29.93,0,0,1-1.84,3.8,23.5,23.5,0,0,0,2,1.62Zm3.7,2.18V16.94h-1.26v1.62Zm0,4.12v-1.8h-1.26v1.8Zm3.88-4.12V16.94h-1.3v1.62Zm0,4.12v-1.8h-1.3v1.8Z"/><path d="M336.45,19.36h-2V16.92h2V13.64s0-.8-.06-1.34c0,0,2.16,0,2.86.14.28,0,.42.14.42.24s-.2.26-.62.36c0,.26,0,.94,0,.94v2.94h1.78v1.9l.76-.24V15.26s0-1.3-.06-1.72c0,0,2.44.06,2.88.14.22,0,.32.12.32.24s-.18.28-.58.36c0,.24,0,.92,0,.92v2.6l1.34-.4V13.64s0-1.08-.06-1.56c0,0,2.38,0,2.82.12.22,0,.32.12.32.24s-.18.28-.58.36c0,.24,0,.8,0,.8v3l4.1-1.26c0,.42,0,1,0,1.58,0,4.72-.3,6.26-1.08,7.26a10.63,10.63,0,0,0,1.92,1.58c.14.06.16.12.16.2s0,.14,0,.22c-.4,3.44-2.36,3.8-5.92,3.8-3,0-5.5,0-5.5-2.94v-6l-1.3.42-.8-2.16H339v4.22a17.82,17.82,0,0,0,2-.84s0,.72,0,1.38c0,.32,0,.64,0,.84s0,.1,0,.14-.06.12-.18.18a51.29,51.29,0,0,1-5.4,2.16v.12c0,.28-.08.46-.2.46s-.2-.1-.3-.28a26,26,0,0,1-1.18-2.64,24.78,24.78,0,0,0,2.66-.68Zm9,.52-1.34.42v6.12c0,1,.52,1.12,2.54,1.12,3.28,0,3.54-.32,3.62-2.74a2.35,2.35,0,0,1-1.22.32c-.48,0-.5,0-.52-.2a11.14,11.14,0,0,0-.62-1.76v2.68h-2.46Zm2.46,2.38a2.31,2.31,0,0,0,.58.12c.8,0,1-1,1-3.78l-1.54.5Z"/><path d="M355.25,13h16.5v2.54H358.11v9.14a15.7,15.7,0,0,0,4.9-3.44,34.71,34.71,0,0,0-4.2-2.6l2-1.8c1.08.6,2.42,1.4,3.86,2.38a14.73,14.73,0,0,0,2-3.58s2.56,1,3,1.26a.35.35,0,0,1,.18.26c0,.1-.12.2-.38.2a2.23,2.23,0,0,1-.34,0,25,25,0,0,1-2.22,3.52,30.57,30.57,0,0,1,3.54,3.34l-2.24,2.1a17.62,17.62,0,0,0-3-3.34,16.18,16.18,0,0,1-4.82,3.8s-.06,0-.1-.06a10.68,10.68,0,0,0-2.12-1.5V27h14.12v2.6H358.11v1.05h-2.86Z"/><circle class="cls-3" cx="54.61" cy="72.03" r="52.46"/><path class="cls-4" d="M91.54,89.28l-.7-.42c-.78-.47-1.55-1-2.3-1.48l-.31-.21c-.82-.58-1.62-1.19-2.4-1.81l-.64-.53q-1-.8-1.86-1.62l-.48-.43c-.71-.67-1.39-1.36-2.06-2.08-.2-.21-.39-.42-.58-.64-.52-.56-1-1.14-1.5-1.72-.18-.22-.37-.43-.54-.65-.6-.75-1.18-1.51-1.74-2.29l-.51-.75c-.41-.6-.81-1.21-1.2-1.82-.18-.29-.36-.57-.53-.86-.49-.81-1-1.63-1.41-2.47-.15-.27-.28-.55-.43-.82-.32-.64-.64-1.28-.95-1.94-.16-.34-.32-.67-.47-1-.38-.86-.75-1.73-1.1-2.61v0h0a66.37,66.37,0,0,1-4.13-17.75H43.52a65.06,65.06,0,0,1-5.24,20.4c-.15.34-.31.67-.46,1-.31.66-.64,1.32-1,2l-.41.78C36,70.33,35.52,71.16,35,72c-.17.28-.34.56-.52.84-.39.62-.8,1.23-1.22,1.84l-.5.73c-.56.78-1.14,1.55-1.74,2.3l-.53.64c-.49.59-1,1.17-1.51,1.74l-.57.63c-.67.71-1.36,1.41-2.07,2.08l-.47.42c-.61.56-1.23,1.1-1.87,1.63l-.63.52c-.78.63-1.58,1.24-2.41,1.82l-.31.21c-.75.51-1.52,1-2.3,1.48l-.7.42c-.89.52-1.8,1-2.73,1.49H94.27C93.34,90.31,92.43,89.8,91.54,89.28ZM46.29,48.44H62.92a67.66,67.66,0,0,0,4.66,17.49l-.94,1.19-6-7.64-6,7.64-6-7.64-6,7.64-.95-1.2A67.7,67.7,0,0,0,46.29,48.44Z"/></g></g></svg>