<svg xmlns="http://www.w3.org/2000/svg" viewBox="0 0 402.07 126.64"><defs><style>.cls-1,.cls-2,.cls-3{fill:#fff;stroke:#000;stroke-miterlimit:10;}.cls-1{stroke-width:4.21px;}.cls-2{stroke-width:4.3px;}.cls-3{stroke-width:4.3px;}.cls-4{fill:#040000;}</style></defs><title>アセット 327</title><g id="レイヤー_2" data-name="レイヤー 2"><g id="レイヤー_1-2" data-name="レイヤー 1"><polygon class="cls-1" points="399.92 40.55 41.62 40.55 60.35 2.11 399.92 2.11 399.92 40.55"/><rect class="cls-2" x="53.07" y="40.54" width="346.85" height="69.43"/><circle class="cls-3" cx="54.61" cy="72.03" r="52.46"/><path d="M209,79c0,.48-.48.55-1.57.55-1.43,0-1.8-.1-1.8-.44v-.07c0-.55,0-1.26,0-2-.47,0-1.32,0-2,0s-1.63,0-2.1.07c0,1.46,0,2.78.07,3.67,0,.58-.11.58-1.77.58-1.4,0-1.77,0-1.77-.45v-.17c.24-3.12.31-8.87.31-11.11V67.8c0-2,0-3.81-.17-5.92,0-.1,0-.2,0-.27s.07-.17.31-.17h.2c1.36.1,3.23.17,5,.17s2.62-.07,4.83-.17h.1c.24,0,.34.1.34.34v.1c-.13,1.67-.17,3.26-.17,4.83,0,6.59.07,9.72.21,12.1Zm15.77-18.15c-.24,2.69-.27,7.51-.27,10.85,0,1.66,0,9.24.27,13.7,0,.2,0,.44,0,.68,0,1.8-.72,4-5.82,4-.2,0-.41-.17-.51-.51-.2-.78-1.53-2.1-2.31-3.09a.42.42,0,0,1-.1-.24s0-.1.17-.1a1.39,1.39,0,0,0,.17,0,18.29,18.29,0,0,0,3.09.41c1.16,0,1.77-.37,1.77-1.39,0-2.28,0-4.83,0-6.9-1,0-2.75-.07-3.5-.07s-2.48,0-3.36.07c-1.26,4.79-4.36,9.45-11.6,11.83a.67.67,0,0,1-.27.07.42.42,0,0,1-.3-.14,13.2,13.2,0,0,0-3.13-2.28c-.24-.13-.34-.24-.34-.3s.17-.11.34-.14C209.51,85.92,212,78.4,212,71.4c0-8-.07-8.74-.34-10.54a1.2,1.2,0,0,1,0-.31c0-.13.07-.17.3-.17h.24c2.08.11,4.15.17,6,.21s3.84-.07,6.15-.21h.11c.23,0,.3.11.3.34ZM205.7,64.19s-.92-.07-2.08-.07l-2.1.07s0,1.6,0,3.47l2.14,0,2.11,0C205.7,66,205.7,64.19,205.7,64.19Zm-4.22,10.17,2.14,0,2.08,0c0-1.64,0-2.93,0-4-.51,0-1.39-.07-2.11-.07s-1.66,0-2.14.07Zm19.82-3.57c-.91,0-2.41-.07-3.16-.07l-2.89,0v.89a35.59,35.59,0,0,1-.27,3.74c1,0,2.21,0,2.79,0s2.51,0,3.53-.07Zm0-7.48s-1.94,0-3.13,0-2.85,0-2.85,0c0,.71.06,1.56.06,2.51,0,.65,0,1.36,0,2.08,1,0,2.24,0,2.82,0s2.21,0,3.13-.07Z"/><path d="M259.35,74.56a.82.82,0,0,1-.3-.07c-1.87-.64-5-1.39-5.48-1.53-.24-.07-.37-.07-.37-.3a8.3,8.3,0,0,1,.68-2.35c0-.1.07-.24.44-.24a31.45,31.45,0,0,1,5.75,1c.2.07.3.17.3.37a17,17,0,0,1-.64,2.86A.38.38,0,0,1,259.35,74.56Zm1.39,3.84c.07,0,.14.07.21.17a13.38,13.38,0,0,0,1.63,2,.27.27,0,0,1,.14.24,1,1,0,0,1-.07.24c-1.46,2.68-3.16,5-3.91,6.15-.61,1-.65,1.7-1.19,1.7s-3.77-1.43-3.77-2.11a.39.39,0,0,1,.13-.23,45.55,45.55,0,0,0,6.7-8.06C260.64,78.44,260.71,78.4,260.74,78.4Zm.31-11.69a54.29,54.29,0,0,0-4.79-3c-.17-.1-.27-.17-.27-.34s1.15-2.24,1.63-2.24,5.57,2.31,5.57,3a.55.55,0,0,1-.07.24c-.4,1-1.39,2.48-1.69,2.48A.64.64,0,0,1,261.05,66.71Zm8.53-5.78c0-.1,0-.17,0-.24s.07-.2.27-.2c.61,0,4.56.88,4.56,1.66,0,.24-.31.51-.65.85a2.94,2.94,0,0,0-.68,1.12c-.61,1.53-1.7,4.18-2.82,6.56,2.55-.2,5.2-.47,7.34-.71a31.26,31.26,0,0,0-2.48-2.34.45.45,0,0,1-.1-.24.49.49,0,0,1,.17-.31A5.71,5.71,0,0,1,277,65.82a.58.58,0,0,1,.31.11c4.35,2.89,6.79,6,6.79,6.35a.66.66,0,0,1-.23.41,19.58,19.58,0,0,1-2.45,1.8.69.69,0,0,1-.24.07c-.14,0-.24-.1-.37-.3-.41-.69-.85-1.37-1.29-2-4.36.68-14.22,2.11-14.76,2.24s-.78.41-1.09.41c-.61,0-2-3.19-2-3.5s.1-.17.27-.17c1.23,0,3-.07,4.86-.24,1.33-3.6,2.72-8.23,2.72-10Zm6.94,27.74c0-.41,0-.85,0-1.26-.88,0-2.89-.13-3.91-.13s-3.09.1-3.94.13l.07,1.33v.13c0,.48-.21.55-1.87.55-1.4,0-1.8-.07-1.8-.58v-.17c.27-2.35.34-5.41.34-6.49v-.79c0-1.66-.11-3-.21-4.42,0-.13,0-.2,0-.27s0-.17.24-.17.17,0,.3,0c1.57.1,4.49.2,6.8.2s4.66-.14,7.07-.24h.11c.27,0,.37.14.37.34V77c-.2,2.35-.24,4.29-.24,5.41s.07,3.64.27,6.05c0,.1,0,.2,0,.31,0,.4-.24.54-2.11.54-1.26,0-1.53-.14-1.53-.54Zm-7.89-4c.89,0,3,.07,3.95.07s3.23-.07,4.08-.07c0-1.26,0-2.28,0-2.69,0-.92-.1-2.62-.1-2.62s-2.52-.1-4-.1-3.85.1-3.85.1-.1,1.5-.1,2.72Z"/><path d="M106.88,24.16a21,21,0,0,0,1.94-.92,8.41,8.41,0,0,0,0,1.24c0,.66,0,.64-.52.92-1.24.62-2.66,1.2-4,1.7a2.82,2.82,0,0,0-.66.32.52.52,0,0,1-.34.14c-.12,0-.22-.06-.3-.24a17.53,17.53,0,0,1-.54-1.78,14.36,14.36,0,0,0,2-.5l.46-.14V19.22h-.16c-1.3,0-1.7,0-1.82,0s-.2,0-.2-.22V17.52c0-.2,0-.22.2-.22s.52,0,1.82,0h.16V15.46a16.94,16.94,0,0,0-.16-2.94c.78,0,1.4.06,2.06.14.2,0,.32.12.32.24a1.13,1.13,0,0,1-.12.4,6.71,6.71,0,0,0-.12,1.9v2.14c1.14,0,1.52,0,1.64,0s.2,0,.2.22V19c0,.2,0,.22-.2.22s-.5,0-1.64,0Zm5.05,2.78c0,.52.1.76.38.9s.9.22,2.88.22c2.16,0,2.82-.1,3.22-.42s.42-.68.48-2.26a5.67,5.67,0,0,0,1.44.64c.5.14.5.14.44.66-.18,1.74-.42,2.28-1.08,2.7s-1.64.67-4.74.67c-2.72,0-3.72-.25-4.22-.57s-.77-.9-.77-2V21.26c-1,.36-1.44.54-1.6.58s-.22,0-.26-.16l-.26-1.56c0-.2,0-.2.16-.26s.68-.16,2-.58v-2.2a20.22,20.22,0,0,0-.12-2.84c.68,0,1.33.06,1.93.12.28,0,.4.12.4.22a.9.9,0,0,1-.12.42,6.05,6.05,0,0,0-.12,1.9v1.72l1.92-.64v-2.9a20.74,20.74,0,0,0-.16-2.84,15.94,15.94,0,0,1,2,.16c.2,0,.32.1.32.22a1.13,1.13,0,0,1-.12.4,6.27,6.27,0,0,0-.12,1.8v2.52l1.54-.52c1.88-.62,2.48-.88,2.62-.9s.22,0,.22.2l-.06,2.56a19.56,19.56,0,0,1-.48,4.52c-.3,1.16-.86,1.52-1.72,1.52a4.72,4.72,0,0,1-.74,0c-.44,0-.44,0-.54-.66a5,5,0,0,0-.42-1.44,4.68,4.68,0,0,0,1.06.14c.34,0,.48-.1.6-.74a19.06,19.06,0,0,0,.24-3.5l-2.32.8v3.48c0,2,0,3,0,3.1s0,.22-.22.22H114c-.2,0-.22,0-.22-.22s0-1.1,0-3.1V19.94l-1.92.66Z"/><path d="M125.74,27.36h11.65c1.94,0,2.62,0,2.74,0s.22,0,.22.22v1.6c0,.2,0,.22-.22.22s-.8,0-2.74,0H125.74v.86c0,.2,0,.22-.24.22h-1.7c-.2,0-.22,0-.22-.22s0-1.48,0-4.2V17.34c0-2.74,0-4.08,0-4.2s0-.24.22-.24.8,0,2.68,0h10.77c1.86,0,2.5,0,2.62,0s.24,0,.24.24v1.58c0,.2,0,.22-.24.22s-.76,0-2.62,0H125.74ZM128.8,17c.18-.18.2-.2.38-.08,1.32.84,2.65,1.78,4,2.8a17.34,17.34,0,0,0,1.5-2.48,6,6,0,0,0,.56-1.62,11.28,11.28,0,0,1,1.92.76c.2.1.3.18.3.34s-.1.24-.24.36a4,4,0,0,0-.56.92,22.92,22.92,0,0,1-1.88,3c1.2,1,2.38,2,3.58,3.12.1.08.14.14.14.2s0,.14-.16.26l-1.1,1.2a.31.31,0,0,1-.22.14.21.21,0,0,1-.18-.1c-1.12-1.16-2.26-2.22-3.4-3.22a19.84,19.84,0,0,1-5,3.74,1.34,1.34,0,0,1-.48.2c-.14,0-.24-.14-.44-.44A4,4,0,0,0,126.48,25a18.67,18.67,0,0,0,5.39-3.76c-1.31-1-2.63-2-4-3-.1-.06-.14-.12-.14-.16s.06-.14.16-.24Z"/><path d="M150,21.54c1.1,0,1.43,0,1.55,0s.26,0,.26.24c0,.7-.06,1.22-.06,1.78a26.5,26.5,0,0,1-.38,4.56,2.34,2.34,0,0,1-2.55,2,8.36,8.36,0,0,1-1,0c-.54-.05-.58,0-.68-.64a3.69,3.69,0,0,0-.56-1.48c.8.1,1.52.18,1.92.18.6,0,.82-.26,1-1.2a24.17,24.17,0,0,0,.24-3.54H147.1a11.73,11.73,0,0,1-3,6.28c-.18.2-.28.31-.38.31s-.18-.13-.34-.39a5,5,0,0,0-1.08-1.22c2.28-2.1,3-4.32,3.12-8.82l-2,0c-.22,0-.24,0-.24-.22s0-.62,0-1.78V15c0-1.16,0-1.64,0-1.78s0-.22.24-.22.68,0,2.34,0h3.32c1.65,0,2.21,0,2.35,0s.22,0,.22.22,0,.62,0,1.78v2.58c0,1.16,0,1.66,0,1.78s0,.22-.22.22-.7,0-2.35,0h-1.68q0,1.08-.12,2Zm-4.72-3.74h4.38v-3h-4.38Zm8.41-1a21.07,21.07,0,0,0-.14-3c.7,0,1.36.06,2,.14.2,0,.3.1.3.22a1.87,1.87,0,0,1-.14.44,13.65,13.65,0,0,0-.06,2.14v5.52c0,1.7,0,2.52,0,2.64s0,.22-.24.22h-1.62c-.2,0-.22,0-.22-.22s0-.94,0-2.64Zm6.24,6.84c0,1.4.06,3,.06,4s-.16,1.56-.72,2-1.16.49-3.1.5c-.62,0-.62,0-.76-.63a4.27,4.27,0,0,0-.64-1.51A17.56,17.56,0,0,0,157,28c.64,0,.88-.14.88-.78v-12a19.41,19.41,0,0,0-.16-2.86c.72,0,1.46.06,2.16.14.2,0,.32.12.32.22a1,1,0,0,1-.14.42,7.15,7.15,0,0,0-.12,2Z"/><path d="M172.73,16.56a25,25,0,0,1-2.5,8.62,3.82,3.82,0,0,1-3.41,2.3c-1.76,0-3.54-1.88-3.54-5.14a7.37,7.37,0,0,1,2.26-5.2,8.78,8.78,0,0,1,6.51-2.56c4.8,0,7.62,3,7.62,6.94,0,3.72-2.1,6.06-6.16,7.28-.42.12-.6,0-.86-.36a4.24,4.24,0,0,0-1.4-1.26c3.38-.8,6-2.2,6-6a4.54,4.54,0,0,0-4.48-4.64ZM167,18.5a5.76,5.76,0,0,0-1.56,3.7c0,1.84.74,2.86,1.36,2.86s1-.26,1.5-1.22a22.84,22.84,0,0,0,2.13-7.16A6,6,0,0,0,167,18.5Z"/><path d="M194,12.46c.26-.12.3-.1.38.1a16,16,0,0,0,6.48,7.38,6.85,6.85,0,0,0-1.16,1.5c-.18.3-.26.44-.38.44s-.22-.1-.42-.26A16.55,16.55,0,0,1,197,20c0,.58,0,1.28-.06,2a39.92,39.92,0,0,1-.5,5.6,2.6,2.6,0,0,1-3,2.47c-.5,0-.88,0-1.36,0s-.6,0-.74-.71a4.11,4.11,0,0,0-.62-1.6,14.9,14.9,0,0,0,2.28.18c.84,0,1.18-.32,1.34-1.24a33,33,0,0,0,.38-5h-3.56A9.7,9.7,0,0,1,185,30.16a1.31,1.31,0,0,1-.48.16c-.16,0-.22-.14-.42-.48a3.78,3.78,0,0,0-1-1.2c3.64-1.32,5.41-3.44,5.79-7h-.25c-1.88,0-2.52,0-2.64,0s-.22,0-.22-.22V20a21.79,21.79,0,0,1-1.94,1.66c-.22.16-.34.26-.44.26s-.22-.14-.42-.44a4.48,4.48,0,0,0-1.12-1.22,15.62,15.62,0,0,0,5.78-6.6,5.66,5.66,0,0,0,.4-1.28,14.18,14.18,0,0,1,2.09.7c.21.1.28.2.28.34a.45.45,0,0,1-.16.3,1.6,1.6,0,0,0-.46.64,18.26,18.26,0,0,1-3.67,5.3c.28,0,1,0,2.52,0h5.39c1.74,0,2.4,0,2.6,0a21.06,21.06,0,0,1-4.3-6.34c-.08-.22,0-.24.18-.34Z"/><path d="M208.28,17.56a9.13,9.13,0,0,0,2.93,2.28,4.15,4.15,0,0,0-.64,1c-.14.32-.22.48-.37.48s-.21-.1-.43-.28a10,10,0,0,1-2.19-2.44c0,1.6.08,2,.08,2.2s0,.22-.22.22H206.1c-.2,0-.22,0-.22-.22s.06-.56.08-2a10.87,10.87,0,0,1-2.62,2.62c-.22.16-.34.24-.46.24s-.22-.12-.34-.38a3.74,3.74,0,0,0-.72-1.1,10.66,10.66,0,0,0,3.46-2.64h-.4c-1.68,0-2.26,0-2.38,0s-.2,0-.2-.22V16.26c0-.2,0-.22.2-.22s.7,0,2.38,0h1V14.56a16.53,16.53,0,0,0-.14-2.42c.72,0,1.2.06,1.88.14.22,0,.32.1.32.2a1.9,1.9,0,0,1-.14.48,8.08,8.08,0,0,0-.08,1.6v1.52h.84c1.7,0,2.27,0,2.39,0s.22,0,.22.22v1.12c0,.2,0,.22-.22.22s-.69,0-2.39,0Zm-3.48,7.22c-1.7,0-2.26,0-2.38,0s-.22,0-.22-.22V23.34c0-.2,0-.22.22-.22s.68,0,2.38,0h.92a8.21,8.21,0,0,0,0-1.72c.8.06,1.34.1,1.78.16.22,0,.34.12.34.24a.86.86,0,0,1-.1.32,2.67,2.67,0,0,0-.18,1h.92c1.74,0,2.28,0,2.4,0s.25,0,.25.22V24.6c0,.2,0,.22-.25.22s-.66,0-2.4,0H208a6.19,6.19,0,0,0,3,2.56,4.72,4.72,0,0,0-.95,1c-.19.3-.3.44-.43.44s-.25-.1-.46-.26a7.38,7.38,0,0,1-2.19-2.46,7.24,7.24,0,0,1-3.14,3.56,1,1,0,0,1-.42.18c-.14,0-.26-.12-.46-.44a4.31,4.31,0,0,0-1-1,5.55,5.55,0,0,0,3.52-3.56Zm-1-11.88c.2-.1.26-.08.4.08a10.6,10.6,0,0,1,1.1,1.86c.1.22.06.28-.2.4l-.94.44c-.24.12-.3.14-.38-.06a10.62,10.62,0,0,0-1-1.9c-.14-.2-.16-.26.12-.4Zm5.1.68a3.24,3.24,0,0,0,.29-.88,10.35,10.35,0,0,1,1.47.54c.16.06.23.16.23.24s0,.16-.19.28a1.69,1.69,0,0,0-.27.38,13.8,13.8,0,0,1-.69,1.24c-.16.26-.24.36-.36.36a1,1,0,0,1-.38-.16,6.24,6.24,0,0,0-1-.4A9.72,9.72,0,0,0,208.86,13.58Zm5.93,13.86c.2.14.22.22.22.32s-.1.18-.24.24a2.45,2.45,0,0,0-.52.36,13,13,0,0,1-2.68,1.8,1.52,1.52,0,0,1-.52.2c-.19,0-.28-.14-.48-.48a4.59,4.59,0,0,0-.83-1,10.18,10.18,0,0,0,3-1.6,3.79,3.79,0,0,0,.68-.7A13.44,13.44,0,0,1,214.79,27.44ZM214,14.68c-1.78,0-2.38,0-2.5,0s-.23,0-.23-.22V13c0-.2,0-.22.23-.22s.72,0,2.5,0h3.72c1.8,0,2.4,0,2.52,0s.2,0,.2.22V14.5c0,.2,0,.22-.2.22s-.72,0-2.52,0h-1a15.48,15.48,0,0,1-.62,1.5H217c1.6,0,2.16,0,2.3,0s.22,0,.22.2,0,.82,0,2.34V24c0,1.52,0,2.2,0,2.3s0,.24-.22.24-.7,0-2.3,0h-2.66c-1.62,0-2.16,0-2.28,0s-.24,0-.24-.24,0-.78,0-2.3V18.76c0-1.6,0-2.28,0-2.42s0-.2.24-.2.62,0,2,0a12.26,12.26,0,0,0,.58-1.5Zm-.22,4.42h3.84V17.84h-3.84Zm3.84,2.82V20.6h-3.84v1.32Zm0,1.5h-3.84v1.42h3.84Zm-.54,3.32a.28.28,0,0,1,.46,0,10.51,10.51,0,0,0,3.3,2A4.64,4.64,0,0,0,220,29.8c-.18.34-.28.46-.44.46a1.25,1.25,0,0,1-.46-.17,12.12,12.12,0,0,1-2.9-2.19.27.27,0,0,1-.1-.2c0-.06,0-.14.16-.24Z"/><path d="M231.85,16.82c-2.44.46-4.59.88-6.73,1.32-.76.18-1,.22-1.26.32a1.17,1.17,0,0,1-.44.16.47.47,0,0,1-.38-.3,13.94,13.94,0,0,1-.74-2.16,27.59,27.59,0,0,0,3.18-.34c2.47-.36,6.87-1,12-1.7.3,0,.4.08.42.22a11.43,11.43,0,0,1,.22,1.76c0,.24-.12.3-.38.3a8.92,8.92,0,0,0-2.44.44c-3.4,1.16-5.1,3.5-5.1,5.9,0,2.58,1.84,4,5.32,4.2.32,0,.44.08.44.3a7.11,7.11,0,0,1-.22,1.72c-.06.3-.14.42-.38.42-3.53,0-7.39-2-7.39-6.18,0-2.84,1.42-4.76,3.85-6.34Zm4,2.16c.1-.08.18-.06.3,0a9.2,9.2,0,0,1,1.9,2.14.2.2,0,0,1-.06.32l-.84.62a.21.21,0,0,1-.34-.06,9.92,9.92,0,0,0-2-2.32Zm1.78-1.3c.12-.08.18-.06.3,0a8.35,8.35,0,0,1,1.9,2.06.23.23,0,0,1-.06.36l-.8.62a.21.21,0,0,1-.34-.06,9.46,9.46,0,0,0-2-2.3Z"/><path d="M254.65,18.78a6.26,6.26,0,0,0,0-1.36,8.62,8.62,0,0,1,2.32.86.38.38,0,0,1,.14.54,3.36,3.36,0,0,0-.32.78c-.16.84-.36,1.72-.56,2.58a23.14,23.14,0,0,1,3.12,1.92c.2.12.18.22.12.42a17.23,17.23,0,0,1-.86,1.72c-.06.1-.12.14-.18.14a.38.38,0,0,1-.24-.14,16.25,16.25,0,0,0-2.62-1.88,12.28,12.28,0,0,1-4,5.26c-.19.14-.28.22-.4.22a.55.55,0,0,1-.3-.14,4.12,4.12,0,0,0-1.74-.82,11,11,0,0,0,4.48-5.42,13.5,13.5,0,0,0-4-1.22,13.44,13.44,0,0,1-2.44,4,3.28,3.28,0,0,1-2.56,1.1,2.42,2.42,0,0,1-2.38-2.74c0-2.48,2.56-4.42,5.9-4.42.66-1.66,1.17-3.06,1.67-4.74l-2.77.32a4.2,4.2,0,0,0-.9.22,1.05,1.05,0,0,1-.36.08.32.32,0,0,1-.32-.22,12.12,12.12,0,0,1-.58-2.18,7.45,7.45,0,0,0,1.76.12,22.2,22.2,0,0,0,3.1-.26,2.36,2.36,0,0,0,1-.34.42.42,0,0,1,.26-.08.46.46,0,0,1,.28.08,6.68,6.68,0,0,1,1.36,1.1.48.48,0,0,1,.18.34.51.51,0,0,1-.2.34,2.72,2.72,0,0,0-.54,1c-.52,1.36-1.08,2.92-1.68,4.36a16.58,16.58,0,0,1,3.88,1A19.79,19.79,0,0,0,254.65,18.78Zm-10.57,5.58c0,.64.22.92.7.92a1.62,1.62,0,0,0,1.16-.76,13.67,13.67,0,0,0,1.46-2.44C245.36,22.16,244.08,23.22,244.08,24.36Z"/><path d="M267.73,20.44a6,6,0,0,1,3.18-.9,4.64,4.64,0,0,1,5,4.8c0,3.34-2.7,5.48-7,5.48-2.53,0-4.05-1.08-4.05-2.94a2.66,2.66,0,0,1,2.82-2.44,3.64,3.64,0,0,1,3.77,2.92,3,3,0,0,0,2-3,2.92,2.92,0,0,0-3.14-3,8.17,8.17,0,0,0-5.13,2.12c-.58.52-1.14,1.1-1.74,1.7-.14.14-.24.22-.34.22a.49.49,0,0,1-.3-.18,9,9,0,0,1-1.18-1.3c-.12-.16-.06-.3.1-.46A49.3,49.3,0,0,0,266.49,19c1.24-1.28,2.18-2.28,3.1-3.42-1.2.22-2.63.5-3.87.76a6.16,6.16,0,0,0-.84.24,1.47,1.47,0,0,1-.4.1.45.45,0,0,1-.44-.34,9.58,9.58,0,0,1-.7-2.16,9.64,9.64,0,0,0,1.86,0c1.22-.12,3-.38,4.55-.68a5.31,5.31,0,0,0,1.1-.3,1,1,0,0,1,.38-.16.71.71,0,0,1,.46.16A7.57,7.57,0,0,1,273,14.5a.69.69,0,0,1,.22.48.53.53,0,0,1-.34.48,3.23,3.23,0,0,0-.88.64c-1.46,1.42-2.8,2.82-4.33,4.28Zm0,5.7c-.58,0-1,.34-1,.76,0,.62.54,1,1.75,1a4.38,4.38,0,0,0,.92-.08C269.19,26.76,268.59,26.14,267.74,26.14Z"/><path d="M291.57,21.76H279.41V20.6h12.16Z"/><path d="M294.6,26.2h17.67V29H294.6Zm1.08-12.32h15.49v2.8H295.68Zm1.28,5.8h13v2.84H297Z"/><path d="M317,24.12c-.88.88-1,.9-1.06.9s0,0-.08-.08A12.38,12.38,0,0,0,313.72,23a11,11,0,0,0,4.93-5.56l-3.85,0,0-2.38,2.2,0V13.26s0-.66-.06-1.3c0,0,2.69,0,3.05.12s.34.14.34.24-.2.28-.62.36a3.34,3.34,0,0,0,0,.62v1.78h.4c.12,0,.19-.1.31-.1a6.4,6.4,0,0,1,1.55,1.14V14.74h3.64v-1.1s0-1.24-.06-1.68c0,0,2.6.1,3,.14.18,0,.28.1.28.2s-.16.28-.52.36c0,.28,0,1,0,1v1.08h3.8v11.2h-2.56v-1h-1.24v5.57h-2.7V24.9h-1.2V26h-2.44V23.12a5.29,5.29,0,0,0-1,.94c0,.06-.07.08-.1.08A9.28,9.28,0,0,1,319.62,23l0,7.49H317Zm4.93-7.74-.16.12a29.93,29.93,0,0,1-1.84,3.8,23.5,23.5,0,0,0,2,1.62Zm3.7,2.18V16.94h-1.26v1.62Zm0,4.12v-1.8h-1.26v1.8Zm3.88-4.12V16.94h-1.3v1.62Zm0,4.12v-1.8h-1.3v1.8Z"/><path d="M336.5,19.36h-2V16.92h2V13.64s0-.8-.06-1.34c0,0,2.17,0,2.87.14.27,0,.42.14.42.24s-.2.26-.62.36c0,.26,0,.94,0,.94v2.94h1.78v1.9l.76-.24V15.26s0-1.3-.06-1.72c0,0,2.44.06,2.88.14.22,0,.32.12.32.24s-.18.28-.58.36c0,.24,0,.92,0,.92v2.6l1.34-.4V13.64s0-1.08-.06-1.56c0,0,2.38,0,2.82.12.22,0,.32.12.32.24s-.18.28-.58.36c0,.24,0,.8,0,.8v3l4.1-1.26c0,.42,0,1,0,1.58,0,4.72-.3,6.26-1.08,7.26a10.63,10.63,0,0,0,1.92,1.58c.14.06.16.12.16.2s0,.14,0,.22c-.4,3.44-2.36,3.8-5.92,3.8-3,0-5.5,0-5.5-2.94v-6l-1.3.42-.8-2.16h-.44v4.22a17.82,17.82,0,0,0,2-.84s0,.72,0,1.38c0,.32,0,.64,0,.84s0,.1,0,.14-.06.12-.18.18a50.66,50.66,0,0,1-5.41,2.16v.12c0,.28-.08.46-.2.46s-.2-.1-.3-.28a26,26,0,0,1-1.18-2.64,24.78,24.78,0,0,0,2.66-.68Zm9,.52-1.34.42v6.12c0,1,.52,1.12,2.54,1.12,3.28,0,3.54-.32,3.62-2.74a2.35,2.35,0,0,1-1.22.32c-.48,0-.5,0-.52-.2a11.14,11.14,0,0,0-.62-1.76v2.68h-2.46Zm2.46,2.38a2.31,2.31,0,0,0,.58.12c.8,0,1-1,1-3.78l-1.54.5Z"/><path d="M355.3,13h16.51v2.54H358.16v9.14a15.63,15.63,0,0,0,4.91-3.44,34.63,34.63,0,0,0-4.21-2.6l2.05-1.8c1.08.6,2.42,1.4,3.86,2.38a14.73,14.73,0,0,0,2-3.58s2.56,1,3,1.26a.35.35,0,0,1,.18.26c0,.1-.12.2-.38.2a2.23,2.23,0,0,1-.34,0A25,25,0,0,1,367,20.82a30.57,30.57,0,0,1,3.54,3.34l-2.24,2.1a17.62,17.62,0,0,0-3-3.34,16.18,16.18,0,0,1-4.82,3.8.15.15,0,0,1-.11-.06,10.39,10.39,0,0,0-2.12-1.5V27h14.13v2.6H358.16v1.05H355.3Z"/><path class="cls-4" d="M79,55.39c-2.13.58-4.14,1.11-6,6.83A67.65,67.65,0,0,1,60.92,53.7l1.59-6.18c-3.71-1.11-5.41-3.77-6.73-7.45a3.14,3.14,0,0,0-.25-5.92l.11-1.46c.94-.12,1.26-.44,1.26-.8S56.58,31,54.61,31s-2.3.39-2.3.87.32.68,1.26.8l.11,1.46a3.14,3.14,0,0,0-.25,5.92c-1.32,3.68-3,6.34-6.73,7.45l1.59,6.18a67.65,67.65,0,0,1-12.08,8.52c-1.87-5.72-3.87-6.25-6-6.83a.64.64,0,0,0-.71,1c1.11,1.75,3,5.89,4.86,14.18S41.1,99.58,41.1,99.58h0c.55,1.94,4.43,3.53,9.61,4.08v20.21H58.5V103.66c5.18-.55,9.06-2.14,9.61-4.08h0S73,78.81,74.86,70.52s3.75-12.43,4.86-14.18A.64.64,0,0,0,79,55.39ZM54.61,95H52.18L50.4,70.18h8.41L57,95Zm-8-24.86L48.39,95H44c-1.29-5.61-4-17.6-5.76-24.86ZM60.82,95,62.6,70.18H71C69.26,77.44,66.49,89.43,65.2,95Z"/></g></g></svg>