<svg xmlns="http://www.w3.org/2000/svg" viewBox="0 0 402.07 126.64"><defs><style>.cls-1,.cls-2,.cls-3{fill:#fff;stroke:#000;stroke-miterlimit:10;}.cls-1{stroke-width:4.21px;}.cls-2{stroke-width:4.3px;}.cls-3{stroke-width:4.3px;}</style></defs><title>アセット 322</title><g id="レイヤー_2" data-name="レイヤー 2"><g id="レイヤー_1-2" data-name="レイヤー 1"><polygon class="cls-1" points="399.92 40.55 41.62 40.55 60.35 2.11 399.92 2.11 399.92 40.55"/><rect class="cls-2" x="53.07" y="40.54" width="346.85" height="69.43"/><circle class="cls-3" cx="54.61" cy="72.03" r="52.46"/><path d="M187.82,77.89c0-.1,0-.13.1-.13a23.21,23.21,0,0,1,4.21.78c.31.1.41.27.41.47a1,1,0,0,1-.37.72,1.66,1.66,0,0,0-.68,1s0,.07,0,.1c2.38,0,3.91-.06,7.55-.3.31,0,.38.13.38,1.6a12.71,12.71,0,0,1-.07,1.29.28.28,0,0,1-.28.24c-3.73-.17-5.33-.31-7.71-.34,0,.47,0,.95,0,1.39s0,.92,0,1.33c3.19,0,6.25,0,12.1-.34.31,0,.37.1.37,1.7s-.13,1.59-.37,1.59c-5.57-.27-8.91-.3-12-.3-8.13,0-9.93,0-15.57.3h-.07c-.2,0-.34,0-.34-1.66s0-1.63.41-1.63c6.08.34,8.94.34,12.24.34,0-.82,0-1.74,0-2.72-2.68,0-4,.13-8,.34-.24,0-.31-.07-.31-.31s0-.75,0-1.26c0-1.53,0-1.56.37-1.56,4,.3,5.37.3,8,.3-.07-1-.14-1.9-.27-2.82Zm15.26-7.27c0,.2-.2.34-2.11.34-1.39,0-1.56-.1-1.56-.34v-.07a29.64,29.64,0,0,0,.17-3.5c-2.45-.1-4.08-.14-5.54-.14s-2.69,0-4.39,0c-1.87,0-3.16,0-4.59,0s-2.92,0-5.27.14c0,1.43.07,2.17.17,3.6v0c0,.27-.37.34-2.17.34-.85,0-1.6,0-1.6-.34v-.07a23.61,23.61,0,0,0,.37-3.71c0-.88-.06-1.7-.13-2.72,0-.34,0-.37.44-.37,5.88.3,8.33.34,11,.34a28.77,28.77,0,0,0-.38-4.66.54.54,0,0,1,0-.2c0-.1.07-.14.27-.14a26.37,26.37,0,0,1,4.05.75c.34.1.47.27.47.47,0,.48-.54,1.09-.71,1.74a9.88,9.88,0,0,0-.27,2c3.13,0,5.4,0,11.35-.34.27,0,.31.1.31.34-.14,1.53-.17,2.68-.17,3.23a30.33,30.33,0,0,0,.27,3.19Zm-5,1.29-3.26-.2c2.79,1.53,6.59,4.48,6.59,4.86a.6.6,0,0,1-.17.34,11.21,11.21,0,0,1-2.1,1.8c-.14,0-.21-.07-.34-.24a23.64,23.64,0,0,0-2.11-2c-2.79.31-15.23,1.74-16.18,1.8-.44,0-.72.34-1,.34-.44,0-1.7-2.78-1.7-3.36a.13.13,0,0,1,.14-.14c.07,0,.13,0,.24,0a20.54,20.54,0,0,0,2.17.1c1.09,0,2.41-.07,3.84-.14a12.3,12.3,0,0,0,1.19-3.36c-1.09,0-2.34.1-3.94.2h-.07a.32.32,0,0,1-.34-.27V69.12c0-.3.2-.3.41-.3,3.84.27,5.54.3,7.31.3,4.11,0,5.64-.07,9.31-.3a.29.29,0,0,1,.31.3,11.69,11.69,0,0,1,.07,1.29c0,.51,0,1-.07,1.3s-.1.2-.24.2ZM189,71.74c.34.14.48.24.48.37s-.41.38-.78.68a1.74,1.74,0,0,0-.58.79,14.64,14.64,0,0,1-.75,1.32c2.41-.17,4.83-.37,6.73-.54-.71-.51-1.26-.85-1.49-1-.07-.07-.14-.14-.14-.21s.07-.17.14-.27c.27-.27.88-.88,1.25-1.19-1.53-.07-2.58-.07-4-.07-.41,0-.82,0-1.26,0Z"/><path d="M232.93,85.44c0,2.31-1.05,4.45-5.88,4.45-.2,0-.41-.13-.51-.51a13.93,13.93,0,0,0-2.11-3.12.7.7,0,0,1-.06-.17c0-.11.06-.14.2-.14a.75.75,0,0,1,.24,0,15.85,15.85,0,0,0,2.68.31c1.43,0,1.81-.51,1.84-1.63,0-2.35.07-4.28.07-5.85,0-2.11,0-3.53,0-4.52,0-1.39,0-4.15-.23-6.36l-5.48.14v.2c0,.78,0,11,.24,13.53v.1c0,.45-.2.55-1.6.55-1.15,0-1.6-.1-1.6-.41V82c0-.47,0-1.29,0-2.27-1.19,0-3.2-.07-3.91-.07l-3.5,0c0,1.7,0,3.13.06,3.81,0,.41,0,.44-.5.51-2.66,0-2.66,0-2.66-.41V83.4c.14-1.19.17-4.18.17-15.33,0-.34,0-.75,0-1.29,0-1.16-.07-2.79-.17-4.66,0-.1,0-.2,0-.27s.07-.21.34-.21h.17c1.4.14,4.39.21,6.16.21s4.38-.07,6.52-.21c.31,0,.41.07.41.34v.14c-.07,1-.13,2-.17,2.85,2.31.07,5.41.17,7,.17,2.07,0,4.11,0,8.23-.34h0c.31,0,.31.48.31,2,0,1.06,0,1.4-.34,1.4-2.35-.21-3.95-.27-5.34-.31a1.09,1.09,0,0,1-.41.38c-.34.23-.41.54-.44,1.22v4.76c0,2,0,6.9.2,10.81Zm-17.44-21c-1,0-2.14,0-2.14,0s0,2.89,0,3.88v.85c.61,0,1.42,0,2.17,0Zm0,12.65c0-1.26,0-3.23,0-5.37l-2.17.06V77Zm5.3-8.81c0-.75,0-3.81,0-3.81s-.85,0-1.8,0a.58.58,0,0,1-.21.2.54.54,0,0,0-.27.41c0,.31,0,.51,0,4.18.85,0,1.7,0,2.34,0Zm0,3.5c-.68,0-1.53,0-2.34,0v5.34l2.34-.07Z"/><path d="M253.78,82.75c0,.34-.11.58-1.7.58-.92,0-1.64,0-1.64-.47v-.07c0-.65,0-1.5.07-2.41-.37,0-.95-.07-1.46-.07s-1.19,0-1.56.07c0,1.52,0,3,.06,4.35,0,.57-.06.61-1.69.61s-1.74-.21-1.74-.55v-.1c.31-4.65.38-9.75.38-12.54,0-3.5-.07-6.26-.21-9.05,0-.13,0-.2,0-.3s.07-.21.24-.21.17,0,.27,0c1.09.1,2.58.17,4.31.17s2-.07,4.22-.21c.37,0,.44.14.44.48-.24,2.69-.24,5.81-.24,8.74,0,2.55.07,8.06.28,10.74ZM249,65.42c-1,0-1.53,0-1.53,0s-.07,2.11-.07,4.52c.41,0,1.09,0,1.6,0s1.22,0,1.59,0c0-2.17-.1-4.52-.1-4.52s-.34,0-1,0Zm1.59,7.31c-.37,0-1,0-1.56,0s-1.26,0-1.63,0c0,1.32,0,3,0,4.86.41,0,1.06,0,1.57,0s1.15,0,1.53,0C250.58,75.75,250.61,74,250.61,72.73Zm21.83.17c-3.77-.38-7.31-.41-9.45-.41s-3.91.07-8.36.34c-.34,0-.41-.1-.41-1.57s0-1.63.41-1.63c3.33.27,5.06.34,6.83.34V67.29c-1.53,0-3,.06-5.47.2-.31,0-.38,0-.38-1.46s.07-1.53.44-1.53c2.38.2,3.91.2,5.34.2v-.34a27.37,27.37,0,0,0-.47-5v-.17c0-.17,0-.2.23-.2.55,0,4.36.4,4.36,1.12,0,.27-.31.61-.51,1-.38.71-.34.64-.48,2.85a4.94,4.94,0,0,0,0,.68c1.29,0,2.58-.07,5.2-.24.17,0,.4,0,.4,1.57a7.8,7.8,0,0,1-.06,1.26c0,.13-.21.2-.31.2h0c-2.55-.14-3.74-.17-5.24-.2V70c2.11,0,4.86-.17,8-.41.24,0,.37.24.37,1.67,0,.54,0,1.09-.06,1.43,0,.13-.17.24-.28.24Zm-4.59,13c0,2-1.12,4.25-5.1,4.25q-.3,0-.51-.51c-.64-1.53-1.83-2.07-2.65-3-.1-.11-.17-.17-.17-.24s0-.07.14-.07a1.39,1.39,0,0,0,.17,0,19.72,19.72,0,0,0,2.75.28c1.29,0,2-.34,2-1.33.07-1.33.07-4,.07-5.54v-2h-1.46c-2.18,0-3.95.07-8.33.34a.32.32,0,0,1-.34-.31c0-.27,0-.78,0-1.33,0-1.63,0-1.63.38-1.63,4.21.34,5.95.34,8.33.34h1.36a12.71,12.71,0,0,0-.28-2,.86.86,0,0,0,0-.13c0-.14.1-.21.27-.21s4,.34,4,1a.89.89,0,0,1-.27.54c-.31.41-.41.41-.44.75,1.39-.07,2.95-.17,4.62-.3h0c.21,0,.34.27.34,1.69a14.3,14.3,0,0,1-.07,1.47.33.33,0,0,1-.27.24h0c-1.67-.17-3.27-.28-4.69-.31v2.92c0,1.84.17,3,.2,4.93Zm-7.51-1.49c-.07,0-.14-.07-.21-.14a19.47,19.47,0,0,0-4.25-3.64c-.1-.07-.13-.1-.13-.17,0-.37,1.49-1.36,1.83-1.56a.31.31,0,0,1,.17-.1.35.35,0,0,1,.17.06,17.37,17.37,0,0,1,4.46,2.89.29.29,0,0,1,.1.21,14.63,14.63,0,0,1-2,2.38C260.44,84.35,260.41,84.39,260.34,84.39Z"/><path d="M281.59,89.32c.51-4.59.75-12,.88-17.58-.3.37-3.8,4.72-4.55,4.72a.45.45,0,0,1-.27-.06,9.56,9.56,0,0,0-2.86-1.06c-.2,0-.34-.1-.34-.17s.07-.13.17-.2c5.85-4.15,10.5-12,10.91-14.28,0-.14.07-.2.17-.2.58,0,4,1.46,4,2.1,0,.24-.27.48-.78.68s-.68.14-.95.68a38.41,38.41,0,0,1-2.32,3.57c.24.07.41.17.55.21a.42.42,0,0,1,.34.41,1.12,1.12,0,0,1-.34.64,2,2,0,0,0-.51,1.63c-.14,4.22-.31,9.76-.31,14.28,0,1.77,0,3.37.1,4.69,0,.17-.1.34-1.93.34-1.6,0-1.94,0-1.94-.34Zm23.52-18.19c0,.13-.23.27-.34.27-5.09.37-5.84.44-8.83.88l-.72.11c2,10.13,7.62,12.91,8.3,12.91s1.59-1,1.83-3.8c0-.21.07-.28.17-.28s.14.07.21.17a11.67,11.67,0,0,0,2.72,2.76.52.52,0,0,1,.23.51c-.91,3-2.55,4.66-4.55,4.66a5.11,5.11,0,0,1-2.72-.92c-5.61-3.54-8.09-9.52-9.35-15.47l-4.86,1h-.1a.39.39,0,0,1-.41-.24,13.42,13.42,0,0,1-.38-2.68v-.14c0-.34.17-.41.38-.41,2.14-.13,3.6-.27,4.86-.44-.27-1.73-.48-3.47-.61-5.1s-.27-3-.48-3.91a2.81,2.81,0,0,1-.07-.37.19.19,0,0,1,.21-.21c.07,0,.13,0,.2,0,3.67.44,4.42.57,4.42,1.12a3.17,3.17,0,0,1-.51,1.19,2.61,2.61,0,0,0-.2,1.12,49.33,49.33,0,0,0,.27,5.68l.75-.1c3.26-.45,4.08-.62,8.73-1.6h.07a.37.37,0,0,1,.38.3,19.37,19.37,0,0,1,.4,2.89ZM300,67.59a23.27,23.27,0,0,0-4.12-2.82c-.13-.07-.27-.1-.27-.24a5.68,5.68,0,0,1,1.77-2.21c.65,0,4.79,2.31,4.79,2.76s-1.36,2.68-1.8,2.68A.49.49,0,0,1,300,67.59Z"/><path d="M106.88,24.16a21,21,0,0,0,1.94-.92,8.41,8.41,0,0,0,0,1.24c0,.66,0,.64-.52.92-1.24.62-2.66,1.2-4,1.7a3.31,3.31,0,0,0-.66.32.52.52,0,0,1-.34.14c-.12,0-.22-.06-.3-.23a18.61,18.61,0,0,1-.54-1.79,14.36,14.36,0,0,0,2-.5l.46-.14V19.22h-.16c-1.3,0-1.7,0-1.82,0s-.2,0-.2-.22V17.52c0-.2,0-.22.2-.22s.52,0,1.82,0h.16V15.46a16.94,16.94,0,0,0-.16-2.94c.78,0,1.4.06,2.06.14.2,0,.32.12.32.24a1.13,1.13,0,0,1-.12.4,6.71,6.71,0,0,0-.12,1.9v2.14c1.14,0,1.52,0,1.64,0s.2,0,.2.22V19c0,.2,0,.22-.2.22s-.5,0-1.64,0Zm5.05,2.78c0,.52.1.77.38.9s.9.23,2.88.23c2.16,0,2.82-.11,3.22-.43s.42-.68.48-2.26a5.34,5.34,0,0,0,1.44.64c.5.15.5.15.44.66-.18,1.74-.42,2.28-1.08,2.71s-1.64.66-4.74.66c-2.72,0-3.72-.24-4.22-.56s-.77-.91-.77-2V21.26c-1,.36-1.44.54-1.6.58s-.22,0-.26-.16l-.26-1.56c0-.2,0-.2.16-.26s.68-.16,2-.58v-2.2a20.22,20.22,0,0,0-.12-2.84c.68,0,1.33.06,1.93.12.28,0,.4.12.4.22a.9.9,0,0,1-.12.42,6.05,6.05,0,0,0-.12,1.9v1.72l1.92-.64v-2.9a20.74,20.74,0,0,0-.16-2.84,15.94,15.94,0,0,1,2,.16c.2,0,.32.1.32.22a1.13,1.13,0,0,1-.12.4,6.27,6.27,0,0,0-.12,1.8v2.52l1.54-.52c1.88-.62,2.48-.88,2.62-.9s.22,0,.22.2l-.06,2.56a19.56,19.56,0,0,1-.48,4.52c-.3,1.16-.86,1.52-1.72,1.52a4.72,4.72,0,0,1-.74,0c-.44,0-.44,0-.54-.66a5,5,0,0,0-.42-1.44,4.68,4.68,0,0,0,1.06.14c.34,0,.48-.1.6-.74a19.06,19.06,0,0,0,.24-3.5l-2.32.8v3.48c0,2,0,3,0,3.1s0,.22-.22.22H114c-.2,0-.22,0-.22-.22s0-1.1,0-3.1V19.94l-1.92.66Z"/><path d="M125.74,27.37h11.65c1.94,0,2.62,0,2.74,0s.22,0,.22.21v1.61c0,.2,0,.22-.22.22s-.8,0-2.74,0H125.74v.86c0,.2,0,.22-.24.22h-1.7c-.2,0-.22,0-.22-.22s0-1.48,0-4.21V17.34c0-2.74,0-4.08,0-4.2s0-.24.22-.24.8,0,2.68,0h10.77c1.86,0,2.5,0,2.62,0s.24,0,.24.24v1.58c0,.2,0,.22-.24.22s-.76,0-2.62,0H125.74ZM128.8,17c.18-.18.2-.2.38-.08,1.32.84,2.65,1.78,4,2.8a17.34,17.34,0,0,0,1.5-2.48,6,6,0,0,0,.56-1.62,11.28,11.28,0,0,1,1.92.76c.2.1.3.18.3.34s-.1.24-.24.36a4,4,0,0,0-.56.92,22.92,22.92,0,0,1-1.88,3c1.2,1,2.38,2,3.58,3.12.1.08.14.14.14.2s0,.14-.16.26l-1.1,1.2a.31.31,0,0,1-.22.14.21.21,0,0,1-.18-.1c-1.12-1.16-2.26-2.22-3.4-3.22a19.84,19.84,0,0,1-5,3.74,1.34,1.34,0,0,1-.48.2c-.14,0-.24-.14-.44-.44A4,4,0,0,0,126.48,25a18.67,18.67,0,0,0,5.39-3.76c-1.31-1-2.63-2-4-3-.1-.06-.14-.12-.14-.16s.06-.14.16-.24Z"/><path d="M150,21.54c1.1,0,1.43,0,1.55,0s.26,0,.26.24c0,.7-.06,1.22-.06,1.78a26.4,26.4,0,0,1-.38,4.56,2.34,2.34,0,0,1-2.55,2,8.36,8.36,0,0,1-1,0c-.54-.06-.58,0-.68-.64a3.69,3.69,0,0,0-.56-1.48c.8.09,1.52.17,1.92.17.6,0,.82-.25,1-1.2a24.17,24.17,0,0,0,.24-3.54H147.1a11.79,11.79,0,0,1-3,6.29c-.18.2-.28.3-.38.3s-.18-.12-.34-.39a5,5,0,0,0-1.08-1.21c2.28-2.11,3-4.33,3.12-8.83l-2,0c-.22,0-.24,0-.24-.22s0-.62,0-1.78V15c0-1.16,0-1.64,0-1.78s0-.22.24-.22.68,0,2.34,0h3.32c1.65,0,2.21,0,2.35,0s.22,0,.22.22,0,.62,0,1.78v2.58c0,1.16,0,1.66,0,1.78s0,.22-.22.22-.7,0-2.35,0h-1.68q0,1.08-.12,2Zm-4.72-3.74h4.38v-3h-4.38Zm8.41-1a21.07,21.07,0,0,0-.14-3c.7,0,1.36.06,2,.14.2,0,.3.1.3.22a1.87,1.87,0,0,1-.14.44,13.65,13.65,0,0,0-.06,2.14v5.52c0,1.7,0,2.52,0,2.64s0,.22-.24.22h-1.62c-.2,0-.22,0-.22-.22s0-.94,0-2.64Zm6.24,6.84c0,1.4.06,3,.06,4s-.16,1.57-.72,2-1.16.48-3.1.5c-.62,0-.62,0-.76-.64a4.27,4.27,0,0,0-.64-1.51A16,16,0,0,0,157,28c.64,0,.88-.15.88-.78v-12a19.41,19.41,0,0,0-.16-2.86c.72,0,1.46.06,2.16.14.2,0,.32.12.32.22a1,1,0,0,1-.14.42,7.15,7.15,0,0,0-.12,2Z"/><path d="M172.73,16.56a25,25,0,0,1-2.5,8.62c-.87,1.5-1.91,2.31-3.41,2.31-1.76,0-3.54-1.89-3.54-5.15a7.37,7.37,0,0,1,2.26-5.2,8.78,8.78,0,0,1,6.51-2.56c4.8,0,7.62,3,7.62,6.94,0,3.72-2.1,6.06-6.16,7.29-.42.11-.6,0-.86-.36a4.24,4.24,0,0,0-1.4-1.27c3.38-.8,6-2.2,6-6a4.54,4.54,0,0,0-4.48-4.64ZM167,18.5a5.76,5.76,0,0,0-1.56,3.7c0,1.84.74,2.86,1.36,2.86s1-.26,1.5-1.22a22.84,22.84,0,0,0,2.13-7.16A6,6,0,0,0,167,18.5Z"/><path d="M194,12.46c.26-.12.3-.1.38.1a16,16,0,0,0,6.48,7.38,6.85,6.85,0,0,0-1.16,1.5c-.18.3-.26.44-.38.44s-.22-.1-.42-.26A16.55,16.55,0,0,1,197,20c0,.58,0,1.28-.06,2a39.92,39.92,0,0,1-.5,5.6c-.26,1.59-1,2.47-3,2.47-.5,0-.88,0-1.36,0s-.6,0-.74-.7a4,4,0,0,0-.62-1.6,16.09,16.09,0,0,0,2.28.17c.84,0,1.18-.32,1.34-1.24a33,33,0,0,0,.38-5h-3.56A9.71,9.71,0,0,1,185,30.17a1.31,1.31,0,0,1-.48.16c-.16,0-.22-.14-.42-.48a3.67,3.67,0,0,0-1-1.2c3.64-1.32,5.41-3.45,5.79-7h-.25c-1.88,0-2.52,0-2.64,0s-.22,0-.22-.22V20a21.79,21.79,0,0,1-1.94,1.66c-.22.16-.34.26-.44.26s-.22-.14-.42-.44a4.48,4.48,0,0,0-1.12-1.22,15.62,15.62,0,0,0,5.78-6.6,5.66,5.66,0,0,0,.4-1.28,14.18,14.18,0,0,1,2.09.7c.21.1.28.2.28.34a.45.45,0,0,1-.16.3,1.6,1.6,0,0,0-.46.64,18.26,18.26,0,0,1-3.67,5.3c.28,0,1,0,2.52,0h5.39c1.74,0,2.4,0,2.6,0a21.06,21.06,0,0,1-4.3-6.34c-.08-.22,0-.24.18-.34Z"/><path d="M208.28,17.56a9.13,9.13,0,0,0,2.93,2.28,4.15,4.15,0,0,0-.64,1c-.14.32-.22.48-.37.48s-.21-.1-.43-.28a10,10,0,0,1-2.19-2.44c0,1.6.08,2,.08,2.2s0,.22-.22.22H206.1c-.2,0-.22,0-.22-.22s.06-.56.08-2a10.87,10.87,0,0,1-2.62,2.62c-.22.16-.34.24-.46.24s-.22-.12-.34-.38a3.74,3.74,0,0,0-.72-1.1,10.66,10.66,0,0,0,3.46-2.64h-.4c-1.68,0-2.26,0-2.38,0s-.2,0-.2-.22V16.26c0-.2,0-.22.2-.22s.7,0,2.38,0h1V14.56a16.53,16.53,0,0,0-.14-2.42c.72,0,1.2.06,1.88.14.22,0,.32.1.32.2a1.9,1.9,0,0,1-.14.48,8.08,8.08,0,0,0-.08,1.6v1.52h.84c1.7,0,2.27,0,2.39,0s.22,0,.22.22v1.12c0,.2,0,.22-.22.22s-.69,0-2.39,0Zm-3.48,7.22c-1.7,0-2.26,0-2.38,0s-.22,0-.22-.22V23.34c0-.2,0-.22.22-.22s.68,0,2.38,0h.92a8.21,8.21,0,0,0,0-1.72c.8.06,1.34.1,1.78.16.22,0,.34.12.34.24a.86.86,0,0,1-.1.32,2.67,2.67,0,0,0-.18,1h.92c1.74,0,2.28,0,2.4,0s.25,0,.25.22V24.6c0,.2,0,.22-.25.22s-.66,0-2.4,0H208a6.19,6.19,0,0,0,3,2.56,4.73,4.73,0,0,0-.95,1c-.19.3-.3.44-.43.44s-.25-.1-.46-.27a7.29,7.29,0,0,1-2.19-2.46,7.26,7.26,0,0,1-3.14,3.57,1,1,0,0,1-.42.18c-.14,0-.26-.12-.46-.44a4.35,4.35,0,0,0-1-1.05,5.55,5.55,0,0,0,3.52-3.56Zm-1-11.88c.2-.1.26-.08.4.08a10.6,10.6,0,0,1,1.1,1.86c.1.22.06.28-.2.4l-.94.44c-.24.12-.3.14-.38-.06a10.62,10.62,0,0,0-1-1.9c-.14-.2-.16-.26.12-.4Zm5.1.68a3.24,3.24,0,0,0,.29-.88,10.35,10.35,0,0,1,1.47.54c.16.06.23.16.23.24s0,.16-.19.28a1.69,1.69,0,0,0-.27.38,13.8,13.8,0,0,1-.69,1.24c-.16.26-.24.36-.36.36a1,1,0,0,1-.38-.16,6.24,6.24,0,0,0-1-.4A9.72,9.72,0,0,0,208.86,13.58Zm5.93,13.87c.2.13.22.22.22.31s-.1.19-.24.24a2.53,2.53,0,0,0-.52.37,13.46,13.46,0,0,1-2.68,1.8,1.52,1.52,0,0,1-.52.2c-.19,0-.28-.14-.48-.48a4.92,4.92,0,0,0-.83-1,10.43,10.43,0,0,0,3-1.59,3.86,3.86,0,0,0,.68-.71A11.88,11.88,0,0,1,214.79,27.45ZM214,14.68c-1.78,0-2.38,0-2.5,0s-.23,0-.23-.22V13c0-.2,0-.22.23-.22s.72,0,2.5,0h3.72c1.8,0,2.4,0,2.52,0s.2,0,.2.22V14.5c0,.2,0,.22-.2.22s-.72,0-2.52,0h-1a15.48,15.48,0,0,1-.62,1.5H217c1.6,0,2.16,0,2.3,0s.22,0,.22.2,0,.82,0,2.34V24c0,1.52,0,2.21,0,2.3s0,.24-.22.24-.7,0-2.3,0h-2.66c-1.62,0-2.16,0-2.28,0s-.24,0-.24-.24,0-.78,0-2.3V18.76c0-1.6,0-2.28,0-2.42s0-.2.24-.2.62,0,2,0a12.26,12.26,0,0,0,.58-1.5Zm-.22,4.42h3.84V17.84h-3.84Zm3.84,2.82V20.6h-3.84v1.32Zm0,1.5h-3.84v1.42h3.84Zm-.54,3.33a.36.36,0,0,1,.26-.15.34.34,0,0,1,.2.11,10.51,10.51,0,0,0,3.3,2,4.64,4.64,0,0,0-.82,1.12c-.18.34-.28.46-.44.46a1.14,1.14,0,0,1-.46-.18,11.84,11.84,0,0,1-2.9-2.18.29.29,0,0,1-.1-.2c0-.07,0-.15.16-.25Z"/><path d="M231.85,16.82c-2.44.46-4.59.88-6.73,1.32-.76.18-1,.22-1.26.32a1.17,1.17,0,0,1-.44.16.47.47,0,0,1-.38-.3,13.94,13.94,0,0,1-.74-2.16,27.59,27.59,0,0,0,3.18-.34c2.47-.36,6.87-1,12-1.7.3,0,.4.08.42.22a11.43,11.43,0,0,1,.22,1.76c0,.24-.12.3-.38.3a8.92,8.92,0,0,0-2.44.44c-3.4,1.16-5.1,3.5-5.1,5.9,0,2.58,1.84,4,5.32,4.2.32,0,.44.08.44.31a7.1,7.1,0,0,1-.22,1.71c-.06.31-.14.43-.38.43-3.53,0-7.39-2-7.39-6.19,0-2.84,1.42-4.76,3.85-6.34Zm4,2.16c.1-.08.18-.06.3,0a9.2,9.2,0,0,1,1.9,2.14.2.2,0,0,1-.06.32l-.84.62a.21.21,0,0,1-.34-.06,9.92,9.92,0,0,0-2-2.32Zm1.78-1.3c.12-.08.18-.06.3,0a8.35,8.35,0,0,1,1.9,2.06.23.23,0,0,1-.06.36l-.8.62a.21.21,0,0,1-.34-.06,9.46,9.46,0,0,0-2-2.3Z"/><path d="M254.65,18.78a6.26,6.26,0,0,0,0-1.36,8.62,8.62,0,0,1,2.32.86.38.38,0,0,1,.14.54,3.36,3.36,0,0,0-.32.78c-.16.84-.36,1.72-.56,2.58a23.14,23.14,0,0,1,3.12,1.92c.2.12.18.22.12.42a18.58,18.58,0,0,1-.86,1.73c-.06.09-.12.13-.18.13a.41.41,0,0,1-.24-.13,15.73,15.73,0,0,0-2.62-1.89,12.25,12.25,0,0,1-4,5.27c-.19.14-.28.22-.4.22a.55.55,0,0,1-.3-.14,4.26,4.26,0,0,0-1.74-.83,11,11,0,0,0,4.48-5.42,13.5,13.5,0,0,0-4-1.22,13.67,13.67,0,0,1-2.44,4,3.31,3.31,0,0,1-2.56,1.09,2.42,2.42,0,0,1-2.38-2.74c0-2.48,2.56-4.42,5.9-4.42.66-1.66,1.17-3.06,1.67-4.74l-2.77.32a4.2,4.2,0,0,0-.9.22,1.05,1.05,0,0,1-.36.08.32.32,0,0,1-.32-.22,12.12,12.12,0,0,1-.58-2.18,7.45,7.45,0,0,0,1.76.12,22.2,22.2,0,0,0,3.1-.26,2.36,2.36,0,0,0,1-.34.42.42,0,0,1,.26-.08.46.46,0,0,1,.28.08,6.68,6.68,0,0,1,1.36,1.1.48.48,0,0,1,.18.34.51.51,0,0,1-.2.34,2.72,2.72,0,0,0-.54,1c-.52,1.36-1.08,2.92-1.68,4.36a16.58,16.58,0,0,1,3.88,1A19.79,19.79,0,0,0,254.65,18.78Zm-10.57,5.58c0,.64.22.92.7.92a1.62,1.62,0,0,0,1.16-.76,13.67,13.67,0,0,0,1.46-2.44C245.36,22.16,244.08,23.22,244.08,24.36Z"/><path d="M267.73,20.44a6,6,0,0,1,3.18-.9,4.64,4.64,0,0,1,5,4.8c0,3.34-2.7,5.49-7,5.49-2.53,0-4.05-1.08-4.05-2.95a2.66,2.66,0,0,1,2.82-2.44,3.64,3.64,0,0,1,3.77,2.93,3,3,0,0,0,2-3.05,2.92,2.92,0,0,0-3.14-3,8.17,8.17,0,0,0-5.13,2.12c-.58.52-1.14,1.1-1.74,1.7-.14.14-.24.22-.34.22a.49.49,0,0,1-.3-.18,9,9,0,0,1-1.18-1.3c-.12-.16-.06-.3.1-.46A49.3,49.3,0,0,0,266.49,19c1.24-1.28,2.18-2.28,3.1-3.42-1.2.22-2.63.5-3.87.76a6.16,6.16,0,0,0-.84.24,1.47,1.47,0,0,1-.4.1.45.45,0,0,1-.44-.34,9.58,9.58,0,0,1-.7-2.16,9.64,9.64,0,0,0,1.86,0c1.22-.12,3-.38,4.55-.68a5.31,5.31,0,0,0,1.1-.3,1,1,0,0,1,.38-.16.71.71,0,0,1,.46.16A7.57,7.57,0,0,1,273,14.5a.69.69,0,0,1,.22.48.53.53,0,0,1-.34.48,3.23,3.23,0,0,0-.88.64c-1.46,1.42-2.8,2.82-4.33,4.28Zm0,5.7c-.58,0-1,.34-1,.76,0,.63.54,1.05,1.75,1.05a5.17,5.17,0,0,0,.92-.08C269.19,26.76,268.59,26.14,267.74,26.14Z"/><path d="M291.57,21.76H279.41V20.6h12.16Z"/><path d="M294.6,26.21h17.67V29H294.6Zm1.08-12.33h15.49v2.8H295.68Zm1.28,5.8h13v2.84H297Z"/><path d="M317,24.12c-.88.88-1,.9-1.06.9s0,0-.08-.08A12.38,12.38,0,0,0,313.72,23a11,11,0,0,0,4.93-5.56l-3.85,0,0-2.38,2.2,0V13.26s0-.66-.06-1.3c0,0,2.69,0,3.05.12s.34.14.34.24-.2.28-.62.36a3.34,3.34,0,0,0,0,.62v1.78h.4c.12,0,.19-.1.31-.1a6.4,6.4,0,0,1,1.55,1.14V14.74h3.64v-1.1s0-1.24-.06-1.68c0,0,2.6.1,3,.14.18,0,.28.1.28.2s-.16.28-.52.36c0,.28,0,1,0,1v1.08h3.8v11.2h-2.56v-1h-1.24v5.57h-2.7V24.9h-1.2V26h-2.44V23.12a5.29,5.29,0,0,0-1,.94c0,.06-.07.08-.1.08A9.28,9.28,0,0,1,319.62,23l0,7.49H317Zm4.93-7.74-.16.12a29.93,29.93,0,0,1-1.84,3.8,23.5,23.5,0,0,0,2,1.62Zm3.7,2.18V16.94h-1.26v1.62Zm0,4.12v-1.8h-1.26v1.8Zm3.88-4.12V16.94h-1.3v1.62Zm0,4.12v-1.8h-1.3v1.8Z"/><path d="M336.5,19.36h-2V16.92h2V13.64s0-.8-.06-1.34c0,0,2.17,0,2.87.14.27,0,.42.14.42.24s-.2.26-.62.36c0,.26,0,.94,0,.94v2.94h1.78v1.9l.76-.24V15.26s0-1.3-.06-1.72c0,0,2.44.06,2.88.14.22,0,.32.12.32.24s-.18.28-.58.36c0,.24,0,.92,0,.92v2.6l1.34-.4V13.64s0-1.08-.06-1.56c0,0,2.38,0,2.82.12.22,0,.32.12.32.24s-.18.28-.58.36c0,.24,0,.8,0,.8v3l4.1-1.26c0,.42,0,1,0,1.58,0,4.72-.3,6.26-1.08,7.26a10.63,10.63,0,0,0,1.92,1.58c.14.06.16.12.16.2s0,.14,0,.22c-.4,3.45-2.36,3.81-5.92,3.81-3,0-5.5,0-5.5-3v-6l-1.3.42-.8-2.16h-.44v4.22a17.82,17.82,0,0,0,2-.84s0,.72,0,1.38c0,.32,0,.64,0,.84s0,.1,0,.14-.06.12-.18.18a50.55,50.55,0,0,1-5.41,2.17v.11c0,.28-.08.47-.2.47s-.2-.11-.3-.28a26.76,26.76,0,0,1-1.18-2.65,24.78,24.78,0,0,0,2.66-.68Zm9,.52-1.34.42v6.12c0,1,.52,1.12,2.54,1.12,3.28,0,3.54-.32,3.62-2.74a2.35,2.35,0,0,1-1.22.32c-.48,0-.5,0-.52-.2a11.14,11.14,0,0,0-.62-1.76v2.68h-2.46Zm2.46,2.38a2.31,2.31,0,0,0,.58.12c.8,0,1-1,1-3.78l-1.54.5Z"/><path d="M355.3,13h16.51v2.54H358.16v9.14a15.63,15.63,0,0,0,4.91-3.44,34.63,34.63,0,0,0-4.21-2.6l2.05-1.8c1.08.6,2.42,1.4,3.86,2.38a14.73,14.73,0,0,0,2-3.58s2.56,1,3,1.26a.35.35,0,0,1,.18.26c0,.1-.12.2-.38.2a2.23,2.23,0,0,1-.34,0A25,25,0,0,1,367,20.82a30.57,30.57,0,0,1,3.54,3.34l-2.24,2.1a17.62,17.62,0,0,0-3-3.34,16.18,16.18,0,0,1-4.82,3.8.14.14,0,0,1-.11,0,10,10,0,0,0-2.12-1.51V27h14.13v2.6H358.16v1.05H355.3Z"/><rect x="50.14" y="41.7" width="8.92" height="1.45"/><rect x="52.02" y="38.18" width="5.17" height="2.14"/><path d="M54.61,38.63a2.05,2.05,0,1,0-2.06-2.05A2.05,2.05,0,0,0,54.61,38.63Z"/><path d="M94.47,73.76C88.36,73.72,82.26,72,76.15,69V62.9H73.28V58.27A26.68,26.68,0,0,0,83.42,55c.36-.23.23-.92-.17-.92-7.84.12-15.66-3.91-23.57-9.56H49.53C41.86,50,34.26,54,26.65,54.09c-.57,0-.73,1-.21,1.31a28.34,28.34,0,0,0,9.49,2.87V62.9H33.07V69C27,72,20.85,73.72,14.75,73.76c-.63,0-.79,1.37-.2,1.71a38.66,38.66,0,0,0,12.83,4v4.34H24.69v6.37H21.14V96h6.24v4.56h3.55V96H78.28v4.56h3.55V96h6.34V90.18H84.53V83.81h-2.7V79.47a38.59,38.59,0,0,0,12.83-4C95.25,75.13,95.1,73.76,94.47,73.76ZM30.93,85.19h8.88v5H30.93Zm23.68-26c1.5,0,3.09,0,4.72,0V62.9H50.42V59.18Zm4.72,5.09v4.53H50.42V64.28Zm3,4.53V64.28h7.37v4.53Zm-15,0H39.48V64.28h7.91Zm5.7,12.07v2.93H42.84v-3C46.37,80.86,49.84,80.88,53.09,80.88Zm0,4.31v5H42.84v-5Zm16.31,5v-5h8.88v5Zm-3,0H56.12v-5H66.37ZM56.12,83.81V80.88c3.26,0,6.73,0,10.25-.12v3ZM74.77,64.28v4.53H73.28V64.28Zm-5-1.38H62.36V59.12c2.46-.06,5-.18,7.37-.41ZM39.48,58.71c2.6.24,5.29.36,7.91.42V62.9H39.48Zm-3.55,5.57v4.53H34.44V64.28ZM30.93,80c2.89.33,5.89.55,8.88.68v3.16H30.93Zm-4.87,5.22h1.32v5H26.06Zm57.09,0v5H81.83v-5Zm-4.87-1.38H69.4V80.65c3-.13,6-.35,8.88-.68Z"/></g></g></svg>