<svg xmlns="http://www.w3.org/2000/svg" viewBox="0 0 402.07 126.64"><defs><style>.cls-1,.cls-2,.cls-3,.cls-4{fill:#fff;}.cls-1,.cls-2,.cls-3{stroke:#000;stroke-miterlimit:10;}.cls-1{stroke-width:4.21px;}.cls-2{stroke-width:4.3px;}.cls-3{stroke-width:4.3px;}</style></defs><title>アセット 201</title><g id="レイヤー_2" data-name="レイヤー 2"><g id="レイヤー_1-2" data-name="レイヤー 1"><polygon class="cls-1" points="399.92 40.55 41.62 40.55 60.35 2.11 399.92 2.11 399.92 40.55"/><rect class="cls-2" x="53.07" y="40.54" width="346.85" height="69.43"/><circle class="cls-3" cx="54.61" cy="72.03" r="52.46"/><path d="M160.55,79.12a19.25,19.25,0,0,0,5.34,1.9c.14,0,.17.07.17.17a.37.37,0,0,1-.14.27,9,9,0,0,0-1.66,1.7c-.1.14-.14.24-.27.24a13.77,13.77,0,0,1-4.9-2.75c1.57,4.55,5.24,5.71,5.61,5.71.2,0,.75-.1.75-3.37,0-.17,0-.23.1-.23s.14.06.24.16a9.66,9.66,0,0,0,2.79,2.76.44.44,0,0,1,.3.41s0,.06,0,.1c-.44,2.62-1.46,3.74-3.13,3.74-2.24,0-10.2-3.06-10.2-13.43v-.71c-.88,0-1.87-.07-2.82-.07v.07c0,2.65,0,9.62.37,13.36,0,.13-.1.2-.27.2-.34,0-.88.07-1.46.07-1.94,0-2-.17-2-.27v-.07a131.76,131.76,0,0,0,.44-13.29v-.11h-2.92c-.17,3.81-1.13,10.41-7,13.87a.52.52,0,0,1-.38.17.34.34,0,0,1-.23-.1,9.6,9.6,0,0,0-3.13-1.39c-.27-.1-.38-.17-.38-.24s.11-.14.17-.17c6.73-2.62,7.82-8.64,8-12.1-1.46,0-2.92.13-5.06.27-.24,0-.41-.07-.41-.27a11.49,11.49,0,0,1,0-1.29c0-1.57.07-1.6.28-1.6h.17c2.14.17,3.67.24,5.1.27,0-.71-.07-.95-.07-1.6a18,18,0,0,0-.1-1.83,28.09,28.09,0,0,1-3.23,1,.35.35,0,0,1-.31-.17,16.74,16.74,0,0,0-2-1.9c-.14-.14-.17-.21-.17-.24s.1-.07.24-.1a20.07,20.07,0,0,0,8.22-3.17c.14-.1.21-.2.28-.2s.13,0,.23.14a9.67,9.67,0,0,1,2.28,1.76,1.06,1.06,0,0,1,.21.31c-.07-.71-.17-1.43-.28-2.18V64.8c0-.1,0-.1.11-.1h.13c.41,0,4.18.24,4.18,1,0,.34-.37.75-.61,1.15-.44.72-.44,2.35-.44,6.29,1.87,0,3.81-.06,5.61-.2l.24,0c.1,0,.2,0,.2.27,0,0,0,.13,0,.2a17.06,17.06,0,0,0-.27,3,14.22,14.22,0,0,0,.1,1.73,9.57,9.57,0,0,0,2.65-2.85c.07-.14.13-.21.2-.21a.19.19,0,0,1,.14,0c.2,0,2.38,1.59,2.38,2,0,.21-.24.31-.68.41a2,2,0,0,0-1,.44Zm.31-12.92a18,18,0,0,0,4.66,1.56c.13,0,.2.07.2.14s-.07.17-.17.27a7.08,7.08,0,0,0-1.36,1.73c-.07.14-.14.24-.27.24-.78,0-3.3-1.46-4.49-2.38a6.67,6.67,0,0,0,5,4.69c.85,0,.85-2.65.85-2.72s0-.2.11-.2.13,0,.2.14A7.85,7.85,0,0,0,168,71.94c.24.11.3.24.3.34a.11.11,0,0,1,0,.07c-.48,2.31-1.46,3.33-3.13,3.33-1.94,0-9-1.76-9-11v-.51c-1.76-.07-1.8-.1-4.11-.1-4,0-5.24.07-9.52.31-.27,0-.44,0-.44-.28s0-.78,0-1.32,0-1.09,0-1.33,0-.27.24-.27h.2c3.6.2,5.41.27,7.68.27H152c3.36,0,3.57,0,6.9-.2.34,0,.44,0,.44.2s0,.14,0,.21a14.77,14.77,0,0,0-.3,2.95V65a9.58,9.58,0,0,0,3-3.12c.06-.11.1-.17.17-.17.41,0,2.58,1.63,2.58,2.07,0,.17-.24.27-.68.37a2,2,0,0,0-1,.44Zm-11.05,5.64c0-1.46,0-2.85-.17-4.35-.1.17-.37.24-.85.24h-.31a5.92,5.92,0,0,0-1.25.47l-1,.48,1,.2c.31.07.41.21.41.34s-.27.55-.44.85a9.65,9.65,0,0,0-.34,3.06h2.89Z"/><path d="M173.82,89.55a.52.52,0,0,1-.31-.1,10.06,10.06,0,0,0-3.23-1c-.17,0-.27-.1-.27-.2s0-.1.17-.17a12.21,12.21,0,0,0,5.2-6.09c0-.1.07-.17.13-.17.21,0,3.47.82,3.47,1.57,0,.27-.3.47-.68.74-.2.14-.2.21-.44.65C175.75,88.19,174.16,89.55,173.82,89.55Zm13.83-9.21c-.78,0-4.66,0-7,0,0,.1,0,.2,0,.27,0,.44-.17.47-1.87.47-1.53,0-1.77,0-1.77-.44v-.1c.34-2.62.41-9.32.41-10.27v-1c0-2-.07-5.17-.27-6.76a.76.76,0,0,1,0-.27c0-.07,0-.11.31-.11h.24c1,.07,2.82.11,4.59.14a12.67,12.67,0,0,0,1.05-3.78c0-.27.07-.34.24-.34s4.25.68,4.25,1.37c0,.23-.34.54-.75.84a2.76,2.76,0,0,0-.65.85c-.23.38-.44.75-.68,1.09,2,0,5-.1,7.52-.2h.1c.27,0,.37.1.37.27v.14a33.29,33.29,0,0,0-.24,4.59c0,.88.11,3.8.31,5.33v.21c0,.27-.14.37-2,.37-1.36,0-1.53-.17-1.53-.47v-.11c-1,0-3.53-.1-4.62-.1s-4.22.07-5.07.1v1.6c2.21,0,4.46.07,6.5.07,2.61,0,10-.1,14.07-.34.37,0,.41.34.41,1.67a6.73,6.73,0,0,1,0,1c0,.14-.2.2-.34.2-3.87-.27-11.66-.33-14.1-.33-2,0-4.12,0-6.46.1,0,.58,0,1.15,0,1.66,2.28,0,6.29,0,7.07,0h1.19c2.35,0,7.14-.07,11.19-.31.27,0,.37,0,.37.17a.51.51,0,0,1,0,.21c-.41,1.56-.85,5.88-2.42,8.46-1.29,2.11-2.55,3.6-6.66,3.6-1.8,0-1.94-.13-2-.47-.14-1.06-1.19-2-2-2.93-.11-.1-.14-.17-.14-.2s.07-.1.17-.1.17,0,.27,0a17.7,17.7,0,0,0,3.84.51c2.08,0,2.66-.75,3.23-1.63a11.75,11.75,0,0,0,1.63-5s-5.37-.07-7.78-.07ZM180,87.45c0-.41,0-.85,0-1.33a17.63,17.63,0,0,0-.3-3.4v-.07c0-.34.2-.4,2.1-.4h.34c.17,0,.28,0,.34.27a16,16,0,0,1,.82,4.55c0,.24,0,.38-.34.44a14.41,14.41,0,0,1-2.41.28c-.51,0-.58-.17-.58-.28Zm10.4-19c-.92,0-3.64-.1-4.79-.1s-4.15.07-5.07.1v1.84c.92,0,4,.07,5,.07s3.85-.07,4.76-.07Zm-4.72-4.08c-1.33,0-5,.11-5,.11s0,.78-.07,1.76c1.09,0,4,.1,5,.1s3.88-.06,4.8-.1c0-.85-.07-1.76-.07-1.76S186.94,64.36,185.65,64.36Zm.54,22.27c-.1,0-.17,0-.2-.17a14,14,0,0,0-1.77-4,.22.22,0,0,1-.07-.17c0-.41,2-.78,2.07-.78,1,0,2.69,3.43,2.69,3.91S186.39,86.63,186.19,86.63ZM192,85.07a1,1,0,0,1-.23.06.17.17,0,0,1-.14-.1A12.44,12.44,0,0,0,189,81.9a.22.22,0,0,1-.1-.2.47.47,0,0,1,.06-.2,6.84,6.84,0,0,1,1.53-.89.56.56,0,0,1,.21-.06.31.31,0,0,1,.2.06c.72.34,3,2.18,3,2.72A6.94,6.94,0,0,1,192,85.07Z"/><path d="M213,78a3.52,3.52,0,1,1,3.53-3.54A3.53,3.53,0,0,1,213,78Z"/><path d="M241,86.63c0,1.67-1.29,3.5-5.27,3.5-.24,0-.37-.13-.51-.44a16.47,16.47,0,0,0-2.38-2.75c-.07-.11-.13-.17-.13-.21s0-.07.13-.07.1,0,.17,0a23.11,23.11,0,0,0,2.59.2c1.12,0,2-.2,2-1,0-.41,0-1,0-1.77a38.59,38.59,0,0,0-.2-4.41c-1.84,0-4.49.1-7,.3a.34.34,0,0,1-.34-.34,9,9,0,0,1,0-1.12,13.28,13.28,0,0,1,0-1.46,21.76,21.76,0,0,1-4.45,3,.29.29,0,0,1-.21-.1,8.56,8.56,0,0,0-3.09-1.77c-.31-.13-.41-.2-.41-.27s.17-.17.34-.24A26.48,26.48,0,0,0,233.89,68c-2,0-4.38.11-8,.28-.41,0-.44-.17-.44-1.67s0-1.7.27-1.7h.17c4.62.24,7.14.31,9.62.31A13.88,13.88,0,0,0,237,59.5c0-.24,0-.37.2-.37.48,0,4.46,1.15,4.46,1.76,0,.34-.55.72-.89,1.06a4.66,4.66,0,0,0-1,1.66c-.17.41-.41,1-.72,1.64h.14c7.17,0,10.57-.17,13.6-.31h.07c.3,0,.3.24.3,1.73s-.13,1.64-.37,1.64c-3.57-.17-6.12-.24-8.33-.28a23.56,23.56,0,0,0,11.56,8.4c.2.07.37.14.37.24s-.13.17-.44.31a14.35,14.35,0,0,0-3.7,1.93.59.59,0,0,1-.34.1c-.62,0-3.13-1.93-3.27-2a.12.12,0,0,1,0,.1,12.38,12.38,0,0,1,0,1.32,12.68,12.68,0,0,1,0,1.33c0,.17-.23.27-.3.27-2.65-.2-5.13-.27-6.87-.3a1.3,1.3,0,0,1-.3.23c-.41.24-.38.51-.41,1.09,0,1.4.1,4,.2,5.41Zm-6.83-2.86a1.82,1.82,0,0,0-.85.51c-2.82,2.42-5.51,4.53-6.26,4.53a.47.47,0,0,1-.37-.21,12.55,12.55,0,0,0-2.72-2c-.17-.1-.2-.17-.2-.2s.1-.11.23-.17a17.76,17.76,0,0,0,7.76-5c.16-.17.23-.27.37-.27.54,0,3.16,1.6,3.16,2.11C235.32,83.4,234.91,83.64,234.2,83.77Zm14.24-7A30,30,0,0,1,244.53,73c0,.62,0,1.26,0,1.64,0,.13-.17.23-.27.23h0a35,35,0,0,0-4.69-.27,39.45,39.45,0,0,0-5,.27h-.07c-.34,0-.34-.51-.34-1.8a30.16,30.16,0,0,1-3.64,3.71c2.42.24,4.73.3,6.46.3,1.16,0,2,0,2.55,0,5.27,0,7.35-.14,8.91-.27ZM237.67,68a44.41,44.41,0,0,1-2.45,3.71,33.14,33.14,0,0,0,3.53.2,46.73,46.73,0,0,0,4.73-.2A31.09,31.09,0,0,1,241,68Zm13,20.09a.34.34,0,0,1-.31.14c-1.15,0-7.1-5-7.1-5.68a6.7,6.7,0,0,1,2.55-1.33c.07,0,.13,0,.3.17a21,21,0,0,0,7.65,4.15c.17,0,.27.07.27.14s-.06.13-.27.27A16.81,16.81,0,0,0,250.62,88.09Z"/><path d="M281.12,78c0,.37-.34.51-2,.51-1.06,0-1.5,0-1.5-.48v-.41c-.82,0-2.41,0-3.54-.07a13.6,13.6,0,0,0,2.42,3.88,18.29,18.29,0,0,0,5.91-4,.18.18,0,0,1,.14-.1,10.73,10.73,0,0,1,2.82,3c0,.31-.48.45-1,.51a2.64,2.64,0,0,0-1.22.27c-.92.45-2.62,1.4-4.62,2.28,2.62,2,6.29,3.3,11.22,3.64.3,0,.4.1.4.17s-.13.24-.37.41a12.39,12.39,0,0,0-3,2.38.51.51,0,0,1-.47.24A21.62,21.62,0,0,1,274.9,84a5.41,5.41,0,0,0-.07,1c0,.24,0,.44-.44.58s-11.73,3.84-13,4.22c-.54.17-.82.64-1.12.64-.48,0-2.25-2.89-2.25-3.43,0-.17.17-.14.41-.17a55.28,55.28,0,0,0,6.53-1.4c.17-3.6.2-7,.2-9.92a100.44,100.44,0,0,0-.27-10.71,1.36,1.36,0,0,1,0-.31c0-.13.07-.2.3-.2h.24c2.58.2,4.42.2,6,.2v-.85a25.16,25.16,0,0,0-.37-4.11.43.43,0,0,1,0-.2c0-.11.07-.14.28-.14a25.22,25.22,0,0,1,3.94.71c.34.11.48.28.48.51,0,.41-.55,1-.75,1.64a7.69,7.69,0,0,0-.21,1.63,6.7,6.7,0,0,0,0,.81c1.73,0,3.81-.1,5.81-.24h.11c.3,0,.37.18.37.45-.2,2.34-.24,4.52-.24,7.34a45.15,45.15,0,0,0,.31,5.75Zm-12.85-3.06,5,0,4.49,0c0-.89,0-1.74,0-2.55-1,0-3.57-.11-4.49-.11s-3.94.07-5,.11Zm0,2.68c0,1.9,0,3.88.06,6.9,2.28-.64,4.32-1.29,5.55-1.66a19.46,19.46,0,0,1-3-5.27C269.83,77.59,268.78,77.62,268.27,77.62Zm5-10.47-4.9,0s0,1,0,2.45c1.16,0,4.15.07,4.93.07s3.54-.07,4.52-.07c0-1.43,0-2.45,0-2.45Z"/><path d="M303.29,82.76c0,.33-.11.57-1.7.57-.92,0-1.64,0-1.64-.47v-.07c0-.65,0-1.5.07-2.41-.37,0-.95-.07-1.46-.07s-1.19,0-1.56.07c0,1.52,0,3,.07,4.35,0,.57-.07.61-1.7.61s-1.74-.21-1.74-.55v-.1c.31-4.65.38-9.75.38-12.54,0-3.5-.07-6.26-.21-9.05,0-.13,0-.2,0-.3s.07-.21.24-.21.17,0,.27,0c1.09.1,2.58.17,4.31.17s2-.07,4.22-.21c.37,0,.44.14.44.48-.24,2.69-.24,5.81-.24,8.74,0,2.55.07,8.06.28,10.74Zm-4.76-17.34c-.95,0-1.53,0-1.53,0s-.07,2.11-.07,4.52c.41,0,1.09,0,1.6,0s1.22,0,1.59,0c0-2.17-.1-4.52-.1-4.52s-.34,0-1,0Zm1.59,7.31c-.37,0-1,0-1.56,0s-1.26,0-1.63,0c0,1.32,0,3,0,4.86.41,0,1.06,0,1.57,0s1.15,0,1.53,0C300.09,75.75,300.12,74,300.12,72.73ZM322,72.9c-3.77-.38-7.31-.41-9.45-.41s-3.91.07-8.36.34c-.34,0-.41-.1-.41-1.57s0-1.63.41-1.63c3.33.27,5.06.34,6.83.34V67.29c-1.53,0-3,.06-5.47.2-.31,0-.38,0-.38-1.46s.07-1.53.44-1.53c2.38.2,3.91.2,5.34.2v-.34a27.37,27.37,0,0,0-.47-5v-.17c0-.17,0-.2.23-.2.55,0,4.36.4,4.36,1.12,0,.27-.31.61-.51,1-.38.71-.34.64-.48,2.85a3.77,3.77,0,0,0,0,.68c1.3,0,2.59-.07,5.21-.23.17,0,.41,0,.41,1.56a6.7,6.7,0,0,1-.07,1.26c0,.13-.21.2-.31.2h0c-2.55-.14-3.74-.17-5.24-.2V70c2.11,0,4.86-.17,8-.41.24,0,.38.24.38,1.67,0,.54,0,1.09-.07,1.43,0,.13-.17.24-.28.24Zm-4.59,13c0,2-1.12,4.25-5.1,4.25q-.3,0-.51-.51c-.64-1.53-1.83-2.07-2.65-3-.1-.11-.17-.17-.17-.24s0-.07.14-.07a1.39,1.39,0,0,0,.17,0,19.72,19.72,0,0,0,2.75.28c1.29,0,2-.34,2-1.33.07-1.33.07-4,.07-5.54v-2h-1.46c-2.18,0-3.95.07-8.33.34a.32.32,0,0,1-.34-.31c0-.27,0-.78,0-1.32,0-1.64,0-1.64.38-1.64,4.21.34,5.95.34,8.33.34H314a11.79,11.79,0,0,0-.27-2,.86.86,0,0,0,0-.13c0-.14.1-.21.27-.21s4,.34,4,1a.87.87,0,0,1-.27.54c-.31.41-.41.41-.44.75,1.39-.07,2.95-.17,4.62-.3h0c.21,0,.34.27.34,1.7a14.24,14.24,0,0,1-.07,1.46.33.33,0,0,1-.27.24h0c-1.67-.17-3.27-.28-4.69-.31v2.92c0,1.84.17,3,.2,4.93Zm-7.51-1.49c-.07,0-.14-.07-.21-.14a19.47,19.47,0,0,0-4.25-3.64c-.1-.06-.13-.1-.13-.17,0-.37,1.49-1.36,1.83-1.56a.31.31,0,0,1,.17-.1.35.35,0,0,1,.17.06,17.37,17.37,0,0,1,4.46,2.89.29.29,0,0,1,.1.21,14.63,14.63,0,0,1-2,2.38C310,84.35,309.92,84.39,309.85,84.39Z"/><path d="M331.1,89.32c.51-4.59.75-12,.88-17.58-.3.37-3.8,4.73-4.55,4.73a.39.39,0,0,1-.27-.07,9.56,9.56,0,0,0-2.86-1.06c-.2,0-.34-.1-.34-.17s.07-.13.17-.2c5.85-4.15,10.5-12,10.91-14.28,0-.14.07-.2.17-.2.58,0,4,1.46,4,2.1,0,.24-.27.48-.78.68s-.68.14-1,.68a38.41,38.41,0,0,1-2.32,3.57c.24.07.41.17.55.21a.42.42,0,0,1,.34.41,1.12,1.12,0,0,1-.34.64,2,2,0,0,0-.51,1.63c-.14,4.22-.31,9.76-.31,14.28,0,1.77,0,3.37.1,4.69,0,.17-.1.34-1.93.34-1.6,0-1.94,0-1.94-.34Zm23.52-18.19c0,.13-.23.27-.33.27-5.1.37-5.85.44-8.84.88l-.72.11c2,10.13,7.62,12.91,8.3,12.91s1.59-1,1.83-3.8c0-.21.07-.28.17-.28s.14.07.21.17A11.67,11.67,0,0,0,358,84.15a.52.52,0,0,1,.23.51c-.91,3-2.55,4.66-4.55,4.66a5.11,5.11,0,0,1-2.72-.92c-5.61-3.54-8.09-9.52-9.35-15.47l-4.86,1h-.1a.39.39,0,0,1-.41-.24,13.43,13.43,0,0,1-.37-2.68v-.14c0-.34.16-.41.37-.41,2.14-.13,3.6-.27,4.86-.44-.27-1.73-.48-3.47-.61-5.1s-.27-3-.48-3.91a2.81,2.81,0,0,1-.07-.37.19.19,0,0,1,.21-.21c.07,0,.13,0,.2,0,3.67.44,4.42.57,4.42,1.12a3.17,3.17,0,0,1-.51,1.19,2.61,2.61,0,0,0-.2,1.12,49.33,49.33,0,0,0,.27,5.68l.75-.1c3.26-.45,4.08-.62,8.74-1.6h.06a.37.37,0,0,1,.38.3,19.37,19.37,0,0,1,.4,2.89Zm-5.16-3.54a23.27,23.27,0,0,0-4.12-2.82c-.13-.07-.27-.1-.27-.24a5.68,5.68,0,0,1,1.77-2.21c.65,0,4.79,2.31,4.79,2.76s-1.36,2.68-1.8,2.68A.49.49,0,0,1,349.46,67.59Z"/><path d="M85.56,70A14.6,14.6,0,0,0,71,55.42a13.57,13.57,0,0,0-1.69.1,15.07,15.07,0,0,0-29.65,0,13.3,13.3,0,0,0-1.68-.1,14.59,14.59,0,0,0-4.5,28.48,11.37,11.37,0,0,0-.38,2.93A11.57,11.57,0,0,0,54.45,93a11.57,11.57,0,0,0,21.39-6.12,11.37,11.37,0,0,0-.38-2.93A14.59,14.59,0,0,0,85.56,70Z"/><path class="cls-4" d="M58.9,75.67l2.6-8.31A2.24,2.24,0,1,0,60.42,67l-3,9.5A13.21,13.21,0,0,0,55,78.64V65.75a2.26,2.26,0,1,0-1.13,0V78.64a12.84,12.84,0,0,0-2.43-2.11l-3-9.5a2.28,2.28,0,1,0-1.08.33L50,75.67a13.38,13.38,0,0,0-6-1.43v2a11.26,11.26,0,0,1,9.61,5.34L54.45,83l.86-1.38a11.26,11.26,0,0,1,9.61-5.34v-2A13.38,13.38,0,0,0,58.9,75.67Z"/><path d="M197.33,13.35a18.56,18.56,0,0,0,9,6.26,5.4,5.4,0,0,0-.9,1.6c-.15.37-.21.54-.38.54a1.71,1.71,0,0,1-.5-.19,23.67,23.67,0,0,1-2.88-1.49V21.6c0,.21,0,.23-.21.23s-.8,0-2.73,0h-1.49v2.35h2.39c2,0,2.73,0,2.86,0s.25,0,.25.23v1.6c0,.21,0,.23-.25.23s-.82,0-2.86,0h-2.39v2.56h5c1.91,0,2.58,0,2.7,0s.24,0,.24.23v1.64c0,.21,0,.23-.24.23s-.79,0-2.7,0h-12c-1.93,0-2.61,0-2.73,0s-.23,0-.23-.23V28.87c0-.21,0-.23.23-.23s.8,0,2.73,0H195V26.12h-2.12c-2,0-2.73,0-2.85,0s-.23,0-.23-.23v-1.6c0-.21,0-.23.23-.23s.82,0,2.85,0H195V21.79h-1.34c-1.93,0-2.58,0-2.71,0s-.23,0-.23-.23V20.24a26.48,26.48,0,0,1-2.56,1.45,1.91,1.91,0,0,1-.53.19c-.14,0-.23-.15-.4-.53a4.28,4.28,0,0,0-1-1.38c3.92-1.79,6.34-3.72,8.12-6.34a6.59,6.59,0,0,0,.8-1.52,16.59,16.59,0,0,1,2.21.44c.27.07.37.17.37.32s-.06.21-.21.31Zm1.39,6.47c1.45,0,2.16,0,2.5,0a18.24,18.24,0,0,1-5-4.73,19.72,19.72,0,0,1-4.83,4.73c.38,0,1.07,0,2.29,0Z"/><path d="M220.52,18.83c-2.06,0-2.75,0-2.88,0s-.23,0-.23-.23V17c0-.23,0-.23.23-.23s.82,0,2.88,0h2.12V15.45a22.24,22.24,0,0,0-.15-3,17.66,17.66,0,0,1,2.21.17c.21,0,.33.1.33.21a1.14,1.14,0,0,1-.14.44,6.9,6.9,0,0,0-.13,2.12v1.41h3c2,0,2.75,0,2.9,0s.21,0,.21.23v1.61c0,.21,0,.23-.21.23s-.86,0-2.9,0h-2.18A21.26,21.26,0,0,0,231.39,26a5.37,5.37,0,0,0-1,1.41c-.15.29-.23.44-.34.44s-.23-.13-.44-.34a20.59,20.59,0,0,1-4.89-7c0,1.89,0,3.76,0,5.4h.48c1.64,0,2.16-.05,2.29-.05s.23,0,.23.23v1.54c0,.23,0,.25-.23.25s-.65,0-2.29,0h-.46c0,2,.06,3.38.06,3.59s0,.23-.23.23h-1.8c-.23,0-.26,0-.26-.23s.05-1.62.09-3.59h-.38c-1.64,0-2.16,0-2.29,0s-.23,0-.23-.25V26.05c0-.21,0-.23.23-.23s.65.05,2.29.05h.4c0-1.64.06-3.51.06-5.38a19.58,19.58,0,0,1-4.78,7c-.21.19-.34.32-.45.32s-.18-.13-.33-.4a7.19,7.19,0,0,0-.95-1.24v2c0,2.05.05,3.08.05,3.19s0,.23-.24.23h-1.78c-.19,0-.21,0-.21-.23s0-1.14,0-3.19V23.43c0-.69,0-1.53,0-2.37-.4.52-.79,1.05-1.21,1.53-.15.17-.28.27-.38.27s-.17-.12-.23-.37a5.84,5.84,0,0,0-.72-1.81,18.56,18.56,0,0,0,4-6.82,7.77,7.77,0,0,0,.32-1.49,12.74,12.74,0,0,1,2,.65c.23.1.34.16.34.31s-.06.23-.23.38a2,2,0,0,0-.42.84,28.65,28.65,0,0,1-1.37,3.06v8.51a19.34,19.34,0,0,0,5.5-7.29Z"/><path d="M247.19,17.36c-2.56.49-4.81.93-7.06,1.39-.79.19-1,.23-1.32.33a1.12,1.12,0,0,1-.46.17.48.48,0,0,1-.4-.31,16.18,16.18,0,0,1-.78-2.27,29,29,0,0,0,3.34-.36c2.58-.38,7.2-1.07,12.62-1.78.32,0,.42.08.44.23a11.26,11.26,0,0,1,.23,1.85c0,.25-.12.31-.4.31a9.42,9.42,0,0,0-2.56.46c-3.57,1.22-5.35,3.68-5.35,6.2,0,2.71,1.93,4.18,5.58,4.41.34,0,.46.08.46.31a7.36,7.36,0,0,1-.23,1.81c-.06.31-.14.44-.4.44-3.69,0-7.74-2.12-7.74-6.49,0-3,1.49-5,4-6.66Zm4.16,2.27c.1-.08.18-.06.31,0a10,10,0,0,1,2,2.25.21.21,0,0,1-.07.33l-.88.66a.22.22,0,0,1-.36-.07,10.44,10.44,0,0,0-2.12-2.43Zm1.86-1.36c.13-.09.19-.07.32,0a8.42,8.42,0,0,1,2,2.16.24.24,0,0,1-.06.38l-.84.65c-.17.13-.27.06-.36-.06a9.44,9.44,0,0,0-2.1-2.42Z"/><path d="M275.33,19.42a6.92,6.92,0,0,0,0-1.43,9.41,9.41,0,0,1,2.43.9.4.4,0,0,1,.15.57,3.73,3.73,0,0,0-.34.82c-.16.88-.37,1.81-.58,2.71a24.73,24.73,0,0,1,3.27,2c.21.12.19.23.13.44a16.81,16.81,0,0,1-.91,1.8c-.06.11-.12.15-.18.15a.4.4,0,0,1-.26-.15,16.21,16.21,0,0,0-2.75-2A12.91,12.91,0,0,1,272,30.8c-.19.15-.29.23-.42.23a.53.53,0,0,1-.31-.15,4.42,4.42,0,0,0-1.83-.86,11.54,11.54,0,0,0,4.7-5.69A14.33,14.33,0,0,0,270,23.05a14.71,14.71,0,0,1-2.57,4.2,3.42,3.42,0,0,1-2.68,1.16c-1.22,0-2.5-.84-2.5-2.88,0-2.6,2.69-4.64,6.19-4.64a51.62,51.62,0,0,0,1.74-5l-2.89.34a4.09,4.09,0,0,0-.95.23,1.12,1.12,0,0,1-.38.08.33.33,0,0,1-.33-.23,12.72,12.72,0,0,1-.61-2.28,8.23,8.23,0,0,0,1.85.12,22.93,22.93,0,0,0,3.25-.27,2.44,2.44,0,0,0,1-.36.47.47,0,0,1,.27-.08.52.52,0,0,1,.3.08,7.4,7.4,0,0,1,1.43,1.16.5.5,0,0,1,.18.35c0,.13-.08.23-.21.36a2.9,2.9,0,0,0-.56,1.09c-.55,1.43-1.14,3.07-1.77,4.58a17.3,17.3,0,0,1,4.08,1.05A21.82,21.82,0,0,0,275.33,19.42Zm-11.09,5.86c0,.67.23,1,.74,1a1.68,1.68,0,0,0,1.21-.79,14,14,0,0,0,1.54-2.57C265.59,23,264.24,24.08,264.24,25.28Z"/><path d="M293.26,21.16a6.36,6.36,0,0,1,3.34-.94,4.87,4.87,0,0,1,5.21,5c0,3.5-2.84,5.75-7.33,5.75-2.64,0-4.24-1.13-4.24-3.09a2.79,2.79,0,0,1,3-2.56,3.83,3.83,0,0,1,3.95,3.07,3.16,3.16,0,0,0,2.14-3.19,3.06,3.06,0,0,0-3.3-3.17,8.52,8.52,0,0,0-5.37,2.22c-.61.55-1.2,1.16-1.83,1.79-.15.14-.25.23-.36.23s-.18-.07-.31-.19a10,10,0,0,1-1.24-1.37c-.13-.16-.06-.31.11-.48a51.57,51.57,0,0,0,5-4.64c1.3-1.34,2.29-2.39,3.26-3.59-1.26.23-2.75.52-4.06.8a5.77,5.77,0,0,0-.88.25,1.51,1.51,0,0,1-.42.1.47.47,0,0,1-.46-.35,10.11,10.11,0,0,1-.73-2.27,10.59,10.59,0,0,0,1.95,0c1.28-.12,3.13-.4,4.76-.71a5.48,5.48,0,0,0,1.16-.32,1.05,1.05,0,0,1,.4-.16.77.77,0,0,1,.48.16,8.4,8.4,0,0,1,1.41,1.35.71.71,0,0,1,.23.5.55.55,0,0,1-.36.5,3.38,3.38,0,0,0-.92.68c-1.54,1.49-2.94,3-4.54,4.49Zm0,6c-.6,0-1,.35-1,.79,0,.66.56,1.1,1.82,1.1a4.21,4.21,0,0,0,1-.09C294.8,27.8,294.17,27.15,293.28,27.15Z"/></g></g></svg>