<svg xmlns="http://www.w3.org/2000/svg" viewBox="0 0 402.07 126.64"><defs><style>.cls-1,.cls-2,.cls-3,.cls-4{fill:#fff;}.cls-1,.cls-2,.cls-3{stroke:#000;stroke-miterlimit:10;}.cls-1{stroke-width:4.21px;}.cls-2{stroke-width:4.3px;}.cls-3{stroke-width:4.3px;}</style></defs><title>アセット 194</title><g id="レイヤー_2" data-name="レイヤー 2"><g id="レイヤー_1-2" data-name="レイヤー 1"><polygon class="cls-1" points="399.92 40.55 41.62 40.55 60.35 2.11 399.92 2.11 399.92 40.55"/><rect class="cls-2" x="53.07" y="40.54" width="346.85" height="69.43"/><circle class="cls-3" cx="54.61" cy="72.03" r="52.46"/><path d="M177.9,72.86c.24,0,.3.14.3,1.74,0,.57,0,1.12,0,1.42a.31.31,0,0,1-.34.27c-3.26-.17-5.92-.27-8.23-.34-.07.24-.41.51-.71.79a2.87,2.87,0,0,0-.75,1.49A25,25,0,0,1,167,81.29c5.17,1.84,8.26,4.86,8.26,5.2a8.26,8.26,0,0,1-2.28,3.2.41.41,0,0,1-.3-.17,19,19,0,0,0-7.28-5.61c-2.82,3.74-7.31,5.78-14.58,6-.07,0-.14,0-.24,0a.44.44,0,0,1-.44-.27,13.08,13.08,0,0,0-2.48-2.82.9.9,0,0,1-.24-.41c0-.07.07-.07.17-.07h.24c1,.07,1.93.1,2.82.1,5.51,0,9.28-1.25,11.66-3.7a23.36,23.36,0,0,0-3.23-.68l-.61,1.49a.36.36,0,0,1-.38.21h-.44c-.37,0-3.09,0-3.09-.55a.44.44,0,0,1,.07-.2A48.25,48.25,0,0,0,158,75.92c-2.55.07-5.54.14-9.72.34h-.11c-.27,0-.34-.14-.34-1.7s.11-1.7.28-1.7h.17c4.76.24,7.88.34,10.64.38a36.7,36.7,0,0,0,1.25-5.51c0-.24.11-.31.21-.31s4.18.89,4.18,1.57c0,.3-.41.61-.68.85s-.78,1-1.77,3.4h.95c4,0,7.76,0,14.76-.38Zm-2.48-8.6c-.11,1.46-.28,2.52-.28,3.06.07,1.09.17,1.56.41,3.37,0,.3-.41.34-2.07.34-.68,0-1.29,0-1.57,0s-.3-.17-.3-.34a32.41,32.41,0,0,0,.2-3.57c-3.09-.13-5.4-.13-8.8-.13-3.88,0-5,0-8.64.13,0,.85.07,1.7.24,3.78,0,.34-.44.37-2.35.37-1.53,0-1.7-.1-1.7-.31v-.1A27.42,27.42,0,0,0,151,67a18.23,18.23,0,0,0-.24-2.66v-.13c0-.17.07-.24.27-.24h.14c5.92.31,7.68.37,10.2.37a20.13,20.13,0,0,0-.41-5,.54.54,0,0,1,0-.2c0-.1.1-.14.3-.14,1.12,0,4.42.28,4.42.95,0,.41-.58,1-.75,1.71a17.28,17.28,0,0,0-.34,2.71c2.93,0,4.56,0,10.51-.37.24,0,.31.07.31.24ZM161.17,75.89c-.44,1.26-.85,2.55-1.26,3.77a33.6,33.6,0,0,1,4.05.71,12.14,12.14,0,0,0,1.26-4.48Z"/><path d="M211.29,88.53c-6.87-.27-10.44-.3-14.42-.3-3.67,0-7.61.07-14.18.34h-.06c-.31,0-.38-.1-.38-1.7,0-1.84.07-1.87.44-1.87,4.56.27,7.65.34,10.27.34h2.28c.07-3.06.07-6.67.07-10-2.32,0-4.59.14-8.88.38-.3,0-.37-.14-.37-1.74,0-1.8,0-1.9.37-1.9,4.53.37,6.67.37,8.84.37a110.67,110.67,0,0,0-.44-11.28.43.43,0,0,1,0-.17c0-.14.07-.17.3-.17,1.29.06,4.73.68,4.73,1.25,0,.28-.34.58-.58,1.06-.41.81-.51,1-.51,3.26l-.1,6c2.45,0,4.42-.07,9.18-.34a.28.28,0,0,1,.3.31,12,12,0,0,1,.07,1.49,13.18,13.18,0,0,1-.07,1.53.29.29,0,0,1-.27.27c-4.52-.23-6.8-.3-9.21-.34,0,3.3,0,6.84.1,10,3.37,0,6.39-.07,12.51-.34.2,0,.38.1.38.3s.06,1,.06,1.67a13.21,13.21,0,0,1-.06,1.33c0,.13-.18.23-.28.23Z"/><path d="M224.21,89.62c0,.14,0,.31-1.8.31-2,0-2.11-.1-2.11-.38.41-4.69.51-11,.54-14.65-1.83,3-3.91,5-4.42,5a.43.43,0,0,1-.27-.1,8.23,8.23,0,0,0-2.55-1.22c-.14,0-.27-.11-.27-.17s0-.11.13-.17a22.59,22.59,0,0,0,7.38-7.72v-.88c-1.09,0-2.45.17-4.18.3-.24,0-.37-.07-.37-1.66,0-1.43.06-1.6.37-1.6,1.73.17,3.09.27,4.18.3a55,55,0,0,0-.37-7.41.51.51,0,0,1,0-.2s0-.1.28-.1c3.09.3,3.91.57,3.91,1a12.58,12.58,0,0,1-.55,1.67,33.35,33.35,0,0,0-.34,5c.82,0,1.7-.14,2.72-.24a.35.35,0,0,1,.38.27v.41A9.92,9.92,0,0,1,228,66.3a.47.47,0,0,1,.31-.17c.54,0,3,2.35,3.06,2.45a57,57,0,0,0-.58-8.37.3.3,0,0,1,0-.17c0-.06,0-.06.11-.06.57,0,4.35.47,4.35,1.19,0,.23-.21.54-.65,1a23.87,23.87,0,0,0-.13,3.8c0,2.15,0,4.87,0,7.31,0,6.6-1,12.07-7.89,16.32a.37.37,0,0,1-.2.07.51.51,0,0,1-.34-.14,8.54,8.54,0,0,0-1.9-1.46Zm4.18-9.86c-.44.31-.58.75-.89.75A8,8,0,0,1,225,77.72c0-.13.14-.17.34-.2a23.2,23.2,0,0,0,6-3.3v-1c0-.21,0-1.36,0-2.93l-1.16,1.4a.72.72,0,0,1-.27.13c-.1,0-.17-.07-.3-.24a18.65,18.65,0,0,0-2.82-3V69.7c0,.17-.31.27-.38.27l-2.75-.27v1.12a18.52,18.52,0,0,0,4.18,3c.2.1.34.24.34.34a.18.18,0,0,1-.14.17,9,9,0,0,0-2,1.46c-.14.14-.24.24-.34.24a8.74,8.74,0,0,1-2.07-2c0,2.92.13,8.77.34,13a11.39,11.39,0,0,0,7.07-9.21Zm18.9,5.51c-.3,2.86-1.7,4-6.49,4-2.18,0-4.8-.34-4.8-3.36v-.17c.14-2.59.17-19.79.17-22a20.3,20.3,0,0,0-.37-3.57.66.66,0,0,1,0-.2c0-.07,0-.11.23-.11.58,0,4.15.51,4.15,1.3a2.32,2.32,0,0,1-.61,1.08c-.37.48-.48,1.6-.48,6.94a17,17,0,0,0,3.27-3.84c.07-.1.1-.14.17-.14.3,0,2.68,2.18,2.68,2.93,0,.34-.34.4-.85.51a3,3,0,0,0-1.39.78,24.53,24.53,0,0,1-3.54,2.51.25.25,0,0,1-.23-.17L239,71.6c0,1.4,0,2.83,0,4.22a7.42,7.42,0,0,1,1.36-1.91c.34,0,5.3,2.49,5.3,3.3a1.78,1.78,0,0,1-.1.38c-.07.2-1.33,1.9-1.4,2a.48.48,0,0,1-.3.17.26.26,0,0,1-.17-.06,23.24,23.24,0,0,0-4.49-3.37l-.2-.1c0,2,0,4,0,5.54s0,2.72,0,3.23c0,1.22,1,1.29,1.93,1.29,2.52,0,3-.48,3-2.86,0-.3,0-.61,0-1,0-.1,0-.13.07-.13s.1,0,.24.17A14.46,14.46,0,0,0,247,84.86a.52.52,0,0,1,.27.38Z"/><path d="M273.68,69.29c0-.13,0-.13.13-.13s4.56.51,4.56,1.25c0,.31-.41.75-.65,1.47a20.55,20.55,0,0,0-.41,5.37c0,3,.14,8.39.41,11.59,0,.17-.07.34-1.94.34s-1.9-.1-1.9-.41c0-.75,0-1.73,0-2.79-3.6-.13-5-.13-6.63-.13-.54,0-6.66,0-11.18.13,0,1.13,0,2.11.07,2.89,0,.17,0,.34-1.91.34-1.53,0-1.87-.06-1.87-.34v-.06c.17-2.76.41-9.63.41-11.8a50.1,50.1,0,0,0-.34-7.72c0-.07,0-.13,0-.17s0-.1.13-.1,4.56.51,4.56,1.22c0,.34-.41.79-.68,1.47s-.37,2.48-.37,5.3v5.85c4.08.13,5.47.13,7,.13,0-2.17.13-6,.13-9.45a108.52,108.52,0,0,0-.54-12.78.68.68,0,0,1,0-.21c0-.13.06-.2.27-.2,1.12.07,4.72.61,4.72,1.26,0,.27-.34.64-.57,1.12-.38.75-.55,2.11-.55,10.44,0,3.57,0,7.61.07,9.82,1.63,0,3.3,0,7.41-.13,0-2.11,0-4.19,0-5.61a54.72,54.72,0,0,0-.34-7.82Z"/><path d="M295.13,82.75c0,.34-.1.58-1.7.58-.92,0-1.63,0-1.63-.47v-.07c0-.65,0-1.5.07-2.42-.38,0-.95-.06-1.46-.06s-1.19,0-1.57.06c0,1.53,0,3,.07,4.36,0,.57-.07.61-1.7.61s-1.73-.21-1.73-.55v-.1c.3-4.66.37-9.75.37-12.54,0-3.5-.07-6.26-.2-9.05,0-.13,0-.2,0-.3s.07-.21.24-.21.17,0,.27,0c1.09.1,2.59.17,4.32.17s2-.07,4.22-.21c.37,0,.44.14.44.48-.24,2.69-.24,5.81-.24,8.74,0,2.55.07,8.06.27,10.74Zm-4.76-17.33c-.95,0-1.53,0-1.53,0s-.07,2.11-.07,4.52c.41,0,1.09,0,1.6,0s1.23,0,1.6,0c0-2.17-.1-4.52-.1-4.52s-.34,0-1,0Zm1.6,7.31c-.37,0-1,0-1.56,0s-1.26,0-1.64,0c0,1.32,0,3,0,4.86.41,0,1.05,0,1.56,0s1.16,0,1.53,0C291.94,75.75,292,74,292,72.73Zm21.83.17c-3.78-.38-7.31-.41-9.46-.41s-3.91.07-8.36.34c-.34,0-.41-.1-.41-1.57s0-1.63.41-1.63c3.33.27,5.07.34,6.83.34V67.29c-1.53,0-3,.06-5.47.2-.3,0-.37,0-.37-1.46s.07-1.53.44-1.53c2.38.2,3.91.2,5.34.2v-.34a28.2,28.2,0,0,0-.48-5v-.17c0-.17,0-.2.24-.2.54,0,4.35.4,4.35,1.12,0,.27-.31.61-.51,1-.37.71-.34.64-.48,2.85a4.94,4.94,0,0,0,0,.68c1.29,0,2.58-.07,5.2-.24.17,0,.41,0,.41,1.57a6.7,6.7,0,0,1-.07,1.26c0,.13-.2.2-.3.2h0c-2.55-.14-3.74-.17-5.23-.2V70c2.1,0,4.86-.17,8-.41.23,0,.37.24.37,1.67a13.6,13.6,0,0,1-.07,1.43c0,.13-.17.24-.27.24Zm-4.59,13c0,2-1.13,4.25-5.1,4.25q-.32,0-.51-.51c-.65-1.53-1.84-2.07-2.66-3-.1-.11-.17-.17-.17-.24s0-.07.14-.07a1.39,1.39,0,0,0,.17,0,19.72,19.72,0,0,0,2.75.28c1.3,0,2-.34,2-1.33.07-1.33.07-4,.07-5.54v-2h-1.46c-2.18,0-3.94.07-8.33.34a.33.33,0,0,1-.34-.31c0-.27,0-.78,0-1.33,0-1.63,0-1.63.37-1.63,4.22.34,6,.34,8.33.34h1.36a14.14,14.14,0,0,0-.27-2c0-.06,0-.1,0-.13s.11-.21.28-.21,4,.34,4,1a.86.86,0,0,1-.27.54c-.3.41-.41.41-.44.75,1.39-.07,3-.17,4.62-.3h0c.2,0,.34.27.34,1.69,0,.55,0,1.13-.07,1.47a.32.32,0,0,1-.27.23h0c-1.66-.17-3.26-.27-4.69-.3v2.92c0,1.84.17,3,.21,4.93Zm-7.52-1.49c-.07,0-.13-.07-.2-.14a19.19,19.19,0,0,0-4.25-3.64c-.1-.07-.14-.1-.14-.17,0-.37,1.5-1.36,1.84-1.56a.28.28,0,0,1,.17-.1.39.39,0,0,1,.17.06,17.17,17.17,0,0,1,4.45,2.89.29.29,0,0,1,.1.21,14.63,14.63,0,0,1-2,2.38C301.79,84.35,301.76,84.39,301.69,84.39Z"/><path d="M322.94,89.32c.51-4.59.75-12,.89-17.58-.31.37-3.81,4.72-4.56,4.72a.45.45,0,0,1-.27-.06,9.46,9.46,0,0,0-2.86-1.06c-.2,0-.34-.1-.34-.17s.07-.13.17-.2c5.85-4.15,10.51-12,10.92-14.28,0-.14.07-.2.17-.2.58,0,4,1.46,4,2.1,0,.24-.28.48-.79.68s-.68.14-.95.68A39.91,39.91,0,0,1,327,67.52c.24.07.41.17.54.21a.42.42,0,0,1,.34.41,1.06,1.06,0,0,1-.34.64,2.12,2.12,0,0,0-.51,1.63c-.13,4.22-.3,9.76-.3,14.28,0,1.77,0,3.37.1,4.69,0,.17-.1.34-1.94.34-1.6,0-1.94,0-1.94-.34Zm23.53-18.19c0,.13-.24.27-.34.27-5.1.37-5.85.44-8.84.88l-.71.11c2,10.13,7.61,12.91,8.29,12.91s1.6-1,1.84-3.8c0-.21.07-.28.17-.28s.13.07.2.17a12.07,12.07,0,0,0,2.72,2.76.52.52,0,0,1,.24.51c-.92,3-2.55,4.66-4.56,4.66a5.14,5.14,0,0,1-2.72-.92c-5.61-3.54-8.09-9.52-9.35-15.47l-4.86,1h-.1a.41.41,0,0,1-.41-.24,13.43,13.43,0,0,1-.37-2.68v-.14c0-.34.17-.41.37-.41,2.14-.13,3.61-.27,4.86-.44-.27-1.73-.47-3.47-.61-5.1s-.27-3-.47-3.91a1.76,1.76,0,0,1-.07-.37.18.18,0,0,1,.2-.21c.07,0,.14,0,.21,0,3.67.44,4.42.57,4.42,1.12a3.34,3.34,0,0,1-.51,1.19,2.62,2.62,0,0,0-.21,1.12,49.33,49.33,0,0,0,.27,5.68l.75-.1c3.27-.45,4.08-.62,8.74-1.6h.07a.36.36,0,0,1,.37.3,18.12,18.12,0,0,1,.41,2.89Zm-5.17-3.54a23,23,0,0,0-4.11-2.82c-.14-.07-.27-.1-.27-.24a5.66,5.66,0,0,1,1.76-2.21c.65,0,4.8,2.31,4.8,2.76s-1.36,2.68-1.8,2.68A.51.51,0,0,1,341.3,67.59Z"/><path d="M92.05,79.2l-8.8,17.08C79.72,93,73.71,89,68.73,88.81l8.79-17.08C81.82,71.05,88.52,75.9,92.05,79.2Z"/><path d="M17.17,79.2,26,96.28C29.49,93,35.5,89,40.49,88.81l-8.8-17.08C27.39,71.05,20.7,75.9,17.17,79.2Z"/><path d="M73.54,91.88h0l-1.12-.45-.19-.07-.45-.15-.34-.11L71.06,91l-.68-.16-.25,0a4.71,4.71,0,0,0-.52-.09l-.23,0a5.47,5.47,0,0,0-.69,0h-.2c2.56,1.82,4.3,3.9,4.72,5.8a3,3,0,0,1-.66,2.76c-2.26,2.63-8.6,2.88-14.83.88,4.44-2.46,7.41-5.66,8.1-8.8,0,0,0,0,0-.07a10,10,0,0,1-2.51.48l-.39.37c-1.22,2.41-4.27,5-8.24,6.79l-.08,0-.09,0c-4-1.83-7-4.38-8.24-6.79-.12-.13-.26-.24-.38-.37a10,10,0,0,1-2.52-.48.15.15,0,0,1,0,.07c.69,3.14,3.66,6.34,8.1,8.8-6.23,2-12.57,1.75-14.83-.88A3,3,0,0,1,36,96.41c.41-1.9,2.15-4,4.71-5.8h-.19a5.62,5.62,0,0,0-.7,0l-.23,0a4.71,4.71,0,0,0-.52.09l-.25,0-.67.16-.39.12-.33.1-.46.15-.18.07c-.38.14-.75.29-1.13.45a9.73,9.73,0,0,0-2.07,4,5.46,5.46,0,0,0,1.19,4.9c1.76,2,5,3.06,8.92,3.06a29.11,29.11,0,0,0,10.9-2.31,29,29,0,0,0,10.9,2.31c3.89,0,7.16-1,8.91-3.06a5.46,5.46,0,0,0,1.2-4.9A9.76,9.76,0,0,0,73.54,91.88Z"/><path d="M39,81.92a15,15,0,0,0,10.1-1.62l5.07,2.41,5.76-2.54a15.09,15.09,0,0,0,10.34,1.75L73,76.59a17.86,17.86,0,0,1-5.29-4.7l-.26.14c-.49-7.5-6-13.41-12.82-13.41S42.27,64.53,41.78,72l-.26-.14a17.86,17.86,0,0,1-5.29,4.7Z"/><path d="M69.23,83.88a17.05,17.05,0,0,1-9.39-1.71l-5.73,2.52-5-2.38A17.08,17.08,0,0,1,40,83.88l2.69,5.21a7.9,7.9,0,0,0,3.75.94h.21a10.39,10.39,0,0,0,15.95,0h.22a7.93,7.93,0,0,0,3.75-.94Z"/><path d="M54.61,87.55c-8.22,0-14.07-4.68-16.46-13.18l0-.1-.38-1.62-.05-.26-.09-.31L33.85,56.29a14.23,14.23,0,0,0-5.08-8.54l-4.35-3.27,4.63-2.78a10,10,0,0,1,5.18-1.47,11.15,11.15,0,0,1,9.33,5.65,8.57,8.57,0,0,1,6.19,4.48L53,56l-6.2-.21a1.92,1.92,0,0,0-.5,1.4,52.73,52.73,0,0,0,1.51,10.43c1.34,4.5,3.64,6.78,6.84,6.78s5.49-2.28,6.84-6.78A53.6,53.6,0,0,0,63,57.2a1.64,1.64,0,0,0-.57-1.4l-6,.2,3-5.6a8.61,8.61,0,0,1,6.21-4.52A11.17,11.17,0,0,1,75,40.23a10,10,0,0,1,5.18,1.47l4.64,2.78-4.36,3.27a14.28,14.28,0,0,0-5.08,8.52l-.28,1.19-4,16.86C68.68,82.85,62.83,87.55,54.61,87.55ZM42.91,73.08c1.79,6.33,5.73,9.54,11.7,9.54s9.9-3.23,11.71-9.59L70.55,55.2a19.78,19.78,0,0,1,5.28-10,4.8,4.8,0,0,0-.85-.08c-2.26,0-4.36,1.57-5.63,4.21l-.75,1.57-1.73-.18a2.76,2.76,0,0,0-2.09.74,6.5,6.5,0,0,1,3.1,5.7A58.22,58.22,0,0,1,66.17,69c-2,6.64-6.09,10.3-11.56,10.3S45,75.68,43,69a58.32,58.32,0,0,1-1.7-11.84,6.5,6.5,0,0,1,3.07-5.71,2.7,2.7,0,0,0-2.06-.73l-1.74.18-.75-1.57c-1.27-2.64-3.37-4.21-5.63-4.21a4.89,4.89,0,0,0-.85.08,19.76,19.76,0,0,1,5.29,10l.24,1.11Z"/><path class="cls-4" d="M54.61,85.08c-9,0-12.63-6.18-14.09-11.38l-.37-1.54s-.06-.32-.07-.34L40,71.51,36.51,56.88l-.25-1.13a16.69,16.69,0,0,0-6-10l-1.42-1.07,1.49-.89a7.49,7.49,0,0,1,3.91-1.13c3.23,0,6.18,2.14,7.85,5.62l.49,0a6,6,0,0,1,5,3.3l1,1.82-1.8-.06h-.07c-1.61,0-3,1.73-3,3.87a56.13,56.13,0,0,0,1.6,11.13c1.17,3.9,3.71,8.55,9.21,8.55s8-4.65,9.2-8.55a56.13,56.13,0,0,0,1.6-11.13c0-2.14-1.36-3.87-3-3.87l-1.76.06,1-1.81a6,6,0,0,1,5-3.3,4,4,0,0,1,.49,0c1.67-3.48,4.63-5.62,7.85-5.62a7.46,7.46,0,0,1,3.91,1.13l1.5.89L79,45.78a16.68,16.68,0,0,0-6,10l-.28,1.12-4,16.78C67.23,78.9,63.6,85.08,54.61,85.08Z"/><path d="M197.33,13.35a18.56,18.56,0,0,0,9,6.26,5.47,5.47,0,0,0-.9,1.59c-.15.38-.21.55-.38.55a1.71,1.71,0,0,1-.5-.19,23.67,23.67,0,0,1-2.88-1.49V21.6c0,.21,0,.23-.21.23s-.8,0-2.73,0h-1.49v2.35h2.39c2,0,2.73,0,2.86,0s.25,0,.25.23v1.6c0,.21,0,.23-.25.23s-.82,0-2.86,0h-2.39v2.56h5c1.91,0,2.58,0,2.7,0s.24,0,.24.23v1.64c0,.21,0,.23-.24.23s-.79,0-2.7,0h-12c-1.93,0-2.61,0-2.73,0s-.23,0-.23-.23V28.87c0-.21,0-.23.23-.23s.8,0,2.73,0H195V26.12h-2.12c-2,0-2.73,0-2.85,0s-.23,0-.23-.23v-1.6c0-.21,0-.23.23-.23s.82,0,2.85,0H195V21.79h-1.34c-1.93,0-2.58,0-2.71,0s-.23,0-.23-.23V20.24a26.48,26.48,0,0,1-2.56,1.45,1.91,1.91,0,0,1-.53.19c-.14,0-.23-.15-.4-.53a4.17,4.17,0,0,0-1-1.38c3.92-1.79,6.34-3.72,8.12-6.35a6.34,6.34,0,0,0,.8-1.51,16.59,16.59,0,0,1,2.21.44c.27.07.37.17.37.32s-.06.21-.21.31Zm1.39,6.47c1.45,0,2.16,0,2.5,0a18.24,18.24,0,0,1-5-4.73,19.72,19.72,0,0,1-4.83,4.73c.38,0,1.07,0,2.29,0Z"/><path d="M220.52,18.83c-2.06,0-2.75,0-2.88,0s-.23,0-.23-.23V17c0-.24,0-.24.23-.24s.82,0,2.88,0h2.12V15.45a22.24,22.24,0,0,0-.15-3,17.66,17.66,0,0,1,2.21.17c.21,0,.33.1.33.21a1.14,1.14,0,0,1-.14.44,6.9,6.9,0,0,0-.13,2.12v1.41h3c2,0,2.75,0,2.9,0s.21,0,.21.24v1.61c0,.21,0,.23-.21.23s-.86,0-2.9,0h-2.18A21.26,21.26,0,0,0,231.39,26a5.37,5.37,0,0,0-1,1.41c-.15.29-.23.44-.34.44s-.23-.13-.44-.34a20.59,20.59,0,0,1-4.89-7c0,1.89,0,3.76,0,5.4h.48c1.64,0,2.16-.05,2.29-.05s.23,0,.23.23v1.54c0,.23,0,.25-.23.25s-.65,0-2.29,0h-.46c0,2,.06,3.38.06,3.59s0,.23-.23.23h-1.8c-.23,0-.26,0-.26-.23s.05-1.62.09-3.59h-.38c-1.64,0-2.16,0-2.29,0s-.23,0-.23-.25V26.05c0-.21,0-.23.23-.23s.65.05,2.29.05h.4c0-1.64.06-3.51.06-5.38a19.58,19.58,0,0,1-4.78,7c-.21.19-.34.32-.45.32s-.18-.13-.33-.4a7.19,7.19,0,0,0-.95-1.24v2c0,2.05.05,3.08.05,3.19s0,.23-.24.23h-1.78c-.19,0-.21,0-.21-.23s0-1.14,0-3.19V23.43c0-.69,0-1.53,0-2.37-.4.52-.79,1.05-1.21,1.53-.15.17-.28.27-.38.27s-.17-.12-.23-.37a5.84,5.84,0,0,0-.72-1.81,18.56,18.56,0,0,0,4-6.82,7.77,7.77,0,0,0,.32-1.49,12.74,12.74,0,0,1,2,.65c.23.1.34.16.34.31s-.06.23-.23.38a1.92,1.92,0,0,0-.42.84,28.65,28.65,0,0,1-1.37,3.06v8.51a19.42,19.42,0,0,0,5.5-7.29Z"/><path d="M247.19,17.36c-2.56.49-4.81.93-7.06,1.39-.79.19-1,.23-1.32.33a1.12,1.12,0,0,1-.46.17.48.48,0,0,1-.4-.31,16.18,16.18,0,0,1-.78-2.27,29,29,0,0,0,3.34-.36c2.58-.38,7.2-1.07,12.62-1.78.32,0,.42.08.44.23a11.26,11.26,0,0,1,.23,1.85c0,.25-.12.31-.4.31a9.42,9.42,0,0,0-2.56.46c-3.57,1.22-5.35,3.68-5.35,6.2,0,2.7,1.93,4.18,5.58,4.41.34,0,.46.08.46.31a7.36,7.36,0,0,1-.23,1.81c-.06.31-.14.44-.4.44-3.69,0-7.74-2.12-7.74-6.49,0-3,1.49-5,4-6.66Zm4.16,2.27c.1-.08.18-.06.31,0a10,10,0,0,1,2,2.25.21.21,0,0,1-.07.33l-.88.66a.22.22,0,0,1-.36-.07,10.44,10.44,0,0,0-2.12-2.43Zm1.86-1.36c.13-.09.19-.07.32,0a8.42,8.42,0,0,1,2,2.16.24.24,0,0,1-.06.38l-.84.65a.22.22,0,0,1-.36-.06,9.44,9.44,0,0,0-2.1-2.42Z"/><path d="M275.33,19.42a6.92,6.92,0,0,0,0-1.43,9.41,9.41,0,0,1,2.43.9.4.4,0,0,1,.15.57,3.73,3.73,0,0,0-.34.82c-.16.88-.37,1.81-.58,2.71a25.87,25.87,0,0,1,3.27,2c.21.13.19.24.13.45a16.81,16.81,0,0,1-.91,1.8c-.06.11-.12.15-.18.15a.4.4,0,0,1-.26-.15,16.21,16.21,0,0,0-2.75-2A12.91,12.91,0,0,1,272,30.8c-.19.15-.29.23-.42.23a.53.53,0,0,1-.31-.15,4.42,4.42,0,0,0-1.83-.86,11.54,11.54,0,0,0,4.7-5.69A14,14,0,0,0,270,23.05a14.71,14.71,0,0,1-2.57,4.2,3.42,3.42,0,0,1-2.68,1.16c-1.22,0-2.5-.84-2.5-2.88,0-2.6,2.69-4.64,6.19-4.64a51.62,51.62,0,0,0,1.74-5l-2.89.34a4.09,4.09,0,0,0-.95.23,1.12,1.12,0,0,1-.38.08.33.33,0,0,1-.33-.23A12.64,12.64,0,0,1,265,14a7.69,7.69,0,0,0,1.85.13,22.93,22.93,0,0,0,3.25-.27,2.44,2.44,0,0,0,1-.36.47.47,0,0,1,.27-.08.52.52,0,0,1,.3.08,7.4,7.4,0,0,1,1.43,1.16.5.5,0,0,1,.18.35c0,.13-.08.23-.21.36a2.9,2.9,0,0,0-.56,1.09c-.55,1.43-1.14,3.07-1.77,4.58a17.3,17.3,0,0,1,4.08,1.05A21.82,21.82,0,0,0,275.33,19.42Zm-11.09,5.86c0,.67.23,1,.74,1a1.68,1.68,0,0,0,1.21-.79,14,14,0,0,0,1.54-2.57C265.59,23,264.24,24.08,264.24,25.28Z"/><path d="M293.26,21.16a6.36,6.36,0,0,1,3.34-.94,4.87,4.87,0,0,1,5.21,5c0,3.5-2.84,5.75-7.33,5.75-2.64,0-4.24-1.13-4.24-3.09a2.79,2.79,0,0,1,3-2.56,3.83,3.83,0,0,1,3.95,3.07,3.16,3.16,0,0,0,2.14-3.19,3.06,3.06,0,0,0-3.3-3.17,8.52,8.52,0,0,0-5.37,2.22c-.61.55-1.2,1.16-1.83,1.79-.15.14-.25.23-.36.23s-.18-.07-.31-.19a10,10,0,0,1-1.24-1.37c-.13-.17-.06-.31.11-.48a51.57,51.57,0,0,0,5-4.64c1.3-1.34,2.29-2.39,3.26-3.59-1.26.23-2.75.52-4.06.8a5.77,5.77,0,0,0-.88.25,1.51,1.51,0,0,1-.42.1.47.47,0,0,1-.46-.35,10.11,10.11,0,0,1-.73-2.27,10.59,10.59,0,0,0,1.95,0c1.28-.12,3.13-.4,4.76-.71a5.48,5.48,0,0,0,1.16-.32,1.08,1.08,0,0,1,.4-.17.78.78,0,0,1,.48.17,8.4,8.4,0,0,1,1.41,1.35.71.71,0,0,1,.23.5.55.55,0,0,1-.36.5,3.38,3.38,0,0,0-.92.68c-1.54,1.49-2.94,3-4.54,4.49Zm0,6c-.6,0-1,.35-1,.79,0,.66.56,1.1,1.82,1.1a4.21,4.21,0,0,0,1-.09C294.8,27.8,294.17,27.15,293.28,27.15Z"/></g></g></svg>