<svg xmlns="http://www.w3.org/2000/svg" viewBox="0 0 402.07 126.64"><defs><style>.cls-1,.cls-2,.cls-3{fill:#fff;stroke:#000;stroke-miterlimit:10;}.cls-1{stroke-width:4.21px;}.cls-2{stroke-width:4.3px;}.cls-3{stroke-width:4.3px;}</style></defs><title>アセット 196</title><g id="レイヤー_2" data-name="レイヤー 2"><g id="レイヤー_1-2" data-name="レイヤー 1"><polygon class="cls-1" points="399.92 40.55 41.62 40.55 60.35 2.11 399.92 2.11 399.92 40.55"/><rect class="cls-2" x="53.07" y="40.54" width="346.85" height="69.43"/><circle class="cls-3" cx="54.61" cy="72.03" r="52.46"/><path d="M137.27,74.29a.41.41,0,0,1-.4.27.75.75,0,0,1-.24,0c-1.8-.65-4.9-1.36-5.34-1.5-.2-.07-.37-.1-.37-.34a11,11,0,0,1,.68-2.24c0-.1.1-.24.44-.24a32,32,0,0,1,5.57,1,.39.39,0,0,1,.31.44A19.8,19.8,0,0,1,137.27,74.29Zm-5.37,12a.31.31,0,0,1,.14-.24,44.65,44.65,0,0,0,6.66-8c.07-.11.14-.17.17-.17s.14.06.17.17a14.44,14.44,0,0,0,1.63,2,.19.19,0,0,1,.14.2,1,1,0,0,1-.07.24c-1.46,2.68-3.16,4.93-3.87,6.12-.62,1-.65,1.66-1.23,1.66S131.9,86.87,131.9,86.29Zm7.34-19.24a.66.66,0,0,1-.37-.14A52.75,52.75,0,0,0,134.21,64c-.13-.1-.27-.17-.27-.34s1.19-2.14,1.53-2.14c.51,0,5.48,2.21,5.48,2.92a.73.73,0,0,1-.07.24,14.4,14.4,0,0,1-1.36,2.21A.36.36,0,0,1,139.24,67.05Zm23,16.69a.33.33,0,0,1,.31.37c0,.31,0,1,0,1.74,0,.47,0,1,0,1.22s-.21.24-.38.24C157.64,87,155,87,152.4,87c-7.65,0-9.89.14-12.88.34-.21,0-.44-.07-.44-.31s0-1,0-1.49c0-1.29,0-1.77.34-1.77h.14c4.14.27,6.76.37,9.11.37,0-1.83.1-5.71.1-9s-.07-6.36-.1-7.72c-1.57,0-3.54.1-6.39.3h-.07c-.17,0-.38-.06-.38-.3s0-.85,0-1.4c0-1.73.07-1.73.48-1.73,4.08.31,6.18.34,8.09.34a92.74,92.74,0,0,0,9.55-.34c.41,0,.41.34.41,2,0,1.26-.07,1.39-.41,1.39-3.53-.23-5.17-.3-6.9-.34v0c0,.2-.2.41-.48.58s-.23.27-.23.61c0,1.7-.07,4.11-.07,6.59,0,3.2.07,7.11.1,8.94,2.58,0,5.17-.06,9.89-.37Z"/><path d="M191.13,79c0,.31-.14.34-.41.34s-1.16.07-1.84.07c-1.46,0-1.59-.07-1.59-.41v-.07l.1-1.7c-1.23,0-3.27-.06-5.82-.06-3,0-5.54,0-6.86.06-1.19,9.25-6.8,13-7.41,13a.52.52,0,0,1-.34-.13,15.13,15.13,0,0,0-3.37-1.46c-.2-.07-.27-.14-.27-.21s.07-.13.27-.24c6.49-3.09,7.92-9.65,7.92-14.92a34.67,34.67,0,0,0-.51-5.78.93.93,0,0,1,0-.27c0-.14.07-.17.23-.17h.24c3.57.24,5.51.27,7.31.27,7.18,0,8.23,0,11.87-.24.27,0,.41.07.41.38v.1c-.14,1.43-.21,3.43-.21,5.51a43.62,43.62,0,0,0,.31,5.74Zm2.92-17.85c.27,0,.34.07.34,2.11,0,1.29-.07,1.6-.37,1.6-6.87-.38-9.32-.38-13.19-.38-5.68,0-8.57.14-12.65.38-.41,0-.44-.24-.44-1.87,0-1.84,0-1.84.27-1.84h.17c6.08.31,8.12.34,11,.34,5.64,0,8.53,0,14.82-.34Zm-6.56,9.18s-1.09-.1-3.71-.1c-.68,0-1.42,0-2.27,0l-6.67.07s0,1.94,0,3.84c1.42,0,3.91.07,6.59.07s4.76,0,6-.07Z"/><path d="M211,82.75c0,.34-.1.58-1.7.58-.92,0-1.63,0-1.63-.47v-.07c0-.65,0-1.5.06-2.42-.37,0-.95-.06-1.46-.06s-1.19,0-1.56.06c0,1.53,0,3,.07,4.36,0,.57-.07.61-1.7.61s-1.74-.21-1.74-.55v-.1c.31-4.66.38-9.75.38-12.54,0-3.5-.07-6.26-.21-9.05,0-.13,0-.2,0-.3s.07-.21.24-.21.17,0,.27,0c1.09.1,2.58.17,4.32.17s2-.07,4.21-.21c.38,0,.44.14.44.48-.23,2.69-.23,5.81-.23,8.74,0,2.55.06,8,.27,10.74Zm-4.76-17.33c-.95,0-1.53,0-1.53,0s-.07,2.11-.07,4.52c.41,0,1.09,0,1.6,0s1.22,0,1.6,0c0-2.17-.11-4.52-.11-4.52s-.34,0-1,0Zm1.6,7.31c-.38,0-1,0-1.57,0s-1.25,0-1.63,0c0,1.32,0,3,0,4.86.4,0,1.05,0,1.56,0s1.15,0,1.53,0C207.82,75.75,207.86,74,207.86,72.73Zm21.82.17c-3.77-.38-7.31-.41-9.45-.41s-3.91.07-8.36.34c-.34,0-.41-.1-.41-1.57s0-1.63.41-1.63c3.33.27,5.06.34,6.83.34V67.29c-1.53,0-3,.06-5.47.2-.31,0-.38,0-.38-1.46s.07-1.53.45-1.53c2.38.2,3.91.2,5.33.2v-.34a27.37,27.37,0,0,0-.47-5v-.17c0-.17,0-.2.24-.2.54,0,4.35.4,4.35,1.12,0,.27-.31.61-.51,1-.38.71-.34.64-.48,2.85a4.94,4.94,0,0,0,0,.68c1.29,0,2.58-.07,5.2-.24.17,0,.41,0,.41,1.57a6.7,6.7,0,0,1-.07,1.26c0,.13-.2.2-.31.2h0c-2.55-.14-3.74-.17-5.24-.2V70c2.11,0,4.86-.17,8-.41.24,0,.38.24.38,1.67,0,.54,0,1.09-.07,1.43,0,.13-.17.24-.27.24Zm-4.59,13c0,2-1.12,4.25-5.1,4.25q-.3,0-.51-.51c-.64-1.53-1.83-2.07-2.65-3-.1-.11-.17-.17-.17-.24s0-.07.14-.07a1.39,1.39,0,0,0,.17,0,19.72,19.72,0,0,0,2.75.28c1.29,0,2-.34,2-1.33.07-1.33.07-4,.07-5.54v-2h-1.46c-2.18,0-4,.06-8.33.34a.33.33,0,0,1-.34-.31c0-.27,0-.78,0-1.33,0-1.63,0-1.63.38-1.63,4.21.34,6,.34,8.33.34h1.36a14.14,14.14,0,0,0-.27-2c0-.06,0-.1,0-.13s.1-.21.27-.21,4,.34,4,1a.91.91,0,0,1-.27.54c-.31.41-.41.41-.44.75,1.39-.07,2.95-.17,4.62-.3h0c.2,0,.33.27.33,1.69,0,.55,0,1.13-.06,1.47a.33.33,0,0,1-.27.23h0c-1.67-.17-3.26-.27-4.69-.3v2.92c0,1.84.17,3,.2,4.93Zm-7.51-1.49c-.07,0-.14-.07-.2-.14a19.42,19.42,0,0,0-4.25-3.64c-.11-.07-.14-.1-.14-.17,0-.37,1.5-1.36,1.84-1.56a.26.26,0,0,1,.17-.1.44.44,0,0,1,.17.06,17.34,17.34,0,0,1,4.45,2.89.29.29,0,0,1,.1.21,14.63,14.63,0,0,1-2,2.38C217.68,84.35,217.65,84.39,217.58,84.39Z"/><path d="M238.83,89.32c.51-4.59.75-12,.88-17.58-.3.37-3.8,4.72-4.55,4.72a.45.45,0,0,1-.27-.06A9.56,9.56,0,0,0,232,75.34c-.2,0-.34-.1-.34-.17s.07-.13.17-.2c5.85-4.15,10.51-12,10.91-14.28,0-.14.07-.2.18-.2.57,0,4,1.46,4,2.1,0,.24-.27.48-.78.68s-.68.14-.95.68a39.91,39.91,0,0,1-2.31,3.57c.24.07.41.17.54.21a.42.42,0,0,1,.34.41,1.12,1.12,0,0,1-.34.64,2.12,2.12,0,0,0-.51,1.63c-.14,4.22-.31,9.76-.31,14.28,0,1.77,0,3.37.11,4.69,0,.17-.11.34-1.94.34-1.6,0-1.94,0-1.94-.34Zm23.53-18.19c0,.13-.24.27-.34.27-5.1.37-5.85.44-8.84.88l-.72.11c2,10.13,7.62,12.91,8.3,12.91s1.6-1,1.83-3.8c0-.21.07-.28.17-.28s.14.07.21.17a11.86,11.86,0,0,0,2.72,2.76.52.52,0,0,1,.24.51c-.92,3-2.55,4.66-4.56,4.66a5.11,5.11,0,0,1-2.72-.92c-5.61-3.54-8.09-9.52-9.35-15.47l-4.86,1h-.1a.4.4,0,0,1-.41-.24,13.43,13.43,0,0,1-.37-2.68v-.14c0-.34.17-.41.37-.41,2.14-.13,3.6-.27,4.86-.44-.27-1.73-.47-3.47-.61-5.1s-.27-3-.48-3.91a2.49,2.49,0,0,1-.06-.37c0-.14.06-.21.2-.21s.14,0,.2,0c3.68.44,4.42.57,4.42,1.12A3.17,3.17,0,0,1,252,62.8a2.61,2.61,0,0,0-.2,1.12A49.33,49.33,0,0,0,252,69.6l.75-.1c3.26-.45,4.08-.62,8.74-1.6h.07a.37.37,0,0,1,.37.3,19.34,19.34,0,0,1,.41,2.89Zm-5.17-3.54a23.35,23.35,0,0,0-4.11-2.82c-.14-.07-.28-.1-.28-.24a5.68,5.68,0,0,1,1.77-2.21c.65,0,4.8,2.31,4.8,2.76s-1.37,2.68-1.81,2.68A.51.51,0,0,1,257.19,67.59Z"/><path d="M282.49,91a.55.55,0,0,1-.41.21.34.34,0,0,1-.21-.07c-4.25-2.28-9.07-8-9.07-16.8,0-11.56,8.87-16.52,9.28-16.52a2.8,2.8,0,0,1,1.39,1.94.52.52,0,0,1-.31.47c-3.63,2.11-6.9,7.69-6.9,14.15,0,6.8,3.27,12.27,6.9,14.41a.51.51,0,0,1,.24.48A3.18,3.18,0,0,1,282.49,91Z"/><path d="M305.74,65.08c2.62,0,5.48-.11,10-.34.38,0,.48.2.48,1.53,0,.61,0,1.22-.07,1.63,0,.17-.2.24-.41.24-5.88-.31-9.28-.34-12.65-.34-8.7,0-12,.13-16.21.34h-.1c-.41,0-.41-.28-.41-1.64,0-1.59,0-1.76.34-1.76h.17c4.38.23,7.34.3,9.79.34a19.87,19.87,0,0,0-3.2-3.91c-.1-.11-.17-.17-.17-.24a9,9,0,0,1,2.66-1.4c.34,0,4,3.47,4,4,0,.31-1.36,1.12-2,1.5h4.31a37.39,37.39,0,0,0,2.86-5.44c.1-.28.14-.41.27-.41s3.91,1.36,3.91,2c0,.24-.34.41-.78.68a3.32,3.32,0,0,0-1,.92Zm-8.6,17.27c-.65,0-1.66,0-2.31,0s-1.26,0-2,0c0,2.82.1,5.13.13,7,0,.28-.1.38-1.46.38-.58,0-1.22,0-1.66-.07-.24,0-.34-.07-.34-.27v-.1c.13-3.06.44-7.72.44-11.09,0-2.11,0-5.81-.24-8a1.07,1.07,0,0,1,0-.27c0-.14.06-.17.27-.17h.2a44.94,44.94,0,0,0,4.66.17c1.66,0,2.89,0,5-.17.3,0,.4.07.4.27v.14c0,.44-.2,2.34-.2,8.6,0,2.78.2,5.3.2,7.24s-.81,3.7-4.65,3.81a.48.48,0,0,1-.45-.45,10.22,10.22,0,0,0-1.93-2.68c-.07-.07-.14-.14-.14-.21s.07-.06.21-.06h.1a16.09,16.09,0,0,0,2.17.23c1.06,0,1.6-.3,1.6-1.12Zm0-3.57c0-.17,0-.72,0-1.36-.65,0-1.63,0-2.28,0s-1.36,0-2,0v2.41c.72,0,1.57,0,2,0s1.63,0,2.31,0Zm-.1-6.36s-1.12,0-2.25,0-1.9,0-1.9,0,0,1.19,0,2.52c.64,0,1.46,0,1.93,0s1.6,0,2.28,0C297.07,73.61,297,72.42,297,72.42Zm5.47-1.36c0-.1,0-.1.1-.1h.14a23.41,23.41,0,0,1,3.6.64c.31.11.41.21.41.41a2.38,2.38,0,0,1-.44.95c-.2.34-.37.92-.37,3.4a68.34,68.34,0,0,0,.34,7.31c0,.14-.14.24-.31.24-.41,0-1,0-1.5,0-1.66,0-1.8-.1-1.8-.34.21-2.89.27-3.4.27-6a28.26,28.26,0,0,0-.44-6.36Zm9.86,15.54c0,1.66-2,3.09-5.34,3.09a.57.57,0,0,1-.54-.48,11.79,11.79,0,0,0-2.14-2.72c-.07-.06-.1-.1-.1-.13s.1-.14.23-.14.14,0,.24,0a20,20,0,0,0,2.28.23c1,0,1.87-.23,1.9-1.08,0-2.11.07-3.64.07-4.87,0-1.63,0-2.68,0-3.87a38.66,38.66,0,0,0-.51-7.31.33.33,0,0,1,0-.17c0-.1.07-.1.28-.1a30.1,30.1,0,0,1,4,.71c.3.1.44.27.44.44a2.14,2.14,0,0,1-.48,1c-.27.41-.51,1-.51,4.45,0,2.21,0,6.63.24,10.85Z"/><path d="M346.85,73.47c-5-.24-7.35-.3-10-.34,0,.92,0,2.21,0,3.68,3.5,0,6.22-.07,12.61-.38.34,0,.41.1.41,1.77s-.11,1.7-.41,1.7c-6.15-.27-9.21-.34-12.58-.38.07,3.51.2,7.42.34,10,0,.21-.14.38-2,.38-1.73,0-2,0-2-.44.2-3.34.34-6.87.44-10-3.57,0-6,.11-12.41.38-.44,0-.47-.17-.47-1.74,0-1.73,0-1.73.47-1.73,6.36.31,9.35.38,12.48.38,0-1.47,0-2.73,0-3.68-2.78,0-4.55.1-9.82.34h-.1c-.24,0-.31,0-.31-1.63s0-1.66.41-1.66c5.17.27,7.41.34,9.82.34a76.6,76.6,0,0,0-.54-10.78c0-.07,0-.14,0-.21s.06-.1.13-.1c.24,0,4.76.27,4.76,1.12,0,.34-.41.82-.68,1.6s-.47,4.12-.51,8.37c2.76,0,4.8-.07,10-.34.23,0,.27.1.3.3a13,13,0,0,1,0,1.4,13.22,13.22,0,0,1,0,1.39c0,.1-.07.2-.24.2Zm-17.17-3.94c-.1,0-.2-.07-.31-.24a27.06,27.06,0,0,0-4.69-4.59c-.13-.1-.24-.17-.24-.27,0-.34,1.74-1.67,1.94-1.67.44,0,5.88,3.54,5.88,4.32A7.4,7.4,0,0,1,329.68,69.53Zm15.71-3.94c-.58.27-3.44,2.68-5.1,3.84a.39.39,0,0,1-.28.1.2.2,0,0,1-.17-.1,4.86,4.86,0,0,0-1.8-1.09c-.1-.07-.13-.14-.13-.17A.19.19,0,0,1,338,68a29.16,29.16,0,0,0,5.1-5.64c.07-.14.13-.2.24-.2.44,0,3.26,2,3.26,2.72C346.61,65.31,345.86,65.31,345.39,65.59Z"/><path d="M354.5,91.19a.52.52,0,0,1-.41-.21,3.24,3.24,0,0,1-.92-1.73.61.61,0,0,1,.24-.48c3.64-2.14,6.9-7.61,6.9-14.41,0-6.46-3.26-12-6.9-14.15a.51.51,0,0,1-.3-.47,2.77,2.77,0,0,1,1.39-1.94c.41,0,9.28,5,9.28,16.52,0,8.81-4.83,14.52-9.08,16.8A.29.29,0,0,1,354.5,91.19Z"/><path d="M80.46,46.2a36.43,36.43,0,0,0-25.8-10.67H54.6A36.5,36.5,0,0,0,18.16,72v.07a36.5,36.5,0,0,0,36.5,36.44h.06A36.5,36.5,0,0,0,91.17,72V72h0A36.36,36.36,0,0,0,80.46,46.2Zm-25.82-4h0A29.84,29.84,0,0,1,84.5,72V72a29.84,29.84,0,0,1-29.79,29.84h-.05a29.84,29.84,0,0,1-29.83-29.8v0A29.81,29.81,0,0,1,54.61,42.2h0Z"/><path d="M63.6,72.27a15.48,15.48,0,0,1,5.54,1.91l0,0A18.15,18.15,0,0,1,68.06,71a13.33,13.33,0,0,1-.4-4.16L58.4,72.25A18.4,18.4,0,0,1,63.6,72.27Z"/><path d="M74.47,83.45a34.49,34.49,0,0,0-3,6.77A21.23,21.23,0,0,0,70.76,93a19.8,19.8,0,0,0,7.43-7,20.05,20.05,0,0,0,2.33-10.24A31.42,31.42,0,0,0,74.47,83.45Z"/><path d="M72.14,69.41a12.39,12.39,0,0,0-2.24-1.78,6.18,6.18,0,0,0-.65-.31,11.28,11.28,0,0,0,.37,3.33,17.54,17.54,0,0,0,1.48,3.81,23,23,0,0,0,1.45,2.38l.13.14A13.82,13.82,0,0,1,74.27,79l.1.11a.83.83,0,0,1,.2.41.91.91,0,0,1,.09.17,2.53,2.53,0,0,1,.12.23c.66-1,1.35-1.86,2-2.69a.37.37,0,0,1,0-.11c-.17-.56-.46-1.4-.74-2.42-.22-.45-.47-.91-.76-1.38A21,21,0,0,0,72.14,69.41Z"/><path d="M63.36,73.85a17.83,17.83,0,0,0-5.7.13,17.9,17.9,0,0,0,2.89,5.4,14.11,14.11,0,0,0,4,3.44A13.7,13.7,0,0,0,68,84.23a21.48,21.48,0,0,1,2.7.37h.53a4.12,4.12,0,0,0,.86-.11c.3-.61.63-1.22,1-1.83.25-.43.51-.85.77-1.26l-.23,0a3.62,3.62,0,0,0-.38-1c-.07-.15-.17-.31-.26-.48a21.75,21.75,0,0,1-1.66-2.11,13.75,13.75,0,0,0-3-2.32A14,14,0,0,0,63.36,73.85Z"/><path d="M68,91.47h0a24.56,24.56,0,0,0-3.45,1.16,15.12,15.12,0,0,0-5.88,4.21,6.64,6.64,0,0,0,3-.31A33.37,33.37,0,0,0,69,93.93c0-.28.06-.57.11-.86.09-.6.22-1.22.38-1.86a8.43,8.43,0,0,1-.9.18Z"/><path d="M77.53,74.17a9.92,9.92,0,0,1,.61,1.63,21.45,21.45,0,0,1,2.29-2.08A33.36,33.36,0,0,0,79,66.36c-.68-1.92-.59-2.38-1.51-3a14,14,0,0,0-.84,5.19,22.74,22.74,0,0,0,.88,5.58Z"/><path d="M63.51,91.31a21.18,21.18,0,0,1-2.81-.57,12.94,12.94,0,0,1-3-1.2,5.53,5.53,0,0,1-1.28-1v5.1a3.41,3.41,0,0,0,.88,2.27,15.7,15.7,0,0,1,4.62-3.82C62.44,91.82,63,91.55,63.51,91.31Z"/><path d="M63.79,84.24l0,0a15.59,15.59,0,0,1-4.44-3.83,19.36,19.36,0,0,1-2.93-5.25l0,11.68a13.32,13.32,0,0,1,4.1-2A17.84,17.84,0,0,1,63.79,84.24Z"/><path d="M70.7,66.24a16,16,0,0,1,3.79,3.34c.23.27.45.55.68.83a16.51,16.51,0,0,1,.8-7.57,3.39,3.39,0,0,0-2.08.43l-4.27,2.48A6.45,6.45,0,0,1,70.7,66.24Z"/><path d="M71.13,86.2a.9.9,0,0,1-.46,0l-.16,0c-.41,0-.85,0-1.32-.11s-.92-.16-1.42-.27c-.3,0-.6,0-.92-.06a19.14,19.14,0,0,0-5.92.63,11.64,11.64,0,0,0-3.06,1.36,4.45,4.45,0,0,0,.6.4,14,14,0,0,0,4.28,1.42,19.56,19.56,0,0,0,4.92.31h0c1-.25,1.8-.42,2.37-.55.34-1,.75-2.07,1.22-3.14Z"/><path d="M48.92,59V59a17.83,17.83,0,0,1-2.18,2.56A13,13,0,0,1,43.34,64l9.28,5.34A19.11,19.11,0,0,1,50,64.78,15.62,15.62,0,0,1,48.92,59Z"/><path d="M44.58,48.4a31.53,31.53,0,0,0,9.71,1.37A34.43,34.43,0,0,0,61.66,49a21.55,21.55,0,0,0,2.75-.79,19.9,19.9,0,0,0-9.8-2.93A20,20,0,0,0,44.58,48.4Z"/><path d="M50.61,52a.81.81,0,0,1,.25-.37l.1-.17.15-.21c-1.17-.1-2.29-.24-3.35-.43a.36.36,0,0,1-.07.1c-.4.43-1,1.1-1.73,1.85-.28.41-.55.86-.82,1.35a22,22,0,0,0-1.85,4.69,11.76,11.76,0,0,0-.41,2.83,5.31,5.31,0,0,0,0,.72,12.08,12.08,0,0,0,2.7-2,17.37,17.37,0,0,0,2.56-3.2,21.39,21.39,0,0,0,1.33-2.43l.06-.18a12.91,12.91,0,0,1,1-2.42S50.6,52.06,50.61,52Z"/><path d="M58.71,58.69A13.9,13.9,0,0,0,58.19,55a24.65,24.65,0,0,1-1-2.52c-.09-.16-.18-.32-.27-.46a4.84,4.84,0,0,0-.52-.68c-.68,0-1.37.06-2.08.06-.5,0-1,0-1.48,0l.15.18a3.4,3.4,0,0,0-.64.8c-.09.14-.18.3-.27.47-.2.58-.53,1.46-1,2.5A13.52,13.52,0,0,0,50.52,59a13.88,13.88,0,0,0,1,5.17,17.8,17.8,0,0,0,3,4.88,18,18,0,0,0,3.23-5.21A14.07,14.07,0,0,0,58.71,58.69Z"/><path d="M64.1,50.89l.39.52h0a26.17,26.17,0,0,0,2.73,2.4,15.12,15.12,0,0,0,6.59,3A6.75,6.75,0,0,0,72,54.34a33.5,33.5,0,0,0-6-5.07,8.34,8.34,0,0,1-.8.33c-.56.22-1.16.42-1.79.6Q63.8,50.51,64.1,50.89Z"/><path d="M44.71,51.77h0a10,10,0,0,1,1.1-1.33,21.93,21.93,0,0,1-2.93-1,33.17,33.17,0,0,0-5.67,4.92c-1.33,1.55-1.76,1.7-1.82,2.8a14,14,0,0,0,4.92-1.88A22.57,22.57,0,0,0,44.71,51.77Z"/><path d="M72.17,60.31a3.4,3.4,0,0,0,1.53-1.89,15.61,15.61,0,0,1-5.62-2.09c-.53-.32-1-.65-1.51-1a23.07,23.07,0,0,1,.92,2.73A13.4,13.4,0,0,1,68,61.28a5.77,5.77,0,0,1-.2,1.59Z"/><path d="M62.49,61.18a18.42,18.42,0,0,1-2.18-2.55v.06a15.48,15.48,0,0,1-1.1,5.76,19.42,19.42,0,0,1-3.08,5.16l10.11-5.86A12.94,12.94,0,0,1,62.49,61.18Z"/><path d="M42.64,55.7a16.7,16.7,0,0,1-7,3.08,3.35,3.35,0,0,0,1.41,1.59l4.28,2.46a6.48,6.48,0,0,1-.1-1.18,15.77,15.77,0,0,1,1-4.95C42.38,56.36,42.51,56,42.64,55.7Z"/><path d="M63.26,52.45h0c-.7-.72-1.26-1.35-1.66-1.79a32.33,32.33,0,0,1-3.33.51l.08.13a.79.79,0,0,1,.26.38s0,.1,0,.15a11.22,11.22,0,0,1,.57,1.2c.17.42.33.88.48,1.37.12.27.26.54.41.82A19,19,0,0,0,63.6,60a12.33,12.33,0,0,0,2.71,2,5.31,5.31,0,0,0,0-.72,14.26,14.26,0,0,0-.91-4.42A19.59,19.59,0,0,0,63.26,52.45Z"/><path d="M53,86.48l0-10.71a18.76,18.76,0,0,1-2.61,4.5,15.68,15.68,0,0,1-4.43,3.85l0,0a17.94,17.94,0,0,1,3.31.61A13.11,13.11,0,0,1,53,86.48Z"/><path d="M30.87,78.09a22.31,22.31,0,0,0-2.07-2,19.8,19.8,0,0,0,2.37,10,19.92,19.92,0,0,0,7.71,7.14,31.5,31.5,0,0,0-3.67-9.1A34.92,34.92,0,0,0,30.87,78.09Z"/><path d="M43.55,89.83a21.58,21.58,0,0,0,5-.74,11.51,11.51,0,0,0,2.65-1,4.18,4.18,0,0,0,.6-.41,11.79,11.79,0,0,0-3.07-1.34,17,17,0,0,0-4-.62,22.7,22.7,0,0,0-2.78.06l-.18,0a13.88,13.88,0,0,1-2.59.34.35.35,0,0,1-.14,0,.77.77,0,0,1-.45,0h-.2l-.25,0c.5,1.06.93,2.1,1.3,3.11l.13,0c.57.13,1.44.3,2.46.57C42.47,89.83,43,89.85,43.55,89.83Z"/><path d="M37.32,84.59l.08-.22a4.05,4.05,0,0,0,1,.15,4.68,4.68,0,0,0,.53,0,26,26,0,0,1,2.67-.37,13.74,13.74,0,0,0,7.46-4.88,17.58,17.58,0,0,0,2.74-5,17.82,17.82,0,0,0-6.12-.19,13.82,13.82,0,0,0-5,1.73,13.62,13.62,0,0,0-3,2.3,23.07,23.07,0,0,1-1.67,2.15l-.26.46a5.72,5.72,0,0,0-.33.8c.37.57.74,1.16,1.09,1.77C36.85,83.72,37.09,84.16,37.32,84.59Z"/><path d="M31,75.91a8.32,8.32,0,0,1,.3-.88c.07-.19.16-.39.25-.59h0a25.59,25.59,0,0,0,.71-3.57,15.15,15.15,0,0,0-.7-7.2,6.79,6.79,0,0,0-1.26,2.77,33.73,33.73,0,0,0-1.41,7.68c.22.17.45.34.68.53C30,75,30.51,75.45,31,75.91Z"/><path d="M47,93.42a22.35,22.35,0,0,0-5.27-2h0A9.85,9.85,0,0,1,40,91.1a22.44,22.44,0,0,1,.65,3,33.28,33.28,0,0,0,7.09,2.45c2,.38,2.35.68,3.33.18A13.78,13.78,0,0,0,47,93.42Z"/><path d="M33.89,70.67a21.92,21.92,0,0,1,1.9-2.15,13.41,13.41,0,0,1,2.55-2,5.8,5.8,0,0,1,1.48-.61L35.4,63.34A3.4,3.4,0,0,0,33,63a15.92,15.92,0,0,1,1,5.91C34,69.49,34,70.09,33.89,70.67Z"/><path d="M45.46,72.49a19.37,19.37,0,0,1,6,.09L41.34,66.75A12.86,12.86,0,0,1,41,71.28a18.54,18.54,0,0,1-1.12,3.17l.05,0A15.68,15.68,0,0,1,45.46,72.49Z"/><path d="M52,89.43A15.52,15.52,0,0,1,47.22,91c-.35.07-.7.13-1.06.17a16.59,16.59,0,0,1,6.15,4.49,3.38,3.38,0,0,0,.67-2V88.74A6,6,0,0,1,52,89.43Z"/><path d="M37,76.34a19.09,19.09,0,0,0,2.41-5.44,12.42,12.42,0,0,0,.36-3.33,3.8,3.8,0,0,0-.65.31,14.43,14.43,0,0,0-3.37,3A19.16,19.16,0,0,0,33.05,75h0c-.26,1-.53,1.77-.7,2.34A32.49,32.49,0,0,1,34.44,80s.05-.08.07-.13a.75.75,0,0,1,.2-.41l.11-.12a11.92,11.92,0,0,1,.75-1.09c.28-.35.6-.72,1-1.09C36.69,76.86,36.86,76.61,37,76.34Z"/><path d="M197.33,12.78a18.56,18.56,0,0,0,9,6.26,5.4,5.4,0,0,0-.9,1.6c-.15.37-.21.54-.38.54a1.71,1.71,0,0,1-.5-.19,23.67,23.67,0,0,1-2.88-1.49V21c0,.21,0,.23-.21.23s-.8,0-2.73,0h-1.49v2.35h2.39c2,0,2.73,0,2.86,0s.25,0,.25.24v1.59c0,.21,0,.23-.25.23s-.82,0-2.86,0h-2.39v2.56h5c1.91,0,2.58,0,2.7,0s.24,0,.24.23v1.64c0,.21,0,.23-.24.23s-.79,0-2.7,0h-12c-1.93,0-2.61,0-2.73,0s-.23,0-.23-.23V28.3c0-.21,0-.23.23-.23s.8,0,2.73,0H195V25.55h-2.12c-2,0-2.73,0-2.85,0s-.23,0-.23-.23V23.77c0-.21,0-.24.23-.24s.82,0,2.85,0H195V21.23h-1.34c-1.93,0-2.58,0-2.71,0s-.23,0-.23-.23V19.67a24.53,24.53,0,0,1-2.56,1.45,1.62,1.62,0,0,1-.53.19c-.14,0-.23-.15-.4-.53a4.28,4.28,0,0,0-1-1.38c3.92-1.79,6.34-3.72,8.12-6.34a6.74,6.74,0,0,0,.8-1.51,13.92,13.92,0,0,1,2.21.44c.27.06.37.16.37.31s-.06.21-.21.32Zm1.39,6.47c1.45,0,2.16,0,2.5,0a18.35,18.35,0,0,1-5-4.72,19.86,19.86,0,0,1-4.83,4.72c.38,0,1.07,0,2.29,0Z"/><path d="M220.52,18.26c-2.06,0-2.75,0-2.88,0s-.23,0-.23-.24V16.46c0-.23,0-.23.23-.23s.82,0,2.88,0h2.12V14.88a22.34,22.34,0,0,0-.15-3,19.78,19.78,0,0,1,2.21.17c.21,0,.33.11.33.21a1.14,1.14,0,0,1-.14.44,6.9,6.9,0,0,0-.13,2.12v1.41h3c2,0,2.75,0,2.9,0s.21,0,.21.23v1.61c0,.22,0,.24-.21.24s-.86,0-2.9,0h-2.18a21.26,21.26,0,0,0,5.83,7.18,5.54,5.54,0,0,0-1,1.41c-.15.3-.23.44-.34.44s-.23-.12-.44-.33a20.62,20.62,0,0,1-4.89-7.06c0,1.89,0,3.76,0,5.4h.48c1.64,0,2.16,0,2.29,0s.23,0,.23.23V27c0,.23,0,.25-.23.25s-.65,0-2.29,0h-.46c0,2,.06,3.38.06,3.59s0,.23-.23.23h-1.8c-.23,0-.26,0-.26-.23s.05-1.62.09-3.59h-.38c-1.64,0-2.16,0-2.29,0s-.23,0-.23-.25V25.49c0-.21,0-.23.23-.23s.65,0,2.29,0h.4c0-1.64.06-3.51.06-5.38a19.71,19.71,0,0,1-4.78,7c-.21.18-.34.31-.45.31s-.18-.13-.33-.4a7.19,7.19,0,0,0-.95-1.24v2c0,2.06.05,3.09.05,3.19s0,.23-.24.23h-1.78c-.19,0-.21,0-.21-.23s0-1.13,0-3.19V22.86c0-.69,0-1.53,0-2.37-.4.52-.79,1.05-1.21,1.53-.15.17-.28.28-.38.28s-.17-.13-.23-.38a5.94,5.94,0,0,0-.72-1.81,18.48,18.48,0,0,0,4-6.82,7.77,7.77,0,0,0,.32-1.49,15.16,15.16,0,0,1,2,.65c.23.1.34.17.34.31s-.06.23-.23.38a2.07,2.07,0,0,0-.42.84,29.72,29.72,0,0,1-1.37,3.07v8.5a19.34,19.34,0,0,0,5.5-7.29Z"/><path d="M247.19,16.79c-2.56.49-4.81.93-7.06,1.39-.79.19-1,.23-1.32.34a1.26,1.26,0,0,1-.46.16.48.48,0,0,1-.4-.31,15.73,15.73,0,0,1-.78-2.27,26.86,26.86,0,0,0,3.34-.36c2.58-.37,7.2-1.07,12.62-1.78.32,0,.42.08.44.23A11.26,11.26,0,0,1,253.8,16c0,.25-.12.31-.4.31a9.43,9.43,0,0,0-2.56.47c-3.57,1.21-5.35,3.67-5.35,6.19,0,2.71,1.93,4.18,5.58,4.41.34,0,.46.08.46.31a7.36,7.36,0,0,1-.23,1.81c-.06.31-.14.44-.4.44-3.69,0-7.74-2.12-7.74-6.49,0-3,1.49-5,4-6.65Zm4.16,2.27c.1-.08.18-.06.31,0a10,10,0,0,1,2,2.25.22.22,0,0,1-.07.34l-.88.65a.22.22,0,0,1-.36-.07,10.44,10.44,0,0,0-2.12-2.43Zm1.86-1.36c.13-.09.19-.07.32,0a8.76,8.76,0,0,1,2,2.16.24.24,0,0,1-.06.38l-.84.65c-.17.13-.27.06-.36-.06a9.78,9.78,0,0,0-2.1-2.42Z"/><path d="M275.33,18.85a6.92,6.92,0,0,0,0-1.43,9,9,0,0,1,2.43.91.39.39,0,0,1,.15.56,3.94,3.94,0,0,0-.34.82c-.16.88-.37,1.81-.58,2.71a24.73,24.73,0,0,1,3.27,2c.21.12.19.23.13.44a16.81,16.81,0,0,1-.91,1.8c-.06.11-.12.15-.18.15a.4.4,0,0,1-.26-.15,17.41,17.41,0,0,0-2.75-2A12.85,12.85,0,0,1,272,30.23c-.19.15-.29.23-.42.23a.57.57,0,0,1-.31-.14,4.19,4.19,0,0,0-1.83-.86,11.58,11.58,0,0,0,4.7-5.69A14.33,14.33,0,0,0,270,22.48a14.71,14.71,0,0,1-2.57,4.2,3.42,3.42,0,0,1-2.68,1.16c-1.22,0-2.5-.84-2.5-2.88,0-2.6,2.69-4.64,6.19-4.64a52.4,52.4,0,0,0,1.74-5c-1.15.12-2.2.25-2.89.33a4.66,4.66,0,0,0-.95.23A1.12,1.12,0,0,1,266,16a.35.35,0,0,1-.33-.23,12.64,12.64,0,0,1-.61-2.29,8.23,8.23,0,0,0,1.85.12,22.93,22.93,0,0,0,3.25-.27,2.31,2.31,0,0,0,1-.36.47.47,0,0,1,.27-.08.52.52,0,0,1,.3.08,7.4,7.4,0,0,1,1.43,1.16.5.5,0,0,1,.18.35.51.51,0,0,1-.21.36,3,3,0,0,0-.56,1.09c-.55,1.43-1.14,3.07-1.77,4.58a17.3,17.3,0,0,1,4.08,1A21.82,21.82,0,0,0,275.33,18.85Zm-11.09,5.86c0,.67.23,1,.74,1a1.7,1.7,0,0,0,1.21-.8,14.27,14.27,0,0,0,1.54-2.56C265.59,22.4,264.24,23.51,264.24,24.71Z"/><path d="M293.26,20.59a6.36,6.36,0,0,1,3.34-.94,4.88,4.88,0,0,1,5.21,5c0,3.51-2.84,5.75-7.33,5.75-2.64,0-4.24-1.13-4.24-3.08a2.79,2.79,0,0,1,3-2.57,3.83,3.83,0,0,1,3.95,3.07,3.16,3.16,0,0,0,2.14-3.19A3.06,3.06,0,0,0,296,21.5a8.52,8.52,0,0,0-5.37,2.22c-.61.55-1.2,1.16-1.83,1.79-.15.14-.25.23-.36.23s-.18-.06-.31-.19a9.9,9.9,0,0,1-1.24-1.36c-.13-.17-.06-.32.11-.49a50.33,50.33,0,0,0,5-4.64c1.3-1.34,2.29-2.39,3.26-3.59-1.26.23-2.75.53-4.06.8a7.2,7.2,0,0,0-.88.25,1.53,1.53,0,0,1-.42.11c-.21,0-.35-.11-.46-.36a9.93,9.93,0,0,1-.73-2.27,9.09,9.09,0,0,0,1.95,0c1.28-.12,3.13-.39,4.76-.71a5.62,5.62,0,0,0,1.16-.31.93.93,0,0,1,.4-.17.72.72,0,0,1,.48.17,8,8,0,0,1,1.41,1.34.71.71,0,0,1,.23.5.57.57,0,0,1-.36.51,3.12,3.12,0,0,0-.92.67c-1.54,1.49-2.94,3-4.54,4.49Zm0,6c-.6,0-1,.36-1,.8,0,.65.56,1.09,1.82,1.09a4.21,4.21,0,0,0,1-.09C294.8,27.23,294.17,26.58,293.28,26.58Z"/></g></g></svg>