<svg xmlns="http://www.w3.org/2000/svg" viewBox="0 0 402.01 126.64"><defs><style>.cls-1,.cls-2,.cls-3{fill:#fff;stroke:#000;stroke-miterlimit:10;}.cls-1{stroke-width:4.21px;}.cls-2{stroke-width:4.3px;}.cls-3{stroke-width:4.3px;}.cls-4{fill:#040000;}</style></defs><title>アセット 375</title><g id="レイヤー_2" data-name="レイヤー 2"><g id="レイヤー_5" data-name="レイヤー 5"><polygon class="cls-1" points="399.86 40.55 41.56 40.55 60.29 2.11 399.86 2.11 399.86 40.55"/><rect class="cls-2" x="53.01" y="40.54" width="346.85" height="69.43"/><path d="M137.22,74.29a.42.42,0,0,1-.41.27.75.75,0,0,1-.24,0c-1.8-.65-4.9-1.36-5.34-1.5-.2-.07-.37-.1-.37-.34a11,11,0,0,1,.68-2.24c0-.1.1-.24.44-.24a32.2,32.2,0,0,1,5.58,1,.39.39,0,0,1,.3.44A21.34,21.34,0,0,1,137.22,74.29Zm-5.38,12a.31.31,0,0,1,.14-.24,44.23,44.23,0,0,0,6.66-8c.07-.11.14-.17.17-.17s.14.06.17.17a14.44,14.44,0,0,0,1.63,2,.19.19,0,0,1,.14.2.69.69,0,0,1-.07.24c-1.46,2.68-3.16,4.93-3.87,6.12-.62,1-.65,1.66-1.23,1.66S131.84,86.87,131.84,86.29Zm7.35-19.24a.66.66,0,0,1-.38-.14A54.59,54.59,0,0,0,134.16,64c-.14-.1-.28-.17-.28-.34s1.19-2.14,1.53-2.14c.51,0,5.48,2.21,5.48,2.92a.73.73,0,0,1-.07.24,13.66,13.66,0,0,1-1.36,2.21A.35.35,0,0,1,139.19,67.05Zm23,16.69c.21,0,.31.17.31.37s0,1,0,1.74c0,.47,0,1,0,1.22s-.21.24-.38.24c-4.55-.31-7.2-.34-9.79-.34-7.65,0-9.89.14-12.88.34-.2,0-.44-.07-.44-.31s0-1,0-1.49c0-1.29,0-1.77.34-1.77h.14c4.15.27,6.76.37,9.11.37,0-1.83.1-5.71.1-9s-.07-6.35-.1-7.71c-1.56,0-3.54.1-6.39.3h-.07c-.17,0-.37-.06-.37-.3a13.33,13.33,0,0,1,0-1.4c0-1.73.07-1.73.48-1.73,4.08.31,6.19.34,8.09.34a92.63,92.63,0,0,0,9.55-.34c.41,0,.41.34.41,2,0,1.26-.07,1.39-.41,1.39-3.53-.23-5.16-.3-6.9-.34v0c0,.2-.2.41-.47.58s-.24.27-.24.61c0,1.7-.07,4.11-.07,6.59,0,3.2.07,7.11.1,8.94,2.59,0,5.17-.06,9.89-.37Z"/><path d="M191.07,79c0,.31-.14.34-.41.34s-1.15.07-1.83.07c-1.47,0-1.6-.07-1.6-.41v-.07l.1-1.7c-1.22,0-3.26-.07-5.81-.07-3,0-5.54,0-6.87.07-1.19,9.25-6.8,13-7.41,13a.54.54,0,0,1-.34-.13,15.13,15.13,0,0,0-3.37-1.46c-.2-.07-.27-.14-.27-.21s.07-.13.27-.24c6.49-3.09,7.92-9.65,7.92-14.92a34.67,34.67,0,0,0-.51-5.78.93.93,0,0,1,0-.27c0-.14.07-.17.24-.17h.24c3.56.24,5.5.27,7.3.27,7.18,0,8.23,0,11.87-.24.27,0,.41.07.41.38v.1c-.14,1.43-.21,3.43-.21,5.5a43.67,43.67,0,0,0,.31,5.75ZM194,61.13c.28,0,.34.07.34,2.11,0,1.29-.06,1.6-.37,1.6-6.87-.38-9.32-.38-13.19-.38-5.68,0-8.57.14-12.65.38-.41,0-.44-.24-.44-1.87,0-1.84,0-1.84.27-1.84h.17c6.09.31,8.13.34,11,.34,5.65,0,8.54,0,14.83-.34Zm-6.56,9.18s-1.09-.1-3.7-.1c-.68,0-1.43,0-2.28,0l-6.67.07s0,1.94,0,3.84c1.43,0,3.91.07,6.59.07s4.76,0,6-.07Z"/><path d="M211,82.75c0,.34-.1.58-1.7.58-.92,0-1.63,0-1.63-.47v-.07c0-.65,0-1.5.07-2.42-.38,0-1-.06-1.47-.06s-1.18,0-1.56.06c0,1.53,0,3,.07,4.36,0,.57-.07.61-1.7.61s-1.73-.21-1.73-.55v-.1c.3-4.66.37-9.76.37-12.54,0-3.51-.07-6.26-.2-9.05,0-.13,0-.2,0-.3s.07-.21.24-.21.17,0,.27,0c1.09.1,2.59.17,4.32.17s2-.07,4.21-.21c.38,0,.45.14.45.48-.24,2.69-.24,5.81-.24,8.74,0,2.55.07,8,.27,10.74ZM206.2,65.42c-.95,0-1.53,0-1.53,0s-.07,2.11-.07,4.52c.41,0,1.09,0,1.6,0s1.23,0,1.6,0c0-2.17-.1-4.52-.1-4.52s-.34,0-1,0Zm1.6,7.31c-.37,0-1,0-1.57,0s-1.25,0-1.63,0c0,1.32,0,3,0,4.86.41,0,1.05,0,1.56,0s1.16,0,1.53,0C207.77,75.75,207.8,74,207.8,72.73Zm21.82.16c-3.77-.37-7.31-.4-9.45-.4s-3.91.07-8.36.34c-.34,0-.41-.1-.41-1.57s0-1.63.41-1.63c3.33.27,5.07.34,6.83.34V67.29c-1.53,0-3,.06-5.47.2-.31,0-.37,0-.37-1.46s.06-1.53.44-1.53c2.38.2,3.91.2,5.34.2v-.34a28.2,28.2,0,0,0-.48-5v-.17c0-.17,0-.21.24-.21.54,0,4.35.41,4.35,1.13,0,.27-.31.61-.51,1-.37.71-.34.64-.48,2.85a4.94,4.94,0,0,0,0,.68c1.29,0,2.58-.07,5.2-.24.17,0,.41,0,.41,1.57a6.7,6.7,0,0,1-.07,1.26c0,.13-.2.2-.31.2h0c-2.55-.14-3.74-.17-5.23-.2V70c2.1,0,4.86-.17,8-.41.24,0,.38.24.38,1.67,0,.54,0,1.09-.07,1.43,0,.13-.17.23-.27.23Zm-4.59,13c0,2-1.12,4.25-5.09,4.25q-.31,0-.51-.51c-.65-1.53-1.84-2.07-2.66-3-.1-.11-.17-.17-.17-.24s0-.07.14-.07a1.39,1.39,0,0,0,.17,0,19.72,19.72,0,0,0,2.75.28c1.3,0,2-.34,2-1.33.07-1.33.07-4,.07-5.54v-2h-1.46c-2.18,0-3.94.06-8.33.34a.33.33,0,0,1-.34-.31c0-.27,0-.78,0-1.33,0-1.63,0-1.63.37-1.63,4.22.34,6,.34,8.33.34h1.36a14.14,14.14,0,0,0-.27-2c0-.07,0-.1,0-.13s.11-.21.28-.21,4,.34,4,1a.86.86,0,0,1-.27.54c-.31.41-.41.41-.44.75,1.39-.07,3-.17,4.62-.3h0c.2,0,.34.27.34,1.69,0,.55,0,1.13-.07,1.47a.33.33,0,0,1-.27.23h0c-1.66-.17-3.26-.27-4.69-.3v2.92c0,1.84.17,3,.2,4.93Zm-7.51-1.49c-.07,0-.13-.07-.2-.14a19.19,19.19,0,0,0-4.25-3.64c-.1-.07-.14-.1-.14-.17,0-.37,1.5-1.36,1.84-1.56a.28.28,0,0,1,.17-.1.39.39,0,0,1,.17.06,17.17,17.17,0,0,1,4.45,2.89.29.29,0,0,1,.1.21,14.63,14.63,0,0,1-2,2.38C217.62,84.35,217.59,84.39,217.52,84.39Z"/><path d="M238.77,89.31c.51-4.58.75-12,.89-17.57-.31.37-3.81,4.72-4.56,4.72a.45.45,0,0,1-.27-.06A9.46,9.46,0,0,0,232,75.34c-.2,0-.34-.1-.34-.17s.07-.13.17-.2c5.85-4.15,10.51-12,10.92-14.28,0-.14.06-.2.17-.2.57,0,4,1.46,4,2.1,0,.24-.27.48-.78.68s-.68.14-1,.68a39.91,39.91,0,0,1-2.31,3.57c.24.07.41.17.54.21a.42.42,0,0,1,.34.41,1.06,1.06,0,0,1-.34.64,2.12,2.12,0,0,0-.51,1.63c-.13,4.22-.3,9.76-.3,14.28,0,1.77,0,3.37.1,4.69,0,.17-.1.34-1.94.34-1.6,0-1.94,0-1.94-.34ZM262.3,71.13c0,.13-.24.27-.34.27-5.1.37-5.85.44-8.84.88l-.71.11c2,10.13,7.61,12.91,8.29,12.91s1.6-1,1.84-3.8c0-.21.07-.28.17-.28s.13.07.2.17a12.07,12.07,0,0,0,2.72,2.76.52.52,0,0,1,.24.51c-.92,3-2.55,4.65-4.56,4.65a5.12,5.12,0,0,1-2.72-.91c-5.61-3.54-8.09-9.52-9.35-15.47l-4.86,1h-.1a.41.41,0,0,1-.41-.24A13.43,13.43,0,0,1,243.5,71v-.13c0-.34.17-.41.37-.41,2.14-.13,3.61-.27,4.86-.44-.27-1.73-.47-3.47-.61-5.1s-.27-3-.47-3.91a1.76,1.76,0,0,1-.07-.37.18.18,0,0,1,.2-.21c.07,0,.14,0,.21,0,3.67.44,4.42.57,4.42,1.12a3.34,3.34,0,0,1-.51,1.19,2.62,2.62,0,0,0-.21,1.12A49.33,49.33,0,0,0,252,69.6l.75-.1c3.27-.45,4.08-.62,8.74-1.6h.07a.36.36,0,0,1,.37.3,18.12,18.12,0,0,1,.41,2.89Zm-5.17-3.54A23,23,0,0,0,253,64.77c-.14-.07-.27-.1-.27-.24a5.66,5.66,0,0,1,1.76-2.21c.65,0,4.8,2.31,4.8,2.76s-1.36,2.68-1.8,2.68A.51.51,0,0,1,257.13,67.59Z"/><path d="M282.43,91a.54.54,0,0,1-.41.2.35.35,0,0,1-.21-.06c-4.24-2.28-9.07-8-9.07-16.8,0-11.56,8.87-16.52,9.28-16.52a2.8,2.8,0,0,1,1.39,1.94.51.51,0,0,1-.3.47c-3.64,2.11-6.9,7.69-6.9,14.15,0,6.8,3.26,12.27,6.9,14.41a.51.51,0,0,1,.24.48A3.24,3.24,0,0,1,282.43,91Z"/><path d="M318.74,86c.13,0,.24,0,.24.13a.45.45,0,0,1-.11.24c-.4.55-2.1,1.6-2.72,2.72a.47.47,0,0,1-.5.24,16.17,16.17,0,0,1-9.59-3.74,13.89,13.89,0,0,1-7.55,4.25.63.63,0,0,1-.41-.17c-1-1-2.79-1.29-3.4-1.6-.23-.13-.34-.2-.34-.27s.14-.14.31-.14a13.74,13.74,0,0,0,9.38-4.18,13.73,13.73,0,0,1-1.83-3c-4,5.31-6.57,6.36-6.63,6.36a.52.52,0,0,1-.31-.1,3.67,3.67,0,0,0-1.32-.48c0,1,.06,2,.13,3.1,0,.13-.13.24-.3.27-.35,0-1,.07-1.6.07-1.43,0-1.91,0-1.91-.41.45-4.62.68-9.45.79-14.08-1.6,1.84-3.64,3.78-4.05,3.78a.43.43,0,0,1-.27-.1,10.91,10.91,0,0,0-2.93-1.3c-.17,0-.27-.1-.27-.17s.07-.1.21-.2c5-2.65,9.45-9.28,9.92-10.84.07-.14.11-.21.21-.21s3.5,1.12,3.5,1.87c0,.24-.27.44-.82.61s-.64.11-.95.58-.88,1.33-1.73,2.45c.27.07.47.17.61.2s.34.24.34.45a1,1,0,0,1-.31.61c-.47.51-.47.81-.47,1.6,0,3.77-.14,7-.14,10.06a25.18,25.18,0,0,0,8.43-10l-4.08.58c-.44.1-.78.41-1,.41-.44,0-1.43-2-1.66-3.13a.22.22,0,0,1,0-.13c0-.14.07-.17.21-.17s.13,0,.2,0h.48c1.19,0,3-.1,5-.24l1.09-1.26c-1.77-1.25-4.42-2.61-5.1-3-.14-.07-.2-.14-.2-.21a.29.29,0,0,1,.1-.2c1.08-1.43,1.32-1.77,1.53-1.77s.1,0,.17.07l1.22.61a19.44,19.44,0,0,0,2.45-6.15c0-.17.07-.24.24-.24s3.8.88,3.8,1.67c0,.23-.44.44-.88.78a2.39,2.39,0,0,0-.68.92c-.58,1-1.77,2.92-2.65,4.28l1.73,1.09c1.74-2.21,3.33-4.56,3.64-5.68.07-.17,0-.31.24-.31s3.77,1.43,3.77,2.15c0,.27-.41.4-.88.64a2,2,0,0,0-.92.75c-.85,1.05-3.09,3.57-4.93,5.58l5.68-.58c-.75-.85-1.43-1.46-1.7-1.8-.1-.11-.17-.17-.17-.24A5.59,5.59,0,0,1,310.89,68a20.48,20.48,0,0,1,5.23,5.33.58.58,0,0,1,.07.21c0,.3-1.73,1.36-2.38,1.7a.24.24,0,0,1-.14,0c-.13,0-.23,0-.27-.14a13.53,13.53,0,0,0-.92-1.73l-6.35.82.13.1c.1.1.17.17.17.24s-.13.24-.41.3-.51.14-.64.51l-.34.78h.41c1.36,0,2.89-.1,2.89-.1.57,0,.68-.3,1-.3s2.38,1.09,2.38,1.59c0,.17-.21.34-.55.62s-.4.37-.74,1a29,29,0,0,1-2.45,4.28c2.21,1.57,5.51,2.76,10.4,2.76Zm-22.95-23.8c-.48.17-.64.1-1,.58-3,4.18-6.09,7.27-6.7,7.27a.39.39,0,0,1-.27-.13A10.63,10.63,0,0,0,285,68.71c-.17-.07-.28-.1-.28-.2s.07-.1.21-.17A22.85,22.85,0,0,0,293,59.91c.07-.14.1-.24.17-.24l.1,0c.55.14,3.37,1.23,3.37,1.91C296.61,61.85,296.34,62.05,295.79,62.22ZM304,78.33a9.17,9.17,0,0,0,1.77,3,17.67,17.67,0,0,0,1.63-3Z"/><path d="M346.79,73.47c-5-.24-7.34-.3-10-.34,0,.92,0,2.21,0,3.68,3.5,0,6.22-.07,12.61-.38.34,0,.41.1.41,1.77s-.1,1.7-.41,1.7c-6.15-.27-9.21-.34-12.58-.38.07,3.51.21,7.42.34,10,0,.21-.13.38-2,.38-1.73,0-2,0-2-.44.21-3.34.34-6.87.44-10-3.57,0-6,.11-12.4.38-.45,0-.48-.17-.48-1.74,0-1.73,0-1.73.48-1.73,6.35.31,9.35.38,12.47.38,0-1.47,0-2.73,0-3.68-2.79,0-4.56.1-9.83.34h-.1c-.24,0-.31,0-.31-1.63s0-1.66.41-1.66c5.17.27,7.41.34,9.83.34a76.53,76.53,0,0,0-.55-10.78c0-.07,0-.14,0-.21s.07-.1.14-.1c.23,0,4.75.27,4.75,1.12,0,.34-.4.82-.68,1.6s-.47,4.12-.51,8.37c2.76,0,4.8-.07,10-.34.24,0,.27.1.31.3s0,.82,0,1.4,0,1.12,0,1.39c0,.1-.07.2-.24.2Zm-17.17-3.94c-.1,0-.2-.07-.31-.24a27.06,27.06,0,0,0-4.69-4.59c-.13-.1-.23-.17-.23-.27,0-.34,1.73-1.67,1.93-1.67.45,0,5.88,3.54,5.88,4.32A7.4,7.4,0,0,1,329.62,69.53Zm15.71-3.94c-.58.27-3.44,2.68-5.1,3.84a.38.38,0,0,1-.27.1.18.18,0,0,1-.17-.1A5,5,0,0,0,338,68.34c-.1-.07-.13-.14-.13-.17A.19.19,0,0,1,338,68a28.81,28.81,0,0,0,5.1-5.64c.07-.14.14-.2.24-.2.44,0,3.26,2,3.26,2.72C346.55,65.31,345.8,65.31,345.33,65.59Z"/><path d="M354.44,91.18A.54.54,0,0,1,354,91a3.18,3.18,0,0,1-.91-1.73.6.6,0,0,1,.23-.48c3.64-2.14,6.91-7.61,6.91-14.41,0-6.46-3.27-12-6.91-14.15a.51.51,0,0,1-.3-.47,2.8,2.8,0,0,1,1.39-1.94c.41,0,9.28,5,9.28,16.52,0,8.81-4.82,14.52-9.07,16.8A.35.35,0,0,1,354.44,91.18Z"/><path d="M197.28,12.63a18.55,18.55,0,0,0,9,6.26,5.35,5.35,0,0,0-.9,1.59c-.15.38-.21.55-.38.55a2.24,2.24,0,0,1-.5-.19,25.17,25.17,0,0,1-2.88-1.49v1.53c0,.21,0,.23-.21.23s-.8,0-2.73,0h-1.49v2.35h2.39c2,0,2.73,0,2.86,0s.25,0,.25.23v1.6c0,.21,0,.23-.25.23s-.82-.05-2.86-.05h-2.39V28h5c1.91,0,2.58-.05,2.71-.05s.23,0,.23.23v1.64c0,.21,0,.23-.23.23s-.8,0-2.71,0h-12c-1.93,0-2.6,0-2.73,0s-.23,0-.23-.23V28.14c0-.21,0-.23.23-.23s.8.05,2.73.05h4.74V25.39H192.8c-2,0-2.73.05-2.85.05s-.23,0-.23-.23v-1.6c0-.21,0-.23.23-.23s.82,0,2.85,0h2.12V21.07h-1.34c-1.93,0-2.58,0-2.71,0s-.23,0-.23-.23V19.52A26.41,26.41,0,0,1,188.08,21a1.67,1.67,0,0,1-.52.19c-.15,0-.24-.14-.4-.52a4.51,4.51,0,0,0-1-1.39c3.93-1.78,6.34-3.71,8.13-6.34a6.47,6.47,0,0,0,.79-1.51,15.14,15.14,0,0,1,2.21.44c.27.06.38.17.38.32s-.07.21-.21.31Zm1.38,6.47c1.45,0,2.16,0,2.5,0a18.35,18.35,0,0,1-5-4.72,19.68,19.68,0,0,1-4.83,4.72c.38,0,1.07,0,2.29,0Z"/><path d="M220.46,18.11c-2.06,0-2.75,0-2.88,0s-.23,0-.23-.23V16.3c0-.23,0-.23.23-.23s.82,0,2.88,0h2.12V14.73a22.15,22.15,0,0,0-.15-3,17.52,17.52,0,0,1,2.21.17c.21,0,.34.1.34.2a1.2,1.2,0,0,1-.15.45,6.9,6.9,0,0,0-.13,2.12v1.4h3c2,0,2.75,0,2.9,0s.21,0,.21.23v1.62c0,.21,0,.23-.21.23s-.86,0-2.9,0H225.5a21.27,21.27,0,0,0,5.84,7.18,5.25,5.25,0,0,0-1,1.41c-.15.29-.23.44-.34.44s-.23-.13-.44-.34a20.73,20.73,0,0,1-4.89-7c0,1.89,0,3.76,0,5.39h.48c1.64,0,2.17,0,2.29,0s.23,0,.23.23v1.53c0,.24,0,.26-.23.26s-.65-.05-2.29-.05h-.46c0,2,.07,3.38.07,3.59s0,.24-.24.24h-1.8c-.23,0-.25,0-.25-.24s0-1.61.08-3.59h-.38c-1.64,0-2.16.05-2.29.05s-.23,0-.23-.26V25.33c0-.21,0-.23.23-.23s.65,0,2.29,0h.4c0-1.63.06-3.5.06-5.37a19.54,19.54,0,0,1-4.78,7c-.21.19-.34.32-.44.32s-.19-.13-.34-.4a6.47,6.47,0,0,0-.94-1.24v2c0,2.06,0,3.09,0,3.19s0,.24-.23.24h-1.79c-.19,0-.21,0-.21-.24s0-1.13,0-3.19V22.71c0-.7,0-1.54,0-2.38-.4.53-.8,1.05-1.22,1.54-.15.16-.28.27-.38.27s-.17-.13-.23-.38a5.88,5.88,0,0,0-.72-1.8,18.46,18.46,0,0,0,4-6.83,6.82,6.82,0,0,0,.32-1.49,15.32,15.32,0,0,1,2,.65c.23.11.33.17.33.32s-.06.23-.23.38a1.92,1.92,0,0,0-.42.84,32.89,32.89,0,0,1-1.36,3.06v8.5a19.4,19.4,0,0,0,5.5-7.28Z"/><path d="M247.13,16.64c-2.56.48-4.81.92-7,1.38-.8.19-1,.24-1.33.34a1.21,1.21,0,0,1-.46.17.5.5,0,0,1-.4-.32,14.55,14.55,0,0,1-.77-2.26,31,31,0,0,0,3.33-.36c2.59-.38,7.21-1.07,12.62-1.79.32,0,.42.09.44.24a11.27,11.27,0,0,1,.23,1.84c0,.26-.12.32-.39.32a9.49,9.49,0,0,0-2.57.46c-3.57,1.22-5.35,3.67-5.35,6.19,0,2.71,1.93,4.18,5.58,4.41.34,0,.47.09.47.32a7.79,7.79,0,0,1-.23,1.8c-.07.32-.15.44-.4.44-3.7,0-7.75-2.12-7.75-6.48,0-3,1.49-5,4-6.66Zm4.16,2.27c.1-.09.19-.07.31,0a9.68,9.68,0,0,1,2,2.24.22.22,0,0,1-.07.34l-.88.65a.21.21,0,0,1-.35-.06,10.33,10.33,0,0,0-2.13-2.44Zm1.87-1.37c.12-.08.19-.06.31,0a8.86,8.86,0,0,1,2,2.17.24.24,0,0,1-.07.37l-.84.65a.21.21,0,0,1-.35-.06,10,10,0,0,0-2.1-2.41Z"/><path d="M275.27,18.7a6.91,6.91,0,0,0,0-1.43,9.06,9.06,0,0,1,2.43.9.4.4,0,0,1,.15.57,3.52,3.52,0,0,0-.33.82c-.17.88-.38,1.8-.59,2.71a23.15,23.15,0,0,1,3.27,2c.21.13.19.23.13.44a18,18,0,0,1-.9,1.81c-.07.1-.13.15-.19.15a.4.4,0,0,1-.25-.15,17.37,17.37,0,0,0-2.76-2A12.88,12.88,0,0,1,272,30.08c-.19.14-.29.23-.42.23a.56.56,0,0,1-.31-.15,4.36,4.36,0,0,0-1.83-.86,11.6,11.6,0,0,0,4.71-5.69A14.19,14.19,0,0,0,270,22.33a14.51,14.51,0,0,1-2.56,4.2,3.45,3.45,0,0,1-2.69,1.15c-1.22,0-2.5-.84-2.5-2.87,0-2.61,2.69-4.64,6.19-4.64.7-1.75,1.22-3.22,1.75-5l-2.9.34a4.21,4.21,0,0,0-.95.23,1.11,1.11,0,0,1-.37.08.34.34,0,0,1-.34-.23,12.64,12.64,0,0,1-.61-2.29,7.69,7.69,0,0,0,1.85.13,24.5,24.5,0,0,0,3.25-.27,2.44,2.44,0,0,0,1-.36.51.51,0,0,1,.28-.09.5.5,0,0,1,.29.09A7,7,0,0,1,273.11,14a.54.54,0,0,1,.19.36c0,.13-.09.23-.21.36a2.78,2.78,0,0,0-.57,1.09c-.55,1.43-1.13,3.06-1.76,4.57a17.4,17.4,0,0,1,4.07,1.06A20.36,20.36,0,0,0,275.27,18.7Zm-11.09,5.85c0,.68.24,1,.74,1a1.69,1.69,0,0,0,1.22-.8,14.93,14.93,0,0,0,1.53-2.56C265.53,22.25,264.18,23.36,264.18,24.55Z"/><path d="M293.21,20.44a6.32,6.32,0,0,1,3.33-1,4.88,4.88,0,0,1,5.21,5c0,3.51-2.83,5.76-7.33,5.76-2.64,0-4.24-1.14-4.24-3.09a2.78,2.78,0,0,1,3-2.56,3.82,3.82,0,0,1,3.95,3.06,3.15,3.15,0,0,0,2.14-3.19,3.06,3.06,0,0,0-3.29-3.17,8.54,8.54,0,0,0-5.38,2.23c-.61.54-1.2,1.15-1.83,1.78-.14.15-.25.23-.35.23a.5.5,0,0,1-.32-.19A9.35,9.35,0,0,1,286.82,24c-.12-.17-.06-.32.11-.48a51.66,51.66,0,0,0,5-4.64c1.31-1.35,2.29-2.4,3.26-3.59-1.26.23-2.75.52-4.05.79a7,7,0,0,0-.89.26,1.51,1.51,0,0,1-.42.1c-.21,0-.35-.1-.46-.36a10,10,0,0,1-.73-2.26,10.59,10.59,0,0,0,1.95,0c1.28-.13,3.13-.4,4.77-.71a6.25,6.25,0,0,0,1.15-.32,1.15,1.15,0,0,1,.4-.17.76.76,0,0,1,.48.17,8,8,0,0,1,1.41,1.34.73.73,0,0,1,.23.51.55.55,0,0,1-.36.5,3.71,3.71,0,0,0-.92.67c-1.53,1.49-2.94,3-4.54,4.5Zm0,6c-.61,0-1,.36-1,.8,0,.65.57,1.09,1.83,1.09a4.78,4.78,0,0,0,1-.08C294.74,27.07,294.11,26.42,293.23,26.42Z"/><circle class="cls-3" cx="54.61" cy="72.03" r="52.46"/><path class="cls-4" d="M91.54,89.28l-.7-.42c-.78-.47-1.55-1-2.3-1.48l-.31-.21c-.82-.58-1.62-1.19-2.4-1.81l-.64-.53q-1-.8-1.86-1.62l-.48-.43c-.71-.67-1.39-1.36-2.06-2.08-.2-.21-.39-.42-.58-.64-.52-.56-1-1.14-1.5-1.72-.18-.22-.37-.43-.54-.65-.6-.75-1.18-1.51-1.74-2.29l-.51-.75c-.41-.6-.81-1.21-1.2-1.82-.18-.29-.36-.57-.53-.86-.49-.81-1-1.63-1.41-2.47-.15-.27-.28-.55-.43-.82-.32-.64-.64-1.28-.95-1.94-.16-.34-.32-.67-.47-1-.38-.86-.75-1.73-1.1-2.61v0h0a66.37,66.37,0,0,1-4.13-17.75H43.52a65.06,65.06,0,0,1-5.24,20.4c-.15.34-.31.67-.46,1-.31.66-.64,1.32-1,2l-.41.78C36,70.33,35.52,71.16,35,72c-.17.28-.34.56-.52.84-.39.62-.8,1.23-1.22,1.84l-.5.73c-.56.78-1.14,1.55-1.74,2.3l-.53.64c-.49.59-1,1.17-1.51,1.74l-.57.63c-.67.71-1.36,1.41-2.07,2.08l-.47.42c-.61.56-1.23,1.1-1.87,1.63l-.63.52c-.78.63-1.58,1.24-2.41,1.82l-.31.21c-.75.51-1.52,1-2.3,1.48l-.7.42c-.89.52-1.8,1-2.73,1.49H94.27C93.34,90.31,92.43,89.8,91.54,89.28ZM46.29,48.44H62.92a67.66,67.66,0,0,0,4.66,17.49l-.94,1.19-6-7.64-6,7.64-6-7.64-6,7.64-.95-1.2A67.7,67.7,0,0,0,46.29,48.44Z"/></g></g></svg>