<svg xmlns="http://www.w3.org/2000/svg" viewBox="0 0 402.07 126.64"><defs><style>.cls-1,.cls-2,.cls-3{fill:#fff;stroke:#000;stroke-miterlimit:10;}.cls-1{stroke-width:4.21px;}.cls-2{stroke-width:4.3px;}.cls-3{stroke-width:4.3px;}</style></defs><title>アセット 199</title><g id="レイヤー_2" data-name="レイヤー 2"><g id="レイヤー_1-2" data-name="レイヤー 1"><polygon class="cls-1" points="399.92 40.55 41.62 40.55 60.35 2.11 399.92 2.11 399.92 40.55"/><rect class="cls-2" x="53.07" y="40.54" width="346.85" height="69.43"/><circle class="cls-3" cx="54.61" cy="72.03" r="52.46"/><path d="M209.44,89.21c.27-4.65.37-8.84.41-12.61-3.54,0-7.55.14-13,.37-.45,0-.45-.1-.45-1.7s0-1.83.45-1.83c4.48.27,7.85.34,10.64.34h2.38V73c0-6,0-6.67,0-8-2.58,0-4.48.1-9.92.31h-.07c-.34,0-.38,0-.38-1.63s.07-1.77.31-1.77h.14c4.28.27,6.29.34,8.09.34,1.09,0,2.1,0,3.5,0,4.32,0,4.18,0,11.39-.31h.07a.37.37,0,0,1,.34.31c0,.27,0,1,0,1.66,0,1.16,0,1.43-.34,1.43h0c-5.34-.21-6.87-.27-9.11-.31a1.15,1.15,0,0,1-.41.44c-.27.21-.27.31-.27.69-.07,2.24-.14,4.75-.14,6.9v.78c3.64,0,7.24-.07,13.5-.34.2,0,.37.1.37.3a13.21,13.21,0,0,1,.07,1.43c0,.61,0,1.26-.07,1.53s-.2.24-.34.24c-6-.24-9.72-.31-13.53-.34.07,4.11.2,9.25.41,12.71,0,.18-.14.28-.34.28a11.22,11.22,0,0,1-1.63.07,12,12,0,0,1-1.67-.07c-.27,0-.34-.1-.34-.28ZM205.67,73.1c-.11,0-.17-.1-.28-.27a26.06,26.06,0,0,0-4.11-5c-.1-.06-.17-.13-.17-.23,0-.31,1.56-1.36,2.14-1.57,0,0,.07,0,.1,0,.51,0,4.93,4.35,4.93,5A7.37,7.37,0,0,1,205.67,73.1Zm15.46-4.39c-.54.34-2.95,3.06-4.48,4.39a.31.31,0,0,1-.24.1.18.18,0,0,1-.17-.07,6.52,6.52,0,0,0-2-1.09c-.14-.06-.17-.1-.17-.13s0-.1.1-.17a30.94,30.94,0,0,0,4.45-5.92c.07-.13.1-.2.21-.2.3,0,3.4,1.56,3.4,2.31C222.26,68.3,221.58,68.41,221.13,68.71Z"/><path d="M285.87,84.69c-.88,3.64-2.11,5-3.64,5-1.32,0-5-1.77-8.12-6.16-4.25,5.27-9.18,6.43-9.35,6.43a.36.36,0,0,1-.31-.14,9.24,9.24,0,0,0-3-2.14c-.28-.17-.38-.27-.38-.34s.17-.1.38-.13a16.68,16.68,0,0,0,10.91-6.6,41.57,41.57,0,0,1-3.57-11.42c-2.65,0-6.94.07-8.13.07,0,1.12.11,2.27.11,3.46.47,0,.95,0,1.39,0,1.73,0,3.37-.1,5.23-.27h.14c.24,0,.31.06.31.27v.1c-.14,1.67.17,5.54-.58,8.26a4.44,4.44,0,0,1-4.73,3.5,5.23,5.23,0,0,1-.68,0c-.34,0-.61,0-.78-.44a7.32,7.32,0,0,0-1.22-2.21c-1.36,4.72-4.63,7.85-5,7.85a.58.58,0,0,1-.38-.13,15.07,15.07,0,0,0-3-.86c-.21,0-.31-.1-.31-.2s.07-.14.17-.24c5.13-3.43,6.32-10,6.32-15.16a35.78,35.78,0,0,0-.61-6.7.93.93,0,0,1,0-.27c0-.13.07-.17.24-.17h.2c2.35.27,7.48.38,10.95.38-.17-1.16-.31-2.28-.41-3.27a34.19,34.19,0,0,0-.58-3.74.93.93,0,0,1,0-.27c0-.24.13-.27.41-.27,3.94.3,4.18.68,4.18,1a5.29,5.29,0,0,1-.45,1.32,5,5,0,0,0-.1,1c0,.67.14,3.6.21,4.25,1.87,0,4.86-.07,9.86-.41a.42.42,0,0,1,.44.34v.91c0,2.18,0,2.32-.41,2.32h0c-4.42-.21-7.48-.34-9.56-.38a30.65,30.65,0,0,0,2.31,8.43A19.19,19.19,0,0,0,275.94,72c0-.21,0-.38.21-.38s4.18,1.46,4.18,2.18c0,.37-.51.71-.92,1a3.12,3.12,0,0,0-1.05,1.57A35.1,35.1,0,0,1,276,80.88c2.14,3.13,5,4.76,5.51,4.76,1,0,1.09-2,1.26-3.74,0-.2.06-.27.13-.27a.43.43,0,0,1,.24.14,10.69,10.69,0,0,0,2.45,2.34.51.51,0,0,1,.27.48Zm-23.59-3.36c1.08,0,2.21-.38,2.21-4.66a10.58,10.58,0,0,0,0-1.16s-1.56,0-3.7,0a28.65,28.65,0,0,1-.68,5.57A10.28,10.28,0,0,0,262.28,81.33Zm14.55-15.4a.51.51,0,0,1-.34-.18,24.83,24.83,0,0,0-4.19-2.82c-.13-.07-.27-.1-.27-.23,0-.34,1.26-1.7,1.46-1.87,0,0,.07-.14.21-.14.44,0,5,1.8,5,2.48a1.21,1.21,0,0,1-.07.34,13.2,13.2,0,0,1-1.49,2.24A.48.48,0,0,1,276.83,65.93Z"/><path d="M31.05,80.86H78.16a3.26,3.26,0,0,0,3.26-3.25V49.88a3.26,3.26,0,0,0-3.26-3.25H31.05a3.25,3.25,0,0,0-3.25,3.25V77.61A3.25,3.25,0,0,0,31.05,80.86Zm1.72-29.24H76.44v24.1H32.77Z"/><path d="M88.61,92.14l-6.45-7.59A2.53,2.53,0,0,0,80.52,84H28.7a2.56,2.56,0,0,0-1.65.57L20.6,92.14a1.73,1.73,0,0,0-.54,1.11v2a1,1,0,0,0,1.09.84H88.06a1,1,0,0,0,1.09-.84v-2C89.15,92.84,89,92.61,88.61,92.14ZM47.2,92.2l1.87-4.38H60.91l1.87,4.38Z"/><path d="M194.5,13.35a18.58,18.58,0,0,0,9,6.26,5.5,5.5,0,0,0-.91,1.59c-.14.38-.21.55-.38.55a2.24,2.24,0,0,1-.5-.19,23.53,23.53,0,0,1-2.87-1.49V21.6c0,.21,0,.23-.21.23s-.8,0-2.73,0h-1.5v2.35h2.4c2,0,2.73,0,2.85,0s.26,0,.26.23v1.6c0,.21,0,.23-.26.23s-.81,0-2.85,0h-2.4v2.56h5c1.91,0,2.58,0,2.71,0s.23,0,.23.23V30.5c0,.21,0,.24-.23.24s-.8,0-2.71,0h-12c-1.93,0-2.6,0-2.73,0s-.23,0-.23-.24V28.87c0-.21,0-.23.23-.23s.8,0,2.73,0h4.75V26.12H190c-2,0-2.73,0-2.86,0s-.23,0-.23-.23v-1.6c0-.21,0-.23.23-.23s.82,0,2.86,0h2.12V21.79H190.8c-1.93,0-2.58,0-2.7,0s-.23,0-.23-.23V20.24a27.61,27.61,0,0,1-2.57,1.45,2,2,0,0,1-.52.19c-.15,0-.23-.15-.4-.53a4.35,4.35,0,0,0-1-1.39c3.93-1.78,6.34-3.71,8.13-6.34a6.53,6.53,0,0,0,.8-1.51,15.26,15.26,0,0,1,2.2.44c.27.07.38.17.38.32s-.06.21-.21.31Zm1.39,6.47c1.44,0,2.16,0,2.49,0a18.68,18.68,0,0,1-5-4.73,20,20,0,0,1-4.82,4.73c.37,0,1.07,0,2.28,0Z"/><path d="M217.68,18.83c-2.05,0-2.75,0-2.87,0s-.23,0-.23-.23V17c0-.24,0-.24.23-.24s.82,0,2.87,0h2.12V15.45a24.34,24.34,0,0,0-.14-3,17.5,17.5,0,0,1,2.2.17c.21,0,.34.1.34.21a1.21,1.21,0,0,1-.15.44,7.52,7.52,0,0,0-.12,2.12v1.41h3c2,0,2.75,0,2.89,0s.21,0,.21.24v1.61c0,.21,0,.23-.21.23s-.86,0-2.89,0h-2.19A21.39,21.39,0,0,0,228.56,26a5.25,5.25,0,0,0-1,1.41c-.15.29-.23.44-.33.44s-.24-.13-.45-.34a20.87,20.87,0,0,1-4.89-7c0,1.89,0,3.76,0,5.39h.49c1.64,0,2.16,0,2.29,0s.23,0,.23.23v1.54c0,.23,0,.25-.23.25s-.65,0-2.29,0h-.46c0,2,.06,3.38.06,3.59s0,.23-.23.23H220c-.23,0-.25,0-.25-.23s0-1.62.08-3.59h-.37c-1.64,0-2.17,0-2.29,0s-.23,0-.23-.25V26.05c0-.21,0-.23.23-.23s.65,0,2.29,0h.39c0-1.63.07-3.5.07-5.37a19.69,19.69,0,0,1-4.79,7c-.21.19-.34.32-.44.32s-.19-.13-.34-.4a6.8,6.8,0,0,0-.94-1.24v2c0,2.05,0,3.08,0,3.19s0,.23-.23.23h-1.78c-.19,0-.21,0-.21-.23s0-1.14,0-3.19V23.43c0-.69,0-1.53,0-2.37-.4.52-.8,1.05-1.22,1.53-.15.17-.27.27-.38.27s-.17-.12-.23-.38a6.14,6.14,0,0,0-.71-1.8,18.74,18.74,0,0,0,4-6.83,7.44,7.44,0,0,0,.31-1.49,14.87,14.87,0,0,1,2,.65c.23.11.33.17.33.32s-.06.23-.23.38a2,2,0,0,0-.42.84,28.56,28.56,0,0,1-1.36,3.06v8.51a19.52,19.52,0,0,0,5.5-7.29Z"/><path d="M244.35,17.36c-2.56.48-4.8.92-7,1.39-.8.19-1,.23-1.32.33a1.16,1.16,0,0,1-.47.17.49.49,0,0,1-.39-.31,13.94,13.94,0,0,1-.78-2.27,29,29,0,0,0,3.34-.36c2.58-.38,7.2-1.07,12.62-1.78.31,0,.42.08.44.23a12.46,12.46,0,0,1,.23,1.85c0,.25-.13.31-.4.31a9.35,9.35,0,0,0-2.56.46c-3.57,1.22-5.36,3.68-5.36,6.2,0,2.7,1.93,4.17,5.59,4.41.33,0,.46.08.46.31a7.36,7.36,0,0,1-.23,1.81c-.06.31-.15.44-.4.44-3.7,0-7.75-2.12-7.75-6.49,0-3,1.49-5,4-6.66Zm4.16,2.27c.11-.09.19-.06.32,0a9.52,9.52,0,0,1,2,2.25.21.21,0,0,1-.06.33l-.88.65a.22.22,0,0,1-.36-.06,10.44,10.44,0,0,0-2.12-2.43Zm1.87-1.37c.13-.08.19-.06.31,0a8.47,8.47,0,0,1,2,2.16.25.25,0,0,1-.06.38l-.84.65a.22.22,0,0,1-.36-.07,10,10,0,0,0-2.1-2.41Z"/><path d="M272.49,19.42a5.76,5.76,0,0,0,0-1.43,9.29,9.29,0,0,1,2.44.9.39.39,0,0,1,.14.57,3.52,3.52,0,0,0-.33.82c-.17.88-.38,1.8-.59,2.71a25.35,25.35,0,0,1,3.28,2c.21.13.19.24.12.44a18,18,0,0,1-.9,1.81c-.06.11-.13.15-.19.15a.42.42,0,0,1-.25-.15,17,17,0,0,0-2.75-2,13,13,0,0,1-4.24,5.52c-.19.15-.3.23-.42.23a.55.55,0,0,1-.32-.15,4.32,4.32,0,0,0-1.82-.86,11.59,11.59,0,0,0,4.7-5.69,14.19,14.19,0,0,0-4.16-1.28,14.51,14.51,0,0,1-2.56,4.2,3.46,3.46,0,0,1-2.69,1.16c-1.22,0-2.5-.84-2.5-2.88,0-2.61,2.69-4.64,6.2-4.64.69-1.74,1.22-3.21,1.74-5l-2.9.34a4,4,0,0,0-.94.23,1.17,1.17,0,0,1-.38.08.35.35,0,0,1-.34-.23A12.64,12.64,0,0,1,262.2,14a7.69,7.69,0,0,0,1.85.13,23.18,23.18,0,0,0,3.26-.27,2.55,2.55,0,0,0,1-.36.47.47,0,0,1,.27-.08.49.49,0,0,1,.29.08,6.74,6.74,0,0,1,1.43,1.15.51.51,0,0,1,.19.36c0,.13-.08.23-.21.36a2.78,2.78,0,0,0-.57,1.09c-.54,1.43-1.13,3.07-1.76,4.58a16.87,16.87,0,0,1,4.07,1.05A20.36,20.36,0,0,0,272.49,19.42Zm-11.08,5.86c0,.67.23,1,.73,1a1.69,1.69,0,0,0,1.22-.8,13.62,13.62,0,0,0,1.53-2.56C262.75,23,261.41,24.08,261.41,25.28Z"/><path d="M290.43,21.16a6.31,6.31,0,0,1,3.34-.94,4.87,4.87,0,0,1,5.2,5c0,3.5-2.83,5.75-7.32,5.75-2.65,0-4.24-1.14-4.24-3.09a2.79,2.79,0,0,1,3-2.56,3.81,3.81,0,0,1,3.94,3.07,3.17,3.17,0,0,0,2.14-3.19,3.06,3.06,0,0,0-3.29-3.18,8.56,8.56,0,0,0-5.38,2.23c-.61.55-1.19,1.15-1.82,1.78-.15.15-.26.24-.36.24a.54.54,0,0,1-.31-.19,8.83,8.83,0,0,1-1.24-1.37c-.13-.17-.07-.31.1-.48a50.43,50.43,0,0,0,5-4.64c1.3-1.35,2.29-2.39,3.25-3.59-1.26.23-2.75.52-4.05.8a5.46,5.46,0,0,0-.88.25,1.7,1.7,0,0,1-.42.1.47.47,0,0,1-.46-.35,9.5,9.5,0,0,1-.74-2.27,10.59,10.59,0,0,0,1.95,0c1.28-.12,3.13-.4,4.77-.71a5.53,5.53,0,0,0,1.15-.32,1.23,1.23,0,0,1,.4-.17.81.81,0,0,1,.49.17,7.93,7.93,0,0,1,1.4,1.35.69.69,0,0,1,.23.5.54.54,0,0,1-.35.5,3.4,3.4,0,0,0-.93.68c-1.53,1.49-2.94,3-4.53,4.49Zm0,6c-.61,0-1,.35-1,.79,0,.65.57,1.09,1.83,1.09a4.72,4.72,0,0,0,1-.08C292,27.8,291.33,27.15,290.45,27.15Z"/></g></g></svg>