<svg xmlns="http://www.w3.org/2000/svg" viewBox="0 0 402.07 126.64"><defs><style>.cls-1,.cls-2,.cls-3{fill:#fff;stroke:#000;stroke-miterlimit:10;}.cls-1{stroke-width:4.21px;}.cls-2{stroke-width:4.3px;}.cls-3{stroke-width:4.3px;}</style></defs><title>アセット 192</title><g id="レイヤー_2" data-name="レイヤー 2"><g id="レイヤー_1-2" data-name="レイヤー 1"><polygon class="cls-1" points="399.92 40.55 41.62 40.55 60.35 2.11 399.92 2.11 399.92 40.55"/><rect class="cls-2" x="53.07" y="40.54" width="346.85" height="69.43"/><circle class="cls-3" cx="54.61" cy="72.03" r="52.46"/><path d="M201.92,79.9c0,.1,0,.31-1.53.31-1.25,0-1.25-.14-1.25-.38a6.2,6.2,0,0,1,0-.71H198a25.13,25.13,0,0,0,9.11,7.61c.2.07.27.17.27.24s-.17.2-.41.27a12.51,12.51,0,0,0-2.85,1.5.56.56,0,0,1-.28.1c-.5,0-3.94-2.92-6.22-6.7.11,2.55.24,5.31.41,7.45,0,.17-.1.24-.27.27-.34,0-.82.07-1.26.07-1.46,0-1.53-.14-1.53-.41.24-4,.27-7.65.27-10.44-.47,0-1,0-1.76,0,.06,3.13.17,7.48.34,10.47,0,.17-.11.24-.28.27-.34,0-.81.07-1.25.07-1.36,0-1.57,0-1.57-.41.17-2.45.31-4.83.41-7a21.26,21.26,0,0,1-8.46,7.31.94.94,0,0,1-.45-.21,9,9,0,0,0-2.68-1.29c-.14-.07-.24-.14-.24-.24s.07-.13.2-.2a22.09,22.09,0,0,0,11.39-8.74c-1.05,0-2.21.07-3.33.14a.31.31,0,0,1-.27-.21c0-.27,0-.71,0-1.12s0-.88,0-1.09.13-.3.24-.3c1.36.1,2.58.17,3.7.2V75.24c-1,0-2.17.14-4.32.24-.23,0-.27-.07-.27-.31s0-.68,0-1.08,0-.85,0-1.09.1-.31.14-.31h.17c2.14.14,3.33.21,4.28.24V71.47c-1.15,0-2.38.1-3.43.2-.14,0-.24-.07-.24-.27s-.07-.82-.07-1.29,0-.68,0-.89.2-.3.34-.3c1.05.1,2.21.2,3.29.24a14.34,14.34,0,0,0-.13-1.57c-.92,0-2,.1-3.71.24h-.07a.24.24,0,0,1-.27-.24,7.46,7.46,0,0,0-1.8.92l-.14.1a6.61,6.61,0,0,1,0,1,8.48,8.48,0,0,1,0,1.09.36.36,0,0,1-.2.24c-.85-.1-1.46-.17-2-.21A.27.27,0,0,1,183,71c0,.13-.1.27-.31.41a.63.63,0,0,0-.2.54c0,.41,0,.92,0,1.46.72,0,1.53-.07,3.2-.24h0c.11,0,.21.14.24.31a8.48,8.48,0,0,1,0,1.09,9,9,0,0,1,0,1.12.31.31,0,0,1-.27.24c-1.53-.14-2.48-.21-3.23-.24v3.7a11.25,11.25,0,0,0,2-3c0-.13.07-.17.14-.17.3,0,2.38,1.19,2.38,1.7,0,.24-.31.34-.58.48-.1.07-.24.24-.48.44-2.31,2-2.31,2-2.38,2s-.23-.13-.37-.2l-.68-.27v1.87c2.18-.79,4-1.5,4.66-1.77a1.2,1.2,0,0,1,.27-.07.13.13,0,0,1,.14.14s0,.07,0,.13a7.31,7.31,0,0,0-.24,1.64v.17c0,.2,0,.4-.4.54s-9.9,4.32-10.51,4.66c-.44.27-.68.71-1,.71-.51,0-2.11-2.82-2.11-3.09s.17-.17.37-.21a57.66,57.66,0,0,0,6.36-2c0-.61,0-1.43,0-2.38a10.84,10.84,0,0,1-1.25,1.12.45.45,0,0,1-.24.1c-.07,0-.14-.06-.21-.23a13.22,13.22,0,0,0-3-3.33c-.07-.07-.17-.14-.17-.24s1-1,1.4-1.23a.29.29,0,0,1,.2-.1,11.51,11.51,0,0,1,3.3,2.52V75.65c-.92,0-2.14.07-4.05.24a.29.29,0,0,1-.3-.27,6.65,6.65,0,0,1,0-1,9.56,9.56,0,0,1,0-1.22c0-.24.1-.31.2-.31h.1a35.33,35.33,0,0,0,4,.24c0-1.32-.06-2.31-.1-2.65a22.7,22.7,0,0,0-2.38.2c-.07,0-.2-.06-.24-.27s0-.27,0-.47c-1,1.08-1.73,1.76-2.11,1.76a.36.36,0,0,1-.24-.1,6.75,6.75,0,0,0-2.55-1.15c-.1,0-.17-.11-.17-.17a.26.26,0,0,1,.14-.21c4.28-2.31,7.65-8.91,8-10.26,0-.14.11-.17.21-.17h.1c.44.06,3,.5,3,1.12,0,.2-.21.4-.58.61l-.2.17a18.88,18.88,0,0,0,4.07,4.59,10.14,10.14,0,0,1,.07-1.09c0-.27.07-.34.21-.34h.13c1.74.14,2.93.24,3.84.27,0,0,0,0,0-.07a16.12,16.12,0,0,0-2.65-4c-.07-.1-.14-.17-.14-.24a11.9,11.9,0,0,1,2.45-1.22,14,14,0,0,1,3.2,3.74.56.56,0,0,1,.06.2c0,.24-.88.82-2.31,1.64h3A32.55,32.55,0,0,0,197.17,60c.1-.27.1-.38.23-.38.45,0,3.34,1.33,3.34,1.8,0,.24-.31.41-.68.65a3.78,3.78,0,0,0-.86.88l-1.73,2.32c1.7,0,3.71-.11,6.26-.34a.31.31,0,0,1,.3.34,7.93,7.93,0,0,1,.07,1.15,9.39,9.39,0,0,1-.07,1.19.25.25,0,0,1-.24.24h-.06c-2.11-.14-3.91-.24-5.48-.27-.1.17-.3.3-.37.41a2.77,2.77,0,0,0-.24,1.25c1.23,0,2.75-.1,4-.23h.13c.11,0,.17,0,.17.13a.4.4,0,0,1,0,.17,32.14,32.14,0,0,0-.2,3.64c1.08,0,2.31-.1,3.77-.24h.07c.17,0,.17.1.2.27a9.78,9.78,0,0,1,0,1.16,9.24,9.24,0,0,1,0,1.12.26.26,0,0,1-.27.24l-3.74-.2c0,1.63.1,3.4.2,4.55ZM178.71,68.41a13.65,13.65,0,0,0,1.8.1,34,34,0,0,0,3.91-.2,17.35,17.35,0,0,1-3-4.12A32.4,32.4,0,0,1,178.71,68.41Zm16.48,3h-1.73c0,.48,0,1,0,1.56h1.76Zm0,3.74h-1.76v1.7h1.76Zm-.06-5.92c0-.64-.07-1.19-.14-1.7h-.68a1.29,1.29,0,0,1-.48.48,2.83,2.83,0,0,0-.23,1.22Zm2.41,2.15L197.47,73h1.77c0-.65,0-1.23,0-1.63Zm1.66,5.47c0-.58,0-1.12,0-1.63-.61,0-1.19,0-1.77,0v1.67Z"/><path d="M232.7,89.66c0,.3-.14.4-2,.4-1.22,0-1.46-.06-1.46-.47l.07-1.5-4.15,0-5.51,0,.07,1.5v.13c0,.31-.1.41-1.73.41s-1.74-.07-1.74-.47v-.11a38.26,38.26,0,0,0,.31-4.52c0-.81,0-1.53-.1-2.34a13.64,13.64,0,0,1-6.6,6.86.4.4,0,0,1-.3-.13,7.82,7.82,0,0,0-3.13-1.33c-.24-.07-.37-.17-.37-.27s.1-.14.23-.2c7.45-3,8.77-8.84,8.77-13.57,0-.92,0-1.77-.1-2.55-.91.72-3.33,2.45-3.87,2.45a.32.32,0,0,1-.31-.14,10.74,10.74,0,0,0-3.23-1.66c-.37-.14-.51-.24-.51-.34s.24-.17.48-.27c8.23-3.13,14.07-10.14,14.65-12.21.07-.2.1-.34.31-.34,0,0,3.77,1.06,3.77,1.9,0,.28-.37.51-.75.65,2.62,2.82,8.23,6.46,14.31,8.3.28.06.41.17.41.27s-.13.24-.37.37c-1,.58-2.38,1-3.13,1.91a.59.59,0,0,1-.47.23,35.69,35.69,0,0,1-8-5,10.66,10.66,0,0,1-.07,1.26c0,.13-.23.2-.3.2-2.21-.17-2.69-.2-4.12-.2a43.74,43.74,0,0,0-4.59.2.3.3,0,0,1-.3-.27,2,2,0,0,1,0-.54c-.68.64-1.46,1.32-2.31,2,2.38.14,4.8.17,7.21.17s5.1-.1,7.55-.24h.1c.24,0,.34.11.34.24v.07a23.61,23.61,0,0,0-.17,3.2,56.94,56.94,0,0,0,.27,6.32v0c0,.28-.27.41-.47.45-.38,0-.85,0-1.33,0-1.63,0-1.7-.1-1.7-.41v0c0-.1,0-.21,0-.34-1.59,0-3.87,0-4.62,0-.92,0-4.49,0-6.19.07-.13.44-.27.92-.44,1.36,1.7.1,6.32.14,8.16.14s4.59-.07,6.94-.17h.1c.3,0,.37.13.37.4a33.79,33.79,0,0,0-.2,3.64c0,.78,0,1.84.24,4.22ZM218,77.66l5.68,0c.68,0,3.09,0,4.72,0,0-.62,0-1,0-1.47-1.6,0-3.95,0-4.73,0l-5.54,0Zm8.84-5c-6.39,0-8.16,0-8.57,0V74c1.87,0,4.69,0,5.41,0s3.12,0,4.76,0c0-.68-.07-1.16-.07-1.33Zm2.51,12.24c0-.71,0-1.16,0-1.16s-1.87,0-3.26,0h-.92l-5.44,0a11.59,11.59,0,0,0,0,1.23v.54l5.48,0,4.21,0Zm-8.73-18.36c.85.07,1.46.07,2,.07.23,0,2.68,0,4.14-.1a30,30,0,0,1-3.29-3.2C222.84,64.12,221.92,65.25,220.63,66.57Z"/><path d="M253.78,82.76c0,.33-.11.57-1.7.57-.92,0-1.64,0-1.64-.47v-.07c0-.65,0-1.5.07-2.41-.37,0-.95-.07-1.46-.07s-1.19,0-1.56.07c0,1.52,0,3,.07,4.35,0,.57-.07.61-1.7.61s-1.74-.21-1.74-.55v-.1c.31-4.65.38-9.75.38-12.54,0-3.5-.07-6.26-.21-9.05,0-.13,0-.2,0-.3s.07-.21.24-.21.17,0,.27,0c1.09.1,2.58.17,4.31.17s2-.07,4.22-.21c.37,0,.44.14.44.48-.24,2.69-.24,5.81-.24,8.74,0,2.55.07,8.06.28,10.74ZM249,65.42c-1,0-1.53,0-1.53,0s-.07,2.11-.07,4.52c.41,0,1.09,0,1.6,0s1.22,0,1.6,0c0-2.17-.11-4.52-.11-4.52s-.34,0-1,0Zm1.6,7.31c-.38,0-1,0-1.57,0s-1.26,0-1.63,0c0,1.32,0,3,0,4.86.41,0,1.06,0,1.57,0s1.15,0,1.53,0C250.58,75.75,250.62,74,250.62,72.73Zm21.82.17c-3.77-.38-7.31-.41-9.45-.41s-3.91.07-8.36.34c-.34,0-.41-.1-.41-1.57s0-1.63.41-1.63c3.33.27,5.06.34,6.83.34V67.29c-1.53,0-3,.06-5.47.2-.31,0-.38,0-.38-1.46s.07-1.53.44-1.53c2.38.2,3.91.2,5.34.2v-.34a27.37,27.37,0,0,0-.47-5v-.17c0-.17,0-.2.23-.2.55,0,4.36.4,4.36,1.12,0,.27-.31.61-.51,1-.38.71-.34.64-.48,2.85a5,5,0,0,0,0,.68c1.29,0,2.58-.07,5.2-.23.17,0,.41,0,.41,1.56a6.7,6.7,0,0,1-.07,1.26c0,.13-.21.2-.31.2h0c-2.55-.14-3.74-.17-5.24-.2V70c2.11,0,4.86-.17,8-.41.24,0,.37.24.37,1.67,0,.54,0,1.09-.06,1.43,0,.13-.17.24-.28.24Zm-4.59,13c0,2-1.12,4.25-5.1,4.25q-.3,0-.51-.51c-.64-1.53-1.83-2.07-2.65-3-.1-.11-.17-.17-.17-.24s0-.07.14-.07a1.39,1.39,0,0,0,.17,0,19.72,19.72,0,0,0,2.75.28c1.29,0,2-.34,2-1.33.07-1.33.07-4,.07-5.54v-2h-1.46c-2.18,0-3.95.07-8.33.34a.32.32,0,0,1-.34-.31c0-.27,0-.78,0-1.32,0-1.64,0-1.64.38-1.64,4.21.34,5.95.34,8.33.34h1.36a12.71,12.71,0,0,0-.28-2,.86.86,0,0,0,0-.13c0-.14.1-.21.27-.21s4,.34,4,1a.87.87,0,0,1-.27.54c-.31.41-.41.41-.44.75,1.39-.07,2.95-.17,4.62-.3h0c.21,0,.34.27.34,1.7a14.24,14.24,0,0,1-.07,1.46.33.33,0,0,1-.27.24h0c-1.67-.17-3.26-.28-4.69-.31v2.92c0,1.84.17,3,.2,4.93Zm-7.51-1.49c-.07,0-.14-.07-.21-.14a19.47,19.47,0,0,0-4.25-3.64c-.1-.06-.13-.1-.13-.17,0-.37,1.49-1.36,1.83-1.56a.31.31,0,0,1,.17-.1.35.35,0,0,1,.17.06,17.37,17.37,0,0,1,4.46,2.89.29.29,0,0,1,.1.21,14.63,14.63,0,0,1-2,2.38C260.44,84.35,260.41,84.39,260.34,84.39Z"/><path d="M281.59,89.32c.51-4.59.75-12,.88-17.58-.3.37-3.8,4.73-4.55,4.73a.39.39,0,0,1-.27-.07,9.56,9.56,0,0,0-2.86-1.06c-.2,0-.34-.1-.34-.17s.07-.13.17-.2c5.85-4.15,10.5-12,10.91-14.28,0-.14.07-.2.17-.2.58,0,4,1.46,4,2.1,0,.24-.27.48-.78.68s-.68.14-.95.68a38.41,38.41,0,0,1-2.32,3.57c.24.07.41.17.55.21a.42.42,0,0,1,.34.41,1.12,1.12,0,0,1-.34.64,2,2,0,0,0-.51,1.63c-.14,4.22-.31,9.76-.31,14.28,0,1.77,0,3.37.1,4.69,0,.17-.1.34-1.93.34-1.6,0-1.94,0-1.94-.34Zm23.52-18.19c0,.13-.23.27-.34.27-5.09.37-5.84.44-8.83.88l-.72.11c2,10.13,7.62,12.91,8.3,12.91s1.59-1,1.83-3.8c0-.21.07-.28.17-.28s.14.07.21.17a11.67,11.67,0,0,0,2.72,2.76.52.52,0,0,1,.23.51c-.91,3-2.55,4.66-4.55,4.66a5.11,5.11,0,0,1-2.72-.92c-5.61-3.54-8.09-9.52-9.35-15.47l-4.86,1h-.1a.39.39,0,0,1-.41-.24,13.42,13.42,0,0,1-.38-2.68v-.14c0-.34.17-.41.38-.41,2.14-.13,3.6-.27,4.86-.44-.27-1.73-.48-3.47-.61-5.1s-.27-3-.48-3.91a2.81,2.81,0,0,1-.07-.37.19.19,0,0,1,.21-.21c.07,0,.13,0,.2,0,3.67.44,4.42.57,4.42,1.12a3.11,3.11,0,0,1-.51,1.19,2.61,2.61,0,0,0-.2,1.12,49.33,49.33,0,0,0,.27,5.68l.75-.1c3.26-.45,4.08-.62,8.74-1.6h.06a.37.37,0,0,1,.38.3,19.37,19.37,0,0,1,.4,2.89ZM300,67.59a23.27,23.27,0,0,0-4.12-2.82c-.13-.07-.27-.1-.27-.24a5.68,5.68,0,0,1,1.77-2.21c.65,0,4.79,2.31,4.79,2.76s-1.36,2.68-1.8,2.68A.49.49,0,0,1,300,67.59Z"/><path d="M46.32,80.93c-1.85,1.37-3.45,2.49-4.67,3.31C39,81,36.39,79.18,35.38,79.88c-1.31.9.42,5.65,3.85,10.63s7.27,8.27,8.57,7.37c1-.71.17-3.8-1.9-7.5,1.72-1.1,4.18-2.71,7-4.67C50.84,84.24,48.59,82.63,46.32,80.93Z"/><path d="M35.3,88.23,24.66,95a2,2,0,0,0-.46,2.75l2.6,3.63a2,2,0,0,0,2.75.45l10.27-6.7a40.62,40.62,0,0,1-2.54-3.42A34.12,34.12,0,0,1,35.3,88.23Z"/><path d="M80.37,62a17.06,17.06,0,0,0-.83-20.14s-.2.7-.76,2.29C74,55.51,64.52,65.65,56.06,73.09c2.44,2.08,4.77,3.92,6.83,5.48C70,73.15,77.16,67,80.37,62Z"/><path d="M73.84,79.88c-1-.7-3.58,1.16-6.28,4.36l-.48-.32c-7.84-5.36-28.62-20.87-36.65-39.76-.55-1.59-.76-2.29-.76-2.29A17.06,17.06,0,0,0,28.84,62c6.18,9.63,26.9,23.5,34.32,28.28l.15.09c-2.07,3.7-2.92,6.79-1.9,7.5,1.3.9,5.14-2.4,8.57-7.37S75.14,80.78,73.84,79.88Zm-9.9,7.8c-19.18-14-31-23.22-33.13-33l1-.22c2.06,9.4,14.3,18.93,32.73,32.38Z"/><path d="M84.55,95,73.91,88.23a34.12,34.12,0,0,1-2,3.48,41.8,41.8,0,0,1-2.53,3.42l10.26,6.7a2,2,0,0,0,2.75-.45L85,97.75A2,2,0,0,0,84.55,95ZM74.43,96l-.16-2.82,2.63-1L77.06,95Zm4,2.56-.16-2.82,2.63-1,.16,2.82Z"/><path d="M197.33,13.35a18.56,18.56,0,0,0,9,6.26,5.4,5.4,0,0,0-.9,1.6c-.15.37-.21.54-.38.54a1.71,1.71,0,0,1-.5-.19,23.67,23.67,0,0,1-2.88-1.49V21.6c0,.21,0,.23-.21.23s-.8,0-2.73,0h-1.49v2.35h2.39c2,0,2.73,0,2.86,0s.25,0,.25.23v1.6c0,.21,0,.23-.25.23s-.82,0-2.86,0h-2.39v2.56h5c1.91,0,2.58,0,2.7,0s.24,0,.24.23v1.64c0,.21,0,.23-.24.23s-.79,0-2.7,0h-12c-1.93,0-2.61,0-2.73,0s-.23,0-.23-.23V28.87c0-.21,0-.23.23-.23s.8,0,2.73,0H195V26.12h-2.12c-2,0-2.73,0-2.85,0s-.23,0-.23-.23v-1.6c0-.21,0-.23.23-.23s.82,0,2.85,0H195V21.79h-1.34c-1.93,0-2.58,0-2.71,0s-.23,0-.23-.23V20.24a26.48,26.48,0,0,1-2.56,1.45,1.91,1.91,0,0,1-.53.19c-.14,0-.23-.15-.4-.53a4.28,4.28,0,0,0-1-1.38c3.92-1.79,6.34-3.72,8.12-6.34a6.59,6.59,0,0,0,.8-1.52,16.59,16.59,0,0,1,2.21.44c.27.07.37.17.37.32s-.06.21-.21.31Zm1.39,6.47c1.45,0,2.16,0,2.5,0a18.24,18.24,0,0,1-5-4.73,19.72,19.72,0,0,1-4.83,4.73c.38,0,1.07,0,2.29,0Z"/><path d="M220.52,18.83c-2.06,0-2.75,0-2.88,0s-.23,0-.23-.23V17c0-.23,0-.23.23-.23s.82,0,2.88,0h2.12V15.45a22.24,22.24,0,0,0-.15-3,17.66,17.66,0,0,1,2.21.17c.21,0,.33.1.33.21a1.14,1.14,0,0,1-.14.44,6.9,6.9,0,0,0-.13,2.12v1.41h3c2,0,2.75,0,2.9,0s.21,0,.21.23v1.61c0,.21,0,.23-.21.23s-.86,0-2.9,0h-2.18A21.26,21.26,0,0,0,231.39,26a5.37,5.37,0,0,0-1,1.41c-.15.29-.23.44-.34.44s-.23-.13-.44-.34a20.59,20.59,0,0,1-4.89-7c0,1.89,0,3.76,0,5.4h.48c1.64,0,2.16-.05,2.29-.05s.23,0,.23.23v1.54c0,.23,0,.25-.23.25s-.65,0-2.29,0h-.46c0,2,.06,3.38.06,3.59s0,.23-.23.23h-1.8c-.23,0-.26,0-.26-.23s.05-1.62.09-3.59h-.38c-1.64,0-2.16,0-2.29,0s-.23,0-.23-.25V26.05c0-.21,0-.23.23-.23s.65.05,2.29.05h.4c0-1.64.06-3.51.06-5.38a19.58,19.58,0,0,1-4.78,7c-.21.19-.34.32-.45.32s-.18-.13-.33-.4a7.19,7.19,0,0,0-.95-1.24v2c0,2.05.05,3.08.05,3.19s0,.23-.24.23h-1.78c-.19,0-.21,0-.21-.23s0-1.14,0-3.19V23.43c0-.69,0-1.53,0-2.37-.4.52-.79,1.05-1.21,1.53-.15.17-.28.27-.38.27s-.17-.12-.23-.37a5.84,5.84,0,0,0-.72-1.81,18.56,18.56,0,0,0,4-6.82,7.77,7.77,0,0,0,.32-1.49,12.74,12.74,0,0,1,2,.65c.23.1.34.16.34.31s-.06.23-.23.38a2,2,0,0,0-.42.84,28.65,28.65,0,0,1-1.37,3.06v8.51a19.34,19.34,0,0,0,5.5-7.29Z"/><path d="M247.19,17.36c-2.56.49-4.81.93-7.06,1.39-.79.19-1,.23-1.32.33a1.12,1.12,0,0,1-.46.17.48.48,0,0,1-.4-.31,16.18,16.18,0,0,1-.78-2.27,29,29,0,0,0,3.34-.36c2.58-.38,7.2-1.07,12.62-1.78.32,0,.42.08.44.23a11.26,11.26,0,0,1,.23,1.85c0,.25-.12.31-.4.31a9.42,9.42,0,0,0-2.56.46c-3.57,1.22-5.35,3.68-5.35,6.2,0,2.71,1.93,4.18,5.58,4.41.34,0,.46.08.46.31a7.36,7.36,0,0,1-.23,1.81c-.06.31-.14.44-.4.44-3.69,0-7.74-2.12-7.74-6.49,0-3,1.49-5,4-6.66Zm4.16,2.27c.1-.08.18-.06.31,0a10,10,0,0,1,2,2.25.21.21,0,0,1-.07.33l-.88.66a.22.22,0,0,1-.36-.07,10.44,10.44,0,0,0-2.12-2.43Zm1.86-1.36c.13-.09.19-.07.32,0a8.42,8.42,0,0,1,2,2.16.24.24,0,0,1-.06.38l-.84.65c-.17.13-.27.06-.36-.06a9.44,9.44,0,0,0-2.1-2.42Z"/><path d="M275.33,19.42a6.92,6.92,0,0,0,0-1.43,9.41,9.41,0,0,1,2.43.9.4.4,0,0,1,.15.57,3.73,3.73,0,0,0-.34.82c-.16.88-.37,1.81-.58,2.71a24.73,24.73,0,0,1,3.27,2c.21.12.19.23.13.44a16.81,16.81,0,0,1-.91,1.8c-.06.11-.12.15-.18.15a.4.4,0,0,1-.26-.15,16.21,16.21,0,0,0-2.75-2A12.91,12.91,0,0,1,272,30.8c-.19.15-.29.23-.42.23a.53.53,0,0,1-.31-.15,4.42,4.42,0,0,0-1.83-.86,11.54,11.54,0,0,0,4.7-5.69A14.33,14.33,0,0,0,270,23.05a14.71,14.71,0,0,1-2.57,4.2,3.42,3.42,0,0,1-2.68,1.16c-1.22,0-2.5-.84-2.5-2.88,0-2.6,2.69-4.64,6.19-4.64a51.62,51.62,0,0,0,1.74-5l-2.89.34a4.09,4.09,0,0,0-.95.23,1.12,1.12,0,0,1-.38.08.33.33,0,0,1-.33-.23,12.72,12.72,0,0,1-.61-2.28,8.23,8.23,0,0,0,1.85.12,22.93,22.93,0,0,0,3.25-.27,2.44,2.44,0,0,0,1-.36.47.47,0,0,1,.27-.08.52.52,0,0,1,.3.08,7.4,7.4,0,0,1,1.43,1.16.5.5,0,0,1,.18.35c0,.13-.08.23-.21.36a2.9,2.9,0,0,0-.56,1.09c-.55,1.43-1.14,3.07-1.77,4.58a17.3,17.3,0,0,1,4.08,1.05A21.82,21.82,0,0,0,275.33,19.42Zm-11.09,5.86c0,.67.23,1,.74,1a1.68,1.68,0,0,0,1.21-.79,14,14,0,0,0,1.54-2.57C265.59,23,264.24,24.08,264.24,25.28Z"/><path d="M293.26,21.16a6.36,6.36,0,0,1,3.34-.94,4.87,4.87,0,0,1,5.21,5c0,3.5-2.84,5.75-7.33,5.75-2.64,0-4.24-1.13-4.24-3.09a2.79,2.79,0,0,1,3-2.56,3.83,3.83,0,0,1,3.95,3.07,3.16,3.16,0,0,0,2.14-3.19,3.06,3.06,0,0,0-3.3-3.17,8.52,8.52,0,0,0-5.37,2.22c-.61.55-1.2,1.16-1.83,1.79-.15.14-.25.23-.36.23s-.18-.07-.31-.19a10,10,0,0,1-1.24-1.37c-.13-.16-.06-.31.11-.48a51.57,51.57,0,0,0,5-4.64c1.3-1.34,2.29-2.39,3.26-3.59-1.26.23-2.75.52-4.06.8a5.77,5.77,0,0,0-.88.25,1.51,1.51,0,0,1-.42.1.47.47,0,0,1-.46-.35,10.11,10.11,0,0,1-.73-2.27,10.59,10.59,0,0,0,1.95,0c1.28-.12,3.13-.4,4.76-.71a5.48,5.48,0,0,0,1.16-.32,1.05,1.05,0,0,1,.4-.16.77.77,0,0,1,.48.16,8.4,8.4,0,0,1,1.41,1.35.71.71,0,0,1,.23.5.55.55,0,0,1-.36.5,3.38,3.38,0,0,0-.92.68c-1.54,1.49-2.94,3-4.54,4.49Zm0,6c-.6,0-1,.35-1,.79,0,.66.56,1.1,1.82,1.1a4.21,4.21,0,0,0,1-.09C294.8,27.8,294.17,27.15,293.28,27.15Z"/></g></g></svg>