<svg xmlns="http://www.w3.org/2000/svg" viewBox="0 0 401.61 126.64"><defs><style>.cls-1,.cls-2,.cls-3{fill:#fff;stroke:#000;stroke-miterlimit:10;}.cls-1{stroke-width:4.21px;}.cls-2{stroke-width:4.3px;}.cls-3{stroke-width:4.3px;}.cls-4{fill:#060001;}</style></defs><title>アセット 203</title><g id="レイヤー_2" data-name="レイヤー 2"><g id="レイヤー_1-2" data-name="レイヤー 1"><polygon class="cls-1" points="399.46 40.55 41.15 40.55 59.89 2.11 399.46 2.11 399.46 40.55"/><rect class="cls-2" x="52.6" y="40.54" width="346.85" height="69.43"/><path d="M198.36,88.87c0,.34,0,.55-2.08.55-1.53,0-1.56-.21-1.56-.51v-.07c0-.51,0-1,0-1.6-1.22,0-4.72-.1-5.67-.1s-4.66.07-6,.1l.06,1.77c0,.54-.13.58-1.9.58s-1.83-.14-1.83-.48v-.17a73.65,73.65,0,0,0,.3-7.44c0-2.21,0-4-.13-5.78a1.11,1.11,0,0,1,0-.34c0-.1,0-.14.21-.14s.2,0,.34,0c1.22.06,4.48.13,6.93.13,0-1.66,0-3.16,0-5.13-3.12,0-6.73.07-12.47.37-.41,0-.51-.17-.51-1.6,0-1.93,0-2,.51-2,5.78.3,9.38.41,12.47.41v-1.7a42.7,42.7,0,0,0-.4-5.44v-.21c0-.17,0-.2.23-.2.82.07,4.46.41,4.46,1.22a1.9,1.9,0,0,1-.38.92,4.59,4.59,0,0,0-.57,2.62v2.79c3.23,0,7.1-.07,13-.41.38,0,.44.07.44,1.83,0,.62,0,1.19,0,1.53,0,.17-.2.24-.41.24-5.74-.3-9.72-.34-13-.37v5.13c2.17,0,5.37-.1,7.41-.2.37,0,.47.13.47.41v.1c-.13,1.87-.17,3.63-.17,4.89,0,4.46.07,6.53.21,8.09Zm-3.54-7.58c0-1,0-3,0-3s-2.86,0-4.66,0H189l-5.88,0s0,1.77,0,3.09v2.83c1.25,0,5.06.06,5.91.06s4.63-.06,5.78-.06Z"/><path d="M232.19,70c0,.34.07.72.13,1.09v0c0,.07-.1.21-.2.21a10.23,10.23,0,0,1-1.12.07c-1.33,0-1.63,0-1.63-.34.06-.48.13-.75.17-1.09-1.06,0-1.94,0-2.59,0h-2c0,.38.07.79.14,1.16v0a.25.25,0,0,1-.21.21,10.23,10.23,0,0,1-1.12.07c-1.32,0-1.63,0-1.63-.34a9.43,9.43,0,0,0,.17-1c-1,0-2.18.1-3.6.2v.65a12.7,12.7,0,0,1,0,1.36.32.32,0,0,1-.34.23l-3-.13c0,.85,0,3.53.07,5.47,1.46-.54,2.72-1.05,3.33-1.32a1,1,0,0,1,.2-.07c.11,0,.11.1.11.3s0,.75,0,1.16a5,5,0,0,0,.1,1v.1c0,.27-.23.48-8.83,4-.41.17-.75.61-1.09.61a.53.53,0,0,1-.41-.24c-1.9-2.41-2.11-2.72-2.11-2.92s.17-.17.38-.17a29.34,29.34,0,0,0,5.23-1.39c0-2.32.1-5.55.1-6.57-1.19,0-2.31.11-3.6.17-.31,0-.37-.13-.37-1.36,0-.61,0-1.25,0-1.53s.14-.3.27-.3h.07c1.33.13,2.41.24,3.6.27a65.73,65.73,0,0,0-.4-8.81v-.13c0-.14,0-.14.1-.14s4.28.31,4.28,1.13c0,.37-.44.85-.64,1.32s-.24.54-.38,6.6c.88,0,1.63-.11,2.79-.21,0-1.36,0-1.8.3-1.8h.14c1.53.1,2.75.17,3.77.2A10.49,10.49,0,0,0,222,66a.11.11,0,0,1,0-.1c0-.1.07-.14.21-.14,3.16.27,3.43.58,3.43.82s-.27.54-.47.85a.86.86,0,0,0-.17.41h4.62a8.65,8.65,0,0,0-.31-1.84.13.13,0,0,1,0-.1c0-.1.07-.14.2-.14,1.36.14,3.4.34,3.4.82a2,2,0,0,1-.44.85,1.19,1.19,0,0,0-.13.34c1.53,0,3.29-.14,5.27-.27a.34.34,0,0,1,.37.3c0,.27,0,.78,0,1.29,0,1.09-.07,1.16-.4,1.16Zm-6.39,17.1a2.11,2.11,0,0,0-.85.27A26.93,26.93,0,0,1,215.56,90a.62.62,0,0,1-.57-.28,10.28,10.28,0,0,0-2.25-2.21c-.13-.1-.24-.2-.24-.27s.11-.1.38-.1c6.32,0,10.37-2,11.11-2.55.11-.1.17-.17.24-.17s2.25,1.77,2.25,2.24C226.48,86.87,226.2,87,225.8,87.07Zm9.14-21.76c-3.13-.2-4.93-.27-6.36-.3,0,.51.11.95.17,1.53,0,.2-.13.34-1.39.34s-1.67-.07-1.67-.38c.07-.57.14-1,.17-1.49-1.19,0-2.58.1-5.57.3h-.07c-.31,0-.34-.23-.34-1.32,0-1.5.1-1.5.41-1.5,3.16.28,4.45.34,5.61.34a12.4,12.4,0,0,0-.27-3v-.1c0-.11,0-.17.2-.17,3.37.3,3.54.74,3.54,1a1.62,1.62,0,0,1-.48.88c-.24.24-.27,1-.31,1.43,1.43,0,3.13-.06,6.36-.34.21,0,.34,0,.34,1.63a9.45,9.45,0,0,1,0,1,.35.35,0,0,1-.27.2ZM234,84.08c0,.27-.17.27-.34.31-2.78,0-2.85,0-2.85-.28v-.64c-.65,0-1.91,0-3.81,0-1.56,0-2.65,0-3.4,0,0,.27,0,.58,0,.88v.07c0,.14-.1.17-.34.17s-.85,0-1.32,0c-1.06,0-1.63-.06-1.63-.2v-.07a56.78,56.78,0,0,0,.4-5.67,51.57,51.57,0,0,0-.2-6.8v-.07c0-.1,0-.1.14-.1h.13c2.69.1,3.27.13,6.16.13,1.46,0,2.31,0,3.12,0a31.41,31.41,0,0,0,3.47-.21h.1c.14,0,.21.07.21.17v.1a38.89,38.89,0,0,0-.14,3.91c0,4.29.1,6,.27,8.16ZM231,76.91c-.64,0-1.9,0-3.91,0-1.73,0-2.82,0-3.53,0v1.32c.71,0,1.87,0,3.5,0,2,0,3.33,0,3.94,0Zm0,4.55c0-.44,0-.88,0-1.36-.64,0-1.9,0-3.91,0-1.73,0-2.82,0-3.53,0,0,.48,0,.92,0,1.36ZM227,73.75c-2.72,0-3.4.06-3.4.06s0,.48,0,1.19c.72,0,1.87,0,3.47,0,2,0,3.26,0,3.91,0,0-.68,0-1.19,0-1.19S229.67,73.75,227,73.75Zm12.34,13.08c0,.07-.07.14-.21.24a13,13,0,0,0-2.58,2.38c-.1.14-.17.17-.27.17a.75.75,0,0,1-.24,0c-4.11-.92-7.55-3-7.55-3.27s1.46-1.56,1.67-1.66a.42.42,0,0,1,.24-.1.7.7,0,0,1,.17.06,21.1,21.1,0,0,0,8.49,2C239.19,86.7,239.33,86.73,239.33,86.83Z"/><path d="M253.13,82.76c0,.34-.1.57-1.7.57-.91,0-1.63,0-1.63-.47v-.07c0-.65,0-1.5.07-2.41-.37,0-1-.07-1.46-.07s-1.19,0-1.57.07c0,1.52,0,3,.07,4.35,0,.58-.07.61-1.7.61s-1.73-.2-1.73-.55v-.1c.3-4.65.37-9.75.37-12.54,0-3.5-.07-6.26-.2-9.05,0-.13,0-.2,0-.3s.07-.2.24-.2.17,0,.27,0c1.09.1,2.59.17,4.32.17s2-.07,4.22-.2c.37,0,.44.13.44.47-.24,2.69-.24,5.81-.24,8.74,0,2.55.07,8.06.27,10.74Zm-4.76-17.34c-1,0-1.53,0-1.53,0s-.06,2.11-.06,4.52c.4,0,1.08,0,1.59,0s1.23,0,1.6,0c0-2.17-.1-4.52-.1-4.52s-.34,0-1,0Zm1.6,7.31c-.37,0-1,0-1.56,0s-1.26,0-1.63,0c0,1.32,0,3,0,4.86.41,0,1.05,0,1.56,0s1.16,0,1.53,0C249.94,75.75,250,74,250,72.73Zm21.83.17c-3.78-.38-7.31-.41-9.45-.41s-3.91.07-8.37.34c-.34,0-.41-.1-.41-1.57s0-1.63.41-1.63c3.33.27,5.07.34,6.84.34V67.29c-1.53,0-3,.06-5.48.2-.3,0-.37,0-.37-1.46s.07-1.53.44-1.53c2.38.2,3.91.2,5.34.2v-.34a27.27,27.27,0,0,0-.48-5v-.17c0-.17,0-.2.24-.2.54,0,4.35.4,4.35,1.12,0,.27-.3.61-.51,1-.37.71-.34.64-.47,2.85a3.77,3.77,0,0,0,0,.68c1.29,0,2.59-.06,5.2-.23.17,0,.41,0,.41,1.56a6.7,6.7,0,0,1-.07,1.26c0,.13-.2.2-.3.2h0c-2.55-.14-3.74-.17-5.23-.2V70c2.11,0,4.86-.17,8-.41.23,0,.37.24.37,1.67a13.6,13.6,0,0,1-.07,1.43c0,.13-.17.24-.27.24Zm-4.59,13c0,2-1.12,4.25-5.1,4.25q-.32,0-.51-.51c-.65-1.53-1.84-2.07-2.65-3-.11-.11-.17-.17-.17-.24s0-.07.13-.07.1,0,.17,0a19.7,19.7,0,0,0,2.76.28c1.29,0,2-.34,2-1.33.06-1.33.06-4,.06-5.54v-2h-1.46c-2.17,0-3.94.07-8.33.34a.33.33,0,0,1-.34-.31c0-.27,0-.78,0-1.32,0-1.64,0-1.64.37-1.64,4.22.34,6,.34,8.33.34h1.36a12.86,12.86,0,0,0-.27-2,.86.86,0,0,0,0-.13c0-.14.1-.21.27-.21s4,.34,4,1a.84.84,0,0,1-.28.54c-.3.41-.4.41-.44.75,1.4-.07,3-.17,4.62-.3h0c.2,0,.34.27.34,1.7,0,.54,0,1.12-.07,1.46a.33.33,0,0,1-.27.24h0c-1.66-.17-3.26-.28-4.69-.31v2.92c0,1.84.17,3,.21,4.93Zm-7.52-1.49c-.06,0-.13-.07-.2-.14a19.47,19.47,0,0,0-4.25-3.64c-.1-.06-.14-.1-.14-.17,0-.37,1.5-1.36,1.84-1.56a.31.31,0,0,1,.17-.1c.07,0,.1,0,.17.07a16.83,16.83,0,0,1,4.45,2.88.31.31,0,0,1,.11.21,14.78,14.78,0,0,1-2,2.38C259.8,84.35,259.76,84.39,259.69,84.39Z"/><path d="M281,89.32c.51-4.59.74-12,.88-17.58-.31.37-3.81,4.73-4.56,4.73a.39.39,0,0,1-.27-.07,9.4,9.4,0,0,0-2.85-1.06c-.21,0-.34-.1-.34-.17s.06-.13.17-.2c5.84-4.15,10.5-12,10.91-14.28,0-.13.07-.2.17-.2.58,0,4,1.46,4,2.11,0,.23-.28.47-.79.67s-.68.14-.95.68A39.91,39.91,0,0,1,285,67.52c.24.07.41.17.54.21a.42.42,0,0,1,.34.41,1.06,1.06,0,0,1-.34.64,2.07,2.07,0,0,0-.5,1.63c-.14,4.22-.31,9.76-.31,14.28,0,1.77,0,3.37.1,4.69,0,.17-.1.34-1.94.34-1.59,0-1.93,0-1.93-.34Zm23.52-18.19c0,.13-.24.27-.34.27-5.1.37-5.85.44-8.84.88l-.71.11c2,10.13,7.61,12.92,8.29,12.92s1.6-1,1.84-3.81c0-.21.07-.28.17-.28s.13.07.2.17a12.07,12.07,0,0,0,2.72,2.76.52.52,0,0,1,.24.51c-.92,3-2.55,4.66-4.55,4.66a5.11,5.11,0,0,1-2.72-.92c-5.61-3.54-8.1-9.52-9.35-15.47l-4.87,1h-.1a.37.37,0,0,1-.4-.24,12.73,12.73,0,0,1-.38-2.68v-.14c0-.34.17-.41.38-.41,2.14-.13,3.6-.27,4.86-.44-.28-1.73-.48-3.47-.62-5.1s-.27-3-.47-3.91a1.76,1.76,0,0,1-.07-.37.18.18,0,0,1,.2-.21c.07,0,.14,0,.21,0,3.67.44,4.42.57,4.42,1.12a3.27,3.27,0,0,1-.51,1.19,2.62,2.62,0,0,0-.21,1.12,47.58,47.58,0,0,0,.28,5.68l.74-.1c3.27-.45,4.08-.62,8.74-1.6h.07a.36.36,0,0,1,.37.3,18.12,18.12,0,0,1,.41,2.89Zm-5.17-3.54a23,23,0,0,0-4.11-2.82c-.14-.07-.27-.1-.27-.24a5.68,5.68,0,0,1,1.77-2.21c.64,0,4.79,2.32,4.79,2.76s-1.36,2.68-1.8,2.68A.53.53,0,0,1,299.3,67.59Z"/><circle class="cls-3" cx="54.61" cy="72.03" r="52.46"/><rect class="cls-4" x="59.27" y="53.34" width="7.37" height="1.24"/><rect class="cls-4" x="42.57" y="53.34" width="7.37" height="1.24"/><path class="cls-4" d="M37.48,56.52c.6,3,5,4.7,8.77,4.7a7.25,7.25,0,0,0,4.69-1.72,5.65,5.65,0,0,1,7.33,0A7.27,7.27,0,0,0,63,61.22c3.79,0,8.18-1.73,8.77-4.7a2,2,0,0,0-2-2.56,2,2,0,0,0,2-2.56c-.59-3-5-4.7-8.77-4.7a7.27,7.27,0,0,0-4.69,1.72,5.65,5.65,0,0,1-7.33,0,7.25,7.25,0,0,0-4.69-1.72c-3.79,0-8.17,1.73-8.77,4.7a2.05,2.05,0,0,0,2,2.56A2.05,2.05,0,0,0,37.48,56.52ZM63,48.85A5.11,5.11,0,1,1,57.85,54,5.1,5.1,0,0,1,63,48.85Zm-16.71,0A5.11,5.11,0,1,1,41.15,54,5.11,5.11,0,0,1,46.25,48.85Z"/><path class="cls-4" d="M54.61,90.74a67.56,67.56,0,0,1-17.83-2.45c-.78,1.5-.77,2.43,0,3.14l1.17.31c.12,4.32,3,7.9,5.42,10.53h7.87c0-3.57.49-6.79,1.74-8.86l1.63,0,1.62,0c1.26,2.07,1.69,5.29,1.75,8.86h7.87c2.42-2.63,5.29-6.21,5.41-10.53l1.17-.31c.77-.71.79-1.64,0-3.14A67.53,67.53,0,0,1,54.61,90.74Z"/><path class="cls-4" d="M46.7,45.11A8.9,8.9,0,0,1,52,47.2a4.08,4.08,0,0,0,5.26,0,8.84,8.84,0,0,1,5.27-2.09,1.25,1.25,0,0,0,.75-.58c.5-.93-.49-2.43-2.21-3.35a5.2,5.2,0,0,0-2.69-.68,1.4,1.4,0,0,0,.52-.41c.64-.84.25-2.22-.89-3.09s-2.56-.88-3.21,0a1.59,1.59,0,0,0-.17.31,2.48,2.48,0,0,0-.18-.31c-.64-.84-2.08-.82-3.21,0s-1.53,2.25-.89,3.09a1.48,1.48,0,0,0,.52.41,5.19,5.19,0,0,0-2.68.68c-1.73.92-2.72,2.42-2.22,3.35A1.28,1.28,0,0,0,46.7,45.11Z"/><path class="cls-4" d="M54.61,60.16a4.26,4.26,0,0,0-2.69,1,9.27,9.27,0,0,1-5.85,2.06c-.45,0-.9,0-1.36-.06a15.14,15.14,0,0,0,19.79,0c-.46,0-.91.06-1.36.06a9.29,9.29,0,0,1-5.85-2.06A4.26,4.26,0,0,0,54.61,60.16Z"/><path class="cls-4" d="M78.27,79.9C83.23,76.06,81,68,81,68a61.62,61.62,0,0,1-12.83-4.86,20,20,0,0,1-27.15,0A61.74,61.74,0,0,1,28.21,68s-2.23,8,2.73,11.89c-.74.29-1.23.77-1.23,1.31,0,.9,1.32,1.62,2.95,1.62s2.94-.71,2.94-1.49-.4-1.21-.4-2.38a3.85,3.85,0,0,1,3.63-4,3.85,3.85,0,0,1,3.64,4c0,2.69-2.45,5.75-6.41,8a90.69,90.69,0,0,0,18.55,2,90.66,90.66,0,0,0,18.54-2c-4-2.22-6.4-5.28-6.4-8A3.64,3.64,0,1,1,74,79c0,1.17-.39,1.61-.39,2.38s1.39,1.49,2.93,1.49,3-.72,3-1.62C79.5,80.67,79,80.19,78.27,79.9ZM47.39,75.32A2.49,2.49,0,1,1,50,72.83,2.54,2.54,0,0,1,47.39,75.32Zm7.22,3.45a1.91,1.91,0,1,1,2-1.91A2,2,0,0,1,54.61,78.77Zm7.21-3.45a2.49,2.49,0,1,1,2.6-2.49A2.55,2.55,0,0,1,61.82,75.32Z"/><path class="cls-4" d="M50.93,103.46H41.19a1.92,1.92,0,0,0,0,3.84h9.74a1.92,1.92,0,0,0,0-3.84Z"/><path class="cls-4" d="M68,103.46H58.28a1.92,1.92,0,0,0,0,3.84H68a1.92,1.92,0,0,0,0-3.84Z"/><path d="M196.87,13.35a18.47,18.47,0,0,0,9,6.26,5.43,5.43,0,0,0-.91,1.6c-.14.37-.21.54-.38.54a1.81,1.81,0,0,1-.5-.19,24.42,24.42,0,0,1-2.88-1.49V21.6c0,.21,0,.23-.21.23s-.79,0-2.73,0h-1.49v2.35h2.4c2,0,2.73,0,2.85,0s.25,0,.25.23v1.6c0,.21,0,.23-.25.23s-.82,0-2.85,0h-2.4v2.56h5c1.91,0,2.58,0,2.71,0s.23,0,.23.23v1.64c0,.21,0,.23-.23.23s-.8,0-2.71,0h-12c-1.93,0-2.6,0-2.73,0s-.23,0-.23-.23V28.87c0-.21,0-.23.23-.23s.8,0,2.73,0h4.75V26.12H192.4c-2,0-2.73,0-2.86,0s-.23,0-.23-.23v-1.6c0-.21,0-.23.23-.23s.82,0,2.86,0h2.12V21.79h-1.35c-1.93,0-2.58,0-2.7,0s-.24,0-.24-.23V20.24a24.29,24.29,0,0,1-2.56,1.45,2,2,0,0,1-.52.19c-.15,0-.23-.15-.4-.53a4.3,4.3,0,0,0-1-1.38c3.93-1.79,6.34-3.72,8.13-6.34a6.59,6.59,0,0,0,.8-1.52,15.21,15.21,0,0,1,2.2.45c.27.06.38.16.38.31s-.06.21-.21.31Zm1.38,6.47c1.45,0,2.17,0,2.5,0a18.52,18.52,0,0,1-5-4.73,19.72,19.72,0,0,1-4.83,4.73c.38,0,1.08,0,2.29,0Z"/><path d="M220.05,18.83c-2.05,0-2.75,0-2.87,0s-.23,0-.23-.23V17c0-.23,0-.23.23-.23s.82,0,2.87,0h2.12V15.45a24.34,24.34,0,0,0-.14-3,17.5,17.5,0,0,1,2.2.17c.21,0,.34.1.34.21a1.15,1.15,0,0,1-.15.44,7.29,7.29,0,0,0-.13,2.12v1.41h3c2,0,2.75,0,2.89,0s.21,0,.21.23v1.61c0,.21,0,.23-.21.23s-.86,0-2.89,0h-2.19A21.18,21.18,0,0,0,230.93,26a5.41,5.41,0,0,0-1,1.41c-.15.29-.23.44-.34.44s-.23-.13-.44-.34a20.87,20.87,0,0,1-4.89-7c0,1.89,0,3.76,0,5.4h.49c1.63,0,2.16-.05,2.29-.05s.23,0,.23.24v1.53c0,.23,0,.25-.23.25s-.66,0-2.29,0h-.47c0,2,.07,3.38.07,3.59s0,.23-.23.23h-1.81c-.23,0-.25,0-.25-.23s0-1.62.08-3.59h-.37c-1.64,0-2.17,0-2.29,0s-.23,0-.23-.25V26.06c0-.21,0-.24.23-.24s.65.05,2.29.05h.39c.05-1.64.07-3.51.07-5.38a19.6,19.6,0,0,1-4.79,7c-.21.19-.34.32-.44.32s-.19-.13-.34-.4a7.17,7.17,0,0,0-.94-1.24v2c0,2.05,0,3.08,0,3.19s0,.23-.23.23h-1.79c-.18,0-.21,0-.21-.23s.05-1.14.05-3.19V23.43c0-.69,0-1.53,0-2.37-.4.52-.8,1.05-1.22,1.53-.15.17-.27.27-.38.27s-.17-.12-.23-.37a6.1,6.1,0,0,0-.71-1.81,18.7,18.7,0,0,0,4-6.82,7.74,7.74,0,0,0,.31-1.49,13.61,13.61,0,0,1,2,.65c.23.1.33.16.33.31s-.06.23-.23.38a2.13,2.13,0,0,0-.42.84,30.7,30.7,0,0,1-1.36,3.06v8.51a19.44,19.44,0,0,0,5.5-7.29Z"/><path d="M246.72,17.36c-2.56.49-4.81.93-7.05,1.39-.8.19-1,.23-1.32.33a1.16,1.16,0,0,1-.47.17.5.5,0,0,1-.4-.31,14.72,14.72,0,0,1-.77-2.27,29,29,0,0,0,3.34-.36c2.58-.38,7.2-1.07,12.61-1.78.32,0,.42.08.45.23a12.46,12.46,0,0,1,.23,1.85c0,.25-.13.31-.4.31a9.35,9.35,0,0,0-2.56.46c-3.57,1.22-5.36,3.68-5.36,6.2,0,2.71,1.93,4.18,5.59,4.41.33,0,.46.08.46.31a7.36,7.36,0,0,1-.23,1.81c-.06.31-.15.44-.4.44-3.7,0-7.75-2.12-7.75-6.49,0-3,1.49-5,4-6.66Zm4.16,2.27c.11-.08.19-.06.31,0a9.72,9.72,0,0,1,2,2.25.21.21,0,0,1-.06.33l-.89.66a.22.22,0,0,1-.35-.07,10.44,10.44,0,0,0-2.12-2.43Zm1.87-1.36c.12-.09.19-.07.31,0a8.47,8.47,0,0,1,2,2.16.25.25,0,0,1-.06.38l-.84.65a.22.22,0,0,1-.36-.06A9.84,9.84,0,0,0,251.7,19Z"/><path d="M274.86,19.42a6.92,6.92,0,0,0,0-1.43,9.66,9.66,0,0,1,2.44.9.39.39,0,0,1,.14.57,3.7,3.7,0,0,0-.33.82c-.17.88-.38,1.81-.59,2.71a24.25,24.25,0,0,1,3.28,2c.21.12.18.23.12.44a18.87,18.87,0,0,1-.9,1.8c-.06.11-.13.15-.19.15a.38.38,0,0,1-.25-.15,17.69,17.69,0,0,0-2.75-2,13,13,0,0,1-4.24,5.52c-.19.15-.3.23-.42.23a.55.55,0,0,1-.32-.15A4.36,4.36,0,0,0,269,30a11.56,11.56,0,0,0,4.71-5.69,14.49,14.49,0,0,0-4.16-1.28,14.51,14.51,0,0,1-2.56,4.2,3.46,3.46,0,0,1-2.69,1.16c-1.22,0-2.5-.84-2.5-2.88,0-2.6,2.69-4.64,6.2-4.64.69-1.74,1.21-3.21,1.74-5l-2.9.34a4,4,0,0,0-.94.23,1.17,1.17,0,0,1-.38.08.35.35,0,0,1-.34-.23,12.48,12.48,0,0,1-.61-2.28,8.23,8.23,0,0,0,1.85.12,23.18,23.18,0,0,0,3.26-.27,2.55,2.55,0,0,0,1-.36.45.45,0,0,1,.27-.08.49.49,0,0,1,.29.08,7.11,7.11,0,0,1,1.43,1.16.48.48,0,0,1,.19.35c0,.13-.09.23-.21.36a2.78,2.78,0,0,0-.57,1.09c-.54,1.43-1.13,3.07-1.76,4.58a17.35,17.35,0,0,1,4.07,1.05A20.1,20.1,0,0,0,274.86,19.42Zm-11.08,5.86c0,.67.23,1,.73,1a1.7,1.7,0,0,0,1.22-.79,14.31,14.31,0,0,0,1.53-2.56C265.12,23,263.78,24.08,263.78,25.28Z"/><path d="M292.8,21.16a6.31,6.31,0,0,1,3.34-.94,4.87,4.87,0,0,1,5.2,5c0,3.5-2.83,5.75-7.32,5.75-2.65,0-4.25-1.13-4.25-3.09a2.8,2.8,0,0,1,3-2.56,3.81,3.81,0,0,1,3.94,3.07,3.16,3.16,0,0,0,2.14-3.19,3.06,3.06,0,0,0-3.29-3.17,8.53,8.53,0,0,0-5.38,2.22c-.61.55-1.19,1.16-1.82,1.79-.15.14-.26.23-.36.23s-.19-.07-.32-.19a9.29,9.29,0,0,1-1.23-1.37c-.13-.16-.07-.31.1-.48a50.43,50.43,0,0,0,5-4.64c1.3-1.34,2.28-2.39,3.25-3.59-1.26.23-2.75.52-4.05.8a5.46,5.46,0,0,0-.88.25,1.7,1.7,0,0,1-.42.1.49.49,0,0,1-.47-.35,10.11,10.11,0,0,1-.73-2.27,10.59,10.59,0,0,0,1.95,0c1.28-.12,3.13-.4,4.77-.71a5.53,5.53,0,0,0,1.15-.32,1.2,1.2,0,0,1,.4-.16.8.8,0,0,1,.49.16,7.93,7.93,0,0,1,1.4,1.35.71.71,0,0,1,.23.5.54.54,0,0,1-.35.5,3.4,3.4,0,0,0-.93.68c-1.53,1.49-2.94,3-4.53,4.49Zm0,6c-.61,0-1,.35-1,.79,0,.66.57,1.1,1.83,1.1a4.07,4.07,0,0,0,1-.09C294.33,27.8,293.7,27.15,292.82,27.15Z"/></g></g></svg>