<svg xmlns="http://www.w3.org/2000/svg" viewBox="0 0 402.07 126.64"><defs><style>.cls-1,.cls-2,.cls-3{fill:#fff;}.cls-1,.cls-2,.cls-3,.cls-4{stroke:#000;stroke-miterlimit:10;}.cls-1{stroke-width:4.21px;}.cls-2{stroke-width:4.3px;}.cls-3{stroke-width:4.3px;}.cls-4{fill:none;stroke-width:2.13px;}</style></defs><title>アセット 200</title><g id="レイヤー_2" data-name="レイヤー 2"><g id="レイヤー_1-2" data-name="レイヤー 1"><polygon class="cls-1" points="399.92 40.55 41.62 40.55 60.35 2.11 399.92 2.11 399.92 40.55"/><rect class="cls-2" x="53.07" y="40.54" width="346.85" height="69.43"/><circle class="cls-3" cx="54.61" cy="72.03" r="52.46"/><path d="M225.11,61.81c.17,0,.21,0,.21.14s0,.17,0,.27c-.27,1.6-.2,6.8-1.46,9.59-1,2.41-2.48,3.16-5.61,3.16-.2,0-.51,0-.54-.44a7.15,7.15,0,0,0-1.36-2.72.49.49,0,0,1-.11-.24c0-.07.07-.1.14-.1a1.39,1.39,0,0,1,.17,0,10.57,10.57,0,0,0,2.35.34,1.87,1.87,0,0,0,1.93-1.26c.65-1.22,1-4.31,1-5.81h-3.37a.27.27,0,0,1,.14.2c0,.17-.17.34-.45.48s-.44.34-.61,1a13.59,13.59,0,0,1-8.19,9.38.31.31,0,0,1-.27-.14,7.86,7.86,0,0,0-1.8-1.09c0,2.62.13,5.75.27,7.59,0,.68-.17.78-1.57.78-1.7,0-1.76-.21-1.76-.48v-.07c0-.64,0-1.49.06-2.41-.4,0-1,0-1.59,0l-1.77,0c0,1.56,0,3.06.07,4.39v.17c0,.34-.14.4-1.7.4-1.36,0-1.74,0-1.74-.54v-.1c.31-4.66.38-9.76.38-12.55,0-3.5-.07-6.25-.21-9,0-.14,0-.2,0-.31s.07-.2.24-.2.17,0,.27,0c1.09.11,2.79.21,4.52.21s2.14-.07,4.35-.21h.1c.24,0,.31.11.31.31v.14c-.2,2.71-.2,5.84-.2,8.73v2.11c6.08-2.07,7.24-6.56,7.44-8.7l-4.73.27h-.06c-.11,0-.24-.1-.27-.31,0-.44,0-1.22,0-1.87,0-1,0-1,.37-1H210a69.78,69.78,0,0,0,7.14.34H218a57,57,0,0,0,7-.41ZM204.2,65.08s-.68,0-1.59,0-1.77,0-1.77,0-.07,2.1-.07,4.52l1.84,0,1.7,0C204.27,67.42,204.2,65.08,204.2,65.08Zm.11,7.3c-.41,0-1.13-.06-1.7-.06s-1.4,0-1.84.06c0,1.33,0,3,0,4.83.48,0,1.3,0,1.81,0s1.22,0,1.63,0C204.27,75.38,204.31,73.64,204.31,72.38Zm19.81,16.73c0,.31-.13.41-2,.41-1.26,0-1.46-.14-1.46-.41V89l.07-2.07c-.79,0-2.52-.07-3.3-.07s-3,0-3.91.07l.07,2.17v.11c0,.3,0,.41-1.81.41a9.93,9.93,0,0,1-1.12,0c-.44-.07-.58-.1-.58-.44v-.1c.28-2.21.28-6.16.28-7.21V80.58c0-1.33,0-2.42-.14-3.64,0-.1,0-.17,0-.24s.06-.13.27-.13h.24c1.49.1,4.82.13,6.66.13s3.94-.07,6.26-.17h.1a.3.3,0,0,1,.34.31v.1c-.14,1.67-.17,3.13-.17,4.18s0,5.24.23,7.75Zm-3.36-7.41c0-.88,0-2.35,0-2.35s-1.4,0-2.55,0h-.79l-3.84,0s0,1.26,0,2.42v2.41c.92,0,3.13.07,3.87.07s2.62,0,3.37-.07Z"/><path d="M263.77,89.55c0,.14-.13.24-.31.28-.37,0-.95,0-1.52,0-2.11,0-2.28,0-2.28-.34v-.1c.47-4.83.68-10.1.71-12.89a26.25,26.25,0,0,1-5.88,5.61c-.1.07-.17.14-.27.14a.34.34,0,0,1-.27-.17,12.62,12.62,0,0,0-2.69-1.67c-.17-.07-.27-.13-.27-.2s.07-.1.2-.14A26.24,26.24,0,0,0,260.37,73c0-.41,0-.88,0-1.32-1.53,0-3.81.13-5.48.27h-.06c-.21,0-.34,0-.34-1.53,0-1.33,0-1.56.4-1.56,1.64.17,3.91.27,5.44.34,0-1,0-2-.06-2.76l-.07-1a24.54,24.54,0,0,1-3.44.68c-.13,0-.23-.07-.34-.24a12.71,12.71,0,0,0-1.66-2.17c-.1-.1-.14-.17-.14-.24s.14-.07.31-.07a26.3,26.3,0,0,0,9.76-2.24c.17-.1.23-.17.3-.17.24,0,2.35,1.9,2.35,2.62,0,.2-.21.34-.61.34a2.56,2.56,0,0,1-.69-.07,7.11,7.11,0,0,0-1.35.3,4.44,4.44,0,0,1-.48.17c0,.14-.17.28-.44.48s-.38.61-.48,4.35c1.5,0,3.33-.17,4.69-.3.1,0,.34,0,.34.23s0,.92,0,1.57a7.76,7.76,0,0,1,0,1.08c0,.14-.13.24-.34.24-1.36-.13-3.26-.24-4.76-.3v1.87a20.57,20.57,0,0,0,5.58,3.06c.24.06.34.17.34.27s-.07.13-.17.2a10.18,10.18,0,0,0-2,1.63c-.14.14-.21.31-.34.31s-1.3-.61-3.44-2.62c0,2.86.24,9.45.58,13.13Zm14.55-2,.1-2.86c-.78,0-2.07-.07-2.89-.07s-2,0-2.85.07c0,1.46.1,2.82.17,3.84,0,.31-.14.38-.44.38a11,11,0,0,1-1.5.06c-1.16,0-1.8-.1-1.8-.37v0c.27-2.59.37-9.25.37-13.16V74c0-3.67,0-5.37-.24-8.5a.24.24,0,0,1,.24-.27h.07c2.72.17,4.73.24,6,.24,1.4,0,2.72-.07,6-.24h.07c.24,0,.31.14.31.24v.07c-.14,3-.21,5.27-.21,8.46,0,3,.17,10.47.41,13.5a.47.47,0,0,1-.44.44c-.41,0-1,.07-1.53.07-1.43,0-1.84,0-1.84-.37Zm.21-13.36c0-2.38-.07-6-.07-6s-1.74-.07-2.93-.07-2.89.07-2.89.07,0,3.46,0,5.84c0,6.06,0,7.28,0,7.79.89,0,2.15.07,2.89.07.89,0,2.21-.07,3-.1C278.53,78.47,278.53,75.14,278.53,74.19Z"/><path d="M58.15,107.09c1.1-11.79,5.76-12.79,10.15-2.63h9.24c-4-4.13-10.55-15.24-12.75-21.68L54.61,84.45,44.42,82.78c-2.2,6.44-8.72,17.55-12.75,21.68h9.24C45.3,94.3,50,95.3,51.06,107.09Z"/><path d="M48.31,70.09l6.3,1,6.29-1c-.43-2.51-.71-5.61-.87-7.82H49.19C49,64.48,48.74,67.58,48.31,70.09Z"/><path d="M51.55,52.44h6.12l-.22-6.61H51.77Z"/><path d="M48.14,54.57H61.08v5.57H48.14Z"/><polygon points="41.55 71.51 54.61 73.17 67.67 71.51 66.27 80.54 54.61 82.2 42.94 80.54 41.55 71.51"/><line class="cls-4" x1="54.61" y1="43.8" x2="54.61" y2="32.47"/><path d="M194.5,13.35a18.58,18.58,0,0,0,9,6.26,5.5,5.5,0,0,0-.91,1.59c-.14.38-.21.55-.38.55a2.24,2.24,0,0,1-.5-.19,23.53,23.53,0,0,1-2.87-1.49V21.6c0,.21,0,.23-.21.23s-.8,0-2.73,0h-1.5v2.35h2.4c2,0,2.73,0,2.85,0s.26,0,.26.23v1.6c0,.21,0,.23-.26.23s-.81,0-2.85,0h-2.4v2.56h5c1.91,0,2.58,0,2.71,0s.23,0,.23.23V30.5c0,.21,0,.24-.23.24s-.8,0-2.71,0h-12c-1.93,0-2.6,0-2.73,0s-.23,0-.23-.24V28.87c0-.21,0-.23.23-.23s.8,0,2.73,0h4.75V26.12H190c-2,0-2.73,0-2.86,0s-.23,0-.23-.23v-1.6c0-.21,0-.23.23-.23s.82,0,2.86,0h2.12V21.79H190.8c-1.93,0-2.58,0-2.7,0s-.23,0-.23-.23V20.24a27.61,27.61,0,0,1-2.57,1.45,2,2,0,0,1-.52.19c-.15,0-.23-.15-.4-.53a4.35,4.35,0,0,0-1-1.39c3.93-1.78,6.34-3.71,8.13-6.34a6.53,6.53,0,0,0,.8-1.51,15.26,15.26,0,0,1,2.2.44c.27.07.38.17.38.32s-.06.21-.21.31Zm1.39,6.47c1.44,0,2.16,0,2.49,0a18.68,18.68,0,0,1-5-4.73,20,20,0,0,1-4.82,4.73c.37,0,1.07,0,2.28,0Z"/><path d="M217.68,18.83c-2.05,0-2.75,0-2.87,0s-.23,0-.23-.23V17c0-.24,0-.24.23-.24s.82,0,2.87,0h2.12V15.45a24.34,24.34,0,0,0-.14-3,17.5,17.5,0,0,1,2.2.17c.21,0,.34.1.34.21a1.21,1.21,0,0,1-.15.44,7.52,7.52,0,0,0-.12,2.12v1.41h3c2,0,2.75,0,2.89,0s.21,0,.21.24v1.61c0,.21,0,.23-.21.23s-.86,0-2.89,0h-2.19A21.39,21.39,0,0,0,228.56,26a5.25,5.25,0,0,0-1,1.41c-.15.29-.23.44-.33.44s-.24-.13-.45-.34a20.87,20.87,0,0,1-4.89-7c0,1.89,0,3.76,0,5.39h.49c1.64,0,2.16,0,2.29,0s.23,0,.23.23v1.54c0,.23,0,.25-.23.25s-.65,0-2.29,0h-.46c0,2,.06,3.38.06,3.59s0,.23-.23.23H220c-.23,0-.25,0-.25-.23s0-1.62.08-3.59h-.37c-1.64,0-2.17,0-2.29,0s-.23,0-.23-.25V26.05c0-.21,0-.23.23-.23s.65,0,2.29,0h.39c0-1.63.07-3.5.07-5.37a19.69,19.69,0,0,1-4.79,7c-.21.19-.34.32-.44.32s-.19-.13-.34-.4a6.8,6.8,0,0,0-.94-1.24v2c0,2.05,0,3.08,0,3.19s0,.23-.23.23h-1.78c-.19,0-.21,0-.21-.23s0-1.14,0-3.19V23.43c0-.69,0-1.53,0-2.37-.4.52-.8,1.05-1.22,1.53-.15.17-.27.27-.38.27s-.17-.12-.23-.38a6.14,6.14,0,0,0-.71-1.8,18.74,18.74,0,0,0,4-6.83,7.44,7.44,0,0,0,.31-1.49,14.87,14.87,0,0,1,2,.65c.23.11.33.17.33.32s-.06.23-.23.38a2,2,0,0,0-.42.84,28.56,28.56,0,0,1-1.36,3.06v8.51a19.52,19.52,0,0,0,5.5-7.29Z"/><path d="M244.35,17.36c-2.56.48-4.8.92-7,1.39-.8.19-1,.23-1.32.33a1.16,1.16,0,0,1-.47.17.49.49,0,0,1-.39-.31,13.94,13.94,0,0,1-.78-2.27,29,29,0,0,0,3.34-.36c2.58-.38,7.2-1.07,12.62-1.78.31,0,.42.08.44.23a12.46,12.46,0,0,1,.23,1.85c0,.25-.13.31-.4.31a9.35,9.35,0,0,0-2.56.46c-3.57,1.22-5.36,3.68-5.36,6.2,0,2.7,1.93,4.17,5.59,4.41.33,0,.46.08.46.31a7.36,7.36,0,0,1-.23,1.81c-.06.31-.15.44-.4.44-3.7,0-7.75-2.12-7.75-6.49,0-3,1.49-5,4-6.66Zm4.16,2.27c.11-.09.19-.06.32,0a9.52,9.52,0,0,1,2,2.25.21.21,0,0,1-.06.33l-.88.65a.22.22,0,0,1-.36-.06,10.44,10.44,0,0,0-2.12-2.43Zm1.87-1.37c.13-.08.19-.06.31,0a8.47,8.47,0,0,1,2,2.16.25.25,0,0,1-.06.38l-.84.65a.22.22,0,0,1-.36-.07,10,10,0,0,0-2.1-2.41Z"/><path d="M272.49,19.42a5.76,5.76,0,0,0,0-1.43,9.29,9.29,0,0,1,2.44.9.39.39,0,0,1,.14.57,3.52,3.52,0,0,0-.33.82c-.17.88-.38,1.8-.59,2.71a25.35,25.35,0,0,1,3.28,2c.21.13.19.24.12.44a18,18,0,0,1-.9,1.81c-.06.11-.13.15-.19.15a.42.42,0,0,1-.25-.15,17,17,0,0,0-2.75-2,13,13,0,0,1-4.24,5.52c-.19.15-.3.23-.42.23a.55.55,0,0,1-.32-.15,4.32,4.32,0,0,0-1.82-.86,11.59,11.59,0,0,0,4.7-5.69,14.19,14.19,0,0,0-4.16-1.28,14.51,14.51,0,0,1-2.56,4.2,3.46,3.46,0,0,1-2.69,1.16c-1.22,0-2.5-.84-2.5-2.88,0-2.61,2.69-4.64,6.2-4.64.69-1.74,1.22-3.21,1.74-5l-2.9.34a4,4,0,0,0-.94.23,1.17,1.17,0,0,1-.38.08.35.35,0,0,1-.34-.23A12.64,12.64,0,0,1,262.2,14a7.69,7.69,0,0,0,1.85.13,23.18,23.18,0,0,0,3.26-.27,2.55,2.55,0,0,0,1-.36.47.47,0,0,1,.27-.08.49.49,0,0,1,.29.08,6.74,6.74,0,0,1,1.43,1.15.51.51,0,0,1,.19.36c0,.13-.08.23-.21.36a2.78,2.78,0,0,0-.57,1.09c-.54,1.43-1.13,3.07-1.76,4.58a16.87,16.87,0,0,1,4.07,1.05A20.36,20.36,0,0,0,272.49,19.42Zm-11.08,5.86c0,.67.23,1,.73,1a1.69,1.69,0,0,0,1.22-.8,13.62,13.62,0,0,0,1.53-2.56C262.75,23,261.41,24.08,261.41,25.28Z"/><path d="M290.43,21.16a6.31,6.31,0,0,1,3.34-.94,4.87,4.87,0,0,1,5.2,5c0,3.5-2.83,5.75-7.32,5.75-2.65,0-4.24-1.14-4.24-3.09a2.79,2.79,0,0,1,3-2.56,3.81,3.81,0,0,1,3.94,3.07,3.17,3.17,0,0,0,2.14-3.19,3.06,3.06,0,0,0-3.29-3.18,8.56,8.56,0,0,0-5.38,2.23c-.61.55-1.19,1.15-1.82,1.79-.15.14-.26.23-.36.23a.54.54,0,0,1-.31-.19,8.83,8.83,0,0,1-1.24-1.37c-.13-.17-.07-.31.1-.48a50.43,50.43,0,0,0,5-4.64c1.3-1.35,2.29-2.39,3.25-3.59-1.26.23-2.75.52-4.05.8a5.46,5.46,0,0,0-.88.25,1.7,1.7,0,0,1-.42.1.47.47,0,0,1-.46-.35,9.5,9.5,0,0,1-.74-2.27,10.59,10.59,0,0,0,1.95,0c1.28-.12,3.13-.4,4.77-.71a5.53,5.53,0,0,0,1.15-.32,1.23,1.23,0,0,1,.4-.17.81.81,0,0,1,.49.17,7.93,7.93,0,0,1,1.4,1.35.69.69,0,0,1,.23.5.54.54,0,0,1-.35.5,3.4,3.4,0,0,0-.93.68c-1.53,1.49-2.94,3-4.53,4.49Zm0,6c-.61,0-1,.35-1,.79,0,.65.57,1.09,1.83,1.09a4.72,4.72,0,0,0,1-.08C292,27.8,291.33,27.15,290.45,27.15Z"/></g></g></svg>