<svg xmlns="http://www.w3.org/2000/svg" viewBox="0 0 402.07 126.64"><defs><style>.cls-1,.cls-2,.cls-3{fill:#fff;stroke:#000;stroke-miterlimit:10;}.cls-1{stroke-width:4.21px;}.cls-2{stroke-width:4.3px;}.cls-3{stroke-width:4.3px;}</style></defs><title>アセット 195</title><g id="レイヤー_2" data-name="レイヤー 2"><g id="レイヤー_1-2" data-name="レイヤー 1"><polygon class="cls-1" points="399.92 40.55 41.62 40.55 60.35 2.11 399.92 2.11 399.92 40.55"/><rect class="cls-2" x="53.07" y="40.54" width="346.85" height="69.43"/><circle class="cls-3" cx="54.61" cy="72.03" r="52.46"/><path d="M224.36,72.76c-5.37-.27-8.22-.31-10.91-.34a21.24,21.24,0,0,0,14.86,14.31c.23.07.4.14.4.24s-.06.17-.3.31c-1.22.74-2.79,1.25-3.74,2.14a.51.51,0,0,1-.37.13c-.41,0-8.4-3-12.72-13.6A23.57,23.57,0,0,1,199.1,89.69a1.28,1.28,0,0,1-.34.07.52.52,0,0,1-.37-.14,11.64,11.64,0,0,0-3.47-2c-.3-.14-.41-.21-.41-.28s.17-.1.34-.17c8.13-2.31,12.75-7.78,14.25-14.75-2.38,0-5,.07-10.13.34h-.14c-.47,0-.47-.41-.47-1.57,0-1.86,0-2,.61-2,5.51.31,8.06.41,10.54.41a4.76,4.76,0,0,1,.07-.75c0-.64.06-4.31.06-5a11.14,11.14,0,0,0-.34-3.09.51.51,0,0,1,0-.21c0-.1.07-.17.27-.17s4.69.24,4.69,1.06c0,.27-.34.64-.57,1a3.65,3.65,0,0,0-.48,1.7c0,.51-.17,4.28-.21,4.79l-.06.58c2.65,0,5.67,0,11.45-.38.45,0,.51.14.51,1.8,0,.58,0,1.16,0,1.5a.39.39,0,0,1-.41.24Z"/><path d="M278.53,73c.17,0,.27.1.27.3a12.11,12.11,0,0,1,.07,1.36c0,.58,0,1.16-.07,1.43s-.21.24-.34.24c-3.13-.24-5.44-.27-7.51-.31,0,2.55,0,6.36.06,9.11,3.3,0,6.53-.06,12.41-.34a.34.34,0,0,1,.38.34,13,13,0,0,1,.06,1.36c0,.58,0,1.19-.06,1.43s-.21.27-.34.27c-6.87-.3-10.78-.34-14.76-.34-3.67,0-7.82,0-14.35.34-.47,0-.47-.23-.47-1.63,0-1.7,0-1.77.47-1.77,2.25.17,4.19.24,5.89.31,0-2.21,0-5.95,0-8.43a40.64,40.64,0,0,0-.31-5.92v-.17c0-.13,0-.17.11-.17a24,24,0,0,1,4.18.85.49.49,0,0,1,.41.51,1.13,1.13,0,0,1-.38.75,1.81,1.81,0,0,0-.68,1.16c-.17,1.25-.17,3.19-.17,11.45h4.11c.07-3.46.11-8.46.11-10.67,0-2.89,0-5.78-.07-8.47-2.82,0-4.73.07-10.3.31h-.07c-.17,0-.34-.07-.34-.27s0-.75,0-1.29,0-1.13,0-1.4.17-.37.41-.37c4.55.3,6.56.34,8.53.34,6.43,0,6.66,0,14.62-.34a.33.33,0,0,1,.37.34,9.69,9.69,0,0,1,.07,1.32,12.09,12.09,0,0,1-.07,1.43c0,.14-.17.24-.27.24h-.07c-4.59-.17-6.59-.24-8.67-.27,0,.13-.2.27-.44.44a.61.61,0,0,0-.37.61c0,1.77,0,4,0,6.22,2.07,0,4.21-.07,7.51-.3Z"/><path d="M58.82,66.16A97.44,97.44,0,0,0,65.55,74L62,65l6-.46V75.17l5-5.73,3,4.69-7.28,2.66a25.51,25.51,0,0,0,9.07,4.63,61.72,61.72,0,0,1,1.33-7.62c1.91-8.09,5.14-20-6.2-28.59S48.77,42.3,41.65,47.82c-.28.22-.58.44-.89.65C49,54,54.17,60.38,58.82,66.16Z"/><path d="M52.74,81.65c5.7,9.08,13,11.31,23.09,12.86a22,22,0,0,0,3.87,6.76l2.1-1.79a19.75,19.75,0,0,1-3.46-6.15,27.18,27.18,0,0,1-.84-7.23C66.83,83.45,61.18,76.44,55.23,69,50.42,63.06,45,56.36,36.1,51a77.67,77.67,0,0,1-16.94,4.58,88,88,0,0,1,15.38,6.75,13.37,13.37,0,0,1,.07,1.42A11.07,11.07,0,0,1,34,67.4a11.61,11.61,0,0,1-4.25-.55l-.77,1.67a11.52,11.52,0,0,0,4.22.71,20.46,20.46,0,0,1-4.22,5.37,2.1,2.1,0,0,0-.62,2,2,2,0,0,0,1.41,1.44c2.74.77,4.73,2.67,5.51,9.43a2.36,2.36,0,0,0,.88,1.79,2.38,2.38,0,0,0,2,.49,24.33,24.33,0,0,1,6-.29c8.15.74,14.26,7.37,14.86,16.13l2.75-.19C61.07,95.28,53.93,87.6,44.4,86.73A27.14,27.14,0,0,0,38,87c-.54-4.53-1.77-9.26-6.3-11.18,2.39-2.42,5.58-6.61,5.72-11.76C44.29,68.74,48,74.1,52.74,81.65Z"/><path d="M194.5,13.35a18.51,18.51,0,0,0,9,6.26,5.5,5.5,0,0,0-.91,1.59c-.14.38-.21.55-.38.55a1.81,1.81,0,0,1-.5-.19,23.53,23.53,0,0,1-2.87-1.49V21.6c0,.21,0,.23-.21.23s-.8,0-2.73,0h-1.5v2.35h2.4c2,0,2.73,0,2.85,0s.26,0,.26.23v1.6c0,.21,0,.23-.26.23s-.81,0-2.85,0h-2.4v2.56h5c1.91,0,2.58,0,2.71,0s.23,0,.23.23V30.5c0,.21,0,.24-.23.24s-.8,0-2.71,0h-12c-1.93,0-2.6,0-2.73,0s-.23,0-.23-.24V28.87c0-.21,0-.23.23-.23s.8,0,2.73,0h4.75V26.12H190c-2,0-2.73,0-2.86,0s-.23,0-.23-.23v-1.6c0-.21,0-.23.23-.23s.82,0,2.86,0h2.12V21.79H190.8c-1.93,0-2.58,0-2.7,0s-.23,0-.23-.23V20.24a25.5,25.5,0,0,1-2.57,1.45,2,2,0,0,1-.52.19c-.15,0-.23-.15-.4-.53a4.35,4.35,0,0,0-1-1.39c3.93-1.78,6.34-3.71,8.13-6.34a6.53,6.53,0,0,0,.8-1.51,15.26,15.26,0,0,1,2.2.44c.27.07.38.17.38.32s-.06.21-.21.31Zm1.39,6.47c1.44,0,2.16,0,2.49,0a18.52,18.52,0,0,1-5-4.73,19.86,19.86,0,0,1-4.82,4.73c.37,0,1.07,0,2.28,0Z"/><path d="M217.68,18.83c-2.05,0-2.75,0-2.87,0s-.23,0-.23-.23V17c0-.24,0-.24.23-.24s.82,0,2.87,0h2.12V15.45a24.34,24.34,0,0,0-.14-3,17.5,17.5,0,0,1,2.2.17c.21,0,.34.1.34.21a1.21,1.21,0,0,1-.15.44,7.52,7.52,0,0,0-.12,2.12v1.41h3c2,0,2.75,0,2.89,0s.21,0,.21.24v1.61c0,.21,0,.23-.21.23s-.86,0-2.89,0h-2.19A21.3,21.3,0,0,0,228.56,26a5.41,5.41,0,0,0-1,1.41c-.15.29-.23.44-.33.44s-.24-.13-.45-.34a20.87,20.87,0,0,1-4.89-7c0,1.89,0,3.76,0,5.39h.49c1.64,0,2.16,0,2.29,0s.23,0,.23.23v1.54c0,.23,0,.25-.23.25s-.65,0-2.29,0h-.46c0,2,.06,3.38.06,3.59s0,.23-.23.23H220c-.23,0-.25,0-.25-.23s0-1.62.08-3.59h-.37c-1.64,0-2.17,0-2.29,0s-.23,0-.23-.25V26.05c0-.21,0-.23.23-.23s.65,0,2.29,0h.39c0-1.63.07-3.5.07-5.37a19.69,19.69,0,0,1-4.79,7c-.21.19-.34.32-.44.32s-.19-.13-.34-.4a7.17,7.17,0,0,0-.94-1.24v2c0,2.05,0,3.08,0,3.19s0,.23-.23.23h-1.78c-.19,0-.21,0-.21-.23s0-1.14,0-3.19V23.43c0-.69,0-1.53,0-2.37-.4.52-.8,1.05-1.22,1.53-.15.17-.27.27-.38.27s-.17-.12-.23-.38a6.14,6.14,0,0,0-.71-1.8,18.66,18.66,0,0,0,4-6.83,7.44,7.44,0,0,0,.31-1.49,14.87,14.87,0,0,1,2,.65c.23.11.33.17.33.32s-.06.23-.23.38a2,2,0,0,0-.42.84,28.56,28.56,0,0,1-1.36,3.06v8.51a19.52,19.52,0,0,0,5.5-7.29Z"/><path d="M244.35,17.36c-2.56.48-4.8.93-7,1.39-.8.19-1,.23-1.32.33a1.16,1.16,0,0,1-.47.17.48.48,0,0,1-.39-.31,13.94,13.94,0,0,1-.78-2.27,29,29,0,0,0,3.34-.36c2.58-.38,7.2-1.07,12.62-1.78.31,0,.42.08.44.23a12.46,12.46,0,0,1,.23,1.85c0,.25-.13.31-.4.31a9.35,9.35,0,0,0-2.56.46c-3.57,1.22-5.36,3.68-5.36,6.2,0,2.7,1.93,4.17,5.59,4.41.33,0,.46.08.46.31a7.36,7.36,0,0,1-.23,1.81c-.06.31-.15.44-.4.44-3.7,0-7.75-2.12-7.75-6.49,0-3,1.49-5,4-6.66Zm4.16,2.27c.11-.09.19-.06.32,0a9.52,9.52,0,0,1,2,2.25.21.21,0,0,1-.06.33l-.88.65a.22.22,0,0,1-.36-.06,10.44,10.44,0,0,0-2.12-2.43Zm1.87-1.37c.13-.08.19-.06.31,0a8.47,8.47,0,0,1,2,2.16.25.25,0,0,1-.06.38l-.84.65a.22.22,0,0,1-.36-.07,10,10,0,0,0-2.1-2.41Z"/><path d="M272.49,19.42a5.76,5.76,0,0,0,0-1.43,9.29,9.29,0,0,1,2.44.9.39.39,0,0,1,.14.57,3.52,3.52,0,0,0-.33.82c-.17.88-.38,1.8-.59,2.71a25.35,25.35,0,0,1,3.28,2c.21.13.19.24.12.44a18,18,0,0,1-.9,1.81c-.06.11-.13.15-.19.15a.42.42,0,0,1-.25-.15,17,17,0,0,0-2.75-2,13,13,0,0,1-4.24,5.52c-.19.15-.3.23-.42.23a.55.55,0,0,1-.32-.15,4.32,4.32,0,0,0-1.82-.86,11.59,11.59,0,0,0,4.7-5.69,14.19,14.19,0,0,0-4.16-1.28,14.51,14.51,0,0,1-2.56,4.2,3.46,3.46,0,0,1-2.69,1.16c-1.22,0-2.5-.84-2.5-2.88,0-2.61,2.69-4.64,6.2-4.64.69-1.74,1.22-3.21,1.74-5l-2.9.34a4,4,0,0,0-.94.23,1.17,1.17,0,0,1-.38.08.35.35,0,0,1-.34-.23A12.64,12.64,0,0,1,262.2,14a7.69,7.69,0,0,0,1.85.13,23.18,23.18,0,0,0,3.26-.27,2.55,2.55,0,0,0,1-.36.47.47,0,0,1,.27-.08.49.49,0,0,1,.29.08,6.74,6.74,0,0,1,1.43,1.15.51.51,0,0,1,.19.36c0,.13-.08.23-.21.36a2.78,2.78,0,0,0-.57,1.09c-.54,1.43-1.13,3.07-1.76,4.58a17.35,17.35,0,0,1,4.07,1.05A20.36,20.36,0,0,0,272.49,19.42Zm-11.08,5.86c0,.67.23,1,.73,1a1.69,1.69,0,0,0,1.22-.8,13.62,13.62,0,0,0,1.53-2.56C262.75,23,261.41,24.08,261.41,25.28Z"/><path d="M290.43,21.16a6.31,6.31,0,0,1,3.34-.94,4.87,4.87,0,0,1,5.2,5c0,3.5-2.83,5.75-7.32,5.75-2.65,0-4.24-1.13-4.24-3.09a2.79,2.79,0,0,1,3-2.56,3.81,3.81,0,0,1,3.94,3.07,3.17,3.17,0,0,0,2.14-3.19,3.06,3.06,0,0,0-3.29-3.18,8.56,8.56,0,0,0-5.38,2.23c-.61.55-1.19,1.15-1.82,1.79-.15.14-.26.23-.36.23a.54.54,0,0,1-.31-.19,8.83,8.83,0,0,1-1.24-1.37c-.13-.17-.07-.31.1-.48a50.43,50.43,0,0,0,5-4.64c1.3-1.34,2.29-2.39,3.25-3.59-1.26.23-2.75.52-4.05.8a5.46,5.46,0,0,0-.88.25,1.7,1.7,0,0,1-.42.1.47.47,0,0,1-.46-.35,9.5,9.5,0,0,1-.74-2.27,10.59,10.59,0,0,0,1.95,0c1.28-.12,3.13-.4,4.77-.71a5.53,5.53,0,0,0,1.15-.32,1.23,1.23,0,0,1,.4-.17.81.81,0,0,1,.49.17,7.93,7.93,0,0,1,1.4,1.35.69.69,0,0,1,.23.5.54.54,0,0,1-.35.5,3.4,3.4,0,0,0-.93.68c-1.53,1.49-2.94,3-4.53,4.49Zm0,6c-.61,0-1,.35-1,.79,0,.65.57,1.1,1.83,1.1a4.68,4.68,0,0,0,1-.09C292,27.8,291.33,27.15,290.45,27.15Z"/></g></g></svg>