<svg xmlns="http://www.w3.org/2000/svg" viewBox="0 0 402.07 126.31"><defs><style>.cls-1,.cls-2,.cls-3{fill:#fff;stroke:#000;stroke-miterlimit:10;}.cls-1{stroke-width:4.21px;}.cls-2{stroke-width:4.3px;}.cls-3{stroke-width:4.3px;}</style></defs><title>アセット 204</title><g id="レイヤー_2" data-name="レイヤー 2"><g id="レイヤー_1-2" data-name="レイヤー 1"><polygon class="cls-1" points="399.92 40.55 41.62 40.55 60.35 2.11 399.92 2.11 399.92 40.55"/><rect class="cls-2" x="53.07" y="40.54" width="346.85" height="69.43"/><path d="M188.16,73.71c-.27,1.26-.1,5.54-.82,9.25a17.94,17.94,0,0,0,4.25-8.09c0-.27.14-.38.31-.38s3.5,1,3.5,1.53c0,.24-.31.48-.88.75a1,1,0,0,0-.62.68c-1.19,3.54-3.74,7.79-4.31,7.79a.36.36,0,0,1-.24-.07,7.34,7.34,0,0,0-2.31-.78c-1.26,4.62-4,5.27-5.82,5.27a4.11,4.11,0,0,1-.68,0,.51.51,0,0,1-.54-.41,11.93,11.93,0,0,0-1.84-3.12.25.25,0,0,1-.06-.17s0,0,.06,0,.14,0,.21,0a16.43,16.43,0,0,0,2.89.44c3.06,0,3.26-7.72,3.33-10.06h-3.78c-.1,1.12-.17,1.32-.51,1.32a11.15,11.15,0,0,1-1.19,0,12.34,12.34,0,0,1-1.7-.11c-.2-.06-.3-.13-.3-.27s0-.07,0-.1a28.18,28.18,0,0,0,1.77-9.62v-.1c0-.14.07-.21.17-.21a.41.41,0,0,1,.2,0,24.43,24.43,0,0,0,4.29.3h1V66c0-.75,0-2.18,0-2.18s-.78,0-1.22,0c-1.13,0-3.1.17-4.39.24h-.07c-.27,0-.37-.28-.37-2.42v-.3c.07-.27.17-.38.34-.38h.07c1.39.11,2.75.17,4.48.17,1.16,0,1.81-.06,4-.17h.1c.24,0,.31.11.31.31v.1c-.17,2.38-.17,3.71-.17,4.59s0,1.8.2,4.25v.27c0,.17,0,.41-1.93.41a6.81,6.81,0,0,1-.85,0c-.28-.07-.55,0-.55-.38v-.13a6.26,6.26,0,0,0-.88,0c-.41,0-1.06,0-1.67,0-.13.37-.58,2.44-.71,3.29,2.07,0,4.93,0,6.7-.17.23,0,.27,0,.27.11Zm11.49,12.75c0,1.7-1.43,3.47-5.07,3.47-.2,0-.37-.14-.47-.48a12.67,12.67,0,0,0-1.94-2.92.31.31,0,0,1-.1-.17c0-.07.1-.14.24-.14s.13,0,.2,0a15.25,15.25,0,0,0,2.14.23c1.09,0,1.67-.34,1.7-1.42,0-1.67,0-3.1,0-4.32,0-2.45,0-4,0-4.93a45.21,45.21,0,0,0-.2-5.78c-.85,0-1.74,0-2.62,0a26.9,26.9,0,0,1-1.7,3.1.69.69,0,0,1-.31.13.36.36,0,0,1-.17,0,11.25,11.25,0,0,0-3-.48c-.17,0-.27-.06-.27-.17a.49.49,0,0,1,.1-.2,24.1,24.1,0,0,0,5.34-11.86c0-.17.1-.31.31-.31s3.67,1.15,3.67,1.77c0,.24-.34.44-.68.71a1.51,1.51,0,0,0-.68.82c-.24.61-.72,2.07-1.43,3.77h1.94c2.75,0,5.3,0,9.72-.27h.07c.27,0,.34.24.34,1.63,0,.54,0,1.12-.07,1.39s-.2.24-.34.24c-2.52-.13-4.59-.2-6.29-.24l-.31.24c-.34.27-.37.65-.37,3.4,0,2.55.07,9,.24,12.61Zm9.55-3.53a13.54,13.54,0,0,0-3,1.25.5.5,0,0,1-.27.1c-.88,0-5.23-8.15-5.23-9.11,0-.17.06-.23.27-.27s1.66-.58,2-.58.34,0,.51.34c.55,1.09,2.76,5.41,5.82,7.86.13.1.24.17.24.24S209.47,82.86,209.2,82.93Z"/><path d="M240.58,85.31a.29.29,0,0,1,.31.3c0,.24.07.92.07,1.6a12.18,12.18,0,0,1-.07,1.29c0,.17-.2.24-.34.24-7-.27-10.44-.31-14.45-.31-3.74,0-7.21,0-13.83.31-.45,0-.48,0-.48-1.63s0-1.8.34-1.8h.14c4,.27,6.79.34,9.11.34,1.15,0,2.21,0,3.26,0,0-1.67,0-3.67,0-5.74-1.9,0-4,.1-7.17.34-.34,0-.48,0-.48-1.67s.07-1.73.48-1.73c3.16.2,5.3.3,7.17.34,0-1.81,0-3.51,0-5.1-1.73,0-2.79,0-3.94,0-.58,0-1.19,0-1.94,0-1.91,3.84-3.88,6.39-4.32,6.39a1,1,0,0,1-.24-.07,8.72,8.72,0,0,0-3.09-1.09c-.24-.07-.38-.13-.38-.24s0-.1.14-.17c4.59-3.63,7.48-11.76,7.55-13.76,0-.17.13-.24.34-.24s2.14.78,3.36,1.25c.41.17.65.35.65.58s-.2.48-.68.82a2.87,2.87,0,0,0-1,1.32l-.95,2.35c1.22,0,2.92,0,4.52,0,0-1.83,0-3.19,0-3.5a50.49,50.49,0,0,0-.34-5.27.34.34,0,0,1,0-.2c0-.14.07-.17.31-.17,1,0,4.55.44,4.55,1.15,0,.24-.3.58-.54,1-.41.74-.48.68-.51,3,0,.27,0,1.87,0,3.94,3.05,0,5,0,9.65-.31.37,0,.41.38.41,1.74,0,1.63-.07,1.73-.41,1.73-4.18-.24-6.7-.3-9.65-.3v5.1c2,0,3.94-.11,7.27-.34.37,0,.41.23.41,2a9.71,9.71,0,0,1,0,1.19.42.42,0,0,1-.37.24c-3.13-.24-5.3-.31-7.27-.34v5.74c3.36,0,6.35,0,12.51-.3Z"/><path d="M256.33,82.76c0,.34-.1.57-1.7.57-.92,0-1.63,0-1.63-.47v-.07c0-.65,0-1.5.06-2.41-.37,0-.95-.07-1.46-.07s-1.19,0-1.56.07c0,1.52,0,3,.07,4.35,0,.58-.07.61-1.7.61s-1.74-.2-1.74-.55v-.1c.31-4.65.38-9.75.38-12.54,0-3.5-.07-6.26-.21-9,0-.14,0-.21,0-.31s.07-.2.24-.2.17,0,.27,0c1.09.1,2.58.17,4.32.17s2-.07,4.21-.2c.38,0,.44.13.44.47-.23,2.69-.23,5.81-.23,8.74,0,2.55.06,8.06.27,10.74Zm-4.76-17.34c-.95,0-1.53,0-1.53,0S250,67.56,250,70c.41,0,1.09,0,1.6,0s1.22,0,1.6,0c0-2.17-.11-4.52-.11-4.52s-.34,0-1,0Zm1.6,7.31c-.38,0-1,0-1.57,0s-1.26,0-1.63,0c0,1.32,0,3,0,4.86.41,0,1.06,0,1.57,0s1.15,0,1.53,0C253.13,75.75,253.17,74,253.17,72.73ZM275,72.9c-3.77-.38-7.31-.41-9.45-.41s-3.91.07-8.36.34c-.34,0-.41-.1-.41-1.57s0-1.63.41-1.63c3.33.27,5.06.34,6.83.34V67.29c-1.53,0-3,.07-5.47.2-.31,0-.38,0-.38-1.46s.07-1.53.45-1.53c2.38.2,3.91.2,5.33.2v-.34a27.37,27.37,0,0,0-.47-5v-.17c0-.17,0-.2.23-.2.55,0,4.36.4,4.36,1.12,0,.27-.31.61-.51,1-.38.71-.34.64-.48,2.85a5,5,0,0,0,0,.68c1.29,0,2.58-.06,5.2-.23.17,0,.41,0,.41,1.56a6.7,6.7,0,0,1-.07,1.26c0,.13-.21.2-.31.2h0c-2.55-.13-3.74-.17-5.24-.2V70c2.11,0,4.86-.17,8-.41.24,0,.38.24.38,1.67,0,.54,0,1.09-.07,1.43,0,.13-.17.24-.27.24Zm-4.59,13c0,2-1.12,4.25-5.1,4.25q-.3,0-.51-.51c-.64-1.53-1.83-2.07-2.65-3-.1-.11-.17-.17-.17-.24s0-.07.14-.07a1.39,1.39,0,0,0,.17,0,19.72,19.72,0,0,0,2.75.28c1.29,0,2-.34,2-1.33.07-1.33.07-4,.07-5.54v-2h-1.46c-2.18,0-3.95.07-8.33.34a.33.33,0,0,1-.34-.31c0-.27,0-.78,0-1.32,0-1.64,0-1.64.38-1.64,4.21.34,5.95.34,8.33.34H267a14.14,14.14,0,0,0-.27-2c0-.06,0-.1,0-.13s.1-.21.27-.21,4,.34,4,1a.87.87,0,0,1-.27.54c-.31.41-.41.41-.44.75,1.39-.07,3-.17,4.62-.3h0c.21,0,.34.27.34,1.7,0,.54,0,1.12-.06,1.46a.34.34,0,0,1-.28.24h0c-1.67-.17-3.26-.28-4.69-.31v2.92c0,1.84.17,3,.2,4.93Zm-7.51-1.49c-.07,0-.14-.07-.21-.14a19.48,19.48,0,0,0-4.24-3.64c-.11-.06-.14-.1-.14-.17,0-.37,1.5-1.36,1.84-1.56a.26.26,0,0,1,.17-.1.34.34,0,0,1,.17.07,17.43,17.43,0,0,1,4.45,2.88.29.29,0,0,1,.1.21,14.63,14.63,0,0,1-2,2.38C263,84.35,263,84.39,262.89,84.39Z"/><path d="M284.14,89.32c.51-4.59.75-12,.88-17.58-.3.37-3.8,4.73-4.55,4.73a.39.39,0,0,1-.27-.07,9.56,9.56,0,0,0-2.86-1.06c-.2,0-.34-.1-.34-.17s.07-.13.17-.2c5.85-4.15,10.51-12,10.91-14.28,0-.13.07-.2.17-.2.58,0,4,1.46,4,2.11,0,.23-.27.47-.78.67s-.68.14-.95.68a39.91,39.91,0,0,1-2.31,3.57c.23.07.4.17.54.21a.42.42,0,0,1,.34.41,1.12,1.12,0,0,1-.34.64,2,2,0,0,0-.51,1.63c-.14,4.22-.31,9.76-.31,14.28,0,1.77,0,3.37.11,4.69,0,.17-.11.34-1.94.34-1.6,0-1.94,0-1.94-.34Zm23.53-18.19c0,.13-.24.27-.34.27-5.1.37-5.85.44-8.84.88l-.72.11c2,10.13,7.62,12.92,8.3,12.92s1.6-1,1.83-3.81c0-.21.07-.27.17-.27s.14.06.21.17A12,12,0,0,0,311,84.15a.52.52,0,0,1,.24.51c-.92,3-2.55,4.66-4.56,4.66A5.11,5.11,0,0,1,304,88.4c-5.61-3.54-8.09-9.52-9.35-15.47l-4.86,1h-.1a.39.39,0,0,1-.41-.24,13.43,13.43,0,0,1-.37-2.68v-.14c0-.34.17-.41.37-.41,2.14-.13,3.6-.27,4.86-.44-.27-1.73-.47-3.47-.61-5.1s-.27-3-.48-3.91a2.49,2.49,0,0,1-.06-.37c0-.14.06-.21.2-.21s.14,0,.2,0c3.68.44,4.42.58,4.42,1.12a3.11,3.11,0,0,1-.51,1.19,2.61,2.61,0,0,0-.2,1.12,49.33,49.33,0,0,0,.27,5.68l.75-.1c3.26-.45,4.08-.62,8.74-1.6h.06a.37.37,0,0,1,.38.3,19.34,19.34,0,0,1,.41,2.89Zm-5.17-3.54a23.35,23.35,0,0,0-4.11-2.82c-.14-.07-.28-.1-.28-.24a5.68,5.68,0,0,1,1.77-2.21c.65,0,4.79,2.32,4.79,2.76s-1.36,2.68-1.8,2.68A.49.49,0,0,1,302.5,67.59Z"/><circle class="cls-3" cx="54.61" cy="71.71" r="52.46"/><path d="M69.4,57c-3.17-2.56-2.45-7.23,1.74-12.39.34-.43,0-1-.64-1H38.71c-.62,0-1,.58-.63,1C42.26,49.78,43,54.45,39.81,57c-3.37,2.73-9.21,7-9.21,15.37s3.49,15.07,7.81,20.9a98.06,98.06,0,0,1,7,10.5H63.83a98.06,98.06,0,0,1,7-10.5c4.32-5.83,7.81-12.5,7.81-20.9S72.77,59.74,69.4,57Z"/><path d="M197.33,13.35a18.56,18.56,0,0,0,9,6.26,5.4,5.4,0,0,0-.9,1.6c-.15.37-.21.54-.38.54a1.71,1.71,0,0,1-.5-.19,23.67,23.67,0,0,1-2.88-1.49V21.6c0,.21,0,.23-.21.23s-.8,0-2.73,0h-1.49v2.36h2.39c2,0,2.73,0,2.86,0s.25,0,.25.23v1.6c0,.21,0,.23-.25.23s-.82,0-2.86,0h-2.39v2.56h5c1.91,0,2.58,0,2.7,0s.24,0,.24.23v1.64c0,.21,0,.23-.24.23s-.79,0-2.7,0h-12c-1.93,0-2.61,0-2.73,0s-.23,0-.23-.23V28.87c0-.21,0-.23.23-.23s.8,0,2.73,0H195V26.12h-2.12c-2,0-2.73,0-2.85,0s-.23,0-.23-.23v-1.6c0-.21,0-.23.23-.23s.82,0,2.85,0H195V21.79h-1.34c-1.93,0-2.58,0-2.71,0s-.23,0-.23-.23V20.24a26.48,26.48,0,0,1-2.56,1.45,1.91,1.91,0,0,1-.53.19c-.14,0-.23-.15-.4-.53a4.28,4.28,0,0,0-1-1.38c3.92-1.79,6.34-3.72,8.12-6.34a6.59,6.59,0,0,0,.8-1.52,15.08,15.08,0,0,1,2.21.45c.27.06.37.16.37.31s-.06.21-.21.31Zm1.39,6.47c1.45,0,2.16,0,2.5,0a18.24,18.24,0,0,1-5-4.73,19.72,19.72,0,0,1-4.83,4.73c.38,0,1.07,0,2.29,0Z"/><path d="M220.52,18.83c-2.06,0-2.75,0-2.88,0s-.23,0-.23-.23V17c0-.23,0-.23.23-.23s.82,0,2.88,0h2.12V15.45a22.24,22.24,0,0,0-.15-3,17.66,17.66,0,0,1,2.21.17c.21,0,.33.1.33.21a1.14,1.14,0,0,1-.14.44,6.9,6.9,0,0,0-.13,2.12v1.41h3c2,0,2.75,0,2.9,0s.21,0,.21.23v1.61c0,.21,0,.23-.21.23s-.86,0-2.9,0h-2.18A21.26,21.26,0,0,0,231.39,26a5.37,5.37,0,0,0-1,1.41c-.15.29-.23.44-.34.44s-.23-.13-.44-.34a20.59,20.59,0,0,1-4.89-7c0,1.89,0,3.76,0,5.4h.48c1.64,0,2.16-.05,2.29-.05s.23,0,.23.24v1.53c0,.23,0,.25-.23.25s-.65,0-2.29,0h-.46c0,2,.06,3.38.06,3.59s0,.23-.23.23h-1.8c-.23,0-.26,0-.26-.23s.05-1.62.09-3.59h-.38c-1.64,0-2.16,0-2.29,0s-.23,0-.23-.25V26.06c0-.21,0-.24.23-.24s.65.05,2.29.05h.4c0-1.64.06-3.51.06-5.38a19.58,19.58,0,0,1-4.78,7c-.21.19-.34.32-.45.32s-.18-.13-.33-.4a7.19,7.19,0,0,0-.95-1.24v2c0,2.05.05,3.08.05,3.19s0,.23-.24.23h-1.78c-.19,0-.21,0-.21-.23s0-1.14,0-3.19V23.43c0-.69,0-1.53,0-2.37-.4.52-.79,1.05-1.21,1.53-.15.17-.28.27-.38.27s-.17-.12-.23-.37a5.84,5.84,0,0,0-.72-1.81,18.48,18.48,0,0,0,4-6.82,7.77,7.77,0,0,0,.32-1.49,13.85,13.85,0,0,1,2,.65c.23.1.34.16.34.31s-.06.23-.23.38a2,2,0,0,0-.42.84,28.65,28.65,0,0,1-1.37,3.06v8.51a19.34,19.34,0,0,0,5.5-7.29Z"/><path d="M247.19,17.36c-2.56.49-4.81.93-7.06,1.39-.79.19-1,.23-1.32.33a1.12,1.12,0,0,1-.46.17.48.48,0,0,1-.4-.31,15.73,15.73,0,0,1-.78-2.27,29,29,0,0,0,3.34-.36c2.58-.37,7.2-1.07,12.62-1.78.32,0,.42.08.44.23a11.26,11.26,0,0,1,.23,1.85c0,.25-.12.31-.4.31a9.42,9.42,0,0,0-2.56.46c-3.57,1.22-5.35,3.68-5.35,6.2,0,2.71,1.93,4.18,5.58,4.41.34,0,.46.08.46.31a7.36,7.36,0,0,1-.23,1.81c-.06.31-.14.44-.4.44-3.69,0-7.74-2.12-7.74-6.49,0-3,1.49-5,4-6.66Zm4.16,2.27c.1-.08.18-.06.31,0a10,10,0,0,1,2,2.25.21.21,0,0,1-.07.33l-.88.66a.22.22,0,0,1-.36-.07,10.44,10.44,0,0,0-2.12-2.43Zm1.86-1.36c.13-.09.19-.07.32,0a8.59,8.59,0,0,1,2,2.16.24.24,0,0,1-.06.38l-.84.65c-.17.13-.27.06-.36-.06a9.44,9.44,0,0,0-2.1-2.42Z"/><path d="M275.33,19.42a6.92,6.92,0,0,0,0-1.43,9,9,0,0,1,2.43.91.38.38,0,0,1,.15.56,3.73,3.73,0,0,0-.34.82c-.16.88-.37,1.81-.58,2.71a24.73,24.73,0,0,1,3.27,2c.21.12.19.23.13.44a16.81,16.81,0,0,1-.91,1.8c-.06.11-.12.15-.18.15a.4.4,0,0,1-.26-.15,16.79,16.79,0,0,0-2.75-2A12.85,12.85,0,0,1,272,30.8c-.19.15-.29.23-.42.23a.53.53,0,0,1-.31-.15,4.42,4.42,0,0,0-1.83-.86,11.54,11.54,0,0,0,4.7-5.69A14.33,14.33,0,0,0,270,23.05a14.71,14.71,0,0,1-2.57,4.2,3.42,3.42,0,0,1-2.68,1.16c-1.22,0-2.5-.84-2.5-2.88,0-2.6,2.69-4.64,6.19-4.64a51.62,51.62,0,0,0,1.74-5l-2.89.34a4.66,4.66,0,0,0-.95.23,1.12,1.12,0,0,1-.38.09.34.34,0,0,1-.33-.24,12.48,12.48,0,0,1-.61-2.28,8.23,8.23,0,0,0,1.85.12,22.93,22.93,0,0,0,3.25-.27,2.31,2.31,0,0,0,1-.36.47.47,0,0,1,.27-.08.52.52,0,0,1,.3.08,7.4,7.4,0,0,1,1.43,1.16.5.5,0,0,1,.18.35c0,.13-.08.23-.21.36a2.9,2.9,0,0,0-.56,1.09c-.55,1.43-1.14,3.07-1.77,4.58a17.3,17.3,0,0,1,4.08,1.05A21.82,21.82,0,0,0,275.33,19.42Zm-11.09,5.86c0,.67.23,1,.74,1a1.68,1.68,0,0,0,1.21-.79,14.27,14.27,0,0,0,1.54-2.56C265.59,23,264.24,24.08,264.24,25.28Z"/><path d="M293.26,21.16a6.36,6.36,0,0,1,3.34-.94,4.87,4.87,0,0,1,5.21,5c0,3.5-2.84,5.75-7.33,5.75-2.64,0-4.24-1.13-4.24-3.09a2.79,2.79,0,0,1,3-2.56,3.83,3.83,0,0,1,3.95,3.07,3.16,3.16,0,0,0,2.14-3.19,3.06,3.06,0,0,0-3.3-3.17,8.52,8.52,0,0,0-5.37,2.22c-.61.55-1.2,1.16-1.83,1.79-.15.14-.25.23-.36.23s-.18-.07-.31-.19a10,10,0,0,1-1.24-1.37c-.13-.16-.06-.31.11-.48a51.57,51.57,0,0,0,5-4.64c1.3-1.34,2.29-2.39,3.26-3.59-1.26.23-2.75.53-4.06.8a5.77,5.77,0,0,0-.88.25,1.51,1.51,0,0,1-.42.1.47.47,0,0,1-.46-.35,9.93,9.93,0,0,1-.73-2.27,10.59,10.59,0,0,0,1.95,0c1.28-.12,3.13-.4,4.76-.71a5.48,5.48,0,0,0,1.16-.32,1.05,1.05,0,0,1,.4-.16.77.77,0,0,1,.48.16,8.4,8.4,0,0,1,1.41,1.35.71.71,0,0,1,.23.5.57.57,0,0,1-.36.51,3.12,3.12,0,0,0-.92.67c-1.54,1.49-2.94,3-4.54,4.49Zm0,6c-.6,0-1,.35-1,.79,0,.66.56,1.1,1.82,1.1a4.21,4.21,0,0,0,1-.09C294.8,27.8,294.17,27.15,293.28,27.15Z"/></g></g></svg>