<svg xmlns="http://www.w3.org/2000/svg" viewBox="0 0 402.07 126.64"><defs><style>.cls-1,.cls-2,.cls-3,.cls-4{fill:#fff;}.cls-1,.cls-2,.cls-3{stroke:#000;stroke-miterlimit:10;}.cls-1{stroke-width:4.21px;}.cls-2{stroke-width:4.3px;}.cls-3{stroke-width:4.3px;}</style></defs><title>アセット 351</title><g id="レイヤー_2" data-name="レイヤー 2"><g id="レイヤー_1-2" data-name="レイヤー 1"><polygon class="cls-1" points="399.92 40.55 41.62 40.55 60.35 2.11 399.92 2.11 399.92 40.55"/><rect class="cls-2" x="53.07" y="40.54" width="346.85" height="69.43"/><circle class="cls-3" cx="54.61" cy="72.03" r="52.46"/><path d="M177.9,72.86c.23,0,.3.14.3,1.74,0,.57,0,1.12,0,1.42a.31.31,0,0,1-.34.27c-3.27-.17-5.92-.27-8.23-.34-.07.24-.41.51-.71.79a2.87,2.87,0,0,0-.75,1.49A25,25,0,0,1,167,81.29c5.17,1.84,8.26,4.86,8.26,5.2a8.26,8.26,0,0,1-2.28,3.2.41.41,0,0,1-.3-.17,19,19,0,0,0-7.28-5.61c-2.82,3.74-7.31,5.78-14.58,6-.07,0-.14,0-.24,0a.44.44,0,0,1-.44-.27,13.08,13.08,0,0,0-2.48-2.82.9.9,0,0,1-.24-.41c0-.07.07-.07.17-.07h.24c1,.07,1.93.1,2.82.1,5.5,0,9.28-1.25,11.66-3.7a23.36,23.36,0,0,0-3.23-.68l-.61,1.49a.36.36,0,0,1-.38.21h-.44c-.37,0-3.09,0-3.09-.55a.44.44,0,0,1,.07-.2A48.25,48.25,0,0,0,158,75.92c-2.55.07-5.54.14-9.72.34h-.11c-.27,0-.34-.14-.34-1.7s.11-1.7.28-1.7h.17c4.76.24,7.88.34,10.64.38a36.7,36.7,0,0,0,1.25-5.51c0-.24.11-.31.21-.31s4.18.89,4.18,1.57c0,.3-.41.61-.68.85s-.78,1-1.77,3.4h.95c4,0,7.76,0,14.76-.38Zm-2.48-8.6c-.11,1.46-.28,2.52-.28,3.06.07,1.09.17,1.56.41,3.37,0,.3-.41.34-2.07.34-.68,0-1.29,0-1.57,0s-.3-.17-.3-.34a32.41,32.41,0,0,0,.2-3.57c-3.09-.13-5.4-.13-8.8-.13-3.88,0-5,0-8.64.13,0,.85.07,1.7.24,3.78,0,.34-.44.37-2.35.37-1.53,0-1.7-.1-1.7-.31v-.1A27.42,27.42,0,0,0,151,67a18.23,18.23,0,0,0-.24-2.66v-.13c0-.17.07-.24.27-.24h.14c5.91.31,7.68.37,10.2.37a20.13,20.13,0,0,0-.41-5,.54.54,0,0,1,0-.2c0-.1.1-.14.3-.14,1.12,0,4.42.28,4.42.95,0,.41-.58,1-.75,1.71a17.28,17.28,0,0,0-.34,2.71c2.93,0,4.56,0,10.51-.37.24,0,.31.07.31.24ZM161.17,75.89c-.44,1.26-.85,2.55-1.26,3.77a33.6,33.6,0,0,1,4.05.71,12.14,12.14,0,0,0,1.26-4.48Z"/><path d="M211.28,88.53c-6.86-.27-10.43-.3-14.41-.3-3.67,0-7.62.07-14.18.34h-.06c-.31,0-.38-.1-.38-1.7,0-1.84.07-1.87.44-1.87,4.56.27,7.65.34,10.27.34h2.28c.07-3.06.07-6.67.07-10-2.32,0-4.59.14-8.88.38-.3,0-.37-.14-.37-1.74,0-1.8,0-1.9.37-1.9,4.53.37,6.67.37,8.84.37a110.67,110.67,0,0,0-.44-11.28.43.43,0,0,1,0-.17c0-.14.06-.17.3-.17,1.29.06,4.73.68,4.73,1.25,0,.28-.34.58-.58,1.06-.41.81-.51,1-.51,3.26l-.1,6c2.45,0,4.42-.07,9.18-.34a.28.28,0,0,1,.3.31,12,12,0,0,1,.07,1.49,13.18,13.18,0,0,1-.07,1.53.29.29,0,0,1-.27.27c-4.52-.23-6.8-.3-9.21-.34,0,3.3,0,6.84.1,10,3.37,0,6.39-.07,12.51-.34.2,0,.37.1.37.3a15.91,15.91,0,0,1,.07,1.67,10.33,10.33,0,0,1-.07,1.33c0,.13-.17.23-.27.23Z"/><path d="M224.21,89.62c0,.14,0,.31-1.8.31-2,0-2.11-.1-2.11-.38.41-4.69.51-11,.54-14.65-1.83,3-3.91,5-4.42,5a.43.43,0,0,1-.27-.1,8.23,8.23,0,0,0-2.55-1.22c-.14,0-.27-.11-.27-.17s0-.11.13-.17a22.59,22.59,0,0,0,7.38-7.72v-.88c-1.09,0-2.45.17-4.18.3-.24,0-.37-.07-.37-1.66,0-1.43.06-1.6.37-1.6,1.73.17,3.09.27,4.18.3a55,55,0,0,0-.37-7.41.51.51,0,0,1,0-.2s0-.1.28-.1c3.09.3,3.9.57,3.9,1a12.09,12.09,0,0,1-.54,1.67,33.35,33.35,0,0,0-.34,5c.82,0,1.7-.14,2.72-.24a.34.34,0,0,1,.37.27v.41A10.76,10.76,0,0,1,228,66.3a.44.44,0,0,1,.31-.17c.54,0,3,2.35,3.06,2.45a57,57,0,0,0-.58-8.37.3.3,0,0,1,0-.17c0-.06,0-.06.11-.06.57,0,4.35.47,4.35,1.19,0,.23-.21.54-.65,1a23.87,23.87,0,0,0-.13,3.8c0,2.15,0,4.87,0,7.31,0,6.6-1,12.07-7.89,16.32a.4.4,0,0,1-.2.07.51.51,0,0,1-.34-.14,8.59,8.59,0,0,0-1.91-1.46Zm4.18-9.86c-.44.31-.58.75-.89.75A8,8,0,0,1,225,77.72c0-.13.14-.17.34-.2a23.2,23.2,0,0,0,6-3.3v-1c0-.21,0-1.36,0-2.93l-1.16,1.4a.72.72,0,0,1-.27.13c-.1,0-.17-.07-.3-.24a18.14,18.14,0,0,0-2.83-3V69.7c0,.17-.3.27-.37.27l-2.75-.27v1.12a18.52,18.52,0,0,0,4.18,3c.2.1.34.24.34.34a.18.18,0,0,1-.14.17,9,9,0,0,0-2,1.46c-.14.14-.24.24-.34.24a8.74,8.74,0,0,1-2.07-2c0,2.92.13,8.77.34,13a11.39,11.39,0,0,0,7.07-9.21Zm18.9,5.51c-.31,2.86-1.7,4-6.49,4-2.18,0-4.8-.34-4.8-3.36v-.17c.14-2.59.17-19.79.17-22a20.3,20.3,0,0,0-.37-3.57.66.66,0,0,1,0-.2c0-.07,0-.11.23-.11.58,0,4.15.51,4.15,1.3a2.32,2.32,0,0,1-.61,1.08c-.37.48-.48,1.6-.48,6.94a17,17,0,0,0,3.27-3.84c.07-.1.1-.14.17-.14.3,0,2.68,2.18,2.68,2.93,0,.34-.34.4-.85.51a3,3,0,0,0-1.39.78,24.53,24.53,0,0,1-3.54,2.51.25.25,0,0,1-.23-.17L239,71.6c0,1.4,0,2.83,0,4.22a7.42,7.42,0,0,1,1.36-1.91c.34,0,5.3,2.49,5.3,3.3a1.78,1.78,0,0,1-.1.38c-.07.2-1.33,1.9-1.4,2a.48.48,0,0,1-.3.17.26.26,0,0,1-.17-.06,23.24,23.24,0,0,0-4.49-3.37l-.2-.1c0,2,0,4,0,5.54s0,2.72,0,3.23c0,1.22,1,1.29,1.93,1.29,2.52,0,3-.48,3-2.86,0-.3,0-.61,0-1,0-.1,0-.13.07-.13s.1,0,.24.17A14.46,14.46,0,0,0,247,84.86a.52.52,0,0,1,.27.38Z"/><path d="M273.68,69.29c0-.13,0-.13.13-.13s4.56.51,4.56,1.25c0,.31-.41.75-.65,1.47a20.55,20.55,0,0,0-.41,5.37c0,3,.14,8.39.41,11.59,0,.17-.07.34-1.94.34s-1.9-.1-1.9-.41c0-.75,0-1.73,0-2.79-3.6-.13-5-.13-6.63-.13-.54,0-6.66,0-11.18.13,0,1.13,0,2.11.07,2.89,0,.17,0,.34-1.91.34-1.53,0-1.87-.06-1.87-.34v-.06c.17-2.76.41-9.63.41-11.8a50.1,50.1,0,0,0-.34-7.72c0-.07,0-.13,0-.17s0-.1.13-.1,4.56.51,4.56,1.22c0,.34-.41.79-.68,1.47s-.38,2.48-.38,5.3v5.85c4.09.13,5.48.13,7,.13,0-2.17.13-6,.13-9.45a108.52,108.52,0,0,0-.54-12.78.68.68,0,0,1,0-.21c0-.13.06-.2.27-.2,1.12.07,4.72.61,4.72,1.26,0,.27-.34.64-.57,1.12-.38.75-.55,2.11-.55,10.44,0,3.57,0,7.61.07,9.82,1.63,0,3.3,0,7.41-.13,0-2.11,0-4.19,0-5.61a54.72,54.72,0,0,0-.34-7.82Z"/><path d="M295.13,82.75c0,.34-.1.58-1.7.58-.92,0-1.63,0-1.63-.47v-.07c0-.65,0-1.5.07-2.42-.38,0-.95-.06-1.46-.06s-1.19,0-1.57.06c0,1.53,0,3,.07,4.36,0,.57-.07.61-1.7.61s-1.73-.21-1.73-.55v-.1c.3-4.66.37-9.75.37-12.54,0-3.5-.07-6.26-.2-9.05,0-.13,0-.2,0-.3s.07-.21.24-.21.17,0,.27,0c1.09.1,2.59.17,4.32.17s2-.07,4.21-.21c.38,0,.45.14.45.48-.24,2.69-.24,5.81-.24,8.74,0,2.55.07,8.06.27,10.74Zm-4.76-17.33c-.95,0-1.53,0-1.53,0s-.07,2.11-.07,4.52c.41,0,1.09,0,1.6,0s1.23,0,1.6,0c0-2.17-.1-4.52-.1-4.52s-.34,0-1,0Zm1.6,7.31c-.37,0-1,0-1.56,0s-1.26,0-1.64,0c0,1.32,0,3,0,4.86.41,0,1.05,0,1.56,0s1.16,0,1.53,0C291.94,75.75,292,74,292,72.73Zm21.82.17c-3.77-.38-7.3-.41-9.45-.41s-3.91.07-8.36.34c-.34,0-.41-.1-.41-1.57s0-1.63.41-1.63c3.33.27,5.07.34,6.83.34V67.29c-1.53,0-3,.06-5.47.2-.31,0-.37,0-.37-1.46s.06-1.53.44-1.53c2.38.2,3.91.2,5.34.2v-.34a28.2,28.2,0,0,0-.48-5v-.17c0-.17,0-.2.24-.2.54,0,4.35.4,4.35,1.12,0,.27-.31.61-.51,1-.37.71-.34.64-.48,2.85a4.94,4.94,0,0,0,0,.68c1.29,0,2.58-.07,5.2-.24.17,0,.41,0,.41,1.57a6.7,6.7,0,0,1-.07,1.26c0,.13-.2.2-.3.2h0c-2.55-.14-3.74-.17-5.23-.2V70c2.1,0,4.86-.17,8-.41.24,0,.38.24.38,1.67,0,.54,0,1.09-.07,1.43,0,.13-.17.24-.27.24Zm-4.58,13c0,2-1.13,4.25-5.1,4.25q-.32,0-.51-.51c-.65-1.53-1.84-2.07-2.66-3-.1-.11-.17-.17-.17-.24s0-.07.14-.07a1.39,1.39,0,0,0,.17,0,19.72,19.72,0,0,0,2.75.28c1.3,0,2-.34,2-1.33.07-1.33.07-4,.07-5.54v-2h-1.46c-2.18,0-3.94.07-8.33.34a.33.33,0,0,1-.34-.31c0-.27,0-.78,0-1.33,0-1.63,0-1.63.37-1.63,4.22.34,6,.34,8.33.34h1.36a14.14,14.14,0,0,0-.27-2c0-.06,0-.1,0-.13s.11-.21.28-.21,4,.34,4,1a.86.86,0,0,1-.27.54c-.3.41-.41.41-.44.75,1.39-.07,3-.17,4.62-.3h0c.2,0,.34.27.34,1.69,0,.55,0,1.13-.07,1.47a.33.33,0,0,1-.27.23h0c-1.66-.17-3.26-.27-4.69-.3v2.92c0,1.84.17,3,.21,4.93Zm-7.52-1.49c-.07,0-.13-.07-.2-.14a19.19,19.19,0,0,0-4.25-3.64c-.1-.07-.14-.1-.14-.17,0-.37,1.5-1.36,1.84-1.56a.28.28,0,0,1,.17-.1.39.39,0,0,1,.17.06,17.17,17.17,0,0,1,4.45,2.89.29.29,0,0,1,.1.21,14.63,14.63,0,0,1-2,2.38C301.79,84.35,301.76,84.39,301.69,84.39Z"/><path d="M322.94,89.32c.51-4.59.75-12,.89-17.58-.31.37-3.81,4.72-4.56,4.72a.45.45,0,0,1-.27-.06,9.46,9.46,0,0,0-2.86-1.06c-.2,0-.34-.1-.34-.17s.07-.13.17-.2c5.85-4.15,10.51-12,10.92-14.28,0-.14.07-.2.17-.2.57,0,4,1.46,4,2.1,0,.24-.27.48-.78.68s-.68.14-.95.68A39.91,39.91,0,0,1,327,67.52c.24.07.41.17.54.21a.42.42,0,0,1,.34.41,1.06,1.06,0,0,1-.34.64,2.12,2.12,0,0,0-.51,1.63c-.13,4.22-.3,9.76-.3,14.28,0,1.77,0,3.37.1,4.69,0,.17-.1.34-1.94.34-1.6,0-1.94,0-1.94-.34Zm23.53-18.19c0,.13-.24.27-.34.27-5.1.37-5.85.44-8.84.88l-.71.11c2,10.13,7.61,12.91,8.29,12.91s1.6-1,1.84-3.8c0-.21.06-.28.17-.28s.13.07.2.17a12.07,12.07,0,0,0,2.72,2.76.52.52,0,0,1,.24.51c-.92,3-2.55,4.66-4.56,4.66a5.14,5.14,0,0,1-2.72-.92c-5.61-3.54-8.09-9.52-9.35-15.47l-4.86,1h-.1a.4.4,0,0,1-.41-.24,13.43,13.43,0,0,1-.37-2.68v-.14c0-.34.17-.41.37-.41,2.14-.13,3.61-.27,4.86-.44-.27-1.73-.47-3.47-.61-5.1s-.27-3-.47-3.91a1.76,1.76,0,0,1-.07-.37.18.18,0,0,1,.2-.21c.07,0,.14,0,.21,0,3.67.44,4.42.57,4.42,1.12a3.34,3.34,0,0,1-.51,1.19,2.62,2.62,0,0,0-.21,1.12,49.33,49.33,0,0,0,.27,5.68l.75-.1c3.27-.45,4.08-.62,8.74-1.6h.07a.36.36,0,0,1,.37.3,18.12,18.12,0,0,1,.41,2.89Zm-5.17-3.54a23,23,0,0,0-4.11-2.82c-.14-.07-.27-.1-.27-.24a5.66,5.66,0,0,1,1.76-2.21c.65,0,4.8,2.31,4.8,2.76s-1.36,2.68-1.8,2.68A.51.51,0,0,1,341.3,67.59Z"/><path d="M106.88,24.16a21,21,0,0,0,1.94-.92,8.41,8.41,0,0,0,0,1.24c0,.66,0,.64-.52.92-1.24.62-2.66,1.2-4,1.7a2.82,2.82,0,0,0-.66.32.52.52,0,0,1-.34.14c-.12,0-.22-.06-.3-.23a18.61,18.61,0,0,1-.54-1.79,14.36,14.36,0,0,0,2-.5l.46-.14V19.22h-.16c-1.3,0-1.7,0-1.82,0s-.2,0-.2-.22V17.52c0-.2,0-.22.2-.22s.52,0,1.82,0h.16V15.46a16.94,16.94,0,0,0-.16-2.94c.78,0,1.4.06,2.06.14.2,0,.32.12.32.24a1.13,1.13,0,0,1-.12.4,6.71,6.71,0,0,0-.12,1.9v2.14c1.14,0,1.52,0,1.64,0s.2,0,.2.22V19c0,.2,0,.22-.2.22s-.5,0-1.64,0Zm5.05,2.78c0,.52.1.76.38.9s.9.23,2.88.23c2.16,0,2.82-.11,3.22-.43s.42-.68.48-2.26a5.67,5.67,0,0,0,1.44.64c.5.14.5.14.44.66-.18,1.74-.42,2.28-1.08,2.71s-1.64.66-4.74.66c-2.72,0-3.72-.24-4.22-.56s-.77-.91-.77-2V21.26c-1,.36-1.44.54-1.6.58s-.22,0-.26-.16l-.26-1.56c0-.2,0-.2.16-.26s.68-.16,2-.58v-2.2a20.22,20.22,0,0,0-.12-2.84c.68,0,1.33.06,1.93.12.28,0,.4.12.4.22a.9.9,0,0,1-.12.42,6.05,6.05,0,0,0-.12,1.9v1.72l1.92-.64v-2.9a20.74,20.74,0,0,0-.16-2.84,15.94,15.94,0,0,1,2,.16c.2,0,.32.1.32.22a1.13,1.13,0,0,1-.12.4,6.27,6.27,0,0,0-.12,1.8v2.52l1.54-.52c1.88-.62,2.48-.88,2.62-.9s.22,0,.22.2l-.06,2.56a19.56,19.56,0,0,1-.48,4.52c-.3,1.16-.86,1.52-1.72,1.52a4.72,4.72,0,0,1-.74,0c-.44,0-.44,0-.54-.66a5,5,0,0,0-.42-1.44,4.68,4.68,0,0,0,1.06.14c.34,0,.48-.1.6-.74a19.06,19.06,0,0,0,.24-3.5l-2.32.8v3.48c0,2,0,3,0,3.1s0,.22-.22.22H114c-.2,0-.22,0-.22-.22s0-1.1,0-3.1V19.94l-1.92.66Z"/><path d="M125.74,27.37h11.65c1.94,0,2.62,0,2.74,0s.22,0,.22.21v1.61c0,.2,0,.22-.22.22s-.8,0-2.74,0H125.74v.86c0,.2,0,.22-.24.22h-1.7c-.2,0-.22,0-.22-.22s0-1.49,0-4.21V17.34c0-2.74,0-4.08,0-4.2s0-.24.22-.24.8,0,2.68,0h10.77c1.86,0,2.5,0,2.62,0s.24,0,.24.24v1.58c0,.2,0,.22-.24.22s-.76,0-2.62,0H125.74ZM128.8,17c.18-.18.2-.2.38-.08,1.32.84,2.65,1.78,4,2.8a17.34,17.34,0,0,0,1.5-2.48,6,6,0,0,0,.56-1.62,11.28,11.28,0,0,1,1.92.76c.2.1.3.18.3.34s-.1.24-.24.36a4,4,0,0,0-.56.92,22.92,22.92,0,0,1-1.88,3c1.2,1,2.38,2,3.58,3.12.1.08.14.14.14.2s0,.14-.16.26l-1.1,1.2a.31.31,0,0,1-.22.14.21.21,0,0,1-.18-.1c-1.12-1.16-2.26-2.22-3.4-3.22a19.84,19.84,0,0,1-5,3.74,1.34,1.34,0,0,1-.48.2c-.14,0-.24-.14-.44-.44A4,4,0,0,0,126.48,25a18.67,18.67,0,0,0,5.39-3.76c-1.31-1-2.63-2-4-3-.1-.06-.14-.12-.14-.16s.06-.14.16-.24Z"/><path d="M150,21.54c1.1,0,1.43,0,1.55,0s.26,0,.26.24c0,.7-.06,1.22-.06,1.78a26.5,26.5,0,0,1-.38,4.56,2.34,2.34,0,0,1-2.55,2,8.36,8.36,0,0,1-1,0c-.54-.06-.58,0-.68-.64a3.58,3.58,0,0,0-.56-1.48c.8.09,1.52.17,1.92.17.6,0,.82-.25,1-1.2a24.17,24.17,0,0,0,.24-3.54H147.1a11.73,11.73,0,0,1-3,6.28c-.18.21-.28.31-.38.31s-.18-.12-.34-.39a4.77,4.77,0,0,0-1.08-1.21c2.28-2.11,3-4.33,3.12-8.83l-2,0c-.22,0-.24,0-.24-.22s0-.62,0-1.78V15c0-1.16,0-1.64,0-1.78s0-.22.24-.22.68,0,2.34,0h3.32c1.65,0,2.21,0,2.35,0s.22,0,.22.22,0,.62,0,1.78v2.58c0,1.16,0,1.66,0,1.78s0,.22-.22.22-.7,0-2.35,0h-1.68q0,1.08-.12,2Zm-4.72-3.74h4.38v-3h-4.38Zm8.41-1a21.07,21.07,0,0,0-.14-3c.7,0,1.36.06,2,.14.2,0,.3.1.3.22a1.87,1.87,0,0,1-.14.44,13.65,13.65,0,0,0-.06,2.14v5.52c0,1.7,0,2.52,0,2.64s0,.22-.24.22h-1.62c-.2,0-.22,0-.22-.22s0-.94,0-2.64Zm6.24,6.84c0,1.4.06,3,.06,4s-.16,1.56-.72,2-1.16.48-3.1.5c-.62,0-.62,0-.76-.64a4.27,4.27,0,0,0-.64-1.51A16,16,0,0,0,157,28c.64,0,.88-.15.88-.79v-12a19.41,19.41,0,0,0-.16-2.86c.72,0,1.46.06,2.16.14.2,0,.32.12.32.22a1,1,0,0,1-.14.42,7.15,7.15,0,0,0-.12,2Z"/><path d="M172.73,16.56a25,25,0,0,1-2.5,8.62,3.82,3.82,0,0,1-3.41,2.31c-1.76,0-3.54-1.89-3.54-5.15a7.37,7.37,0,0,1,2.26-5.2,8.78,8.78,0,0,1,6.51-2.56c4.8,0,7.62,3,7.62,6.94,0,3.72-2.1,6.06-6.16,7.29-.42.11-.6,0-.86-.36a4.24,4.24,0,0,0-1.4-1.27c3.38-.8,6-2.2,6-6a4.54,4.54,0,0,0-4.48-4.64ZM167,18.5a5.76,5.76,0,0,0-1.56,3.7c0,1.84.74,2.86,1.36,2.86s1-.26,1.5-1.22a22.58,22.58,0,0,0,2.13-7.16A6,6,0,0,0,167,18.5Z"/><path d="M194,12.46c.26-.12.3-.1.38.1a16,16,0,0,0,6.48,7.38,6.85,6.85,0,0,0-1.16,1.5c-.18.3-.26.44-.38.44s-.22-.1-.42-.26A16.55,16.55,0,0,1,197,20c0,.58,0,1.28-.06,2a39.92,39.92,0,0,1-.5,5.6,2.6,2.6,0,0,1-3,2.47c-.5,0-.88,0-1.36,0s-.6,0-.74-.7a4.1,4.1,0,0,0-.62-1.61,14.9,14.9,0,0,0,2.28.18c.84,0,1.18-.32,1.34-1.24a33,33,0,0,0,.38-5h-3.56A9.67,9.67,0,0,1,185,30.16a1.2,1.2,0,0,1-.48.17c-.16,0-.22-.14-.42-.48a3.67,3.67,0,0,0-1-1.2c3.64-1.32,5.4-3.45,5.78-7h-.23c-1.89,0-2.53,0-2.65,0s-.22,0-.22-.22V20a21.79,21.79,0,0,1-1.94,1.66c-.22.16-.34.26-.44.26s-.22-.14-.42-.44a4.48,4.48,0,0,0-1.12-1.22,15.62,15.62,0,0,0,5.78-6.6,5.66,5.66,0,0,0,.4-1.28,14.59,14.59,0,0,1,2.09.7c.22.1.28.2.28.34a.41.41,0,0,1-.16.3,1.51,1.51,0,0,0-.46.64,18.26,18.26,0,0,1-3.67,5.3c.28,0,1,0,2.53,0h5.38c1.74,0,2.4,0,2.6,0a21.06,21.06,0,0,1-4.3-6.34c-.08-.22,0-.24.18-.34Z"/><path d="M208.28,17.56a9,9,0,0,0,2.93,2.28,4.47,4.47,0,0,0-.64,1c-.14.32-.22.48-.36.48s-.23-.1-.44-.28a10,10,0,0,1-2.19-2.44c0,1.6.08,2,.08,2.2s0,.22-.22.22H206.1c-.2,0-.22,0-.22-.22s.06-.56.08-2a10.87,10.87,0,0,1-2.62,2.62c-.22.16-.34.24-.46.24s-.22-.12-.34-.38a3.74,3.74,0,0,0-.72-1.1,10.66,10.66,0,0,0,3.46-2.64h-.4c-1.68,0-2.26,0-2.38,0s-.2,0-.2-.22V16.26c0-.2,0-.22.2-.22s.7,0,2.38,0h1V14.56a16.53,16.53,0,0,0-.14-2.42c.72,0,1.2.06,1.88.14.22,0,.32.1.32.2a1.9,1.9,0,0,1-.14.48,8.08,8.08,0,0,0-.08,1.6v1.52h.84c1.71,0,2.27,0,2.39,0s.22,0,.22.22v1.12c0,.2,0,.22-.22.22s-.68,0-2.39,0Zm-3.48,7.22c-1.7,0-2.26,0-2.38,0s-.22,0-.22-.22V23.34c0-.2,0-.22.22-.22s.68,0,2.38,0h.92a8.21,8.21,0,0,0,0-1.72c.8.06,1.34.1,1.78.16.22,0,.34.12.34.24a.86.86,0,0,1-.1.32,2.67,2.67,0,0,0-.18,1h.92c1.75,0,2.29,0,2.41,0s.24,0,.24.22V24.6c0,.2,0,.22-.24.22s-.66,0-2.41,0H208a6.23,6.23,0,0,0,3,2.56,5,5,0,0,0-.95,1c-.19.29-.29.44-.44.44s-.24-.11-.46-.27a7.36,7.36,0,0,1-2.18-2.46,7.31,7.31,0,0,1-3.14,3.57,1,1,0,0,1-.42.18c-.14,0-.26-.13-.46-.44a4.18,4.18,0,0,0-1-1.05,5.55,5.55,0,0,0,3.52-3.56Zm-1-11.88c.2-.1.26-.08.4.08a10.6,10.6,0,0,1,1.1,1.86c.1.22.06.28-.2.4l-.94.44c-.24.12-.3.14-.38-.06a10.62,10.62,0,0,0-1-1.9c-.14-.2-.16-.26.12-.4Zm5.1.68a3.62,3.62,0,0,0,.29-.88,9.91,9.91,0,0,1,1.47.54c.17.06.23.16.23.24s0,.16-.18.28a1.44,1.44,0,0,0-.28.38c-.16.36-.43.8-.68,1.24-.17.26-.25.36-.37.36a1,1,0,0,1-.38-.16,6.24,6.24,0,0,0-1-.4A9.72,9.72,0,0,0,208.86,13.58Zm5.93,13.87c.2.13.22.21.22.31s-.1.19-.24.24a2.2,2.2,0,0,0-.52.37,13,13,0,0,1-2.68,1.79,1.52,1.52,0,0,1-.52.21c-.18,0-.28-.14-.48-.48a4.91,4.91,0,0,0-.82-1,10.24,10.24,0,0,0,3-1.6,3.5,3.5,0,0,0,.68-.7A11.88,11.88,0,0,1,214.79,27.45ZM214,14.68c-1.78,0-2.38,0-2.5,0s-.22,0-.22-.22V13c0-.2,0-.22.22-.22s.72,0,2.5,0h3.72c1.8,0,2.4,0,2.52,0s.2,0,.2.22V14.5c0,.2,0,.22-.2.22s-.72,0-2.52,0h-1a15.48,15.48,0,0,1-.62,1.5H217c1.6,0,2.16,0,2.3,0s.22,0,.22.2,0,.82,0,2.34V24c0,1.52,0,2.2,0,2.3s0,.24-.22.24-.7,0-2.3,0h-2.66c-1.62,0-2.16,0-2.28,0s-.24,0-.24-.24,0-.78,0-2.3V18.76c0-1.6,0-2.28,0-2.42s0-.2.24-.2.62,0,2,0a12.26,12.26,0,0,0,.58-1.5Zm-.22,4.42h3.84V17.84h-3.84Zm3.84,2.82V20.6h-3.84v1.32Zm0,1.5h-3.84v1.42h3.84Zm-.54,3.32a.28.28,0,0,1,.46,0,10.74,10.74,0,0,0,3.3,2,4.64,4.64,0,0,0-.82,1.12c-.18.34-.28.46-.44.46a1.32,1.32,0,0,1-.46-.18,11.84,11.84,0,0,1-2.9-2.18.29.29,0,0,1-.1-.21c0-.06,0-.14.16-.24Z"/><path d="M231.85,16.82c-2.45.46-4.59.88-6.73,1.32-.76.18-1,.22-1.26.32a1.17,1.17,0,0,1-.44.16.47.47,0,0,1-.38-.3,13.94,13.94,0,0,1-.74-2.16,27.59,27.59,0,0,0,3.18-.34c2.46-.36,6.87-1,12-1.7.3,0,.4.08.42.22a11.43,11.43,0,0,1,.22,1.76c0,.24-.12.3-.38.3a8.92,8.92,0,0,0-2.44.44c-3.4,1.16-5.1,3.5-5.1,5.9,0,2.58,1.84,4,5.32,4.2.32,0,.44.08.44.3a7.11,7.11,0,0,1-.22,1.72c-.06.31-.14.43-.38.43-3.52,0-7.39-2-7.39-6.19,0-2.84,1.42-4.76,3.85-6.34Zm4,2.16c.1-.08.18-.06.3,0a9.2,9.2,0,0,1,1.9,2.14.2.2,0,0,1-.06.32l-.84.62a.21.21,0,0,1-.34-.06,9.92,9.92,0,0,0-2-2.32Zm1.78-1.3c.12-.08.18-.06.3,0a8.35,8.35,0,0,1,1.9,2.06.23.23,0,0,1-.06.36l-.8.62a.21.21,0,0,1-.34-.06,9.46,9.46,0,0,0-2-2.3Z"/><path d="M254.65,18.78a6.26,6.26,0,0,0,0-1.36,8.62,8.62,0,0,1,2.32.86.38.38,0,0,1,.14.54,3.36,3.36,0,0,0-.32.78c-.16.84-.36,1.72-.56,2.58a23.14,23.14,0,0,1,3.12,1.92c.2.12.18.22.12.42a17.23,17.23,0,0,1-.86,1.72c-.06.1-.12.14-.18.14a.38.38,0,0,1-.24-.14,16.25,16.25,0,0,0-2.62-1.88,12.28,12.28,0,0,1-4,5.26c-.18.15-.28.23-.4.23a.51.51,0,0,1-.3-.15,4.35,4.35,0,0,0-1.75-.82,11,11,0,0,0,4.49-5.42,13.5,13.5,0,0,0-4-1.22,13.88,13.88,0,0,1-2.44,4,3.28,3.28,0,0,1-2.56,1.1,2.42,2.42,0,0,1-2.38-2.74c0-2.48,2.56-4.42,5.9-4.42.66-1.66,1.17-3.06,1.67-4.74l-2.77.32a4.2,4.2,0,0,0-.9.22,1.05,1.05,0,0,1-.36.08.32.32,0,0,1-.32-.22,12.12,12.12,0,0,1-.58-2.18,7.45,7.45,0,0,0,1.76.12,22.58,22.58,0,0,0,3.11-.26,2.31,2.31,0,0,0,1-.34.44.44,0,0,1,.26-.08.46.46,0,0,1,.28.08,6.68,6.68,0,0,1,1.36,1.1.48.48,0,0,1,.18.34.51.51,0,0,1-.2.34,2.72,2.72,0,0,0-.54,1c-.52,1.36-1.08,2.92-1.68,4.36a16.58,16.58,0,0,1,3.88,1A19.79,19.79,0,0,0,254.65,18.78Zm-10.57,5.58c0,.64.22.92.7.92a1.62,1.62,0,0,0,1.16-.76,13.67,13.67,0,0,0,1.46-2.44C245.36,22.16,244.08,23.22,244.08,24.36Z"/><path d="M267.73,20.44a6,6,0,0,1,3.18-.9,4.64,4.64,0,0,1,5,4.8c0,3.34-2.7,5.49-7,5.49-2.53,0-4.05-1.09-4.05-2.95a2.66,2.66,0,0,1,2.83-2.44,3.64,3.64,0,0,1,3.76,2.93,3,3,0,0,0,2-3.05,2.92,2.92,0,0,0-3.14-3,8.19,8.19,0,0,0-5.13,2.12c-.58.52-1.14,1.1-1.74,1.7-.14.14-.24.22-.34.22a.49.49,0,0,1-.3-.18,9,9,0,0,1-1.18-1.3c-.12-.16-.06-.3.1-.46A48.14,48.14,0,0,0,266.48,19c1.25-1.28,2.19-2.28,3.11-3.42-1.2.22-2.63.5-3.87.76a6.16,6.16,0,0,0-.84.24,1.47,1.47,0,0,1-.4.1.45.45,0,0,1-.44-.34,9.58,9.58,0,0,1-.7-2.16,9.64,9.64,0,0,0,1.86,0c1.22-.12,3-.38,4.55-.68a5.31,5.31,0,0,0,1.1-.3,1,1,0,0,1,.38-.16.71.71,0,0,1,.46.16A7.57,7.57,0,0,1,273,14.5a.69.69,0,0,1,.22.48.53.53,0,0,1-.34.48,3.23,3.23,0,0,0-.88.64c-1.46,1.42-2.8,2.82-4.32,4.28Zm0,5.7c-.58,0-1,.34-1,.76,0,.63.54,1.05,1.74,1.05a5.17,5.17,0,0,0,.92-.08C269.19,26.76,268.59,26.14,267.75,26.14Z"/><path d="M291.57,21.76H279.4V20.6h12.17Z"/><path d="M299.29,22.2h3.92v-.78h-4.56c-.23,5.1-1.61,8.73-1.91,8.73a.13.13,0,0,1-.1,0,15.58,15.58,0,0,0-2.94-.62c2-2.63,2.28-7.26,2.3-9.56,0-.92-.14-6.5-.14-6.5h6.59V12.9a7.16,7.16,0,0,0-.06-1.06c.12,0,2.4,0,3.16.14.32,0,.46.14.46.26s-.22.28-.6.36c0,.36,0,.82,0,.82v0H312v2.34H298.58s.07,2.32.09,3.62h4.54v-.74h-3.84V16.9h3.84c0-.22,0-.54-.06-.92.12,0,2.76.08,3.08.12s.3.12.3.22-.14.22-.48.26a1.62,1.62,0,0,0,0,.32h4.76v2.5h1.68v2h-1.68v2.82H308V24h-8.74Zm.18,2.6h11v5.73h-2.82v-1h-5.4v1h-2.78Zm8.18,2.73v-.89h-5.4v.89Zm.4-8.13v-.74h-2v.74Zm0,2.8v-.78h-2v.78Z"/><path d="M316.94,26.56c0-1.08.06-2.46.12-3.76a7.37,7.37,0,0,1-1.1,2.6s0,0-.08-.06A12.37,12.37,0,0,0,313.72,24a16.65,16.65,0,0,0,3-5.56H314.4V15.8H317V13.42s0-1-.06-1.36c0,0,2.14,0,3,.16.24,0,.34.12.34.22s-.2.3-.54.36c0,.32,0,.88,0,.88V15.8h1.92v2.6h-1.82c.28.48.7,1.12,1.18,1.78a17.53,17.53,0,0,0,2.2-7.42c2.72.42,3.1.58,3.1.76s-.18.24-.44.28a38.31,38.31,0,0,1-1.32,5.06c2.66.38,3.5.62,3.5.88s-.34.3-.66.3c-.22,1-.86,3.78-1.56,6.22,1.12-.22,2.12-.42,2.86-.62-.44-.84-1-1.7-1.56-2.66,0,0,1.56-.58,2.4-1a30.23,30.23,0,0,1,3.44,6.76l-2.64,1.46a20.12,20.12,0,0,0-.64-2.28c-1.84.5-4.88,1.28-7.62,1.77,0,.36-.12.59-.26.59s-.2-.09-.28-.33c-.22-.6-.94-2.42-1.06-3,.8-.06,1.64-.15,2.46-.28a38.64,38.64,0,0,0,1.6-7.74c-.84,2.46-1.32,3.06-1.38,3.06l-.1,0a8.19,8.19,0,0,0-1.16-.36,6.24,6.24,0,0,0-1.52,1s-.08.08-.1.08a11.56,11.56,0,0,1-.76-1.82c.09,1.76.24,4.54.24,5.8v3.83h-2.75Zm12.69-13.84a17,17,0,0,0,3.64,7.94,11,11,0,0,0-2.9,1,.18.18,0,0,1-.1.06c-.14,0-2.22-3.16-3.28-8.52Z"/><path d="M336.5,19.36h-2V16.92h2V13.64s0-.8-.06-1.34c0,0,2.16,0,2.87.14.27,0,.42.14.42.24s-.2.26-.63.36c0,.26,0,.94,0,.94v2.94h1.79v1.9l.76-.24V15.26s0-1.3-.06-1.72c0,0,2.44.06,2.88.14.22,0,.32.12.32.24s-.18.28-.58.36c0,.24,0,.92,0,.92v2.6l1.34-.4V13.64s0-1.08-.06-1.56c0,0,2.38,0,2.82.12.22,0,.32.12.32.24s-.18.28-.58.36c0,.24,0,.8,0,.8v3l4.1-1.26c0,.42,0,1,0,1.58,0,4.72-.3,6.26-1.08,7.26a10.63,10.63,0,0,0,1.92,1.58c.14.06.16.12.16.2s0,.14,0,.22c-.4,3.44-2.36,3.81-5.92,3.81-3,0-5.5,0-5.5-3v-6l-1.3.42-.8-2.16h-.45v4.22a17.42,17.42,0,0,0,2-.84s0,.72,0,1.38c0,.32,0,.64,0,.84s0,.1,0,.14-.06.12-.18.18a53.67,53.67,0,0,1-5.41,2.17v.11c0,.28-.08.47-.2.47s-.2-.11-.3-.29a26,26,0,0,1-1.18-2.64,24.78,24.78,0,0,0,2.66-.68Zm9,.52-1.34.42v6.12c0,1,.52,1.12,2.54,1.12,3.28,0,3.54-.32,3.62-2.74a2.35,2.35,0,0,1-1.22.32c-.48,0-.5,0-.52-.2a11.14,11.14,0,0,0-.62-1.76v2.68h-2.46Zm2.46,2.38a2.31,2.31,0,0,0,.58.12c.8,0,1-1,1-3.78l-1.54.5Z"/><path d="M355.3,13h16.51v2.54H358.17v9.14a15.7,15.7,0,0,0,4.9-3.44,34.71,34.71,0,0,0-4.2-2.6l2-1.8c1.08.6,2.42,1.4,3.86,2.38a14.73,14.73,0,0,0,2-3.58s2.56,1,3,1.26a.35.35,0,0,1,.18.26c0,.1-.12.2-.38.2a2.23,2.23,0,0,1-.34,0A25,25,0,0,1,367,20.82a30.57,30.57,0,0,1,3.54,3.34l-2.24,2.1a17.62,17.62,0,0,0-3-3.34,16.18,16.18,0,0,1-4.82,3.8s-.06,0-.1-.06a10.68,10.68,0,0,0-2.12-1.5V27h14.12v2.6H358.17v1.05H355.3Z"/><path d="M92.05,79.2l-8.8,17.08C79.72,93,73.71,89,68.73,88.81l8.79-17.08C81.82,71.05,88.52,75.9,92.05,79.2Z"/><path d="M17.17,79.2,26,96.28C29.49,93,35.5,89,40.49,88.81l-8.8-17.08C27.39,71.05,20.7,75.9,17.17,79.2Z"/><path d="M73.54,91.88h0l-1.12-.45-.19-.07-.45-.15-.34-.11L71.06,91l-.68-.16-.25,0a4.71,4.71,0,0,0-.52-.09l-.23,0a5.47,5.47,0,0,0-.69,0h-.2c2.56,1.82,4.3,3.9,4.72,5.8a3,3,0,0,1-.66,2.76c-2.26,2.63-8.6,2.88-14.83.88,4.44-2.46,7.41-5.66,8.1-8.8,0,0,0,0,0-.07a10,10,0,0,1-2.51.48l-.39.37c-1.22,2.41-4.27,5-8.24,6.79l-.08,0-.09,0c-4-1.83-7-4.38-8.24-6.79-.12-.13-.26-.24-.38-.37a10,10,0,0,1-2.52-.48.15.15,0,0,1,0,.07c.69,3.14,3.66,6.34,8.1,8.8-6.23,2-12.57,1.75-14.83-.88A3,3,0,0,1,36,96.41c.41-1.9,2.15-4,4.71-5.8h-.19a5.62,5.62,0,0,0-.7,0l-.23,0a4.71,4.71,0,0,0-.52.09l-.25,0-.67.16-.39.12-.33.1-.46.15-.18.07c-.38.14-.75.29-1.13.45a9.73,9.73,0,0,0-2.07,4,5.46,5.46,0,0,0,1.19,4.9c1.76,2,5,3.06,8.92,3.06a29.11,29.11,0,0,0,10.9-2.31,29,29,0,0,0,10.9,2.31c3.89,0,7.16-1,8.91-3.06a5.46,5.46,0,0,0,1.2-4.9A9.76,9.76,0,0,0,73.54,91.88Z"/><path d="M39,81.92a15,15,0,0,0,10.1-1.62l5.07,2.41,5.76-2.54a15.09,15.09,0,0,0,10.34,1.75L73,76.59a17.86,17.86,0,0,1-5.29-4.7l-.26.14c-.49-7.5-6-13.41-12.82-13.41S42.27,64.53,41.78,72l-.26-.14a17.86,17.86,0,0,1-5.29,4.7Z"/><path d="M69.23,83.88a17.05,17.05,0,0,1-9.39-1.71l-5.73,2.52-5-2.38A17.08,17.08,0,0,1,40,83.88l2.69,5.21a7.9,7.9,0,0,0,3.75.94h.21a10.39,10.39,0,0,0,15.95,0h.22a7.93,7.93,0,0,0,3.75-.94Z"/><path d="M54.61,87.55c-8.22,0-14.07-4.68-16.46-13.18l0-.1-.38-1.62-.05-.26-.09-.31L33.85,56.29a14.23,14.23,0,0,0-5.08-8.54l-4.35-3.27,4.63-2.78a10,10,0,0,1,5.18-1.47,11.15,11.15,0,0,1,9.33,5.65,8.57,8.57,0,0,1,6.19,4.48L53,56l-6.2-.21a1.92,1.92,0,0,0-.5,1.4,52.73,52.73,0,0,0,1.51,10.43c1.34,4.5,3.64,6.78,6.84,6.78s5.49-2.28,6.84-6.78A53.6,53.6,0,0,0,63,57.2a1.64,1.64,0,0,0-.57-1.4l-6,.2,3-5.6a8.61,8.61,0,0,1,6.21-4.52A11.17,11.17,0,0,1,75,40.23a10,10,0,0,1,5.18,1.47l4.64,2.78-4.36,3.27a14.28,14.28,0,0,0-5.08,8.52l-.28,1.19-4,16.86C68.68,82.85,62.83,87.55,54.61,87.55ZM42.91,73.08c1.79,6.33,5.73,9.54,11.7,9.54s9.9-3.23,11.71-9.59L70.55,55.2a19.78,19.78,0,0,1,5.28-10,4.8,4.8,0,0,0-.85-.08c-2.26,0-4.36,1.57-5.63,4.21l-.75,1.57-1.73-.18a2.76,2.76,0,0,0-2.09.74,6.5,6.5,0,0,1,3.1,5.7A58.22,58.22,0,0,1,66.17,69c-2,6.64-6.09,10.3-11.56,10.3S45,75.68,43,69a58.32,58.32,0,0,1-1.7-11.84,6.5,6.5,0,0,1,3.07-5.71,2.7,2.7,0,0,0-2.06-.73l-1.74.18-.75-1.57c-1.27-2.64-3.37-4.21-5.63-4.21a4.89,4.89,0,0,0-.85.08,19.76,19.76,0,0,1,5.29,10l.24,1.11Z"/><path class="cls-4" d="M54.61,85.08c-9,0-12.63-6.18-14.09-11.38l-.37-1.54s-.06-.32-.07-.34L40,71.51,36.51,56.88l-.25-1.13a16.69,16.69,0,0,0-6-10l-1.42-1.07,1.49-.89a7.49,7.49,0,0,1,3.91-1.13c3.23,0,6.18,2.14,7.85,5.62l.49,0a6,6,0,0,1,5,3.3l1,1.82-1.8-.06h-.07c-1.61,0-3,1.73-3,3.87a56.13,56.13,0,0,0,1.6,11.13c1.17,3.9,3.71,8.55,9.21,8.55s8-4.65,9.2-8.55a56.13,56.13,0,0,0,1.6-11.13c0-2.14-1.36-3.87-3-3.87l-1.76.06,1-1.81a6,6,0,0,1,5-3.3,4,4,0,0,1,.49,0c1.67-3.48,4.63-5.62,7.85-5.62a7.46,7.46,0,0,1,3.91,1.13l1.5.89L79,45.78a16.68,16.68,0,0,0-6,10l-.28,1.12-4,16.78C67.23,78.9,63.6,85.08,54.61,85.08Z"/></g></g></svg>