<svg xmlns="http://www.w3.org/2000/svg" viewBox="0 0 401.92 126.64"><defs><style>.cls-1,.cls-2,.cls-4{fill:#fff;stroke:#000;stroke-miterlimit:10;}.cls-1{stroke-width:4.21px;}.cls-2{stroke-width:4.3px;}.cls-3{fill:#429ade;}.cls-4{stroke-width:4.3px;}.cls-5{fill:#040000;}</style></defs><title>アセット 381</title><g id="レイヤー_2" data-name="レイヤー 2"><g id="レイヤー_5" data-name="レイヤー 5"><polygon class="cls-1" points="399.77 40.55 41.46 40.55 60.2 2.11 399.77 2.11 399.77 40.55"/><rect class="cls-2" x="52.92" y="40.54" width="346.85" height="69.43"/><path d="M137.12,74.29a.42.42,0,0,1-.41.27.72.72,0,0,1-.23,0c-1.81-.65-4.9-1.36-5.34-1.5-.21-.07-.37-.1-.37-.34a11,11,0,0,1,.68-2.24c0-.1.1-.24.44-.24a32.12,32.12,0,0,1,5.57,1,.39.39,0,0,1,.31.44A19.8,19.8,0,0,1,137.12,74.29Zm-5.37,12a.31.31,0,0,1,.14-.24,44.65,44.65,0,0,0,6.66-8c.07-.11.14-.17.17-.17s.14.06.17.17a14.44,14.44,0,0,0,1.63,2,.19.19,0,0,1,.14.2,1,1,0,0,1-.07.24c-1.46,2.68-3.16,4.93-3.88,6.12-.61,1-.64,1.66-1.22,1.66S131.75,86.87,131.75,86.29Zm7.34-19.24a.66.66,0,0,1-.37-.14A52.75,52.75,0,0,0,134.06,64c-.13-.1-.27-.17-.27-.34s1.19-2.14,1.53-2.14c.51,0,5.47,2.21,5.47,2.92a.71.71,0,0,1-.06.24,14.4,14.4,0,0,1-1.36,2.21A.36.36,0,0,1,139.09,67.05Zm23,16.69a.33.33,0,0,1,.31.37c0,.31,0,1,0,1.74,0,.47,0,1,0,1.22s-.21.24-.38.24c-4.55-.31-7.21-.34-9.79-.34-7.65,0-9.89.14-12.88.34-.21,0-.45-.07-.45-.31s0-1,0-1.49c0-1.29,0-1.77.34-1.77h.14c4.14.27,6.76.37,9.11.37,0-1.83.1-5.71.1-9s-.07-6.35-.1-7.71c-1.57,0-3.54.1-6.39.3H142c-.17,0-.38-.06-.38-.3s0-.85,0-1.4c0-1.73.07-1.73.48-1.73,4.08.31,6.18.34,8.09.34a92.84,92.84,0,0,0,9.55-.34c.41,0,.41.34.41,2,0,1.26-.07,1.39-.41,1.39-3.54-.23-5.17-.3-6.9-.34v0c0,.2-.21.41-.48.58s-.23.27-.23.61c0,1.7-.07,4.11-.07,6.59,0,3.2.07,7.11.1,8.94,2.58,0,5.17-.06,9.89-.37Z"/><path d="M191,79c0,.31-.14.34-.41.34s-1.16.07-1.84.07c-1.46,0-1.6-.07-1.6-.41v-.07l.11-1.7c-1.23,0-3.27-.07-5.82-.07-3,0-5.54,0-6.86.07-1.19,9.25-6.8,13-7.42,13a.52.52,0,0,1-.33-.13,15.35,15.35,0,0,0-3.37-1.46c-.2-.07-.27-.14-.27-.21s.07-.13.27-.24c6.49-3.09,7.92-9.65,7.92-14.92a34.67,34.67,0,0,0-.51-5.78.93.93,0,0,1,0-.27c0-.14.06-.17.23-.17h.24c3.57.24,5.51.27,7.31.27,7.17,0,8.23,0,11.87-.24.27,0,.4.07.4.38v.1c-.13,1.43-.2,3.43-.2,5.5a43.67,43.67,0,0,0,.31,5.75Zm2.92-17.85c.27,0,.34.07.34,2.11,0,1.29-.07,1.6-.37,1.6-6.87-.38-9.32-.38-13.19-.38-5.68,0-8.57.14-12.65.38-.41,0-.44-.24-.44-1.87,0-1.84,0-1.84.27-1.84H168c6.08.31,8.12.34,11,.34,5.64,0,8.53,0,14.82-.34Zm-6.56,9.18s-1.09-.1-3.71-.1c-.68,0-1.42,0-2.27,0l-6.67.07s0,1.94,0,3.84c1.42,0,3.91.07,6.59.07s4.76,0,6-.07Z"/><path d="M210.87,82.75c0,.34-.1.58-1.7.58-.92,0-1.63,0-1.63-.47v-.07c0-.65,0-1.5.06-2.42-.37,0-.95-.06-1.46-.06s-1.19,0-1.56.06c0,1.53,0,3,.07,4.36,0,.57-.07.61-1.7.61s-1.74-.21-1.74-.55v-.1c.31-4.66.38-9.76.38-12.54,0-3.51-.07-6.26-.21-9.05,0-.13,0-.2,0-.3s.07-.21.24-.21.17,0,.27,0c1.09.1,2.58.17,4.32.17s2-.07,4.21-.21c.38,0,.44.14.44.48-.23,2.69-.23,5.81-.23,8.74,0,2.55.06,8,.27,10.74Zm-4.76-17.33c-1,0-1.53,0-1.53,0s-.07,2.11-.07,4.52c.41,0,1.09,0,1.6,0s1.22,0,1.6,0c0-2.17-.11-4.52-.11-4.52s-.34,0-1,0Zm1.6,7.31c-.38,0-1,0-1.57,0s-1.26,0-1.63,0c0,1.32,0,3,0,4.86.41,0,1.06,0,1.57,0s1.15,0,1.53,0C207.67,75.75,207.71,74,207.71,72.73Zm21.82.16c-3.77-.37-7.31-.4-9.45-.4s-3.91.07-8.36.34c-.34,0-.41-.1-.41-1.57s0-1.63.41-1.63c3.33.27,5.06.34,6.83.34V67.29c-1.53,0-3,.06-5.47.2-.31,0-.38,0-.38-1.46s.07-1.53.45-1.53c2.38.2,3.91.2,5.33.2v-.34a27.37,27.37,0,0,0-.47-5v-.17c0-.17,0-.21.24-.21.54,0,4.35.41,4.35,1.13,0,.27-.31.61-.51,1-.38.71-.34.64-.48,2.85a4.94,4.94,0,0,0,0,.68c1.29,0,2.58-.07,5.2-.24.17,0,.41,0,.41,1.57a6.7,6.7,0,0,1-.07,1.26c0,.13-.21.2-.31.2h0c-2.55-.14-3.74-.17-5.24-.2V70c2.11,0,4.86-.17,8-.41.24,0,.38.24.38,1.67,0,.54,0,1.09-.07,1.43,0,.13-.17.23-.27.23Zm-4.59,13c0,2-1.12,4.25-5.1,4.25q-.3,0-.51-.51c-.64-1.53-1.83-2.07-2.65-3-.1-.11-.17-.17-.17-.24s0-.07.14-.07a1.39,1.39,0,0,0,.17,0,19.72,19.72,0,0,0,2.75.28c1.29,0,2-.34,2-1.33.07-1.33.07-4,.07-5.54v-2h-1.46c-2.18,0-3.95.06-8.33.34a.33.33,0,0,1-.34-.31c0-.27,0-.78,0-1.33,0-1.63,0-1.63.38-1.63,4.21.34,6,.34,8.33.34h1.36a14.14,14.14,0,0,0-.27-2c0-.07,0-.1,0-.13s.1-.21.27-.21,4,.34,4,1a.91.91,0,0,1-.27.54c-.31.41-.41.41-.44.75,1.39-.07,2.95-.17,4.62-.3h0c.21,0,.34.27.34,1.69,0,.55,0,1.13-.06,1.47a.33.33,0,0,1-.28.23h0c-1.67-.17-3.26-.27-4.69-.3v2.92c0,1.84.17,3,.2,4.93Zm-7.51-1.49c-.07,0-.14-.07-.2-.14A19.42,19.42,0,0,0,213,80.61c-.11-.07-.14-.1-.14-.17,0-.37,1.5-1.36,1.84-1.56a.26.26,0,0,1,.17-.1.44.44,0,0,1,.17.06,17.34,17.34,0,0,1,4.45,2.89.29.29,0,0,1,.1.21,14.63,14.63,0,0,1-2,2.38C217.53,84.35,217.5,84.39,217.43,84.39Z"/><path d="M238.68,89.31c.51-4.58.75-12,.88-17.57-.3.37-3.8,4.72-4.55,4.72a.45.45,0,0,1-.27-.06,9.56,9.56,0,0,0-2.86-1.06c-.2,0-.34-.1-.34-.17s.07-.13.17-.2c5.85-4.15,10.51-12,10.91-14.28,0-.14.07-.2.17-.2.58,0,4,1.46,4,2.1,0,.24-.27.48-.78.68s-.68.14-1,.68a39.91,39.91,0,0,1-2.31,3.57c.23.07.4.17.54.21a.42.42,0,0,1,.34.41,1.12,1.12,0,0,1-.34.64,2,2,0,0,0-.51,1.63c-.14,4.22-.31,9.76-.31,14.28,0,1.77,0,3.37.11,4.69,0,.17-.11.34-1.94.34-1.6,0-1.94,0-1.94-.34Zm23.53-18.18c0,.13-.24.27-.34.27-5.1.37-5.85.44-8.84.88l-.72.11c2,10.13,7.62,12.91,8.3,12.91s1.6-1,1.83-3.8c0-.21.07-.28.17-.28s.14.07.21.17a11.86,11.86,0,0,0,2.72,2.76.52.52,0,0,1,.24.51c-.92,3-2.55,4.65-4.56,4.65a5.09,5.09,0,0,1-2.72-.91c-5.61-3.54-8.09-9.52-9.35-15.47l-4.86,1h-.1a.4.4,0,0,1-.41-.24,13.43,13.43,0,0,1-.37-2.69v-.13c0-.34.17-.41.37-.41,2.14-.13,3.6-.27,4.86-.44-.27-1.73-.47-3.47-.61-5.1s-.27-3-.48-3.91a2.49,2.49,0,0,1-.06-.37c0-.14.06-.21.2-.21s.14,0,.2,0c3.68.44,4.42.57,4.42,1.12a3.17,3.17,0,0,1-.51,1.19,2.61,2.61,0,0,0-.2,1.12,49.33,49.33,0,0,0,.27,5.68l.75-.1c3.26-.45,4.08-.62,8.74-1.6h.06a.37.37,0,0,1,.38.3,19.34,19.34,0,0,1,.41,2.89ZM257,67.59a23.35,23.35,0,0,0-4.11-2.82c-.14-.07-.28-.1-.28-.24a5.68,5.68,0,0,1,1.77-2.21c.65,0,4.79,2.31,4.79,2.76s-1.36,2.68-1.8,2.68A.49.49,0,0,1,257,67.59Z"/><path d="M282.33,91a.51.51,0,0,1-.4.2.33.33,0,0,1-.21-.06c-4.25-2.28-9.07-8-9.07-16.8,0-11.56,8.87-16.52,9.28-16.52a2.8,2.8,0,0,1,1.39,1.94.52.52,0,0,1-.31.47c-3.63,2.11-6.9,7.69-6.9,14.15,0,6.8,3.27,12.27,6.9,14.41a.51.51,0,0,1,.24.48A3.15,3.15,0,0,1,282.33,91Z"/><path d="M318.65,86c.13,0,.23,0,.23.13a.42.42,0,0,1-.1.24c-.41.55-2.11,1.6-2.72,2.72-.1.24-.34.24-.51.24A16.16,16.16,0,0,1,306,85.61a13.89,13.89,0,0,1-7.55,4.25.63.63,0,0,1-.41-.17c-1-1-2.79-1.29-3.4-1.6-.24-.13-.34-.2-.34-.27s.14-.14.31-.14A13.74,13.74,0,0,0,304,83.5a14.25,14.25,0,0,1-1.84-3c-4,5.31-6.56,6.36-6.63,6.36a.51.51,0,0,1-.3-.1,3.72,3.72,0,0,0-1.33-.48c0,1,.07,2,.14,3.1,0,.13-.14.24-.31.27-.34,0-.95.07-1.6.07-1.42,0-1.9,0-1.9-.41.44-4.62.68-9.45.78-14.08-1.6,1.84-3.63,3.78-4,3.78a.41.41,0,0,1-.27-.1,10.91,10.91,0,0,0-2.93-1.3c-.17,0-.27-.1-.27-.17s.07-.1.2-.2c5-2.65,9.45-9.28,9.93-10.84.07-.14.1-.21.2-.21s3.51,1.12,3.51,1.87c0,.24-.28.44-.82.61s-.65.11-1,.58-.89,1.33-1.74,2.45c.28.07.48.17.62.2s.34.24.34.45a1.06,1.06,0,0,1-.31.61c-.48.51-.48.81-.48,1.6,0,3.77-.13,7-.13,10.06a25.26,25.26,0,0,0,8.43-10l-4.08.58c-.44.1-.78.41-1,.41-.44,0-1.43-2-1.67-3.13a.28.28,0,0,1,0-.13c0-.14.07-.17.2-.17s.14,0,.21,0h.47c1.19,0,3-.1,5-.24l1.09-1.26c-1.77-1.25-4.42-2.61-5.1-3q-.21-.11-.21-.21a.34.34,0,0,1,.1-.2c1.09-1.43,1.33-1.77,1.53-1.77s.11,0,.17.07l1.23.61a19.44,19.44,0,0,0,2.45-6.15c0-.17.06-.24.23-.24s3.81.88,3.81,1.67c0,.23-.44.44-.88.78a2.29,2.29,0,0,0-.68.92c-.58,1-1.77,2.92-2.65,4.28l1.73,1.09c1.73-2.21,3.33-4.56,3.64-5.68.07-.17,0-.31.24-.31s3.77,1.43,3.77,2.15c0,.27-.41.4-.89.64a2,2,0,0,0-.91.75c-.85,1.05-3.1,3.57-4.93,5.58l5.68-.58c-.75-.85-1.43-1.46-1.71-1.8-.1-.11-.17-.17-.17-.24A5.68,5.68,0,0,1,310.79,68,20.31,20.31,0,0,1,316,73.3a.58.58,0,0,1,.07.21c0,.3-1.74,1.36-2.38,1.7a.25.25,0,0,1-.14,0c-.14,0-.24,0-.27-.14a13.53,13.53,0,0,0-.92-1.73l-6.36.82.14.1c.1.1.17.17.17.24s-.14.24-.41.3-.51.14-.64.51l-.34.78h.4c1.36,0,2.89-.1,2.89-.1.58,0,.68-.3,1-.3s2.37,1.09,2.37,1.59c0,.17-.2.34-.54.62s-.41.37-.75,1a28.89,28.89,0,0,1-2.44,4.28c2.2,1.57,5.5,2.76,10.4,2.76ZM295.7,62.22c-.48.17-.65.1-1,.58-3,4.18-6.08,7.27-6.69,7.27a.41.41,0,0,1-.28-.13,10.37,10.37,0,0,0-2.89-1.23c-.17-.07-.27-.1-.27-.2s.07-.1.21-.17a22.85,22.85,0,0,0,8.09-8.43c.06-.14.1-.24.17-.24s.06,0,.1,0c.54.14,3.36,1.23,3.36,1.91C296.51,61.85,296.24,62.05,295.7,62.22Zm8.23,16.11a9.29,9.29,0,0,0,1.76,3,17.75,17.75,0,0,0,1.64-3Z"/><path d="M346.7,73.47c-5-.24-7.35-.3-10-.34,0,.92,0,2.21,0,3.68,3.5,0,6.22-.07,12.61-.38.34,0,.41.1.41,1.77s-.11,1.7-.41,1.7c-6.15-.27-9.21-.34-12.58-.38.07,3.51.2,7.42.34,10,0,.21-.14.38-2,.38-1.73,0-2,0-2-.44.2-3.34.34-6.87.44-10-3.57,0-6,.11-12.41.38-.44,0-.47-.17-.47-1.74,0-1.73,0-1.73.47-1.73,6.36.31,9.35.38,12.48.38,0-1.47,0-2.73,0-3.68-2.78,0-4.55.1-9.82.34h-.1c-.24,0-.31,0-.31-1.63s0-1.66.41-1.66c5.17.27,7.41.34,9.82.34A76.6,76.6,0,0,0,333,59.74c0-.07,0-.14,0-.21s.06-.1.13-.1c.24,0,4.76.27,4.76,1.12,0,.34-.41.82-.68,1.6s-.47,4.12-.51,8.37c2.76,0,4.8-.07,10-.34.23,0,.27.1.3.3a13,13,0,0,1,0,1.4,13.22,13.22,0,0,1,0,1.39c0,.1-.07.2-.24.2Zm-17.17-3.94c-.1,0-.21-.07-.31-.24a27.06,27.06,0,0,0-4.69-4.59c-.14-.1-.24-.17-.24-.27,0-.34,1.74-1.67,1.94-1.67.44,0,5.88,3.54,5.88,4.32A7.4,7.4,0,0,1,329.53,69.53Zm15.7-3.94c-.57.27-3.43,2.68-5.09,3.84a.39.39,0,0,1-.28.1.2.2,0,0,1-.17-.1,4.86,4.86,0,0,0-1.8-1.09c-.1-.07-.13-.14-.13-.17a.19.19,0,0,1,.1-.14,29.16,29.16,0,0,0,5.1-5.64c.06-.14.13-.2.24-.2.44,0,3.26,2,3.26,2.72C346.46,65.31,345.71,65.31,345.23,65.59Z"/><path d="M354.35,91.18a.51.51,0,0,1-.41-.2,3.24,3.24,0,0,1-.92-1.73.61.61,0,0,1,.24-.48c3.64-2.14,6.9-7.61,6.9-14.41,0-6.46-3.26-12-6.9-14.15a.51.51,0,0,1-.3-.47,2.77,2.77,0,0,1,1.39-1.94c.41,0,9.28,5,9.28,16.52,0,8.81-4.83,14.52-9.08,16.8A.29.29,0,0,1,354.35,91.18Z"/><path d="M117.66,17.36c-2.56.49-4.81.93-7,1.39-.8.19-1,.23-1.33.33a1.07,1.07,0,0,1-.46.17.49.49,0,0,1-.4-.31,16.18,16.18,0,0,1-.78-2.27,28.51,28.51,0,0,0,3.34-.36c2.59-.38,7.2-1.07,12.62-1.78.32,0,.42.08.44.23a11.26,11.26,0,0,1,.23,1.85c0,.25-.12.31-.4.31a9.49,9.49,0,0,0-2.56.46c-3.57,1.22-5.35,3.68-5.35,6.2,0,2.7,1.93,4.18,5.58,4.41.34,0,.47.08.47.31a7.87,7.87,0,0,1-.23,1.81c-.07.31-.15.44-.4.44-3.7,0-7.75-2.12-7.75-6.49,0-3,1.49-5,4-6.66Zm4.16,2.27c.1-.08.19-.06.31,0a10,10,0,0,1,2,2.25.21.21,0,0,1-.07.33l-.88.65a.21.21,0,0,1-.35-.06,10.48,10.48,0,0,0-2.13-2.43Zm1.87-1.36c.12-.09.18-.07.31,0a8.65,8.65,0,0,1,2,2.16.25.25,0,0,1-.07.38l-.84.65a.21.21,0,0,1-.35-.07,10,10,0,0,0-2.1-2.41Z"/><path d="M134.65,14.65a5.27,5.27,0,0,0-.74-1.34,14.65,14.65,0,0,1,2.55-.23c.29,0,.46.17.46.38s0,.27,0,.39a4.13,4.13,0,0,0,.08.64c.15.54.21.73.34,1.09a32.67,32.67,0,0,0,4.28-1.12c.19-.08.29-.06.36.11.12.4.27,1,.35,1.41a.31.31,0,0,1-.25.37c-1.41.44-2.69.76-4.11,1.08.18.52.46,1.17.73,1.76a26.07,26.07,0,0,0,3.82-1.09c.21-.11.32-.07.38.12a8.41,8.41,0,0,1,.38,1.39c0,.19,0,.29-.17.38a26.71,26.71,0,0,1-3.55,1,15.67,15.67,0,0,0,2.75,3.63c.21.19.21.27.11.5a6.37,6.37,0,0,1-.86,1.3c-.13.15-.21.21-.34.21a.56.56,0,0,1-.29-.12,5.57,5.57,0,0,0-1.24-.68,10.27,10.27,0,0,0-4-.67c-2,0-3.13.61-3.13,1.6,0,1.36,1.79,1.81,5,1.81.78,0,1.55-.09,2.31-.13.21,0,.27.1.25.27a12.64,12.64,0,0,1-.42,1.91c-.06.21-.15.3-.44.32-.48,0-1,.06-1.51.06-4.83,0-7.39-1.36-7.39-4,0-2.24,1.93-3.65,5.2-3.65a9.81,9.81,0,0,1,3.61.52,24.75,24.75,0,0,1-1.74-2.47,52.84,52.84,0,0,1-5.75.63.34.34,0,0,1-.38-.3,12.06,12.06,0,0,1-.38-1.72,37,37,0,0,0,5.65-.52c-.21-.44-.52-1.16-.8-1.75a35.3,35.3,0,0,1-5.1.51c-.25,0-.38-.09-.42-.3s-.21-1-.33-1.68a37.05,37.05,0,0,0,5.22-.33C135,15.53,134.86,15.18,134.65,14.65Z"/><path d="M150.84,24c.19.1.21.21.11.38A3.37,3.37,0,0,0,150.4,26c0,1.32,1.37,2,5,2a27.29,27.29,0,0,0,5.69-.6c.29-.07.4,0,.44.18a18.53,18.53,0,0,1,.33,2.06c0,.19-.1.28-.35.32a34.08,34.08,0,0,1-6.16.5c-4.85,0-7.22-1.51-7.22-4.24a5.54,5.54,0,0,1,1.12-3C149.77,23.45,150.3,23.72,150.84,24Zm4.75-8.23c1.53,0,3-.09,4.36-.19.21,0,.3.06.32.23a12.61,12.61,0,0,1,.19,1.78c0,.3-.11.42-.36.44A12.34,12.34,0,0,0,155,20.13a.88.88,0,0,1-.53.19.94.94,0,0,1-.44-.12,4.89,4.89,0,0,0-1.47-.68c1.09-.71,2-1.3,2.75-1.74a11.49,11.49,0,0,1-1.53.07,25.18,25.18,0,0,1-3.86-.36c-.19,0-.28-.13-.28-.38,0-.5,0-1.11.09-1.87A26.3,26.3,0,0,0,155.59,15.79Zm5.71-2.33c.1-.09.19-.07.31,0a9.54,9.54,0,0,1,2,2.25.21.21,0,0,1-.07.33l-.88.65a.21.21,0,0,1-.35-.06,10.53,10.53,0,0,0-2.13-2.44Zm1.87-1.37c.12-.08.19-.06.31,0a8.86,8.86,0,0,1,2,2.17.24.24,0,0,1-.07.37l-.84.66a.21.21,0,0,1-.35-.07,10,10,0,0,0-2.1-2.41Z"/><path d="M174.76,13.56c.25.06.38.17.38.34s-.15.59-.15.88.06.92.11,1.41a30.23,30.23,0,0,0,.67,3.61l3-1.6a5.11,5.11,0,0,0,1.45-1.13,10.71,10.71,0,0,1,1.53,2,.93.93,0,0,1,.15.44c0,.21-.13.38-.42.42a10.61,10.61,0,0,0-2,.63A29.44,29.44,0,0,0,174.51,23c-1.83,1.19-2.48,2.18-2.48,3.17,0,1.24.92,1.76,3.34,1.76a37,37,0,0,0,6.4-.48c.23,0,.34,0,.38.25a17.12,17.12,0,0,1,.21,1.95c0,.24-.13.34-.38.36a45,45,0,0,1-6.25.32c-4,0-6.07-1.3-6.07-4,0-2.33,1.53-3.86,4-5.41a31.4,31.4,0,0,1-1.09-5.12,9.57,9.57,0,0,0-.55-2.44A12.1,12.1,0,0,1,174.76,13.56Z"/><path d="M196.79,17.09a26.25,26.25,0,0,1-2.63,9.05c-.9,1.57-2,2.41-3.57,2.41-1.84,0-3.71-2-3.71-5.39a7.73,7.73,0,0,1,2.37-5.46A9.16,9.16,0,0,1,196.07,15c5,0,8,3.11,8,7.29,0,3.9-2.2,6.36-6.46,7.64-.44.12-.63,0-.91-.38a4.36,4.36,0,0,0-1.47-1.32c3.55-.84,6.35-2.31,6.35-6.28a4.77,4.77,0,0,0-4.71-4.87Zm-6,2A6,6,0,0,0,189.12,23c0,1.93.78,3,1.43,3s1-.27,1.58-1.28a23.87,23.87,0,0,0,2.22-7.52A6.38,6.38,0,0,0,190.76,19.13Z"/><path d="M220.12,12.78c.27-.12.31-.1.4.11a16.84,16.84,0,0,0,6.8,7.75,7,7,0,0,0-1.22,1.57c-.19.32-.27.46-.4.46s-.23-.1-.44-.27a17.14,17.14,0,0,1-2-1.7c0,.61,0,1.34-.06,2.08a42.39,42.39,0,0,1-.53,5.88c-.27,1.66-1.07,2.58-3.13,2.58-.52,0-.92,0-1.43,0s-.62,0-.77-.74a4.46,4.46,0,0,0-.65-1.68,15.29,15.29,0,0,0,2.39.19c.88,0,1.24-.33,1.41-1.3a35.71,35.71,0,0,0,.4-5.21h-3.74a10.18,10.18,0,0,1-6.38,8.91,1.42,1.42,0,0,1-.51.16c-.17,0-.23-.14-.44-.5a3.92,3.92,0,0,0-1.07-1.26c3.82-1.39,5.67-3.61,6.07-7.31h-.25c-2,0-2.65.05-2.77.05s-.24,0-.24-.24V20.74a22.21,22.21,0,0,1-2,1.74c-.23.17-.36.28-.46.28s-.24-.15-.45-.46A4.47,4.47,0,0,0,207.46,21a16.5,16.5,0,0,0,6.07-6.93,6.12,6.12,0,0,0,.42-1.35,15.39,15.39,0,0,1,2.18.74c.23.1.29.21.29.35a.45.45,0,0,1-.16.32,1.77,1.77,0,0,0-.49.67,19.09,19.09,0,0,1-3.84,5.57c.3,0,1,0,2.65,0h5.64c1.83,0,2.52,0,2.73,0a22.29,22.29,0,0,1-4.51-6.66c-.08-.23,0-.25.19-.36Z"/><path d="M236.23,18.14a9.57,9.57,0,0,0,3.06,2.39,4.91,4.91,0,0,0-.67,1.07c-.15.34-.23.51-.38.51s-.23-.11-.46-.3a10.53,10.53,0,0,1-2.29-2.56c0,1.68.09,2.1.09,2.31s0,.23-.23.23h-1.41c-.21,0-.23,0-.23-.23s.06-.59.08-2.1A11.23,11.23,0,0,1,231,22.21c-.23.17-.36.25-.48.25s-.23-.12-.36-.4a3.94,3.94,0,0,0-.75-1.15,11.35,11.35,0,0,0,3.63-2.77h-.42c-1.77,0-2.37,0-2.5,0s-.21,0-.21-.23V16.77c0-.21,0-.23.21-.23s.73.05,2.5.05h1V15a16.8,16.8,0,0,0-.15-2.54,17.69,17.69,0,0,1,2,.15c.23,0,.34.1.34.21a2.21,2.21,0,0,1-.15.5,8.87,8.87,0,0,0-.08,1.68v1.6h.88c1.79,0,2.37-.05,2.5-.05s.23,0,.23.23V18c0,.21,0,.23-.23.23s-.71,0-2.5,0Zm-3.66,7.58c-1.78,0-2.37,0-2.49,0s-.24,0-.24-.23V24.21c0-.21,0-.23.24-.23s.71,0,2.49,0h1a9.09,9.09,0,0,0,0-1.81c.84.06,1.41.11,1.87.17.23,0,.35.13.35.25a1,1,0,0,1-.1.34,2.74,2.74,0,0,0-.19,1.05h1c1.82,0,2.39,0,2.52,0s.25,0,.25.23v1.32c0,.21,0,.23-.25.23s-.7,0-2.52,0h-.53A6.57,6.57,0,0,0,239,28.41a4.66,4.66,0,0,0-1,1.07c-.21.31-.31.46-.46.46s-.25-.11-.48-.27a7.9,7.9,0,0,1-2.29-2.59,7.55,7.55,0,0,1-3.3,3.74.93.93,0,0,1-.44.19c-.14,0-.27-.13-.48-.46a4.36,4.36,0,0,0-1-1.09,5.84,5.84,0,0,0,3.7-3.74Zm-1.09-12.47c.21-.11.28-.09.42.08a11.67,11.67,0,0,1,1.16,1.95c.1.23.06.3-.21.42l-1,.47c-.25.12-.31.14-.4-.07a10.67,10.67,0,0,0-1.07-2c-.15-.21-.17-.28.13-.42Zm5.36.71a3.48,3.48,0,0,0,.29-.92,9.56,9.56,0,0,1,1.55.56c.17.07.23.17.23.25s0,.17-.18.3a1.44,1.44,0,0,0-.3.4,14.76,14.76,0,0,1-.71,1.3c-.17.27-.25.38-.38.38a.92.92,0,0,1-.4-.17,5.94,5.94,0,0,0-1-.42A10.79,10.79,0,0,0,236.84,14Zm6.21,14.55c.21.15.23.23.23.34s-.1.19-.25.25a2.37,2.37,0,0,0-.55.38,13.77,13.77,0,0,1-2.81,1.89,1.62,1.62,0,0,1-.55.21c-.18,0-.29-.15-.5-.51a4.52,4.52,0,0,0-.86-1.05,10.64,10.64,0,0,0,3.15-1.68,4.12,4.12,0,0,0,.71-.73A13.72,13.72,0,0,1,243.05,28.51Zm-.86-13.4c-1.87,0-2.5.05-2.62.05s-.24,0-.24-.23V13.39c0-.21,0-.23.24-.23s.75,0,2.62,0h3.91c1.89,0,2.52,0,2.64,0s.21,0,.21.23v1.54c0,.21,0,.23-.21.23s-.75-.05-2.64-.05h-1a13.94,13.94,0,0,1-.66,1.58h1c1.68,0,2.27,0,2.42,0s.23,0,.23.21,0,.86,0,2.45V24.9c0,1.6,0,2.31,0,2.41s0,.26-.23.26-.74-.05-2.42-.05h-2.79c-1.7,0-2.27.05-2.39.05s-.26,0-.26-.26.05-.81.05-2.41V19.4c0-1.68-.05-2.39-.05-2.54s0-.21.26-.21.65,0,2.1,0a11.46,11.46,0,0,0,.6-1.58ZM242,19.76h4V18.43h-4Zm4,3V21.33h-4v1.39Zm0,1.57h-4v1.49h4Zm-.57,3.49a.39.39,0,0,1,.28-.15.43.43,0,0,1,.21.1,10.86,10.86,0,0,0,3.46,2.08,5.14,5.14,0,0,0-.86,1.18c-.19.36-.29.48-.46.48a1.11,1.11,0,0,1-.48-.19,12,12,0,0,1-3-2.29.27.27,0,0,1-.1-.21c0-.06,0-.14.16-.25Z"/><path d="M262,17.36c-2.57.49-4.81.93-7.06,1.39-.8.19-1,.23-1.32.33a1.17,1.17,0,0,1-.46.17.48.48,0,0,1-.4-.31,13.94,13.94,0,0,1-.78-2.27,29,29,0,0,0,3.34-.36c2.58-.38,7.2-1.07,12.62-1.78.31,0,.42.08.44.23a12.46,12.46,0,0,1,.23,1.85c0,.25-.13.31-.4.31a9.35,9.35,0,0,0-2.56.46c-3.57,1.22-5.36,3.68-5.36,6.2,0,2.7,1.94,4.18,5.59,4.41.34,0,.46.08.46.31a7.36,7.36,0,0,1-.23,1.81c-.06.31-.15.44-.4.44-3.69,0-7.75-2.12-7.75-6.49,0-3,1.49-5,4-6.66Zm4.15,2.27c.11-.08.19-.06.32,0a9.93,9.93,0,0,1,2,2.25.2.2,0,0,1-.06.33l-.88.65c-.15.11-.25.09-.36-.06a10.44,10.44,0,0,0-2.12-2.43ZM268,18.27c.13-.09.19-.07.32,0a8.61,8.61,0,0,1,2,2.16.25.25,0,0,1-.06.38l-.84.65a.22.22,0,0,1-.36-.07A10,10,0,0,0,267,19Z"/><path d="M287,19.42A5.76,5.76,0,0,0,287,18a9.51,9.51,0,0,1,2.44.9.4.4,0,0,1,.15.57,3.3,3.3,0,0,0-.34.82c-.17.88-.38,1.81-.59,2.71a25.35,25.35,0,0,1,3.28,2c.21.13.19.24.12.44a18,18,0,0,1-.9,1.81c-.06.11-.13.15-.19.15a.38.38,0,0,1-.25-.15,16.21,16.21,0,0,0-2.75-2,13,13,0,0,1-4.24,5.52c-.19.15-.3.23-.42.23a.55.55,0,0,1-.32-.15,4.32,4.32,0,0,0-1.82-.86,11.59,11.59,0,0,0,4.7-5.69,14.19,14.19,0,0,0-4.16-1.28,14.51,14.51,0,0,1-2.56,4.2,3.46,3.46,0,0,1-2.69,1.16c-1.21,0-2.5-.84-2.5-2.88,0-2.6,2.69-4.64,6.2-4.64.69-1.74,1.22-3.21,1.74-5l-2.9.34a4,4,0,0,0-.94.23,1.17,1.17,0,0,1-.38.08.32.32,0,0,1-.33-.23,12.64,12.64,0,0,1-.61-2.29,7.61,7.61,0,0,0,1.84.13,23.18,23.18,0,0,0,3.26-.27,2.55,2.55,0,0,0,1-.36.53.53,0,0,1,.56,0,6.74,6.74,0,0,1,1.43,1.15.51.51,0,0,1,.19.36c0,.13-.08.23-.21.36a2.91,2.91,0,0,0-.57,1.09c-.54,1.43-1.13,3.07-1.76,4.58a17.35,17.35,0,0,1,4.07,1.05A20.36,20.36,0,0,0,287,19.42Zm-11.08,5.86c0,.67.23,1,.73,1a1.69,1.69,0,0,0,1.22-.8,13.62,13.62,0,0,0,1.53-2.56C277.26,23,275.92,24.08,275.92,25.28Z"/><path d="M301.79,21.16a6.33,6.33,0,0,1,3.34-.94,4.88,4.88,0,0,1,5.21,5c0,3.5-2.84,5.75-7.33,5.75-2.65,0-4.24-1.13-4.24-3.09a2.79,2.79,0,0,1,3-2.56,3.81,3.81,0,0,1,3.94,3.07,3.17,3.17,0,0,0,2.15-3.19,3.07,3.07,0,0,0-3.3-3.18,8.59,8.59,0,0,0-5.38,2.23c-.6.55-1.19,1.15-1.82,1.79-.15.14-.25.23-.36.23a.54.54,0,0,1-.31-.19,8.83,8.83,0,0,1-1.24-1.37c-.13-.17-.07-.31.1-.48a50.43,50.43,0,0,0,5-4.64c1.3-1.34,2.29-2.39,3.25-3.59-1.26.23-2.75.52-4.05.8a5.46,5.46,0,0,0-.88.25,1.7,1.7,0,0,1-.42.1.47.47,0,0,1-.46-.35,10,10,0,0,1-.74-2.27,10.59,10.59,0,0,0,1.95,0c1.29-.12,3.13-.4,4.77-.71a5.48,5.48,0,0,0,1.16-.32,1.11,1.11,0,0,1,.39-.17.81.81,0,0,1,.49.17,7.93,7.93,0,0,1,1.4,1.35.69.69,0,0,1,.23.5.54.54,0,0,1-.35.5,3.4,3.4,0,0,0-.93.68c-1.53,1.49-2.94,3-4.53,4.49Zm0,6c-.61,0-1,.35-1,.79,0,.66.57,1.1,1.83,1.1a4.21,4.21,0,0,0,1-.09C303.32,27.8,302.69,27.15,301.81,27.15Z"/><path d="M327.87,22.55H315.1V21.33h12.77Z"/><path class="cls-3" d="M336.61,24.75c0,1.49,0,3.21,0,4.27s-.13,1.59-.67,2-.95.42-2.35.42c-.66,0-.66,0-.8-.63a5.85,5.85,0,0,0-.57-1.62,10,10,0,0,0,1.6.09c.46,0,.65-.23.65-.8v-4l-1.05.31a2.28,2.28,0,0,0-.67.32.9.9,0,0,1-.36.12c-.13,0-.21-.06-.25-.25a17.83,17.83,0,0,1-.38-2,10.81,10.81,0,0,0,2-.37l.74-.21V18.37h-.36c-1.43,0-1.87,0-2,0s-.25,0-.25-.23V16.61c0-.24,0-.26.25-.26s.54,0,2,0h.36v-1a16.77,16.77,0,0,0-.17-3c.8,0,1.51.06,2.2.14.21,0,.34.11.34.21a1,1,0,0,1-.13.45,6.73,6.73,0,0,0-.12,2.12v1c1.11,0,1.51,0,1.64,0s.21,0,.21.26v1.57c0,.21,0,.23-.21.23l-1.64,0v3.27a18,18,0,0,0,2-.83,13.37,13.37,0,0,0-.08,1.38c0,.69,0,.65-.59.9l-1.36.57ZM342,17.38c-2,0-2.68.05-2.83.05s-.23,0-.23-.24V15.62c0-.23,0-.25.23-.25s.84,0,2.83,0h1.56V15a13.71,13.71,0,0,0-.15-2.56c.78,0,1.53.06,2.25.14.21,0,.31.13.31.23a1.51,1.51,0,0,1-.15.53,6.64,6.64,0,0,0-.12,1.62v.48h2.16c2,0,2.69,0,2.81,0s.24,0,.24.25v1.57c0,.21,0,.24-.24.24s-.81-.05-2.81-.05h-2.16v2.67h2.2a.76.76,0,0,0,.42-.08.69.69,0,0,1,.3-.09c.14,0,.33.09.77.53s.59.63.59.77a.5.5,0,0,1-.19.38c-.19.15-.25.34-.48.84a16.6,16.6,0,0,1-3,4.66,14,14,0,0,0,4.95,2.29,8.71,8.71,0,0,0-.86,1.55c-.17.4-.21.55-.4.55a1.46,1.46,0,0,1-.5-.13,16.41,16.41,0,0,1-4.85-2.75,17.54,17.54,0,0,1-5.42,2.84,1.69,1.69,0,0,1-.48.12c-.19,0-.23-.14-.4-.52a6.15,6.15,0,0,0-.94-1.37,16,16,0,0,0,5.71-2.6,14.1,14.1,0,0,1-2.71-5.1c-.59,0-.86,0-.93,0s-.23,0-.23-.25V20.24c0-.21,0-.23.23-.23s.78,0,2.69,0h1.37V17.38Zm.55,4.54a10.88,10.88,0,0,0,2.2,3.71,11.59,11.59,0,0,0,2.4-3.71Z"/><path class="cls-3" d="M362.25,15.28a13.91,13.91,0,0,0-.17-2.75,20.07,20.07,0,0,1,2.16.13c.19,0,.32.12.32.23a1.06,1.06,0,0,1-.13.44,7.66,7.66,0,0,0-.1,1.95v1.54h.31c1.62,0,2.1-.05,2.23-.05s.25,0,.25.24v1.34s.08,0,.21,0,.5,0,1.78,0h2c1.3,0,1.66,0,1.78,0s.23,0,.23.23v1.57c0,.23,0,.25-.23.25s-.46,0-1.57,0v4.41c0,2.23,0,3.26,0,4.12a2.37,2.37,0,0,1-.69,2c-.46.36-1.18.42-2.75.42-.65,0-.65,0-.76-.67a5.27,5.27,0,0,0-.42-1.49,13,13,0,0,0,1.77.13c.6,0,.75-.17.75-.82V20.32h-.15c-1.28,0-1.65,0-1.78,0s-.25,0-.25-.25V18.79a.56.56,0,0,1-.21,0c-.13,0-.61,0-2.23,0h-.31v8.77c0,2.4,0,3.62,0,3.74s0,.23-.21.23h-1.72c-.19,0-.21,0-.21-.23s0-1.34,0-3.74V18.77h-.32c-1.61,0-2.12,0-2.24,0s-.23,0-.23-.23a1,1,0,0,1-.21.17,1.85,1.85,0,0,0-.57.71c-.27.48-.59,1-.92,1.45v7.83c0,1.68,0,2.48,0,2.58s0,.24-.23.24h-1.68c-.21,0-.23,0-.23-.24s0-.9,0-2.58V25.66c0-.68,0-1.58,0-2.38-.34.34-.67.67-1,1a.66.66,0,0,1-.38.21c-.1,0-.17-.13-.23-.4a5.59,5.59,0,0,0-.61-1.58,15.13,15.13,0,0,0,3.64-4.36c.16-.32.35-.72.5-1.11a13.77,13.77,0,0,1,1.55,1,.77.77,0,0,1,.28.3V17c0-.22,0-.24.23-.24s.63.05,2.24.05h.32Zm-3-2c.19.12.29.25.29.4a.3.3,0,0,1-.21.27,2,2,0,0,0-.63.61,19.49,19.49,0,0,1-3.55,3.55c-.23.15-.35.25-.48.25s-.21-.15-.32-.48a4,4,0,0,0-.81-1.45A13,13,0,0,0,357,13.29a4.79,4.79,0,0,0,.57-1A11.75,11.75,0,0,1,359.27,13.31Zm.25,9.13a10.41,10.41,0,0,0,0-1.59c.65.06,1.26.14,1.85.25.25,0,.35.17.35.31a.57.57,0,0,1-.14.32,1.5,1.5,0,0,0-.19.8A23.88,23.88,0,0,1,360.32,28c-.09.27-.15.4-.3.4a2,2,0,0,1-.42-.15,5.25,5.25,0,0,0-1.34-.4A21,21,0,0,0,359.52,22.44Zm6.15-9.28c.21-.12.27-.12.4,0a16.15,16.15,0,0,1,1.28,1.93c.11.19.06.28-.15.4l-.86.59c-.12.09-.19.13-.25.13s-.1-.06-.17-.17a11,11,0,0,0-1.24-2c-.12-.15-.12-.24.11-.38Zm.57,7.58c.21-.08.25-.06.33.15a28.41,28.41,0,0,1,1.2,5.61c0,.2,0,.27-.25.35l-1.2.42c-.29.11-.36.11-.38-.1a30.56,30.56,0,0,0-1.07-5.74c-.06-.2,0-.27.23-.35Zm4.7-7c1.18,0,1.51,0,1.64,0s.21,0,.21.23v1.59c0,.22,0,.24-.21.24s-.46,0-1.64,0h-1.41c-1.17,0-1.51,0-1.63,0s-.23,0-.23-.24V13.94c0-.21,0-.23.23-.23s.46,0,1.63,0Z"/><circle class="cls-4" cx="54.61" cy="72.03" r="52.46"/><path class="cls-5" d="M91.54,89.28l-.7-.42c-.78-.47-1.55-1-2.3-1.48l-.31-.21c-.82-.58-1.62-1.19-2.4-1.81l-.64-.53q-1-.8-1.86-1.62l-.48-.43c-.71-.67-1.39-1.36-2.06-2.08-.2-.21-.39-.42-.58-.64-.52-.56-1-1.14-1.5-1.72-.18-.22-.37-.43-.54-.65-.6-.75-1.18-1.51-1.74-2.29l-.51-.75c-.41-.6-.81-1.21-1.2-1.82-.18-.29-.36-.57-.53-.86-.49-.81-1-1.63-1.41-2.47-.15-.27-.28-.55-.43-.82-.32-.64-.64-1.28-.95-1.94-.16-.34-.32-.67-.47-1-.38-.86-.75-1.73-1.1-2.61v0h0a66.37,66.37,0,0,1-4.13-17.75H43.52a65.06,65.06,0,0,1-5.24,20.4c-.15.34-.31.67-.46,1-.31.66-.64,1.32-1,2l-.41.78C36,70.33,35.52,71.16,35,72c-.17.28-.34.56-.52.84-.39.62-.8,1.23-1.22,1.84l-.5.73c-.56.78-1.14,1.55-1.74,2.3l-.53.64c-.49.59-1,1.17-1.51,1.74l-.57.63c-.67.71-1.36,1.41-2.07,2.08l-.47.42c-.61.56-1.23,1.1-1.87,1.63l-.63.52c-.78.63-1.58,1.24-2.41,1.82l-.31.21c-.75.51-1.52,1-2.3,1.48l-.7.42c-.89.52-1.8,1-2.73,1.49H94.27C93.34,90.31,92.43,89.8,91.54,89.28ZM46.29,48.44H62.92a67.66,67.66,0,0,0,4.66,17.49l-.94,1.19-6-7.64-6,7.64-6-7.64-6,7.64-.95-1.2A67.7,67.7,0,0,0,46.29,48.44Z"/></g></g></svg>